M48
; DRILL file {KiCad (5.1.8)-1} date 02/05/21 23:49:56
; FORMAT={2:4/ absolute / inch / suppress leading zeros}
; #@! TF.CreationDate,2021-02-05T23:49:56-08:00
; #@! TF.GenerationSoftware,Kicad,Pcbnew,(5.1.8)-1
; #@! TF.FileFunction,Plated,1,2,PTH
FMAT,2
INCH,TZ
T1C0.0157
T2C0.0315
T3C0.0433
%
G90
G05
T1
X66800Y-40910
X66930Y-42430
X66950Y-36000
X66980Y-45500
X67400Y-40960
X67620Y-34510
X67670Y-33300
X67680Y-38220
X67850Y-42050
X67920Y-46020
X67960Y-39470
X68050Y-40980
X68270Y-34050
X68310Y-44010
X68340Y-45500
X68420Y-35000
X68470Y-39070
X68470Y-40000
X68540Y-43280
X68630Y-40630
X68630Y-42560
X68640Y-45050
X68640Y-44460
X68793Y-35459
X68970Y-33350
X69070Y-41980
X69100Y-38200
X69650Y-36220
X69810Y-32790
X69890Y-42330
X70080Y-37780
T2
X65760Y-33050
X65760Y-34050
X65760Y-35050
X65760Y-36050
X65760Y-37050
X65760Y-38050
X65760Y-39050
X65760Y-40050
X65760Y-41050
X65760Y-42050
X65760Y-43050
X65760Y-44050
X65760Y-45050
X65760Y-46050
X71760Y-33050
X71760Y-34050
X71760Y-35050
X71760Y-36050
X71760Y-37050
X71760Y-38050
X71760Y-39050
X71760Y-40050
X71760Y-41050
X71760Y-42050
X71760Y-43050
X71760Y-44050
X71760Y-45050
X71760Y-46050
T3
X64790Y-33050
X64790Y-34050
X64790Y-35050
X64790Y-36050
X64790Y-37050
X64790Y-38050
X64790Y-39050
X64790Y-40050
X64790Y-41050
X64790Y-42050
X64790Y-43050
X64790Y-44050
X64790Y-45050
X64790Y-46050
X70790Y-33050
X70790Y-34050
X70790Y-35050
X70790Y-36050
X70790Y-37050
X70790Y-38050
X70790Y-39050
X70790Y-40050
X70790Y-41050
X70790Y-42050
X70790Y-43050
X70790Y-44050
X70790Y-45050
X70790Y-46050
T0
M30
