%FSLAX45Y45*%
G04 Gerber Fmt 4.5, Leading zero omitted, Abs format (unit mm)*
G04 Created by KiCad (PCBNEW (5.1.8)-1) date 2023-05-14 21:25:31*
%MOMM*%
%LPD*%
G01*
G04 APERTURE LIST*
%TA.AperFunction,Profile*%
%ADD10C,0.050000*%
%TD*%
%ADD11C,0.200000*%
%ADD12C,0.300000*%
G04 APERTURE END LIST*
D10*
X16261080Y-11859260D02*
X16261080Y-8153400D01*
X18412460Y-11859260D02*
X16261080Y-11859260D01*
X18412460Y-8153400D02*
X18412460Y-11859260D01*
X16261080Y-8153400D02*
X18412460Y-8153400D01*
D11*
D12*
X286429Y-465714D02*
X286429Y-165714D01*
X357857Y-165714D01*
X400714Y-180000D01*
X429286Y-208571D01*
X443571Y-237143D01*
X457857Y-294286D01*
X457857Y-337143D01*
X443571Y-394286D01*
X429286Y-422857D01*
X400714Y-451428D01*
X357857Y-465714D01*
X286429Y-465714D01*
X586429Y-465714D02*
X586429Y-265714D01*
X586429Y-322857D02*
X600714Y-294286D01*
X615000Y-280000D01*
X643571Y-265714D01*
X672143Y-265714D01*
X772143Y-465714D02*
X772143Y-265714D01*
X772143Y-165714D02*
X757857Y-180000D01*
X772143Y-194286D01*
X786428Y-180000D01*
X772143Y-165714D01*
X772143Y-194286D01*
X957857Y-465714D02*
X929286Y-451428D01*
X915000Y-422857D01*
X915000Y-165714D01*
X1115000Y-465714D02*
X1086429Y-451428D01*
X1072143Y-422857D01*
X1072143Y-165714D01*
X1457857Y-465714D02*
X1457857Y-165714D01*
X1557857Y-380000D01*
X1657857Y-165714D01*
X1657857Y-465714D01*
X1929286Y-465714D02*
X1929286Y-308571D01*
X1915000Y-280000D01*
X1886428Y-265714D01*
X1829286Y-265714D01*
X1800714Y-280000D01*
X1929286Y-451428D02*
X1900714Y-465714D01*
X1829286Y-465714D01*
X1800714Y-451428D01*
X1786428Y-422857D01*
X1786428Y-394286D01*
X1800714Y-365714D01*
X1829286Y-351428D01*
X1900714Y-351428D01*
X1929286Y-337143D01*
X2072143Y-265714D02*
X2072143Y-565714D01*
X2072143Y-280000D02*
X2100714Y-265714D01*
X2157857Y-265714D01*
X2186429Y-280000D01*
X2200714Y-294286D01*
X2215000Y-322857D01*
X2215000Y-408571D01*
X2200714Y-437143D01*
X2186429Y-451428D01*
X2157857Y-465714D01*
X2100714Y-465714D01*
X2072143Y-451428D01*
X2343571Y-437143D02*
X2357857Y-451428D01*
X2343571Y-465714D01*
X2329286Y-451428D01*
X2343571Y-437143D01*
X2343571Y-465714D01*
X2343571Y-280000D02*
X2357857Y-294286D01*
X2343571Y-308571D01*
X2329286Y-294286D01*
X2343571Y-280000D01*
X2343571Y-308571D01*
M02*
