%FSLAX45Y45*%
G04 Gerber Fmt 4.5, Leading zero omitted, Abs format (unit mm)*
G04 Created by KiCad (PCBNEW (5.1.8)-1) date 2023-05-14 21:25:31*
%MOMM*%
%LPD*%
G01*
G04 APERTURE LIST*
%TA.AperFunction,Profile*%
%ADD10C,0.050000*%
%TD*%
%ADD11C,0.200000*%
%ADD12C,0.300000*%
G04 APERTURE END LIST*
D10*
X16261080Y-11859260D02*
X16261080Y-8153400D01*
X18412460Y-11859260D02*
X16261080Y-11859260D01*
X18412460Y-8153400D02*
X18412460Y-11859260D01*
X16261080Y-8153400D02*
X18412460Y-8153400D01*
D11*
X16947200Y-10371140D02*
X16987200Y-10411140D01*
X16987200Y-10371140D02*
X16947200Y-10411140D01*
X16980220Y-10757220D02*
X17020220Y-10797220D01*
X17020220Y-10757220D02*
X16980220Y-10797220D01*
X16985300Y-9124000D02*
X17025300Y-9164000D01*
X17025300Y-9124000D02*
X16985300Y-9164000D01*
X16992920Y-11537000D02*
X17032920Y-11577000D01*
X17032920Y-11537000D02*
X16992920Y-11577000D01*
X17099600Y-10383840D02*
X17139600Y-10423840D01*
X17139600Y-10383840D02*
X17099600Y-10423840D01*
X17155480Y-8745540D02*
X17195480Y-8785540D01*
X17195480Y-8745540D02*
X17155480Y-8785540D01*
X17168180Y-8438200D02*
X17208180Y-8478200D01*
X17208180Y-8438200D02*
X17168180Y-8478200D01*
X17170720Y-9687880D02*
X17210720Y-9727880D01*
X17210720Y-9687880D02*
X17170720Y-9727880D01*
X17213900Y-10660700D02*
X17253900Y-10700700D01*
X17253900Y-10660700D02*
X17213900Y-10700700D01*
X17231680Y-11669080D02*
X17271680Y-11709080D01*
X17271680Y-11669080D02*
X17231680Y-11709080D01*
X17241840Y-10005380D02*
X17281840Y-10045380D01*
X17281840Y-10005380D02*
X17241840Y-10045380D01*
X17264700Y-10388920D02*
X17304700Y-10428920D01*
X17304700Y-10388920D02*
X17264700Y-10428920D01*
X17320580Y-8628700D02*
X17360580Y-8668700D01*
X17360580Y-8628700D02*
X17320580Y-8668700D01*
X17330740Y-11158540D02*
X17370740Y-11198540D01*
X17370740Y-11158540D02*
X17330740Y-11198540D01*
X17338360Y-11537000D02*
X17378360Y-11577000D01*
X17378360Y-11537000D02*
X17338360Y-11577000D01*
X17358680Y-8870000D02*
X17398680Y-8910000D01*
X17398680Y-8870000D02*
X17358680Y-8910000D01*
X17371380Y-9903780D02*
X17411380Y-9943780D01*
X17411380Y-9903780D02*
X17371380Y-9943780D01*
X17371380Y-10140000D02*
X17411380Y-10180000D01*
X17411380Y-10140000D02*
X17371380Y-10180000D01*
X17389160Y-10973120D02*
X17429160Y-11013120D01*
X17429160Y-10973120D02*
X17389160Y-11013120D01*
X17412020Y-10300020D02*
X17452020Y-10340020D01*
X17452020Y-10300020D02*
X17412020Y-10340020D01*
X17412020Y-10790240D02*
X17452020Y-10830240D01*
X17452020Y-10790240D02*
X17412020Y-10830240D01*
X17414560Y-11422700D02*
X17454560Y-11462700D01*
X17454560Y-11422700D02*
X17414560Y-11462700D01*
X17414560Y-11272840D02*
X17454560Y-11312840D01*
X17454560Y-11272840D02*
X17414560Y-11312840D01*
X17453422Y-8986586D02*
X17493422Y-9026586D01*
X17493422Y-8986586D02*
X17453422Y-9026586D01*
X17498380Y-8450900D02*
X17538380Y-8490900D01*
X17538380Y-8450900D02*
X17498380Y-8490900D01*
X17523780Y-10642920D02*
X17563780Y-10682920D01*
X17563780Y-10642920D02*
X17523780Y-10682920D01*
X17531400Y-9682800D02*
X17571400Y-9722800D01*
X17571400Y-9682800D02*
X17531400Y-9722800D01*
X17671100Y-9179880D02*
X17711100Y-9219880D01*
X17711100Y-9179880D02*
X17671100Y-9219880D01*
X17711740Y-8308660D02*
X17751740Y-8348660D01*
X17751740Y-8308660D02*
X17711740Y-8348660D01*
X17732060Y-10731820D02*
X17772060Y-10771820D01*
X17772060Y-10731820D02*
X17732060Y-10771820D01*
X17780320Y-9576120D02*
X17820320Y-9616120D01*
X17820320Y-9576120D02*
X17780320Y-9616120D01*
X16743040Y-8394700D02*
G75*
G03*
X16743040Y-8394700I-40000J0D01*
G01*
X16743040Y-8648700D02*
G75*
G03*
X16743040Y-8648700I-40000J0D01*
G01*
X16743040Y-8902700D02*
G75*
G03*
X16743040Y-8902700I-40000J0D01*
G01*
X16743040Y-9156700D02*
G75*
G03*
X16743040Y-9156700I-40000J0D01*
G01*
X16743040Y-9410700D02*
G75*
G03*
X16743040Y-9410700I-40000J0D01*
G01*
X16743040Y-9664700D02*
G75*
G03*
X16743040Y-9664700I-40000J0D01*
G01*
X16743040Y-9918700D02*
G75*
G03*
X16743040Y-9918700I-40000J0D01*
G01*
X16743040Y-10172700D02*
G75*
G03*
X16743040Y-10172700I-40000J0D01*
G01*
X16743040Y-10426700D02*
G75*
G03*
X16743040Y-10426700I-40000J0D01*
G01*
X16743040Y-10680700D02*
G75*
G03*
X16743040Y-10680700I-40000J0D01*
G01*
X16743040Y-10934700D02*
G75*
G03*
X16743040Y-10934700I-40000J0D01*
G01*
X16743040Y-11188700D02*
G75*
G03*
X16743040Y-11188700I-40000J0D01*
G01*
X16743040Y-11442700D02*
G75*
G03*
X16743040Y-11442700I-40000J0D01*
G01*
X16743040Y-11696700D02*
G75*
G03*
X16743040Y-11696700I-40000J0D01*
G01*
X18267040Y-8394700D02*
G75*
G03*
X18267040Y-8394700I-40000J0D01*
G01*
X18267040Y-8648700D02*
G75*
G03*
X18267040Y-8648700I-40000J0D01*
G01*
X18267040Y-8902700D02*
G75*
G03*
X18267040Y-8902700I-40000J0D01*
G01*
X18267040Y-9156700D02*
G75*
G03*
X18267040Y-9156700I-40000J0D01*
G01*
X18267040Y-9410700D02*
G75*
G03*
X18267040Y-9410700I-40000J0D01*
G01*
X18267040Y-9664700D02*
G75*
G03*
X18267040Y-9664700I-40000J0D01*
G01*
X18267040Y-9918700D02*
G75*
G03*
X18267040Y-9918700I-40000J0D01*
G01*
X18267040Y-10172700D02*
G75*
G03*
X18267040Y-10172700I-40000J0D01*
G01*
X18267040Y-10426700D02*
G75*
G03*
X18267040Y-10426700I-40000J0D01*
G01*
X18267040Y-10680700D02*
G75*
G03*
X18267040Y-10680700I-40000J0D01*
G01*
X18267040Y-10934700D02*
G75*
G03*
X18267040Y-10934700I-40000J0D01*
G01*
X18267040Y-11188700D02*
G75*
G03*
X18267040Y-11188700I-40000J0D01*
G01*
X18267040Y-11442700D02*
G75*
G03*
X18267040Y-11442700I-40000J0D01*
G01*
X18267040Y-11696700D02*
G75*
G03*
X18267040Y-11696700I-40000J0D01*
G01*
X16456660Y-8339700D02*
X16456660Y-8449700D01*
X16401660Y-8394700D02*
X16511660Y-8394700D01*
X16456660Y-8593700D02*
X16456660Y-8703700D01*
X16401660Y-8648700D02*
X16511660Y-8648700D01*
X16456660Y-8847700D02*
X16456660Y-8957700D01*
X16401660Y-8902700D02*
X16511660Y-8902700D01*
X16456660Y-9101700D02*
X16456660Y-9211700D01*
X16401660Y-9156700D02*
X16511660Y-9156700D01*
X16456660Y-9355700D02*
X16456660Y-9465700D01*
X16401660Y-9410700D02*
X16511660Y-9410700D01*
X16456660Y-9609700D02*
X16456660Y-9719700D01*
X16401660Y-9664700D02*
X16511660Y-9664700D01*
X16456660Y-9863700D02*
X16456660Y-9973700D01*
X16401660Y-9918700D02*
X16511660Y-9918700D01*
X16456660Y-10117700D02*
X16456660Y-10227700D01*
X16401660Y-10172700D02*
X16511660Y-10172700D01*
X16456660Y-10371700D02*
X16456660Y-10481700D01*
X16401660Y-10426700D02*
X16511660Y-10426700D01*
X16456660Y-10625700D02*
X16456660Y-10735700D01*
X16401660Y-10680700D02*
X16511660Y-10680700D01*
X16456660Y-10879700D02*
X16456660Y-10989700D01*
X16401660Y-10934700D02*
X16511660Y-10934700D01*
X16456660Y-11133700D02*
X16456660Y-11243700D01*
X16401660Y-11188700D02*
X16511660Y-11188700D01*
X16456660Y-11387700D02*
X16456660Y-11497700D01*
X16401660Y-11442700D02*
X16511660Y-11442700D01*
X16456660Y-11641700D02*
X16456660Y-11751700D01*
X16401660Y-11696700D02*
X16511660Y-11696700D01*
X17980660Y-8339700D02*
X17980660Y-8449700D01*
X17925660Y-8394700D02*
X18035660Y-8394700D01*
X17980660Y-8593700D02*
X17980660Y-8703700D01*
X17925660Y-8648700D02*
X18035660Y-8648700D01*
X17980660Y-8847700D02*
X17980660Y-8957700D01*
X17925660Y-8902700D02*
X18035660Y-8902700D01*
X17980660Y-9101700D02*
X17980660Y-9211700D01*
X17925660Y-9156700D02*
X18035660Y-9156700D01*
X17980660Y-9355700D02*
X17980660Y-9465700D01*
X17925660Y-9410700D02*
X18035660Y-9410700D01*
X17980660Y-9609700D02*
X17980660Y-9719700D01*
X17925660Y-9664700D02*
X18035660Y-9664700D01*
X17980660Y-9863700D02*
X17980660Y-9973700D01*
X17925660Y-9918700D02*
X18035660Y-9918700D01*
X17980660Y-10117700D02*
X17980660Y-10227700D01*
X17925660Y-10172700D02*
X18035660Y-10172700D01*
X17980660Y-10371700D02*
X17980660Y-10481700D01*
X17925660Y-10426700D02*
X18035660Y-10426700D01*
X17980660Y-10625700D02*
X17980660Y-10735700D01*
X17925660Y-10680700D02*
X18035660Y-10680700D01*
X17980660Y-10879700D02*
X17980660Y-10989700D01*
X17925660Y-10934700D02*
X18035660Y-10934700D01*
X17980660Y-11133700D02*
X17980660Y-11243700D01*
X17925660Y-11188700D02*
X18035660Y-11188700D01*
X17980660Y-11387700D02*
X17980660Y-11497700D01*
X17925660Y-11442700D02*
X18035660Y-11442700D01*
X17980660Y-11641700D02*
X17980660Y-11751700D01*
X17925660Y-11696700D02*
X18035660Y-11696700D01*
D12*
X286429Y-465714D02*
X286429Y-165714D01*
X357857Y-165714D01*
X400714Y-180000D01*
X429286Y-208571D01*
X443571Y-237143D01*
X457857Y-294286D01*
X457857Y-337143D01*
X443571Y-394286D01*
X429286Y-422857D01*
X400714Y-451428D01*
X357857Y-465714D01*
X286429Y-465714D01*
X586429Y-465714D02*
X586429Y-265714D01*
X586429Y-322857D02*
X600714Y-294286D01*
X615000Y-280000D01*
X643571Y-265714D01*
X672143Y-265714D01*
X772143Y-465714D02*
X772143Y-265714D01*
X772143Y-165714D02*
X757857Y-180000D01*
X772143Y-194286D01*
X786428Y-180000D01*
X772143Y-165714D01*
X772143Y-194286D01*
X957857Y-465714D02*
X929286Y-451428D01*
X915000Y-422857D01*
X915000Y-165714D01*
X1115000Y-465714D02*
X1086429Y-451428D01*
X1072143Y-422857D01*
X1072143Y-165714D01*
X1457857Y-465714D02*
X1457857Y-165714D01*
X1557857Y-380000D01*
X1657857Y-165714D01*
X1657857Y-465714D01*
X1929286Y-465714D02*
X1929286Y-308571D01*
X1915000Y-280000D01*
X1886428Y-265714D01*
X1829286Y-265714D01*
X1800714Y-280000D01*
X1929286Y-451428D02*
X1900714Y-465714D01*
X1829286Y-465714D01*
X1800714Y-451428D01*
X1786428Y-422857D01*
X1786428Y-394286D01*
X1800714Y-365714D01*
X1829286Y-351428D01*
X1900714Y-351428D01*
X1929286Y-337143D01*
X2072143Y-265714D02*
X2072143Y-565714D01*
X2072143Y-280000D02*
X2100714Y-265714D01*
X2157857Y-265714D01*
X2186429Y-280000D01*
X2200714Y-294286D01*
X2215000Y-322857D01*
X2215000Y-408571D01*
X2200714Y-437143D01*
X2186429Y-451428D01*
X2157857Y-465714D01*
X2100714Y-465714D01*
X2072143Y-451428D01*
X2343571Y-437143D02*
X2357857Y-451428D01*
X2343571Y-465714D01*
X2329286Y-451428D01*
X2343571Y-437143D01*
X2343571Y-465714D01*
X2343571Y-280000D02*
X2357857Y-294286D01*
X2343571Y-308571D01*
X2329286Y-294286D01*
X2343571Y-280000D01*
X2343571Y-308571D01*
X-40000Y-940000D02*
X0Y-980000D01*
X0Y-940000D02*
X-40000Y-980000D01*
X343571Y-795714D02*
X372143Y-795714D01*
X400714Y-810000D01*
X415000Y-824286D01*
X429286Y-852857D01*
X443571Y-910000D01*
X443571Y-981428D01*
X429286Y-1038571D01*
X415000Y-1067143D01*
X400714Y-1081429D01*
X372143Y-1095714D01*
X343571Y-1095714D01*
X315000Y-1081429D01*
X300714Y-1067143D01*
X286429Y-1038571D01*
X272143Y-981428D01*
X272143Y-910000D01*
X286429Y-852857D01*
X300714Y-824286D01*
X315000Y-810000D01*
X343571Y-795714D01*
X572143Y-1067143D02*
X586429Y-1081429D01*
X572143Y-1095714D01*
X557857Y-1081429D01*
X572143Y-1067143D01*
X572143Y-1095714D01*
X843571Y-895714D02*
X843571Y-1095714D01*
X772143Y-781428D02*
X700714Y-995714D01*
X886428Y-995714D01*
X1057857Y-795714D02*
X1086429Y-795714D01*
X1115000Y-810000D01*
X1129286Y-824286D01*
X1143571Y-852857D01*
X1157857Y-910000D01*
X1157857Y-981428D01*
X1143571Y-1038571D01*
X1129286Y-1067143D01*
X1115000Y-1081429D01*
X1086429Y-1095714D01*
X1057857Y-1095714D01*
X1029286Y-1081429D01*
X1015000Y-1067143D01*
X1000714Y-1038571D01*
X986428Y-981428D01*
X986428Y-910000D01*
X1000714Y-852857D01*
X1015000Y-824286D01*
X1029286Y-810000D01*
X1057857Y-795714D01*
X1286429Y-1095714D02*
X1286429Y-895714D01*
X1286429Y-924286D02*
X1300714Y-910000D01*
X1329286Y-895714D01*
X1372143Y-895714D01*
X1400714Y-910000D01*
X1415000Y-938571D01*
X1415000Y-1095714D01*
X1415000Y-938571D02*
X1429286Y-910000D01*
X1457857Y-895714D01*
X1500714Y-895714D01*
X1529286Y-910000D01*
X1543571Y-938571D01*
X1543571Y-1095714D01*
X1686428Y-1095714D02*
X1686428Y-895714D01*
X1686428Y-924286D02*
X1700714Y-910000D01*
X1729286Y-895714D01*
X1772143Y-895714D01*
X1800714Y-910000D01*
X1815000Y-938571D01*
X1815000Y-1095714D01*
X1815000Y-938571D02*
X1829286Y-910000D01*
X1857857Y-895714D01*
X1900714Y-895714D01*
X1929286Y-910000D01*
X1943571Y-938571D01*
X1943571Y-1095714D01*
X2529286Y-781428D02*
X2272143Y-1167143D01*
X2915000Y-795714D02*
X2943571Y-795714D01*
X2972143Y-810000D01*
X2986428Y-824286D01*
X3000714Y-852857D01*
X3015000Y-910000D01*
X3015000Y-981428D01*
X3000714Y-1038571D01*
X2986428Y-1067143D01*
X2972143Y-1081429D01*
X2943571Y-1095714D01*
X2915000Y-1095714D01*
X2886428Y-1081429D01*
X2872143Y-1067143D01*
X2857857Y-1038571D01*
X2843571Y-981428D01*
X2843571Y-910000D01*
X2857857Y-852857D01*
X2872143Y-824286D01*
X2886428Y-810000D01*
X2915000Y-795714D01*
X3143571Y-1067143D02*
X3157857Y-1081429D01*
X3143571Y-1095714D01*
X3129286Y-1081429D01*
X3143571Y-1067143D01*
X3143571Y-1095714D01*
X3343571Y-795714D02*
X3372143Y-795714D01*
X3400714Y-810000D01*
X3415000Y-824286D01*
X3429286Y-852857D01*
X3443571Y-910000D01*
X3443571Y-981428D01*
X3429286Y-1038571D01*
X3415000Y-1067143D01*
X3400714Y-1081429D01*
X3372143Y-1095714D01*
X3343571Y-1095714D01*
X3315000Y-1081429D01*
X3300714Y-1067143D01*
X3286428Y-1038571D01*
X3272143Y-981428D01*
X3272143Y-910000D01*
X3286428Y-852857D01*
X3300714Y-824286D01*
X3315000Y-810000D01*
X3343571Y-795714D01*
X3729286Y-1095714D02*
X3557857Y-1095714D01*
X3643571Y-1095714D02*
X3643571Y-795714D01*
X3615000Y-838571D01*
X3586428Y-867143D01*
X3557857Y-881428D01*
X3986428Y-795714D02*
X3929286Y-795714D01*
X3900714Y-810000D01*
X3886428Y-824286D01*
X3857857Y-867143D01*
X3843571Y-924286D01*
X3843571Y-1038571D01*
X3857857Y-1067143D01*
X3872143Y-1081429D01*
X3900714Y-1095714D01*
X3957857Y-1095714D01*
X3986428Y-1081429D01*
X4000714Y-1067143D01*
X4015000Y-1038571D01*
X4015000Y-967143D01*
X4000714Y-938571D01*
X3986428Y-924286D01*
X3957857Y-910000D01*
X3900714Y-910000D01*
X3872143Y-924286D01*
X3857857Y-938571D01*
X3843571Y-967143D01*
X4129286Y-795714D02*
X4129286Y-852857D01*
X4243571Y-795714D02*
X4243571Y-852857D01*
X4686429Y-1210000D02*
X4672143Y-1195714D01*
X4643571Y-1152857D01*
X4629286Y-1124286D01*
X4615000Y-1081429D01*
X4600714Y-1010000D01*
X4600714Y-952857D01*
X4615000Y-881428D01*
X4629286Y-838571D01*
X4643571Y-810000D01*
X4672143Y-767143D01*
X4686429Y-752857D01*
X4772143Y-795714D02*
X4957857Y-795714D01*
X4857857Y-910000D01*
X4900714Y-910000D01*
X4929286Y-924286D01*
X4943571Y-938571D01*
X4957857Y-967143D01*
X4957857Y-1038571D01*
X4943571Y-1067143D01*
X4929286Y-1081429D01*
X4900714Y-1095714D01*
X4815000Y-1095714D01*
X4786429Y-1081429D01*
X4772143Y-1067143D01*
X5243571Y-1095714D02*
X5072143Y-1095714D01*
X5157857Y-1095714D02*
X5157857Y-795714D01*
X5129286Y-838571D01*
X5100714Y-867143D01*
X5072143Y-881428D01*
X5600714Y-1095714D02*
X5600714Y-795714D01*
X5729286Y-1095714D02*
X5729286Y-938571D01*
X5715000Y-910000D01*
X5686428Y-895714D01*
X5643571Y-895714D01*
X5615000Y-910000D01*
X5600714Y-924286D01*
X5915000Y-1095714D02*
X5886428Y-1081429D01*
X5872143Y-1067143D01*
X5857857Y-1038571D01*
X5857857Y-952857D01*
X5872143Y-924286D01*
X5886428Y-910000D01*
X5915000Y-895714D01*
X5957857Y-895714D01*
X5986428Y-910000D01*
X6000714Y-924286D01*
X6015000Y-952857D01*
X6015000Y-1038571D01*
X6000714Y-1067143D01*
X5986428Y-1081429D01*
X5957857Y-1095714D01*
X5915000Y-1095714D01*
X6186428Y-1095714D02*
X6157857Y-1081429D01*
X6143571Y-1052857D01*
X6143571Y-795714D01*
X6415000Y-1081429D02*
X6386428Y-1095714D01*
X6329286Y-1095714D01*
X6300714Y-1081429D01*
X6286428Y-1052857D01*
X6286428Y-938571D01*
X6300714Y-910000D01*
X6329286Y-895714D01*
X6386428Y-895714D01*
X6415000Y-910000D01*
X6429286Y-938571D01*
X6429286Y-967143D01*
X6286428Y-995714D01*
X6543571Y-1081429D02*
X6572143Y-1095714D01*
X6629286Y-1095714D01*
X6657857Y-1081429D01*
X6672143Y-1052857D01*
X6672143Y-1038571D01*
X6657857Y-1010000D01*
X6629286Y-995714D01*
X6586428Y-995714D01*
X6557857Y-981428D01*
X6543571Y-952857D01*
X6543571Y-938571D01*
X6557857Y-910000D01*
X6586428Y-895714D01*
X6629286Y-895714D01*
X6657857Y-910000D01*
X6772143Y-1210000D02*
X6786428Y-1195714D01*
X6815000Y-1152857D01*
X6829286Y-1124286D01*
X6843571Y-1081429D01*
X6857857Y-1010000D01*
X6857857Y-952857D01*
X6843571Y-881428D01*
X6829286Y-838571D01*
X6815000Y-810000D01*
X6786428Y-767143D01*
X6772143Y-752857D01*
X0Y-1356000D02*
G75*
G03*
X0Y-1356000I-40000J0D01*
G01*
X343571Y-1191714D02*
X372143Y-1191714D01*
X400714Y-1206000D01*
X415000Y-1220286D01*
X429286Y-1248857D01*
X443571Y-1306000D01*
X443571Y-1377429D01*
X429286Y-1434571D01*
X415000Y-1463143D01*
X400714Y-1477428D01*
X372143Y-1491714D01*
X343571Y-1491714D01*
X315000Y-1477428D01*
X300714Y-1463143D01*
X286429Y-1434571D01*
X272143Y-1377429D01*
X272143Y-1306000D01*
X286429Y-1248857D01*
X300714Y-1220286D01*
X315000Y-1206000D01*
X343571Y-1191714D01*
X572143Y-1463143D02*
X586429Y-1477428D01*
X572143Y-1491714D01*
X557857Y-1477428D01*
X572143Y-1463143D01*
X572143Y-1491714D01*
X757857Y-1320286D02*
X729286Y-1306000D01*
X715000Y-1291714D01*
X700714Y-1263143D01*
X700714Y-1248857D01*
X715000Y-1220286D01*
X729286Y-1206000D01*
X757857Y-1191714D01*
X815000Y-1191714D01*
X843571Y-1206000D01*
X857857Y-1220286D01*
X872143Y-1248857D01*
X872143Y-1263143D01*
X857857Y-1291714D01*
X843571Y-1306000D01*
X815000Y-1320286D01*
X757857Y-1320286D01*
X729286Y-1334571D01*
X715000Y-1348857D01*
X700714Y-1377429D01*
X700714Y-1434571D01*
X715000Y-1463143D01*
X729286Y-1477428D01*
X757857Y-1491714D01*
X815000Y-1491714D01*
X843571Y-1477428D01*
X857857Y-1463143D01*
X872143Y-1434571D01*
X872143Y-1377429D01*
X857857Y-1348857D01*
X843571Y-1334571D01*
X815000Y-1320286D01*
X1057857Y-1191714D02*
X1086429Y-1191714D01*
X1115000Y-1206000D01*
X1129286Y-1220286D01*
X1143571Y-1248857D01*
X1157857Y-1306000D01*
X1157857Y-1377429D01*
X1143571Y-1434571D01*
X1129286Y-1463143D01*
X1115000Y-1477428D01*
X1086429Y-1491714D01*
X1057857Y-1491714D01*
X1029286Y-1477428D01*
X1015000Y-1463143D01*
X1000714Y-1434571D01*
X986428Y-1377429D01*
X986428Y-1306000D01*
X1000714Y-1248857D01*
X1015000Y-1220286D01*
X1029286Y-1206000D01*
X1057857Y-1191714D01*
X1286429Y-1491714D02*
X1286429Y-1291714D01*
X1286429Y-1320286D02*
X1300714Y-1306000D01*
X1329286Y-1291714D01*
X1372143Y-1291714D01*
X1400714Y-1306000D01*
X1415000Y-1334571D01*
X1415000Y-1491714D01*
X1415000Y-1334571D02*
X1429286Y-1306000D01*
X1457857Y-1291714D01*
X1500714Y-1291714D01*
X1529286Y-1306000D01*
X1543571Y-1334571D01*
X1543571Y-1491714D01*
X1686428Y-1491714D02*
X1686428Y-1291714D01*
X1686428Y-1320286D02*
X1700714Y-1306000D01*
X1729286Y-1291714D01*
X1772143Y-1291714D01*
X1800714Y-1306000D01*
X1815000Y-1334571D01*
X1815000Y-1491714D01*
X1815000Y-1334571D02*
X1829286Y-1306000D01*
X1857857Y-1291714D01*
X1900714Y-1291714D01*
X1929286Y-1306000D01*
X1943571Y-1334571D01*
X1943571Y-1491714D01*
X2529286Y-1177429D02*
X2272143Y-1563143D01*
X2915000Y-1191714D02*
X2943571Y-1191714D01*
X2972143Y-1206000D01*
X2986428Y-1220286D01*
X3000714Y-1248857D01*
X3015000Y-1306000D01*
X3015000Y-1377429D01*
X3000714Y-1434571D01*
X2986428Y-1463143D01*
X2972143Y-1477428D01*
X2943571Y-1491714D01*
X2915000Y-1491714D01*
X2886428Y-1477428D01*
X2872143Y-1463143D01*
X2857857Y-1434571D01*
X2843571Y-1377429D01*
X2843571Y-1306000D01*
X2857857Y-1248857D01*
X2872143Y-1220286D01*
X2886428Y-1206000D01*
X2915000Y-1191714D01*
X3143571Y-1463143D02*
X3157857Y-1477428D01*
X3143571Y-1491714D01*
X3129286Y-1477428D01*
X3143571Y-1463143D01*
X3143571Y-1491714D01*
X3343571Y-1191714D02*
X3372143Y-1191714D01*
X3400714Y-1206000D01*
X3415000Y-1220286D01*
X3429286Y-1248857D01*
X3443571Y-1306000D01*
X3443571Y-1377429D01*
X3429286Y-1434571D01*
X3415000Y-1463143D01*
X3400714Y-1477428D01*
X3372143Y-1491714D01*
X3343571Y-1491714D01*
X3315000Y-1477428D01*
X3300714Y-1463143D01*
X3286428Y-1434571D01*
X3272143Y-1377429D01*
X3272143Y-1306000D01*
X3286428Y-1248857D01*
X3300714Y-1220286D01*
X3315000Y-1206000D01*
X3343571Y-1191714D01*
X3543571Y-1191714D02*
X3729286Y-1191714D01*
X3629286Y-1306000D01*
X3672143Y-1306000D01*
X3700714Y-1320286D01*
X3715000Y-1334571D01*
X3729286Y-1363143D01*
X3729286Y-1434571D01*
X3715000Y-1463143D01*
X3700714Y-1477428D01*
X3672143Y-1491714D01*
X3586428Y-1491714D01*
X3557857Y-1477428D01*
X3543571Y-1463143D01*
X4015000Y-1491714D02*
X3843571Y-1491714D01*
X3929286Y-1491714D02*
X3929286Y-1191714D01*
X3900714Y-1234571D01*
X3872143Y-1263143D01*
X3843571Y-1277429D01*
X4129286Y-1191714D02*
X4129286Y-1248857D01*
X4243571Y-1191714D02*
X4243571Y-1248857D01*
X4686429Y-1606000D02*
X4672143Y-1591714D01*
X4643571Y-1548857D01*
X4629286Y-1520286D01*
X4615000Y-1477428D01*
X4600714Y-1406000D01*
X4600714Y-1348857D01*
X4615000Y-1277429D01*
X4629286Y-1234571D01*
X4643571Y-1206000D01*
X4672143Y-1163143D01*
X4686429Y-1148857D01*
X4786429Y-1220286D02*
X4800714Y-1206000D01*
X4829286Y-1191714D01*
X4900714Y-1191714D01*
X4929286Y-1206000D01*
X4943571Y-1220286D01*
X4957857Y-1248857D01*
X4957857Y-1277429D01*
X4943571Y-1320286D01*
X4772143Y-1491714D01*
X4957857Y-1491714D01*
X5129286Y-1320286D02*
X5100714Y-1306000D01*
X5086429Y-1291714D01*
X5072143Y-1263143D01*
X5072143Y-1248857D01*
X5086429Y-1220286D01*
X5100714Y-1206000D01*
X5129286Y-1191714D01*
X5186429Y-1191714D01*
X5215000Y-1206000D01*
X5229286Y-1220286D01*
X5243571Y-1248857D01*
X5243571Y-1263143D01*
X5229286Y-1291714D01*
X5215000Y-1306000D01*
X5186429Y-1320286D01*
X5129286Y-1320286D01*
X5100714Y-1334571D01*
X5086429Y-1348857D01*
X5072143Y-1377429D01*
X5072143Y-1434571D01*
X5086429Y-1463143D01*
X5100714Y-1477428D01*
X5129286Y-1491714D01*
X5186429Y-1491714D01*
X5215000Y-1477428D01*
X5229286Y-1463143D01*
X5243571Y-1434571D01*
X5243571Y-1377429D01*
X5229286Y-1348857D01*
X5215000Y-1334571D01*
X5186429Y-1320286D01*
X5600714Y-1491714D02*
X5600714Y-1191714D01*
X5729286Y-1491714D02*
X5729286Y-1334571D01*
X5715000Y-1306000D01*
X5686428Y-1291714D01*
X5643571Y-1291714D01*
X5615000Y-1306000D01*
X5600714Y-1320286D01*
X5915000Y-1491714D02*
X5886428Y-1477428D01*
X5872143Y-1463143D01*
X5857857Y-1434571D01*
X5857857Y-1348857D01*
X5872143Y-1320286D01*
X5886428Y-1306000D01*
X5915000Y-1291714D01*
X5957857Y-1291714D01*
X5986428Y-1306000D01*
X6000714Y-1320286D01*
X6015000Y-1348857D01*
X6015000Y-1434571D01*
X6000714Y-1463143D01*
X5986428Y-1477428D01*
X5957857Y-1491714D01*
X5915000Y-1491714D01*
X6186428Y-1491714D02*
X6157857Y-1477428D01*
X6143571Y-1448857D01*
X6143571Y-1191714D01*
X6415000Y-1477428D02*
X6386428Y-1491714D01*
X6329286Y-1491714D01*
X6300714Y-1477428D01*
X6286428Y-1448857D01*
X6286428Y-1334571D01*
X6300714Y-1306000D01*
X6329286Y-1291714D01*
X6386428Y-1291714D01*
X6415000Y-1306000D01*
X6429286Y-1334571D01*
X6429286Y-1363143D01*
X6286428Y-1391714D01*
X6543571Y-1477428D02*
X6572143Y-1491714D01*
X6629286Y-1491714D01*
X6657857Y-1477428D01*
X6672143Y-1448857D01*
X6672143Y-1434571D01*
X6657857Y-1406000D01*
X6629286Y-1391714D01*
X6586428Y-1391714D01*
X6557857Y-1377429D01*
X6543571Y-1348857D01*
X6543571Y-1334571D01*
X6557857Y-1306000D01*
X6586428Y-1291714D01*
X6629286Y-1291714D01*
X6657857Y-1306000D01*
X6772143Y-1606000D02*
X6786428Y-1591714D01*
X6815000Y-1548857D01*
X6829286Y-1520286D01*
X6843571Y-1477428D01*
X6857857Y-1406000D01*
X6857857Y-1348857D01*
X6843571Y-1277429D01*
X6829286Y-1234571D01*
X6815000Y-1206000D01*
X6786428Y-1163143D01*
X6772143Y-1148857D01*
X-55000Y-1697000D02*
X-55000Y-1807000D01*
X-110000Y-1752000D02*
X0Y-1752000D01*
X443571Y-1887714D02*
X272143Y-1887714D01*
X357857Y-1887714D02*
X357857Y-1587714D01*
X329286Y-1630571D01*
X300714Y-1659143D01*
X272143Y-1673428D01*
X572143Y-1859143D02*
X586429Y-1873428D01*
X572143Y-1887714D01*
X557857Y-1873428D01*
X572143Y-1859143D01*
X572143Y-1887714D01*
X872143Y-1887714D02*
X700714Y-1887714D01*
X786428Y-1887714D02*
X786428Y-1587714D01*
X757857Y-1630571D01*
X729286Y-1659143D01*
X700714Y-1673428D01*
X1057857Y-1587714D02*
X1086429Y-1587714D01*
X1115000Y-1602000D01*
X1129286Y-1616286D01*
X1143571Y-1644857D01*
X1157857Y-1702000D01*
X1157857Y-1773428D01*
X1143571Y-1830571D01*
X1129286Y-1859143D01*
X1115000Y-1873428D01*
X1086429Y-1887714D01*
X1057857Y-1887714D01*
X1029286Y-1873428D01*
X1015000Y-1859143D01*
X1000714Y-1830571D01*
X986428Y-1773428D01*
X986428Y-1702000D01*
X1000714Y-1644857D01*
X1015000Y-1616286D01*
X1029286Y-1602000D01*
X1057857Y-1587714D01*
X1286429Y-1887714D02*
X1286429Y-1687714D01*
X1286429Y-1716286D02*
X1300714Y-1702000D01*
X1329286Y-1687714D01*
X1372143Y-1687714D01*
X1400714Y-1702000D01*
X1415000Y-1730571D01*
X1415000Y-1887714D01*
X1415000Y-1730571D02*
X1429286Y-1702000D01*
X1457857Y-1687714D01*
X1500714Y-1687714D01*
X1529286Y-1702000D01*
X1543571Y-1730571D01*
X1543571Y-1887714D01*
X1686428Y-1887714D02*
X1686428Y-1687714D01*
X1686428Y-1716286D02*
X1700714Y-1702000D01*
X1729286Y-1687714D01*
X1772143Y-1687714D01*
X1800714Y-1702000D01*
X1815000Y-1730571D01*
X1815000Y-1887714D01*
X1815000Y-1730571D02*
X1829286Y-1702000D01*
X1857857Y-1687714D01*
X1900714Y-1687714D01*
X1929286Y-1702000D01*
X1943571Y-1730571D01*
X1943571Y-1887714D01*
X2529286Y-1573428D02*
X2272143Y-1959143D01*
X2915000Y-1587714D02*
X2943571Y-1587714D01*
X2972143Y-1602000D01*
X2986428Y-1616286D01*
X3000714Y-1644857D01*
X3015000Y-1702000D01*
X3015000Y-1773428D01*
X3000714Y-1830571D01*
X2986428Y-1859143D01*
X2972143Y-1873428D01*
X2943571Y-1887714D01*
X2915000Y-1887714D01*
X2886428Y-1873428D01*
X2872143Y-1859143D01*
X2857857Y-1830571D01*
X2843571Y-1773428D01*
X2843571Y-1702000D01*
X2857857Y-1644857D01*
X2872143Y-1616286D01*
X2886428Y-1602000D01*
X2915000Y-1587714D01*
X3143571Y-1859143D02*
X3157857Y-1873428D01*
X3143571Y-1887714D01*
X3129286Y-1873428D01*
X3143571Y-1859143D01*
X3143571Y-1887714D01*
X3343571Y-1587714D02*
X3372143Y-1587714D01*
X3400714Y-1602000D01*
X3415000Y-1616286D01*
X3429286Y-1644857D01*
X3443571Y-1702000D01*
X3443571Y-1773428D01*
X3429286Y-1830571D01*
X3415000Y-1859143D01*
X3400714Y-1873428D01*
X3372143Y-1887714D01*
X3343571Y-1887714D01*
X3315000Y-1873428D01*
X3300714Y-1859143D01*
X3286428Y-1830571D01*
X3272143Y-1773428D01*
X3272143Y-1702000D01*
X3286428Y-1644857D01*
X3300714Y-1616286D01*
X3315000Y-1602000D01*
X3343571Y-1587714D01*
X3700714Y-1687714D02*
X3700714Y-1887714D01*
X3629286Y-1573428D02*
X3557857Y-1787714D01*
X3743571Y-1787714D01*
X3829286Y-1587714D02*
X4015000Y-1587714D01*
X3915000Y-1702000D01*
X3957857Y-1702000D01*
X3986428Y-1716286D01*
X4000714Y-1730571D01*
X4015000Y-1759143D01*
X4015000Y-1830571D01*
X4000714Y-1859143D01*
X3986428Y-1873428D01*
X3957857Y-1887714D01*
X3872143Y-1887714D01*
X3843571Y-1873428D01*
X3829286Y-1859143D01*
X4129286Y-1587714D02*
X4129286Y-1644857D01*
X4243571Y-1587714D02*
X4243571Y-1644857D01*
X4686429Y-2002000D02*
X4672143Y-1987714D01*
X4643571Y-1944857D01*
X4629286Y-1916286D01*
X4615000Y-1873428D01*
X4600714Y-1802000D01*
X4600714Y-1744857D01*
X4615000Y-1673428D01*
X4629286Y-1630571D01*
X4643571Y-1602000D01*
X4672143Y-1559143D01*
X4686429Y-1544857D01*
X4786429Y-1616286D02*
X4800714Y-1602000D01*
X4829286Y-1587714D01*
X4900714Y-1587714D01*
X4929286Y-1602000D01*
X4943571Y-1616286D01*
X4957857Y-1644857D01*
X4957857Y-1673428D01*
X4943571Y-1716286D01*
X4772143Y-1887714D01*
X4957857Y-1887714D01*
X5129286Y-1716286D02*
X5100714Y-1702000D01*
X5086429Y-1687714D01*
X5072143Y-1659143D01*
X5072143Y-1644857D01*
X5086429Y-1616286D01*
X5100714Y-1602000D01*
X5129286Y-1587714D01*
X5186429Y-1587714D01*
X5215000Y-1602000D01*
X5229286Y-1616286D01*
X5243571Y-1644857D01*
X5243571Y-1659143D01*
X5229286Y-1687714D01*
X5215000Y-1702000D01*
X5186429Y-1716286D01*
X5129286Y-1716286D01*
X5100714Y-1730571D01*
X5086429Y-1744857D01*
X5072143Y-1773428D01*
X5072143Y-1830571D01*
X5086429Y-1859143D01*
X5100714Y-1873428D01*
X5129286Y-1887714D01*
X5186429Y-1887714D01*
X5215000Y-1873428D01*
X5229286Y-1859143D01*
X5243571Y-1830571D01*
X5243571Y-1773428D01*
X5229286Y-1744857D01*
X5215000Y-1730571D01*
X5186429Y-1716286D01*
X5600714Y-1887714D02*
X5600714Y-1587714D01*
X5729286Y-1887714D02*
X5729286Y-1730571D01*
X5715000Y-1702000D01*
X5686428Y-1687714D01*
X5643571Y-1687714D01*
X5615000Y-1702000D01*
X5600714Y-1716286D01*
X5915000Y-1887714D02*
X5886428Y-1873428D01*
X5872143Y-1859143D01*
X5857857Y-1830571D01*
X5857857Y-1744857D01*
X5872143Y-1716286D01*
X5886428Y-1702000D01*
X5915000Y-1687714D01*
X5957857Y-1687714D01*
X5986428Y-1702000D01*
X6000714Y-1716286D01*
X6015000Y-1744857D01*
X6015000Y-1830571D01*
X6000714Y-1859143D01*
X5986428Y-1873428D01*
X5957857Y-1887714D01*
X5915000Y-1887714D01*
X6186428Y-1887714D02*
X6157857Y-1873428D01*
X6143571Y-1844857D01*
X6143571Y-1587714D01*
X6415000Y-1873428D02*
X6386428Y-1887714D01*
X6329286Y-1887714D01*
X6300714Y-1873428D01*
X6286428Y-1844857D01*
X6286428Y-1730571D01*
X6300714Y-1702000D01*
X6329286Y-1687714D01*
X6386428Y-1687714D01*
X6415000Y-1702000D01*
X6429286Y-1730571D01*
X6429286Y-1759143D01*
X6286428Y-1787714D01*
X6543571Y-1873428D02*
X6572143Y-1887714D01*
X6629286Y-1887714D01*
X6657857Y-1873428D01*
X6672143Y-1844857D01*
X6672143Y-1830571D01*
X6657857Y-1802000D01*
X6629286Y-1787714D01*
X6586428Y-1787714D01*
X6557857Y-1773428D01*
X6543571Y-1744857D01*
X6543571Y-1730571D01*
X6557857Y-1702000D01*
X6586428Y-1687714D01*
X6629286Y-1687714D01*
X6657857Y-1702000D01*
X6772143Y-2002000D02*
X6786428Y-1987714D01*
X6815000Y-1944857D01*
X6829286Y-1916286D01*
X6843571Y-1873428D01*
X6857857Y-1802000D01*
X6857857Y-1744857D01*
X6843571Y-1673428D01*
X6829286Y-1630571D01*
X6815000Y-1602000D01*
X6786428Y-1559143D01*
X6772143Y-1544857D01*
M02*
