G04 #@! TF.GenerationSoftware,KiCad,Pcbnew,(5.1.8)-1*
G04 #@! TF.CreationDate,2023-05-14T21:24:40-07:00*
G04 #@! TF.ProjectId,ROM_Emulator,524f4d5f-456d-4756-9c61-746f722e6b69,rev?*
G04 #@! TF.SameCoordinates,Original*
G04 #@! TF.FileFunction,Legend,Top*
G04 #@! TF.FilePolarity,Positive*
%FSLAX46Y46*%
G04 Gerber Fmt 4.6, Leading zero omitted, Abs format (unit mm)*
G04 Created by KiCad (PCBNEW (5.1.8)-1) date 2023-05-14 21:24:40*
%MOMM*%
%LPD*%
G01*
G04 APERTURE LIST*
%ADD10C,0.127000*%
%ADD11C,0.150000*%
%ADD12C,0.120000*%
%ADD13C,1.600000*%
%ADD14O,1.600000X1.600000*%
%ADD15R,1.600000X1.600000*%
G04 APERTURE END LIST*
D10*
X167138047Y-82297209D02*
X167138047Y-81789209D01*
X167307380Y-82152066D01*
X167476714Y-81789209D01*
X167476714Y-82297209D01*
X167718619Y-82297209D02*
X167718619Y-81958542D01*
X167718619Y-81789209D02*
X167694428Y-81813400D01*
X167718619Y-81837590D01*
X167742809Y-81813400D01*
X167718619Y-81789209D01*
X167718619Y-81837590D01*
X168178238Y-82273019D02*
X168129857Y-82297209D01*
X168033095Y-82297209D01*
X167984714Y-82273019D01*
X167960523Y-82248828D01*
X167936333Y-82200447D01*
X167936333Y-82055304D01*
X167960523Y-82006923D01*
X167984714Y-81982733D01*
X168033095Y-81958542D01*
X168129857Y-81958542D01*
X168178238Y-81982733D01*
X168395952Y-82297209D02*
X168395952Y-81958542D01*
X168395952Y-82055304D02*
X168420142Y-82006923D01*
X168444333Y-81982733D01*
X168492714Y-81958542D01*
X168541095Y-81958542D01*
X168783000Y-82297209D02*
X168734619Y-82273019D01*
X168710428Y-82248828D01*
X168686238Y-82200447D01*
X168686238Y-82055304D01*
X168710428Y-82006923D01*
X168734619Y-81982733D01*
X168783000Y-81958542D01*
X168855571Y-81958542D01*
X168903952Y-81982733D01*
X168928142Y-82006923D01*
X168952333Y-82055304D01*
X168952333Y-82200447D01*
X168928142Y-82248828D01*
X168903952Y-82273019D01*
X168855571Y-82297209D01*
X168783000Y-82297209D01*
X169460333Y-82248828D02*
X169436142Y-82273019D01*
X169363571Y-82297209D01*
X169315190Y-82297209D01*
X169242619Y-82273019D01*
X169194238Y-82224638D01*
X169170047Y-82176257D01*
X169145857Y-82079495D01*
X169145857Y-82006923D01*
X169170047Y-81910161D01*
X169194238Y-81861780D01*
X169242619Y-81813400D01*
X169315190Y-81789209D01*
X169363571Y-81789209D01*
X169436142Y-81813400D01*
X169460333Y-81837590D01*
X169750619Y-82297209D02*
X169702238Y-82273019D01*
X169678047Y-82248828D01*
X169653857Y-82200447D01*
X169653857Y-82055304D01*
X169678047Y-82006923D01*
X169702238Y-81982733D01*
X169750619Y-81958542D01*
X169823190Y-81958542D01*
X169871571Y-81982733D01*
X169895761Y-82006923D01*
X169919952Y-82055304D01*
X169919952Y-82200447D01*
X169895761Y-82248828D01*
X169871571Y-82273019D01*
X169823190Y-82297209D01*
X169750619Y-82297209D01*
X170137666Y-82297209D02*
X170137666Y-81958542D01*
X170137666Y-82055304D02*
X170161857Y-82006923D01*
X170186047Y-81982733D01*
X170234428Y-81958542D01*
X170282809Y-81958542D01*
X170645666Y-82273019D02*
X170597285Y-82297209D01*
X170500523Y-82297209D01*
X170452142Y-82273019D01*
X170427952Y-82224638D01*
X170427952Y-82031114D01*
X170452142Y-81982733D01*
X170500523Y-81958542D01*
X170597285Y-81958542D01*
X170645666Y-81982733D01*
X170669857Y-82031114D01*
X170669857Y-82079495D01*
X170427952Y-82127876D01*
X171516523Y-82297209D02*
X171274619Y-82297209D01*
X171274619Y-81789209D01*
X171903571Y-82297209D02*
X171903571Y-82031114D01*
X171879380Y-81982733D01*
X171831000Y-81958542D01*
X171734238Y-81958542D01*
X171685857Y-81982733D01*
X171903571Y-82273019D02*
X171855190Y-82297209D01*
X171734238Y-82297209D01*
X171685857Y-82273019D01*
X171661666Y-82224638D01*
X171661666Y-82176257D01*
X171685857Y-82127876D01*
X171734238Y-82103685D01*
X171855190Y-82103685D01*
X171903571Y-82079495D01*
X172145476Y-82297209D02*
X172145476Y-81789209D01*
X172145476Y-81982733D02*
X172193857Y-81958542D01*
X172290619Y-81958542D01*
X172339000Y-81982733D01*
X172363190Y-82006923D01*
X172387380Y-82055304D01*
X172387380Y-82200447D01*
X172363190Y-82248828D01*
X172339000Y-82273019D01*
X172290619Y-82297209D01*
X172193857Y-82297209D01*
X172145476Y-82273019D01*
X172580904Y-82273019D02*
X172629285Y-82297209D01*
X172726047Y-82297209D01*
X172774428Y-82273019D01*
X172798619Y-82224638D01*
X172798619Y-82200447D01*
X172774428Y-82152066D01*
X172726047Y-82127876D01*
X172653476Y-82127876D01*
X172605095Y-82103685D01*
X172580904Y-82055304D01*
X172580904Y-82031114D01*
X172605095Y-81982733D01*
X172653476Y-81958542D01*
X172726047Y-81958542D01*
X172774428Y-81982733D01*
X173403380Y-82103685D02*
X173790428Y-82103685D01*
X174709666Y-82297209D02*
X174540333Y-82055304D01*
X174419380Y-82297209D02*
X174419380Y-81789209D01*
X174612904Y-81789209D01*
X174661285Y-81813400D01*
X174685476Y-81837590D01*
X174709666Y-81885971D01*
X174709666Y-81958542D01*
X174685476Y-82006923D01*
X174661285Y-82031114D01*
X174612904Y-82055304D01*
X174419380Y-82055304D01*
X175024142Y-81789209D02*
X175120904Y-81789209D01*
X175169285Y-81813400D01*
X175217666Y-81861780D01*
X175241857Y-81958542D01*
X175241857Y-82127876D01*
X175217666Y-82224638D01*
X175169285Y-82273019D01*
X175120904Y-82297209D01*
X175024142Y-82297209D01*
X174975761Y-82273019D01*
X174927380Y-82224638D01*
X174903190Y-82127876D01*
X174903190Y-81958542D01*
X174927380Y-81861780D01*
X174975761Y-81813400D01*
X175024142Y-81789209D01*
X175459571Y-82297209D02*
X175459571Y-81789209D01*
X175628904Y-82152066D01*
X175798238Y-81789209D01*
X175798238Y-82297209D01*
X176427190Y-82031114D02*
X176596523Y-82031114D01*
X176669095Y-82297209D02*
X176427190Y-82297209D01*
X176427190Y-81789209D01*
X176669095Y-81789209D01*
X176886809Y-82297209D02*
X176886809Y-81958542D01*
X176886809Y-82006923D02*
X176910999Y-81982733D01*
X176959380Y-81958542D01*
X177031952Y-81958542D01*
X177080333Y-81982733D01*
X177104523Y-82031114D01*
X177104523Y-82297209D01*
X177104523Y-82031114D02*
X177128714Y-81982733D01*
X177177095Y-81958542D01*
X177249666Y-81958542D01*
X177298047Y-81982733D01*
X177322238Y-82031114D01*
X177322238Y-82297209D01*
X177781857Y-81958542D02*
X177781857Y-82297209D01*
X177564142Y-81958542D02*
X177564142Y-82224638D01*
X177588333Y-82273019D01*
X177636714Y-82297209D01*
X177709285Y-82297209D01*
X177757666Y-82273019D01*
X177781857Y-82248828D01*
X178096333Y-82297209D02*
X178047952Y-82273019D01*
X178023761Y-82224638D01*
X178023761Y-81789209D01*
X178507571Y-82297209D02*
X178507571Y-82031114D01*
X178483380Y-81982733D01*
X178435000Y-81958542D01*
X178338238Y-81958542D01*
X178289857Y-81982733D01*
X178507571Y-82273019D02*
X178459190Y-82297209D01*
X178338238Y-82297209D01*
X178289857Y-82273019D01*
X178265666Y-82224638D01*
X178265666Y-82176257D01*
X178289857Y-82127876D01*
X178338238Y-82103685D01*
X178459190Y-82103685D01*
X178507571Y-82079495D01*
X178676904Y-81958542D02*
X178870428Y-81958542D01*
X178749476Y-81789209D02*
X178749476Y-82224638D01*
X178773666Y-82273019D01*
X178822047Y-82297209D01*
X178870428Y-82297209D01*
X179112333Y-82297209D02*
X179063952Y-82273019D01*
X179039761Y-82248828D01*
X179015571Y-82200447D01*
X179015571Y-82055304D01*
X179039761Y-82006923D01*
X179063952Y-81982733D01*
X179112333Y-81958542D01*
X179184904Y-81958542D01*
X179233285Y-81982733D01*
X179257476Y-82006923D01*
X179281666Y-82055304D01*
X179281666Y-82200447D01*
X179257476Y-82248828D01*
X179233285Y-82273019D01*
X179184904Y-82297209D01*
X179112333Y-82297209D01*
X179499380Y-82297209D02*
X179499380Y-81958542D01*
X179499380Y-82055304D02*
X179523571Y-82006923D01*
X179547761Y-81982733D01*
X179596142Y-81958542D01*
X179644523Y-81958542D01*
D11*
X163296600Y-82677000D02*
X181076600Y-82677000D01*
X163296600Y-118237000D02*
X163296600Y-82677000D01*
X181076600Y-118237000D02*
X163296600Y-118237000D01*
X181076600Y-82677000D02*
X181076600Y-118237000D01*
D12*
X173507400Y-91035200D02*
X176267400Y-91035200D01*
X176267400Y-91035200D02*
X176267400Y-90760200D01*
X173507400Y-91035200D02*
X170747400Y-91035200D01*
X170747400Y-91035200D02*
X170747400Y-90760200D01*
X173507400Y-83615200D02*
X176267400Y-83615200D01*
X176267400Y-83615200D02*
X176267400Y-83890200D01*
X173507400Y-83615200D02*
X170747400Y-83615200D01*
X170747400Y-83615200D02*
X170747400Y-83890200D01*
X170747400Y-83890200D02*
X169057400Y-83890200D01*
X170874400Y-96488600D02*
X169184400Y-96488600D01*
X170874400Y-96213600D02*
X170874400Y-96488600D01*
X173634400Y-96213600D02*
X170874400Y-96213600D01*
X176394400Y-96213600D02*
X176394400Y-96488600D01*
X173634400Y-96213600D02*
X176394400Y-96213600D01*
X170874400Y-103633600D02*
X170874400Y-103358600D01*
X173634400Y-103633600D02*
X170874400Y-103633600D01*
X176394400Y-103633600D02*
X176394400Y-103358600D01*
X173634400Y-103633600D02*
X176394400Y-103633600D01*
X170823600Y-108121800D02*
X169133600Y-108121800D01*
X170823600Y-107846800D02*
X170823600Y-108121800D01*
X173583600Y-107846800D02*
X170823600Y-107846800D01*
X176343600Y-107846800D02*
X176343600Y-108121800D01*
X173583600Y-107846800D02*
X176343600Y-107846800D01*
X170823600Y-115266800D02*
X170823600Y-114991800D01*
X173583600Y-115266800D02*
X170823600Y-115266800D01*
X176343600Y-115266800D02*
X176343600Y-114991800D01*
X173583600Y-115266800D02*
X176343600Y-115266800D01*
X181110400Y-82617000D02*
X175650400Y-82617000D01*
X181110400Y-118297000D02*
X181110400Y-82617000D01*
X168190400Y-118297000D02*
X181110400Y-118297000D01*
X168190400Y-82617000D02*
X168190400Y-118297000D01*
X173650400Y-82617000D02*
X168190400Y-82617000D01*
X175650400Y-82617000D02*
G75*
G02*
X173650400Y-82617000I-1000000J0D01*
G01*
D11*
X172567695Y-86625180D02*
X172567695Y-87434704D01*
X172615314Y-87529942D01*
X172662933Y-87577561D01*
X172758171Y-87625180D01*
X172948647Y-87625180D01*
X173043885Y-87577561D01*
X173091504Y-87529942D01*
X173139123Y-87434704D01*
X173139123Y-86625180D01*
X174091504Y-86625180D02*
X173615314Y-86625180D01*
X173567695Y-87101371D01*
X173615314Y-87053752D01*
X173710552Y-87006133D01*
X173948647Y-87006133D01*
X174043885Y-87053752D01*
X174091504Y-87101371D01*
X174139123Y-87196609D01*
X174139123Y-87434704D01*
X174091504Y-87529942D01*
X174043885Y-87577561D01*
X173948647Y-87625180D01*
X173710552Y-87625180D01*
X173615314Y-87577561D01*
X173567695Y-87529942D01*
X172770895Y-98918780D02*
X172770895Y-99728304D01*
X172818514Y-99823542D01*
X172866133Y-99871161D01*
X172961371Y-99918780D01*
X173151847Y-99918780D01*
X173247085Y-99871161D01*
X173294704Y-99823542D01*
X173342323Y-99728304D01*
X173342323Y-98918780D01*
X174247085Y-99252114D02*
X174247085Y-99918780D01*
X174008990Y-98871161D02*
X173770895Y-99585447D01*
X174389942Y-99585447D01*
X172720095Y-111085380D02*
X172720095Y-111894904D01*
X172767714Y-111990142D01*
X172815333Y-112037761D01*
X172910571Y-112085380D01*
X173101047Y-112085380D01*
X173196285Y-112037761D01*
X173243904Y-111990142D01*
X173291523Y-111894904D01*
X173291523Y-111085380D01*
X173720095Y-111180619D02*
X173767714Y-111133000D01*
X173862952Y-111085380D01*
X174101047Y-111085380D01*
X174196285Y-111133000D01*
X174243904Y-111180619D01*
X174291523Y-111275857D01*
X174291523Y-111371095D01*
X174243904Y-111513952D01*
X173672476Y-112085380D01*
X174291523Y-112085380D01*
%LPC*%
D13*
X179806600Y-116967000D03*
X164566600Y-116967000D03*
X179806600Y-114427000D03*
X179806600Y-111887000D03*
X179806600Y-109347000D03*
X179806600Y-106807000D03*
X179806600Y-104267000D03*
X179806600Y-101727000D03*
X179806600Y-99187000D03*
X179806600Y-96647000D03*
X179806600Y-94107000D03*
X179806600Y-91567000D03*
X179806600Y-89027000D03*
X179806600Y-86487000D03*
X179806600Y-83947000D03*
X164566600Y-114427000D03*
X164566600Y-111887000D03*
X164566600Y-109347000D03*
X164566600Y-106807000D03*
X164566600Y-104267000D03*
X164566600Y-101727000D03*
X164566600Y-99187000D03*
X164566600Y-96647000D03*
X164566600Y-94107000D03*
X164566600Y-91567000D03*
X164566600Y-89027000D03*
X164566600Y-86487000D03*
X164566600Y-83947000D03*
G36*
G01*
X169057400Y-84525200D02*
X169057400Y-84275200D01*
G75*
G02*
X169182400Y-84150200I125000J0D01*
G01*
X170832400Y-84150200D01*
G75*
G02*
X170957400Y-84275200I0J-125000D01*
G01*
X170957400Y-84525200D01*
G75*
G02*
X170832400Y-84650200I-125000J0D01*
G01*
X169182400Y-84650200D01*
G75*
G02*
X169057400Y-84525200I0J125000D01*
G01*
G37*
G36*
G01*
X169057400Y-85175200D02*
X169057400Y-84925200D01*
G75*
G02*
X169182400Y-84800200I125000J0D01*
G01*
X170832400Y-84800200D01*
G75*
G02*
X170957400Y-84925200I0J-125000D01*
G01*
X170957400Y-85175200D01*
G75*
G02*
X170832400Y-85300200I-125000J0D01*
G01*
X169182400Y-85300200D01*
G75*
G02*
X169057400Y-85175200I0J125000D01*
G01*
G37*
G36*
G01*
X169057400Y-85825200D02*
X169057400Y-85575200D01*
G75*
G02*
X169182400Y-85450200I125000J0D01*
G01*
X170832400Y-85450200D01*
G75*
G02*
X170957400Y-85575200I0J-125000D01*
G01*
X170957400Y-85825200D01*
G75*
G02*
X170832400Y-85950200I-125000J0D01*
G01*
X169182400Y-85950200D01*
G75*
G02*
X169057400Y-85825200I0J125000D01*
G01*
G37*
G36*
G01*
X169057400Y-86475200D02*
X169057400Y-86225200D01*
G75*
G02*
X169182400Y-86100200I125000J0D01*
G01*
X170832400Y-86100200D01*
G75*
G02*
X170957400Y-86225200I0J-125000D01*
G01*
X170957400Y-86475200D01*
G75*
G02*
X170832400Y-86600200I-125000J0D01*
G01*
X169182400Y-86600200D01*
G75*
G02*
X169057400Y-86475200I0J125000D01*
G01*
G37*
G36*
G01*
X169057400Y-87125200D02*
X169057400Y-86875200D01*
G75*
G02*
X169182400Y-86750200I125000J0D01*
G01*
X170832400Y-86750200D01*
G75*
G02*
X170957400Y-86875200I0J-125000D01*
G01*
X170957400Y-87125200D01*
G75*
G02*
X170832400Y-87250200I-125000J0D01*
G01*
X169182400Y-87250200D01*
G75*
G02*
X169057400Y-87125200I0J125000D01*
G01*
G37*
G36*
G01*
X169057400Y-87775200D02*
X169057400Y-87525200D01*
G75*
G02*
X169182400Y-87400200I125000J0D01*
G01*
X170832400Y-87400200D01*
G75*
G02*
X170957400Y-87525200I0J-125000D01*
G01*
X170957400Y-87775200D01*
G75*
G02*
X170832400Y-87900200I-125000J0D01*
G01*
X169182400Y-87900200D01*
G75*
G02*
X169057400Y-87775200I0J125000D01*
G01*
G37*
G36*
G01*
X169057400Y-88425200D02*
X169057400Y-88175200D01*
G75*
G02*
X169182400Y-88050200I125000J0D01*
G01*
X170832400Y-88050200D01*
G75*
G02*
X170957400Y-88175200I0J-125000D01*
G01*
X170957400Y-88425200D01*
G75*
G02*
X170832400Y-88550200I-125000J0D01*
G01*
X169182400Y-88550200D01*
G75*
G02*
X169057400Y-88425200I0J125000D01*
G01*
G37*
G36*
G01*
X169057400Y-89075200D02*
X169057400Y-88825200D01*
G75*
G02*
X169182400Y-88700200I125000J0D01*
G01*
X170832400Y-88700200D01*
G75*
G02*
X170957400Y-88825200I0J-125000D01*
G01*
X170957400Y-89075200D01*
G75*
G02*
X170832400Y-89200200I-125000J0D01*
G01*
X169182400Y-89200200D01*
G75*
G02*
X169057400Y-89075200I0J125000D01*
G01*
G37*
G36*
G01*
X169057400Y-89725200D02*
X169057400Y-89475200D01*
G75*
G02*
X169182400Y-89350200I125000J0D01*
G01*
X170832400Y-89350200D01*
G75*
G02*
X170957400Y-89475200I0J-125000D01*
G01*
X170957400Y-89725200D01*
G75*
G02*
X170832400Y-89850200I-125000J0D01*
G01*
X169182400Y-89850200D01*
G75*
G02*
X169057400Y-89725200I0J125000D01*
G01*
G37*
G36*
G01*
X169057400Y-90375200D02*
X169057400Y-90125200D01*
G75*
G02*
X169182400Y-90000200I125000J0D01*
G01*
X170832400Y-90000200D01*
G75*
G02*
X170957400Y-90125200I0J-125000D01*
G01*
X170957400Y-90375200D01*
G75*
G02*
X170832400Y-90500200I-125000J0D01*
G01*
X169182400Y-90500200D01*
G75*
G02*
X169057400Y-90375200I0J125000D01*
G01*
G37*
G36*
G01*
X176057400Y-90375200D02*
X176057400Y-90125200D01*
G75*
G02*
X176182400Y-90000200I125000J0D01*
G01*
X177832400Y-90000200D01*
G75*
G02*
X177957400Y-90125200I0J-125000D01*
G01*
X177957400Y-90375200D01*
G75*
G02*
X177832400Y-90500200I-125000J0D01*
G01*
X176182400Y-90500200D01*
G75*
G02*
X176057400Y-90375200I0J125000D01*
G01*
G37*
G36*
G01*
X176057400Y-89725200D02*
X176057400Y-89475200D01*
G75*
G02*
X176182400Y-89350200I125000J0D01*
G01*
X177832400Y-89350200D01*
G75*
G02*
X177957400Y-89475200I0J-125000D01*
G01*
X177957400Y-89725200D01*
G75*
G02*
X177832400Y-89850200I-125000J0D01*
G01*
X176182400Y-89850200D01*
G75*
G02*
X176057400Y-89725200I0J125000D01*
G01*
G37*
G36*
G01*
X176057400Y-89075200D02*
X176057400Y-88825200D01*
G75*
G02*
X176182400Y-88700200I125000J0D01*
G01*
X177832400Y-88700200D01*
G75*
G02*
X177957400Y-88825200I0J-125000D01*
G01*
X177957400Y-89075200D01*
G75*
G02*
X177832400Y-89200200I-125000J0D01*
G01*
X176182400Y-89200200D01*
G75*
G02*
X176057400Y-89075200I0J125000D01*
G01*
G37*
G36*
G01*
X176057400Y-88425200D02*
X176057400Y-88175200D01*
G75*
G02*
X176182400Y-88050200I125000J0D01*
G01*
X177832400Y-88050200D01*
G75*
G02*
X177957400Y-88175200I0J-125000D01*
G01*
X177957400Y-88425200D01*
G75*
G02*
X177832400Y-88550200I-125000J0D01*
G01*
X176182400Y-88550200D01*
G75*
G02*
X176057400Y-88425200I0J125000D01*
G01*
G37*
G36*
G01*
X176057400Y-87775200D02*
X176057400Y-87525200D01*
G75*
G02*
X176182400Y-87400200I125000J0D01*
G01*
X177832400Y-87400200D01*
G75*
G02*
X177957400Y-87525200I0J-125000D01*
G01*
X177957400Y-87775200D01*
G75*
G02*
X177832400Y-87900200I-125000J0D01*
G01*
X176182400Y-87900200D01*
G75*
G02*
X176057400Y-87775200I0J125000D01*
G01*
G37*
G36*
G01*
X176057400Y-87125200D02*
X176057400Y-86875200D01*
G75*
G02*
X176182400Y-86750200I125000J0D01*
G01*
X177832400Y-86750200D01*
G75*
G02*
X177957400Y-86875200I0J-125000D01*
G01*
X177957400Y-87125200D01*
G75*
G02*
X177832400Y-87250200I-125000J0D01*
G01*
X176182400Y-87250200D01*
G75*
G02*
X176057400Y-87125200I0J125000D01*
G01*
G37*
G36*
G01*
X176057400Y-86475200D02*
X176057400Y-86225200D01*
G75*
G02*
X176182400Y-86100200I125000J0D01*
G01*
X177832400Y-86100200D01*
G75*
G02*
X177957400Y-86225200I0J-125000D01*
G01*
X177957400Y-86475200D01*
G75*
G02*
X177832400Y-86600200I-125000J0D01*
G01*
X176182400Y-86600200D01*
G75*
G02*
X176057400Y-86475200I0J125000D01*
G01*
G37*
G36*
G01*
X176057400Y-85825200D02*
X176057400Y-85575200D01*
G75*
G02*
X176182400Y-85450200I125000J0D01*
G01*
X177832400Y-85450200D01*
G75*
G02*
X177957400Y-85575200I0J-125000D01*
G01*
X177957400Y-85825200D01*
G75*
G02*
X177832400Y-85950200I-125000J0D01*
G01*
X176182400Y-85950200D01*
G75*
G02*
X176057400Y-85825200I0J125000D01*
G01*
G37*
G36*
G01*
X176057400Y-85175200D02*
X176057400Y-84925200D01*
G75*
G02*
X176182400Y-84800200I125000J0D01*
G01*
X177832400Y-84800200D01*
G75*
G02*
X177957400Y-84925200I0J-125000D01*
G01*
X177957400Y-85175200D01*
G75*
G02*
X177832400Y-85300200I-125000J0D01*
G01*
X176182400Y-85300200D01*
G75*
G02*
X176057400Y-85175200I0J125000D01*
G01*
G37*
G36*
G01*
X176057400Y-84525200D02*
X176057400Y-84275200D01*
G75*
G02*
X176182400Y-84150200I125000J0D01*
G01*
X177832400Y-84150200D01*
G75*
G02*
X177957400Y-84275200I0J-125000D01*
G01*
X177957400Y-84525200D01*
G75*
G02*
X177832400Y-84650200I-125000J0D01*
G01*
X176182400Y-84650200D01*
G75*
G02*
X176057400Y-84525200I0J125000D01*
G01*
G37*
G36*
G01*
X176184400Y-97123600D02*
X176184400Y-96873600D01*
G75*
G02*
X176309400Y-96748600I125000J0D01*
G01*
X177959400Y-96748600D01*
G75*
G02*
X178084400Y-96873600I0J-125000D01*
G01*
X178084400Y-97123600D01*
G75*
G02*
X177959400Y-97248600I-125000J0D01*
G01*
X176309400Y-97248600D01*
G75*
G02*
X176184400Y-97123600I0J125000D01*
G01*
G37*
G36*
G01*
X176184400Y-97773600D02*
X176184400Y-97523600D01*
G75*
G02*
X176309400Y-97398600I125000J0D01*
G01*
X177959400Y-97398600D01*
G75*
G02*
X178084400Y-97523600I0J-125000D01*
G01*
X178084400Y-97773600D01*
G75*
G02*
X177959400Y-97898600I-125000J0D01*
G01*
X176309400Y-97898600D01*
G75*
G02*
X176184400Y-97773600I0J125000D01*
G01*
G37*
G36*
G01*
X176184400Y-98423600D02*
X176184400Y-98173600D01*
G75*
G02*
X176309400Y-98048600I125000J0D01*
G01*
X177959400Y-98048600D01*
G75*
G02*
X178084400Y-98173600I0J-125000D01*
G01*
X178084400Y-98423600D01*
G75*
G02*
X177959400Y-98548600I-125000J0D01*
G01*
X176309400Y-98548600D01*
G75*
G02*
X176184400Y-98423600I0J125000D01*
G01*
G37*
G36*
G01*
X176184400Y-99073600D02*
X176184400Y-98823600D01*
G75*
G02*
X176309400Y-98698600I125000J0D01*
G01*
X177959400Y-98698600D01*
G75*
G02*
X178084400Y-98823600I0J-125000D01*
G01*
X178084400Y-99073600D01*
G75*
G02*
X177959400Y-99198600I-125000J0D01*
G01*
X176309400Y-99198600D01*
G75*
G02*
X176184400Y-99073600I0J125000D01*
G01*
G37*
G36*
G01*
X176184400Y-99723600D02*
X176184400Y-99473600D01*
G75*
G02*
X176309400Y-99348600I125000J0D01*
G01*
X177959400Y-99348600D01*
G75*
G02*
X178084400Y-99473600I0J-125000D01*
G01*
X178084400Y-99723600D01*
G75*
G02*
X177959400Y-99848600I-125000J0D01*
G01*
X176309400Y-99848600D01*
G75*
G02*
X176184400Y-99723600I0J125000D01*
G01*
G37*
G36*
G01*
X176184400Y-100373600D02*
X176184400Y-100123600D01*
G75*
G02*
X176309400Y-99998600I125000J0D01*
G01*
X177959400Y-99998600D01*
G75*
G02*
X178084400Y-100123600I0J-125000D01*
G01*
X178084400Y-100373600D01*
G75*
G02*
X177959400Y-100498600I-125000J0D01*
G01*
X176309400Y-100498600D01*
G75*
G02*
X176184400Y-100373600I0J125000D01*
G01*
G37*
G36*
G01*
X176184400Y-101023600D02*
X176184400Y-100773600D01*
G75*
G02*
X176309400Y-100648600I125000J0D01*
G01*
X177959400Y-100648600D01*
G75*
G02*
X178084400Y-100773600I0J-125000D01*
G01*
X178084400Y-101023600D01*
G75*
G02*
X177959400Y-101148600I-125000J0D01*
G01*
X176309400Y-101148600D01*
G75*
G02*
X176184400Y-101023600I0J125000D01*
G01*
G37*
G36*
G01*
X176184400Y-101673600D02*
X176184400Y-101423600D01*
G75*
G02*
X176309400Y-101298600I125000J0D01*
G01*
X177959400Y-101298600D01*
G75*
G02*
X178084400Y-101423600I0J-125000D01*
G01*
X178084400Y-101673600D01*
G75*
G02*
X177959400Y-101798600I-125000J0D01*
G01*
X176309400Y-101798600D01*
G75*
G02*
X176184400Y-101673600I0J125000D01*
G01*
G37*
G36*
G01*
X176184400Y-102323600D02*
X176184400Y-102073600D01*
G75*
G02*
X176309400Y-101948600I125000J0D01*
G01*
X177959400Y-101948600D01*
G75*
G02*
X178084400Y-102073600I0J-125000D01*
G01*
X178084400Y-102323600D01*
G75*
G02*
X177959400Y-102448600I-125000J0D01*
G01*
X176309400Y-102448600D01*
G75*
G02*
X176184400Y-102323600I0J125000D01*
G01*
G37*
G36*
G01*
X176184400Y-102973600D02*
X176184400Y-102723600D01*
G75*
G02*
X176309400Y-102598600I125000J0D01*
G01*
X177959400Y-102598600D01*
G75*
G02*
X178084400Y-102723600I0J-125000D01*
G01*
X178084400Y-102973600D01*
G75*
G02*
X177959400Y-103098600I-125000J0D01*
G01*
X176309400Y-103098600D01*
G75*
G02*
X176184400Y-102973600I0J125000D01*
G01*
G37*
G36*
G01*
X169184400Y-102973600D02*
X169184400Y-102723600D01*
G75*
G02*
X169309400Y-102598600I125000J0D01*
G01*
X170959400Y-102598600D01*
G75*
G02*
X171084400Y-102723600I0J-125000D01*
G01*
X171084400Y-102973600D01*
G75*
G02*
X170959400Y-103098600I-125000J0D01*
G01*
X169309400Y-103098600D01*
G75*
G02*
X169184400Y-102973600I0J125000D01*
G01*
G37*
G36*
G01*
X169184400Y-102323600D02*
X169184400Y-102073600D01*
G75*
G02*
X169309400Y-101948600I125000J0D01*
G01*
X170959400Y-101948600D01*
G75*
G02*
X171084400Y-102073600I0J-125000D01*
G01*
X171084400Y-102323600D01*
G75*
G02*
X170959400Y-102448600I-125000J0D01*
G01*
X169309400Y-102448600D01*
G75*
G02*
X169184400Y-102323600I0J125000D01*
G01*
G37*
G36*
G01*
X169184400Y-101673600D02*
X169184400Y-101423600D01*
G75*
G02*
X169309400Y-101298600I125000J0D01*
G01*
X170959400Y-101298600D01*
G75*
G02*
X171084400Y-101423600I0J-125000D01*
G01*
X171084400Y-101673600D01*
G75*
G02*
X170959400Y-101798600I-125000J0D01*
G01*
X169309400Y-101798600D01*
G75*
G02*
X169184400Y-101673600I0J125000D01*
G01*
G37*
G36*
G01*
X169184400Y-101023600D02*
X169184400Y-100773600D01*
G75*
G02*
X169309400Y-100648600I125000J0D01*
G01*
X170959400Y-100648600D01*
G75*
G02*
X171084400Y-100773600I0J-125000D01*
G01*
X171084400Y-101023600D01*
G75*
G02*
X170959400Y-101148600I-125000J0D01*
G01*
X169309400Y-101148600D01*
G75*
G02*
X169184400Y-101023600I0J125000D01*
G01*
G37*
G36*
G01*
X169184400Y-100373600D02*
X169184400Y-100123600D01*
G75*
G02*
X169309400Y-99998600I125000J0D01*
G01*
X170959400Y-99998600D01*
G75*
G02*
X171084400Y-100123600I0J-125000D01*
G01*
X171084400Y-100373600D01*
G75*
G02*
X170959400Y-100498600I-125000J0D01*
G01*
X169309400Y-100498600D01*
G75*
G02*
X169184400Y-100373600I0J125000D01*
G01*
G37*
G36*
G01*
X169184400Y-99723600D02*
X169184400Y-99473600D01*
G75*
G02*
X169309400Y-99348600I125000J0D01*
G01*
X170959400Y-99348600D01*
G75*
G02*
X171084400Y-99473600I0J-125000D01*
G01*
X171084400Y-99723600D01*
G75*
G02*
X170959400Y-99848600I-125000J0D01*
G01*
X169309400Y-99848600D01*
G75*
G02*
X169184400Y-99723600I0J125000D01*
G01*
G37*
G36*
G01*
X169184400Y-99073600D02*
X169184400Y-98823600D01*
G75*
G02*
X169309400Y-98698600I125000J0D01*
G01*
X170959400Y-98698600D01*
G75*
G02*
X171084400Y-98823600I0J-125000D01*
G01*
X171084400Y-99073600D01*
G75*
G02*
X170959400Y-99198600I-125000J0D01*
G01*
X169309400Y-99198600D01*
G75*
G02*
X169184400Y-99073600I0J125000D01*
G01*
G37*
G36*
G01*
X169184400Y-98423600D02*
X169184400Y-98173600D01*
G75*
G02*
X169309400Y-98048600I125000J0D01*
G01*
X170959400Y-98048600D01*
G75*
G02*
X171084400Y-98173600I0J-125000D01*
G01*
X171084400Y-98423600D01*
G75*
G02*
X170959400Y-98548600I-125000J0D01*
G01*
X169309400Y-98548600D01*
G75*
G02*
X169184400Y-98423600I0J125000D01*
G01*
G37*
G36*
G01*
X169184400Y-97773600D02*
X169184400Y-97523600D01*
G75*
G02*
X169309400Y-97398600I125000J0D01*
G01*
X170959400Y-97398600D01*
G75*
G02*
X171084400Y-97523600I0J-125000D01*
G01*
X171084400Y-97773600D01*
G75*
G02*
X170959400Y-97898600I-125000J0D01*
G01*
X169309400Y-97898600D01*
G75*
G02*
X169184400Y-97773600I0J125000D01*
G01*
G37*
G36*
G01*
X169184400Y-97123600D02*
X169184400Y-96873600D01*
G75*
G02*
X169309400Y-96748600I125000J0D01*
G01*
X170959400Y-96748600D01*
G75*
G02*
X171084400Y-96873600I0J-125000D01*
G01*
X171084400Y-97123600D01*
G75*
G02*
X170959400Y-97248600I-125000J0D01*
G01*
X169309400Y-97248600D01*
G75*
G02*
X169184400Y-97123600I0J125000D01*
G01*
G37*
G36*
G01*
X176133600Y-108756800D02*
X176133600Y-108506800D01*
G75*
G02*
X176258600Y-108381800I125000J0D01*
G01*
X177908600Y-108381800D01*
G75*
G02*
X178033600Y-108506800I0J-125000D01*
G01*
X178033600Y-108756800D01*
G75*
G02*
X177908600Y-108881800I-125000J0D01*
G01*
X176258600Y-108881800D01*
G75*
G02*
X176133600Y-108756800I0J125000D01*
G01*
G37*
G36*
G01*
X176133600Y-109406800D02*
X176133600Y-109156800D01*
G75*
G02*
X176258600Y-109031800I125000J0D01*
G01*
X177908600Y-109031800D01*
G75*
G02*
X178033600Y-109156800I0J-125000D01*
G01*
X178033600Y-109406800D01*
G75*
G02*
X177908600Y-109531800I-125000J0D01*
G01*
X176258600Y-109531800D01*
G75*
G02*
X176133600Y-109406800I0J125000D01*
G01*
G37*
G36*
G01*
X176133600Y-110056800D02*
X176133600Y-109806800D01*
G75*
G02*
X176258600Y-109681800I125000J0D01*
G01*
X177908600Y-109681800D01*
G75*
G02*
X178033600Y-109806800I0J-125000D01*
G01*
X178033600Y-110056800D01*
G75*
G02*
X177908600Y-110181800I-125000J0D01*
G01*
X176258600Y-110181800D01*
G75*
G02*
X176133600Y-110056800I0J125000D01*
G01*
G37*
G36*
G01*
X176133600Y-110706800D02*
X176133600Y-110456800D01*
G75*
G02*
X176258600Y-110331800I125000J0D01*
G01*
X177908600Y-110331800D01*
G75*
G02*
X178033600Y-110456800I0J-125000D01*
G01*
X178033600Y-110706800D01*
G75*
G02*
X177908600Y-110831800I-125000J0D01*
G01*
X176258600Y-110831800D01*
G75*
G02*
X176133600Y-110706800I0J125000D01*
G01*
G37*
G36*
G01*
X176133600Y-111356800D02*
X176133600Y-111106800D01*
G75*
G02*
X176258600Y-110981800I125000J0D01*
G01*
X177908600Y-110981800D01*
G75*
G02*
X178033600Y-111106800I0J-125000D01*
G01*
X178033600Y-111356800D01*
G75*
G02*
X177908600Y-111481800I-125000J0D01*
G01*
X176258600Y-111481800D01*
G75*
G02*
X176133600Y-111356800I0J125000D01*
G01*
G37*
G36*
G01*
X176133600Y-112006800D02*
X176133600Y-111756800D01*
G75*
G02*
X176258600Y-111631800I125000J0D01*
G01*
X177908600Y-111631800D01*
G75*
G02*
X178033600Y-111756800I0J-125000D01*
G01*
X178033600Y-112006800D01*
G75*
G02*
X177908600Y-112131800I-125000J0D01*
G01*
X176258600Y-112131800D01*
G75*
G02*
X176133600Y-112006800I0J125000D01*
G01*
G37*
G36*
G01*
X176133600Y-112656800D02*
X176133600Y-112406800D01*
G75*
G02*
X176258600Y-112281800I125000J0D01*
G01*
X177908600Y-112281800D01*
G75*
G02*
X178033600Y-112406800I0J-125000D01*
G01*
X178033600Y-112656800D01*
G75*
G02*
X177908600Y-112781800I-125000J0D01*
G01*
X176258600Y-112781800D01*
G75*
G02*
X176133600Y-112656800I0J125000D01*
G01*
G37*
G36*
G01*
X176133600Y-113306800D02*
X176133600Y-113056800D01*
G75*
G02*
X176258600Y-112931800I125000J0D01*
G01*
X177908600Y-112931800D01*
G75*
G02*
X178033600Y-113056800I0J-125000D01*
G01*
X178033600Y-113306800D01*
G75*
G02*
X177908600Y-113431800I-125000J0D01*
G01*
X176258600Y-113431800D01*
G75*
G02*
X176133600Y-113306800I0J125000D01*
G01*
G37*
G36*
G01*
X176133600Y-113956800D02*
X176133600Y-113706800D01*
G75*
G02*
X176258600Y-113581800I125000J0D01*
G01*
X177908600Y-113581800D01*
G75*
G02*
X178033600Y-113706800I0J-125000D01*
G01*
X178033600Y-113956800D01*
G75*
G02*
X177908600Y-114081800I-125000J0D01*
G01*
X176258600Y-114081800D01*
G75*
G02*
X176133600Y-113956800I0J125000D01*
G01*
G37*
G36*
G01*
X176133600Y-114606800D02*
X176133600Y-114356800D01*
G75*
G02*
X176258600Y-114231800I125000J0D01*
G01*
X177908600Y-114231800D01*
G75*
G02*
X178033600Y-114356800I0J-125000D01*
G01*
X178033600Y-114606800D01*
G75*
G02*
X177908600Y-114731800I-125000J0D01*
G01*
X176258600Y-114731800D01*
G75*
G02*
X176133600Y-114606800I0J125000D01*
G01*
G37*
G36*
G01*
X169133600Y-114606800D02*
X169133600Y-114356800D01*
G75*
G02*
X169258600Y-114231800I125000J0D01*
G01*
X170908600Y-114231800D01*
G75*
G02*
X171033600Y-114356800I0J-125000D01*
G01*
X171033600Y-114606800D01*
G75*
G02*
X170908600Y-114731800I-125000J0D01*
G01*
X169258600Y-114731800D01*
G75*
G02*
X169133600Y-114606800I0J125000D01*
G01*
G37*
G36*
G01*
X169133600Y-113956800D02*
X169133600Y-113706800D01*
G75*
G02*
X169258600Y-113581800I125000J0D01*
G01*
X170908600Y-113581800D01*
G75*
G02*
X171033600Y-113706800I0J-125000D01*
G01*
X171033600Y-113956800D01*
G75*
G02*
X170908600Y-114081800I-125000J0D01*
G01*
X169258600Y-114081800D01*
G75*
G02*
X169133600Y-113956800I0J125000D01*
G01*
G37*
G36*
G01*
X169133600Y-113306800D02*
X169133600Y-113056800D01*
G75*
G02*
X169258600Y-112931800I125000J0D01*
G01*
X170908600Y-112931800D01*
G75*
G02*
X171033600Y-113056800I0J-125000D01*
G01*
X171033600Y-113306800D01*
G75*
G02*
X170908600Y-113431800I-125000J0D01*
G01*
X169258600Y-113431800D01*
G75*
G02*
X169133600Y-113306800I0J125000D01*
G01*
G37*
G36*
G01*
X169133600Y-112656800D02*
X169133600Y-112406800D01*
G75*
G02*
X169258600Y-112281800I125000J0D01*
G01*
X170908600Y-112281800D01*
G75*
G02*
X171033600Y-112406800I0J-125000D01*
G01*
X171033600Y-112656800D01*
G75*
G02*
X170908600Y-112781800I-125000J0D01*
G01*
X169258600Y-112781800D01*
G75*
G02*
X169133600Y-112656800I0J125000D01*
G01*
G37*
G36*
G01*
X169133600Y-112006800D02*
X169133600Y-111756800D01*
G75*
G02*
X169258600Y-111631800I125000J0D01*
G01*
X170908600Y-111631800D01*
G75*
G02*
X171033600Y-111756800I0J-125000D01*
G01*
X171033600Y-112006800D01*
G75*
G02*
X170908600Y-112131800I-125000J0D01*
G01*
X169258600Y-112131800D01*
G75*
G02*
X169133600Y-112006800I0J125000D01*
G01*
G37*
G36*
G01*
X169133600Y-111356800D02*
X169133600Y-111106800D01*
G75*
G02*
X169258600Y-110981800I125000J0D01*
G01*
X170908600Y-110981800D01*
G75*
G02*
X171033600Y-111106800I0J-125000D01*
G01*
X171033600Y-111356800D01*
G75*
G02*
X170908600Y-111481800I-125000J0D01*
G01*
X169258600Y-111481800D01*
G75*
G02*
X169133600Y-111356800I0J125000D01*
G01*
G37*
G36*
G01*
X169133600Y-110706800D02*
X169133600Y-110456800D01*
G75*
G02*
X169258600Y-110331800I125000J0D01*
G01*
X170908600Y-110331800D01*
G75*
G02*
X171033600Y-110456800I0J-125000D01*
G01*
X171033600Y-110706800D01*
G75*
G02*
X170908600Y-110831800I-125000J0D01*
G01*
X169258600Y-110831800D01*
G75*
G02*
X169133600Y-110706800I0J125000D01*
G01*
G37*
G36*
G01*
X169133600Y-110056800D02*
X169133600Y-109806800D01*
G75*
G02*
X169258600Y-109681800I125000J0D01*
G01*
X170908600Y-109681800D01*
G75*
G02*
X171033600Y-109806800I0J-125000D01*
G01*
X171033600Y-110056800D01*
G75*
G02*
X170908600Y-110181800I-125000J0D01*
G01*
X169258600Y-110181800D01*
G75*
G02*
X169133600Y-110056800I0J125000D01*
G01*
G37*
G36*
G01*
X169133600Y-109406800D02*
X169133600Y-109156800D01*
G75*
G02*
X169258600Y-109031800I125000J0D01*
G01*
X170908600Y-109031800D01*
G75*
G02*
X171033600Y-109156800I0J-125000D01*
G01*
X171033600Y-109406800D01*
G75*
G02*
X170908600Y-109531800I-125000J0D01*
G01*
X169258600Y-109531800D01*
G75*
G02*
X169133600Y-109406800I0J125000D01*
G01*
G37*
G36*
G01*
X169133600Y-108756800D02*
X169133600Y-108506800D01*
G75*
G02*
X169258600Y-108381800I125000J0D01*
G01*
X170908600Y-108381800D01*
G75*
G02*
X171033600Y-108506800I0J-125000D01*
G01*
X171033600Y-108756800D01*
G75*
G02*
X170908600Y-108881800I-125000J0D01*
G01*
X169258600Y-108881800D01*
G75*
G02*
X169133600Y-108756800I0J125000D01*
G01*
G37*
D14*
X182270400Y-83947000D03*
X167030400Y-116967000D03*
X182270400Y-86487000D03*
X167030400Y-114427000D03*
X182270400Y-89027000D03*
X167030400Y-111887000D03*
X182270400Y-91567000D03*
X167030400Y-109347000D03*
X182270400Y-94107000D03*
X167030400Y-106807000D03*
X182270400Y-96647000D03*
X167030400Y-104267000D03*
X182270400Y-99187000D03*
X167030400Y-101727000D03*
X182270400Y-101727000D03*
X167030400Y-99187000D03*
X182270400Y-104267000D03*
X167030400Y-96647000D03*
X182270400Y-106807000D03*
X167030400Y-94107000D03*
X182270400Y-109347000D03*
X167030400Y-91567000D03*
X182270400Y-111887000D03*
X167030400Y-89027000D03*
X182270400Y-114427000D03*
X167030400Y-86487000D03*
X182270400Y-116967000D03*
D15*
X167030400Y-83947000D03*
M02*
