G04 #@! TF.GenerationSoftware,KiCad,Pcbnew,(5.1.8)-1*
G04 #@! TF.CreationDate,2023-05-14T21:24:40-07:00*
G04 #@! TF.ProjectId,ROM_Emulator,524f4d5f-456d-4756-9c61-746f722e6b69,rev?*
G04 #@! TF.SameCoordinates,Original*
G04 #@! TF.FileFunction,Soldermask,Bot*
G04 #@! TF.FilePolarity,Negative*
%FSLAX46Y46*%
G04 Gerber Fmt 4.6, Leading zero omitted, Abs format (unit mm)*
G04 Created by KiCad (PCBNEW (5.1.8)-1) date 2023-05-14 21:24:40*
%MOMM*%
%LPD*%
G01*
G04 APERTURE LIST*
%ADD10C,1.600000*%
%ADD11O,1.600000X1.600000*%
%ADD12R,1.600000X1.600000*%
G04 APERTURE END LIST*
D10*
X179806600Y-116967000D03*
X164566600Y-116967000D03*
X179806600Y-114427000D03*
X179806600Y-111887000D03*
X179806600Y-109347000D03*
X179806600Y-106807000D03*
X179806600Y-104267000D03*
X179806600Y-101727000D03*
X179806600Y-99187000D03*
X179806600Y-96647000D03*
X179806600Y-94107000D03*
X179806600Y-91567000D03*
X179806600Y-89027000D03*
X179806600Y-86487000D03*
X179806600Y-83947000D03*
X164566600Y-114427000D03*
X164566600Y-111887000D03*
X164566600Y-109347000D03*
X164566600Y-106807000D03*
X164566600Y-104267000D03*
X164566600Y-101727000D03*
X164566600Y-99187000D03*
X164566600Y-96647000D03*
X164566600Y-94107000D03*
X164566600Y-91567000D03*
X164566600Y-89027000D03*
X164566600Y-86487000D03*
X164566600Y-83947000D03*
D11*
X182270400Y-83947000D03*
X167030400Y-116967000D03*
X182270400Y-86487000D03*
X167030400Y-114427000D03*
X182270400Y-89027000D03*
X167030400Y-111887000D03*
X182270400Y-91567000D03*
X167030400Y-109347000D03*
X182270400Y-94107000D03*
X167030400Y-106807000D03*
X182270400Y-96647000D03*
X167030400Y-104267000D03*
X182270400Y-99187000D03*
X167030400Y-101727000D03*
X182270400Y-101727000D03*
X167030400Y-99187000D03*
X182270400Y-104267000D03*
X167030400Y-96647000D03*
X182270400Y-106807000D03*
X167030400Y-94107000D03*
X182270400Y-109347000D03*
X167030400Y-91567000D03*
X182270400Y-111887000D03*
X167030400Y-89027000D03*
X182270400Y-114427000D03*
X167030400Y-86487000D03*
X182270400Y-116967000D03*
D12*
X167030400Y-83947000D03*
M02*
