M48
; DRILL file {KiCad (5.1.8)-1} date 05/14/23 21:25:30
; FORMAT={-:-/ absolute / metric / decimal}
; #@! TF.CreationDate,2023-05-14T21:25:30-07:00
; #@! TF.GenerationSoftware,Kicad,Pcbnew,(5.1.8)-1
; #@! TF.FileFunction,Plated,1,2,PTH
FMAT,2
METRIC
T1C0.400
T2C0.800
T3C1.100
%
G90
G05
T1
X169.672Y-103.911
X170.002Y-107.772
X170.053Y-91.44
X170.129Y-115.57
X171.196Y-104.038
X171.755Y-87.655
X171.882Y-84.582
X171.907Y-97.079
X172.339Y-106.807
X172.517Y-116.891
X172.618Y-100.254
X172.847Y-104.089
X173.406Y-86.487
X173.507Y-111.785
X173.584Y-115.57
X173.787Y-88.9
X173.914Y-99.238
X173.914Y-101.6
X174.092Y-109.931
X174.32Y-103.2
X174.32Y-108.102
X174.346Y-114.427
X174.346Y-112.928
X174.734Y-90.066
X175.184Y-84.709
X175.438Y-106.629
X175.514Y-97.028
X176.911Y-91.999
X177.317Y-83.287
X177.521Y-107.518
X178.003Y-95.961
T2
X167.03Y-83.947
X167.03Y-86.487
X167.03Y-89.027
X167.03Y-91.567
X167.03Y-94.107
X167.03Y-96.647
X167.03Y-99.187
X167.03Y-101.727
X167.03Y-104.267
X167.03Y-106.807
X167.03Y-109.347
X167.03Y-111.887
X167.03Y-114.427
X167.03Y-116.967
X182.27Y-83.947
X182.27Y-86.487
X182.27Y-89.027
X182.27Y-91.567
X182.27Y-94.107
X182.27Y-96.647
X182.27Y-99.187
X182.27Y-101.727
X182.27Y-104.267
X182.27Y-106.807
X182.27Y-109.347
X182.27Y-111.887
X182.27Y-114.427
X182.27Y-116.967
T3
X164.567Y-83.947
X164.567Y-86.487
X164.567Y-89.027
X164.567Y-91.567
X164.567Y-94.107
X164.567Y-96.647
X164.567Y-99.187
X164.567Y-101.727
X164.567Y-104.267
X164.567Y-106.807
X164.567Y-109.347
X164.567Y-111.887
X164.567Y-114.427
X164.567Y-116.967
X179.807Y-83.947
X179.807Y-86.487
X179.807Y-89.027
X179.807Y-91.567
X179.807Y-94.107
X179.807Y-96.647
X179.807Y-99.187
X179.807Y-101.727
X179.807Y-104.267
X179.807Y-106.807
X179.807Y-109.347
X179.807Y-111.887
X179.807Y-114.427
X179.807Y-116.967
T0
M30
