G04 #@! TF.GenerationSoftware,KiCad,Pcbnew,(5.1.8)-1*
G04 #@! TF.CreationDate,2021-03-17T09:54:22-07:00*
G04 #@! TF.ProjectId,MCL64,4d434c36-342e-46b6-9963-61645f706362,rev?*
G04 #@! TF.SameCoordinates,Original*
G04 #@! TF.FileFunction,Paste,Top*
G04 #@! TF.FilePolarity,Positive*
%FSLAX46Y46*%
G04 Gerber Fmt 4.6, Leading zero omitted, Abs format (unit mm)*
G04 Created by KiCad (PCBNEW (5.1.8)-1) date 2021-03-17 09:54:22*
%MOMM*%
%LPD*%
G01*
G04 APERTURE LIST*
%ADD10R,1.200000X0.400000*%
G04 APERTURE END LIST*
G36*
G01*
X118561960Y-104306720D02*
X118561960Y-104056720D01*
G75*
G02*
X118686960Y-103931720I125000J0D01*
G01*
X120336960Y-103931720D01*
G75*
G02*
X120461960Y-104056720I0J-125000D01*
G01*
X120461960Y-104306720D01*
G75*
G02*
X120336960Y-104431720I-125000J0D01*
G01*
X118686960Y-104431720D01*
G75*
G02*
X118561960Y-104306720I0J125000D01*
G01*
G37*
G36*
G01*
X118561960Y-104956720D02*
X118561960Y-104706720D01*
G75*
G02*
X118686960Y-104581720I125000J0D01*
G01*
X120336960Y-104581720D01*
G75*
G02*
X120461960Y-104706720I0J-125000D01*
G01*
X120461960Y-104956720D01*
G75*
G02*
X120336960Y-105081720I-125000J0D01*
G01*
X118686960Y-105081720D01*
G75*
G02*
X118561960Y-104956720I0J125000D01*
G01*
G37*
G36*
G01*
X118561960Y-105606720D02*
X118561960Y-105356720D01*
G75*
G02*
X118686960Y-105231720I125000J0D01*
G01*
X120336960Y-105231720D01*
G75*
G02*
X120461960Y-105356720I0J-125000D01*
G01*
X120461960Y-105606720D01*
G75*
G02*
X120336960Y-105731720I-125000J0D01*
G01*
X118686960Y-105731720D01*
G75*
G02*
X118561960Y-105606720I0J125000D01*
G01*
G37*
G36*
G01*
X118561960Y-106256720D02*
X118561960Y-106006720D01*
G75*
G02*
X118686960Y-105881720I125000J0D01*
G01*
X120336960Y-105881720D01*
G75*
G02*
X120461960Y-106006720I0J-125000D01*
G01*
X120461960Y-106256720D01*
G75*
G02*
X120336960Y-106381720I-125000J0D01*
G01*
X118686960Y-106381720D01*
G75*
G02*
X118561960Y-106256720I0J125000D01*
G01*
G37*
G36*
G01*
X118561960Y-106906720D02*
X118561960Y-106656720D01*
G75*
G02*
X118686960Y-106531720I125000J0D01*
G01*
X120336960Y-106531720D01*
G75*
G02*
X120461960Y-106656720I0J-125000D01*
G01*
X120461960Y-106906720D01*
G75*
G02*
X120336960Y-107031720I-125000J0D01*
G01*
X118686960Y-107031720D01*
G75*
G02*
X118561960Y-106906720I0J125000D01*
G01*
G37*
G36*
G01*
X118561960Y-107556720D02*
X118561960Y-107306720D01*
G75*
G02*
X118686960Y-107181720I125000J0D01*
G01*
X120336960Y-107181720D01*
G75*
G02*
X120461960Y-107306720I0J-125000D01*
G01*
X120461960Y-107556720D01*
G75*
G02*
X120336960Y-107681720I-125000J0D01*
G01*
X118686960Y-107681720D01*
G75*
G02*
X118561960Y-107556720I0J125000D01*
G01*
G37*
G36*
G01*
X118561960Y-108206720D02*
X118561960Y-107956720D01*
G75*
G02*
X118686960Y-107831720I125000J0D01*
G01*
X120336960Y-107831720D01*
G75*
G02*
X120461960Y-107956720I0J-125000D01*
G01*
X120461960Y-108206720D01*
G75*
G02*
X120336960Y-108331720I-125000J0D01*
G01*
X118686960Y-108331720D01*
G75*
G02*
X118561960Y-108206720I0J125000D01*
G01*
G37*
G36*
G01*
X118561960Y-108856720D02*
X118561960Y-108606720D01*
G75*
G02*
X118686960Y-108481720I125000J0D01*
G01*
X120336960Y-108481720D01*
G75*
G02*
X120461960Y-108606720I0J-125000D01*
G01*
X120461960Y-108856720D01*
G75*
G02*
X120336960Y-108981720I-125000J0D01*
G01*
X118686960Y-108981720D01*
G75*
G02*
X118561960Y-108856720I0J125000D01*
G01*
G37*
G36*
G01*
X118561960Y-109506720D02*
X118561960Y-109256720D01*
G75*
G02*
X118686960Y-109131720I125000J0D01*
G01*
X120336960Y-109131720D01*
G75*
G02*
X120461960Y-109256720I0J-125000D01*
G01*
X120461960Y-109506720D01*
G75*
G02*
X120336960Y-109631720I-125000J0D01*
G01*
X118686960Y-109631720D01*
G75*
G02*
X118561960Y-109506720I0J125000D01*
G01*
G37*
G36*
G01*
X118561960Y-110156720D02*
X118561960Y-109906720D01*
G75*
G02*
X118686960Y-109781720I125000J0D01*
G01*
X120336960Y-109781720D01*
G75*
G02*
X120461960Y-109906720I0J-125000D01*
G01*
X120461960Y-110156720D01*
G75*
G02*
X120336960Y-110281720I-125000J0D01*
G01*
X118686960Y-110281720D01*
G75*
G02*
X118561960Y-110156720I0J125000D01*
G01*
G37*
G36*
G01*
X111561960Y-110156720D02*
X111561960Y-109906720D01*
G75*
G02*
X111686960Y-109781720I125000J0D01*
G01*
X113336960Y-109781720D01*
G75*
G02*
X113461960Y-109906720I0J-125000D01*
G01*
X113461960Y-110156720D01*
G75*
G02*
X113336960Y-110281720I-125000J0D01*
G01*
X111686960Y-110281720D01*
G75*
G02*
X111561960Y-110156720I0J125000D01*
G01*
G37*
G36*
G01*
X111561960Y-109506720D02*
X111561960Y-109256720D01*
G75*
G02*
X111686960Y-109131720I125000J0D01*
G01*
X113336960Y-109131720D01*
G75*
G02*
X113461960Y-109256720I0J-125000D01*
G01*
X113461960Y-109506720D01*
G75*
G02*
X113336960Y-109631720I-125000J0D01*
G01*
X111686960Y-109631720D01*
G75*
G02*
X111561960Y-109506720I0J125000D01*
G01*
G37*
G36*
G01*
X111561960Y-108856720D02*
X111561960Y-108606720D01*
G75*
G02*
X111686960Y-108481720I125000J0D01*
G01*
X113336960Y-108481720D01*
G75*
G02*
X113461960Y-108606720I0J-125000D01*
G01*
X113461960Y-108856720D01*
G75*
G02*
X113336960Y-108981720I-125000J0D01*
G01*
X111686960Y-108981720D01*
G75*
G02*
X111561960Y-108856720I0J125000D01*
G01*
G37*
G36*
G01*
X111561960Y-108206720D02*
X111561960Y-107956720D01*
G75*
G02*
X111686960Y-107831720I125000J0D01*
G01*
X113336960Y-107831720D01*
G75*
G02*
X113461960Y-107956720I0J-125000D01*
G01*
X113461960Y-108206720D01*
G75*
G02*
X113336960Y-108331720I-125000J0D01*
G01*
X111686960Y-108331720D01*
G75*
G02*
X111561960Y-108206720I0J125000D01*
G01*
G37*
G36*
G01*
X111561960Y-107556720D02*
X111561960Y-107306720D01*
G75*
G02*
X111686960Y-107181720I125000J0D01*
G01*
X113336960Y-107181720D01*
G75*
G02*
X113461960Y-107306720I0J-125000D01*
G01*
X113461960Y-107556720D01*
G75*
G02*
X113336960Y-107681720I-125000J0D01*
G01*
X111686960Y-107681720D01*
G75*
G02*
X111561960Y-107556720I0J125000D01*
G01*
G37*
G36*
G01*
X111561960Y-106906720D02*
X111561960Y-106656720D01*
G75*
G02*
X111686960Y-106531720I125000J0D01*
G01*
X113336960Y-106531720D01*
G75*
G02*
X113461960Y-106656720I0J-125000D01*
G01*
X113461960Y-106906720D01*
G75*
G02*
X113336960Y-107031720I-125000J0D01*
G01*
X111686960Y-107031720D01*
G75*
G02*
X111561960Y-106906720I0J125000D01*
G01*
G37*
G36*
G01*
X111561960Y-106256720D02*
X111561960Y-106006720D01*
G75*
G02*
X111686960Y-105881720I125000J0D01*
G01*
X113336960Y-105881720D01*
G75*
G02*
X113461960Y-106006720I0J-125000D01*
G01*
X113461960Y-106256720D01*
G75*
G02*
X113336960Y-106381720I-125000J0D01*
G01*
X111686960Y-106381720D01*
G75*
G02*
X111561960Y-106256720I0J125000D01*
G01*
G37*
G36*
G01*
X111561960Y-105606720D02*
X111561960Y-105356720D01*
G75*
G02*
X111686960Y-105231720I125000J0D01*
G01*
X113336960Y-105231720D01*
G75*
G02*
X113461960Y-105356720I0J-125000D01*
G01*
X113461960Y-105606720D01*
G75*
G02*
X113336960Y-105731720I-125000J0D01*
G01*
X111686960Y-105731720D01*
G75*
G02*
X111561960Y-105606720I0J125000D01*
G01*
G37*
G36*
G01*
X111561960Y-104956720D02*
X111561960Y-104706720D01*
G75*
G02*
X111686960Y-104581720I125000J0D01*
G01*
X113336960Y-104581720D01*
G75*
G02*
X113461960Y-104706720I0J-125000D01*
G01*
X113461960Y-104956720D01*
G75*
G02*
X113336960Y-105081720I-125000J0D01*
G01*
X111686960Y-105081720D01*
G75*
G02*
X111561960Y-104956720I0J125000D01*
G01*
G37*
G36*
G01*
X111561960Y-104306720D02*
X111561960Y-104056720D01*
G75*
G02*
X111686960Y-103931720I125000J0D01*
G01*
X113336960Y-103931720D01*
G75*
G02*
X113461960Y-104056720I0J-125000D01*
G01*
X113461960Y-104306720D01*
G75*
G02*
X113336960Y-104431720I-125000J0D01*
G01*
X111686960Y-104431720D01*
G75*
G02*
X111561960Y-104306720I0J125000D01*
G01*
G37*
D10*
X119614360Y-89929420D03*
X119614360Y-90579420D03*
X119614360Y-91229420D03*
X119614360Y-91879420D03*
X119614360Y-92529420D03*
X119614360Y-93179420D03*
X119614360Y-93829420D03*
X112714360Y-93829420D03*
X112714360Y-93179420D03*
X112714360Y-92529420D03*
X112714360Y-91879420D03*
X112714360Y-91229420D03*
X112714360Y-90579420D03*
X112714360Y-89929420D03*
G36*
G01*
X100291740Y-118058280D02*
X100291740Y-117808280D01*
G75*
G02*
X100416740Y-117683280I125000J0D01*
G01*
X102066740Y-117683280D01*
G75*
G02*
X102191740Y-117808280I0J-125000D01*
G01*
X102191740Y-118058280D01*
G75*
G02*
X102066740Y-118183280I-125000J0D01*
G01*
X100416740Y-118183280D01*
G75*
G02*
X100291740Y-118058280I0J125000D01*
G01*
G37*
G36*
G01*
X100291740Y-118708280D02*
X100291740Y-118458280D01*
G75*
G02*
X100416740Y-118333280I125000J0D01*
G01*
X102066740Y-118333280D01*
G75*
G02*
X102191740Y-118458280I0J-125000D01*
G01*
X102191740Y-118708280D01*
G75*
G02*
X102066740Y-118833280I-125000J0D01*
G01*
X100416740Y-118833280D01*
G75*
G02*
X100291740Y-118708280I0J125000D01*
G01*
G37*
G36*
G01*
X100291740Y-119358280D02*
X100291740Y-119108280D01*
G75*
G02*
X100416740Y-118983280I125000J0D01*
G01*
X102066740Y-118983280D01*
G75*
G02*
X102191740Y-119108280I0J-125000D01*
G01*
X102191740Y-119358280D01*
G75*
G02*
X102066740Y-119483280I-125000J0D01*
G01*
X100416740Y-119483280D01*
G75*
G02*
X100291740Y-119358280I0J125000D01*
G01*
G37*
G36*
G01*
X100291740Y-120008280D02*
X100291740Y-119758280D01*
G75*
G02*
X100416740Y-119633280I125000J0D01*
G01*
X102066740Y-119633280D01*
G75*
G02*
X102191740Y-119758280I0J-125000D01*
G01*
X102191740Y-120008280D01*
G75*
G02*
X102066740Y-120133280I-125000J0D01*
G01*
X100416740Y-120133280D01*
G75*
G02*
X100291740Y-120008280I0J125000D01*
G01*
G37*
G36*
G01*
X100291740Y-120658280D02*
X100291740Y-120408280D01*
G75*
G02*
X100416740Y-120283280I125000J0D01*
G01*
X102066740Y-120283280D01*
G75*
G02*
X102191740Y-120408280I0J-125000D01*
G01*
X102191740Y-120658280D01*
G75*
G02*
X102066740Y-120783280I-125000J0D01*
G01*
X100416740Y-120783280D01*
G75*
G02*
X100291740Y-120658280I0J125000D01*
G01*
G37*
G36*
G01*
X100291740Y-121308280D02*
X100291740Y-121058280D01*
G75*
G02*
X100416740Y-120933280I125000J0D01*
G01*
X102066740Y-120933280D01*
G75*
G02*
X102191740Y-121058280I0J-125000D01*
G01*
X102191740Y-121308280D01*
G75*
G02*
X102066740Y-121433280I-125000J0D01*
G01*
X100416740Y-121433280D01*
G75*
G02*
X100291740Y-121308280I0J125000D01*
G01*
G37*
G36*
G01*
X100291740Y-121958280D02*
X100291740Y-121708280D01*
G75*
G02*
X100416740Y-121583280I125000J0D01*
G01*
X102066740Y-121583280D01*
G75*
G02*
X102191740Y-121708280I0J-125000D01*
G01*
X102191740Y-121958280D01*
G75*
G02*
X102066740Y-122083280I-125000J0D01*
G01*
X100416740Y-122083280D01*
G75*
G02*
X100291740Y-121958280I0J125000D01*
G01*
G37*
G36*
G01*
X100291740Y-122608280D02*
X100291740Y-122358280D01*
G75*
G02*
X100416740Y-122233280I125000J0D01*
G01*
X102066740Y-122233280D01*
G75*
G02*
X102191740Y-122358280I0J-125000D01*
G01*
X102191740Y-122608280D01*
G75*
G02*
X102066740Y-122733280I-125000J0D01*
G01*
X100416740Y-122733280D01*
G75*
G02*
X100291740Y-122608280I0J125000D01*
G01*
G37*
G36*
G01*
X100291740Y-123258280D02*
X100291740Y-123008280D01*
G75*
G02*
X100416740Y-122883280I125000J0D01*
G01*
X102066740Y-122883280D01*
G75*
G02*
X102191740Y-123008280I0J-125000D01*
G01*
X102191740Y-123258280D01*
G75*
G02*
X102066740Y-123383280I-125000J0D01*
G01*
X100416740Y-123383280D01*
G75*
G02*
X100291740Y-123258280I0J125000D01*
G01*
G37*
G36*
G01*
X100291740Y-123908280D02*
X100291740Y-123658280D01*
G75*
G02*
X100416740Y-123533280I125000J0D01*
G01*
X102066740Y-123533280D01*
G75*
G02*
X102191740Y-123658280I0J-125000D01*
G01*
X102191740Y-123908280D01*
G75*
G02*
X102066740Y-124033280I-125000J0D01*
G01*
X100416740Y-124033280D01*
G75*
G02*
X100291740Y-123908280I0J125000D01*
G01*
G37*
G36*
G01*
X93291740Y-123908280D02*
X93291740Y-123658280D01*
G75*
G02*
X93416740Y-123533280I125000J0D01*
G01*
X95066740Y-123533280D01*
G75*
G02*
X95191740Y-123658280I0J-125000D01*
G01*
X95191740Y-123908280D01*
G75*
G02*
X95066740Y-124033280I-125000J0D01*
G01*
X93416740Y-124033280D01*
G75*
G02*
X93291740Y-123908280I0J125000D01*
G01*
G37*
G36*
G01*
X93291740Y-123258280D02*
X93291740Y-123008280D01*
G75*
G02*
X93416740Y-122883280I125000J0D01*
G01*
X95066740Y-122883280D01*
G75*
G02*
X95191740Y-123008280I0J-125000D01*
G01*
X95191740Y-123258280D01*
G75*
G02*
X95066740Y-123383280I-125000J0D01*
G01*
X93416740Y-123383280D01*
G75*
G02*
X93291740Y-123258280I0J125000D01*
G01*
G37*
G36*
G01*
X93291740Y-122608280D02*
X93291740Y-122358280D01*
G75*
G02*
X93416740Y-122233280I125000J0D01*
G01*
X95066740Y-122233280D01*
G75*
G02*
X95191740Y-122358280I0J-125000D01*
G01*
X95191740Y-122608280D01*
G75*
G02*
X95066740Y-122733280I-125000J0D01*
G01*
X93416740Y-122733280D01*
G75*
G02*
X93291740Y-122608280I0J125000D01*
G01*
G37*
G36*
G01*
X93291740Y-121958280D02*
X93291740Y-121708280D01*
G75*
G02*
X93416740Y-121583280I125000J0D01*
G01*
X95066740Y-121583280D01*
G75*
G02*
X95191740Y-121708280I0J-125000D01*
G01*
X95191740Y-121958280D01*
G75*
G02*
X95066740Y-122083280I-125000J0D01*
G01*
X93416740Y-122083280D01*
G75*
G02*
X93291740Y-121958280I0J125000D01*
G01*
G37*
G36*
G01*
X93291740Y-121308280D02*
X93291740Y-121058280D01*
G75*
G02*
X93416740Y-120933280I125000J0D01*
G01*
X95066740Y-120933280D01*
G75*
G02*
X95191740Y-121058280I0J-125000D01*
G01*
X95191740Y-121308280D01*
G75*
G02*
X95066740Y-121433280I-125000J0D01*
G01*
X93416740Y-121433280D01*
G75*
G02*
X93291740Y-121308280I0J125000D01*
G01*
G37*
G36*
G01*
X93291740Y-120658280D02*
X93291740Y-120408280D01*
G75*
G02*
X93416740Y-120283280I125000J0D01*
G01*
X95066740Y-120283280D01*
G75*
G02*
X95191740Y-120408280I0J-125000D01*
G01*
X95191740Y-120658280D01*
G75*
G02*
X95066740Y-120783280I-125000J0D01*
G01*
X93416740Y-120783280D01*
G75*
G02*
X93291740Y-120658280I0J125000D01*
G01*
G37*
G36*
G01*
X93291740Y-120008280D02*
X93291740Y-119758280D01*
G75*
G02*
X93416740Y-119633280I125000J0D01*
G01*
X95066740Y-119633280D01*
G75*
G02*
X95191740Y-119758280I0J-125000D01*
G01*
X95191740Y-120008280D01*
G75*
G02*
X95066740Y-120133280I-125000J0D01*
G01*
X93416740Y-120133280D01*
G75*
G02*
X93291740Y-120008280I0J125000D01*
G01*
G37*
G36*
G01*
X93291740Y-119358280D02*
X93291740Y-119108280D01*
G75*
G02*
X93416740Y-118983280I125000J0D01*
G01*
X95066740Y-118983280D01*
G75*
G02*
X95191740Y-119108280I0J-125000D01*
G01*
X95191740Y-119358280D01*
G75*
G02*
X95066740Y-119483280I-125000J0D01*
G01*
X93416740Y-119483280D01*
G75*
G02*
X93291740Y-119358280I0J125000D01*
G01*
G37*
G36*
G01*
X93291740Y-118708280D02*
X93291740Y-118458280D01*
G75*
G02*
X93416740Y-118333280I125000J0D01*
G01*
X95066740Y-118333280D01*
G75*
G02*
X95191740Y-118458280I0J-125000D01*
G01*
X95191740Y-118708280D01*
G75*
G02*
X95066740Y-118833280I-125000J0D01*
G01*
X93416740Y-118833280D01*
G75*
G02*
X93291740Y-118708280I0J125000D01*
G01*
G37*
G36*
G01*
X93291740Y-118058280D02*
X93291740Y-117808280D01*
G75*
G02*
X93416740Y-117683280I125000J0D01*
G01*
X95066740Y-117683280D01*
G75*
G02*
X95191740Y-117808280I0J-125000D01*
G01*
X95191740Y-118058280D01*
G75*
G02*
X95066740Y-118183280I-125000J0D01*
G01*
X93416740Y-118183280D01*
G75*
G02*
X93291740Y-118058280I0J125000D01*
G01*
G37*
G36*
G01*
X99885340Y-104202580D02*
X99885340Y-103952580D01*
G75*
G02*
X100010340Y-103827580I125000J0D01*
G01*
X101660340Y-103827580D01*
G75*
G02*
X101785340Y-103952580I0J-125000D01*
G01*
X101785340Y-104202580D01*
G75*
G02*
X101660340Y-104327580I-125000J0D01*
G01*
X100010340Y-104327580D01*
G75*
G02*
X99885340Y-104202580I0J125000D01*
G01*
G37*
G36*
G01*
X99885340Y-104852580D02*
X99885340Y-104602580D01*
G75*
G02*
X100010340Y-104477580I125000J0D01*
G01*
X101660340Y-104477580D01*
G75*
G02*
X101785340Y-104602580I0J-125000D01*
G01*
X101785340Y-104852580D01*
G75*
G02*
X101660340Y-104977580I-125000J0D01*
G01*
X100010340Y-104977580D01*
G75*
G02*
X99885340Y-104852580I0J125000D01*
G01*
G37*
G36*
G01*
X99885340Y-105502580D02*
X99885340Y-105252580D01*
G75*
G02*
X100010340Y-105127580I125000J0D01*
G01*
X101660340Y-105127580D01*
G75*
G02*
X101785340Y-105252580I0J-125000D01*
G01*
X101785340Y-105502580D01*
G75*
G02*
X101660340Y-105627580I-125000J0D01*
G01*
X100010340Y-105627580D01*
G75*
G02*
X99885340Y-105502580I0J125000D01*
G01*
G37*
G36*
G01*
X99885340Y-106152580D02*
X99885340Y-105902580D01*
G75*
G02*
X100010340Y-105777580I125000J0D01*
G01*
X101660340Y-105777580D01*
G75*
G02*
X101785340Y-105902580I0J-125000D01*
G01*
X101785340Y-106152580D01*
G75*
G02*
X101660340Y-106277580I-125000J0D01*
G01*
X100010340Y-106277580D01*
G75*
G02*
X99885340Y-106152580I0J125000D01*
G01*
G37*
G36*
G01*
X99885340Y-106802580D02*
X99885340Y-106552580D01*
G75*
G02*
X100010340Y-106427580I125000J0D01*
G01*
X101660340Y-106427580D01*
G75*
G02*
X101785340Y-106552580I0J-125000D01*
G01*
X101785340Y-106802580D01*
G75*
G02*
X101660340Y-106927580I-125000J0D01*
G01*
X100010340Y-106927580D01*
G75*
G02*
X99885340Y-106802580I0J125000D01*
G01*
G37*
G36*
G01*
X99885340Y-107452580D02*
X99885340Y-107202580D01*
G75*
G02*
X100010340Y-107077580I125000J0D01*
G01*
X101660340Y-107077580D01*
G75*
G02*
X101785340Y-107202580I0J-125000D01*
G01*
X101785340Y-107452580D01*
G75*
G02*
X101660340Y-107577580I-125000J0D01*
G01*
X100010340Y-107577580D01*
G75*
G02*
X99885340Y-107452580I0J125000D01*
G01*
G37*
G36*
G01*
X99885340Y-108102580D02*
X99885340Y-107852580D01*
G75*
G02*
X100010340Y-107727580I125000J0D01*
G01*
X101660340Y-107727580D01*
G75*
G02*
X101785340Y-107852580I0J-125000D01*
G01*
X101785340Y-108102580D01*
G75*
G02*
X101660340Y-108227580I-125000J0D01*
G01*
X100010340Y-108227580D01*
G75*
G02*
X99885340Y-108102580I0J125000D01*
G01*
G37*
G36*
G01*
X99885340Y-108752580D02*
X99885340Y-108502580D01*
G75*
G02*
X100010340Y-108377580I125000J0D01*
G01*
X101660340Y-108377580D01*
G75*
G02*
X101785340Y-108502580I0J-125000D01*
G01*
X101785340Y-108752580D01*
G75*
G02*
X101660340Y-108877580I-125000J0D01*
G01*
X100010340Y-108877580D01*
G75*
G02*
X99885340Y-108752580I0J125000D01*
G01*
G37*
G36*
G01*
X99885340Y-109402580D02*
X99885340Y-109152580D01*
G75*
G02*
X100010340Y-109027580I125000J0D01*
G01*
X101660340Y-109027580D01*
G75*
G02*
X101785340Y-109152580I0J-125000D01*
G01*
X101785340Y-109402580D01*
G75*
G02*
X101660340Y-109527580I-125000J0D01*
G01*
X100010340Y-109527580D01*
G75*
G02*
X99885340Y-109402580I0J125000D01*
G01*
G37*
G36*
G01*
X99885340Y-110052580D02*
X99885340Y-109802580D01*
G75*
G02*
X100010340Y-109677580I125000J0D01*
G01*
X101660340Y-109677580D01*
G75*
G02*
X101785340Y-109802580I0J-125000D01*
G01*
X101785340Y-110052580D01*
G75*
G02*
X101660340Y-110177580I-125000J0D01*
G01*
X100010340Y-110177580D01*
G75*
G02*
X99885340Y-110052580I0J125000D01*
G01*
G37*
G36*
G01*
X92885340Y-110052580D02*
X92885340Y-109802580D01*
G75*
G02*
X93010340Y-109677580I125000J0D01*
G01*
X94660340Y-109677580D01*
G75*
G02*
X94785340Y-109802580I0J-125000D01*
G01*
X94785340Y-110052580D01*
G75*
G02*
X94660340Y-110177580I-125000J0D01*
G01*
X93010340Y-110177580D01*
G75*
G02*
X92885340Y-110052580I0J125000D01*
G01*
G37*
G36*
G01*
X92885340Y-109402580D02*
X92885340Y-109152580D01*
G75*
G02*
X93010340Y-109027580I125000J0D01*
G01*
X94660340Y-109027580D01*
G75*
G02*
X94785340Y-109152580I0J-125000D01*
G01*
X94785340Y-109402580D01*
G75*
G02*
X94660340Y-109527580I-125000J0D01*
G01*
X93010340Y-109527580D01*
G75*
G02*
X92885340Y-109402580I0J125000D01*
G01*
G37*
G36*
G01*
X92885340Y-108752580D02*
X92885340Y-108502580D01*
G75*
G02*
X93010340Y-108377580I125000J0D01*
G01*
X94660340Y-108377580D01*
G75*
G02*
X94785340Y-108502580I0J-125000D01*
G01*
X94785340Y-108752580D01*
G75*
G02*
X94660340Y-108877580I-125000J0D01*
G01*
X93010340Y-108877580D01*
G75*
G02*
X92885340Y-108752580I0J125000D01*
G01*
G37*
G36*
G01*
X92885340Y-108102580D02*
X92885340Y-107852580D01*
G75*
G02*
X93010340Y-107727580I125000J0D01*
G01*
X94660340Y-107727580D01*
G75*
G02*
X94785340Y-107852580I0J-125000D01*
G01*
X94785340Y-108102580D01*
G75*
G02*
X94660340Y-108227580I-125000J0D01*
G01*
X93010340Y-108227580D01*
G75*
G02*
X92885340Y-108102580I0J125000D01*
G01*
G37*
G36*
G01*
X92885340Y-107452580D02*
X92885340Y-107202580D01*
G75*
G02*
X93010340Y-107077580I125000J0D01*
G01*
X94660340Y-107077580D01*
G75*
G02*
X94785340Y-107202580I0J-125000D01*
G01*
X94785340Y-107452580D01*
G75*
G02*
X94660340Y-107577580I-125000J0D01*
G01*
X93010340Y-107577580D01*
G75*
G02*
X92885340Y-107452580I0J125000D01*
G01*
G37*
G36*
G01*
X92885340Y-106802580D02*
X92885340Y-106552580D01*
G75*
G02*
X93010340Y-106427580I125000J0D01*
G01*
X94660340Y-106427580D01*
G75*
G02*
X94785340Y-106552580I0J-125000D01*
G01*
X94785340Y-106802580D01*
G75*
G02*
X94660340Y-106927580I-125000J0D01*
G01*
X93010340Y-106927580D01*
G75*
G02*
X92885340Y-106802580I0J125000D01*
G01*
G37*
G36*
G01*
X92885340Y-106152580D02*
X92885340Y-105902580D01*
G75*
G02*
X93010340Y-105777580I125000J0D01*
G01*
X94660340Y-105777580D01*
G75*
G02*
X94785340Y-105902580I0J-125000D01*
G01*
X94785340Y-106152580D01*
G75*
G02*
X94660340Y-106277580I-125000J0D01*
G01*
X93010340Y-106277580D01*
G75*
G02*
X92885340Y-106152580I0J125000D01*
G01*
G37*
G36*
G01*
X92885340Y-105502580D02*
X92885340Y-105252580D01*
G75*
G02*
X93010340Y-105127580I125000J0D01*
G01*
X94660340Y-105127580D01*
G75*
G02*
X94785340Y-105252580I0J-125000D01*
G01*
X94785340Y-105502580D01*
G75*
G02*
X94660340Y-105627580I-125000J0D01*
G01*
X93010340Y-105627580D01*
G75*
G02*
X92885340Y-105502580I0J125000D01*
G01*
G37*
G36*
G01*
X92885340Y-104852580D02*
X92885340Y-104602580D01*
G75*
G02*
X93010340Y-104477580I125000J0D01*
G01*
X94660340Y-104477580D01*
G75*
G02*
X94785340Y-104602580I0J-125000D01*
G01*
X94785340Y-104852580D01*
G75*
G02*
X94660340Y-104977580I-125000J0D01*
G01*
X93010340Y-104977580D01*
G75*
G02*
X92885340Y-104852580I0J125000D01*
G01*
G37*
G36*
G01*
X92885340Y-104202580D02*
X92885340Y-103952580D01*
G75*
G02*
X93010340Y-103827580I125000J0D01*
G01*
X94660340Y-103827580D01*
G75*
G02*
X94785340Y-103952580I0J-125000D01*
G01*
X94785340Y-104202580D01*
G75*
G02*
X94660340Y-104327580I-125000J0D01*
G01*
X93010340Y-104327580D01*
G75*
G02*
X92885340Y-104202580I0J125000D01*
G01*
G37*
M02*
