G04 #@! TF.GenerationSoftware,KiCad,Pcbnew,(5.1.8)-1*
G04 #@! TF.CreationDate,2021-03-17T09:54:22-07:00*
G04 #@! TF.ProjectId,MCL64,4d434c36-342e-46b6-9963-61645f706362,rev?*
G04 #@! TF.SameCoordinates,Original*
G04 #@! TF.FileFunction,Legend,Top*
G04 #@! TF.FilePolarity,Positive*
%FSLAX46Y46*%
G04 Gerber Fmt 4.6, Leading zero omitted, Abs format (unit mm)*
G04 Created by KiCad (PCBNEW (5.1.8)-1) date 2021-03-17 09:54:22*
%MOMM*%
%LPD*%
G01*
G04 APERTURE LIST*
%ADD10C,0.150000*%
%ADD11C,0.120000*%
G04 APERTURE END LIST*
D10*
X110756440Y-140803120D02*
X110756440Y-139803120D01*
X111089774Y-140517406D01*
X111423107Y-139803120D01*
X111423107Y-140803120D01*
X111899298Y-140803120D02*
X111899298Y-140136454D01*
X111899298Y-139803120D02*
X111851679Y-139850740D01*
X111899298Y-139898359D01*
X111946917Y-139850740D01*
X111899298Y-139803120D01*
X111899298Y-139898359D01*
X112804060Y-140755501D02*
X112708821Y-140803120D01*
X112518345Y-140803120D01*
X112423107Y-140755501D01*
X112375488Y-140707882D01*
X112327869Y-140612644D01*
X112327869Y-140326930D01*
X112375488Y-140231692D01*
X112423107Y-140184073D01*
X112518345Y-140136454D01*
X112708821Y-140136454D01*
X112804060Y-140184073D01*
X113232631Y-140803120D02*
X113232631Y-140136454D01*
X113232631Y-140326930D02*
X113280250Y-140231692D01*
X113327869Y-140184073D01*
X113423107Y-140136454D01*
X113518345Y-140136454D01*
X113994536Y-140803120D02*
X113899298Y-140755501D01*
X113851679Y-140707882D01*
X113804060Y-140612644D01*
X113804060Y-140326930D01*
X113851679Y-140231692D01*
X113899298Y-140184073D01*
X113994536Y-140136454D01*
X114137393Y-140136454D01*
X114232631Y-140184073D01*
X114280250Y-140231692D01*
X114327869Y-140326930D01*
X114327869Y-140612644D01*
X114280250Y-140707882D01*
X114232631Y-140755501D01*
X114137393Y-140803120D01*
X113994536Y-140803120D01*
X115327869Y-140707882D02*
X115280250Y-140755501D01*
X115137393Y-140803120D01*
X115042155Y-140803120D01*
X114899298Y-140755501D01*
X114804060Y-140660263D01*
X114756440Y-140565025D01*
X114708821Y-140374549D01*
X114708821Y-140231692D01*
X114756440Y-140041216D01*
X114804060Y-139945978D01*
X114899298Y-139850740D01*
X115042155Y-139803120D01*
X115137393Y-139803120D01*
X115280250Y-139850740D01*
X115327869Y-139898359D01*
X115899298Y-140803120D02*
X115804060Y-140755501D01*
X115756440Y-140707882D01*
X115708821Y-140612644D01*
X115708821Y-140326930D01*
X115756440Y-140231692D01*
X115804060Y-140184073D01*
X115899298Y-140136454D01*
X116042155Y-140136454D01*
X116137393Y-140184073D01*
X116185012Y-140231692D01*
X116232631Y-140326930D01*
X116232631Y-140612644D01*
X116185012Y-140707882D01*
X116137393Y-140755501D01*
X116042155Y-140803120D01*
X115899298Y-140803120D01*
X116661202Y-140803120D02*
X116661202Y-140136454D01*
X116661202Y-140326930D02*
X116708821Y-140231692D01*
X116756440Y-140184073D01*
X116851679Y-140136454D01*
X116946917Y-140136454D01*
X117661202Y-140755501D02*
X117565964Y-140803120D01*
X117375488Y-140803120D01*
X117280250Y-140755501D01*
X117232631Y-140660263D01*
X117232631Y-140279311D01*
X117280250Y-140184073D01*
X117375488Y-140136454D01*
X117565964Y-140136454D01*
X117661202Y-140184073D01*
X117708821Y-140279311D01*
X117708821Y-140374549D01*
X117232631Y-140469787D01*
X119375488Y-140803120D02*
X118899298Y-140803120D01*
X118899298Y-139803120D01*
X120137393Y-140803120D02*
X120137393Y-140279311D01*
X120089774Y-140184073D01*
X119994536Y-140136454D01*
X119804060Y-140136454D01*
X119708821Y-140184073D01*
X120137393Y-140755501D02*
X120042155Y-140803120D01*
X119804060Y-140803120D01*
X119708821Y-140755501D01*
X119661202Y-140660263D01*
X119661202Y-140565025D01*
X119708821Y-140469787D01*
X119804060Y-140422168D01*
X120042155Y-140422168D01*
X120137393Y-140374549D01*
X120613583Y-140803120D02*
X120613583Y-139803120D01*
X120613583Y-140184073D02*
X120708821Y-140136454D01*
X120899298Y-140136454D01*
X120994536Y-140184073D01*
X121042155Y-140231692D01*
X121089774Y-140326930D01*
X121089774Y-140612644D01*
X121042155Y-140707882D01*
X120994536Y-140755501D01*
X120899298Y-140803120D01*
X120708821Y-140803120D01*
X120613583Y-140755501D01*
X121470726Y-140755501D02*
X121565964Y-140803120D01*
X121756440Y-140803120D01*
X121851679Y-140755501D01*
X121899298Y-140660263D01*
X121899298Y-140612644D01*
X121851679Y-140517406D01*
X121756440Y-140469787D01*
X121613583Y-140469787D01*
X121518345Y-140422168D01*
X121470726Y-140326930D01*
X121470726Y-140279311D01*
X121518345Y-140184073D01*
X121613583Y-140136454D01*
X121756440Y-140136454D01*
X121851679Y-140184073D01*
X114494536Y-142453120D02*
X114494536Y-141453120D01*
X114827869Y-142167406D01*
X115161202Y-141453120D01*
X115161202Y-142453120D01*
X116208821Y-142357882D02*
X116161202Y-142405501D01*
X116018345Y-142453120D01*
X115923107Y-142453120D01*
X115780250Y-142405501D01*
X115685012Y-142310263D01*
X115637393Y-142215025D01*
X115589774Y-142024549D01*
X115589774Y-141881692D01*
X115637393Y-141691216D01*
X115685012Y-141595978D01*
X115780250Y-141500740D01*
X115923107Y-141453120D01*
X116018345Y-141453120D01*
X116161202Y-141500740D01*
X116208821Y-141548359D01*
X117113583Y-142453120D02*
X116637393Y-142453120D01*
X116637393Y-141453120D01*
X117875488Y-141453120D02*
X117685012Y-141453120D01*
X117589774Y-141500740D01*
X117542155Y-141548359D01*
X117446917Y-141691216D01*
X117399298Y-141881692D01*
X117399298Y-142262644D01*
X117446917Y-142357882D01*
X117494536Y-142405501D01*
X117589774Y-142453120D01*
X117780250Y-142453120D01*
X117875488Y-142405501D01*
X117923107Y-142357882D01*
X117970726Y-142262644D01*
X117970726Y-142024549D01*
X117923107Y-141929311D01*
X117875488Y-141881692D01*
X117780250Y-141834073D01*
X117589774Y-141834073D01*
X117494536Y-141881692D01*
X117446917Y-141929311D01*
X117399298Y-142024549D01*
X118827869Y-141786454D02*
X118827869Y-142453120D01*
X118589774Y-141405501D02*
X118351679Y-142119787D01*
X118970726Y-142119787D01*
D11*
X119652920Y-135040700D02*
X119652920Y-137780700D01*
X112412920Y-135040700D02*
X112412920Y-137780700D01*
X112412920Y-137780700D02*
X119652920Y-137780700D01*
X112412920Y-135040700D02*
X119652920Y-135040700D01*
D10*
X106357420Y-143888460D02*
X88577420Y-143888460D01*
X106357420Y-82928460D02*
X106357420Y-143888460D01*
X88577420Y-82928460D02*
X106357420Y-82928460D01*
X88577420Y-143888460D02*
X88577420Y-82928460D01*
X101277420Y-138808460D02*
X101277420Y-143888460D01*
X93657420Y-138808460D02*
X93657420Y-143888460D01*
X101277420Y-138808460D02*
X93657420Y-138808460D01*
X93657420Y-145158460D02*
X93657420Y-143888460D01*
X101277420Y-145158460D02*
X93657420Y-145158460D01*
X101277420Y-143888460D02*
X101277420Y-145158460D01*
X91117420Y-82928460D02*
X91117420Y-95628460D01*
X91117420Y-95628460D02*
X103817420Y-95628460D01*
X103817420Y-95628460D02*
X103817420Y-82928460D01*
X92387420Y-82928460D02*
X92387420Y-84198460D01*
X92387420Y-84198460D02*
X102547420Y-84198460D01*
X102547420Y-84198460D02*
X102547420Y-82928460D01*
D11*
X113251960Y-103671720D02*
X111561960Y-103671720D01*
X113251960Y-103396720D02*
X113251960Y-103671720D01*
X116011960Y-103396720D02*
X113251960Y-103396720D01*
X118771960Y-103396720D02*
X118771960Y-103671720D01*
X116011960Y-103396720D02*
X118771960Y-103396720D01*
X113251960Y-110816720D02*
X113251960Y-110541720D01*
X116011960Y-110816720D02*
X113251960Y-110816720D01*
X118771960Y-110816720D02*
X118771960Y-110541720D01*
X116011960Y-110816720D02*
X118771960Y-110816720D01*
D10*
X113389360Y-89404420D02*
X112114360Y-89404420D01*
X113389360Y-95154420D02*
X118939360Y-95154420D01*
X113389360Y-88604420D02*
X118939360Y-88604420D01*
X113389360Y-95154420D02*
X113389360Y-94254420D01*
X118939360Y-95154420D02*
X118939360Y-94254420D01*
X118939360Y-88604420D02*
X118939360Y-89504420D01*
X113389360Y-88604420D02*
X113389360Y-89404420D01*
D11*
X94981740Y-117423280D02*
X93291740Y-117423280D01*
X94981740Y-117148280D02*
X94981740Y-117423280D01*
X97741740Y-117148280D02*
X94981740Y-117148280D01*
X100501740Y-117148280D02*
X100501740Y-117423280D01*
X97741740Y-117148280D02*
X100501740Y-117148280D01*
X94981740Y-124568280D02*
X94981740Y-124293280D01*
X97741740Y-124568280D02*
X94981740Y-124568280D01*
X100501740Y-124568280D02*
X100501740Y-124293280D01*
X97741740Y-124568280D02*
X100501740Y-124568280D01*
X94575340Y-103567580D02*
X92885340Y-103567580D01*
X94575340Y-103292580D02*
X94575340Y-103567580D01*
X97335340Y-103292580D02*
X94575340Y-103292580D01*
X100095340Y-103292580D02*
X100095340Y-103567580D01*
X97335340Y-103292580D02*
X100095340Y-103292580D01*
X94575340Y-110712580D02*
X94575340Y-110437580D01*
X97335340Y-110712580D02*
X94575340Y-110712580D01*
X100095340Y-110712580D02*
X100095340Y-110437580D01*
X97335340Y-110712580D02*
X100095340Y-110712580D01*
X115253260Y-82896400D02*
X109793260Y-82896400D01*
X109793260Y-82896400D02*
X109793260Y-133816400D01*
X109793260Y-133816400D02*
X122713260Y-133816400D01*
X122713260Y-133816400D02*
X122713260Y-82896400D01*
X122713260Y-82896400D02*
X117253260Y-82896400D01*
X117253260Y-82896400D02*
G75*
G02*
X115253260Y-82896400I-1000000J0D01*
G01*
D10*
X115250055Y-102009100D02*
X115250055Y-102818624D01*
X115297674Y-102913862D01*
X115345293Y-102961481D01*
X115440531Y-103009100D01*
X115631007Y-103009100D01*
X115726245Y-102961481D01*
X115773864Y-102913862D01*
X115821483Y-102818624D01*
X115821483Y-102009100D01*
X116202436Y-102009100D02*
X116869102Y-102009100D01*
X116440531Y-103009100D01*
X115402455Y-87131800D02*
X115402455Y-87941324D01*
X115450074Y-88036562D01*
X115497693Y-88084181D01*
X115592931Y-88131800D01*
X115783407Y-88131800D01*
X115878645Y-88084181D01*
X115926264Y-88036562D01*
X115973883Y-87941324D01*
X115973883Y-87131800D01*
X116878645Y-87131800D02*
X116688169Y-87131800D01*
X116592931Y-87179420D01*
X116545312Y-87227039D01*
X116450074Y-87369896D01*
X116402455Y-87560372D01*
X116402455Y-87941324D01*
X116450074Y-88036562D01*
X116497693Y-88084181D01*
X116592931Y-88131800D01*
X116783407Y-88131800D01*
X116878645Y-88084181D01*
X116926264Y-88036562D01*
X116973883Y-87941324D01*
X116973883Y-87703229D01*
X116926264Y-87607991D01*
X116878645Y-87560372D01*
X116783407Y-87512753D01*
X116592931Y-87512753D01*
X116497693Y-87560372D01*
X116450074Y-87607991D01*
X116402455Y-87703229D01*
X96979835Y-115760660D02*
X96979835Y-116570184D01*
X97027454Y-116665422D01*
X97075073Y-116713041D01*
X97170311Y-116760660D01*
X97360787Y-116760660D01*
X97456025Y-116713041D01*
X97503644Y-116665422D01*
X97551263Y-116570184D01*
X97551263Y-115760660D01*
X98503644Y-115760660D02*
X98027454Y-115760660D01*
X97979835Y-116236851D01*
X98027454Y-116189232D01*
X98122692Y-116141613D01*
X98360787Y-116141613D01*
X98456025Y-116189232D01*
X98503644Y-116236851D01*
X98551263Y-116332089D01*
X98551263Y-116570184D01*
X98503644Y-116665422D01*
X98456025Y-116713041D01*
X98360787Y-116760660D01*
X98122692Y-116760660D01*
X98027454Y-116713041D01*
X97979835Y-116665422D01*
X96573435Y-101904960D02*
X96573435Y-102714484D01*
X96621054Y-102809722D01*
X96668673Y-102857341D01*
X96763911Y-102904960D01*
X96954387Y-102904960D01*
X97049625Y-102857341D01*
X97097244Y-102809722D01*
X97144863Y-102714484D01*
X97144863Y-101904960D01*
X97573435Y-102000199D02*
X97621054Y-101952580D01*
X97716292Y-101904960D01*
X97954387Y-101904960D01*
X98049625Y-101952580D01*
X98097244Y-102000199D01*
X98144863Y-102095437D01*
X98144863Y-102190675D01*
X98097244Y-102333532D01*
X97525816Y-102904960D01*
X98144863Y-102904960D01*
M02*
