G04 #@! TF.GenerationSoftware,KiCad,Pcbnew,(5.1.8)-1*
G04 #@! TF.CreationDate,2021-03-17T09:54:22-07:00*
G04 #@! TF.ProjectId,MCL64,4d434c36-342e-46b6-9963-61645f706362,rev?*
G04 #@! TF.SameCoordinates,Original*
G04 #@! TF.FileFunction,Copper,L1,Top*
G04 #@! TF.FilePolarity,Positive*
%FSLAX46Y46*%
G04 Gerber Fmt 4.6, Leading zero omitted, Abs format (unit mm)*
G04 Created by KiCad (PCBNEW (5.1.8)-1) date 2021-03-17 09:54:22*
%MOMM*%
%LPD*%
G01*
G04 APERTURE LIST*
G04 #@! TA.AperFunction,ComponentPad*
%ADD10C,1.600000*%
G04 #@! TD*
G04 #@! TA.AperFunction,ComponentPad*
%ADD11R,1.600000X1.600000*%
G04 #@! TD*
G04 #@! TA.AperFunction,SMDPad,CuDef*
%ADD12R,1.200000X0.400000*%
G04 #@! TD*
G04 #@! TA.AperFunction,ComponentPad*
%ADD13O,1.600000X1.600000*%
G04 #@! TD*
G04 #@! TA.AperFunction,ViaPad*
%ADD14C,0.600000*%
G04 #@! TD*
G04 #@! TA.AperFunction,Conductor*
%ADD15C,0.177800*%
G04 #@! TD*
G04 APERTURE END LIST*
D10*
X118532920Y-136410700D03*
X113532920Y-136410700D03*
X89847420Y-142618460D03*
X89847420Y-140078460D03*
X89847420Y-137538460D03*
X89847420Y-134998460D03*
X89847420Y-132458460D03*
X89847420Y-129918460D03*
X89847420Y-127378460D03*
X89847420Y-124838460D03*
X89847420Y-122298460D03*
X89847420Y-119758460D03*
X89847420Y-117218460D03*
X89847420Y-114678460D03*
X89847420Y-112138460D03*
X89847420Y-109598460D03*
D11*
X105087420Y-142618460D03*
D10*
X105087420Y-140078460D03*
X105087420Y-137538460D03*
X105087420Y-134998460D03*
X105087420Y-132458460D03*
X105087420Y-129918460D03*
X105087420Y-127378460D03*
X105087420Y-124838460D03*
X105087420Y-122298460D03*
X105087420Y-119758460D03*
X105087420Y-117218460D03*
X105087420Y-114678460D03*
X105087420Y-112138460D03*
X89847420Y-107058460D03*
X89847420Y-104518460D03*
X89847420Y-101978460D03*
X89847420Y-99438460D03*
X89847420Y-96898460D03*
X89847420Y-94358460D03*
X89847420Y-91818460D03*
X89847420Y-89278460D03*
X89847420Y-86738460D03*
X89847420Y-84198460D03*
X105087420Y-84198460D03*
X105087420Y-86738460D03*
X105087420Y-89278460D03*
X105087420Y-91818460D03*
X105087420Y-109598460D03*
X105087420Y-107058460D03*
X105087420Y-104518460D03*
X105087420Y-94358460D03*
X105087420Y-96898460D03*
X105087420Y-99438460D03*
X105087420Y-101978460D03*
G04 #@! TA.AperFunction,SMDPad,CuDef*
G36*
G01*
X118561960Y-104306720D02*
X118561960Y-104056720D01*
G75*
G02*
X118686960Y-103931720I125000J0D01*
G01*
X120336960Y-103931720D01*
G75*
G02*
X120461960Y-104056720I0J-125000D01*
G01*
X120461960Y-104306720D01*
G75*
G02*
X120336960Y-104431720I-125000J0D01*
G01*
X118686960Y-104431720D01*
G75*
G02*
X118561960Y-104306720I0J125000D01*
G01*
G37*
G04 #@! TD.AperFunction*
G04 #@! TA.AperFunction,SMDPad,CuDef*
G36*
G01*
X118561960Y-104956720D02*
X118561960Y-104706720D01*
G75*
G02*
X118686960Y-104581720I125000J0D01*
G01*
X120336960Y-104581720D01*
G75*
G02*
X120461960Y-104706720I0J-125000D01*
G01*
X120461960Y-104956720D01*
G75*
G02*
X120336960Y-105081720I-125000J0D01*
G01*
X118686960Y-105081720D01*
G75*
G02*
X118561960Y-104956720I0J125000D01*
G01*
G37*
G04 #@! TD.AperFunction*
G04 #@! TA.AperFunction,SMDPad,CuDef*
G36*
G01*
X118561960Y-105606720D02*
X118561960Y-105356720D01*
G75*
G02*
X118686960Y-105231720I125000J0D01*
G01*
X120336960Y-105231720D01*
G75*
G02*
X120461960Y-105356720I0J-125000D01*
G01*
X120461960Y-105606720D01*
G75*
G02*
X120336960Y-105731720I-125000J0D01*
G01*
X118686960Y-105731720D01*
G75*
G02*
X118561960Y-105606720I0J125000D01*
G01*
G37*
G04 #@! TD.AperFunction*
G04 #@! TA.AperFunction,SMDPad,CuDef*
G36*
G01*
X118561960Y-106256720D02*
X118561960Y-106006720D01*
G75*
G02*
X118686960Y-105881720I125000J0D01*
G01*
X120336960Y-105881720D01*
G75*
G02*
X120461960Y-106006720I0J-125000D01*
G01*
X120461960Y-106256720D01*
G75*
G02*
X120336960Y-106381720I-125000J0D01*
G01*
X118686960Y-106381720D01*
G75*
G02*
X118561960Y-106256720I0J125000D01*
G01*
G37*
G04 #@! TD.AperFunction*
G04 #@! TA.AperFunction,SMDPad,CuDef*
G36*
G01*
X118561960Y-106906720D02*
X118561960Y-106656720D01*
G75*
G02*
X118686960Y-106531720I125000J0D01*
G01*
X120336960Y-106531720D01*
G75*
G02*
X120461960Y-106656720I0J-125000D01*
G01*
X120461960Y-106906720D01*
G75*
G02*
X120336960Y-107031720I-125000J0D01*
G01*
X118686960Y-107031720D01*
G75*
G02*
X118561960Y-106906720I0J125000D01*
G01*
G37*
G04 #@! TD.AperFunction*
G04 #@! TA.AperFunction,SMDPad,CuDef*
G36*
G01*
X118561960Y-107556720D02*
X118561960Y-107306720D01*
G75*
G02*
X118686960Y-107181720I125000J0D01*
G01*
X120336960Y-107181720D01*
G75*
G02*
X120461960Y-107306720I0J-125000D01*
G01*
X120461960Y-107556720D01*
G75*
G02*
X120336960Y-107681720I-125000J0D01*
G01*
X118686960Y-107681720D01*
G75*
G02*
X118561960Y-107556720I0J125000D01*
G01*
G37*
G04 #@! TD.AperFunction*
G04 #@! TA.AperFunction,SMDPad,CuDef*
G36*
G01*
X118561960Y-108206720D02*
X118561960Y-107956720D01*
G75*
G02*
X118686960Y-107831720I125000J0D01*
G01*
X120336960Y-107831720D01*
G75*
G02*
X120461960Y-107956720I0J-125000D01*
G01*
X120461960Y-108206720D01*
G75*
G02*
X120336960Y-108331720I-125000J0D01*
G01*
X118686960Y-108331720D01*
G75*
G02*
X118561960Y-108206720I0J125000D01*
G01*
G37*
G04 #@! TD.AperFunction*
G04 #@! TA.AperFunction,SMDPad,CuDef*
G36*
G01*
X118561960Y-108856720D02*
X118561960Y-108606720D01*
G75*
G02*
X118686960Y-108481720I125000J0D01*
G01*
X120336960Y-108481720D01*
G75*
G02*
X120461960Y-108606720I0J-125000D01*
G01*
X120461960Y-108856720D01*
G75*
G02*
X120336960Y-108981720I-125000J0D01*
G01*
X118686960Y-108981720D01*
G75*
G02*
X118561960Y-108856720I0J125000D01*
G01*
G37*
G04 #@! TD.AperFunction*
G04 #@! TA.AperFunction,SMDPad,CuDef*
G36*
G01*
X118561960Y-109506720D02*
X118561960Y-109256720D01*
G75*
G02*
X118686960Y-109131720I125000J0D01*
G01*
X120336960Y-109131720D01*
G75*
G02*
X120461960Y-109256720I0J-125000D01*
G01*
X120461960Y-109506720D01*
G75*
G02*
X120336960Y-109631720I-125000J0D01*
G01*
X118686960Y-109631720D01*
G75*
G02*
X118561960Y-109506720I0J125000D01*
G01*
G37*
G04 #@! TD.AperFunction*
G04 #@! TA.AperFunction,SMDPad,CuDef*
G36*
G01*
X118561960Y-110156720D02*
X118561960Y-109906720D01*
G75*
G02*
X118686960Y-109781720I125000J0D01*
G01*
X120336960Y-109781720D01*
G75*
G02*
X120461960Y-109906720I0J-125000D01*
G01*
X120461960Y-110156720D01*
G75*
G02*
X120336960Y-110281720I-125000J0D01*
G01*
X118686960Y-110281720D01*
G75*
G02*
X118561960Y-110156720I0J125000D01*
G01*
G37*
G04 #@! TD.AperFunction*
G04 #@! TA.AperFunction,SMDPad,CuDef*
G36*
G01*
X111561960Y-110156720D02*
X111561960Y-109906720D01*
G75*
G02*
X111686960Y-109781720I125000J0D01*
G01*
X113336960Y-109781720D01*
G75*
G02*
X113461960Y-109906720I0J-125000D01*
G01*
X113461960Y-110156720D01*
G75*
G02*
X113336960Y-110281720I-125000J0D01*
G01*
X111686960Y-110281720D01*
G75*
G02*
X111561960Y-110156720I0J125000D01*
G01*
G37*
G04 #@! TD.AperFunction*
G04 #@! TA.AperFunction,SMDPad,CuDef*
G36*
G01*
X111561960Y-109506720D02*
X111561960Y-109256720D01*
G75*
G02*
X111686960Y-109131720I125000J0D01*
G01*
X113336960Y-109131720D01*
G75*
G02*
X113461960Y-109256720I0J-125000D01*
G01*
X113461960Y-109506720D01*
G75*
G02*
X113336960Y-109631720I-125000J0D01*
G01*
X111686960Y-109631720D01*
G75*
G02*
X111561960Y-109506720I0J125000D01*
G01*
G37*
G04 #@! TD.AperFunction*
G04 #@! TA.AperFunction,SMDPad,CuDef*
G36*
G01*
X111561960Y-108856720D02*
X111561960Y-108606720D01*
G75*
G02*
X111686960Y-108481720I125000J0D01*
G01*
X113336960Y-108481720D01*
G75*
G02*
X113461960Y-108606720I0J-125000D01*
G01*
X113461960Y-108856720D01*
G75*
G02*
X113336960Y-108981720I-125000J0D01*
G01*
X111686960Y-108981720D01*
G75*
G02*
X111561960Y-108856720I0J125000D01*
G01*
G37*
G04 #@! TD.AperFunction*
G04 #@! TA.AperFunction,SMDPad,CuDef*
G36*
G01*
X111561960Y-108206720D02*
X111561960Y-107956720D01*
G75*
G02*
X111686960Y-107831720I125000J0D01*
G01*
X113336960Y-107831720D01*
G75*
G02*
X113461960Y-107956720I0J-125000D01*
G01*
X113461960Y-108206720D01*
G75*
G02*
X113336960Y-108331720I-125000J0D01*
G01*
X111686960Y-108331720D01*
G75*
G02*
X111561960Y-108206720I0J125000D01*
G01*
G37*
G04 #@! TD.AperFunction*
G04 #@! TA.AperFunction,SMDPad,CuDef*
G36*
G01*
X111561960Y-107556720D02*
X111561960Y-107306720D01*
G75*
G02*
X111686960Y-107181720I125000J0D01*
G01*
X113336960Y-107181720D01*
G75*
G02*
X113461960Y-107306720I0J-125000D01*
G01*
X113461960Y-107556720D01*
G75*
G02*
X113336960Y-107681720I-125000J0D01*
G01*
X111686960Y-107681720D01*
G75*
G02*
X111561960Y-107556720I0J125000D01*
G01*
G37*
G04 #@! TD.AperFunction*
G04 #@! TA.AperFunction,SMDPad,CuDef*
G36*
G01*
X111561960Y-106906720D02*
X111561960Y-106656720D01*
G75*
G02*
X111686960Y-106531720I125000J0D01*
G01*
X113336960Y-106531720D01*
G75*
G02*
X113461960Y-106656720I0J-125000D01*
G01*
X113461960Y-106906720D01*
G75*
G02*
X113336960Y-107031720I-125000J0D01*
G01*
X111686960Y-107031720D01*
G75*
G02*
X111561960Y-106906720I0J125000D01*
G01*
G37*
G04 #@! TD.AperFunction*
G04 #@! TA.AperFunction,SMDPad,CuDef*
G36*
G01*
X111561960Y-106256720D02*
X111561960Y-106006720D01*
G75*
G02*
X111686960Y-105881720I125000J0D01*
G01*
X113336960Y-105881720D01*
G75*
G02*
X113461960Y-106006720I0J-125000D01*
G01*
X113461960Y-106256720D01*
G75*
G02*
X113336960Y-106381720I-125000J0D01*
G01*
X111686960Y-106381720D01*
G75*
G02*
X111561960Y-106256720I0J125000D01*
G01*
G37*
G04 #@! TD.AperFunction*
G04 #@! TA.AperFunction,SMDPad,CuDef*
G36*
G01*
X111561960Y-105606720D02*
X111561960Y-105356720D01*
G75*
G02*
X111686960Y-105231720I125000J0D01*
G01*
X113336960Y-105231720D01*
G75*
G02*
X113461960Y-105356720I0J-125000D01*
G01*
X113461960Y-105606720D01*
G75*
G02*
X113336960Y-105731720I-125000J0D01*
G01*
X111686960Y-105731720D01*
G75*
G02*
X111561960Y-105606720I0J125000D01*
G01*
G37*
G04 #@! TD.AperFunction*
G04 #@! TA.AperFunction,SMDPad,CuDef*
G36*
G01*
X111561960Y-104956720D02*
X111561960Y-104706720D01*
G75*
G02*
X111686960Y-104581720I125000J0D01*
G01*
X113336960Y-104581720D01*
G75*
G02*
X113461960Y-104706720I0J-125000D01*
G01*
X113461960Y-104956720D01*
G75*
G02*
X113336960Y-105081720I-125000J0D01*
G01*
X111686960Y-105081720D01*
G75*
G02*
X111561960Y-104956720I0J125000D01*
G01*
G37*
G04 #@! TD.AperFunction*
G04 #@! TA.AperFunction,SMDPad,CuDef*
G36*
G01*
X111561960Y-104306720D02*
X111561960Y-104056720D01*
G75*
G02*
X111686960Y-103931720I125000J0D01*
G01*
X113336960Y-103931720D01*
G75*
G02*
X113461960Y-104056720I0J-125000D01*
G01*
X113461960Y-104306720D01*
G75*
G02*
X113336960Y-104431720I-125000J0D01*
G01*
X111686960Y-104431720D01*
G75*
G02*
X111561960Y-104306720I0J125000D01*
G01*
G37*
G04 #@! TD.AperFunction*
D12*
X119614360Y-89929420D03*
X119614360Y-90579420D03*
X119614360Y-91229420D03*
X119614360Y-91879420D03*
X119614360Y-92529420D03*
X119614360Y-93179420D03*
X119614360Y-93829420D03*
X112714360Y-93829420D03*
X112714360Y-93179420D03*
X112714360Y-92529420D03*
X112714360Y-91879420D03*
X112714360Y-91229420D03*
X112714360Y-90579420D03*
X112714360Y-89929420D03*
G04 #@! TA.AperFunction,SMDPad,CuDef*
G36*
G01*
X100291740Y-118058280D02*
X100291740Y-117808280D01*
G75*
G02*
X100416740Y-117683280I125000J0D01*
G01*
X102066740Y-117683280D01*
G75*
G02*
X102191740Y-117808280I0J-125000D01*
G01*
X102191740Y-118058280D01*
G75*
G02*
X102066740Y-118183280I-125000J0D01*
G01*
X100416740Y-118183280D01*
G75*
G02*
X100291740Y-118058280I0J125000D01*
G01*
G37*
G04 #@! TD.AperFunction*
G04 #@! TA.AperFunction,SMDPad,CuDef*
G36*
G01*
X100291740Y-118708280D02*
X100291740Y-118458280D01*
G75*
G02*
X100416740Y-118333280I125000J0D01*
G01*
X102066740Y-118333280D01*
G75*
G02*
X102191740Y-118458280I0J-125000D01*
G01*
X102191740Y-118708280D01*
G75*
G02*
X102066740Y-118833280I-125000J0D01*
G01*
X100416740Y-118833280D01*
G75*
G02*
X100291740Y-118708280I0J125000D01*
G01*
G37*
G04 #@! TD.AperFunction*
G04 #@! TA.AperFunction,SMDPad,CuDef*
G36*
G01*
X100291740Y-119358280D02*
X100291740Y-119108280D01*
G75*
G02*
X100416740Y-118983280I125000J0D01*
G01*
X102066740Y-118983280D01*
G75*
G02*
X102191740Y-119108280I0J-125000D01*
G01*
X102191740Y-119358280D01*
G75*
G02*
X102066740Y-119483280I-125000J0D01*
G01*
X100416740Y-119483280D01*
G75*
G02*
X100291740Y-119358280I0J125000D01*
G01*
G37*
G04 #@! TD.AperFunction*
G04 #@! TA.AperFunction,SMDPad,CuDef*
G36*
G01*
X100291740Y-120008280D02*
X100291740Y-119758280D01*
G75*
G02*
X100416740Y-119633280I125000J0D01*
G01*
X102066740Y-119633280D01*
G75*
G02*
X102191740Y-119758280I0J-125000D01*
G01*
X102191740Y-120008280D01*
G75*
G02*
X102066740Y-120133280I-125000J0D01*
G01*
X100416740Y-120133280D01*
G75*
G02*
X100291740Y-120008280I0J125000D01*
G01*
G37*
G04 #@! TD.AperFunction*
G04 #@! TA.AperFunction,SMDPad,CuDef*
G36*
G01*
X100291740Y-120658280D02*
X100291740Y-120408280D01*
G75*
G02*
X100416740Y-120283280I125000J0D01*
G01*
X102066740Y-120283280D01*
G75*
G02*
X102191740Y-120408280I0J-125000D01*
G01*
X102191740Y-120658280D01*
G75*
G02*
X102066740Y-120783280I-125000J0D01*
G01*
X100416740Y-120783280D01*
G75*
G02*
X100291740Y-120658280I0J125000D01*
G01*
G37*
G04 #@! TD.AperFunction*
G04 #@! TA.AperFunction,SMDPad,CuDef*
G36*
G01*
X100291740Y-121308280D02*
X100291740Y-121058280D01*
G75*
G02*
X100416740Y-120933280I125000J0D01*
G01*
X102066740Y-120933280D01*
G75*
G02*
X102191740Y-121058280I0J-125000D01*
G01*
X102191740Y-121308280D01*
G75*
G02*
X102066740Y-121433280I-125000J0D01*
G01*
X100416740Y-121433280D01*
G75*
G02*
X100291740Y-121308280I0J125000D01*
G01*
G37*
G04 #@! TD.AperFunction*
G04 #@! TA.AperFunction,SMDPad,CuDef*
G36*
G01*
X100291740Y-121958280D02*
X100291740Y-121708280D01*
G75*
G02*
X100416740Y-121583280I125000J0D01*
G01*
X102066740Y-121583280D01*
G75*
G02*
X102191740Y-121708280I0J-125000D01*
G01*
X102191740Y-121958280D01*
G75*
G02*
X102066740Y-122083280I-125000J0D01*
G01*
X100416740Y-122083280D01*
G75*
G02*
X100291740Y-121958280I0J125000D01*
G01*
G37*
G04 #@! TD.AperFunction*
G04 #@! TA.AperFunction,SMDPad,CuDef*
G36*
G01*
X100291740Y-122608280D02*
X100291740Y-122358280D01*
G75*
G02*
X100416740Y-122233280I125000J0D01*
G01*
X102066740Y-122233280D01*
G75*
G02*
X102191740Y-122358280I0J-125000D01*
G01*
X102191740Y-122608280D01*
G75*
G02*
X102066740Y-122733280I-125000J0D01*
G01*
X100416740Y-122733280D01*
G75*
G02*
X100291740Y-122608280I0J125000D01*
G01*
G37*
G04 #@! TD.AperFunction*
G04 #@! TA.AperFunction,SMDPad,CuDef*
G36*
G01*
X100291740Y-123258280D02*
X100291740Y-123008280D01*
G75*
G02*
X100416740Y-122883280I125000J0D01*
G01*
X102066740Y-122883280D01*
G75*
G02*
X102191740Y-123008280I0J-125000D01*
G01*
X102191740Y-123258280D01*
G75*
G02*
X102066740Y-123383280I-125000J0D01*
G01*
X100416740Y-123383280D01*
G75*
G02*
X100291740Y-123258280I0J125000D01*
G01*
G37*
G04 #@! TD.AperFunction*
G04 #@! TA.AperFunction,SMDPad,CuDef*
G36*
G01*
X100291740Y-123908280D02*
X100291740Y-123658280D01*
G75*
G02*
X100416740Y-123533280I125000J0D01*
G01*
X102066740Y-123533280D01*
G75*
G02*
X102191740Y-123658280I0J-125000D01*
G01*
X102191740Y-123908280D01*
G75*
G02*
X102066740Y-124033280I-125000J0D01*
G01*
X100416740Y-124033280D01*
G75*
G02*
X100291740Y-123908280I0J125000D01*
G01*
G37*
G04 #@! TD.AperFunction*
G04 #@! TA.AperFunction,SMDPad,CuDef*
G36*
G01*
X93291740Y-123908280D02*
X93291740Y-123658280D01*
G75*
G02*
X93416740Y-123533280I125000J0D01*
G01*
X95066740Y-123533280D01*
G75*
G02*
X95191740Y-123658280I0J-125000D01*
G01*
X95191740Y-123908280D01*
G75*
G02*
X95066740Y-124033280I-125000J0D01*
G01*
X93416740Y-124033280D01*
G75*
G02*
X93291740Y-123908280I0J125000D01*
G01*
G37*
G04 #@! TD.AperFunction*
G04 #@! TA.AperFunction,SMDPad,CuDef*
G36*
G01*
X93291740Y-123258280D02*
X93291740Y-123008280D01*
G75*
G02*
X93416740Y-122883280I125000J0D01*
G01*
X95066740Y-122883280D01*
G75*
G02*
X95191740Y-123008280I0J-125000D01*
G01*
X95191740Y-123258280D01*
G75*
G02*
X95066740Y-123383280I-125000J0D01*
G01*
X93416740Y-123383280D01*
G75*
G02*
X93291740Y-123258280I0J125000D01*
G01*
G37*
G04 #@! TD.AperFunction*
G04 #@! TA.AperFunction,SMDPad,CuDef*
G36*
G01*
X93291740Y-122608280D02*
X93291740Y-122358280D01*
G75*
G02*
X93416740Y-122233280I125000J0D01*
G01*
X95066740Y-122233280D01*
G75*
G02*
X95191740Y-122358280I0J-125000D01*
G01*
X95191740Y-122608280D01*
G75*
G02*
X95066740Y-122733280I-125000J0D01*
G01*
X93416740Y-122733280D01*
G75*
G02*
X93291740Y-122608280I0J125000D01*
G01*
G37*
G04 #@! TD.AperFunction*
G04 #@! TA.AperFunction,SMDPad,CuDef*
G36*
G01*
X93291740Y-121958280D02*
X93291740Y-121708280D01*
G75*
G02*
X93416740Y-121583280I125000J0D01*
G01*
X95066740Y-121583280D01*
G75*
G02*
X95191740Y-121708280I0J-125000D01*
G01*
X95191740Y-121958280D01*
G75*
G02*
X95066740Y-122083280I-125000J0D01*
G01*
X93416740Y-122083280D01*
G75*
G02*
X93291740Y-121958280I0J125000D01*
G01*
G37*
G04 #@! TD.AperFunction*
G04 #@! TA.AperFunction,SMDPad,CuDef*
G36*
G01*
X93291740Y-121308280D02*
X93291740Y-121058280D01*
G75*
G02*
X93416740Y-120933280I125000J0D01*
G01*
X95066740Y-120933280D01*
G75*
G02*
X95191740Y-121058280I0J-125000D01*
G01*
X95191740Y-121308280D01*
G75*
G02*
X95066740Y-121433280I-125000J0D01*
G01*
X93416740Y-121433280D01*
G75*
G02*
X93291740Y-121308280I0J125000D01*
G01*
G37*
G04 #@! TD.AperFunction*
G04 #@! TA.AperFunction,SMDPad,CuDef*
G36*
G01*
X93291740Y-120658280D02*
X93291740Y-120408280D01*
G75*
G02*
X93416740Y-120283280I125000J0D01*
G01*
X95066740Y-120283280D01*
G75*
G02*
X95191740Y-120408280I0J-125000D01*
G01*
X95191740Y-120658280D01*
G75*
G02*
X95066740Y-120783280I-125000J0D01*
G01*
X93416740Y-120783280D01*
G75*
G02*
X93291740Y-120658280I0J125000D01*
G01*
G37*
G04 #@! TD.AperFunction*
G04 #@! TA.AperFunction,SMDPad,CuDef*
G36*
G01*
X93291740Y-120008280D02*
X93291740Y-119758280D01*
G75*
G02*
X93416740Y-119633280I125000J0D01*
G01*
X95066740Y-119633280D01*
G75*
G02*
X95191740Y-119758280I0J-125000D01*
G01*
X95191740Y-120008280D01*
G75*
G02*
X95066740Y-120133280I-125000J0D01*
G01*
X93416740Y-120133280D01*
G75*
G02*
X93291740Y-120008280I0J125000D01*
G01*
G37*
G04 #@! TD.AperFunction*
G04 #@! TA.AperFunction,SMDPad,CuDef*
G36*
G01*
X93291740Y-119358280D02*
X93291740Y-119108280D01*
G75*
G02*
X93416740Y-118983280I125000J0D01*
G01*
X95066740Y-118983280D01*
G75*
G02*
X95191740Y-119108280I0J-125000D01*
G01*
X95191740Y-119358280D01*
G75*
G02*
X95066740Y-119483280I-125000J0D01*
G01*
X93416740Y-119483280D01*
G75*
G02*
X93291740Y-119358280I0J125000D01*
G01*
G37*
G04 #@! TD.AperFunction*
G04 #@! TA.AperFunction,SMDPad,CuDef*
G36*
G01*
X93291740Y-118708280D02*
X93291740Y-118458280D01*
G75*
G02*
X93416740Y-118333280I125000J0D01*
G01*
X95066740Y-118333280D01*
G75*
G02*
X95191740Y-118458280I0J-125000D01*
G01*
X95191740Y-118708280D01*
G75*
G02*
X95066740Y-118833280I-125000J0D01*
G01*
X93416740Y-118833280D01*
G75*
G02*
X93291740Y-118708280I0J125000D01*
G01*
G37*
G04 #@! TD.AperFunction*
G04 #@! TA.AperFunction,SMDPad,CuDef*
G36*
G01*
X93291740Y-118058280D02*
X93291740Y-117808280D01*
G75*
G02*
X93416740Y-117683280I125000J0D01*
G01*
X95066740Y-117683280D01*
G75*
G02*
X95191740Y-117808280I0J-125000D01*
G01*
X95191740Y-118058280D01*
G75*
G02*
X95066740Y-118183280I-125000J0D01*
G01*
X93416740Y-118183280D01*
G75*
G02*
X93291740Y-118058280I0J125000D01*
G01*
G37*
G04 #@! TD.AperFunction*
G04 #@! TA.AperFunction,SMDPad,CuDef*
G36*
G01*
X99885340Y-104202580D02*
X99885340Y-103952580D01*
G75*
G02*
X100010340Y-103827580I125000J0D01*
G01*
X101660340Y-103827580D01*
G75*
G02*
X101785340Y-103952580I0J-125000D01*
G01*
X101785340Y-104202580D01*
G75*
G02*
X101660340Y-104327580I-125000J0D01*
G01*
X100010340Y-104327580D01*
G75*
G02*
X99885340Y-104202580I0J125000D01*
G01*
G37*
G04 #@! TD.AperFunction*
G04 #@! TA.AperFunction,SMDPad,CuDef*
G36*
G01*
X99885340Y-104852580D02*
X99885340Y-104602580D01*
G75*
G02*
X100010340Y-104477580I125000J0D01*
G01*
X101660340Y-104477580D01*
G75*
G02*
X101785340Y-104602580I0J-125000D01*
G01*
X101785340Y-104852580D01*
G75*
G02*
X101660340Y-104977580I-125000J0D01*
G01*
X100010340Y-104977580D01*
G75*
G02*
X99885340Y-104852580I0J125000D01*
G01*
G37*
G04 #@! TD.AperFunction*
G04 #@! TA.AperFunction,SMDPad,CuDef*
G36*
G01*
X99885340Y-105502580D02*
X99885340Y-105252580D01*
G75*
G02*
X100010340Y-105127580I125000J0D01*
G01*
X101660340Y-105127580D01*
G75*
G02*
X101785340Y-105252580I0J-125000D01*
G01*
X101785340Y-105502580D01*
G75*
G02*
X101660340Y-105627580I-125000J0D01*
G01*
X100010340Y-105627580D01*
G75*
G02*
X99885340Y-105502580I0J125000D01*
G01*
G37*
G04 #@! TD.AperFunction*
G04 #@! TA.AperFunction,SMDPad,CuDef*
G36*
G01*
X99885340Y-106152580D02*
X99885340Y-105902580D01*
G75*
G02*
X100010340Y-105777580I125000J0D01*
G01*
X101660340Y-105777580D01*
G75*
G02*
X101785340Y-105902580I0J-125000D01*
G01*
X101785340Y-106152580D01*
G75*
G02*
X101660340Y-106277580I-125000J0D01*
G01*
X100010340Y-106277580D01*
G75*
G02*
X99885340Y-106152580I0J125000D01*
G01*
G37*
G04 #@! TD.AperFunction*
G04 #@! TA.AperFunction,SMDPad,CuDef*
G36*
G01*
X99885340Y-106802580D02*
X99885340Y-106552580D01*
G75*
G02*
X100010340Y-106427580I125000J0D01*
G01*
X101660340Y-106427580D01*
G75*
G02*
X101785340Y-106552580I0J-125000D01*
G01*
X101785340Y-106802580D01*
G75*
G02*
X101660340Y-106927580I-125000J0D01*
G01*
X100010340Y-106927580D01*
G75*
G02*
X99885340Y-106802580I0J125000D01*
G01*
G37*
G04 #@! TD.AperFunction*
G04 #@! TA.AperFunction,SMDPad,CuDef*
G36*
G01*
X99885340Y-107452580D02*
X99885340Y-107202580D01*
G75*
G02*
X100010340Y-107077580I125000J0D01*
G01*
X101660340Y-107077580D01*
G75*
G02*
X101785340Y-107202580I0J-125000D01*
G01*
X101785340Y-107452580D01*
G75*
G02*
X101660340Y-107577580I-125000J0D01*
G01*
X100010340Y-107577580D01*
G75*
G02*
X99885340Y-107452580I0J125000D01*
G01*
G37*
G04 #@! TD.AperFunction*
G04 #@! TA.AperFunction,SMDPad,CuDef*
G36*
G01*
X99885340Y-108102580D02*
X99885340Y-107852580D01*
G75*
G02*
X100010340Y-107727580I125000J0D01*
G01*
X101660340Y-107727580D01*
G75*
G02*
X101785340Y-107852580I0J-125000D01*
G01*
X101785340Y-108102580D01*
G75*
G02*
X101660340Y-108227580I-125000J0D01*
G01*
X100010340Y-108227580D01*
G75*
G02*
X99885340Y-108102580I0J125000D01*
G01*
G37*
G04 #@! TD.AperFunction*
G04 #@! TA.AperFunction,SMDPad,CuDef*
G36*
G01*
X99885340Y-108752580D02*
X99885340Y-108502580D01*
G75*
G02*
X100010340Y-108377580I125000J0D01*
G01*
X101660340Y-108377580D01*
G75*
G02*
X101785340Y-108502580I0J-125000D01*
G01*
X101785340Y-108752580D01*
G75*
G02*
X101660340Y-108877580I-125000J0D01*
G01*
X100010340Y-108877580D01*
G75*
G02*
X99885340Y-108752580I0J125000D01*
G01*
G37*
G04 #@! TD.AperFunction*
G04 #@! TA.AperFunction,SMDPad,CuDef*
G36*
G01*
X99885340Y-109402580D02*
X99885340Y-109152580D01*
G75*
G02*
X100010340Y-109027580I125000J0D01*
G01*
X101660340Y-109027580D01*
G75*
G02*
X101785340Y-109152580I0J-125000D01*
G01*
X101785340Y-109402580D01*
G75*
G02*
X101660340Y-109527580I-125000J0D01*
G01*
X100010340Y-109527580D01*
G75*
G02*
X99885340Y-109402580I0J125000D01*
G01*
G37*
G04 #@! TD.AperFunction*
G04 #@! TA.AperFunction,SMDPad,CuDef*
G36*
G01*
X99885340Y-110052580D02*
X99885340Y-109802580D01*
G75*
G02*
X100010340Y-109677580I125000J0D01*
G01*
X101660340Y-109677580D01*
G75*
G02*
X101785340Y-109802580I0J-125000D01*
G01*
X101785340Y-110052580D01*
G75*
G02*
X101660340Y-110177580I-125000J0D01*
G01*
X100010340Y-110177580D01*
G75*
G02*
X99885340Y-110052580I0J125000D01*
G01*
G37*
G04 #@! TD.AperFunction*
G04 #@! TA.AperFunction,SMDPad,CuDef*
G36*
G01*
X92885340Y-110052580D02*
X92885340Y-109802580D01*
G75*
G02*
X93010340Y-109677580I125000J0D01*
G01*
X94660340Y-109677580D01*
G75*
G02*
X94785340Y-109802580I0J-125000D01*
G01*
X94785340Y-110052580D01*
G75*
G02*
X94660340Y-110177580I-125000J0D01*
G01*
X93010340Y-110177580D01*
G75*
G02*
X92885340Y-110052580I0J125000D01*
G01*
G37*
G04 #@! TD.AperFunction*
G04 #@! TA.AperFunction,SMDPad,CuDef*
G36*
G01*
X92885340Y-109402580D02*
X92885340Y-109152580D01*
G75*
G02*
X93010340Y-109027580I125000J0D01*
G01*
X94660340Y-109027580D01*
G75*
G02*
X94785340Y-109152580I0J-125000D01*
G01*
X94785340Y-109402580D01*
G75*
G02*
X94660340Y-109527580I-125000J0D01*
G01*
X93010340Y-109527580D01*
G75*
G02*
X92885340Y-109402580I0J125000D01*
G01*
G37*
G04 #@! TD.AperFunction*
G04 #@! TA.AperFunction,SMDPad,CuDef*
G36*
G01*
X92885340Y-108752580D02*
X92885340Y-108502580D01*
G75*
G02*
X93010340Y-108377580I125000J0D01*
G01*
X94660340Y-108377580D01*
G75*
G02*
X94785340Y-108502580I0J-125000D01*
G01*
X94785340Y-108752580D01*
G75*
G02*
X94660340Y-108877580I-125000J0D01*
G01*
X93010340Y-108877580D01*
G75*
G02*
X92885340Y-108752580I0J125000D01*
G01*
G37*
G04 #@! TD.AperFunction*
G04 #@! TA.AperFunction,SMDPad,CuDef*
G36*
G01*
X92885340Y-108102580D02*
X92885340Y-107852580D01*
G75*
G02*
X93010340Y-107727580I125000J0D01*
G01*
X94660340Y-107727580D01*
G75*
G02*
X94785340Y-107852580I0J-125000D01*
G01*
X94785340Y-108102580D01*
G75*
G02*
X94660340Y-108227580I-125000J0D01*
G01*
X93010340Y-108227580D01*
G75*
G02*
X92885340Y-108102580I0J125000D01*
G01*
G37*
G04 #@! TD.AperFunction*
G04 #@! TA.AperFunction,SMDPad,CuDef*
G36*
G01*
X92885340Y-107452580D02*
X92885340Y-107202580D01*
G75*
G02*
X93010340Y-107077580I125000J0D01*
G01*
X94660340Y-107077580D01*
G75*
G02*
X94785340Y-107202580I0J-125000D01*
G01*
X94785340Y-107452580D01*
G75*
G02*
X94660340Y-107577580I-125000J0D01*
G01*
X93010340Y-107577580D01*
G75*
G02*
X92885340Y-107452580I0J125000D01*
G01*
G37*
G04 #@! TD.AperFunction*
G04 #@! TA.AperFunction,SMDPad,CuDef*
G36*
G01*
X92885340Y-106802580D02*
X92885340Y-106552580D01*
G75*
G02*
X93010340Y-106427580I125000J0D01*
G01*
X94660340Y-106427580D01*
G75*
G02*
X94785340Y-106552580I0J-125000D01*
G01*
X94785340Y-106802580D01*
G75*
G02*
X94660340Y-106927580I-125000J0D01*
G01*
X93010340Y-106927580D01*
G75*
G02*
X92885340Y-106802580I0J125000D01*
G01*
G37*
G04 #@! TD.AperFunction*
G04 #@! TA.AperFunction,SMDPad,CuDef*
G36*
G01*
X92885340Y-106152580D02*
X92885340Y-105902580D01*
G75*
G02*
X93010340Y-105777580I125000J0D01*
G01*
X94660340Y-105777580D01*
G75*
G02*
X94785340Y-105902580I0J-125000D01*
G01*
X94785340Y-106152580D01*
G75*
G02*
X94660340Y-106277580I-125000J0D01*
G01*
X93010340Y-106277580D01*
G75*
G02*
X92885340Y-106152580I0J125000D01*
G01*
G37*
G04 #@! TD.AperFunction*
G04 #@! TA.AperFunction,SMDPad,CuDef*
G36*
G01*
X92885340Y-105502580D02*
X92885340Y-105252580D01*
G75*
G02*
X93010340Y-105127580I125000J0D01*
G01*
X94660340Y-105127580D01*
G75*
G02*
X94785340Y-105252580I0J-125000D01*
G01*
X94785340Y-105502580D01*
G75*
G02*
X94660340Y-105627580I-125000J0D01*
G01*
X93010340Y-105627580D01*
G75*
G02*
X92885340Y-105502580I0J125000D01*
G01*
G37*
G04 #@! TD.AperFunction*
G04 #@! TA.AperFunction,SMDPad,CuDef*
G36*
G01*
X92885340Y-104852580D02*
X92885340Y-104602580D01*
G75*
G02*
X93010340Y-104477580I125000J0D01*
G01*
X94660340Y-104477580D01*
G75*
G02*
X94785340Y-104602580I0J-125000D01*
G01*
X94785340Y-104852580D01*
G75*
G02*
X94660340Y-104977580I-125000J0D01*
G01*
X93010340Y-104977580D01*
G75*
G02*
X92885340Y-104852580I0J125000D01*
G01*
G37*
G04 #@! TD.AperFunction*
G04 #@! TA.AperFunction,SMDPad,CuDef*
G36*
G01*
X92885340Y-104202580D02*
X92885340Y-103952580D01*
G75*
G02*
X93010340Y-103827580I125000J0D01*
G01*
X94660340Y-103827580D01*
G75*
G02*
X94785340Y-103952580I0J-125000D01*
G01*
X94785340Y-104202580D01*
G75*
G02*
X94660340Y-104327580I-125000J0D01*
G01*
X93010340Y-104327580D01*
G75*
G02*
X92885340Y-104202580I0J125000D01*
G01*
G37*
G04 #@! TD.AperFunction*
D13*
X123873260Y-84226400D03*
X108633260Y-132486400D03*
X123873260Y-86766400D03*
X108633260Y-129946400D03*
X123873260Y-89306400D03*
X108633260Y-127406400D03*
X123873260Y-91846400D03*
X108633260Y-124866400D03*
X123873260Y-94386400D03*
X108633260Y-122326400D03*
X123873260Y-96926400D03*
X108633260Y-119786400D03*
X123873260Y-99466400D03*
X108633260Y-117246400D03*
X123873260Y-102006400D03*
X108633260Y-114706400D03*
X123873260Y-104546400D03*
X108633260Y-112166400D03*
X123873260Y-107086400D03*
X108633260Y-109626400D03*
X123873260Y-109626400D03*
X108633260Y-107086400D03*
X123873260Y-112166400D03*
X108633260Y-104546400D03*
X123873260Y-114706400D03*
X108633260Y-102006400D03*
X123873260Y-117246400D03*
X108633260Y-99466400D03*
X123873260Y-119786400D03*
X108633260Y-96926400D03*
X123873260Y-122326400D03*
X108633260Y-94386400D03*
X123873260Y-124866400D03*
X108633260Y-91846400D03*
X123873260Y-127406400D03*
X108633260Y-89306400D03*
X123873260Y-129946400D03*
X108633260Y-86766400D03*
X123873260Y-132486400D03*
D11*
X108633260Y-84226400D03*
D14*
X93776800Y-110850680D03*
X94206060Y-124510800D03*
X121340880Y-129120900D03*
X112682020Y-94510860D03*
X112395000Y-111115140D03*
X99458320Y-123536536D03*
X99030574Y-118039163D03*
X121185940Y-104467660D03*
X98953320Y-104084120D03*
X99118420Y-109893100D03*
X94373415Y-116907004D03*
X119608600Y-89369900D03*
X112861049Y-122387399D03*
X110996055Y-129179915D03*
X101257100Y-124914660D03*
X101300938Y-117150571D03*
X120103900Y-103344980D03*
X120947180Y-90589100D03*
X122163840Y-90528140D03*
X119359680Y-110871000D03*
X118862321Y-112872108D03*
X110794802Y-112227360D03*
X114269520Y-93215460D03*
X113976064Y-92120554D03*
X121737120Y-92024200D03*
X112400080Y-101747320D03*
X114165380Y-111147860D03*
X114003415Y-108203405D03*
X115039140Y-108437680D03*
X115120420Y-111218980D03*
X117617240Y-106718100D03*
X116946680Y-113802160D03*
X102956360Y-117835680D03*
X110944660Y-125211840D03*
X103088440Y-118803420D03*
X114429540Y-124566680D03*
X103045262Y-119715280D03*
X114551460Y-123276360D03*
X102967002Y-120549790D03*
X103272143Y-121413051D03*
X102941119Y-122222260D03*
X103075740Y-123294140D03*
X102981760Y-124340620D03*
X114363500Y-128587500D03*
X115082988Y-127851570D03*
X99213166Y-100345049D03*
X97502980Y-100345049D03*
X100020120Y-99032060D03*
X97401380Y-98902520D03*
X96888300Y-97312480D03*
X113982500Y-102859840D03*
X116662200Y-100159820D03*
X116743480Y-95633540D03*
X114287300Y-90510360D03*
X121592340Y-102029260D03*
X116258340Y-102339140D03*
X117584521Y-101765100D03*
X110789720Y-103929180D03*
X91996260Y-104094280D03*
X125778260Y-127774700D03*
X125544788Y-126779976D03*
X125549660Y-125630940D03*
X124345410Y-123703080D03*
X116791740Y-92273120D03*
X110523020Y-98231960D03*
X110230920Y-110871000D03*
X121495820Y-108013500D03*
X120901460Y-119062500D03*
X110414399Y-105105951D03*
X96464410Y-117940757D03*
X112273080Y-98145600D03*
X112174020Y-99067620D03*
X93139260Y-102532180D03*
D15*
X93835340Y-110792140D02*
X93776800Y-110850680D01*
X93835340Y-109927580D02*
X93835340Y-110792140D01*
X94241740Y-124475120D02*
X94206060Y-124510800D01*
X94241740Y-123783280D02*
X94241740Y-124475120D01*
X112714360Y-94478520D02*
X112682020Y-94510860D01*
X112714360Y-93829420D02*
X112714360Y-94478520D01*
X112511960Y-110998180D02*
X112395000Y-111115140D01*
X112511960Y-110031720D02*
X112511960Y-110998180D01*
X120821880Y-104831720D02*
X121185940Y-104467660D01*
X119511960Y-104831720D02*
X120821880Y-104831720D01*
X98959860Y-104077580D02*
X98953320Y-104084120D01*
X100835340Y-104077580D02*
X98959860Y-104077580D01*
X99152900Y-109927580D02*
X99118420Y-109893100D01*
X100835340Y-109927580D02*
X99152900Y-109927580D01*
X119614360Y-89375660D02*
X119608600Y-89369900D01*
X119614360Y-89929420D02*
X119614360Y-89375660D01*
X101241740Y-124899300D02*
X101257100Y-124914660D01*
X101241740Y-123783280D02*
X101241740Y-124899300D01*
X101241740Y-117933280D02*
X101241740Y-117209769D01*
X101241740Y-117209769D02*
X101300938Y-117150571D01*
X119511960Y-104181720D02*
X120103900Y-103589780D01*
X120103900Y-103589780D02*
X120103900Y-103344980D01*
X118836560Y-90579420D02*
X117297200Y-89040060D01*
X119614360Y-90579420D02*
X118836560Y-90579420D01*
X117297200Y-89040060D02*
X115969140Y-89040060D01*
X111155480Y-84226400D02*
X108633260Y-84226400D01*
X115969140Y-89040060D02*
X111155480Y-84226400D01*
X120937500Y-90579420D02*
X120947180Y-90589100D01*
X119614360Y-90579420D02*
X120937500Y-90579420D01*
X122463839Y-90828139D02*
X122463839Y-108861581D01*
X121293700Y-110031720D02*
X119511960Y-110031720D01*
X122163840Y-90528140D02*
X122463839Y-90828139D01*
X122463839Y-108861581D02*
X121293700Y-110031720D01*
X119359680Y-110184000D02*
X119511960Y-110031720D01*
X119359680Y-110871000D02*
X119359680Y-110184000D01*
X118862321Y-112872108D02*
X111439550Y-112872108D01*
X111439550Y-112872108D02*
X110794802Y-112227360D01*
X123873260Y-84226400D02*
X121513882Y-86585778D01*
X121513882Y-86585778D02*
X121513882Y-90861118D01*
X121513882Y-90861118D02*
X120495580Y-91879420D01*
X120495580Y-91879420D02*
X119614360Y-91879420D01*
X114305560Y-93179420D02*
X114269520Y-93215460D01*
X119614360Y-93179420D02*
X114305560Y-93179420D01*
X112714360Y-92529420D02*
X113567198Y-92529420D01*
X113567198Y-92529420D02*
X113976064Y-92120554D01*
X116347480Y-91229420D02*
X111884460Y-86766400D01*
X112714360Y-91229420D02*
X116347480Y-91229420D01*
X111884460Y-86766400D02*
X108633260Y-86766400D01*
X111936560Y-89929420D02*
X110464600Y-91401380D01*
X112714360Y-89929420D02*
X111936560Y-89929420D01*
X110464600Y-92555060D02*
X108633260Y-94386400D01*
X110464600Y-91401380D02*
X110464600Y-92555060D01*
X119511960Y-105481720D02*
X118561960Y-105481720D01*
X118561960Y-105481720D02*
X117017811Y-103937571D01*
X117017811Y-103937571D02*
X117017811Y-101477549D01*
X121737120Y-96758240D02*
X121737120Y-92024200D01*
X117017811Y-101477549D02*
X121737120Y-96758240D01*
X111975816Y-101747320D02*
X112400080Y-101747320D01*
X109783599Y-103939537D02*
X111975816Y-101747320D01*
X109783599Y-108114819D02*
X109783599Y-103939537D01*
X111050500Y-109381720D02*
X109783599Y-108114819D01*
X112511960Y-109381720D02*
X111050500Y-109381720D01*
X115183920Y-112166400D02*
X123873260Y-112166400D01*
X114165380Y-111147860D02*
X115183920Y-112166400D01*
X112511960Y-108081720D02*
X113881730Y-108081720D01*
X113881730Y-108081720D02*
X114003415Y-108203405D01*
X123873260Y-113669934D02*
X123873260Y-114706400D01*
X124889161Y-112654033D02*
X123873260Y-113669934D01*
X120150417Y-110918981D02*
X124129375Y-110918981D01*
X124889161Y-111678767D02*
X124889161Y-112654033D01*
X119550419Y-111518979D02*
X120150417Y-110918981D01*
X124129375Y-110918981D02*
X124889161Y-111678767D01*
X115420419Y-111518979D02*
X119550419Y-111518979D01*
X115120420Y-111218980D02*
X115420419Y-111518979D01*
X115039140Y-107607100D02*
X115039140Y-108437680D01*
X114213760Y-106781720D02*
X115039140Y-107607100D01*
X112511960Y-106781720D02*
X114213760Y-106781720D01*
X116380860Y-105481720D02*
X117617240Y-106718100D01*
X112511960Y-105481720D02*
X116380860Y-105481720D01*
X120429020Y-113802160D02*
X123873260Y-117246400D01*
X116946680Y-113802160D02*
X120429020Y-113802160D01*
X102396720Y-118583280D02*
X102956360Y-118023640D01*
X102956360Y-118023640D02*
X102956360Y-117835680D01*
X101241740Y-118583280D02*
X102396720Y-118583280D01*
X110599220Y-124866400D02*
X108633260Y-124866400D01*
X110944660Y-125211840D02*
X110599220Y-124866400D01*
X102658580Y-119233280D02*
X103088440Y-118803420D01*
X101241740Y-119233280D02*
X102658580Y-119233280D01*
X114429540Y-124566680D02*
X110873540Y-124566680D01*
X110873540Y-124566680D02*
X108633260Y-122326400D01*
X102877262Y-119883280D02*
X103045262Y-119715280D01*
X101241740Y-119883280D02*
X102877262Y-119883280D01*
X114551460Y-123276360D02*
X111061500Y-119786400D01*
X111061500Y-119786400D02*
X108633260Y-119786400D01*
X101241740Y-120533280D02*
X102950492Y-120533280D01*
X102950492Y-120533280D02*
X102967002Y-120549790D01*
X104479092Y-111071759D02*
X105599437Y-111071759D01*
X102684913Y-109277580D02*
X104479092Y-111071759D01*
X105599437Y-111071759D02*
X106779060Y-112251382D01*
X100835340Y-109277580D02*
X102684913Y-109277580D01*
X106779060Y-115392200D02*
X108633260Y-117246400D01*
X106779060Y-112251382D02*
X106779060Y-115392200D01*
X103042372Y-121183280D02*
X103272143Y-121413051D01*
X101241740Y-121183280D02*
X103042372Y-121183280D01*
X100835340Y-108627580D02*
X102537821Y-108627580D01*
X107134671Y-112104084D02*
X107134671Y-113207811D01*
X107134671Y-113207811D02*
X108633260Y-114706400D01*
X102537821Y-108627580D02*
X104626389Y-110716148D01*
X104626389Y-110716148D02*
X105746735Y-110716148D01*
X105746735Y-110716148D02*
X107134671Y-112104084D01*
X102552139Y-121833280D02*
X102941119Y-122222260D01*
X101241740Y-121833280D02*
X102552139Y-121833280D01*
X108633260Y-111565582D02*
X108633260Y-112166400D01*
X105599437Y-108531759D02*
X108633260Y-111565582D01*
X103924914Y-107977580D02*
X104479093Y-108531759D01*
X100835340Y-107977580D02*
X103924914Y-107977580D01*
X104479093Y-108531759D02*
X105599437Y-108531759D01*
X102264880Y-122483280D02*
X103075740Y-123294140D01*
X101241740Y-122483280D02*
X102264880Y-122483280D01*
X107183008Y-108176148D02*
X108633260Y-109626400D01*
X100835340Y-107327580D02*
X103777822Y-107327580D01*
X103777822Y-107327580D02*
X104626390Y-108176148D01*
X104626390Y-108176148D02*
X107183008Y-108176148D01*
X101241740Y-123133280D02*
X102191740Y-123133280D01*
X102559839Y-123918699D02*
X102981760Y-124340620D01*
X102191740Y-123133280D02*
X102559839Y-123501379D01*
X102559839Y-123501379D02*
X102559839Y-123918699D01*
X107538619Y-105991759D02*
X108633260Y-107086400D01*
X103889582Y-106677580D02*
X104575403Y-105991759D01*
X100835340Y-106677580D02*
X103889582Y-106677580D01*
X104575403Y-105991759D02*
X107538619Y-105991759D01*
X100835340Y-106027580D02*
X104036673Y-106027580D01*
X104036673Y-106027580D02*
X104428105Y-105636148D01*
X104428105Y-105636148D02*
X107543512Y-105636148D01*
X107543512Y-105636148D02*
X108633260Y-104546400D01*
X107187901Y-103451759D02*
X108633260Y-102006400D01*
X104575403Y-103451759D02*
X107187901Y-103451759D01*
X102649582Y-105377580D02*
X104575403Y-103451759D01*
X100835340Y-105377580D02*
X102649582Y-105377580D01*
X108633260Y-100011338D02*
X108633260Y-99466400D01*
X105599437Y-103045161D02*
X108633260Y-100011338D01*
X103863239Y-103045161D02*
X105599437Y-103045161D01*
X102180820Y-104727580D02*
X103863239Y-103045161D01*
X100835340Y-104727580D02*
X102180820Y-104727580D01*
X123873260Y-127406400D02*
X123073261Y-126606401D01*
X114363500Y-127769608D02*
X114363500Y-128587500D01*
X115526707Y-126606401D02*
X114363500Y-127769608D01*
X123073261Y-126606401D02*
X115526707Y-126606401D01*
X117177818Y-129946400D02*
X115082988Y-127851570D01*
X123873260Y-129946400D02*
X117177818Y-129946400D01*
X96151700Y-82974180D02*
X89847420Y-89278460D01*
X124990860Y-82986880D02*
X125008640Y-82969100D01*
X124973080Y-82969100D02*
X95692178Y-82969100D01*
X124990860Y-82986880D02*
X124973080Y-82969100D01*
X125193972Y-83189992D02*
X124990860Y-82986880D01*
X93835340Y-109277580D02*
X92003040Y-109277580D01*
X92003040Y-109277580D02*
X91206232Y-108480772D01*
X88979792Y-108480772D02*
X88600280Y-108860284D01*
X88600280Y-108860284D02*
X88600280Y-133751320D01*
X117393720Y-134360920D02*
X117444520Y-134411720D01*
X91206232Y-108480772D02*
X88979792Y-108480772D01*
X115233768Y-133751320D02*
X115843368Y-134360920D01*
X124990860Y-112983400D02*
X125193972Y-112780289D01*
X115843368Y-134360920D02*
X117393720Y-134360920D01*
X117444520Y-134411720D02*
X124990860Y-134411720D01*
X88600280Y-133751320D02*
X115233768Y-133751320D01*
X124990860Y-134411720D02*
X124990860Y-112983400D01*
X125193972Y-112780289D02*
X125193972Y-83189992D01*
X98386619Y-95979261D02*
X98386619Y-107459499D01*
X105087420Y-89278460D02*
X98386619Y-95979261D01*
X97218538Y-108627580D02*
X93835340Y-108627580D01*
X98386619Y-107459499D02*
X97218538Y-108627580D01*
X88069497Y-93596383D02*
X89847420Y-91818460D01*
X88069497Y-107182997D02*
X88069497Y-93596383D01*
X89011661Y-108125161D02*
X88069497Y-107182997D01*
X90868599Y-108125161D02*
X89011661Y-108125161D01*
X91043760Y-107950000D02*
X90868599Y-108125161D01*
X93807760Y-107950000D02*
X91043760Y-107950000D01*
X93835340Y-107977580D02*
X93807760Y-107950000D01*
X99213166Y-97692714D02*
X99213166Y-100345049D01*
X105087420Y-91818460D02*
X99213166Y-97692714D01*
X97502980Y-106890820D02*
X97502980Y-100345049D01*
X93835340Y-107327580D02*
X97066220Y-107327580D01*
X97066220Y-107327580D02*
X97502980Y-106890820D01*
X90506735Y-105940772D02*
X89188105Y-105940772D01*
X89188105Y-105940772D02*
X88425108Y-105177775D01*
X88425108Y-105177775D02*
X88425108Y-95780772D01*
X91243543Y-106677580D02*
X90506735Y-105940772D01*
X93835340Y-106677580D02*
X91243543Y-106677580D01*
X88425108Y-95780772D02*
X89847420Y-94358460D01*
X100413820Y-99032060D02*
X100020120Y-99032060D01*
X105087420Y-94358460D02*
X100413820Y-99032060D01*
X97401380Y-98902520D02*
X96629220Y-99674680D01*
X96629220Y-104183700D02*
X96657160Y-104211640D01*
X96629220Y-99674680D02*
X96629220Y-104183700D01*
X94841220Y-106027580D02*
X93835340Y-106027580D01*
X96657160Y-104211640D02*
X94841220Y-106027580D01*
X93835340Y-105377580D02*
X92885340Y-105377580D01*
X88780719Y-97965161D02*
X89847420Y-96898460D01*
X90567018Y-105377580D02*
X90359437Y-105585161D01*
X90359437Y-105585161D02*
X89335403Y-105585161D01*
X88780719Y-105030477D02*
X88780719Y-97965161D01*
X93835340Y-105377580D02*
X90567018Y-105377580D01*
X89335403Y-105585161D02*
X88780719Y-105030477D01*
X94785340Y-104727580D02*
X93835340Y-104727580D01*
X95504000Y-98696780D02*
X95504000Y-104008920D01*
X95504000Y-104008920D02*
X94785340Y-104727580D01*
X96888300Y-97312480D02*
X95504000Y-98696780D01*
X113833840Y-102859840D02*
X113982500Y-102859840D01*
X112511960Y-104181720D02*
X113833840Y-102859840D01*
X116662200Y-95714820D02*
X116743480Y-95633540D01*
X116662200Y-100159820D02*
X116662200Y-95714820D01*
X114218240Y-90579420D02*
X114287300Y-90510360D01*
X112714360Y-90579420D02*
X114218240Y-90579420D01*
X116662200Y-101935280D02*
X116662200Y-100159820D01*
X117848681Y-102029260D02*
X117584521Y-101765100D01*
X116258340Y-102339140D02*
X116662200Y-101935280D01*
X121592340Y-102029260D02*
X117848681Y-102029260D01*
X111042260Y-104181720D02*
X110789720Y-103929180D01*
X112511960Y-104181720D02*
X111042260Y-104181720D01*
X93818640Y-104094280D02*
X93835340Y-104077580D01*
X91996260Y-104094280D02*
X93818640Y-104094280D01*
X117835440Y-91229420D02*
X116791740Y-92273120D01*
X119614360Y-91229420D02*
X117835440Y-91229420D01*
X118422780Y-106131720D02*
X110523020Y-98231960D01*
X119511960Y-106131720D02*
X118422780Y-106131720D01*
X111041761Y-111681841D02*
X110230920Y-110871000D01*
X119511960Y-107431720D02*
X116917138Y-107431720D01*
X116917138Y-107431720D02*
X112667017Y-111681841D01*
X112667017Y-111681841D02*
X111041761Y-111681841D01*
X119511960Y-108731720D02*
X120777600Y-108731720D01*
X120777600Y-108731720D02*
X121495820Y-108013500D01*
X120890030Y-120087390D02*
X120901460Y-120098820D01*
X109585661Y-131391759D02*
X120890030Y-120087390D01*
X90914121Y-131391759D02*
X109585661Y-131391759D01*
X89847420Y-132458460D02*
X90914121Y-131391759D01*
X120901460Y-120098820D02*
X120901460Y-119062500D01*
X112511960Y-104831720D02*
X110688630Y-104831720D01*
X110688630Y-104831720D02*
X110414399Y-105105951D01*
X105087420Y-129918460D02*
X101880882Y-129918460D01*
X95095702Y-123133280D02*
X94241740Y-123133280D01*
X101880882Y-129918460D02*
X95095702Y-123133280D01*
X105087420Y-127378460D02*
X100667820Y-127378460D01*
X95772640Y-122483280D02*
X94241740Y-122483280D01*
X100667820Y-127378460D02*
X95772640Y-122483280D01*
X99713073Y-125910633D02*
X95635720Y-121833280D01*
X104015247Y-125910633D02*
X99713073Y-125910633D01*
X105087420Y-124838460D02*
X104015247Y-125910633D01*
X95635720Y-121833280D02*
X94241740Y-121833280D01*
X105087420Y-123026434D02*
X102558832Y-125555022D01*
X100172458Y-125555022D02*
X95800716Y-121183280D01*
X95800716Y-121183280D02*
X94241740Y-121183280D01*
X105087420Y-122298460D02*
X105087420Y-123026434D01*
X102558832Y-125555022D02*
X100172458Y-125555022D01*
X99952886Y-118458478D02*
X97878084Y-120533280D01*
X99952886Y-117619848D02*
X99952886Y-118458478D01*
X101398214Y-116174520D02*
X99952886Y-117619848D01*
X102798880Y-116174520D02*
X101398214Y-116174520D01*
X103644700Y-117020340D02*
X102798880Y-116174520D01*
X103644700Y-118315740D02*
X103644700Y-117020340D01*
X105087420Y-119758460D02*
X103644700Y-118315740D01*
X97878084Y-120533280D02*
X94241740Y-120533280D01*
X101208851Y-115818909D02*
X99597275Y-117430485D01*
X103687869Y-115818909D02*
X101208851Y-115818909D01*
X105087420Y-117218460D02*
X103687869Y-115818909D01*
X98025175Y-119883280D02*
X94241740Y-119883280D01*
X99597275Y-117430485D02*
X99597275Y-118311180D01*
X99597275Y-118311180D02*
X98025175Y-119883280D01*
X98278262Y-118360072D02*
X97405054Y-119233280D01*
X98278262Y-117990026D02*
X98278262Y-118360072D01*
X101589828Y-114678460D02*
X98278262Y-117990026D01*
X97405054Y-119233280D02*
X94241740Y-119233280D01*
X105087420Y-114678460D02*
X101589828Y-114678460D01*
X105087420Y-112138460D02*
X103626920Y-112138460D01*
X97531825Y-118583280D02*
X94241740Y-118583280D01*
X103626920Y-112138460D02*
X97922651Y-117842729D01*
X97922651Y-117842729D02*
X97922651Y-118192454D01*
X97922651Y-118192454D02*
X97531825Y-118583280D01*
X94241740Y-117933280D02*
X96456933Y-117933280D01*
X96456933Y-117933280D02*
X96464410Y-117940757D01*
X116589260Y-93829420D02*
X112273080Y-98145600D01*
X119614360Y-93829420D02*
X116589260Y-93829420D01*
X90401140Y-102532180D02*
X89847420Y-101978460D01*
X93139260Y-102532180D02*
X90401140Y-102532180D01*
X116945519Y-94296121D02*
X112174020Y-99067620D01*
X120427721Y-94296121D02*
X116945519Y-94296121D01*
X120481061Y-94242781D02*
X120427721Y-94296121D01*
X120481061Y-92618321D02*
X120481061Y-94242781D01*
X120392160Y-92529420D02*
X120481061Y-92618321D01*
X119614360Y-92529420D02*
X120392160Y-92529420D01*
X108121243Y-95859699D02*
X105087420Y-98893522D01*
X105087420Y-98893522D02*
X105087420Y-99438460D01*
X108738679Y-95859699D02*
X108121243Y-95859699D01*
X109699961Y-94898417D02*
X108738679Y-95859699D01*
X109699961Y-94116019D02*
X109699961Y-94898417D01*
X111936560Y-91879420D02*
X109699961Y-94116019D01*
X112714360Y-91879420D02*
X111936560Y-91879420D01*
X105087420Y-101433522D02*
X105087420Y-101978460D01*
X108738679Y-98399699D02*
X108121243Y-98399699D01*
X108121243Y-98399699D02*
X105087420Y-101433522D01*
X109699961Y-97438417D02*
X108738679Y-98399699D01*
X109699961Y-95416019D02*
X109699961Y-97438417D01*
X111936560Y-93179420D02*
X109699961Y-95416019D01*
X112714360Y-93179420D02*
X111936560Y-93179420D01*
M02*
