G04 #@! TF.GenerationSoftware,KiCad,Pcbnew,(5.1.8)-1*
G04 #@! TF.CreationDate,2021-03-17T09:54:22-07:00*
G04 #@! TF.ProjectId,MCL64,4d434c36-342e-46b6-9963-61645f706362,rev?*
G04 #@! TF.SameCoordinates,Original*
G04 #@! TF.FileFunction,Soldermask,Bot*
G04 #@! TF.FilePolarity,Negative*
%FSLAX46Y46*%
G04 Gerber Fmt 4.6, Leading zero omitted, Abs format (unit mm)*
G04 Created by KiCad (PCBNEW (5.1.8)-1) date 2021-03-17 09:54:22*
%MOMM*%
%LPD*%
G01*
G04 APERTURE LIST*
%ADD10C,1.600000*%
%ADD11R,1.600000X1.600000*%
%ADD12O,1.600000X1.600000*%
G04 APERTURE END LIST*
D10*
X118532920Y-136410700D03*
X113532920Y-136410700D03*
X89847420Y-142618460D03*
X89847420Y-140078460D03*
X89847420Y-137538460D03*
X89847420Y-134998460D03*
X89847420Y-132458460D03*
X89847420Y-129918460D03*
X89847420Y-127378460D03*
X89847420Y-124838460D03*
X89847420Y-122298460D03*
X89847420Y-119758460D03*
X89847420Y-117218460D03*
X89847420Y-114678460D03*
X89847420Y-112138460D03*
X89847420Y-109598460D03*
D11*
X105087420Y-142618460D03*
D10*
X105087420Y-140078460D03*
X105087420Y-137538460D03*
X105087420Y-134998460D03*
X105087420Y-132458460D03*
X105087420Y-129918460D03*
X105087420Y-127378460D03*
X105087420Y-124838460D03*
X105087420Y-122298460D03*
X105087420Y-119758460D03*
X105087420Y-117218460D03*
X105087420Y-114678460D03*
X105087420Y-112138460D03*
X89847420Y-107058460D03*
X89847420Y-104518460D03*
X89847420Y-101978460D03*
X89847420Y-99438460D03*
X89847420Y-96898460D03*
X89847420Y-94358460D03*
X89847420Y-91818460D03*
X89847420Y-89278460D03*
X89847420Y-86738460D03*
X89847420Y-84198460D03*
X105087420Y-84198460D03*
X105087420Y-86738460D03*
X105087420Y-89278460D03*
X105087420Y-91818460D03*
X105087420Y-109598460D03*
X105087420Y-107058460D03*
X105087420Y-104518460D03*
X105087420Y-94358460D03*
X105087420Y-96898460D03*
X105087420Y-99438460D03*
X105087420Y-101978460D03*
G36*
G01*
X95224760Y-117775260D02*
X95224760Y-118025260D01*
G75*
G02*
X95099760Y-118150260I-125000J0D01*
G01*
X93449760Y-118150260D01*
G75*
G02*
X93324760Y-118025260I0J125000D01*
G01*
X93324760Y-117775260D01*
G75*
G02*
X93449760Y-117650260I125000J0D01*
G01*
X95099760Y-117650260D01*
G75*
G02*
X95224760Y-117775260I0J-125000D01*
G01*
G37*
G36*
G01*
X95224760Y-118425260D02*
X95224760Y-118675260D01*
G75*
G02*
X95099760Y-118800260I-125000J0D01*
G01*
X93449760Y-118800260D01*
G75*
G02*
X93324760Y-118675260I0J125000D01*
G01*
X93324760Y-118425260D01*
G75*
G02*
X93449760Y-118300260I125000J0D01*
G01*
X95099760Y-118300260D01*
G75*
G02*
X95224760Y-118425260I0J-125000D01*
G01*
G37*
G36*
G01*
X95224760Y-119075260D02*
X95224760Y-119325260D01*
G75*
G02*
X95099760Y-119450260I-125000J0D01*
G01*
X93449760Y-119450260D01*
G75*
G02*
X93324760Y-119325260I0J125000D01*
G01*
X93324760Y-119075260D01*
G75*
G02*
X93449760Y-118950260I125000J0D01*
G01*
X95099760Y-118950260D01*
G75*
G02*
X95224760Y-119075260I0J-125000D01*
G01*
G37*
G36*
G01*
X95224760Y-119725260D02*
X95224760Y-119975260D01*
G75*
G02*
X95099760Y-120100260I-125000J0D01*
G01*
X93449760Y-120100260D01*
G75*
G02*
X93324760Y-119975260I0J125000D01*
G01*
X93324760Y-119725260D01*
G75*
G02*
X93449760Y-119600260I125000J0D01*
G01*
X95099760Y-119600260D01*
G75*
G02*
X95224760Y-119725260I0J-125000D01*
G01*
G37*
G36*
G01*
X95224760Y-120375260D02*
X95224760Y-120625260D01*
G75*
G02*
X95099760Y-120750260I-125000J0D01*
G01*
X93449760Y-120750260D01*
G75*
G02*
X93324760Y-120625260I0J125000D01*
G01*
X93324760Y-120375260D01*
G75*
G02*
X93449760Y-120250260I125000J0D01*
G01*
X95099760Y-120250260D01*
G75*
G02*
X95224760Y-120375260I0J-125000D01*
G01*
G37*
G36*
G01*
X95224760Y-121025260D02*
X95224760Y-121275260D01*
G75*
G02*
X95099760Y-121400260I-125000J0D01*
G01*
X93449760Y-121400260D01*
G75*
G02*
X93324760Y-121275260I0J125000D01*
G01*
X93324760Y-121025260D01*
G75*
G02*
X93449760Y-120900260I125000J0D01*
G01*
X95099760Y-120900260D01*
G75*
G02*
X95224760Y-121025260I0J-125000D01*
G01*
G37*
G36*
G01*
X95224760Y-121675260D02*
X95224760Y-121925260D01*
G75*
G02*
X95099760Y-122050260I-125000J0D01*
G01*
X93449760Y-122050260D01*
G75*
G02*
X93324760Y-121925260I0J125000D01*
G01*
X93324760Y-121675260D01*
G75*
G02*
X93449760Y-121550260I125000J0D01*
G01*
X95099760Y-121550260D01*
G75*
G02*
X95224760Y-121675260I0J-125000D01*
G01*
G37*
G36*
G01*
X95224760Y-122325260D02*
X95224760Y-122575260D01*
G75*
G02*
X95099760Y-122700260I-125000J0D01*
G01*
X93449760Y-122700260D01*
G75*
G02*
X93324760Y-122575260I0J125000D01*
G01*
X93324760Y-122325260D01*
G75*
G02*
X93449760Y-122200260I125000J0D01*
G01*
X95099760Y-122200260D01*
G75*
G02*
X95224760Y-122325260I0J-125000D01*
G01*
G37*
G36*
G01*
X95224760Y-122975260D02*
X95224760Y-123225260D01*
G75*
G02*
X95099760Y-123350260I-125000J0D01*
G01*
X93449760Y-123350260D01*
G75*
G02*
X93324760Y-123225260I0J125000D01*
G01*
X93324760Y-122975260D01*
G75*
G02*
X93449760Y-122850260I125000J0D01*
G01*
X95099760Y-122850260D01*
G75*
G02*
X95224760Y-122975260I0J-125000D01*
G01*
G37*
G36*
G01*
X95224760Y-123625260D02*
X95224760Y-123875260D01*
G75*
G02*
X95099760Y-124000260I-125000J0D01*
G01*
X93449760Y-124000260D01*
G75*
G02*
X93324760Y-123875260I0J125000D01*
G01*
X93324760Y-123625260D01*
G75*
G02*
X93449760Y-123500260I125000J0D01*
G01*
X95099760Y-123500260D01*
G75*
G02*
X95224760Y-123625260I0J-125000D01*
G01*
G37*
G36*
G01*
X102224760Y-123625260D02*
X102224760Y-123875260D01*
G75*
G02*
X102099760Y-124000260I-125000J0D01*
G01*
X100449760Y-124000260D01*
G75*
G02*
X100324760Y-123875260I0J125000D01*
G01*
X100324760Y-123625260D01*
G75*
G02*
X100449760Y-123500260I125000J0D01*
G01*
X102099760Y-123500260D01*
G75*
G02*
X102224760Y-123625260I0J-125000D01*
G01*
G37*
G36*
G01*
X102224760Y-122975260D02*
X102224760Y-123225260D01*
G75*
G02*
X102099760Y-123350260I-125000J0D01*
G01*
X100449760Y-123350260D01*
G75*
G02*
X100324760Y-123225260I0J125000D01*
G01*
X100324760Y-122975260D01*
G75*
G02*
X100449760Y-122850260I125000J0D01*
G01*
X102099760Y-122850260D01*
G75*
G02*
X102224760Y-122975260I0J-125000D01*
G01*
G37*
G36*
G01*
X102224760Y-122325260D02*
X102224760Y-122575260D01*
G75*
G02*
X102099760Y-122700260I-125000J0D01*
G01*
X100449760Y-122700260D01*
G75*
G02*
X100324760Y-122575260I0J125000D01*
G01*
X100324760Y-122325260D01*
G75*
G02*
X100449760Y-122200260I125000J0D01*
G01*
X102099760Y-122200260D01*
G75*
G02*
X102224760Y-122325260I0J-125000D01*
G01*
G37*
G36*
G01*
X102224760Y-121675260D02*
X102224760Y-121925260D01*
G75*
G02*
X102099760Y-122050260I-125000J0D01*
G01*
X100449760Y-122050260D01*
G75*
G02*
X100324760Y-121925260I0J125000D01*
G01*
X100324760Y-121675260D01*
G75*
G02*
X100449760Y-121550260I125000J0D01*
G01*
X102099760Y-121550260D01*
G75*
G02*
X102224760Y-121675260I0J-125000D01*
G01*
G37*
G36*
G01*
X102224760Y-121025260D02*
X102224760Y-121275260D01*
G75*
G02*
X102099760Y-121400260I-125000J0D01*
G01*
X100449760Y-121400260D01*
G75*
G02*
X100324760Y-121275260I0J125000D01*
G01*
X100324760Y-121025260D01*
G75*
G02*
X100449760Y-120900260I125000J0D01*
G01*
X102099760Y-120900260D01*
G75*
G02*
X102224760Y-121025260I0J-125000D01*
G01*
G37*
G36*
G01*
X102224760Y-120375260D02*
X102224760Y-120625260D01*
G75*
G02*
X102099760Y-120750260I-125000J0D01*
G01*
X100449760Y-120750260D01*
G75*
G02*
X100324760Y-120625260I0J125000D01*
G01*
X100324760Y-120375260D01*
G75*
G02*
X100449760Y-120250260I125000J0D01*
G01*
X102099760Y-120250260D01*
G75*
G02*
X102224760Y-120375260I0J-125000D01*
G01*
G37*
G36*
G01*
X102224760Y-119725260D02*
X102224760Y-119975260D01*
G75*
G02*
X102099760Y-120100260I-125000J0D01*
G01*
X100449760Y-120100260D01*
G75*
G02*
X100324760Y-119975260I0J125000D01*
G01*
X100324760Y-119725260D01*
G75*
G02*
X100449760Y-119600260I125000J0D01*
G01*
X102099760Y-119600260D01*
G75*
G02*
X102224760Y-119725260I0J-125000D01*
G01*
G37*
G36*
G01*
X102224760Y-119075260D02*
X102224760Y-119325260D01*
G75*
G02*
X102099760Y-119450260I-125000J0D01*
G01*
X100449760Y-119450260D01*
G75*
G02*
X100324760Y-119325260I0J125000D01*
G01*
X100324760Y-119075260D01*
G75*
G02*
X100449760Y-118950260I125000J0D01*
G01*
X102099760Y-118950260D01*
G75*
G02*
X102224760Y-119075260I0J-125000D01*
G01*
G37*
G36*
G01*
X102224760Y-118425260D02*
X102224760Y-118675260D01*
G75*
G02*
X102099760Y-118800260I-125000J0D01*
G01*
X100449760Y-118800260D01*
G75*
G02*
X100324760Y-118675260I0J125000D01*
G01*
X100324760Y-118425260D01*
G75*
G02*
X100449760Y-118300260I125000J0D01*
G01*
X102099760Y-118300260D01*
G75*
G02*
X102224760Y-118425260I0J-125000D01*
G01*
G37*
G36*
G01*
X102224760Y-117775260D02*
X102224760Y-118025260D01*
G75*
G02*
X102099760Y-118150260I-125000J0D01*
G01*
X100449760Y-118150260D01*
G75*
G02*
X100324760Y-118025260I0J125000D01*
G01*
X100324760Y-117775260D01*
G75*
G02*
X100449760Y-117650260I125000J0D01*
G01*
X102099760Y-117650260D01*
G75*
G02*
X102224760Y-117775260I0J-125000D01*
G01*
G37*
G36*
G01*
X113665160Y-123162600D02*
X113665160Y-123412600D01*
G75*
G02*
X113540160Y-123537600I-125000J0D01*
G01*
X111890160Y-123537600D01*
G75*
G02*
X111765160Y-123412600I0J125000D01*
G01*
X111765160Y-123162600D01*
G75*
G02*
X111890160Y-123037600I125000J0D01*
G01*
X113540160Y-123037600D01*
G75*
G02*
X113665160Y-123162600I0J-125000D01*
G01*
G37*
G36*
G01*
X113665160Y-123812600D02*
X113665160Y-124062600D01*
G75*
G02*
X113540160Y-124187600I-125000J0D01*
G01*
X111890160Y-124187600D01*
G75*
G02*
X111765160Y-124062600I0J125000D01*
G01*
X111765160Y-123812600D01*
G75*
G02*
X111890160Y-123687600I125000J0D01*
G01*
X113540160Y-123687600D01*
G75*
G02*
X113665160Y-123812600I0J-125000D01*
G01*
G37*
G36*
G01*
X113665160Y-124462600D02*
X113665160Y-124712600D01*
G75*
G02*
X113540160Y-124837600I-125000J0D01*
G01*
X111890160Y-124837600D01*
G75*
G02*
X111765160Y-124712600I0J125000D01*
G01*
X111765160Y-124462600D01*
G75*
G02*
X111890160Y-124337600I125000J0D01*
G01*
X113540160Y-124337600D01*
G75*
G02*
X113665160Y-124462600I0J-125000D01*
G01*
G37*
G36*
G01*
X113665160Y-125112600D02*
X113665160Y-125362600D01*
G75*
G02*
X113540160Y-125487600I-125000J0D01*
G01*
X111890160Y-125487600D01*
G75*
G02*
X111765160Y-125362600I0J125000D01*
G01*
X111765160Y-125112600D01*
G75*
G02*
X111890160Y-124987600I125000J0D01*
G01*
X113540160Y-124987600D01*
G75*
G02*
X113665160Y-125112600I0J-125000D01*
G01*
G37*
G36*
G01*
X113665160Y-125762600D02*
X113665160Y-126012600D01*
G75*
G02*
X113540160Y-126137600I-125000J0D01*
G01*
X111890160Y-126137600D01*
G75*
G02*
X111765160Y-126012600I0J125000D01*
G01*
X111765160Y-125762600D01*
G75*
G02*
X111890160Y-125637600I125000J0D01*
G01*
X113540160Y-125637600D01*
G75*
G02*
X113665160Y-125762600I0J-125000D01*
G01*
G37*
G36*
G01*
X113665160Y-126412600D02*
X113665160Y-126662600D01*
G75*
G02*
X113540160Y-126787600I-125000J0D01*
G01*
X111890160Y-126787600D01*
G75*
G02*
X111765160Y-126662600I0J125000D01*
G01*
X111765160Y-126412600D01*
G75*
G02*
X111890160Y-126287600I125000J0D01*
G01*
X113540160Y-126287600D01*
G75*
G02*
X113665160Y-126412600I0J-125000D01*
G01*
G37*
G36*
G01*
X113665160Y-127062600D02*
X113665160Y-127312600D01*
G75*
G02*
X113540160Y-127437600I-125000J0D01*
G01*
X111890160Y-127437600D01*
G75*
G02*
X111765160Y-127312600I0J125000D01*
G01*
X111765160Y-127062600D01*
G75*
G02*
X111890160Y-126937600I125000J0D01*
G01*
X113540160Y-126937600D01*
G75*
G02*
X113665160Y-127062600I0J-125000D01*
G01*
G37*
G36*
G01*
X113665160Y-127712600D02*
X113665160Y-127962600D01*
G75*
G02*
X113540160Y-128087600I-125000J0D01*
G01*
X111890160Y-128087600D01*
G75*
G02*
X111765160Y-127962600I0J125000D01*
G01*
X111765160Y-127712600D01*
G75*
G02*
X111890160Y-127587600I125000J0D01*
G01*
X113540160Y-127587600D01*
G75*
G02*
X113665160Y-127712600I0J-125000D01*
G01*
G37*
G36*
G01*
X113665160Y-128362600D02*
X113665160Y-128612600D01*
G75*
G02*
X113540160Y-128737600I-125000J0D01*
G01*
X111890160Y-128737600D01*
G75*
G02*
X111765160Y-128612600I0J125000D01*
G01*
X111765160Y-128362600D01*
G75*
G02*
X111890160Y-128237600I125000J0D01*
G01*
X113540160Y-128237600D01*
G75*
G02*
X113665160Y-128362600I0J-125000D01*
G01*
G37*
G36*
G01*
X113665160Y-129012600D02*
X113665160Y-129262600D01*
G75*
G02*
X113540160Y-129387600I-125000J0D01*
G01*
X111890160Y-129387600D01*
G75*
G02*
X111765160Y-129262600I0J125000D01*
G01*
X111765160Y-129012600D01*
G75*
G02*
X111890160Y-128887600I125000J0D01*
G01*
X113540160Y-128887600D01*
G75*
G02*
X113665160Y-129012600I0J-125000D01*
G01*
G37*
G36*
G01*
X120665160Y-129012600D02*
X120665160Y-129262600D01*
G75*
G02*
X120540160Y-129387600I-125000J0D01*
G01*
X118890160Y-129387600D01*
G75*
G02*
X118765160Y-129262600I0J125000D01*
G01*
X118765160Y-129012600D01*
G75*
G02*
X118890160Y-128887600I125000J0D01*
G01*
X120540160Y-128887600D01*
G75*
G02*
X120665160Y-129012600I0J-125000D01*
G01*
G37*
G36*
G01*
X120665160Y-128362600D02*
X120665160Y-128612600D01*
G75*
G02*
X120540160Y-128737600I-125000J0D01*
G01*
X118890160Y-128737600D01*
G75*
G02*
X118765160Y-128612600I0J125000D01*
G01*
X118765160Y-128362600D01*
G75*
G02*
X118890160Y-128237600I125000J0D01*
G01*
X120540160Y-128237600D01*
G75*
G02*
X120665160Y-128362600I0J-125000D01*
G01*
G37*
G36*
G01*
X120665160Y-127712600D02*
X120665160Y-127962600D01*
G75*
G02*
X120540160Y-128087600I-125000J0D01*
G01*
X118890160Y-128087600D01*
G75*
G02*
X118765160Y-127962600I0J125000D01*
G01*
X118765160Y-127712600D01*
G75*
G02*
X118890160Y-127587600I125000J0D01*
G01*
X120540160Y-127587600D01*
G75*
G02*
X120665160Y-127712600I0J-125000D01*
G01*
G37*
G36*
G01*
X120665160Y-127062600D02*
X120665160Y-127312600D01*
G75*
G02*
X120540160Y-127437600I-125000J0D01*
G01*
X118890160Y-127437600D01*
G75*
G02*
X118765160Y-127312600I0J125000D01*
G01*
X118765160Y-127062600D01*
G75*
G02*
X118890160Y-126937600I125000J0D01*
G01*
X120540160Y-126937600D01*
G75*
G02*
X120665160Y-127062600I0J-125000D01*
G01*
G37*
G36*
G01*
X120665160Y-126412600D02*
X120665160Y-126662600D01*
G75*
G02*
X120540160Y-126787600I-125000J0D01*
G01*
X118890160Y-126787600D01*
G75*
G02*
X118765160Y-126662600I0J125000D01*
G01*
X118765160Y-126412600D01*
G75*
G02*
X118890160Y-126287600I125000J0D01*
G01*
X120540160Y-126287600D01*
G75*
G02*
X120665160Y-126412600I0J-125000D01*
G01*
G37*
G36*
G01*
X120665160Y-125762600D02*
X120665160Y-126012600D01*
G75*
G02*
X120540160Y-126137600I-125000J0D01*
G01*
X118890160Y-126137600D01*
G75*
G02*
X118765160Y-126012600I0J125000D01*
G01*
X118765160Y-125762600D01*
G75*
G02*
X118890160Y-125637600I125000J0D01*
G01*
X120540160Y-125637600D01*
G75*
G02*
X120665160Y-125762600I0J-125000D01*
G01*
G37*
G36*
G01*
X120665160Y-125112600D02*
X120665160Y-125362600D01*
G75*
G02*
X120540160Y-125487600I-125000J0D01*
G01*
X118890160Y-125487600D01*
G75*
G02*
X118765160Y-125362600I0J125000D01*
G01*
X118765160Y-125112600D01*
G75*
G02*
X118890160Y-124987600I125000J0D01*
G01*
X120540160Y-124987600D01*
G75*
G02*
X120665160Y-125112600I0J-125000D01*
G01*
G37*
G36*
G01*
X120665160Y-124462600D02*
X120665160Y-124712600D01*
G75*
G02*
X120540160Y-124837600I-125000J0D01*
G01*
X118890160Y-124837600D01*
G75*
G02*
X118765160Y-124712600I0J125000D01*
G01*
X118765160Y-124462600D01*
G75*
G02*
X118890160Y-124337600I125000J0D01*
G01*
X120540160Y-124337600D01*
G75*
G02*
X120665160Y-124462600I0J-125000D01*
G01*
G37*
G36*
G01*
X120665160Y-123812600D02*
X120665160Y-124062600D01*
G75*
G02*
X120540160Y-124187600I-125000J0D01*
G01*
X118890160Y-124187600D01*
G75*
G02*
X118765160Y-124062600I0J125000D01*
G01*
X118765160Y-123812600D01*
G75*
G02*
X118890160Y-123687600I125000J0D01*
G01*
X120540160Y-123687600D01*
G75*
G02*
X120665160Y-123812600I0J-125000D01*
G01*
G37*
G36*
G01*
X120665160Y-123162600D02*
X120665160Y-123412600D01*
G75*
G02*
X120540160Y-123537600I-125000J0D01*
G01*
X118890160Y-123537600D01*
G75*
G02*
X118765160Y-123412600I0J125000D01*
G01*
X118765160Y-123162600D01*
G75*
G02*
X118890160Y-123037600I125000J0D01*
G01*
X120540160Y-123037600D01*
G75*
G02*
X120665160Y-123162600I0J-125000D01*
G01*
G37*
D12*
X123873260Y-84226400D03*
X108633260Y-132486400D03*
X123873260Y-86766400D03*
X108633260Y-129946400D03*
X123873260Y-89306400D03*
X108633260Y-127406400D03*
X123873260Y-91846400D03*
X108633260Y-124866400D03*
X123873260Y-94386400D03*
X108633260Y-122326400D03*
X123873260Y-96926400D03*
X108633260Y-119786400D03*
X123873260Y-99466400D03*
X108633260Y-117246400D03*
X123873260Y-102006400D03*
X108633260Y-114706400D03*
X123873260Y-104546400D03*
X108633260Y-112166400D03*
X123873260Y-107086400D03*
X108633260Y-109626400D03*
X123873260Y-109626400D03*
X108633260Y-107086400D03*
X123873260Y-112166400D03*
X108633260Y-104546400D03*
X123873260Y-114706400D03*
X108633260Y-102006400D03*
X123873260Y-117246400D03*
X108633260Y-99466400D03*
X123873260Y-119786400D03*
X108633260Y-96926400D03*
X123873260Y-122326400D03*
X108633260Y-94386400D03*
X123873260Y-124866400D03*
X108633260Y-91846400D03*
X123873260Y-127406400D03*
X108633260Y-89306400D03*
X123873260Y-129946400D03*
X108633260Y-86766400D03*
X123873260Y-132486400D03*
D11*
X108633260Y-84226400D03*
M02*
