M48
; DRILL file {KiCad (5.1.8)-1} date 03/17/21 09:55:15
; FORMAT={2:4/ absolute / inch / suppress leading zeros}
; #@! TF.CreationDate,2021-03-17T09:55:15-07:00
; #@! TF.GenerationSoftware,Kicad,Pcbnew,(5.1.8)-1
; #@! TF.FileFunction,Plated,1,4,PTH
FMAT,2
INCH,TZ
T1C0.0157
T2C0.0315
T3C0.0433
%
G90
G05
T1
X36219Y-40982
X36669Y-40367
X36920Y-43642
X37089Y-49020
X37155Y-46026
X37978Y-46433
X38145Y-38312
X38347Y-38938
X38387Y-39506
X38958Y-40978
X38988Y-46472
X39023Y-43265
X39060Y-39506
X39157Y-48636
X39378Y-38989
X39865Y-49179
X39882Y-46122
X40528Y-48119
X40534Y-46392
X40538Y-47461
X40544Y-48953
X40569Y-47132
X40581Y-48541
X40586Y-46773
X40658Y-47800
X43398Y-43650
X43470Y-41380
X43513Y-38674
X43618Y-40917
X43620Y-44184
X43679Y-49296
X43699Y-50858
X44163Y-39003
X44202Y-38640
X44250Y-43746
X44252Y-40058
X44363Y-37209
X44433Y-48184
X44872Y-36268
X44875Y-40496
X44883Y-42600
X44947Y-43759
X44988Y-36699
X44995Y-35634
X45025Y-50625
X45051Y-49042
X45099Y-48534
X45291Y-42692
X45308Y-50335
X45323Y-43787
X45771Y-40291
X45930Y-39433
X45962Y-37651
X45981Y-36328
X46042Y-44804
X46293Y-40065
X46306Y-42015
X46796Y-44438
X46992Y-43650
X47090Y-35185
X47285Y-40687
X47599Y-46875
X47617Y-35665
X47711Y-41129
X47772Y-50835
X47833Y-42525
X47871Y-40169
X47928Y-36230
X48096Y-35641
X48955Y-48702
X49427Y-49913
X49429Y-49461
X49519Y-50305
T2
X44698Y-53705
X46667Y-53705
X42769Y-33160
X42769Y-34160
X42769Y-35160
X42769Y-36160
X42769Y-37160
X42769Y-38160
X42769Y-39160
X42769Y-40160
X42769Y-41160
X42769Y-42160
X42769Y-43160
X42769Y-44160
X42769Y-45160
X42769Y-46160
X42769Y-47160
X42769Y-48160
X42769Y-49160
X42769Y-50160
X42769Y-51160
X42769Y-52160
X48769Y-33160
X48769Y-34160
X48769Y-35160
X48769Y-36160
X48769Y-37160
X48769Y-38160
X48769Y-39160
X48769Y-40160
X48769Y-41160
X48769Y-42160
X48769Y-43160
X48769Y-44160
X48769Y-45160
X48769Y-46160
X48769Y-47160
X48769Y-48160
X48769Y-49160
X48769Y-50160
X48769Y-51160
X48769Y-52160
T3
X35373Y-33149
X35373Y-34149
X35373Y-35149
X35373Y-36149
X35373Y-37149
X35373Y-38149
X35373Y-39149
X35373Y-40149
X35373Y-41149
X35373Y-42149
X35373Y-43149
X35373Y-44149
X35373Y-45149
X35373Y-46149
X35373Y-47149
X35373Y-48149
X35373Y-49149
X35373Y-50149
X35373Y-51149
X35373Y-52149
X35373Y-53149
X35373Y-54149
X35373Y-55149
X35373Y-56149
X41373Y-33149
X41373Y-34149
X41373Y-35149
X41373Y-36149
X41373Y-37149
X41373Y-38149
X41373Y-39149
X41373Y-40149
X41373Y-41149
X41373Y-42149
X41373Y-43149
X41373Y-44149
X41373Y-45149
X41373Y-46149
X41373Y-47149
X41373Y-48149
X41373Y-49149
X41373Y-50149
X41373Y-51149
X41373Y-52149
X41373Y-53149
X41373Y-54149
X41373Y-55149
X41373Y-56149
T0
M30
