G04 #@! TF.GenerationSoftware,KiCad,Pcbnew,(5.1.8)-1*
G04 #@! TF.CreationDate,2021-03-17T09:54:22-07:00*
G04 #@! TF.ProjectId,MCL64,4d434c36-342e-46b6-9963-61645f706362,rev?*
G04 #@! TF.SameCoordinates,Original*
G04 #@! TF.FileFunction,Legend,Bot*
G04 #@! TF.FilePolarity,Positive*
%FSLAX46Y46*%
G04 Gerber Fmt 4.6, Leading zero omitted, Abs format (unit mm)*
G04 Created by KiCad (PCBNEW (5.1.8)-1) date 2021-03-17 09:54:22*
%MOMM*%
%LPD*%
G01*
G04 APERTURE LIST*
%ADD10C,0.120000*%
%ADD11C,0.150000*%
G04 APERTURE END LIST*
D10*
X100534760Y-117390260D02*
X102224760Y-117390260D01*
X100534760Y-117115260D02*
X100534760Y-117390260D01*
X97774760Y-117115260D02*
X100534760Y-117115260D01*
X95014760Y-117115260D02*
X95014760Y-117390260D01*
X97774760Y-117115260D02*
X95014760Y-117115260D01*
X100534760Y-124535260D02*
X100534760Y-124260260D01*
X97774760Y-124535260D02*
X100534760Y-124535260D01*
X95014760Y-124535260D02*
X95014760Y-124260260D01*
X97774760Y-124535260D02*
X95014760Y-124535260D01*
X118975160Y-122777600D02*
X120665160Y-122777600D01*
X118975160Y-122502600D02*
X118975160Y-122777600D01*
X116215160Y-122502600D02*
X118975160Y-122502600D01*
X113455160Y-122502600D02*
X113455160Y-122777600D01*
X116215160Y-122502600D02*
X113455160Y-122502600D01*
X118975160Y-129922600D02*
X118975160Y-129647600D01*
X116215160Y-129922600D02*
X118975160Y-129922600D01*
X113455160Y-129922600D02*
X113455160Y-129647600D01*
X116215160Y-129922600D02*
X113455160Y-129922600D01*
D11*
X98536664Y-115727640D02*
X98536664Y-116537164D01*
X98489045Y-116632402D01*
X98441426Y-116680021D01*
X98346188Y-116727640D01*
X98155712Y-116727640D01*
X98060474Y-116680021D01*
X98012855Y-116632402D01*
X97965236Y-116537164D01*
X97965236Y-115727640D01*
X97060474Y-116060974D02*
X97060474Y-116727640D01*
X97298569Y-115680021D02*
X97536664Y-116394307D01*
X96917617Y-116394307D01*
X116977064Y-121114980D02*
X116977064Y-121924504D01*
X116929445Y-122019742D01*
X116881826Y-122067361D01*
X116786588Y-122114980D01*
X116596112Y-122114980D01*
X116500874Y-122067361D01*
X116453255Y-122019742D01*
X116405636Y-121924504D01*
X116405636Y-121114980D01*
X116024683Y-121114980D02*
X115405636Y-121114980D01*
X115738969Y-121495933D01*
X115596112Y-121495933D01*
X115500874Y-121543552D01*
X115453255Y-121591171D01*
X115405636Y-121686409D01*
X115405636Y-121924504D01*
X115453255Y-122019742D01*
X115500874Y-122067361D01*
X115596112Y-122114980D01*
X115881826Y-122114980D01*
X115977064Y-122067361D01*
X116024683Y-122019742D01*
M02*
