M48
; DRILL file {KiCad 9.0.1} date 2026-05-20T18:25:47-0700
; FORMAT={-:-/ absolute / metric / decimal}
; #@! TF.CreationDate,2026-05-20T18:25:47-07:00
; #@! TF.GenerationSoftware,Kicad,Pcbnew,9.0.1
; #@! TF.FileFunction,Plated,1,2,PTH
FMAT,2
METRIC
; #@! TA.AperFunction,Plated,PTH,ComponentDrill
T1C0.700
; #@! TA.AperFunction,Plated,PTH,ComponentDrill
T2C0.800
; #@! TA.AperFunction,Plated,PTH,ComponentDrill
T3C1.100
%
G90
G05
T1
X126.75Y-60.75
X126.75Y-63.0
X131.67Y-54.0
X131.67Y-56.25
X131.83Y-60.75
X131.83Y-63.0
X136.67Y-60.75
X136.67Y-63.0
X136.75Y-54.0
X136.75Y-56.25
X141.75Y-60.75
X141.75Y-63.0
T2
X129.195Y-71.69
X129.195Y-74.23
X129.195Y-76.77
X129.195Y-79.31
X136.815Y-71.69
X136.815Y-74.23
X136.815Y-76.77
X136.815Y-79.31
X140.25Y-72.0
X140.25Y-74.0
X145.5Y-72.0
X145.5Y-74.0
T3
X116.48Y-50.76
X116.48Y-66.0
X119.02Y-50.76
X119.02Y-66.0
X121.56Y-50.76
X121.56Y-66.0
X124.1Y-50.76
X124.1Y-66.0
X126.64Y-50.76
X126.64Y-66.0
X129.18Y-50.76
X129.18Y-66.0
X131.72Y-50.76
X131.72Y-66.0
X134.26Y-50.76
X134.26Y-66.0
X136.8Y-50.76
X136.8Y-66.0
X139.34Y-50.76
X139.34Y-66.0
X141.88Y-50.76
X141.88Y-66.0
X144.42Y-50.76
X144.42Y-66.0
X146.96Y-50.76
X146.96Y-66.0
X149.5Y-50.76
X149.5Y-66.0
M30
