%TF.GenerationSoftware,KiCad,Pcbnew,9.0.1*%
%TF.CreationDate,2026-05-20T18:24:57-07:00*%
%TF.ProjectId,MCL8080_PCB,4d434c38-3038-4305-9f50-43422e6b6963,rev?*%
%TF.SameCoordinates,Original*%
%TF.FileFunction,Copper,L1,Top*%
%TF.FilePolarity,Positive*%
%FSLAX46Y46*%
G04 Gerber Fmt 4.6, Leading zero omitted, Abs format (unit mm)*
G04 Created by KiCad (PCBNEW 9.0.1) date 2026-05-20 18:24:57*
%MOMM*%
%LPD*%
G01*
G04 APERTURE LIST*
G04 Aperture macros list*
%AMRoundRect*
0 Rectangle with rounded corners*
0 $1 Rounding radius*
0 $2 $3 $4 $5 $6 $7 $8 $9 X,Y pos of 4 corners*
0 Add a 4 corners polygon primitive as box body*
4,1,4,$2,$3,$4,$5,$6,$7,$8,$9,$2,$3,0*
0 Add four circle primitives for the rounded corners*
1,1,$1+$1,$2,$3*
1,1,$1+$1,$4,$5*
1,1,$1+$1,$6,$7*
1,1,$1+$1,$8,$9*
0 Add four rect primitives between the rounded corners*
20,1,$1+$1,$2,$3,$4,$5,0*
20,1,$1+$1,$4,$5,$6,$7,0*
20,1,$1+$1,$6,$7,$8,$9,0*
20,1,$1+$1,$8,$9,$2,$3,0*%
G04 Aperture macros list end*
%TA.AperFunction,ComponentPad*%
%ADD10C,1.600000*%
%TD*%
%TA.AperFunction,ComponentPad*%
%ADD11R,1.600000X1.600000*%
%TD*%
%TA.AperFunction,ComponentPad*%
%ADD12C,1.400000*%
%TD*%
%TA.AperFunction,ComponentPad*%
%ADD13O,1.400000X1.400000*%
%TD*%
%TA.AperFunction,ComponentPad*%
%ADD14RoundRect,0.250000X-0.550000X-0.550000X0.550000X-0.550000X0.550000X0.550000X-0.550000X0.550000X0*%
%TD*%
%TA.AperFunction,Conductor*%
%ADD15C,0.381000*%
%TD*%
%TA.AperFunction,Conductor*%
%ADD16C,1.500000*%
%TD*%
G04 APERTURE END LIST*
D10*
%TO.P,U2,33,VIN*%
%TO.N,+5V*%
X149500000Y-66000000D03*
%TO.P,U2,32,GND*%
%TO.N,GND*%
X146960000Y-66000000D03*
%TO.P,U2,31,3V3*%
%TO.N,unconnected-(U2-3V3-Pad31)*%
X144420000Y-66000000D03*
%TO.P,U2,30,23_A9_CRX1_MCLK1*%
%TO.N,SPI_CLK_3V*%
X141880000Y-66000000D03*
%TO.P,U2,29,22_A8_CTX1*%
%TO.N,unconnected-(U2-22_A8_CTX1-Pad29)*%
X139340000Y-66000000D03*
%TO.P,U2,28,21_A7_RX5_BCLK1*%
%TO.N,unconnected-(U2-21_A7_RX5_BCLK1-Pad28)*%
X136800000Y-66000000D03*
%TO.P,U2,27,20_A6_TX5_LRCLK1*%
%TO.N,unconnected-(U2-20_A6_TX5_LRCLK1-Pad27)*%
X134260000Y-66000000D03*
%TO.P,U2,26,19_A5_SCL0*%
%TO.N,SPI_MISO_3V*%
X131720000Y-66000000D03*
%TO.P,U2,25,18_A4_SDA0*%
%TO.N,RESET_n_3V*%
X129180000Y-66000000D03*
%TO.P,U2,24,17_A3_TX4_SDA1*%
%TO.N,SPI_MOSI_3V*%
X126640000Y-66000000D03*
%TO.P,U2,23,16_A2_RX4_SCL1*%
%TO.N,unconnected-(U2-16_A2_RX4_SCL1-Pad23)*%
X124100000Y-66000000D03*
%TO.P,U2,22,15_A1_RX3_SPDIF_IN*%
%TO.N,unconnected-(U2-15_A1_RX3_SPDIF_IN-Pad22)*%
X121560000Y-66000000D03*
%TO.P,U2,21,14_A0_TX3_SPDIF_OUT*%
%TO.N,unconnected-(U2-14_A0_TX3_SPDIF_OUT-Pad21)*%
X119020000Y-66000000D03*
%TO.P,U2,20,13_SCK_CRX1_LED*%
%TO.N,unconnected-(U2-13_SCK_CRX1_LED-Pad20)*%
X116480000Y-66000000D03*
%TO.P,U2,14,12_MISO_MQSL*%
%TO.N,unconnected-(U2-12_MISO_MQSL-Pad14)*%
X116480000Y-50760000D03*
%TO.P,U2,13,11_MOSI_CTX1*%
%TO.N,unconnected-(U2-11_MOSI_CTX1-Pad13)*%
X119020000Y-50760000D03*
%TO.P,U2,12,10_CS_MQSR*%
%TO.N,unconnected-(U2-10_CS_MQSR-Pad12)*%
X121560000Y-50760000D03*
%TO.P,U2,11,9_OUT1C*%
%TO.N,unconnected-(U2-9_OUT1C-Pad11)*%
X124100000Y-50760000D03*
%TO.P,U2,10,8_TX2_IN1*%
%TO.N,unconnected-(U2-8_TX2_IN1-Pad10)*%
X126640000Y-50760000D03*
%TO.P,U2,9,7_RX2_OUT1A*%
%TO.N,unconnected-(U2-7_RX2_OUT1A-Pad9)*%
X129180000Y-50760000D03*
%TO.P,U2,8,6_OUT1D*%
%TO.N,unconnected-(U2-6_OUT1D-Pad8)*%
X131720000Y-50760000D03*
%TO.P,U2,7,5_IN2*%
%TO.N,unconnected-(U2-5_IN2-Pad7)*%
X134260000Y-50760000D03*
%TO.P,U2,6,4_BCLK2*%
%TO.N,SPI_CS_n_3V*%
X136800000Y-50760000D03*
%TO.P,U2,5,3_LRCLK2*%
%TO.N,unconnected-(U2-3_LRCLK2-Pad5)*%
X139340000Y-50760000D03*
%TO.P,U2,4,2_OUT2*%
%TO.N,unconnected-(U2-2_OUT2-Pad4)*%
X141880000Y-50760000D03*
%TO.P,U2,3,1_TX1_CTX2_MISO1*%
%TO.N,unconnected-(U2-1_TX1_CTX2_MISO1-Pad3)*%
X144420000Y-50760000D03*
%TO.P,U2,2,0_RX1_CRX2_CS1*%
%TO.N,unconnected-(U2-0_RX1_CRX2_CS1-Pad2)*%
X146960000Y-50760000D03*
%TO.P,U2,1,GND*%
%TO.N,GND*%
X149500000Y-50760000D03*
%TD*%
D11*
%TO.P,C1,1*%
%TO.N,+5V*%
X140250000Y-72000000D03*
D10*
%TO.P,C1,2*%
%TO.N,GND*%
X140250000Y-74000000D03*
%TD*%
D12*
%TO.P,R1,1*%
%TO.N,SPI_CS_n_3V*%
X136750000Y-56250000D03*
D13*
%TO.P,R1,2*%
%TO.N,SPI_CS_n_5V*%
X131670000Y-56250000D03*
%TD*%
D14*
%TO.P,U1,1,~{RESET}/PB5*%
%TO.N,RESET_n_3V*%
X129195000Y-71690000D03*
D10*
%TO.P,U1,2,XTAL1/PB3*%
%TO.N,SPI_CS_n_5V*%
X129195000Y-74230000D03*
%TO.P,U1,3,XTAL2/PB4*%
%TO.N,unconnected-(U1-XTAL2{slash}PB4-Pad3)*%
X129195000Y-76770000D03*
%TO.P,U1,4,GND*%
%TO.N,GND*%
X129195000Y-79310000D03*
%TO.P,U1,5,AREF/PB0*%
%TO.N,SPI_MISO_3V*%
X136815000Y-79310000D03*
%TO.P,U1,6,PB1*%
%TO.N,SPI_MOSI_5V*%
X136815000Y-76770000D03*
%TO.P,U1,7,PB2*%
%TO.N,SPI_CLK_5V*%
X136815000Y-74230000D03*
%TO.P,U1,8,VCC*%
%TO.N,+5V*%
X136815000Y-71690000D03*
%TD*%
D12*
%TO.P,R4,1*%
%TO.N,GND*%
X136670000Y-60750000D03*
D13*
%TO.P,R4,2*%
%TO.N,SPI_CLK_3V*%
X141750000Y-60750000D03*
%TD*%
D12*
%TO.P,R2,1*%
%TO.N,GND*%
X131670000Y-54000000D03*
D13*
%TO.P,R2,2*%
%TO.N,SPI_CS_n_3V*%
X136750000Y-54000000D03*
%TD*%
D11*
%TO.P,C2,1*%
%TO.N,+5V*%
X145500000Y-72000000D03*
D10*
%TO.P,C2,2*%
%TO.N,GND*%
X145500000Y-74000000D03*
%TD*%
D12*
%TO.P,R6,1*%
%TO.N,GND*%
X131830000Y-60750000D03*
D13*
%TO.P,R6,2*%
%TO.N,SPI_MOSI_3V*%
X126750000Y-60750000D03*
%TD*%
D12*
%TO.P,R3,1*%
%TO.N,SPI_CLK_3V*%
X141750000Y-63000000D03*
D13*
%TO.P,R3,2*%
%TO.N,SPI_CLK_5V*%
X136670000Y-63000000D03*
%TD*%
D12*
%TO.P,R5,1*%
%TO.N,SPI_MOSI_3V*%
X126750000Y-63000000D03*
D13*
%TO.P,R5,2*%
%TO.N,SPI_MOSI_5V*%
X131830000Y-63000000D03*
%TD*%
D15*
%TO.N,SPI_CLK_5V*%
X135500000Y-72915000D02*
X135500000Y-64170000D01*
X136815000Y-74230000D02*
X135500000Y-72915000D01*
X135500000Y-64170000D02*
X136670000Y-63000000D01*
%TO.N,RESET_n_3V*%
X129195000Y-71690000D02*
X129195000Y-66015000D01*
X129195000Y-66015000D02*
X129180000Y-66000000D01*
D16*
%TO.N,+5V*%
X149500000Y-68125000D02*
X145815000Y-71810000D01*
X145815000Y-71810000D02*
X141125000Y-71810000D01*
X149500000Y-66000000D02*
X149500000Y-68125000D01*
X141065000Y-71750000D02*
X136875000Y-71750000D01*
X136875000Y-71750000D02*
X136815000Y-71690000D01*
X141125000Y-71810000D02*
X141065000Y-71750000D01*
D15*
%TO.N,SPI_MISO_3V*%
X131720000Y-74215000D02*
X131720000Y-66000000D01*
X136815000Y-79310000D02*
X131720000Y-74215000D01*
%TO.N,SPI_CS_n_5V*%
X130500000Y-72925000D02*
X130500000Y-57420000D01*
X129195000Y-74230000D02*
X130500000Y-72925000D01*
X130500000Y-57420000D02*
X131670000Y-56250000D01*
%TO.N,SPI_MOSI_5V*%
X133068500Y-73023500D02*
X133068500Y-64238500D01*
X136815000Y-76770000D02*
X133068500Y-73023500D01*
X133068500Y-64238500D02*
X131830000Y-63000000D01*
%TO.N,SPI_CLK_3V*%
X141750000Y-63000000D02*
X141750000Y-60750000D01*
X141880000Y-63130000D02*
X141750000Y-63000000D01*
X141880000Y-66000000D02*
X141880000Y-63130000D01*
%TO.N,SPI_MOSI_3V*%
X126640000Y-63110000D02*
X126750000Y-63000000D01*
X126750000Y-63000000D02*
X126750000Y-60750000D01*
X126640000Y-66000000D02*
X126640000Y-63110000D01*
%TO.N,SPI_CS_n_3V*%
X136800000Y-53950000D02*
X136750000Y-54000000D01*
X136800000Y-50760000D02*
X136800000Y-53950000D01*
X136750000Y-54000000D02*
X136750000Y-56250000D01*
%TD*%
M02*
