%FSLAX45Y45*%
G04 Gerber Fmt 4.5, Leading zero omitted, Abs format (unit mm)*
G04 Created by KiCad (PCBNEW (6.0.5)) date 2024-06-24 20:21:12*
%MOMM*%
%LPD*%
G01*
G04 APERTURE LIST*
%TA.AperFunction,Profile*%
%ADD10C,0.050000*%
%TD*%
%ADD11C,0.200000*%
%ADD12C,0.025400*%
%ADD13C,0.080000*%
%ADD14C,0.110000*%
G04 APERTURE END LIST*
D10*
X15163800Y-14249400D02*
X15163800Y-8153400D01*
X18389600Y-14249400D02*
X15163800Y-14249400D01*
X15163800Y-8153400D02*
X18389600Y-8153400D01*
X18389600Y-8153400D02*
X18389600Y-14249400D01*
D11*
D12*
X15502084Y-12869716D02*
X15527484Y-12895116D01*
X15527484Y-12869716D02*
X15502084Y-12895116D01*
X15557500Y-12814300D02*
X15582900Y-12839700D01*
X15582900Y-12814300D02*
X15557500Y-12839700D01*
X15659100Y-11137900D02*
X15684500Y-11163300D01*
X15684500Y-11137900D02*
X15659100Y-11163300D01*
X15684500Y-12992100D02*
X15709900Y-13017500D01*
X15709900Y-12992100D02*
X15684500Y-13017500D01*
X15709900Y-10375900D02*
X15735300Y-10401300D01*
X15735300Y-10375900D02*
X15709900Y-10401300D01*
X15709900Y-12280900D02*
X15735300Y-12306300D01*
X15735300Y-12280900D02*
X15709900Y-12306300D01*
X15830920Y-10646587D02*
X15856320Y-10671987D01*
X15856320Y-10646587D02*
X15830920Y-10671987D01*
X15830920Y-10731500D02*
X15856320Y-10756900D01*
X15856320Y-10731500D02*
X15830920Y-10756900D01*
X15836900Y-10477500D02*
X15862300Y-10502900D01*
X15862300Y-10477500D02*
X15836900Y-10502900D01*
X15887700Y-12611100D02*
X15913100Y-12636500D01*
X15913100Y-12611100D02*
X15887700Y-12636500D01*
X15913100Y-12687300D02*
X15938500Y-12712700D01*
X15938500Y-12687300D02*
X15913100Y-12712700D01*
X15938500Y-9690100D02*
X15963900Y-9715500D01*
X15963900Y-9690100D02*
X15938500Y-9715500D01*
X16040100Y-9944100D02*
X16065500Y-9969500D01*
X16065500Y-9944100D02*
X16040100Y-9969500D01*
X16116300Y-12407900D02*
X16141700Y-12433300D01*
X16141700Y-12407900D02*
X16116300Y-12433300D01*
X16141700Y-11341100D02*
X16167100Y-11366500D01*
X16167100Y-11341100D02*
X16141700Y-11366500D01*
X16198480Y-11209872D02*
X16223880Y-11235272D01*
X16223880Y-11209872D02*
X16198480Y-11235272D01*
X16243300Y-8648700D02*
X16268700Y-8674100D01*
X16268700Y-8648700D02*
X16243300Y-8674100D01*
X16243300Y-8801100D02*
X16268700Y-8826500D01*
X16268700Y-8801100D02*
X16243300Y-8826500D01*
X16268700Y-10401300D02*
X16294100Y-10426700D01*
X16294100Y-10401300D02*
X16268700Y-10426700D01*
X16268700Y-12280900D02*
X16294100Y-12306300D01*
X16294100Y-12280900D02*
X16268700Y-12306300D01*
X16398281Y-10479000D02*
X16423681Y-10504400D01*
X16423681Y-10479000D02*
X16398281Y-10504400D01*
X16725900Y-10198100D02*
X16751300Y-10223500D01*
X16751300Y-10198100D02*
X16725900Y-10223500D01*
X16751300Y-9944100D02*
X16776700Y-9969500D01*
X16776700Y-9944100D02*
X16751300Y-9969500D01*
X16979900Y-10706100D02*
X17005300Y-10731500D01*
X17005300Y-10706100D02*
X16979900Y-10731500D01*
X17081500Y-10579100D02*
X17106900Y-10604500D01*
X17106900Y-10579100D02*
X17081500Y-10604500D01*
X17081500Y-10826434D02*
X17106900Y-10851834D01*
X17106900Y-10826434D02*
X17081500Y-10851834D01*
X17081500Y-11823700D02*
X17106900Y-11849100D01*
X17106900Y-11823700D02*
X17081500Y-11849100D01*
X17132300Y-9512300D02*
X17157700Y-9537700D01*
X17157700Y-9512300D02*
X17132300Y-9537700D01*
X17157700Y-10121900D02*
X17183100Y-10147300D01*
X17183100Y-10121900D02*
X17157700Y-10147300D01*
X17183100Y-8502280D02*
X17208500Y-8527680D01*
X17208500Y-8502280D02*
X17183100Y-8527680D01*
X17227920Y-11976100D02*
X17253320Y-12001500D01*
X17253320Y-11976100D02*
X17227920Y-12001500D01*
X17233900Y-9385300D02*
X17259300Y-9410700D01*
X17259300Y-9385300D02*
X17233900Y-9410700D01*
X17233900Y-11036300D02*
X17259300Y-11061700D01*
X17259300Y-11036300D02*
X17233900Y-11061700D01*
X17260299Y-13078165D02*
X17285699Y-13103565D01*
X17285699Y-13078165D02*
X17260299Y-13103565D01*
X17290680Y-10299700D02*
X17316080Y-10325100D01*
X17316080Y-10299700D02*
X17290680Y-10325100D01*
X17335500Y-12280900D02*
X17360900Y-12306300D01*
X17360900Y-12280900D02*
X17335500Y-12306300D01*
X17354920Y-10650162D02*
X17380320Y-10675562D01*
X17380320Y-10650162D02*
X17354920Y-10675562D01*
X17354920Y-10728532D02*
X17380320Y-10753932D01*
X17380320Y-10728532D02*
X17354920Y-10753932D01*
X17360900Y-9385300D02*
X17386300Y-9410700D01*
X17386300Y-9385300D02*
X17360900Y-9410700D01*
X17360900Y-11772900D02*
X17386300Y-11798300D01*
X17386300Y-11772900D02*
X17360900Y-11798300D01*
X17443080Y-11893455D02*
X17468480Y-11918855D01*
X17468480Y-11893455D02*
X17443080Y-11918855D01*
X17462500Y-9385300D02*
X17487900Y-9410700D01*
X17487900Y-9385300D02*
X17462500Y-9410700D01*
X17478764Y-12859700D02*
X17504164Y-12885100D01*
X17504164Y-12859700D02*
X17478764Y-12885100D01*
X17544132Y-12565732D02*
X17569532Y-12591132D01*
X17569532Y-12565732D02*
X17544132Y-12591132D01*
X17589500Y-9512300D02*
X17614900Y-9537700D01*
X17614900Y-9512300D02*
X17589500Y-9537700D01*
X17665700Y-9385300D02*
X17691100Y-9410700D01*
X17691100Y-9385300D02*
X17665700Y-9410700D01*
X17683874Y-9054203D02*
X17709274Y-9079603D01*
X17709274Y-9054203D02*
X17683874Y-9079603D01*
X17767300Y-9359900D02*
X17792700Y-9385300D01*
X17792700Y-9359900D02*
X17767300Y-9385300D01*
X17792700Y-8470900D02*
X17818100Y-8496300D01*
X17818100Y-8470900D02*
X17792700Y-8496300D01*
X17792700Y-10325100D02*
X17818100Y-10350500D01*
X17818100Y-10325100D02*
X17792700Y-10350500D01*
X17792700Y-11976100D02*
X17818100Y-12001500D01*
X17818100Y-11976100D02*
X17792700Y-12001500D01*
X17843500Y-11264900D02*
X17868900Y-11290300D01*
X17868900Y-11264900D02*
X17843500Y-11290300D01*
X17970500Y-10452100D02*
X17995900Y-10477500D01*
X17995900Y-10452100D02*
X17970500Y-10477500D01*
D13*
X16677000Y-8280400D02*
G75*
G03*
X16677000Y-8280400I-40000J0D01*
G01*
X16677000Y-8534400D02*
G75*
G03*
X16677000Y-8534400I-40000J0D01*
G01*
X16677000Y-8788400D02*
G75*
G03*
X16677000Y-8788400I-40000J0D01*
G01*
X16677000Y-9042400D02*
G75*
G03*
X16677000Y-9042400I-40000J0D01*
G01*
X16677000Y-9296400D02*
G75*
G03*
X16677000Y-9296400I-40000J0D01*
G01*
X16677000Y-9550400D02*
G75*
G03*
X16677000Y-9550400I-40000J0D01*
G01*
X16677000Y-9804400D02*
G75*
G03*
X16677000Y-9804400I-40000J0D01*
G01*
X16677000Y-10058400D02*
G75*
G03*
X16677000Y-10058400I-40000J0D01*
G01*
X16677000Y-10312400D02*
G75*
G03*
X16677000Y-10312400I-40000J0D01*
G01*
X16677000Y-10566400D02*
G75*
G03*
X16677000Y-10566400I-40000J0D01*
G01*
X16677000Y-10820400D02*
G75*
G03*
X16677000Y-10820400I-40000J0D01*
G01*
X16677000Y-11074400D02*
G75*
G03*
X16677000Y-11074400I-40000J0D01*
G01*
X16677000Y-11328400D02*
G75*
G03*
X16677000Y-11328400I-40000J0D01*
G01*
X16677000Y-11582400D02*
G75*
G03*
X16677000Y-11582400I-40000J0D01*
G01*
X16677000Y-11836400D02*
G75*
G03*
X16677000Y-11836400I-40000J0D01*
G01*
X16677000Y-12090400D02*
G75*
G03*
X16677000Y-12090400I-40000J0D01*
G01*
X16677000Y-12344400D02*
G75*
G03*
X16677000Y-12344400I-40000J0D01*
G01*
X16677000Y-12598400D02*
G75*
G03*
X16677000Y-12598400I-40000J0D01*
G01*
X16677000Y-12852400D02*
G75*
G03*
X16677000Y-12852400I-40000J0D01*
G01*
X16677000Y-13106400D02*
G75*
G03*
X16677000Y-13106400I-40000J0D01*
G01*
X18201000Y-8280400D02*
G75*
G03*
X18201000Y-8280400I-40000J0D01*
G01*
X18201000Y-8534400D02*
G75*
G03*
X18201000Y-8534400I-40000J0D01*
G01*
X18201000Y-8788400D02*
G75*
G03*
X18201000Y-8788400I-40000J0D01*
G01*
X18201000Y-9042400D02*
G75*
G03*
X18201000Y-9042400I-40000J0D01*
G01*
X18201000Y-9296400D02*
G75*
G03*
X18201000Y-9296400I-40000J0D01*
G01*
X18201000Y-9550400D02*
G75*
G03*
X18201000Y-9550400I-40000J0D01*
G01*
X18201000Y-9804400D02*
G75*
G03*
X18201000Y-9804400I-40000J0D01*
G01*
X18201000Y-10058400D02*
G75*
G03*
X18201000Y-10058400I-40000J0D01*
G01*
X18201000Y-10312400D02*
G75*
G03*
X18201000Y-10312400I-40000J0D01*
G01*
X18201000Y-10566400D02*
G75*
G03*
X18201000Y-10566400I-40000J0D01*
G01*
X18201000Y-10820400D02*
G75*
G03*
X18201000Y-10820400I-40000J0D01*
G01*
X18201000Y-11074400D02*
G75*
G03*
X18201000Y-11074400I-40000J0D01*
G01*
X18201000Y-11328400D02*
G75*
G03*
X18201000Y-11328400I-40000J0D01*
G01*
X18201000Y-11582400D02*
G75*
G03*
X18201000Y-11582400I-40000J0D01*
G01*
X18201000Y-11836400D02*
G75*
G03*
X18201000Y-11836400I-40000J0D01*
G01*
X18201000Y-12090400D02*
G75*
G03*
X18201000Y-12090400I-40000J0D01*
G01*
X18201000Y-12344400D02*
G75*
G03*
X18201000Y-12344400I-40000J0D01*
G01*
X18201000Y-12598400D02*
G75*
G03*
X18201000Y-12598400I-40000J0D01*
G01*
X18201000Y-12852400D02*
G75*
G03*
X18201000Y-12852400I-40000J0D01*
G01*
X18201000Y-13106400D02*
G75*
G03*
X18201000Y-13106400I-40000J0D01*
G01*
D14*
X15367000Y-8225400D02*
X15367000Y-8335400D01*
X15312000Y-8280400D02*
X15422000Y-8280400D01*
X15367000Y-8479400D02*
X15367000Y-8589400D01*
X15312000Y-8534400D02*
X15422000Y-8534400D01*
X15367000Y-8733400D02*
X15367000Y-8843400D01*
X15312000Y-8788400D02*
X15422000Y-8788400D01*
X15367000Y-8987400D02*
X15367000Y-9097400D01*
X15312000Y-9042400D02*
X15422000Y-9042400D01*
X15367000Y-9241400D02*
X15367000Y-9351400D01*
X15312000Y-9296400D02*
X15422000Y-9296400D01*
X15367000Y-9495400D02*
X15367000Y-9605400D01*
X15312000Y-9550400D02*
X15422000Y-9550400D01*
X15367000Y-9749400D02*
X15367000Y-9859400D01*
X15312000Y-9804400D02*
X15422000Y-9804400D01*
X15367000Y-10003400D02*
X15367000Y-10113400D01*
X15312000Y-10058400D02*
X15422000Y-10058400D01*
X15367000Y-10257400D02*
X15367000Y-10367400D01*
X15312000Y-10312400D02*
X15422000Y-10312400D01*
X15367000Y-10511400D02*
X15367000Y-10621400D01*
X15312000Y-10566400D02*
X15422000Y-10566400D01*
X15367000Y-10765400D02*
X15367000Y-10875400D01*
X15312000Y-10820400D02*
X15422000Y-10820400D01*
X15367000Y-11019400D02*
X15367000Y-11129400D01*
X15312000Y-11074400D02*
X15422000Y-11074400D01*
X15367000Y-11273400D02*
X15367000Y-11383400D01*
X15312000Y-11328400D02*
X15422000Y-11328400D01*
X15367000Y-11527400D02*
X15367000Y-11637400D01*
X15312000Y-11582400D02*
X15422000Y-11582400D01*
X15367000Y-11781400D02*
X15367000Y-11891400D01*
X15312000Y-11836400D02*
X15422000Y-11836400D01*
X15367000Y-12035400D02*
X15367000Y-12145400D01*
X15312000Y-12090400D02*
X15422000Y-12090400D01*
X15367000Y-12289400D02*
X15367000Y-12399400D01*
X15312000Y-12344400D02*
X15422000Y-12344400D01*
X15367000Y-12543400D02*
X15367000Y-12653400D01*
X15312000Y-12598400D02*
X15422000Y-12598400D01*
X15367000Y-12797400D02*
X15367000Y-12907400D01*
X15312000Y-12852400D02*
X15422000Y-12852400D01*
X15367000Y-13051400D02*
X15367000Y-13161400D01*
X15312000Y-13106400D02*
X15422000Y-13106400D01*
X15367000Y-13305400D02*
X15367000Y-13415400D01*
X15312000Y-13360400D02*
X15422000Y-13360400D01*
X15367000Y-13559400D02*
X15367000Y-13669400D01*
X15312000Y-13614400D02*
X15422000Y-13614400D01*
X15367000Y-13813400D02*
X15367000Y-13923400D01*
X15312000Y-13868400D02*
X15422000Y-13868400D01*
X15367000Y-14067400D02*
X15367000Y-14177400D01*
X15312000Y-14122400D02*
X15422000Y-14122400D01*
X16891000Y-8225400D02*
X16891000Y-8335400D01*
X16836000Y-8280400D02*
X16946000Y-8280400D01*
X16891000Y-8479400D02*
X16891000Y-8589400D01*
X16836000Y-8534400D02*
X16946000Y-8534400D01*
X16891000Y-8733400D02*
X16891000Y-8843400D01*
X16836000Y-8788400D02*
X16946000Y-8788400D01*
X16891000Y-8987400D02*
X16891000Y-9097400D01*
X16836000Y-9042400D02*
X16946000Y-9042400D01*
X16891000Y-9241400D02*
X16891000Y-9351400D01*
X16836000Y-9296400D02*
X16946000Y-9296400D01*
X16891000Y-9495400D02*
X16891000Y-9605400D01*
X16836000Y-9550400D02*
X16946000Y-9550400D01*
X16891000Y-9749400D02*
X16891000Y-9859400D01*
X16836000Y-9804400D02*
X16946000Y-9804400D01*
X16891000Y-10003400D02*
X16891000Y-10113400D01*
X16836000Y-10058400D02*
X16946000Y-10058400D01*
X16891000Y-10257400D02*
X16891000Y-10367400D01*
X16836000Y-10312400D02*
X16946000Y-10312400D01*
X16891000Y-10511400D02*
X16891000Y-10621400D01*
X16836000Y-10566400D02*
X16946000Y-10566400D01*
X16891000Y-10765400D02*
X16891000Y-10875400D01*
X16836000Y-10820400D02*
X16946000Y-10820400D01*
X16891000Y-11019400D02*
X16891000Y-11129400D01*
X16836000Y-11074400D02*
X16946000Y-11074400D01*
X16891000Y-11273400D02*
X16891000Y-11383400D01*
X16836000Y-11328400D02*
X16946000Y-11328400D01*
X16891000Y-11527400D02*
X16891000Y-11637400D01*
X16836000Y-11582400D02*
X16946000Y-11582400D01*
X16891000Y-11781400D02*
X16891000Y-11891400D01*
X16836000Y-11836400D02*
X16946000Y-11836400D01*
X16891000Y-12035400D02*
X16891000Y-12145400D01*
X16836000Y-12090400D02*
X16946000Y-12090400D01*
X16891000Y-12289400D02*
X16891000Y-12399400D01*
X16836000Y-12344400D02*
X16946000Y-12344400D01*
X16891000Y-12543400D02*
X16891000Y-12653400D01*
X16836000Y-12598400D02*
X16946000Y-12598400D01*
X16891000Y-12797400D02*
X16891000Y-12907400D01*
X16836000Y-12852400D02*
X16946000Y-12852400D01*
X16891000Y-13051400D02*
X16891000Y-13161400D01*
X16836000Y-13106400D02*
X16946000Y-13106400D01*
X16891000Y-13305400D02*
X16891000Y-13415400D01*
X16836000Y-13360400D02*
X16946000Y-13360400D01*
X16891000Y-13559400D02*
X16891000Y-13669400D01*
X16836000Y-13614400D02*
X16946000Y-13614400D01*
X16891000Y-13813400D02*
X16891000Y-13923400D01*
X16836000Y-13868400D02*
X16946000Y-13868400D01*
X16891000Y-14067400D02*
X16891000Y-14177400D01*
X16836000Y-14122400D02*
X16946000Y-14122400D01*
D11*
X15418919Y-14562376D02*
X15418919Y-14362376D01*
X15466538Y-14362376D01*
X15495109Y-14371900D01*
X15514157Y-14390948D01*
X15523681Y-14409995D01*
X15533205Y-14448090D01*
X15533205Y-14476662D01*
X15523681Y-14514757D01*
X15514157Y-14533805D01*
X15495109Y-14552852D01*
X15466538Y-14562376D01*
X15418919Y-14562376D01*
X15618919Y-14562376D02*
X15618919Y-14429043D01*
X15618919Y-14467138D02*
X15628443Y-14448090D01*
X15637967Y-14438567D01*
X15657014Y-14429043D01*
X15676062Y-14429043D01*
X15742728Y-14562376D02*
X15742728Y-14429043D01*
X15742728Y-14362376D02*
X15733205Y-14371900D01*
X15742728Y-14381424D01*
X15752252Y-14371900D01*
X15742728Y-14362376D01*
X15742728Y-14381424D01*
X15866538Y-14562376D02*
X15847490Y-14552852D01*
X15837967Y-14533805D01*
X15837967Y-14362376D01*
X15971300Y-14562376D02*
X15952252Y-14552852D01*
X15942728Y-14533805D01*
X15942728Y-14362376D01*
X16199871Y-14562376D02*
X16199871Y-14362376D01*
X16266538Y-14505233D01*
X16333205Y-14362376D01*
X16333205Y-14562376D01*
X16514157Y-14562376D02*
X16514157Y-14457614D01*
X16504633Y-14438567D01*
X16485586Y-14429043D01*
X16447490Y-14429043D01*
X16428443Y-14438567D01*
X16514157Y-14552852D02*
X16495109Y-14562376D01*
X16447490Y-14562376D01*
X16428443Y-14552852D01*
X16418919Y-14533805D01*
X16418919Y-14514757D01*
X16428443Y-14495709D01*
X16447490Y-14486186D01*
X16495109Y-14486186D01*
X16514157Y-14476662D01*
X16609395Y-14429043D02*
X16609395Y-14629043D01*
X16609395Y-14438567D02*
X16628443Y-14429043D01*
X16666538Y-14429043D01*
X16685586Y-14438567D01*
X16695109Y-14448090D01*
X16704633Y-14467138D01*
X16704633Y-14524281D01*
X16695109Y-14543328D01*
X16685586Y-14552852D01*
X16666538Y-14562376D01*
X16628443Y-14562376D01*
X16609395Y-14552852D01*
X16790348Y-14543328D02*
X16799871Y-14552852D01*
X16790348Y-14562376D01*
X16780824Y-14552852D01*
X16790348Y-14543328D01*
X16790348Y-14562376D01*
X16790348Y-14438567D02*
X16799871Y-14448090D01*
X16790348Y-14457614D01*
X16780824Y-14448090D01*
X16790348Y-14438567D01*
X16790348Y-14457614D01*
D12*
X15135900Y-14879200D02*
X15161300Y-14904600D01*
X15161300Y-14879200D02*
X15135900Y-14904600D01*
D11*
X15457014Y-14782376D02*
X15476062Y-14782376D01*
X15495109Y-14791900D01*
X15504633Y-14801424D01*
X15514157Y-14820471D01*
X15523681Y-14858567D01*
X15523681Y-14906186D01*
X15514157Y-14944281D01*
X15504633Y-14963328D01*
X15495109Y-14972852D01*
X15476062Y-14982376D01*
X15457014Y-14982376D01*
X15437967Y-14972852D01*
X15428443Y-14963328D01*
X15418919Y-14944281D01*
X15409395Y-14906186D01*
X15409395Y-14858567D01*
X15418919Y-14820471D01*
X15428443Y-14801424D01*
X15437967Y-14791900D01*
X15457014Y-14782376D01*
X15609395Y-14963328D02*
X15618919Y-14972852D01*
X15609395Y-14982376D01*
X15599871Y-14972852D01*
X15609395Y-14963328D01*
X15609395Y-14982376D01*
X15695109Y-14801424D02*
X15704633Y-14791900D01*
X15723681Y-14782376D01*
X15771300Y-14782376D01*
X15790348Y-14791900D01*
X15799871Y-14801424D01*
X15809395Y-14820471D01*
X15809395Y-14839519D01*
X15799871Y-14868090D01*
X15685586Y-14982376D01*
X15809395Y-14982376D01*
X15990348Y-14782376D02*
X15895109Y-14782376D01*
X15885586Y-14877614D01*
X15895109Y-14868090D01*
X15914157Y-14858567D01*
X15961776Y-14858567D01*
X15980824Y-14868090D01*
X15990348Y-14877614D01*
X15999871Y-14896662D01*
X15999871Y-14944281D01*
X15990348Y-14963328D01*
X15980824Y-14972852D01*
X15961776Y-14982376D01*
X15914157Y-14982376D01*
X15895109Y-14972852D01*
X15885586Y-14963328D01*
X16171300Y-14849043D02*
X16171300Y-14982376D01*
X16123681Y-14772852D02*
X16076062Y-14915709D01*
X16199871Y-14915709D01*
X16276062Y-14982376D02*
X16276062Y-14849043D01*
X16276062Y-14868090D02*
X16285586Y-14858567D01*
X16304633Y-14849043D01*
X16333205Y-14849043D01*
X16352252Y-14858567D01*
X16361776Y-14877614D01*
X16361776Y-14982376D01*
X16361776Y-14877614D02*
X16371300Y-14858567D01*
X16390348Y-14849043D01*
X16418919Y-14849043D01*
X16437967Y-14858567D01*
X16447490Y-14877614D01*
X16447490Y-14982376D01*
X16542728Y-14982376D02*
X16542728Y-14849043D01*
X16542728Y-14868090D02*
X16552252Y-14858567D01*
X16571300Y-14849043D01*
X16599871Y-14849043D01*
X16618919Y-14858567D01*
X16628443Y-14877614D01*
X16628443Y-14982376D01*
X16628443Y-14877614D02*
X16637967Y-14858567D01*
X16657014Y-14849043D01*
X16685586Y-14849043D01*
X16704633Y-14858567D01*
X16714157Y-14877614D01*
X16714157Y-14982376D01*
X17104633Y-14772852D02*
X16933205Y-15029995D01*
X17361776Y-14782376D02*
X17380824Y-14782376D01*
X17399871Y-14791900D01*
X17409395Y-14801424D01*
X17418919Y-14820471D01*
X17428443Y-14858567D01*
X17428443Y-14906186D01*
X17418919Y-14944281D01*
X17409395Y-14963328D01*
X17399871Y-14972852D01*
X17380824Y-14982376D01*
X17361776Y-14982376D01*
X17342729Y-14972852D01*
X17333205Y-14963328D01*
X17323681Y-14944281D01*
X17314157Y-14906186D01*
X17314157Y-14858567D01*
X17323681Y-14820471D01*
X17333205Y-14801424D01*
X17342729Y-14791900D01*
X17361776Y-14782376D01*
X17514157Y-14963328D02*
X17523681Y-14972852D01*
X17514157Y-14982376D01*
X17504633Y-14972852D01*
X17514157Y-14963328D01*
X17514157Y-14982376D01*
X17647490Y-14782376D02*
X17666538Y-14782376D01*
X17685586Y-14791900D01*
X17695110Y-14801424D01*
X17704633Y-14820471D01*
X17714157Y-14858567D01*
X17714157Y-14906186D01*
X17704633Y-14944281D01*
X17695110Y-14963328D01*
X17685586Y-14972852D01*
X17666538Y-14982376D01*
X17647490Y-14982376D01*
X17628443Y-14972852D01*
X17618919Y-14963328D01*
X17609395Y-14944281D01*
X17599871Y-14906186D01*
X17599871Y-14858567D01*
X17609395Y-14820471D01*
X17618919Y-14801424D01*
X17628443Y-14791900D01*
X17647490Y-14782376D01*
X17904633Y-14982376D02*
X17790348Y-14982376D01*
X17847490Y-14982376D02*
X17847490Y-14782376D01*
X17828443Y-14810948D01*
X17809395Y-14829995D01*
X17790348Y-14839519D01*
X18028443Y-14782376D02*
X18047490Y-14782376D01*
X18066538Y-14791900D01*
X18076062Y-14801424D01*
X18085586Y-14820471D01*
X18095110Y-14858567D01*
X18095110Y-14906186D01*
X18085586Y-14944281D01*
X18076062Y-14963328D01*
X18066538Y-14972852D01*
X18047490Y-14982376D01*
X18028443Y-14982376D01*
X18009395Y-14972852D01*
X17999871Y-14963328D01*
X17990348Y-14944281D01*
X17980824Y-14906186D01*
X17980824Y-14858567D01*
X17990348Y-14820471D01*
X17999871Y-14801424D01*
X18009395Y-14791900D01*
X18028443Y-14782376D01*
X18218919Y-14782376D02*
X18237967Y-14782376D01*
X18257014Y-14791900D01*
X18266538Y-14801424D01*
X18276062Y-14820471D01*
X18285586Y-14858567D01*
X18285586Y-14906186D01*
X18276062Y-14944281D01*
X18266538Y-14963328D01*
X18257014Y-14972852D01*
X18237967Y-14982376D01*
X18218919Y-14982376D01*
X18199871Y-14972852D01*
X18190348Y-14963328D01*
X18180824Y-14944281D01*
X18171300Y-14906186D01*
X18171300Y-14858567D01*
X18180824Y-14820471D01*
X18190348Y-14801424D01*
X18199871Y-14791900D01*
X18218919Y-14782376D01*
X18361776Y-14782376D02*
X18361776Y-14820471D01*
X18437967Y-14782376D02*
X18437967Y-14820471D01*
X18733205Y-15058567D02*
X18723681Y-15049043D01*
X18704633Y-15020471D01*
X18695110Y-15001424D01*
X18685586Y-14972852D01*
X18676062Y-14925233D01*
X18676062Y-14887138D01*
X18685586Y-14839519D01*
X18695110Y-14810948D01*
X18704633Y-14791900D01*
X18723681Y-14763328D01*
X18733205Y-14753805D01*
X18904633Y-14782376D02*
X18809395Y-14782376D01*
X18799871Y-14877614D01*
X18809395Y-14868090D01*
X18828443Y-14858567D01*
X18876062Y-14858567D01*
X18895110Y-14868090D01*
X18904633Y-14877614D01*
X18914157Y-14896662D01*
X18914157Y-14944281D01*
X18904633Y-14963328D01*
X18895110Y-14972852D01*
X18876062Y-14982376D01*
X18828443Y-14982376D01*
X18809395Y-14972852D01*
X18799871Y-14963328D01*
X18980824Y-14782376D02*
X19104633Y-14782376D01*
X19037967Y-14858567D01*
X19066538Y-14858567D01*
X19085586Y-14868090D01*
X19095110Y-14877614D01*
X19104633Y-14896662D01*
X19104633Y-14944281D01*
X19095110Y-14963328D01*
X19085586Y-14972852D01*
X19066538Y-14982376D01*
X19009395Y-14982376D01*
X18990348Y-14972852D01*
X18980824Y-14963328D01*
X19342729Y-14982376D02*
X19342729Y-14782376D01*
X19428443Y-14982376D02*
X19428443Y-14877614D01*
X19418919Y-14858567D01*
X19399871Y-14849043D01*
X19371300Y-14849043D01*
X19352252Y-14858567D01*
X19342729Y-14868090D01*
X19552252Y-14982376D02*
X19533205Y-14972852D01*
X19523681Y-14963328D01*
X19514157Y-14944281D01*
X19514157Y-14887138D01*
X19523681Y-14868090D01*
X19533205Y-14858567D01*
X19552252Y-14849043D01*
X19580824Y-14849043D01*
X19599871Y-14858567D01*
X19609395Y-14868090D01*
X19618919Y-14887138D01*
X19618919Y-14944281D01*
X19609395Y-14963328D01*
X19599871Y-14972852D01*
X19580824Y-14982376D01*
X19552252Y-14982376D01*
X19733205Y-14982376D02*
X19714157Y-14972852D01*
X19704633Y-14953805D01*
X19704633Y-14782376D01*
X19885586Y-14972852D02*
X19866538Y-14982376D01*
X19828443Y-14982376D01*
X19809395Y-14972852D01*
X19799871Y-14953805D01*
X19799871Y-14877614D01*
X19809395Y-14858567D01*
X19828443Y-14849043D01*
X19866538Y-14849043D01*
X19885586Y-14858567D01*
X19895110Y-14877614D01*
X19895110Y-14896662D01*
X19799871Y-14915709D01*
X19971300Y-14972852D02*
X19990348Y-14982376D01*
X20028443Y-14982376D01*
X20047490Y-14972852D01*
X20057014Y-14953805D01*
X20057014Y-14944281D01*
X20047490Y-14925233D01*
X20028443Y-14915709D01*
X19999871Y-14915709D01*
X19980824Y-14906186D01*
X19971300Y-14887138D01*
X19971300Y-14877614D01*
X19980824Y-14858567D01*
X19999871Y-14849043D01*
X20028443Y-14849043D01*
X20047490Y-14858567D01*
X20123681Y-15058567D02*
X20133205Y-15049043D01*
X20152252Y-15020471D01*
X20161776Y-15001424D01*
X20171300Y-14972852D01*
X20180824Y-14925233D01*
X20180824Y-14887138D01*
X20171300Y-14839519D01*
X20161776Y-14810948D01*
X20152252Y-14791900D01*
X20133205Y-14763328D01*
X20123681Y-14753805D01*
D13*
X15161300Y-15155900D02*
G75*
G03*
X15161300Y-15155900I-40000J0D01*
G01*
D11*
X15457014Y-15046376D02*
X15476062Y-15046376D01*
X15495109Y-15055900D01*
X15504633Y-15065424D01*
X15514157Y-15084471D01*
X15523681Y-15122567D01*
X15523681Y-15170186D01*
X15514157Y-15208281D01*
X15504633Y-15227328D01*
X15495109Y-15236852D01*
X15476062Y-15246376D01*
X15457014Y-15246376D01*
X15437967Y-15236852D01*
X15428443Y-15227328D01*
X15418919Y-15208281D01*
X15409395Y-15170186D01*
X15409395Y-15122567D01*
X15418919Y-15084471D01*
X15428443Y-15065424D01*
X15437967Y-15055900D01*
X15457014Y-15046376D01*
X15609395Y-15227328D02*
X15618919Y-15236852D01*
X15609395Y-15246376D01*
X15599871Y-15236852D01*
X15609395Y-15227328D01*
X15609395Y-15246376D01*
X15733205Y-15132090D02*
X15714157Y-15122567D01*
X15704633Y-15113043D01*
X15695109Y-15093995D01*
X15695109Y-15084471D01*
X15704633Y-15065424D01*
X15714157Y-15055900D01*
X15733205Y-15046376D01*
X15771300Y-15046376D01*
X15790348Y-15055900D01*
X15799871Y-15065424D01*
X15809395Y-15084471D01*
X15809395Y-15093995D01*
X15799871Y-15113043D01*
X15790348Y-15122567D01*
X15771300Y-15132090D01*
X15733205Y-15132090D01*
X15714157Y-15141614D01*
X15704633Y-15151138D01*
X15695109Y-15170186D01*
X15695109Y-15208281D01*
X15704633Y-15227328D01*
X15714157Y-15236852D01*
X15733205Y-15246376D01*
X15771300Y-15246376D01*
X15790348Y-15236852D01*
X15799871Y-15227328D01*
X15809395Y-15208281D01*
X15809395Y-15170186D01*
X15799871Y-15151138D01*
X15790348Y-15141614D01*
X15771300Y-15132090D01*
X15933205Y-15046376D02*
X15952252Y-15046376D01*
X15971300Y-15055900D01*
X15980824Y-15065424D01*
X15990348Y-15084471D01*
X15999871Y-15122567D01*
X15999871Y-15170186D01*
X15990348Y-15208281D01*
X15980824Y-15227328D01*
X15971300Y-15236852D01*
X15952252Y-15246376D01*
X15933205Y-15246376D01*
X15914157Y-15236852D01*
X15904633Y-15227328D01*
X15895109Y-15208281D01*
X15885586Y-15170186D01*
X15885586Y-15122567D01*
X15895109Y-15084471D01*
X15904633Y-15065424D01*
X15914157Y-15055900D01*
X15933205Y-15046376D01*
X16123681Y-15046376D02*
X16142728Y-15046376D01*
X16161776Y-15055900D01*
X16171300Y-15065424D01*
X16180824Y-15084471D01*
X16190348Y-15122567D01*
X16190348Y-15170186D01*
X16180824Y-15208281D01*
X16171300Y-15227328D01*
X16161776Y-15236852D01*
X16142728Y-15246376D01*
X16123681Y-15246376D01*
X16104633Y-15236852D01*
X16095109Y-15227328D01*
X16085586Y-15208281D01*
X16076062Y-15170186D01*
X16076062Y-15122567D01*
X16085586Y-15084471D01*
X16095109Y-15065424D01*
X16104633Y-15055900D01*
X16123681Y-15046376D01*
X16276062Y-15246376D02*
X16276062Y-15113043D01*
X16276062Y-15132090D02*
X16285586Y-15122567D01*
X16304633Y-15113043D01*
X16333205Y-15113043D01*
X16352252Y-15122567D01*
X16361776Y-15141614D01*
X16361776Y-15246376D01*
X16361776Y-15141614D02*
X16371300Y-15122567D01*
X16390348Y-15113043D01*
X16418919Y-15113043D01*
X16437967Y-15122567D01*
X16447490Y-15141614D01*
X16447490Y-15246376D01*
X16542728Y-15246376D02*
X16542728Y-15113043D01*
X16542728Y-15132090D02*
X16552252Y-15122567D01*
X16571300Y-15113043D01*
X16599871Y-15113043D01*
X16618919Y-15122567D01*
X16628443Y-15141614D01*
X16628443Y-15246376D01*
X16628443Y-15141614D02*
X16637967Y-15122567D01*
X16657014Y-15113043D01*
X16685586Y-15113043D01*
X16704633Y-15122567D01*
X16714157Y-15141614D01*
X16714157Y-15246376D01*
X17104633Y-15036852D02*
X16933205Y-15293995D01*
X17361776Y-15046376D02*
X17380824Y-15046376D01*
X17399871Y-15055900D01*
X17409395Y-15065424D01*
X17418919Y-15084471D01*
X17428443Y-15122567D01*
X17428443Y-15170186D01*
X17418919Y-15208281D01*
X17409395Y-15227328D01*
X17399871Y-15236852D01*
X17380824Y-15246376D01*
X17361776Y-15246376D01*
X17342729Y-15236852D01*
X17333205Y-15227328D01*
X17323681Y-15208281D01*
X17314157Y-15170186D01*
X17314157Y-15122567D01*
X17323681Y-15084471D01*
X17333205Y-15065424D01*
X17342729Y-15055900D01*
X17361776Y-15046376D01*
X17514157Y-15227328D02*
X17523681Y-15236852D01*
X17514157Y-15246376D01*
X17504633Y-15236852D01*
X17514157Y-15227328D01*
X17514157Y-15246376D01*
X17647490Y-15046376D02*
X17666538Y-15046376D01*
X17685586Y-15055900D01*
X17695110Y-15065424D01*
X17704633Y-15084471D01*
X17714157Y-15122567D01*
X17714157Y-15170186D01*
X17704633Y-15208281D01*
X17695110Y-15227328D01*
X17685586Y-15236852D01*
X17666538Y-15246376D01*
X17647490Y-15246376D01*
X17628443Y-15236852D01*
X17618919Y-15227328D01*
X17609395Y-15208281D01*
X17599871Y-15170186D01*
X17599871Y-15122567D01*
X17609395Y-15084471D01*
X17618919Y-15065424D01*
X17628443Y-15055900D01*
X17647490Y-15046376D01*
X17780824Y-15046376D02*
X17904633Y-15046376D01*
X17837967Y-15122567D01*
X17866538Y-15122567D01*
X17885586Y-15132090D01*
X17895110Y-15141614D01*
X17904633Y-15160662D01*
X17904633Y-15208281D01*
X17895110Y-15227328D01*
X17885586Y-15236852D01*
X17866538Y-15246376D01*
X17809395Y-15246376D01*
X17790348Y-15236852D01*
X17780824Y-15227328D01*
X18095110Y-15246376D02*
X17980824Y-15246376D01*
X18037967Y-15246376D02*
X18037967Y-15046376D01*
X18018919Y-15074948D01*
X17999871Y-15093995D01*
X17980824Y-15103519D01*
X18276062Y-15046376D02*
X18180824Y-15046376D01*
X18171300Y-15141614D01*
X18180824Y-15132090D01*
X18199871Y-15122567D01*
X18247490Y-15122567D01*
X18266538Y-15132090D01*
X18276062Y-15141614D01*
X18285586Y-15160662D01*
X18285586Y-15208281D01*
X18276062Y-15227328D01*
X18266538Y-15236852D01*
X18247490Y-15246376D01*
X18199871Y-15246376D01*
X18180824Y-15236852D01*
X18171300Y-15227328D01*
X18361776Y-15046376D02*
X18361776Y-15084471D01*
X18437967Y-15046376D02*
X18437967Y-15084471D01*
X18733205Y-15322567D02*
X18723681Y-15313043D01*
X18704633Y-15284471D01*
X18695110Y-15265424D01*
X18685586Y-15236852D01*
X18676062Y-15189233D01*
X18676062Y-15151138D01*
X18685586Y-15103519D01*
X18695110Y-15074948D01*
X18704633Y-15055900D01*
X18723681Y-15027328D01*
X18733205Y-15017805D01*
X18895110Y-15113043D02*
X18895110Y-15246376D01*
X18847490Y-15036852D02*
X18799871Y-15179709D01*
X18923681Y-15179709D01*
X19037967Y-15046376D02*
X19057014Y-15046376D01*
X19076062Y-15055900D01*
X19085586Y-15065424D01*
X19095110Y-15084471D01*
X19104633Y-15122567D01*
X19104633Y-15170186D01*
X19095110Y-15208281D01*
X19085586Y-15227328D01*
X19076062Y-15236852D01*
X19057014Y-15246376D01*
X19037967Y-15246376D01*
X19018919Y-15236852D01*
X19009395Y-15227328D01*
X18999871Y-15208281D01*
X18990348Y-15170186D01*
X18990348Y-15122567D01*
X18999871Y-15084471D01*
X19009395Y-15065424D01*
X19018919Y-15055900D01*
X19037967Y-15046376D01*
X19342729Y-15246376D02*
X19342729Y-15046376D01*
X19428443Y-15246376D02*
X19428443Y-15141614D01*
X19418919Y-15122567D01*
X19399871Y-15113043D01*
X19371300Y-15113043D01*
X19352252Y-15122567D01*
X19342729Y-15132090D01*
X19552252Y-15246376D02*
X19533205Y-15236852D01*
X19523681Y-15227328D01*
X19514157Y-15208281D01*
X19514157Y-15151138D01*
X19523681Y-15132090D01*
X19533205Y-15122567D01*
X19552252Y-15113043D01*
X19580824Y-15113043D01*
X19599871Y-15122567D01*
X19609395Y-15132090D01*
X19618919Y-15151138D01*
X19618919Y-15208281D01*
X19609395Y-15227328D01*
X19599871Y-15236852D01*
X19580824Y-15246376D01*
X19552252Y-15246376D01*
X19733205Y-15246376D02*
X19714157Y-15236852D01*
X19704633Y-15217805D01*
X19704633Y-15046376D01*
X19885586Y-15236852D02*
X19866538Y-15246376D01*
X19828443Y-15246376D01*
X19809395Y-15236852D01*
X19799871Y-15217805D01*
X19799871Y-15141614D01*
X19809395Y-15122567D01*
X19828443Y-15113043D01*
X19866538Y-15113043D01*
X19885586Y-15122567D01*
X19895110Y-15141614D01*
X19895110Y-15160662D01*
X19799871Y-15179709D01*
X19971300Y-15236852D02*
X19990348Y-15246376D01*
X20028443Y-15246376D01*
X20047490Y-15236852D01*
X20057014Y-15217805D01*
X20057014Y-15208281D01*
X20047490Y-15189233D01*
X20028443Y-15179709D01*
X19999871Y-15179709D01*
X19980824Y-15170186D01*
X19971300Y-15151138D01*
X19971300Y-15141614D01*
X19980824Y-15122567D01*
X19999871Y-15113043D01*
X20028443Y-15113043D01*
X20047490Y-15122567D01*
X20123681Y-15322567D02*
X20133205Y-15313043D01*
X20152252Y-15284471D01*
X20161776Y-15265424D01*
X20171300Y-15236852D01*
X20180824Y-15189233D01*
X20180824Y-15151138D01*
X20171300Y-15103519D01*
X20161776Y-15074948D01*
X20152252Y-15055900D01*
X20133205Y-15027328D01*
X20123681Y-15017805D01*
D14*
X15106300Y-15364900D02*
X15106300Y-15474900D01*
X15051300Y-15419900D02*
X15161300Y-15419900D01*
D11*
X15523681Y-15510376D02*
X15409395Y-15510376D01*
X15466538Y-15510376D02*
X15466538Y-15310376D01*
X15447490Y-15338948D01*
X15428443Y-15357995D01*
X15409395Y-15367519D01*
X15609395Y-15491328D02*
X15618919Y-15500852D01*
X15609395Y-15510376D01*
X15599871Y-15500852D01*
X15609395Y-15491328D01*
X15609395Y-15510376D01*
X15809395Y-15510376D02*
X15695109Y-15510376D01*
X15752252Y-15510376D02*
X15752252Y-15310376D01*
X15733205Y-15338948D01*
X15714157Y-15357995D01*
X15695109Y-15367519D01*
X15933205Y-15310376D02*
X15952252Y-15310376D01*
X15971300Y-15319900D01*
X15980824Y-15329424D01*
X15990348Y-15348471D01*
X15999871Y-15386567D01*
X15999871Y-15434186D01*
X15990348Y-15472281D01*
X15980824Y-15491328D01*
X15971300Y-15500852D01*
X15952252Y-15510376D01*
X15933205Y-15510376D01*
X15914157Y-15500852D01*
X15904633Y-15491328D01*
X15895109Y-15472281D01*
X15885586Y-15434186D01*
X15885586Y-15386567D01*
X15895109Y-15348471D01*
X15904633Y-15329424D01*
X15914157Y-15319900D01*
X15933205Y-15310376D01*
X16123681Y-15310376D02*
X16142728Y-15310376D01*
X16161776Y-15319900D01*
X16171300Y-15329424D01*
X16180824Y-15348471D01*
X16190348Y-15386567D01*
X16190348Y-15434186D01*
X16180824Y-15472281D01*
X16171300Y-15491328D01*
X16161776Y-15500852D01*
X16142728Y-15510376D01*
X16123681Y-15510376D01*
X16104633Y-15500852D01*
X16095109Y-15491328D01*
X16085586Y-15472281D01*
X16076062Y-15434186D01*
X16076062Y-15386567D01*
X16085586Y-15348471D01*
X16095109Y-15329424D01*
X16104633Y-15319900D01*
X16123681Y-15310376D01*
X16276062Y-15510376D02*
X16276062Y-15377043D01*
X16276062Y-15396090D02*
X16285586Y-15386567D01*
X16304633Y-15377043D01*
X16333205Y-15377043D01*
X16352252Y-15386567D01*
X16361776Y-15405614D01*
X16361776Y-15510376D01*
X16361776Y-15405614D02*
X16371300Y-15386567D01*
X16390348Y-15377043D01*
X16418919Y-15377043D01*
X16437967Y-15386567D01*
X16447490Y-15405614D01*
X16447490Y-15510376D01*
X16542728Y-15510376D02*
X16542728Y-15377043D01*
X16542728Y-15396090D02*
X16552252Y-15386567D01*
X16571300Y-15377043D01*
X16599871Y-15377043D01*
X16618919Y-15386567D01*
X16628443Y-15405614D01*
X16628443Y-15510376D01*
X16628443Y-15405614D02*
X16637967Y-15386567D01*
X16657014Y-15377043D01*
X16685586Y-15377043D01*
X16704633Y-15386567D01*
X16714157Y-15405614D01*
X16714157Y-15510376D01*
X17104633Y-15300852D02*
X16933205Y-15557995D01*
X17361776Y-15310376D02*
X17380824Y-15310376D01*
X17399871Y-15319900D01*
X17409395Y-15329424D01*
X17418919Y-15348471D01*
X17428443Y-15386567D01*
X17428443Y-15434186D01*
X17418919Y-15472281D01*
X17409395Y-15491328D01*
X17399871Y-15500852D01*
X17380824Y-15510376D01*
X17361776Y-15510376D01*
X17342729Y-15500852D01*
X17333205Y-15491328D01*
X17323681Y-15472281D01*
X17314157Y-15434186D01*
X17314157Y-15386567D01*
X17323681Y-15348471D01*
X17333205Y-15329424D01*
X17342729Y-15319900D01*
X17361776Y-15310376D01*
X17514157Y-15491328D02*
X17523681Y-15500852D01*
X17514157Y-15510376D01*
X17504633Y-15500852D01*
X17514157Y-15491328D01*
X17514157Y-15510376D01*
X17647490Y-15310376D02*
X17666538Y-15310376D01*
X17685586Y-15319900D01*
X17695110Y-15329424D01*
X17704633Y-15348471D01*
X17714157Y-15386567D01*
X17714157Y-15434186D01*
X17704633Y-15472281D01*
X17695110Y-15491328D01*
X17685586Y-15500852D01*
X17666538Y-15510376D01*
X17647490Y-15510376D01*
X17628443Y-15500852D01*
X17618919Y-15491328D01*
X17609395Y-15472281D01*
X17599871Y-15434186D01*
X17599871Y-15386567D01*
X17609395Y-15348471D01*
X17618919Y-15329424D01*
X17628443Y-15319900D01*
X17647490Y-15310376D01*
X17885586Y-15377043D02*
X17885586Y-15510376D01*
X17837967Y-15300852D02*
X17790348Y-15443709D01*
X17914157Y-15443709D01*
X17971300Y-15310376D02*
X18095110Y-15310376D01*
X18028443Y-15386567D01*
X18057014Y-15386567D01*
X18076062Y-15396090D01*
X18085586Y-15405614D01*
X18095110Y-15424662D01*
X18095110Y-15472281D01*
X18085586Y-15491328D01*
X18076062Y-15500852D01*
X18057014Y-15510376D01*
X17999871Y-15510376D01*
X17980824Y-15500852D01*
X17971300Y-15491328D01*
X18161776Y-15310376D02*
X18285586Y-15310376D01*
X18218919Y-15386567D01*
X18247490Y-15386567D01*
X18266538Y-15396090D01*
X18276062Y-15405614D01*
X18285586Y-15424662D01*
X18285586Y-15472281D01*
X18276062Y-15491328D01*
X18266538Y-15500852D01*
X18247490Y-15510376D01*
X18190348Y-15510376D01*
X18171300Y-15500852D01*
X18161776Y-15491328D01*
X18361776Y-15310376D02*
X18361776Y-15348471D01*
X18437967Y-15310376D02*
X18437967Y-15348471D01*
X18733205Y-15586567D02*
X18723681Y-15577043D01*
X18704633Y-15548471D01*
X18695110Y-15529424D01*
X18685586Y-15500852D01*
X18676062Y-15453233D01*
X18676062Y-15415138D01*
X18685586Y-15367519D01*
X18695110Y-15338948D01*
X18704633Y-15319900D01*
X18723681Y-15291328D01*
X18733205Y-15281805D01*
X18895110Y-15377043D02*
X18895110Y-15510376D01*
X18847490Y-15300852D02*
X18799871Y-15443709D01*
X18923681Y-15443709D01*
X19028443Y-15396090D02*
X19009395Y-15386567D01*
X18999871Y-15377043D01*
X18990348Y-15357995D01*
X18990348Y-15348471D01*
X18999871Y-15329424D01*
X19009395Y-15319900D01*
X19028443Y-15310376D01*
X19066538Y-15310376D01*
X19085586Y-15319900D01*
X19095110Y-15329424D01*
X19104633Y-15348471D01*
X19104633Y-15357995D01*
X19095110Y-15377043D01*
X19085586Y-15386567D01*
X19066538Y-15396090D01*
X19028443Y-15396090D01*
X19009395Y-15405614D01*
X18999871Y-15415138D01*
X18990348Y-15434186D01*
X18990348Y-15472281D01*
X18999871Y-15491328D01*
X19009395Y-15500852D01*
X19028443Y-15510376D01*
X19066538Y-15510376D01*
X19085586Y-15500852D01*
X19095110Y-15491328D01*
X19104633Y-15472281D01*
X19104633Y-15434186D01*
X19095110Y-15415138D01*
X19085586Y-15405614D01*
X19066538Y-15396090D01*
X19342729Y-15510376D02*
X19342729Y-15310376D01*
X19428443Y-15510376D02*
X19428443Y-15405614D01*
X19418919Y-15386567D01*
X19399871Y-15377043D01*
X19371300Y-15377043D01*
X19352252Y-15386567D01*
X19342729Y-15396090D01*
X19552252Y-15510376D02*
X19533205Y-15500852D01*
X19523681Y-15491328D01*
X19514157Y-15472281D01*
X19514157Y-15415138D01*
X19523681Y-15396090D01*
X19533205Y-15386567D01*
X19552252Y-15377043D01*
X19580824Y-15377043D01*
X19599871Y-15386567D01*
X19609395Y-15396090D01*
X19618919Y-15415138D01*
X19618919Y-15472281D01*
X19609395Y-15491328D01*
X19599871Y-15500852D01*
X19580824Y-15510376D01*
X19552252Y-15510376D01*
X19733205Y-15510376D02*
X19714157Y-15500852D01*
X19704633Y-15481805D01*
X19704633Y-15310376D01*
X19885586Y-15500852D02*
X19866538Y-15510376D01*
X19828443Y-15510376D01*
X19809395Y-15500852D01*
X19799871Y-15481805D01*
X19799871Y-15405614D01*
X19809395Y-15386567D01*
X19828443Y-15377043D01*
X19866538Y-15377043D01*
X19885586Y-15386567D01*
X19895110Y-15405614D01*
X19895110Y-15424662D01*
X19799871Y-15443709D01*
X19971300Y-15500852D02*
X19990348Y-15510376D01*
X20028443Y-15510376D01*
X20047490Y-15500852D01*
X20057014Y-15481805D01*
X20057014Y-15472281D01*
X20047490Y-15453233D01*
X20028443Y-15443709D01*
X19999871Y-15443709D01*
X19980824Y-15434186D01*
X19971300Y-15415138D01*
X19971300Y-15405614D01*
X19980824Y-15386567D01*
X19999871Y-15377043D01*
X20028443Y-15377043D01*
X20047490Y-15386567D01*
X20123681Y-15586567D02*
X20133205Y-15577043D01*
X20152252Y-15548471D01*
X20161776Y-15529424D01*
X20171300Y-15500852D01*
X20180824Y-15453233D01*
X20180824Y-15415138D01*
X20171300Y-15367519D01*
X20161776Y-15338948D01*
X20152252Y-15319900D01*
X20133205Y-15291328D01*
X20123681Y-15281805D01*
M02*
