G04 #@! TF.GenerationSoftware,KiCad,Pcbnew,(6.0.5)*
G04 #@! TF.CreationDate,2024-06-24T20:21:06-07:00*
G04 #@! TF.ProjectId,MCL6809_PCB,4d434c36-3830-4395-9f50-43422e6b6963,rev?*
G04 #@! TF.SameCoordinates,Original*
G04 #@! TF.FileFunction,Paste,Top*
G04 #@! TF.FilePolarity,Positive*
%FSLAX46Y46*%
G04 Gerber Fmt 4.6, Leading zero omitted, Abs format (unit mm)*
G04 Created by KiCad (PCBNEW (6.0.5)) date 2024-06-24 20:21:06*
%MOMM*%
%LPD*%
G01*
G04 APERTURE LIST*
G04 Aperture macros list*
%AMRoundRect*
0 Rectangle with rounded corners*
0 $1 Rounding radius*
0 $2 $3 $4 $5 $6 $7 $8 $9 X,Y pos of 4 corners*
0 Add a 4 corners polygon primitive as box body*
4,1,4,$2,$3,$4,$5,$6,$7,$8,$9,$2,$3,0*
0 Add four circle primitives for the rounded corners*
1,1,$1+$1,$2,$3*
1,1,$1+$1,$4,$5*
1,1,$1+$1,$6,$7*
1,1,$1+$1,$8,$9*
0 Add four rect primitives between the rounded corners*
20,1,$1+$1,$2,$3,$4,$5,0*
20,1,$1+$1,$4,$5,$6,$7,0*
20,1,$1+$1,$6,$7,$8,$9,0*
20,1,$1+$1,$8,$9,$2,$3,0*%
G04 Aperture macros list end*
%ADD10RoundRect,0.100000X0.637500X0.100000X-0.637500X0.100000X-0.637500X-0.100000X0.637500X-0.100000X0*%
%ADD11RoundRect,0.100000X-0.637500X-0.100000X0.637500X-0.100000X0.637500X0.100000X-0.637500X0.100000X0*%
%ADD12RoundRect,0.100000X-0.100000X0.637500X-0.100000X-0.637500X0.100000X-0.637500X0.100000X0.637500X0*%
G04 APERTURE END LIST*
D10*
X178122500Y-119257000D03*
X178122500Y-118607000D03*
X178122500Y-117957000D03*
X178122500Y-117307000D03*
X178122500Y-116657000D03*
X178122500Y-116007000D03*
X178122500Y-115357000D03*
X178122500Y-114707000D03*
X178122500Y-114057000D03*
X178122500Y-113407000D03*
X172397500Y-113407000D03*
X172397500Y-114057000D03*
X172397500Y-114707000D03*
X172397500Y-115357000D03*
X172397500Y-116007000D03*
X172397500Y-116657000D03*
X172397500Y-117307000D03*
X172397500Y-117957000D03*
X172397500Y-118607000D03*
X172397500Y-119257000D03*
D11*
X157157500Y-123567000D03*
X157157500Y-124217000D03*
X157157500Y-124867000D03*
X157157500Y-125517000D03*
X157157500Y-126167000D03*
X157157500Y-126817000D03*
X157157500Y-127467000D03*
X157157500Y-128117000D03*
X157157500Y-128767000D03*
X157157500Y-129417000D03*
X162882500Y-129417000D03*
X162882500Y-128767000D03*
X162882500Y-128117000D03*
X162882500Y-127467000D03*
X162882500Y-126817000D03*
X162882500Y-126167000D03*
X162882500Y-125517000D03*
X162882500Y-124867000D03*
X162882500Y-124217000D03*
X162882500Y-123567000D03*
D12*
X177931000Y-86291500D03*
X177281000Y-86291500D03*
X176631000Y-86291500D03*
X175981000Y-86291500D03*
X175331000Y-86291500D03*
X174681000Y-86291500D03*
X174031000Y-86291500D03*
X173381000Y-86291500D03*
X172731000Y-86291500D03*
X172081000Y-86291500D03*
X172081000Y-92016500D03*
X172731000Y-92016500D03*
X173381000Y-92016500D03*
X174031000Y-92016500D03*
X174681000Y-92016500D03*
X175331000Y-92016500D03*
X175981000Y-92016500D03*
X176631000Y-92016500D03*
X177281000Y-92016500D03*
X177931000Y-92016500D03*
D11*
X172397500Y-104009000D03*
X172397500Y-104659000D03*
X172397500Y-105309000D03*
X172397500Y-105959000D03*
X172397500Y-106609000D03*
X172397500Y-107259000D03*
X172397500Y-107909000D03*
X172397500Y-108559000D03*
X172397500Y-109209000D03*
X172397500Y-109859000D03*
X178122500Y-109859000D03*
X178122500Y-109209000D03*
X178122500Y-108559000D03*
X178122500Y-107909000D03*
X178122500Y-107259000D03*
X178122500Y-106609000D03*
X178122500Y-105959000D03*
X178122500Y-105309000D03*
X178122500Y-104659000D03*
X178122500Y-104009000D03*
X157157500Y-104771000D03*
X157157500Y-105421000D03*
X157157500Y-106071000D03*
X157157500Y-106721000D03*
X157157500Y-107371000D03*
X157157500Y-108021000D03*
X157157500Y-108671000D03*
X157157500Y-109321000D03*
X157157500Y-109971000D03*
X157157500Y-110621000D03*
X162882500Y-110621000D03*
X162882500Y-109971000D03*
X162882500Y-109321000D03*
X162882500Y-108671000D03*
X162882500Y-108021000D03*
X162882500Y-107371000D03*
X162882500Y-106721000D03*
X162882500Y-106071000D03*
X162882500Y-105421000D03*
X162882500Y-104771000D03*
M02*
