G04 #@! TF.GenerationSoftware,KiCad,Pcbnew,(6.0.5)*
G04 #@! TF.CreationDate,2024-06-24T20:21:06-07:00*
G04 #@! TF.ProjectId,MCL6809_PCB,4d434c36-3830-4395-9f50-43422e6b6963,rev?*
G04 #@! TF.SameCoordinates,Original*
G04 #@! TF.FileFunction,Legend,Top*
G04 #@! TF.FilePolarity,Positive*
%FSLAX46Y46*%
G04 Gerber Fmt 4.6, Leading zero omitted, Abs format (unit mm)*
G04 Created by KiCad (PCBNEW (6.0.5)) date 2024-06-24 20:21:06*
%MOMM*%
%LPD*%
G01*
G04 APERTURE LIST*
G04 Aperture macros list*
%AMRoundRect*
0 Rectangle with rounded corners*
0 $1 Rounding radius*
0 $2 $3 $4 $5 $6 $7 $8 $9 X,Y pos of 4 corners*
0 Add a 4 corners polygon primitive as box body*
4,1,4,$2,$3,$4,$5,$6,$7,$8,$9,$2,$3,0*
0 Add four circle primitives for the rounded corners*
1,1,$1+$1,$2,$3*
1,1,$1+$1,$4,$5*
1,1,$1+$1,$6,$7*
1,1,$1+$1,$8,$9*
0 Add four rect primitives between the rounded corners*
20,1,$1+$1,$2,$3,$4,$5,0*
20,1,$1+$1,$4,$5,$6,$7,0*
20,1,$1+$1,$6,$7,$8,$9,0*
20,1,$1+$1,$8,$9,$2,$3,0*%
G04 Aperture macros list end*
%ADD10C,0.150000*%
%ADD11C,0.100000*%
%ADD12C,0.120000*%
%ADD13RoundRect,0.100000X0.637500X0.100000X-0.637500X0.100000X-0.637500X-0.100000X0.637500X-0.100000X0*%
%ADD14R,1.600000X1.600000*%
%ADD15C,1.600000*%
%ADD16RoundRect,0.100000X-0.637500X-0.100000X0.637500X-0.100000X0.637500X0.100000X-0.637500X0.100000X0*%
%ADD17O,1.600000X1.600000*%
%ADD18RoundRect,0.100000X-0.100000X0.637500X-0.100000X-0.637500X0.100000X-0.637500X0.100000X0.637500X0*%
G04 APERTURE END LIST*
D10*
X171490380Y-137823380D02*
X171490380Y-136823380D01*
X171823714Y-137537666D01*
X172157047Y-136823380D01*
X172157047Y-137823380D01*
X172633238Y-137823380D02*
X172633238Y-137156714D01*
X172633238Y-136823380D02*
X172585619Y-136871000D01*
X172633238Y-136918619D01*
X172680857Y-136871000D01*
X172633238Y-136823380D01*
X172633238Y-136918619D01*
X173538000Y-137775761D02*
X173442761Y-137823380D01*
X173252285Y-137823380D01*
X173157047Y-137775761D01*
X173109428Y-137728142D01*
X173061809Y-137632904D01*
X173061809Y-137347190D01*
X173109428Y-137251952D01*
X173157047Y-137204333D01*
X173252285Y-137156714D01*
X173442761Y-137156714D01*
X173538000Y-137204333D01*
X173966571Y-137823380D02*
X173966571Y-137156714D01*
X173966571Y-137347190D02*
X174014190Y-137251952D01*
X174061809Y-137204333D01*
X174157047Y-137156714D01*
X174252285Y-137156714D01*
X174728476Y-137823380D02*
X174633238Y-137775761D01*
X174585619Y-137728142D01*
X174538000Y-137632904D01*
X174538000Y-137347190D01*
X174585619Y-137251952D01*
X174633238Y-137204333D01*
X174728476Y-137156714D01*
X174871333Y-137156714D01*
X174966571Y-137204333D01*
X175014190Y-137251952D01*
X175061809Y-137347190D01*
X175061809Y-137632904D01*
X175014190Y-137728142D01*
X174966571Y-137775761D01*
X174871333Y-137823380D01*
X174728476Y-137823380D01*
X176061809Y-137728142D02*
X176014190Y-137775761D01*
X175871333Y-137823380D01*
X175776095Y-137823380D01*
X175633238Y-137775761D01*
X175538000Y-137680523D01*
X175490380Y-137585285D01*
X175442761Y-137394809D01*
X175442761Y-137251952D01*
X175490380Y-137061476D01*
X175538000Y-136966238D01*
X175633238Y-136871000D01*
X175776095Y-136823380D01*
X175871333Y-136823380D01*
X176014190Y-136871000D01*
X176061809Y-136918619D01*
X176633238Y-137823380D02*
X176538000Y-137775761D01*
X176490380Y-137728142D01*
X176442761Y-137632904D01*
X176442761Y-137347190D01*
X176490380Y-137251952D01*
X176538000Y-137204333D01*
X176633238Y-137156714D01*
X176776095Y-137156714D01*
X176871333Y-137204333D01*
X176918952Y-137251952D01*
X176966571Y-137347190D01*
X176966571Y-137632904D01*
X176918952Y-137728142D01*
X176871333Y-137775761D01*
X176776095Y-137823380D01*
X176633238Y-137823380D01*
X177395142Y-137823380D02*
X177395142Y-137156714D01*
X177395142Y-137347190D02*
X177442761Y-137251952D01*
X177490380Y-137204333D01*
X177585619Y-137156714D01*
X177680857Y-137156714D01*
X178395142Y-137775761D02*
X178299904Y-137823380D01*
X178109428Y-137823380D01*
X178014190Y-137775761D01*
X177966571Y-137680523D01*
X177966571Y-137299571D01*
X178014190Y-137204333D01*
X178109428Y-137156714D01*
X178299904Y-137156714D01*
X178395142Y-137204333D01*
X178442761Y-137299571D01*
X178442761Y-137394809D01*
X177966571Y-137490047D01*
X180109428Y-137823380D02*
X179633238Y-137823380D01*
X179633238Y-136823380D01*
X180871333Y-137823380D02*
X180871333Y-137299571D01*
X180823714Y-137204333D01*
X180728476Y-137156714D01*
X180538000Y-137156714D01*
X180442761Y-137204333D01*
X180871333Y-137775761D02*
X180776095Y-137823380D01*
X180538000Y-137823380D01*
X180442761Y-137775761D01*
X180395142Y-137680523D01*
X180395142Y-137585285D01*
X180442761Y-137490047D01*
X180538000Y-137442428D01*
X180776095Y-137442428D01*
X180871333Y-137394809D01*
X181347523Y-137823380D02*
X181347523Y-136823380D01*
X181347523Y-137204333D02*
X181442761Y-137156714D01*
X181633238Y-137156714D01*
X181728476Y-137204333D01*
X181776095Y-137251952D01*
X181823714Y-137347190D01*
X181823714Y-137632904D01*
X181776095Y-137728142D01*
X181728476Y-137775761D01*
X181633238Y-137823380D01*
X181442761Y-137823380D01*
X181347523Y-137775761D01*
X182204666Y-137775761D02*
X182299904Y-137823380D01*
X182490380Y-137823380D01*
X182585619Y-137775761D01*
X182633238Y-137680523D01*
X182633238Y-137632904D01*
X182585619Y-137537666D01*
X182490380Y-137490047D01*
X182347523Y-137490047D01*
X182252285Y-137442428D01*
X182204666Y-137347190D01*
X182204666Y-137299571D01*
X182252285Y-137204333D01*
X182347523Y-137156714D01*
X182490380Y-137156714D01*
X182585619Y-137204333D01*
X173895142Y-139433380D02*
X173895142Y-138433380D01*
X174228476Y-139147666D01*
X174561809Y-138433380D01*
X174561809Y-139433380D01*
X175609428Y-139338142D02*
X175561809Y-139385761D01*
X175418952Y-139433380D01*
X175323714Y-139433380D01*
X175180857Y-139385761D01*
X175085619Y-139290523D01*
X175038000Y-139195285D01*
X174990380Y-139004809D01*
X174990380Y-138861952D01*
X175038000Y-138671476D01*
X175085619Y-138576238D01*
X175180857Y-138481000D01*
X175323714Y-138433380D01*
X175418952Y-138433380D01*
X175561809Y-138481000D01*
X175609428Y-138528619D01*
X176514190Y-139433380D02*
X176038000Y-139433380D01*
X176038000Y-138433380D01*
X177276095Y-138433380D02*
X177085619Y-138433380D01*
X176990380Y-138481000D01*
X176942761Y-138528619D01*
X176847523Y-138671476D01*
X176799904Y-138861952D01*
X176799904Y-139242904D01*
X176847523Y-139338142D01*
X176895142Y-139385761D01*
X176990380Y-139433380D01*
X177180857Y-139433380D01*
X177276095Y-139385761D01*
X177323714Y-139338142D01*
X177371333Y-139242904D01*
X177371333Y-139004809D01*
X177323714Y-138909571D01*
X177276095Y-138861952D01*
X177180857Y-138814333D01*
X176990380Y-138814333D01*
X176895142Y-138861952D01*
X176847523Y-138909571D01*
X176799904Y-139004809D01*
X177942761Y-138861952D02*
X177847523Y-138814333D01*
X177799904Y-138766714D01*
X177752285Y-138671476D01*
X177752285Y-138623857D01*
X177799904Y-138528619D01*
X177847523Y-138481000D01*
X177942761Y-138433380D01*
X178133238Y-138433380D01*
X178228476Y-138481000D01*
X178276095Y-138528619D01*
X178323714Y-138623857D01*
X178323714Y-138671476D01*
X178276095Y-138766714D01*
X178228476Y-138814333D01*
X178133238Y-138861952D01*
X177942761Y-138861952D01*
X177847523Y-138909571D01*
X177799904Y-138957190D01*
X177752285Y-139052428D01*
X177752285Y-139242904D01*
X177799904Y-139338142D01*
X177847523Y-139385761D01*
X177942761Y-139433380D01*
X178133238Y-139433380D01*
X178228476Y-139385761D01*
X178276095Y-139338142D01*
X178323714Y-139242904D01*
X178323714Y-139052428D01*
X178276095Y-138957190D01*
X178228476Y-138909571D01*
X178133238Y-138861952D01*
X178942761Y-138433380D02*
X179038000Y-138433380D01*
X179133238Y-138481000D01*
X179180857Y-138528619D01*
X179228476Y-138623857D01*
X179276095Y-138814333D01*
X179276095Y-139052428D01*
X179228476Y-139242904D01*
X179180857Y-139338142D01*
X179133238Y-139385761D01*
X179038000Y-139433380D01*
X178942761Y-139433380D01*
X178847523Y-139385761D01*
X178799904Y-139338142D01*
X178752285Y-139242904D01*
X178704666Y-139052428D01*
X178704666Y-138814333D01*
X178752285Y-138623857D01*
X178799904Y-138528619D01*
X178847523Y-138481000D01*
X178942761Y-138433380D01*
X179752285Y-139433380D02*
X179942761Y-139433380D01*
X180038000Y-139385761D01*
X180085619Y-139338142D01*
X180180857Y-139195285D01*
X180228476Y-139004809D01*
X180228476Y-138623857D01*
X180180857Y-138528619D01*
X180133238Y-138481000D01*
X180038000Y-138433380D01*
X179847523Y-138433380D01*
X179752285Y-138481000D01*
X179704666Y-138528619D01*
X179657047Y-138623857D01*
X179657047Y-138861952D01*
X179704666Y-138957190D01*
X179752285Y-139004809D01*
X179847523Y-139052428D01*
X180038000Y-139052428D01*
X180133238Y-139004809D01*
X180180857Y-138957190D01*
X180228476Y-138861952D01*
D11*
X156067619Y-89876380D02*
X156639047Y-89876380D01*
X156353333Y-90876380D02*
X156353333Y-89876380D01*
X157353333Y-90828761D02*
X157258095Y-90876380D01*
X157067619Y-90876380D01*
X156972380Y-90828761D01*
X156924761Y-90733523D01*
X156924761Y-90352571D01*
X156972380Y-90257333D01*
X157067619Y-90209714D01*
X157258095Y-90209714D01*
X157353333Y-90257333D01*
X157400952Y-90352571D01*
X157400952Y-90447809D01*
X156924761Y-90543047D01*
X158210476Y-90828761D02*
X158115238Y-90876380D01*
X157924761Y-90876380D01*
X157829523Y-90828761D01*
X157781904Y-90733523D01*
X157781904Y-90352571D01*
X157829523Y-90257333D01*
X157924761Y-90209714D01*
X158115238Y-90209714D01*
X158210476Y-90257333D01*
X158258095Y-90352571D01*
X158258095Y-90447809D01*
X157781904Y-90543047D01*
X158686666Y-90209714D02*
X158686666Y-90876380D01*
X158686666Y-90304952D02*
X158734285Y-90257333D01*
X158829523Y-90209714D01*
X158972380Y-90209714D01*
X159067619Y-90257333D01*
X159115238Y-90352571D01*
X159115238Y-90876380D01*
X159543809Y-90828761D02*
X159639047Y-90876380D01*
X159829523Y-90876380D01*
X159924761Y-90828761D01*
X159972380Y-90733523D01*
X159972380Y-90685904D01*
X159924761Y-90590666D01*
X159829523Y-90543047D01*
X159686666Y-90543047D01*
X159591428Y-90495428D01*
X159543809Y-90400190D01*
X159543809Y-90352571D01*
X159591428Y-90257333D01*
X159686666Y-90209714D01*
X159829523Y-90209714D01*
X159924761Y-90257333D01*
X160305714Y-90209714D02*
X160543809Y-90876380D01*
X160781904Y-90209714D02*
X160543809Y-90876380D01*
X160448571Y-91114476D01*
X160400952Y-91162095D01*
X160305714Y-91209714D01*
X162353333Y-90209714D02*
X162353333Y-90876380D01*
X162115238Y-89828761D02*
X161877142Y-90543047D01*
X162496190Y-90543047D01*
X162877142Y-90781142D02*
X162924761Y-90828761D01*
X162877142Y-90876380D01*
X162829523Y-90828761D01*
X162877142Y-90781142D01*
X162877142Y-90876380D01*
X163877142Y-90876380D02*
X163305714Y-90876380D01*
X163591428Y-90876380D02*
X163591428Y-89876380D01*
X163496190Y-90019238D01*
X163400952Y-90114476D01*
X163305714Y-90162095D01*
D10*
X160028095Y-138136380D02*
X160028095Y-138945904D01*
X160075714Y-139041142D01*
X160123333Y-139088761D01*
X160218571Y-139136380D01*
X160409047Y-139136380D01*
X160504285Y-139088761D01*
X160551904Y-139041142D01*
X160599523Y-138945904D01*
X160599523Y-138136380D01*
X161028095Y-139088761D02*
X161170952Y-139136380D01*
X161409047Y-139136380D01*
X161504285Y-139088761D01*
X161551904Y-139041142D01*
X161599523Y-138945904D01*
X161599523Y-138850666D01*
X161551904Y-138755428D01*
X161504285Y-138707809D01*
X161409047Y-138660190D01*
X161218571Y-138612571D01*
X161123333Y-138564952D01*
X161075714Y-138517333D01*
X161028095Y-138422095D01*
X161028095Y-138326857D01*
X161075714Y-138231619D01*
X161123333Y-138184000D01*
X161218571Y-138136380D01*
X161456666Y-138136380D01*
X161599523Y-138184000D01*
X162361428Y-138612571D02*
X162504285Y-138660190D01*
X162551904Y-138707809D01*
X162599523Y-138803047D01*
X162599523Y-138945904D01*
X162551904Y-139041142D01*
X162504285Y-139088761D01*
X162409047Y-139136380D01*
X162028095Y-139136380D01*
X162028095Y-138136380D01*
X162361428Y-138136380D01*
X162456666Y-138184000D01*
X162504285Y-138231619D01*
X162551904Y-138326857D01*
X162551904Y-138422095D01*
X162504285Y-138517333D01*
X162456666Y-138564952D01*
X162361428Y-138612571D01*
X162028095Y-138612571D01*
D12*
X175260000Y-112947000D02*
X173060000Y-112947000D01*
X175260000Y-112947000D02*
X177460000Y-112947000D01*
X175260000Y-119717000D02*
X173060000Y-119717000D01*
X175260000Y-119717000D02*
X178860000Y-119717000D01*
D10*
X170180000Y-142494000D02*
X152400000Y-142494000D01*
X170180000Y-81534000D02*
X170180000Y-142494000D01*
X165100000Y-137414000D02*
X157480000Y-137414000D01*
X152400000Y-142494000D02*
X152400000Y-81534000D01*
X157480000Y-143764000D02*
X157480000Y-142494000D01*
X162560000Y-98044000D02*
X162560000Y-101854000D01*
X165100000Y-137414000D02*
X165100000Y-142494000D01*
X165100000Y-142494000D02*
X165100000Y-143764000D01*
X152400000Y-81534000D02*
X170180000Y-81534000D01*
X157480000Y-137414000D02*
X157480000Y-142494000D01*
X162560000Y-101854000D02*
X160020000Y-101854000D01*
X160020000Y-98044000D02*
X162560000Y-98044000D01*
X160020000Y-101854000D02*
X160020000Y-98044000D01*
X165100000Y-143764000D02*
X157480000Y-143764000D01*
X162188026Y-99949000D02*
G75*
G03*
X162188026Y-99949000I-898026J0D01*
G01*
D12*
X160020000Y-123107000D02*
X156420000Y-123107000D01*
X160020000Y-129877000D02*
X162220000Y-129877000D01*
X160020000Y-123107000D02*
X162220000Y-123107000D01*
X160020000Y-129877000D02*
X157820000Y-129877000D01*
X180450000Y-132394000D02*
X180450000Y-81474000D01*
X167530000Y-81474000D02*
X167530000Y-132394000D01*
X180450000Y-81474000D02*
X174990000Y-81474000D01*
X167530000Y-132394000D02*
X180450000Y-132394000D01*
X172990000Y-81474000D02*
X167530000Y-81474000D01*
X172990000Y-81474000D02*
G75*
G03*
X174990000Y-81474000I1000000J0D01*
G01*
X171621000Y-89154000D02*
X171621000Y-91354000D01*
X178391000Y-89154000D02*
X178391000Y-91354000D01*
X178391000Y-89154000D02*
X178391000Y-85554000D01*
X171621000Y-89154000D02*
X171621000Y-86954000D01*
X175260000Y-103549000D02*
X171660000Y-103549000D01*
X175260000Y-110319000D02*
X177460000Y-110319000D01*
X175260000Y-103549000D02*
X177460000Y-103549000D01*
X175260000Y-110319000D02*
X173060000Y-110319000D01*
X160020000Y-104311000D02*
X156420000Y-104311000D01*
X160020000Y-104311000D02*
X162220000Y-104311000D01*
X160020000Y-111081000D02*
X157820000Y-111081000D01*
X160020000Y-111081000D02*
X162220000Y-111081000D01*
%LPC*%
D13*
X178122500Y-119257000D03*
X178122500Y-118607000D03*
X178122500Y-117957000D03*
X178122500Y-117307000D03*
X178122500Y-116657000D03*
X178122500Y-116007000D03*
X178122500Y-115357000D03*
X178122500Y-114707000D03*
X178122500Y-114057000D03*
X178122500Y-113407000D03*
X172397500Y-113407000D03*
X172397500Y-114057000D03*
X172397500Y-114707000D03*
X172397500Y-115357000D03*
X172397500Y-116007000D03*
X172397500Y-116657000D03*
X172397500Y-117307000D03*
X172397500Y-117957000D03*
X172397500Y-118607000D03*
X172397500Y-119257000D03*
D14*
X168910000Y-141224000D03*
D15*
X168910000Y-138684000D03*
X168910000Y-136144000D03*
X168910000Y-133604000D03*
X168910000Y-131064000D03*
X168910000Y-128524000D03*
X168910000Y-125984000D03*
X168910000Y-123444000D03*
X168910000Y-120904000D03*
X168910000Y-118364000D03*
X168910000Y-115824000D03*
X168910000Y-113284000D03*
X168910000Y-110744000D03*
X168910000Y-108204000D03*
X168910000Y-105664000D03*
X168910000Y-103124000D03*
X168910000Y-100584000D03*
X168910000Y-98044000D03*
X168910000Y-95504000D03*
X168910000Y-92964000D03*
X168910000Y-90424000D03*
X168910000Y-87884000D03*
X168910000Y-85344000D03*
X168910000Y-82804000D03*
X153670000Y-82804000D03*
X153670000Y-85344000D03*
X153670000Y-87884000D03*
X153670000Y-90424000D03*
X153670000Y-92964000D03*
X153670000Y-95504000D03*
X153670000Y-98044000D03*
X153670000Y-100584000D03*
X153670000Y-103124000D03*
X153670000Y-105664000D03*
X153670000Y-108204000D03*
X153670000Y-110744000D03*
X153670000Y-113284000D03*
X153670000Y-115824000D03*
X153670000Y-118364000D03*
X153670000Y-120904000D03*
X153670000Y-123444000D03*
X153670000Y-125984000D03*
X153670000Y-128524000D03*
X153670000Y-131064000D03*
X153670000Y-133604000D03*
X153670000Y-136144000D03*
X153670000Y-138684000D03*
X153670000Y-141224000D03*
D16*
X157157500Y-123567000D03*
X157157500Y-124217000D03*
X157157500Y-124867000D03*
X157157500Y-125517000D03*
X157157500Y-126167000D03*
X157157500Y-126817000D03*
X157157500Y-127467000D03*
X157157500Y-128117000D03*
X157157500Y-128767000D03*
X157157500Y-129417000D03*
X162882500Y-129417000D03*
X162882500Y-128767000D03*
X162882500Y-128117000D03*
X162882500Y-127467000D03*
X162882500Y-126817000D03*
X162882500Y-126167000D03*
X162882500Y-125517000D03*
X162882500Y-124867000D03*
X162882500Y-124217000D03*
X162882500Y-123567000D03*
D14*
X166370000Y-82804000D03*
D17*
X166370000Y-85344000D03*
X166370000Y-87884000D03*
X166370000Y-90424000D03*
X166370000Y-92964000D03*
X166370000Y-95504000D03*
X166370000Y-98044000D03*
X166370000Y-100584000D03*
X166370000Y-103124000D03*
X166370000Y-105664000D03*
X166370000Y-108204000D03*
X166370000Y-110744000D03*
X166370000Y-113284000D03*
X166370000Y-115824000D03*
X166370000Y-118364000D03*
X166370000Y-120904000D03*
X166370000Y-123444000D03*
X166370000Y-125984000D03*
X166370000Y-128524000D03*
X166370000Y-131064000D03*
X181610000Y-131064000D03*
X181610000Y-128524000D03*
X181610000Y-125984000D03*
X181610000Y-123444000D03*
X181610000Y-120904000D03*
X181610000Y-118364000D03*
X181610000Y-115824000D03*
X181610000Y-113284000D03*
X181610000Y-110744000D03*
X181610000Y-108204000D03*
X181610000Y-105664000D03*
X181610000Y-103124000D03*
X181610000Y-100584000D03*
X181610000Y-98044000D03*
X181610000Y-95504000D03*
X181610000Y-92964000D03*
X181610000Y-90424000D03*
X181610000Y-87884000D03*
X181610000Y-85344000D03*
X181610000Y-82804000D03*
D18*
X177931000Y-86291500D03*
X177281000Y-86291500D03*
X176631000Y-86291500D03*
X175981000Y-86291500D03*
X175331000Y-86291500D03*
X174681000Y-86291500D03*
X174031000Y-86291500D03*
X173381000Y-86291500D03*
X172731000Y-86291500D03*
X172081000Y-86291500D03*
X172081000Y-92016500D03*
X172731000Y-92016500D03*
X173381000Y-92016500D03*
X174031000Y-92016500D03*
X174681000Y-92016500D03*
X175331000Y-92016500D03*
X175981000Y-92016500D03*
X176631000Y-92016500D03*
X177281000Y-92016500D03*
X177931000Y-92016500D03*
D16*
X172397500Y-104009000D03*
X172397500Y-104659000D03*
X172397500Y-105309000D03*
X172397500Y-105959000D03*
X172397500Y-106609000D03*
X172397500Y-107259000D03*
X172397500Y-107909000D03*
X172397500Y-108559000D03*
X172397500Y-109209000D03*
X172397500Y-109859000D03*
X178122500Y-109859000D03*
X178122500Y-109209000D03*
X178122500Y-108559000D03*
X178122500Y-107909000D03*
X178122500Y-107259000D03*
X178122500Y-106609000D03*
X178122500Y-105959000D03*
X178122500Y-105309000D03*
X178122500Y-104659000D03*
X178122500Y-104009000D03*
X157157500Y-104771000D03*
X157157500Y-105421000D03*
X157157500Y-106071000D03*
X157157500Y-106721000D03*
X157157500Y-107371000D03*
X157157500Y-108021000D03*
X157157500Y-108671000D03*
X157157500Y-109321000D03*
X157157500Y-109971000D03*
X157157500Y-110621000D03*
X162882500Y-110621000D03*
X162882500Y-109971000D03*
X162882500Y-109321000D03*
X162882500Y-108671000D03*
X162882500Y-108021000D03*
X162882500Y-107371000D03*
X162882500Y-106721000D03*
X162882500Y-106071000D03*
X162882500Y-105421000D03*
X162882500Y-104771000D03*
M02*
