M48
; DRILL file {KiCad (6.0.5)} date Mon Jun 24 20:21:11 2024
; FORMAT={-:-/ absolute / metric / decimal}
; #@! TF.CreationDate,2024-06-24T20:21:11-07:00
; #@! TF.GenerationSoftware,Kicad,Pcbnew,(6.0.5)
; #@! TF.FileFunction,Plated,1,4,PTH
FMAT,2
METRIC
; #@! TA.AperFunction,Plated,PTH,ViaDrill
T1C0.254
; #@! TA.AperFunction,Plated,PTH,ComponentDrill
T2C0.800
; #@! TA.AperFunction,Plated,PTH,ComponentDrill
T3C1.100
%
G90
G05
T1
X155.148Y-128.824
X155.702Y-128.27
X156.718Y-111.506
X156.972Y-130.048
X157.226Y-103.886
X157.226Y-122.936
X158.436Y-106.593
X158.436Y-107.442
X158.496Y-104.902
X159.004Y-126.238
X159.258Y-127.0
X159.512Y-97.028
X160.528Y-99.568
X161.29Y-124.206
X161.544Y-113.538
X162.112Y-112.226
X162.56Y-86.614
X162.56Y-88.138
X162.814Y-104.14
X162.814Y-122.936
X164.11Y-104.917
X167.386Y-102.108
X167.64Y-99.568
X169.926Y-107.188
X170.942Y-105.918
X170.942Y-108.391
X170.942Y-118.364
X171.45Y-95.25
X171.704Y-101.346
X171.958Y-85.15
X172.406Y-119.888
X172.466Y-93.98
X172.466Y-110.49
X172.73Y-130.909
X173.034Y-103.124
X173.482Y-122.936
X173.676Y-106.629
X173.676Y-107.412
X173.736Y-93.98
X173.736Y-117.856
X174.558Y-119.062
X174.752Y-93.98
X174.915Y-128.724
X175.568Y-125.784
X176.022Y-95.25
X176.784Y-93.98
X176.966Y-90.669
X177.8Y-93.726
X178.054Y-84.836
X178.054Y-103.378
X178.054Y-119.888
X178.562Y-112.776
X179.832Y-104.648
T2
X166.37Y-82.804
X166.37Y-85.344
X166.37Y-87.884
X166.37Y-90.424
X166.37Y-92.964
X166.37Y-95.504
X166.37Y-98.044
X166.37Y-100.584
X166.37Y-103.124
X166.37Y-105.664
X166.37Y-108.204
X166.37Y-110.744
X166.37Y-113.284
X166.37Y-115.824
X166.37Y-118.364
X166.37Y-120.904
X166.37Y-123.444
X166.37Y-125.984
X166.37Y-128.524
X166.37Y-131.064
X181.61Y-82.804
X181.61Y-85.344
X181.61Y-87.884
X181.61Y-90.424
X181.61Y-92.964
X181.61Y-95.504
X181.61Y-98.044
X181.61Y-100.584
X181.61Y-103.124
X181.61Y-105.664
X181.61Y-108.204
X181.61Y-110.744
X181.61Y-113.284
X181.61Y-115.824
X181.61Y-118.364
X181.61Y-120.904
X181.61Y-123.444
X181.61Y-125.984
X181.61Y-128.524
X181.61Y-131.064
T3
X153.67Y-82.804
X153.67Y-85.344
X153.67Y-87.884
X153.67Y-90.424
X153.67Y-92.964
X153.67Y-95.504
X153.67Y-98.044
X153.67Y-100.584
X153.67Y-103.124
X153.67Y-105.664
X153.67Y-108.204
X153.67Y-110.744
X153.67Y-113.284
X153.67Y-115.824
X153.67Y-118.364
X153.67Y-120.904
X153.67Y-123.444
X153.67Y-125.984
X153.67Y-128.524
X153.67Y-131.064
X153.67Y-133.604
X153.67Y-136.144
X153.67Y-138.684
X153.67Y-141.224
X168.91Y-82.804
X168.91Y-85.344
X168.91Y-87.884
X168.91Y-90.424
X168.91Y-92.964
X168.91Y-95.504
X168.91Y-98.044
X168.91Y-100.584
X168.91Y-103.124
X168.91Y-105.664
X168.91Y-108.204
X168.91Y-110.744
X168.91Y-113.284
X168.91Y-115.824
X168.91Y-118.364
X168.91Y-120.904
X168.91Y-123.444
X168.91Y-125.984
X168.91Y-128.524
X168.91Y-131.064
X168.91Y-133.604
X168.91Y-136.144
X168.91Y-138.684
X168.91Y-141.224
T0
M30
