G04 #@! TF.GenerationSoftware,KiCad,Pcbnew,(6.0.5)*
G04 #@! TF.CreationDate,2024-06-24T20:21:06-07:00*
G04 #@! TF.ProjectId,MCL6809_PCB,4d434c36-3830-4395-9f50-43422e6b6963,rev?*
G04 #@! TF.SameCoordinates,Original*
G04 #@! TF.FileFunction,Copper,L1,Top*
G04 #@! TF.FilePolarity,Positive*
%FSLAX46Y46*%
G04 Gerber Fmt 4.6, Leading zero omitted, Abs format (unit mm)*
G04 Created by KiCad (PCBNEW (6.0.5)) date 2024-06-24 20:21:06*
%MOMM*%
%LPD*%
G01*
G04 APERTURE LIST*
G04 Aperture macros list*
%AMRoundRect*
0 Rectangle with rounded corners*
0 $1 Rounding radius*
0 $2 $3 $4 $5 $6 $7 $8 $9 X,Y pos of 4 corners*
0 Add a 4 corners polygon primitive as box body*
4,1,4,$2,$3,$4,$5,$6,$7,$8,$9,$2,$3,0*
0 Add four circle primitives for the rounded corners*
1,1,$1+$1,$2,$3*
1,1,$1+$1,$4,$5*
1,1,$1+$1,$6,$7*
1,1,$1+$1,$8,$9*
0 Add four rect primitives between the rounded corners*
20,1,$1+$1,$2,$3,$4,$5,0*
20,1,$1+$1,$4,$5,$6,$7,0*
20,1,$1+$1,$6,$7,$8,$9,0*
20,1,$1+$1,$8,$9,$2,$3,0*%
G04 Aperture macros list end*
G04 #@! TA.AperFunction,SMDPad,CuDef*
%ADD10RoundRect,0.100000X0.637500X0.100000X-0.637500X0.100000X-0.637500X-0.100000X0.637500X-0.100000X0*%
G04 #@! TD*
G04 #@! TA.AperFunction,ComponentPad*
%ADD11R,1.600000X1.600000*%
G04 #@! TD*
G04 #@! TA.AperFunction,ComponentPad*
%ADD12C,1.600000*%
G04 #@! TD*
G04 #@! TA.AperFunction,SMDPad,CuDef*
%ADD13RoundRect,0.100000X-0.637500X-0.100000X0.637500X-0.100000X0.637500X0.100000X-0.637500X0.100000X0*%
G04 #@! TD*
G04 #@! TA.AperFunction,ComponentPad*
%ADD14O,1.600000X1.600000*%
G04 #@! TD*
G04 #@! TA.AperFunction,SMDPad,CuDef*
%ADD15RoundRect,0.100000X-0.100000X0.637500X-0.100000X-0.637500X0.100000X-0.637500X0.100000X0.637500X0*%
G04 #@! TD*
G04 #@! TA.AperFunction,ViaPad*
%ADD16C,0.584200*%
G04 #@! TD*
G04 #@! TA.AperFunction,Conductor*
%ADD17C,0.152400*%
G04 #@! TD*
G04 #@! TA.AperFunction,Conductor*
%ADD18C,0.300000*%
G04 #@! TD*
G04 APERTURE END LIST*
D10*
X178122500Y-119257000D03*
X178122500Y-118607000D03*
X178122500Y-117957000D03*
X178122500Y-117307000D03*
X178122500Y-116657000D03*
X178122500Y-116007000D03*
X178122500Y-115357000D03*
X178122500Y-114707000D03*
X178122500Y-114057000D03*
X178122500Y-113407000D03*
X172397500Y-113407000D03*
X172397500Y-114057000D03*
X172397500Y-114707000D03*
X172397500Y-115357000D03*
X172397500Y-116007000D03*
X172397500Y-116657000D03*
X172397500Y-117307000D03*
X172397500Y-117957000D03*
X172397500Y-118607000D03*
X172397500Y-119257000D03*
D11*
X168910000Y-141224000D03*
D12*
X168910000Y-138684000D03*
X168910000Y-136144000D03*
X168910000Y-133604000D03*
X168910000Y-131064000D03*
X168910000Y-128524000D03*
X168910000Y-125984000D03*
X168910000Y-123444000D03*
X168910000Y-120904000D03*
X168910000Y-118364000D03*
X168910000Y-115824000D03*
X168910000Y-113284000D03*
X168910000Y-110744000D03*
X168910000Y-108204000D03*
X168910000Y-105664000D03*
X168910000Y-103124000D03*
X168910000Y-100584000D03*
X168910000Y-98044000D03*
X168910000Y-95504000D03*
X168910000Y-92964000D03*
X168910000Y-90424000D03*
X168910000Y-87884000D03*
X168910000Y-85344000D03*
X168910000Y-82804000D03*
X153670000Y-82804000D03*
X153670000Y-85344000D03*
X153670000Y-87884000D03*
X153670000Y-90424000D03*
X153670000Y-92964000D03*
X153670000Y-95504000D03*
X153670000Y-98044000D03*
X153670000Y-100584000D03*
X153670000Y-103124000D03*
X153670000Y-105664000D03*
X153670000Y-108204000D03*
X153670000Y-110744000D03*
X153670000Y-113284000D03*
X153670000Y-115824000D03*
X153670000Y-118364000D03*
X153670000Y-120904000D03*
X153670000Y-123444000D03*
X153670000Y-125984000D03*
X153670000Y-128524000D03*
X153670000Y-131064000D03*
X153670000Y-133604000D03*
X153670000Y-136144000D03*
X153670000Y-138684000D03*
X153670000Y-141224000D03*
D13*
X157157500Y-123567000D03*
X157157500Y-124217000D03*
X157157500Y-124867000D03*
X157157500Y-125517000D03*
X157157500Y-126167000D03*
X157157500Y-126817000D03*
X157157500Y-127467000D03*
X157157500Y-128117000D03*
X157157500Y-128767000D03*
X157157500Y-129417000D03*
X162882500Y-129417000D03*
X162882500Y-128767000D03*
X162882500Y-128117000D03*
X162882500Y-127467000D03*
X162882500Y-126817000D03*
X162882500Y-126167000D03*
X162882500Y-125517000D03*
X162882500Y-124867000D03*
X162882500Y-124217000D03*
X162882500Y-123567000D03*
D11*
X166370000Y-82804000D03*
D14*
X166370000Y-85344000D03*
X166370000Y-87884000D03*
X166370000Y-90424000D03*
X166370000Y-92964000D03*
X166370000Y-95504000D03*
X166370000Y-98044000D03*
X166370000Y-100584000D03*
X166370000Y-103124000D03*
X166370000Y-105664000D03*
X166370000Y-108204000D03*
X166370000Y-110744000D03*
X166370000Y-113284000D03*
X166370000Y-115824000D03*
X166370000Y-118364000D03*
X166370000Y-120904000D03*
X166370000Y-123444000D03*
X166370000Y-125984000D03*
X166370000Y-128524000D03*
X166370000Y-131064000D03*
X181610000Y-131064000D03*
X181610000Y-128524000D03*
X181610000Y-125984000D03*
X181610000Y-123444000D03*
X181610000Y-120904000D03*
X181610000Y-118364000D03*
X181610000Y-115824000D03*
X181610000Y-113284000D03*
X181610000Y-110744000D03*
X181610000Y-108204000D03*
X181610000Y-105664000D03*
X181610000Y-103124000D03*
X181610000Y-100584000D03*
X181610000Y-98044000D03*
X181610000Y-95504000D03*
X181610000Y-92964000D03*
X181610000Y-90424000D03*
X181610000Y-87884000D03*
X181610000Y-85344000D03*
X181610000Y-82804000D03*
D15*
X177931000Y-86291500D03*
X177281000Y-86291500D03*
X176631000Y-86291500D03*
X175981000Y-86291500D03*
X175331000Y-86291500D03*
X174681000Y-86291500D03*
X174031000Y-86291500D03*
X173381000Y-86291500D03*
X172731000Y-86291500D03*
X172081000Y-86291500D03*
X172081000Y-92016500D03*
X172731000Y-92016500D03*
X173381000Y-92016500D03*
X174031000Y-92016500D03*
X174681000Y-92016500D03*
X175331000Y-92016500D03*
X175981000Y-92016500D03*
X176631000Y-92016500D03*
X177281000Y-92016500D03*
X177931000Y-92016500D03*
D13*
X172397500Y-104009000D03*
X172397500Y-104659000D03*
X172397500Y-105309000D03*
X172397500Y-105959000D03*
X172397500Y-106609000D03*
X172397500Y-107259000D03*
X172397500Y-107909000D03*
X172397500Y-108559000D03*
X172397500Y-109209000D03*
X172397500Y-109859000D03*
X178122500Y-109859000D03*
X178122500Y-109209000D03*
X178122500Y-108559000D03*
X178122500Y-107909000D03*
X178122500Y-107259000D03*
X178122500Y-106609000D03*
X178122500Y-105959000D03*
X178122500Y-105309000D03*
X178122500Y-104659000D03*
X178122500Y-104009000D03*
X157157500Y-104771000D03*
X157157500Y-105421000D03*
X157157500Y-106071000D03*
X157157500Y-106721000D03*
X157157500Y-107371000D03*
X157157500Y-108021000D03*
X157157500Y-108671000D03*
X157157500Y-109321000D03*
X157157500Y-109971000D03*
X157157500Y-110621000D03*
X162882500Y-110621000D03*
X162882500Y-109971000D03*
X162882500Y-109321000D03*
X162882500Y-108671000D03*
X162882500Y-108021000D03*
X162882500Y-107371000D03*
X162882500Y-106721000D03*
X162882500Y-106071000D03*
X162882500Y-105421000D03*
X162882500Y-104771000D03*
D16*
X178054000Y-119888000D03*
X157226000Y-122936000D03*
X178054000Y-84836000D03*
X157226000Y-103886000D03*
X172406200Y-119888000D03*
X162814000Y-122936000D03*
X173033800Y-103124000D03*
X177800000Y-93726000D03*
X178054000Y-103378000D03*
X162814000Y-104140000D03*
X172466000Y-110490000D03*
X156972000Y-130048000D03*
X171958000Y-85149800D03*
X178562000Y-112776000D03*
X174557800Y-119061548D03*
X176965735Y-90669025D03*
X156718000Y-111506000D03*
X173736000Y-117856000D03*
X161544000Y-113538000D03*
X170942000Y-118364000D03*
X162111800Y-112225721D03*
X158496000Y-104902000D03*
X171704000Y-101346000D03*
X171450000Y-95250000D03*
X170942000Y-108391343D03*
X169926000Y-107188000D03*
X173676200Y-107412323D03*
X173482000Y-122936000D03*
X173676200Y-106628620D03*
X170942000Y-105918000D03*
X167386000Y-102108000D03*
X162560000Y-88138000D03*
X167640000Y-99568000D03*
X162560000Y-86614000D03*
X179832000Y-104648000D03*
X158436200Y-106592871D03*
X158436200Y-107442000D03*
X161290000Y-124206000D03*
X164109809Y-104917003D03*
X155147839Y-128824161D03*
X155702000Y-128270000D03*
X159258000Y-127000000D03*
X160528000Y-99568000D03*
X159004000Y-126238000D03*
X159512000Y-97028000D03*
X173736000Y-93980000D03*
X174914635Y-128724005D03*
X176022000Y-95250000D03*
X172466000Y-93980000D03*
X174752000Y-93980000D03*
X172729993Y-130908647D03*
X176784000Y-93980000D03*
X175568320Y-125784320D03*
D17*
X162882500Y-123567000D02*
X162882500Y-123004500D01*
X162882500Y-104208500D02*
X162814000Y-104140000D01*
X173033800Y-103372700D02*
X173033800Y-103124000D01*
X177931000Y-84959000D02*
X178054000Y-84836000D01*
X178122500Y-119257000D02*
X178122500Y-119819500D01*
X177931000Y-93595000D02*
X177800000Y-93726000D01*
X177931000Y-86291500D02*
X177931000Y-84959000D01*
X172397500Y-119257000D02*
X172397500Y-119879300D01*
X157157500Y-123004500D02*
X157226000Y-122936000D01*
X178122500Y-104009000D02*
X178122500Y-103446500D01*
X157157500Y-104771000D02*
X157157500Y-103954500D01*
X157157500Y-123567000D02*
X157157500Y-123004500D01*
X178122500Y-103446500D02*
X178054000Y-103378000D01*
X157157500Y-103954500D02*
X157226000Y-103886000D01*
X178122500Y-119819500D02*
X178054000Y-119888000D01*
X177931000Y-92016500D02*
X177931000Y-93595000D01*
X172397500Y-104009000D02*
X173033800Y-103372700D01*
X162882500Y-123004500D02*
X162814000Y-122936000D01*
X162882500Y-104771000D02*
X162882500Y-104208500D01*
X172397500Y-119879300D02*
X172406200Y-119888000D01*
X177109280Y-113662628D02*
X177503652Y-114057000D01*
X177109280Y-113151372D02*
X177215377Y-113045275D01*
X177503652Y-114057000D02*
X178122500Y-114057000D01*
X177215377Y-110766123D02*
X178122500Y-109859000D01*
X179382178Y-113479822D02*
X179382178Y-107891822D01*
X179382178Y-107891822D02*
X181610000Y-105664000D01*
X177109280Y-113662628D02*
X177109280Y-113151372D01*
X178122500Y-114057000D02*
X178805000Y-114057000D01*
X178805000Y-114057000D02*
X179382178Y-113479822D01*
X177215377Y-113045275D02*
X177215377Y-110766123D01*
X176863466Y-109849186D02*
X177503652Y-109209000D01*
X178122500Y-114707000D02*
X178741348Y-114707000D01*
X176757369Y-113960717D02*
X176757369Y-113005605D01*
X179734089Y-110079911D02*
X181610000Y-108204000D01*
X177503652Y-109209000D02*
X178122500Y-109209000D01*
X178122500Y-114707000D02*
X177503652Y-114707000D01*
X178741348Y-114707000D02*
X179734089Y-113714259D01*
X176757369Y-113005605D02*
X176863466Y-112899508D01*
X177503652Y-114707000D02*
X176757369Y-113960717D01*
X179734089Y-113714259D02*
X179734089Y-110079911D01*
X176863466Y-112899508D02*
X176863466Y-109849186D01*
X178741348Y-115357000D02*
X180086000Y-114012348D01*
X176276000Y-112989296D02*
X176511555Y-112753741D01*
X176276000Y-114129348D02*
X176276000Y-112989296D01*
X177445000Y-108559000D02*
X178122500Y-108559000D01*
X180086000Y-114012348D02*
X180086000Y-112268000D01*
X176511555Y-112753741D02*
X176511555Y-109492445D01*
X178122500Y-115357000D02*
X177503652Y-115357000D01*
X178122500Y-115357000D02*
X178741348Y-115357000D01*
X177503652Y-115357000D02*
X176276000Y-114129348D01*
X180086000Y-112268000D02*
X181610000Y-110744000D01*
X176511555Y-109492445D02*
X177445000Y-108559000D01*
X178887000Y-116007000D02*
X181610000Y-113284000D01*
X175924089Y-114427437D02*
X175924089Y-112823457D01*
X177503652Y-116007000D02*
X175924089Y-114427437D01*
X178122500Y-116007000D02*
X177503652Y-116007000D01*
X176159644Y-112587902D02*
X176159644Y-109253008D01*
X175924089Y-112823457D02*
X176159644Y-112587902D01*
X177503652Y-107909000D02*
X178122500Y-107909000D01*
X178122500Y-116007000D02*
X178887000Y-116007000D01*
X176159644Y-109253008D02*
X177503652Y-107909000D01*
X175807733Y-112442103D02*
X175807733Y-108926267D01*
X178122500Y-116657000D02*
X180777000Y-116657000D01*
X178122500Y-116657000D02*
X177503652Y-116657000D01*
X177475000Y-107259000D02*
X178122500Y-107259000D01*
X175514000Y-114667348D02*
X175514000Y-112735836D01*
X175807733Y-108926267D02*
X177475000Y-107259000D01*
X177503652Y-116657000D02*
X175514000Y-114667348D01*
X180777000Y-116657000D02*
X181610000Y-115824000D01*
X175514000Y-112735836D02*
X175807733Y-112442103D01*
X180553000Y-117307000D02*
X181610000Y-118364000D01*
X175455822Y-109266119D02*
X175455822Y-108524898D01*
X178122500Y-117307000D02*
X180553000Y-117307000D01*
X175455822Y-108524898D02*
X177371720Y-106609000D01*
X175122357Y-109599584D02*
X175455822Y-109266119D01*
X177371720Y-106609000D02*
X178122500Y-106609000D01*
X177503652Y-117307000D02*
X175122357Y-114925705D01*
X178122500Y-117307000D02*
X177503652Y-117307000D01*
X175122357Y-114925705D02*
X175122357Y-109599584D01*
X178122500Y-117957000D02*
X177503652Y-117957000D01*
X174770446Y-115223794D02*
X174770446Y-109453817D01*
X175103911Y-109120352D02*
X175103911Y-108358741D01*
X177503652Y-117957000D02*
X174770446Y-115223794D01*
X174770446Y-109453817D02*
X175103911Y-109120352D01*
X177503652Y-105959000D02*
X178122500Y-105959000D01*
X181610000Y-120825652D02*
X181610000Y-120904000D01*
X178741348Y-117957000D02*
X181610000Y-120825652D01*
X178122500Y-117957000D02*
X178741348Y-117957000D01*
X175103911Y-108358741D02*
X177503652Y-105959000D01*
X179324000Y-119189652D02*
X179324000Y-122428000D01*
X178122500Y-118607000D02*
X177503652Y-118607000D01*
X174418535Y-115521883D02*
X174418535Y-109308050D01*
X180340000Y-123444000D02*
X181610000Y-123444000D01*
X174418535Y-109308050D02*
X174645909Y-109080676D01*
X174645909Y-109080676D02*
X174645909Y-108146669D01*
X177483578Y-105309000D02*
X178122500Y-105309000D01*
X179324000Y-122428000D02*
X180340000Y-123444000D01*
X178741348Y-118607000D02*
X179324000Y-119189652D01*
X177503652Y-118607000D02*
X174418535Y-115521883D01*
X174645909Y-108146669D02*
X177483578Y-105309000D01*
X178122500Y-118607000D02*
X178741348Y-118607000D01*
X172397500Y-109859000D02*
X172397500Y-110421500D01*
X157157500Y-110621000D02*
X157157500Y-111066500D01*
X174103252Y-118607000D02*
X174557800Y-119061548D01*
X157157500Y-111066500D02*
X156718000Y-111506000D01*
X177174489Y-90877779D02*
X176965735Y-90669025D01*
X172081000Y-86291500D02*
X172081000Y-85272800D01*
X177281000Y-92016500D02*
X177174489Y-91909989D01*
X177174489Y-91909989D02*
X177174489Y-90877779D01*
X172081000Y-85272800D02*
X171958000Y-85149800D01*
X178122500Y-113407000D02*
X178122500Y-113215500D01*
X157157500Y-129417000D02*
X157157500Y-129862500D01*
X172397500Y-110421500D02*
X172466000Y-110490000D01*
X157157500Y-129862500D02*
X156972000Y-130048000D01*
X178122500Y-113215500D02*
X178562000Y-112776000D01*
X172397500Y-118607000D02*
X174103252Y-118607000D01*
X161544000Y-111049026D02*
X161036000Y-110541026D01*
X173635000Y-117957000D02*
X173736000Y-117856000D01*
X161036000Y-110541026D02*
X161036000Y-104140000D01*
X161544000Y-113538000D02*
X161544000Y-111049026D01*
X154940000Y-94234000D02*
X153670000Y-92964000D01*
X155194000Y-98298000D02*
X155194000Y-94234000D01*
X155194000Y-94234000D02*
X154940000Y-94234000D01*
X161036000Y-104140000D02*
X155194000Y-98298000D01*
X172397500Y-117957000D02*
X173635000Y-117957000D01*
X171778652Y-117307000D02*
X170942000Y-118143652D01*
X172397500Y-117307000D02*
X171778652Y-117307000D01*
X156464000Y-97028000D02*
X161818496Y-102382496D01*
X156464000Y-93218000D02*
X156464000Y-97028000D01*
X161818496Y-110825844D02*
X162111800Y-111119148D01*
X162111800Y-111119148D02*
X162111800Y-112225721D01*
X153670000Y-90424000D02*
X156464000Y-93218000D01*
X161818496Y-102382496D02*
X161818496Y-110825844D01*
X170942000Y-118143652D02*
X170942000Y-118364000D01*
X170180000Y-118255652D02*
X170180000Y-119634000D01*
X170180000Y-119634000D02*
X168910000Y-120904000D01*
X171778652Y-116657000D02*
X170180000Y-118255652D01*
X172397500Y-116657000D02*
X171778652Y-116657000D01*
X171267000Y-116007000D02*
X168910000Y-118364000D01*
X172397500Y-116007000D02*
X171267000Y-116007000D01*
X171237000Y-115357000D02*
X172397500Y-115357000D01*
X160430089Y-114456089D02*
X165608000Y-119634000D01*
X167894000Y-117094000D02*
X169500000Y-117094000D01*
X165608000Y-119634000D02*
X167132000Y-119634000D01*
X169500000Y-117094000D02*
X171237000Y-115357000D01*
X160430089Y-105312089D02*
X160430089Y-114456089D01*
X167132000Y-119634000D02*
X167640000Y-119126000D01*
X167640000Y-117348000D02*
X167894000Y-117094000D01*
X158496000Y-104902000D02*
X160020000Y-104902000D01*
X160020000Y-104902000D02*
X160430089Y-105312089D01*
X167640000Y-119126000D02*
X167640000Y-117348000D01*
X173482000Y-114241348D02*
X173482000Y-113030000D01*
X172720000Y-112268000D02*
X170434000Y-112268000D01*
X173016348Y-114707000D02*
X173482000Y-114241348D01*
X173482000Y-113030000D02*
X172720000Y-112268000D01*
X172397500Y-114707000D02*
X173016348Y-114707000D01*
X170434000Y-112268000D02*
X168910000Y-110744000D01*
X170169000Y-114057000D02*
X169672000Y-114554000D01*
X169672000Y-114554000D02*
X168148000Y-114554000D01*
X167640000Y-114046000D02*
X167640000Y-109474000D01*
X172397500Y-114057000D02*
X170169000Y-114057000D01*
X168148000Y-114554000D02*
X167640000Y-114046000D01*
X167640000Y-109474000D02*
X168910000Y-108204000D01*
X172274500Y-113284000D02*
X168910000Y-113284000D01*
X172397500Y-113407000D02*
X172274500Y-113284000D01*
X172397500Y-109209000D02*
X173016348Y-109209000D01*
X173016348Y-109209000D02*
X174244000Y-107981348D01*
X174244000Y-107981348D02*
X174244000Y-102362000D01*
X173228000Y-101346000D02*
X171704000Y-101346000D01*
X171450000Y-95250000D02*
X171196000Y-95250000D01*
X174244000Y-102362000D02*
X173228000Y-101346000D01*
X171196000Y-95250000D02*
X168910000Y-92964000D01*
X171109657Y-108559000D02*
X170942000Y-108391343D01*
X172397500Y-108559000D02*
X171109657Y-108559000D01*
X169926000Y-107188000D02*
X170982993Y-107188000D01*
X171703993Y-107909000D02*
X172397500Y-107909000D01*
X170982993Y-107188000D02*
X171703993Y-107909000D01*
X172397500Y-107259000D02*
X173522877Y-107259000D01*
X173522877Y-107259000D02*
X173676200Y-107412323D01*
X168910000Y-123444000D02*
X172974000Y-123444000D01*
X172974000Y-123444000D02*
X173482000Y-122936000D01*
X173656580Y-106609000D02*
X173676200Y-106628620D01*
X172397500Y-106609000D02*
X173656580Y-106609000D01*
X172397500Y-105959000D02*
X170983000Y-105959000D01*
X170983000Y-105959000D02*
X170942000Y-105918000D01*
X171349000Y-105309000D02*
X170434000Y-104394000D01*
X153670000Y-87884000D02*
X162306000Y-87884000D01*
X172397500Y-105309000D02*
X171349000Y-105309000D01*
X162306000Y-87884000D02*
X162560000Y-88138000D01*
X170434000Y-104394000D02*
X168396607Y-104394000D01*
X167661611Y-102383611D02*
X167386000Y-102108000D01*
X167661611Y-103659004D02*
X167661611Y-102383611D01*
X168396607Y-104394000D02*
X167661611Y-103659004D01*
X167640000Y-101051007D02*
X167640000Y-99568000D01*
X171196000Y-102239440D02*
X170810560Y-101854000D01*
X161290000Y-85344000D02*
X162560000Y-86614000D01*
X170810560Y-101854000D02*
X168442993Y-101854000D01*
X171461000Y-104659000D02*
X171196000Y-104394000D01*
X168442993Y-101854000D02*
X167640000Y-101051007D01*
X153670000Y-85344000D02*
X161290000Y-85344000D01*
X171196000Y-104394000D02*
X171196000Y-102239440D01*
X172397500Y-104659000D02*
X171461000Y-104659000D01*
X178133500Y-104648000D02*
X178122500Y-104659000D01*
X179832000Y-104648000D02*
X178133500Y-104648000D01*
X159706199Y-105469801D02*
X159706199Y-117407801D01*
X158212007Y-105421000D02*
X158260808Y-105469801D01*
X158260808Y-105469801D02*
X159706199Y-105469801D01*
X157157500Y-105421000D02*
X158212007Y-105421000D01*
X159706199Y-117407801D02*
X153670000Y-123444000D01*
X157157500Y-106071000D02*
X157310500Y-105918000D01*
X159258000Y-105918000D02*
X159258000Y-115316000D01*
X159258000Y-115316000D02*
X153670000Y-120904000D01*
X157310500Y-105918000D02*
X159258000Y-105918000D01*
X158308071Y-106721000D02*
X158436200Y-106592871D01*
X157157500Y-106721000D02*
X158308071Y-106721000D01*
X158365200Y-107371000D02*
X158436200Y-107442000D01*
X157157500Y-107371000D02*
X158365200Y-107371000D01*
X155702000Y-102616000D02*
X153670000Y-100584000D01*
X155702000Y-107184348D02*
X155702000Y-102616000D01*
X156538652Y-108021000D02*
X155702000Y-107184348D01*
X157157500Y-108021000D02*
X156538652Y-108021000D01*
X156169000Y-108671000D02*
X155194000Y-107696000D01*
X155194000Y-104648000D02*
X153670000Y-103124000D01*
X157157500Y-108671000D02*
X156169000Y-108671000D01*
X155194000Y-107696000D02*
X155194000Y-104648000D01*
X157157500Y-109321000D02*
X157776348Y-109321000D01*
X157776348Y-109321000D02*
X158522631Y-110067283D01*
X158522631Y-113511369D02*
X153670000Y-118364000D01*
X158522631Y-110067283D02*
X158522631Y-113511369D01*
X158170720Y-111323280D02*
X153670000Y-115824000D01*
X157776348Y-109971000D02*
X158170720Y-110365372D01*
X157157500Y-109971000D02*
X157776348Y-109971000D01*
X158170720Y-110365372D02*
X158170720Y-111323280D01*
X166370000Y-118364000D02*
X162882500Y-114876500D01*
X162882500Y-114876500D02*
X162882500Y-110621000D01*
X164084000Y-115062000D02*
X164846000Y-115824000D01*
X163501348Y-109971000D02*
X164084000Y-110553652D01*
X162882500Y-109971000D02*
X163501348Y-109971000D01*
X164084000Y-110553652D02*
X164084000Y-115062000D01*
X164846000Y-115824000D02*
X166370000Y-115824000D01*
X165354000Y-113284000D02*
X166370000Y-113284000D01*
X163501348Y-109321000D02*
X164592000Y-110411652D01*
X164592000Y-110411652D02*
X164592000Y-112522000D01*
X162882500Y-109321000D02*
X163501348Y-109321000D01*
X164592000Y-112522000D02*
X165354000Y-113284000D01*
X164297000Y-108671000D02*
X166370000Y-110744000D01*
X162882500Y-108671000D02*
X164297000Y-108671000D01*
X166187000Y-108021000D02*
X166370000Y-108204000D01*
X162882500Y-108021000D02*
X166187000Y-108021000D01*
X164663000Y-107371000D02*
X166370000Y-105664000D01*
X162882500Y-107371000D02*
X164663000Y-107371000D01*
X162882500Y-106721000D02*
X163819670Y-106721000D01*
X165100000Y-105440670D02*
X165100000Y-104394000D01*
X163819670Y-106721000D02*
X165100000Y-105440670D01*
X165100000Y-104394000D02*
X166370000Y-103124000D01*
X164678510Y-102275490D02*
X166370000Y-100584000D01*
X162882500Y-106071000D02*
X163758805Y-106071000D01*
X164678510Y-105151295D02*
X164678510Y-102275490D01*
X163758805Y-106071000D02*
X164678510Y-105151295D01*
X161301000Y-124217000D02*
X161290000Y-124206000D01*
X162882500Y-105421000D02*
X163605812Y-105421000D01*
X163605812Y-105421000D02*
X164109809Y-104917003D01*
X162882500Y-124217000D02*
X161301000Y-124217000D01*
X154686000Y-124714000D02*
X152654000Y-124714000D01*
X152400000Y-129794000D02*
X153670000Y-131064000D01*
X157157500Y-124217000D02*
X155183000Y-124217000D01*
X152400000Y-124968000D02*
X152400000Y-129794000D01*
X152654000Y-124714000D02*
X152400000Y-124968000D01*
X155183000Y-124217000D02*
X154686000Y-124714000D01*
X160020000Y-128385370D02*
X157595370Y-130810000D01*
X160020000Y-125730000D02*
X160020000Y-128385370D01*
X156210000Y-130810000D02*
X153670000Y-133350000D01*
X157595370Y-130810000D02*
X156210000Y-130810000D01*
X159157000Y-124867000D02*
X160020000Y-125730000D01*
X153670000Y-133350000D02*
X153670000Y-133604000D01*
X157157500Y-124867000D02*
X159157000Y-124867000D01*
X157157500Y-125517000D02*
X154137000Y-125517000D01*
X154137000Y-125517000D02*
X153670000Y-125984000D01*
X154727000Y-127467000D02*
X153670000Y-128524000D01*
X157157500Y-127467000D02*
X154727000Y-127467000D01*
X157157500Y-128767000D02*
X156007993Y-128767000D01*
X155396007Y-128767000D02*
X155205000Y-128767000D01*
X155466808Y-128837801D02*
X155396007Y-128767000D01*
X156007993Y-128767000D02*
X155937192Y-128837801D01*
X155205000Y-128767000D02*
X155147839Y-128824161D01*
X155937192Y-128837801D02*
X155466808Y-128837801D01*
X157157500Y-128117000D02*
X155855000Y-128117000D01*
X155855000Y-128117000D02*
X155702000Y-128270000D01*
X168910000Y-98044000D02*
X168361007Y-98044000D01*
X160803611Y-99292389D02*
X160528000Y-99568000D01*
X157157500Y-126817000D02*
X159075000Y-126817000D01*
X167112618Y-99292389D02*
X160803611Y-99292389D01*
X159075000Y-126817000D02*
X159258000Y-127000000D01*
X168361007Y-98044000D02*
X167112618Y-99292389D01*
X168910000Y-95504000D02*
X167640000Y-94234000D01*
X163225622Y-96616378D02*
X159923622Y-96616378D01*
X159923622Y-96616378D02*
X159512000Y-97028000D01*
X167640000Y-94234000D02*
X165608000Y-94234000D01*
X165608000Y-94234000D02*
X163225622Y-96616378D01*
X157157500Y-126167000D02*
X158933000Y-126167000D01*
X158933000Y-126167000D02*
X159004000Y-126238000D01*
X180534289Y-127059711D02*
X181610000Y-125984000D01*
X162882500Y-126817000D02*
X164918357Y-126817000D01*
X165161068Y-127059711D02*
X180534289Y-127059711D01*
X164918357Y-126817000D02*
X165161068Y-127059711D01*
X167640000Y-127762000D02*
X167640000Y-129286000D01*
X167326289Y-127448289D02*
X167640000Y-127762000D01*
X162882500Y-127467000D02*
X162901211Y-127448289D01*
X167640000Y-129286000D02*
X168148000Y-129794000D01*
X168148000Y-129794000D02*
X180340000Y-129794000D01*
X180340000Y-129794000D02*
X181610000Y-128524000D01*
X162901211Y-127448289D02*
X167326289Y-127448289D01*
X167640000Y-130556000D02*
X167640000Y-131826000D01*
X168148000Y-132334000D02*
X172466000Y-132334000D01*
X173736000Y-131064000D02*
X181610000Y-131064000D01*
X162882500Y-128767000D02*
X164041174Y-128767000D01*
X166878000Y-129794000D02*
X167640000Y-130556000D01*
X165068174Y-129794000D02*
X166878000Y-129794000D01*
X167640000Y-131826000D02*
X168148000Y-132334000D01*
X164041174Y-128767000D02*
X165068174Y-129794000D01*
X172466000Y-132334000D02*
X173736000Y-131064000D01*
X164529500Y-131064000D02*
X166370000Y-131064000D01*
X162882500Y-129417000D02*
X164529500Y-131064000D01*
X165406000Y-128524000D02*
X164999000Y-128117000D01*
X162882500Y-128117000D02*
X164999000Y-128117000D01*
X166370000Y-128524000D02*
X165406000Y-128524000D01*
X162882500Y-126167000D02*
X166187000Y-126167000D01*
X166187000Y-126167000D02*
X166370000Y-125984000D01*
X164297000Y-125517000D02*
X166370000Y-123444000D01*
X162882500Y-125517000D02*
X164297000Y-125517000D01*
X164846000Y-122428000D02*
X166370000Y-120904000D01*
X164846000Y-123952000D02*
X164846000Y-122428000D01*
X163931000Y-124867000D02*
X164846000Y-123952000D01*
X162882500Y-124867000D02*
X163931000Y-124867000D01*
X181610000Y-90424000D02*
X180086000Y-90424000D01*
X177281000Y-87619000D02*
X177281000Y-86291500D01*
X180086000Y-90424000D02*
X177281000Y-87619000D01*
X175981000Y-85303000D02*
X174752000Y-84074000D01*
X175981000Y-86291500D02*
X175981000Y-85303000D01*
X174752000Y-84074000D02*
X167640000Y-84074000D01*
X167640000Y-84074000D02*
X166370000Y-85344000D01*
X171450000Y-84582000D02*
X169418000Y-86614000D01*
X175331000Y-86291500D02*
X175331000Y-85289826D01*
X169418000Y-86614000D02*
X167640000Y-86614000D01*
X167640000Y-86614000D02*
X166370000Y-87884000D01*
X175331000Y-85289826D02*
X174623174Y-84582000D01*
X174623174Y-84582000D02*
X171450000Y-84582000D01*
X167640000Y-89154000D02*
X166370000Y-90424000D01*
X171137348Y-89154000D02*
X167640000Y-89154000D01*
X173381000Y-86291500D02*
X173381000Y-86910348D01*
X173381000Y-86910348D02*
X171137348Y-89154000D01*
X176631000Y-84735000D02*
X177292000Y-84074000D01*
X176631000Y-86291500D02*
X176631000Y-84735000D01*
X180340000Y-84074000D02*
X181610000Y-82804000D01*
X177292000Y-84074000D02*
X180340000Y-84074000D01*
X174031000Y-92016500D02*
X174031000Y-93685000D01*
X174031000Y-93685000D02*
X173736000Y-93980000D01*
X172407348Y-90424000D02*
X168910000Y-90424000D01*
X173381000Y-92016500D02*
X173381000Y-91397652D01*
X173381000Y-91397652D02*
X172407348Y-90424000D01*
X174031000Y-87671000D02*
X174031000Y-86291500D01*
X181610000Y-98044000D02*
X178816000Y-95250000D01*
X174752000Y-88392000D02*
X174031000Y-87671000D01*
X176276000Y-88392000D02*
X174752000Y-88392000D01*
X178816000Y-90932000D02*
X176276000Y-88392000D01*
X178816000Y-95250000D02*
X178816000Y-90932000D01*
X181610000Y-103124000D02*
X180848000Y-103124000D01*
X180848000Y-103124000D02*
X178308000Y-100584000D01*
X178308000Y-100584000D02*
X168910000Y-100584000D01*
X179578000Y-90932000D02*
X176276000Y-87630000D01*
X181610000Y-95504000D02*
X179578000Y-93472000D01*
X176276000Y-87630000D02*
X174752000Y-87630000D01*
X174752000Y-87630000D02*
X174681000Y-87559000D01*
X179578000Y-93472000D02*
X179578000Y-90932000D01*
X174681000Y-87559000D02*
X174681000Y-86291500D01*
X175981000Y-95209000D02*
X176022000Y-95250000D01*
X175981000Y-92016500D02*
X175981000Y-95209000D01*
X168910000Y-128524000D02*
X174714630Y-128524000D01*
X174714630Y-128524000D02*
X174914635Y-128724005D01*
X172731000Y-92016500D02*
X172731000Y-93715000D01*
X172731000Y-93715000D02*
X172466000Y-93980000D01*
X174681000Y-92016500D02*
X174681000Y-93909000D01*
X174681000Y-93909000D02*
X174752000Y-93980000D01*
X172574640Y-131064000D02*
X172729993Y-130908647D01*
X168910000Y-131064000D02*
X172574640Y-131064000D01*
X169672000Y-91694000D02*
X165608000Y-91694000D01*
X175331000Y-92016500D02*
X175331000Y-94671000D01*
X171450000Y-93980000D02*
X171450000Y-93472000D01*
X164338000Y-90424000D02*
X164338000Y-85344000D01*
X175006000Y-94996000D02*
X172466000Y-94996000D01*
X161798000Y-82804000D02*
X153670000Y-82804000D01*
X172466000Y-94996000D02*
X171450000Y-93980000D01*
X171450000Y-93472000D02*
X169672000Y-91694000D01*
X175331000Y-94671000D02*
X175006000Y-94996000D01*
X165608000Y-91694000D02*
X164338000Y-90424000D01*
X164338000Y-85344000D02*
X161798000Y-82804000D01*
X168910000Y-125984000D02*
X175368640Y-125984000D01*
X175368640Y-125984000D02*
X175568320Y-125784320D01*
X176631000Y-93827000D02*
X176784000Y-93980000D01*
X176631000Y-92016500D02*
X176631000Y-93827000D01*
D18*
X167640000Y-96774000D02*
X167445711Y-96968289D01*
X154940000Y-139954000D02*
X153670000Y-141224000D01*
X172854578Y-99314000D02*
X182372000Y-99314000D01*
X172466000Y-133096000D02*
X170434000Y-135128000D01*
X182372000Y-99314000D02*
X183134000Y-100076000D01*
X183134000Y-132334000D02*
X182372000Y-133096000D01*
X167640000Y-96774000D02*
X170314578Y-96774000D01*
X166370000Y-98044000D02*
X167445711Y-96968289D01*
X170434000Y-135128000D02*
X170434000Y-139700000D01*
X170180000Y-139954000D02*
X154940000Y-139954000D01*
X170434000Y-139700000D02*
X170180000Y-139954000D01*
X183134000Y-100076000D02*
X183134000Y-132334000D01*
X170314578Y-96774000D02*
X172854578Y-99314000D01*
X182372000Y-133096000D02*
X172466000Y-133096000D01*
X166370000Y-98044000D02*
X167640000Y-96774000D01*
M02*
