G04 #@! TF.GenerationSoftware,KiCad,Pcbnew,7.0.5*
G04 #@! TF.CreationDate,2023-06-23T21:15:38-07:00*
G04 #@! TF.ProjectId,MCL68,4d434c36-382e-46b6-9963-61645f706362,rev?*
G04 #@! TF.SameCoordinates,Original*
G04 #@! TF.FileFunction,Legend,Top*
G04 #@! TF.FilePolarity,Positive*
%FSLAX46Y46*%
G04 Gerber Fmt 4.6, Leading zero omitted, Abs format (unit mm)*
G04 Created by KiCad (PCBNEW 7.0.5) date 2023-06-23 21:15:38*
%MOMM*%
%LPD*%
G01*
G04 APERTURE LIST*
G04 Aperture macros list*
%AMRoundRect*
0 Rectangle with rounded corners*
0 $1 Rounding radius*
0 $2 $3 $4 $5 $6 $7 $8 $9 X,Y pos of 4 corners*
0 Add a 4 corners polygon primitive as box body*
4,1,4,$2,$3,$4,$5,$6,$7,$8,$9,$2,$3,0*
0 Add four circle primitives for the rounded corners*
1,1,$1+$1,$2,$3*
1,1,$1+$1,$4,$5*
1,1,$1+$1,$6,$7*
1,1,$1+$1,$8,$9*
0 Add four rect primitives between the rounded corners*
20,1,$1+$1,$2,$3,$4,$5,0*
20,1,$1+$1,$4,$5,$6,$7,0*
20,1,$1+$1,$6,$7,$8,$9,0*
20,1,$1+$1,$8,$9,$2,$3,0*%
G04 Aperture macros list end*
%ADD10C,0.152400*%
%ADD11C,0.177800*%
%ADD12C,0.120000*%
%ADD13RoundRect,0.100000X-0.100000X0.637500X-0.100000X-0.637500X0.100000X-0.637500X0.100000X0.637500X0*%
%ADD14RoundRect,0.100000X-0.637500X-0.100000X0.637500X-0.100000X0.637500X0.100000X-0.637500X0.100000X0*%
%ADD15R,1.600000X1.600000*%
%ADD16O,1.600000X1.600000*%
G04 APERTURE END LIST*
D10*
X149160767Y-63037535D02*
X149160767Y-62021535D01*
X149160767Y-62021535D02*
X149499434Y-62747250D01*
X149499434Y-62747250D02*
X149838101Y-62021535D01*
X149838101Y-62021535D02*
X149838101Y-63037535D01*
X150902482Y-62940774D02*
X150854101Y-62989155D01*
X150854101Y-62989155D02*
X150708958Y-63037535D01*
X150708958Y-63037535D02*
X150612196Y-63037535D01*
X150612196Y-63037535D02*
X150467053Y-62989155D01*
X150467053Y-62989155D02*
X150370291Y-62892393D01*
X150370291Y-62892393D02*
X150321910Y-62795631D01*
X150321910Y-62795631D02*
X150273529Y-62602107D01*
X150273529Y-62602107D02*
X150273529Y-62456964D01*
X150273529Y-62456964D02*
X150321910Y-62263440D01*
X150321910Y-62263440D02*
X150370291Y-62166678D01*
X150370291Y-62166678D02*
X150467053Y-62069916D01*
X150467053Y-62069916D02*
X150612196Y-62021535D01*
X150612196Y-62021535D02*
X150708958Y-62021535D01*
X150708958Y-62021535D02*
X150854101Y-62069916D01*
X150854101Y-62069916D02*
X150902482Y-62118297D01*
X151821720Y-63037535D02*
X151337910Y-63037535D01*
X151337910Y-63037535D02*
X151337910Y-62021535D01*
X152595815Y-62021535D02*
X152402291Y-62021535D01*
X152402291Y-62021535D02*
X152305529Y-62069916D01*
X152305529Y-62069916D02*
X152257148Y-62118297D01*
X152257148Y-62118297D02*
X152160386Y-62263440D01*
X152160386Y-62263440D02*
X152112005Y-62456964D01*
X152112005Y-62456964D02*
X152112005Y-62844012D01*
X152112005Y-62844012D02*
X152160386Y-62940774D01*
X152160386Y-62940774D02*
X152208767Y-62989155D01*
X152208767Y-62989155D02*
X152305529Y-63037535D01*
X152305529Y-63037535D02*
X152499053Y-63037535D01*
X152499053Y-63037535D02*
X152595815Y-62989155D01*
X152595815Y-62989155D02*
X152644196Y-62940774D01*
X152644196Y-62940774D02*
X152692577Y-62844012D01*
X152692577Y-62844012D02*
X152692577Y-62602107D01*
X152692577Y-62602107D02*
X152644196Y-62505345D01*
X152644196Y-62505345D02*
X152595815Y-62456964D01*
X152595815Y-62456964D02*
X152499053Y-62408583D01*
X152499053Y-62408583D02*
X152305529Y-62408583D01*
X152305529Y-62408583D02*
X152208767Y-62456964D01*
X152208767Y-62456964D02*
X152160386Y-62505345D01*
X152160386Y-62505345D02*
X152112005Y-62602107D01*
X153273148Y-62456964D02*
X153176386Y-62408583D01*
X153176386Y-62408583D02*
X153128005Y-62360202D01*
X153128005Y-62360202D02*
X153079624Y-62263440D01*
X153079624Y-62263440D02*
X153079624Y-62215059D01*
X153079624Y-62215059D02*
X153128005Y-62118297D01*
X153128005Y-62118297D02*
X153176386Y-62069916D01*
X153176386Y-62069916D02*
X153273148Y-62021535D01*
X153273148Y-62021535D02*
X153466672Y-62021535D01*
X153466672Y-62021535D02*
X153563434Y-62069916D01*
X153563434Y-62069916D02*
X153611815Y-62118297D01*
X153611815Y-62118297D02*
X153660196Y-62215059D01*
X153660196Y-62215059D02*
X153660196Y-62263440D01*
X153660196Y-62263440D02*
X153611815Y-62360202D01*
X153611815Y-62360202D02*
X153563434Y-62408583D01*
X153563434Y-62408583D02*
X153466672Y-62456964D01*
X153466672Y-62456964D02*
X153273148Y-62456964D01*
X153273148Y-62456964D02*
X153176386Y-62505345D01*
X153176386Y-62505345D02*
X153128005Y-62553726D01*
X153128005Y-62553726D02*
X153079624Y-62650488D01*
X153079624Y-62650488D02*
X153079624Y-62844012D01*
X153079624Y-62844012D02*
X153128005Y-62940774D01*
X153128005Y-62940774D02*
X153176386Y-62989155D01*
X153176386Y-62989155D02*
X153273148Y-63037535D01*
X153273148Y-63037535D02*
X153466672Y-63037535D01*
X153466672Y-63037535D02*
X153563434Y-62989155D01*
X153563434Y-62989155D02*
X153611815Y-62940774D01*
X153611815Y-62940774D02*
X153660196Y-62844012D01*
X153660196Y-62844012D02*
X153660196Y-62650488D01*
X153660196Y-62650488D02*
X153611815Y-62553726D01*
X153611815Y-62553726D02*
X153563434Y-62505345D01*
X153563434Y-62505345D02*
X153466672Y-62456964D01*
X154095624Y-62650488D02*
X154869720Y-62650488D01*
X154482672Y-63037535D02*
X154482672Y-62263440D01*
D11*
X145575515Y-60506072D02*
X145575515Y-59363072D01*
X145575515Y-59363072D02*
X145956515Y-60179501D01*
X145956515Y-60179501D02*
X146337515Y-59363072D01*
X146337515Y-59363072D02*
X146337515Y-60506072D01*
X146881801Y-60506072D02*
X146881801Y-59744072D01*
X146881801Y-59363072D02*
X146827373Y-59417501D01*
X146827373Y-59417501D02*
X146881801Y-59471929D01*
X146881801Y-59471929D02*
X146936230Y-59417501D01*
X146936230Y-59417501D02*
X146881801Y-59363072D01*
X146881801Y-59363072D02*
X146881801Y-59471929D01*
X147915945Y-60451644D02*
X147807087Y-60506072D01*
X147807087Y-60506072D02*
X147589373Y-60506072D01*
X147589373Y-60506072D02*
X147480516Y-60451644D01*
X147480516Y-60451644D02*
X147426087Y-60397215D01*
X147426087Y-60397215D02*
X147371659Y-60288358D01*
X147371659Y-60288358D02*
X147371659Y-59961786D01*
X147371659Y-59961786D02*
X147426087Y-59852929D01*
X147426087Y-59852929D02*
X147480516Y-59798501D01*
X147480516Y-59798501D02*
X147589373Y-59744072D01*
X147589373Y-59744072D02*
X147807087Y-59744072D01*
X147807087Y-59744072D02*
X147915945Y-59798501D01*
X148405801Y-60506072D02*
X148405801Y-59744072D01*
X148405801Y-59961786D02*
X148460230Y-59852929D01*
X148460230Y-59852929D02*
X148514659Y-59798501D01*
X148514659Y-59798501D02*
X148623516Y-59744072D01*
X148623516Y-59744072D02*
X148732373Y-59744072D01*
X149276658Y-60506072D02*
X149167801Y-60451644D01*
X149167801Y-60451644D02*
X149113372Y-60397215D01*
X149113372Y-60397215D02*
X149058944Y-60288358D01*
X149058944Y-60288358D02*
X149058944Y-59961786D01*
X149058944Y-59961786D02*
X149113372Y-59852929D01*
X149113372Y-59852929D02*
X149167801Y-59798501D01*
X149167801Y-59798501D02*
X149276658Y-59744072D01*
X149276658Y-59744072D02*
X149439944Y-59744072D01*
X149439944Y-59744072D02*
X149548801Y-59798501D01*
X149548801Y-59798501D02*
X149603230Y-59852929D01*
X149603230Y-59852929D02*
X149657658Y-59961786D01*
X149657658Y-59961786D02*
X149657658Y-60288358D01*
X149657658Y-60288358D02*
X149603230Y-60397215D01*
X149603230Y-60397215D02*
X149548801Y-60451644D01*
X149548801Y-60451644D02*
X149439944Y-60506072D01*
X149439944Y-60506072D02*
X149276658Y-60506072D01*
X150800658Y-60397215D02*
X150746230Y-60451644D01*
X150746230Y-60451644D02*
X150582944Y-60506072D01*
X150582944Y-60506072D02*
X150474087Y-60506072D01*
X150474087Y-60506072D02*
X150310801Y-60451644D01*
X150310801Y-60451644D02*
X150201944Y-60342786D01*
X150201944Y-60342786D02*
X150147515Y-60233929D01*
X150147515Y-60233929D02*
X150093087Y-60016215D01*
X150093087Y-60016215D02*
X150093087Y-59852929D01*
X150093087Y-59852929D02*
X150147515Y-59635215D01*
X150147515Y-59635215D02*
X150201944Y-59526358D01*
X150201944Y-59526358D02*
X150310801Y-59417501D01*
X150310801Y-59417501D02*
X150474087Y-59363072D01*
X150474087Y-59363072D02*
X150582944Y-59363072D01*
X150582944Y-59363072D02*
X150746230Y-59417501D01*
X150746230Y-59417501D02*
X150800658Y-59471929D01*
X151453801Y-60506072D02*
X151344944Y-60451644D01*
X151344944Y-60451644D02*
X151290515Y-60397215D01*
X151290515Y-60397215D02*
X151236087Y-60288358D01*
X151236087Y-60288358D02*
X151236087Y-59961786D01*
X151236087Y-59961786D02*
X151290515Y-59852929D01*
X151290515Y-59852929D02*
X151344944Y-59798501D01*
X151344944Y-59798501D02*
X151453801Y-59744072D01*
X151453801Y-59744072D02*
X151617087Y-59744072D01*
X151617087Y-59744072D02*
X151725944Y-59798501D01*
X151725944Y-59798501D02*
X151780373Y-59852929D01*
X151780373Y-59852929D02*
X151834801Y-59961786D01*
X151834801Y-59961786D02*
X151834801Y-60288358D01*
X151834801Y-60288358D02*
X151780373Y-60397215D01*
X151780373Y-60397215D02*
X151725944Y-60451644D01*
X151725944Y-60451644D02*
X151617087Y-60506072D01*
X151617087Y-60506072D02*
X151453801Y-60506072D01*
X152324658Y-60506072D02*
X152324658Y-59744072D01*
X152324658Y-59961786D02*
X152379087Y-59852929D01*
X152379087Y-59852929D02*
X152433516Y-59798501D01*
X152433516Y-59798501D02*
X152542373Y-59744072D01*
X152542373Y-59744072D02*
X152651230Y-59744072D01*
X153467658Y-60451644D02*
X153358801Y-60506072D01*
X153358801Y-60506072D02*
X153141087Y-60506072D01*
X153141087Y-60506072D02*
X153032229Y-60451644D01*
X153032229Y-60451644D02*
X152977801Y-60342786D01*
X152977801Y-60342786D02*
X152977801Y-59907358D01*
X152977801Y-59907358D02*
X153032229Y-59798501D01*
X153032229Y-59798501D02*
X153141087Y-59744072D01*
X153141087Y-59744072D02*
X153358801Y-59744072D01*
X153358801Y-59744072D02*
X153467658Y-59798501D01*
X153467658Y-59798501D02*
X153522087Y-59907358D01*
X153522087Y-59907358D02*
X153522087Y-60016215D01*
X153522087Y-60016215D02*
X152977801Y-60125072D01*
X155427086Y-60506072D02*
X154882800Y-60506072D01*
X154882800Y-60506072D02*
X154882800Y-59363072D01*
X156297944Y-60506072D02*
X156297944Y-59907358D01*
X156297944Y-59907358D02*
X156243515Y-59798501D01*
X156243515Y-59798501D02*
X156134658Y-59744072D01*
X156134658Y-59744072D02*
X155916944Y-59744072D01*
X155916944Y-59744072D02*
X155808086Y-59798501D01*
X156297944Y-60451644D02*
X156189086Y-60506072D01*
X156189086Y-60506072D02*
X155916944Y-60506072D01*
X155916944Y-60506072D02*
X155808086Y-60451644D01*
X155808086Y-60451644D02*
X155753658Y-60342786D01*
X155753658Y-60342786D02*
X155753658Y-60233929D01*
X155753658Y-60233929D02*
X155808086Y-60125072D01*
X155808086Y-60125072D02*
X155916944Y-60070644D01*
X155916944Y-60070644D02*
X156189086Y-60070644D01*
X156189086Y-60070644D02*
X156297944Y-60016215D01*
X156842229Y-60506072D02*
X156842229Y-59363072D01*
X156842229Y-59798501D02*
X156951087Y-59744072D01*
X156951087Y-59744072D02*
X157168801Y-59744072D01*
X157168801Y-59744072D02*
X157277658Y-59798501D01*
X157277658Y-59798501D02*
X157332087Y-59852929D01*
X157332087Y-59852929D02*
X157386515Y-59961786D01*
X157386515Y-59961786D02*
X157386515Y-60288358D01*
X157386515Y-60288358D02*
X157332087Y-60397215D01*
X157332087Y-60397215D02*
X157277658Y-60451644D01*
X157277658Y-60451644D02*
X157168801Y-60506072D01*
X157168801Y-60506072D02*
X156951087Y-60506072D01*
X156951087Y-60506072D02*
X156842229Y-60451644D01*
X157821944Y-60451644D02*
X157930801Y-60506072D01*
X157930801Y-60506072D02*
X158148515Y-60506072D01*
X158148515Y-60506072D02*
X158257372Y-60451644D01*
X158257372Y-60451644D02*
X158311801Y-60342786D01*
X158311801Y-60342786D02*
X158311801Y-60288358D01*
X158311801Y-60288358D02*
X158257372Y-60179501D01*
X158257372Y-60179501D02*
X158148515Y-60125072D01*
X158148515Y-60125072D02*
X157985230Y-60125072D01*
X157985230Y-60125072D02*
X157876372Y-60070644D01*
X157876372Y-60070644D02*
X157821944Y-59961786D01*
X157821944Y-59961786D02*
X157821944Y-59907358D01*
X157821944Y-59907358D02*
X157876372Y-59798501D01*
X157876372Y-59798501D02*
X157985230Y-59744072D01*
X157985230Y-59744072D02*
X158148515Y-59744072D01*
X158148515Y-59744072D02*
X158257372Y-59798501D01*
D12*
X154972200Y-122021600D02*
X154972200Y-118421600D01*
X154972200Y-122021600D02*
X154972200Y-124221600D01*
X148202200Y-122021600D02*
X148202200Y-119821600D01*
X148202200Y-122021600D02*
X148202200Y-124221600D01*
X151688800Y-87206400D02*
X148088800Y-87206400D01*
X151688800Y-87206400D02*
X153888800Y-87206400D01*
X151688800Y-92676400D02*
X149488800Y-92676400D01*
X151688800Y-92676400D02*
X153888800Y-92676400D01*
X145203400Y-74463600D02*
X145203400Y-135543600D01*
X145203400Y-135543600D02*
X158123400Y-135543600D01*
X150663400Y-74463600D02*
X145203400Y-74463600D01*
X158123400Y-74463600D02*
X152663400Y-74463600D01*
X158123400Y-135543600D02*
X158123400Y-74463600D01*
X150663400Y-74463600D02*
G75*
G03*
X152663400Y-74463600I1000000J0D01*
G01*
X154961200Y-97035700D02*
X154961200Y-93435700D01*
X154961200Y-97035700D02*
X154961200Y-99235700D01*
X148191200Y-97035700D02*
X148191200Y-94835700D01*
X148191200Y-97035700D02*
X148191200Y-99235700D01*
X140301200Y-54067400D02*
X140301200Y-135467400D01*
X140301200Y-135467400D02*
X163381200Y-135467400D01*
X150841200Y-54067400D02*
X140301200Y-54067400D01*
X163381200Y-54067400D02*
X152841200Y-54067400D01*
X163381200Y-135467400D02*
X163381200Y-54067400D01*
X150841200Y-54067400D02*
G75*
G03*
X152841200Y-54067400I1000000J0D01*
G01*
X154972200Y-130403600D02*
X154972200Y-126803600D01*
X154972200Y-130403600D02*
X154972200Y-132603600D01*
X148202200Y-130403600D02*
X148202200Y-128203600D01*
X148202200Y-130403600D02*
X148202200Y-132603600D01*
X154976200Y-113672700D02*
X154976200Y-110072700D01*
X154976200Y-113672700D02*
X154976200Y-115872700D01*
X148206200Y-113672700D02*
X148206200Y-111472700D01*
X148206200Y-113672700D02*
X148206200Y-115872700D01*
X154961200Y-105341500D02*
X154961200Y-101741500D01*
X154961200Y-105341500D02*
X154961200Y-107541500D01*
X148191200Y-105341500D02*
X148191200Y-103141500D01*
X148191200Y-105341500D02*
X148191200Y-107541500D01*
%LPC*%
D13*
X154512200Y-119159100D03*
X153862200Y-119159100D03*
X153212200Y-119159100D03*
X152562200Y-119159100D03*
X151912200Y-119159100D03*
X151262200Y-119159100D03*
X150612200Y-119159100D03*
X149962200Y-119159100D03*
X149312200Y-119159100D03*
X148662200Y-119159100D03*
X148662200Y-124884100D03*
X149312200Y-124884100D03*
X149962200Y-124884100D03*
X150612200Y-124884100D03*
X151262200Y-124884100D03*
X151912200Y-124884100D03*
X152562200Y-124884100D03*
X153212200Y-124884100D03*
X153862200Y-124884100D03*
X154512200Y-124884100D03*
D14*
X148826300Y-87666400D03*
X148826300Y-88316400D03*
X148826300Y-88966400D03*
X148826300Y-89616400D03*
X148826300Y-90266400D03*
X148826300Y-90916400D03*
X148826300Y-91566400D03*
X148826300Y-92216400D03*
X154551300Y-92216400D03*
X154551300Y-91566400D03*
X154551300Y-90916400D03*
X154551300Y-90266400D03*
X154551300Y-89616400D03*
X154551300Y-88966400D03*
X154551300Y-88316400D03*
X154551300Y-87666400D03*
D15*
X144043400Y-75793600D03*
D16*
X144043400Y-78333600D03*
X144043400Y-80873600D03*
X144043400Y-83413600D03*
X144043400Y-85953600D03*
X144043400Y-88493600D03*
X144043400Y-91033600D03*
X144043400Y-93573600D03*
X144043400Y-96113600D03*
X144043400Y-98653600D03*
X144043400Y-101193600D03*
X144043400Y-103733600D03*
X144043400Y-106273600D03*
X144043400Y-108813600D03*
X144043400Y-111353600D03*
X144043400Y-113893600D03*
X144043400Y-116433600D03*
X144043400Y-118973600D03*
X144043400Y-121513600D03*
X144043400Y-124053600D03*
X144043400Y-126593600D03*
X144043400Y-129133600D03*
X144043400Y-131673600D03*
X144043400Y-134213600D03*
X159283400Y-134213600D03*
X159283400Y-131673600D03*
X159283400Y-129133600D03*
X159283400Y-126593600D03*
X159283400Y-124053600D03*
X159283400Y-121513600D03*
X159283400Y-118973600D03*
X159283400Y-116433600D03*
X159283400Y-113893600D03*
X159283400Y-111353600D03*
X159283400Y-108813600D03*
X159283400Y-106273600D03*
X159283400Y-103733600D03*
X159283400Y-101193600D03*
X159283400Y-98653600D03*
X159283400Y-96113600D03*
X159283400Y-93573600D03*
X159283400Y-91033600D03*
X159283400Y-88493600D03*
X159283400Y-85953600D03*
X159283400Y-83413600D03*
X159283400Y-80873600D03*
X159283400Y-78333600D03*
X159283400Y-75793600D03*
D13*
X154501200Y-94173200D03*
X153851200Y-94173200D03*
X153201200Y-94173200D03*
X152551200Y-94173200D03*
X151901200Y-94173200D03*
X151251200Y-94173200D03*
X150601200Y-94173200D03*
X149951200Y-94173200D03*
X149301200Y-94173200D03*
X148651200Y-94173200D03*
X148651200Y-99898200D03*
X149301200Y-99898200D03*
X149951200Y-99898200D03*
X150601200Y-99898200D03*
X151251200Y-99898200D03*
X151901200Y-99898200D03*
X152551200Y-99898200D03*
X153201200Y-99898200D03*
X153851200Y-99898200D03*
X154501200Y-99898200D03*
D15*
X139141200Y-55397400D03*
D16*
X139141200Y-57937400D03*
X139141200Y-60477400D03*
X139141200Y-63017400D03*
X139141200Y-65557400D03*
X139141200Y-68097400D03*
X139141200Y-70637400D03*
X139141200Y-73177400D03*
X139141200Y-75717400D03*
X139141200Y-78257400D03*
X139141200Y-80797400D03*
X139141200Y-83337400D03*
X139141200Y-85877400D03*
X139141200Y-88417400D03*
X139141200Y-90957400D03*
X139141200Y-93497400D03*
X139141200Y-96037400D03*
X139141200Y-98577400D03*
X139141200Y-101117400D03*
X139141200Y-103657400D03*
X139141200Y-106197400D03*
X139141200Y-108737400D03*
X139141200Y-111277400D03*
X139141200Y-113817400D03*
X139141200Y-116357400D03*
X139141200Y-118897400D03*
X139141200Y-121437400D03*
X139141200Y-123977400D03*
X139141200Y-126517400D03*
X139141200Y-129057400D03*
X139141200Y-131597400D03*
X139141200Y-134137400D03*
X164541200Y-134137400D03*
X164541200Y-131597400D03*
X164541200Y-129057400D03*
X164541200Y-126517400D03*
X164541200Y-123977400D03*
X164541200Y-121437400D03*
X164541200Y-118897400D03*
X164541200Y-116357400D03*
X164541200Y-113817400D03*
X164541200Y-111277400D03*
X164541200Y-108737400D03*
X164541200Y-106197400D03*
X164541200Y-103657400D03*
X164541200Y-101117400D03*
X164541200Y-98577400D03*
X164541200Y-96037400D03*
X164541200Y-93497400D03*
X164541200Y-90957400D03*
X164541200Y-88417400D03*
X164541200Y-85877400D03*
X164541200Y-83337400D03*
X164541200Y-80797400D03*
X164541200Y-78257400D03*
X164541200Y-75717400D03*
X164541200Y-73177400D03*
X164541200Y-70637400D03*
X164541200Y-68097400D03*
X164541200Y-65557400D03*
X164541200Y-63017400D03*
X164541200Y-60477400D03*
X164541200Y-57937400D03*
X164541200Y-55397400D03*
D13*
X154512200Y-127541100D03*
X153862200Y-127541100D03*
X153212200Y-127541100D03*
X152562200Y-127541100D03*
X151912200Y-127541100D03*
X151262200Y-127541100D03*
X150612200Y-127541100D03*
X149962200Y-127541100D03*
X149312200Y-127541100D03*
X148662200Y-127541100D03*
X148662200Y-133266100D03*
X149312200Y-133266100D03*
X149962200Y-133266100D03*
X150612200Y-133266100D03*
X151262200Y-133266100D03*
X151912200Y-133266100D03*
X152562200Y-133266100D03*
X153212200Y-133266100D03*
X153862200Y-133266100D03*
X154512200Y-133266100D03*
X154516200Y-110810200D03*
X153866200Y-110810200D03*
X153216200Y-110810200D03*
X152566200Y-110810200D03*
X151916200Y-110810200D03*
X151266200Y-110810200D03*
X150616200Y-110810200D03*
X149966200Y-110810200D03*
X149316200Y-110810200D03*
X148666200Y-110810200D03*
X148666200Y-116535200D03*
X149316200Y-116535200D03*
X149966200Y-116535200D03*
X150616200Y-116535200D03*
X151266200Y-116535200D03*
X151916200Y-116535200D03*
X152566200Y-116535200D03*
X153216200Y-116535200D03*
X153866200Y-116535200D03*
X154516200Y-116535200D03*
X154501200Y-102479000D03*
X153851200Y-102479000D03*
X153201200Y-102479000D03*
X152551200Y-102479000D03*
X151901200Y-102479000D03*
X151251200Y-102479000D03*
X150601200Y-102479000D03*
X149951200Y-102479000D03*
X149301200Y-102479000D03*
X148651200Y-102479000D03*
X148651200Y-108204000D03*
X149301200Y-108204000D03*
X149951200Y-108204000D03*
X150601200Y-108204000D03*
X151251200Y-108204000D03*
X151901200Y-108204000D03*
X152551200Y-108204000D03*
X153201200Y-108204000D03*
X153851200Y-108204000D03*
X154501200Y-108204000D03*
%LPD*%
M02*
