G04 #@! TF.GenerationSoftware,KiCad,Pcbnew,7.0.5*
G04 #@! TF.CreationDate,2023-06-23T21:15:38-07:00*
G04 #@! TF.ProjectId,MCL68,4d434c36-382e-46b6-9963-61645f706362,rev?*
G04 #@! TF.SameCoordinates,Original*
G04 #@! TF.FileFunction,Legend,Bot*
G04 #@! TF.FilePolarity,Positive*
%FSLAX46Y46*%
G04 Gerber Fmt 4.6, Leading zero omitted, Abs format (unit mm)*
G04 Created by KiCad (PCBNEW 7.0.5) date 2023-06-23 21:15:38*
%MOMM*%
%LPD*%
G01*
G04 APERTURE LIST*
G04 Aperture macros list*
%AMRoundRect*
0 Rectangle with rounded corners*
0 $1 Rounding radius*
0 $2 $3 $4 $5 $6 $7 $8 $9 X,Y pos of 4 corners*
0 Add a 4 corners polygon primitive as box body*
4,1,4,$2,$3,$4,$5,$6,$7,$8,$9,$2,$3,0*
0 Add four circle primitives for the rounded corners*
1,1,$1+$1,$2,$3*
1,1,$1+$1,$4,$5*
1,1,$1+$1,$6,$7*
1,1,$1+$1,$8,$9*
0 Add four rect primitives between the rounded corners*
20,1,$1+$1,$2,$3,$4,$5,0*
20,1,$1+$1,$4,$5,$6,$7,0*
20,1,$1+$1,$6,$7,$8,$9,0*
20,1,$1+$1,$8,$9,$2,$3,0*%
G04 Aperture macros list end*
%ADD10C,0.120000*%
%ADD11R,1.600000X1.600000*%
%ADD12O,1.600000X1.600000*%
%ADD13RoundRect,0.250000X-0.250000X-0.475000X0.250000X-0.475000X0.250000X0.475000X-0.250000X0.475000X0*%
%ADD14RoundRect,0.100000X-0.637500X-0.100000X0.637500X-0.100000X0.637500X0.100000X-0.637500X0.100000X0*%
%ADD15RoundRect,0.100000X0.637500X0.100000X-0.637500X0.100000X-0.637500X-0.100000X0.637500X-0.100000X0*%
G04 APERTURE END LIST*
D10*
X148074748Y-122150200D02*
X148597252Y-122150200D01*
X148074748Y-123620200D02*
X148597252Y-123620200D01*
X151485600Y-110955400D02*
X149285600Y-110955400D01*
X151485600Y-110955400D02*
X153685600Y-110955400D01*
X151485600Y-116425400D02*
X147885600Y-116425400D01*
X151485600Y-116425400D02*
X153685600Y-116425400D01*
X151594900Y-108963000D02*
X153794900Y-108963000D01*
X151594900Y-108963000D02*
X149394900Y-108963000D01*
X151594900Y-102193000D02*
X155194900Y-102193000D01*
X151594900Y-102193000D02*
X149394900Y-102193000D01*
X149080300Y-73784000D02*
X151280300Y-73784000D01*
X149080300Y-73784000D02*
X146880300Y-73784000D01*
X149080300Y-67014000D02*
X152680300Y-67014000D01*
X149080300Y-67014000D02*
X146880300Y-67014000D01*
X152102900Y-81865800D02*
X154302900Y-81865800D01*
X152102900Y-81865800D02*
X149902900Y-81865800D01*
X152102900Y-75095800D02*
X155702900Y-75095800D01*
X152102900Y-75095800D02*
X149902900Y-75095800D01*
%LPC*%
D11*
X144043400Y-75793600D03*
D12*
X144043400Y-78333600D03*
X144043400Y-80873600D03*
X144043400Y-83413600D03*
X144043400Y-85953600D03*
X144043400Y-88493600D03*
X144043400Y-91033600D03*
X144043400Y-93573600D03*
X144043400Y-96113600D03*
X144043400Y-98653600D03*
X144043400Y-101193600D03*
X144043400Y-103733600D03*
X144043400Y-106273600D03*
X144043400Y-108813600D03*
X144043400Y-111353600D03*
X144043400Y-113893600D03*
X144043400Y-116433600D03*
X144043400Y-118973600D03*
X144043400Y-121513600D03*
X144043400Y-124053600D03*
X144043400Y-126593600D03*
X144043400Y-129133600D03*
X144043400Y-131673600D03*
X144043400Y-134213600D03*
X159283400Y-134213600D03*
X159283400Y-131673600D03*
X159283400Y-129133600D03*
X159283400Y-126593600D03*
X159283400Y-124053600D03*
X159283400Y-121513600D03*
X159283400Y-118973600D03*
X159283400Y-116433600D03*
X159283400Y-113893600D03*
X159283400Y-111353600D03*
X159283400Y-108813600D03*
X159283400Y-106273600D03*
X159283400Y-103733600D03*
X159283400Y-101193600D03*
X159283400Y-98653600D03*
X159283400Y-96113600D03*
X159283400Y-93573600D03*
X159283400Y-91033600D03*
X159283400Y-88493600D03*
X159283400Y-85953600D03*
X159283400Y-83413600D03*
X159283400Y-80873600D03*
X159283400Y-78333600D03*
X159283400Y-75793600D03*
D11*
X139141200Y-55397400D03*
D12*
X139141200Y-57937400D03*
X139141200Y-60477400D03*
X139141200Y-63017400D03*
X139141200Y-65557400D03*
X139141200Y-68097400D03*
X139141200Y-70637400D03*
X139141200Y-73177400D03*
X139141200Y-75717400D03*
X139141200Y-78257400D03*
X139141200Y-80797400D03*
X139141200Y-83337400D03*
X139141200Y-85877400D03*
X139141200Y-88417400D03*
X139141200Y-90957400D03*
X139141200Y-93497400D03*
X139141200Y-96037400D03*
X139141200Y-98577400D03*
X139141200Y-101117400D03*
X139141200Y-103657400D03*
X139141200Y-106197400D03*
X139141200Y-108737400D03*
X139141200Y-111277400D03*
X139141200Y-113817400D03*
X139141200Y-116357400D03*
X139141200Y-118897400D03*
X139141200Y-121437400D03*
X139141200Y-123977400D03*
X139141200Y-126517400D03*
X139141200Y-129057400D03*
X139141200Y-131597400D03*
X139141200Y-134137400D03*
X164541200Y-134137400D03*
X164541200Y-131597400D03*
X164541200Y-129057400D03*
X164541200Y-126517400D03*
X164541200Y-123977400D03*
X164541200Y-121437400D03*
X164541200Y-118897400D03*
X164541200Y-116357400D03*
X164541200Y-113817400D03*
X164541200Y-111277400D03*
X164541200Y-108737400D03*
X164541200Y-106197400D03*
X164541200Y-103657400D03*
X164541200Y-101117400D03*
X164541200Y-98577400D03*
X164541200Y-96037400D03*
X164541200Y-93497400D03*
X164541200Y-90957400D03*
X164541200Y-88417400D03*
X164541200Y-85877400D03*
X164541200Y-83337400D03*
X164541200Y-80797400D03*
X164541200Y-78257400D03*
X164541200Y-75717400D03*
X164541200Y-73177400D03*
X164541200Y-70637400D03*
X164541200Y-68097400D03*
X164541200Y-65557400D03*
X164541200Y-63017400D03*
X164541200Y-60477400D03*
X164541200Y-57937400D03*
X164541200Y-55397400D03*
D13*
X147386000Y-122885200D03*
X149286000Y-122885200D03*
D14*
X148623100Y-115965400D03*
X148623100Y-115315400D03*
X148623100Y-114665400D03*
X148623100Y-114015400D03*
X148623100Y-113365400D03*
X148623100Y-112715400D03*
X148623100Y-112065400D03*
X148623100Y-111415400D03*
X154348100Y-111415400D03*
X154348100Y-112065400D03*
X154348100Y-112715400D03*
X154348100Y-113365400D03*
X154348100Y-114015400D03*
X154348100Y-114665400D03*
X154348100Y-115315400D03*
X154348100Y-115965400D03*
D15*
X154457400Y-102653000D03*
X154457400Y-103303000D03*
X154457400Y-103953000D03*
X154457400Y-104603000D03*
X154457400Y-105253000D03*
X154457400Y-105903000D03*
X154457400Y-106553000D03*
X154457400Y-107203000D03*
X154457400Y-107853000D03*
X154457400Y-108503000D03*
X148732400Y-108503000D03*
X148732400Y-107853000D03*
X148732400Y-107203000D03*
X148732400Y-106553000D03*
X148732400Y-105903000D03*
X148732400Y-105253000D03*
X148732400Y-104603000D03*
X148732400Y-103953000D03*
X148732400Y-103303000D03*
X148732400Y-102653000D03*
X151942800Y-67474000D03*
X151942800Y-68124000D03*
X151942800Y-68774000D03*
X151942800Y-69424000D03*
X151942800Y-70074000D03*
X151942800Y-70724000D03*
X151942800Y-71374000D03*
X151942800Y-72024000D03*
X151942800Y-72674000D03*
X151942800Y-73324000D03*
X146217800Y-73324000D03*
X146217800Y-72674000D03*
X146217800Y-72024000D03*
X146217800Y-71374000D03*
X146217800Y-70724000D03*
X146217800Y-70074000D03*
X146217800Y-69424000D03*
X146217800Y-68774000D03*
X146217800Y-68124000D03*
X146217800Y-67474000D03*
X154965400Y-75555800D03*
X154965400Y-76205800D03*
X154965400Y-76855800D03*
X154965400Y-77505800D03*
X154965400Y-78155800D03*
X154965400Y-78805800D03*
X154965400Y-79455800D03*
X154965400Y-80105800D03*
X154965400Y-80755800D03*
X154965400Y-81405800D03*
X149240400Y-81405800D03*
X149240400Y-80755800D03*
X149240400Y-80105800D03*
X149240400Y-79455800D03*
X149240400Y-78805800D03*
X149240400Y-78155800D03*
X149240400Y-77505800D03*
X149240400Y-76855800D03*
X149240400Y-76205800D03*
X149240400Y-75555800D03*
%LPD*%
M02*
