G04 #@! TF.GenerationSoftware,KiCad,Pcbnew,7.0.5*
G04 #@! TF.CreationDate,2023-06-23T21:15:38-07:00*
G04 #@! TF.ProjectId,MCL68,4d434c36-382e-46b6-9963-61645f706362,rev?*
G04 #@! TF.SameCoordinates,Original*
G04 #@! TF.FileFunction,Paste,Bot*
G04 #@! TF.FilePolarity,Positive*
%FSLAX46Y46*%
G04 Gerber Fmt 4.6, Leading zero omitted, Abs format (unit mm)*
G04 Created by KiCad (PCBNEW 7.0.5) date 2023-06-23 21:15:38*
%MOMM*%
%LPD*%
G01*
G04 APERTURE LIST*
G04 Aperture macros list*
%AMRoundRect*
0 Rectangle with rounded corners*
0 $1 Rounding radius*
0 $2 $3 $4 $5 $6 $7 $8 $9 X,Y pos of 4 corners*
0 Add a 4 corners polygon primitive as box body*
4,1,4,$2,$3,$4,$5,$6,$7,$8,$9,$2,$3,0*
0 Add four circle primitives for the rounded corners*
1,1,$1+$1,$2,$3*
1,1,$1+$1,$4,$5*
1,1,$1+$1,$6,$7*
1,1,$1+$1,$8,$9*
0 Add four rect primitives between the rounded corners*
20,1,$1+$1,$2,$3,$4,$5,0*
20,1,$1+$1,$4,$5,$6,$7,0*
20,1,$1+$1,$6,$7,$8,$9,0*
20,1,$1+$1,$8,$9,$2,$3,0*%
G04 Aperture macros list end*
%ADD10RoundRect,0.250000X-0.250000X-0.475000X0.250000X-0.475000X0.250000X0.475000X-0.250000X0.475000X0*%
%ADD11RoundRect,0.100000X-0.637500X-0.100000X0.637500X-0.100000X0.637500X0.100000X-0.637500X0.100000X0*%
%ADD12RoundRect,0.100000X0.637500X0.100000X-0.637500X0.100000X-0.637500X-0.100000X0.637500X-0.100000X0*%
G04 APERTURE END LIST*
D10*
X147386000Y-122885200D03*
X149286000Y-122885200D03*
D11*
X148623100Y-115965400D03*
X148623100Y-115315400D03*
X148623100Y-114665400D03*
X148623100Y-114015400D03*
X148623100Y-113365400D03*
X148623100Y-112715400D03*
X148623100Y-112065400D03*
X148623100Y-111415400D03*
X154348100Y-111415400D03*
X154348100Y-112065400D03*
X154348100Y-112715400D03*
X154348100Y-113365400D03*
X154348100Y-114015400D03*
X154348100Y-114665400D03*
X154348100Y-115315400D03*
X154348100Y-115965400D03*
D12*
X154457400Y-102653000D03*
X154457400Y-103303000D03*
X154457400Y-103953000D03*
X154457400Y-104603000D03*
X154457400Y-105253000D03*
X154457400Y-105903000D03*
X154457400Y-106553000D03*
X154457400Y-107203000D03*
X154457400Y-107853000D03*
X154457400Y-108503000D03*
X148732400Y-108503000D03*
X148732400Y-107853000D03*
X148732400Y-107203000D03*
X148732400Y-106553000D03*
X148732400Y-105903000D03*
X148732400Y-105253000D03*
X148732400Y-104603000D03*
X148732400Y-103953000D03*
X148732400Y-103303000D03*
X148732400Y-102653000D03*
X151942800Y-67474000D03*
X151942800Y-68124000D03*
X151942800Y-68774000D03*
X151942800Y-69424000D03*
X151942800Y-70074000D03*
X151942800Y-70724000D03*
X151942800Y-71374000D03*
X151942800Y-72024000D03*
X151942800Y-72674000D03*
X151942800Y-73324000D03*
X146217800Y-73324000D03*
X146217800Y-72674000D03*
X146217800Y-72024000D03*
X146217800Y-71374000D03*
X146217800Y-70724000D03*
X146217800Y-70074000D03*
X146217800Y-69424000D03*
X146217800Y-68774000D03*
X146217800Y-68124000D03*
X146217800Y-67474000D03*
X154965400Y-75555800D03*
X154965400Y-76205800D03*
X154965400Y-76855800D03*
X154965400Y-77505800D03*
X154965400Y-78155800D03*
X154965400Y-78805800D03*
X154965400Y-79455800D03*
X154965400Y-80105800D03*
X154965400Y-80755800D03*
X154965400Y-81405800D03*
X149240400Y-81405800D03*
X149240400Y-80755800D03*
X149240400Y-80105800D03*
X149240400Y-79455800D03*
X149240400Y-78805800D03*
X149240400Y-78155800D03*
X149240400Y-77505800D03*
X149240400Y-76855800D03*
X149240400Y-76205800D03*
X149240400Y-75555800D03*
M02*
