G04 #@! TF.GenerationSoftware,KiCad,Pcbnew,7.0.5*
G04 #@! TF.CreationDate,2023-06-23T21:15:38-07:00*
G04 #@! TF.ProjectId,MCL68,4d434c36-382e-46b6-9963-61645f706362,rev?*
G04 #@! TF.SameCoordinates,Original*
G04 #@! TF.FileFunction,Copper,L4,Bot*
G04 #@! TF.FilePolarity,Positive*
%FSLAX46Y46*%
G04 Gerber Fmt 4.6, Leading zero omitted, Abs format (unit mm)*
G04 Created by KiCad (PCBNEW 7.0.5) date 2023-06-23 21:15:38*
%MOMM*%
%LPD*%
G01*
G04 APERTURE LIST*
G04 Aperture macros list*
%AMRoundRect*
0 Rectangle with rounded corners*
0 $1 Rounding radius*
0 $2 $3 $4 $5 $6 $7 $8 $9 X,Y pos of 4 corners*
0 Add a 4 corners polygon primitive as box body*
4,1,4,$2,$3,$4,$5,$6,$7,$8,$9,$2,$3,0*
0 Add four circle primitives for the rounded corners*
1,1,$1+$1,$2,$3*
1,1,$1+$1,$4,$5*
1,1,$1+$1,$6,$7*
1,1,$1+$1,$8,$9*
0 Add four rect primitives between the rounded corners*
20,1,$1+$1,$2,$3,$4,$5,0*
20,1,$1+$1,$4,$5,$6,$7,0*
20,1,$1+$1,$6,$7,$8,$9,0*
20,1,$1+$1,$8,$9,$2,$3,0*%
G04 Aperture macros list end*
G04 #@! TA.AperFunction,ComponentPad*
%ADD10R,1.600000X1.600000*%
G04 #@! TD*
G04 #@! TA.AperFunction,ComponentPad*
%ADD11O,1.600000X1.600000*%
G04 #@! TD*
G04 #@! TA.AperFunction,SMDPad,CuDef*
%ADD12RoundRect,0.250000X-0.250000X-0.475000X0.250000X-0.475000X0.250000X0.475000X-0.250000X0.475000X0*%
G04 #@! TD*
G04 #@! TA.AperFunction,SMDPad,CuDef*
%ADD13RoundRect,0.100000X-0.637500X-0.100000X0.637500X-0.100000X0.637500X0.100000X-0.637500X0.100000X0*%
G04 #@! TD*
G04 #@! TA.AperFunction,SMDPad,CuDef*
%ADD14RoundRect,0.100000X0.637500X0.100000X-0.637500X0.100000X-0.637500X-0.100000X0.637500X-0.100000X0*%
G04 #@! TD*
G04 #@! TA.AperFunction,ViaPad*
%ADD15C,0.500000*%
G04 #@! TD*
G04 #@! TA.AperFunction,Conductor*
%ADD16C,0.152400*%
G04 #@! TD*
G04 #@! TA.AperFunction,Conductor*
%ADD17C,0.304800*%
G04 #@! TD*
G04 #@! TA.AperFunction,Conductor*
%ADD18C,1.016000*%
G04 #@! TD*
G04 APERTURE END LIST*
D10*
X144043400Y-75793600D03*
D11*
X144043400Y-78333600D03*
X144043400Y-80873600D03*
X144043400Y-83413600D03*
X144043400Y-85953600D03*
X144043400Y-88493600D03*
X144043400Y-91033600D03*
X144043400Y-93573600D03*
X144043400Y-96113600D03*
X144043400Y-98653600D03*
X144043400Y-101193600D03*
X144043400Y-103733600D03*
X144043400Y-106273600D03*
X144043400Y-108813600D03*
X144043400Y-111353600D03*
X144043400Y-113893600D03*
X144043400Y-116433600D03*
X144043400Y-118973600D03*
X144043400Y-121513600D03*
X144043400Y-124053600D03*
X144043400Y-126593600D03*
X144043400Y-129133600D03*
X144043400Y-131673600D03*
X144043400Y-134213600D03*
X159283400Y-134213600D03*
X159283400Y-131673600D03*
X159283400Y-129133600D03*
X159283400Y-126593600D03*
X159283400Y-124053600D03*
X159283400Y-121513600D03*
X159283400Y-118973600D03*
X159283400Y-116433600D03*
X159283400Y-113893600D03*
X159283400Y-111353600D03*
X159283400Y-108813600D03*
X159283400Y-106273600D03*
X159283400Y-103733600D03*
X159283400Y-101193600D03*
X159283400Y-98653600D03*
X159283400Y-96113600D03*
X159283400Y-93573600D03*
X159283400Y-91033600D03*
X159283400Y-88493600D03*
X159283400Y-85953600D03*
X159283400Y-83413600D03*
X159283400Y-80873600D03*
X159283400Y-78333600D03*
X159283400Y-75793600D03*
D10*
X139141200Y-55397400D03*
D11*
X139141200Y-57937400D03*
X139141200Y-60477400D03*
X139141200Y-63017400D03*
X139141200Y-65557400D03*
X139141200Y-68097400D03*
X139141200Y-70637400D03*
X139141200Y-73177400D03*
X139141200Y-75717400D03*
X139141200Y-78257400D03*
X139141200Y-80797400D03*
X139141200Y-83337400D03*
X139141200Y-85877400D03*
X139141200Y-88417400D03*
X139141200Y-90957400D03*
X139141200Y-93497400D03*
X139141200Y-96037400D03*
X139141200Y-98577400D03*
X139141200Y-101117400D03*
X139141200Y-103657400D03*
X139141200Y-106197400D03*
X139141200Y-108737400D03*
X139141200Y-111277400D03*
X139141200Y-113817400D03*
X139141200Y-116357400D03*
X139141200Y-118897400D03*
X139141200Y-121437400D03*
X139141200Y-123977400D03*
X139141200Y-126517400D03*
X139141200Y-129057400D03*
X139141200Y-131597400D03*
X139141200Y-134137400D03*
X164541200Y-134137400D03*
X164541200Y-131597400D03*
X164541200Y-129057400D03*
X164541200Y-126517400D03*
X164541200Y-123977400D03*
X164541200Y-121437400D03*
X164541200Y-118897400D03*
X164541200Y-116357400D03*
X164541200Y-113817400D03*
X164541200Y-111277400D03*
X164541200Y-108737400D03*
X164541200Y-106197400D03*
X164541200Y-103657400D03*
X164541200Y-101117400D03*
X164541200Y-98577400D03*
X164541200Y-96037400D03*
X164541200Y-93497400D03*
X164541200Y-90957400D03*
X164541200Y-88417400D03*
X164541200Y-85877400D03*
X164541200Y-83337400D03*
X164541200Y-80797400D03*
X164541200Y-78257400D03*
X164541200Y-75717400D03*
X164541200Y-73177400D03*
X164541200Y-70637400D03*
X164541200Y-68097400D03*
X164541200Y-65557400D03*
X164541200Y-63017400D03*
X164541200Y-60477400D03*
X164541200Y-57937400D03*
X164541200Y-55397400D03*
D12*
X147386000Y-122885200D03*
X149286000Y-122885200D03*
D13*
X148623100Y-115965400D03*
X148623100Y-115315400D03*
X148623100Y-114665400D03*
X148623100Y-114015400D03*
X148623100Y-113365400D03*
X148623100Y-112715400D03*
X148623100Y-112065400D03*
X148623100Y-111415400D03*
X154348100Y-111415400D03*
X154348100Y-112065400D03*
X154348100Y-112715400D03*
X154348100Y-113365400D03*
X154348100Y-114015400D03*
X154348100Y-114665400D03*
X154348100Y-115315400D03*
X154348100Y-115965400D03*
D14*
X154457400Y-102653000D03*
X154457400Y-103303000D03*
X154457400Y-103953000D03*
X154457400Y-104603000D03*
X154457400Y-105253000D03*
X154457400Y-105903000D03*
X154457400Y-106553000D03*
X154457400Y-107203000D03*
X154457400Y-107853000D03*
X154457400Y-108503000D03*
X148732400Y-108503000D03*
X148732400Y-107853000D03*
X148732400Y-107203000D03*
X148732400Y-106553000D03*
X148732400Y-105903000D03*
X148732400Y-105253000D03*
X148732400Y-104603000D03*
X148732400Y-103953000D03*
X148732400Y-103303000D03*
X148732400Y-102653000D03*
X151942800Y-67474000D03*
X151942800Y-68124000D03*
X151942800Y-68774000D03*
X151942800Y-69424000D03*
X151942800Y-70074000D03*
X151942800Y-70724000D03*
X151942800Y-71374000D03*
X151942800Y-72024000D03*
X151942800Y-72674000D03*
X151942800Y-73324000D03*
X146217800Y-73324000D03*
X146217800Y-72674000D03*
X146217800Y-72024000D03*
X146217800Y-71374000D03*
X146217800Y-70724000D03*
X146217800Y-70074000D03*
X146217800Y-69424000D03*
X146217800Y-68774000D03*
X146217800Y-68124000D03*
X146217800Y-67474000D03*
X154965400Y-75555800D03*
X154965400Y-76205800D03*
X154965400Y-76855800D03*
X154965400Y-77505800D03*
X154965400Y-78155800D03*
X154965400Y-78805800D03*
X154965400Y-79455800D03*
X154965400Y-80105800D03*
X154965400Y-80755800D03*
X154965400Y-81405800D03*
X149240400Y-81405800D03*
X149240400Y-80755800D03*
X149240400Y-80105800D03*
X149240400Y-79455800D03*
X149240400Y-78805800D03*
X149240400Y-78155800D03*
X149240400Y-77505800D03*
X149240400Y-76855800D03*
X149240400Y-76205800D03*
X149240400Y-75555800D03*
D15*
X149840380Y-114939000D03*
X151866600Y-101092010D03*
X146431000Y-94386400D03*
X147550435Y-92557298D03*
X142231400Y-79730600D03*
X149606000Y-82575400D03*
X141859000Y-90652600D03*
X147599400Y-90271600D03*
X147671600Y-88341200D03*
X141208822Y-88703022D03*
X140788200Y-93684125D03*
X153361200Y-103632000D03*
X155701094Y-101550106D03*
X138328400Y-92176600D03*
X155579000Y-106908600D03*
X142697200Y-64566800D03*
X156714000Y-108258720D03*
X148793200Y-101346000D03*
X156032200Y-88315800D03*
X144576800Y-67868800D03*
X148742400Y-109474000D03*
X148818600Y-120675400D03*
X152273000Y-74015600D03*
X148005800Y-93878400D03*
X150626478Y-76153678D03*
X154990800Y-74752200D03*
X155549600Y-82143600D03*
X150622000Y-122885200D03*
X152810962Y-114660163D03*
X150016219Y-92638938D03*
X154833985Y-109314273D03*
X147447000Y-103149400D03*
X148712200Y-129082800D03*
X153390600Y-70739000D03*
X152654000Y-91524231D03*
X147574000Y-105410000D03*
X138222166Y-102445175D03*
X150786714Y-105463797D03*
X153106600Y-88432719D03*
X146532600Y-91135200D03*
X148793200Y-86664800D03*
X146913600Y-115900200D03*
X147294600Y-104546400D03*
X145948422Y-103906922D03*
X141605000Y-104698800D03*
X162331400Y-76250800D03*
X161497804Y-75569000D03*
X161284243Y-74721047D03*
X156337000Y-112090200D03*
X156235400Y-109626400D03*
X155938822Y-99915378D03*
X153301443Y-100949783D03*
X152624600Y-101648259D03*
X147320000Y-113411000D03*
X154325922Y-118038278D03*
X149885400Y-67741800D03*
X154533600Y-126238000D03*
X155676600Y-115671600D03*
X155448000Y-109753400D03*
X149910800Y-66268600D03*
X148024366Y-133153634D03*
X145865360Y-88763396D03*
X138172000Y-114919613D03*
X150342600Y-89560400D03*
X150317200Y-91592400D03*
X154580400Y-92786200D03*
X155016200Y-95885000D03*
X157407796Y-106984800D03*
X155194000Y-94005400D03*
X154809895Y-101537138D03*
X145389600Y-67005200D03*
X147370800Y-124485400D03*
X155041600Y-99466400D03*
X149326600Y-74625200D03*
X155524200Y-108915200D03*
X155219400Y-117830600D03*
X154551300Y-86926500D03*
X152788849Y-115312191D03*
X155270202Y-124884100D03*
X155448000Y-134086600D03*
X153238200Y-97155000D03*
X153238200Y-89789000D03*
X150037800Y-103733600D03*
X147175837Y-107894967D03*
X145867722Y-85403600D03*
X140694600Y-85398796D03*
X151917400Y-75920600D03*
X146257731Y-106852233D03*
X136719596Y-82287216D03*
X140246543Y-104690200D03*
X155288495Y-102060535D03*
X147825085Y-107959047D03*
X155902100Y-102455600D03*
X145469800Y-100609400D03*
X145745200Y-108305600D03*
X141274800Y-95783400D03*
X138277600Y-94538796D03*
X155287910Y-94786089D03*
X152746690Y-95781831D03*
X152102962Y-95675799D03*
X151649993Y-96145318D03*
X151120750Y-95700491D03*
X150080378Y-95508000D03*
X149438428Y-95391681D03*
X137828624Y-122775376D03*
X148818600Y-83642200D03*
X142570200Y-108153200D03*
X152811093Y-113796693D03*
X156616400Y-121005600D03*
X160858200Y-105994200D03*
X155934600Y-94699945D03*
X154670176Y-83048915D03*
X151307800Y-74777600D03*
X155897932Y-104662117D03*
X157124400Y-111302800D03*
D16*
X149463980Y-115315400D02*
X149840380Y-114939000D01*
X148623100Y-115315400D02*
X149463980Y-115315400D01*
X146431000Y-94386400D02*
X146431000Y-93676733D01*
X146431000Y-93676733D02*
X147550435Y-92557298D01*
X146217800Y-68774000D02*
X139817800Y-68774000D01*
X139817800Y-68774000D02*
X139141200Y-68097400D01*
X140354600Y-69424000D02*
X139141200Y-70637400D01*
X146217800Y-69424000D02*
X140354600Y-69424000D01*
X142244600Y-70074000D02*
X139141200Y-73177400D01*
X146217800Y-70074000D02*
X142244600Y-70074000D01*
X146217800Y-70724000D02*
X144134600Y-70724000D01*
X144134600Y-70724000D02*
X139141200Y-75717400D01*
X153905189Y-105253000D02*
X153361200Y-104709011D01*
X153361200Y-104709011D02*
X153361200Y-103632000D01*
X154457400Y-105253000D02*
X153905189Y-105253000D01*
X140538200Y-77241600D02*
X140538200Y-79400400D01*
X146217800Y-73324000D02*
X144455800Y-73324000D01*
X144455800Y-73324000D02*
X140538200Y-77241600D01*
X140538200Y-79400400D02*
X139141200Y-80797400D01*
X156387800Y-102236812D02*
X155701094Y-101550106D01*
X154671000Y-107416600D02*
X156184600Y-107416600D01*
X156387800Y-107213400D02*
X156387800Y-102236812D01*
X154457400Y-107203000D02*
X154671000Y-107416600D01*
X156184600Y-107416600D02*
X156387800Y-107213400D01*
X155223400Y-106553000D02*
X155579000Y-106908600D01*
X154457400Y-106553000D02*
X155223400Y-106553000D01*
X154457400Y-107853000D02*
X156308280Y-107853000D01*
X156308280Y-107853000D02*
X156714000Y-108258720D01*
X154965400Y-74777600D02*
X154990800Y-74752200D01*
X150574356Y-76205800D02*
X150626478Y-76153678D01*
X151942800Y-73324000D02*
X151942800Y-73685400D01*
D17*
X154965400Y-75555800D02*
X154965400Y-74777600D01*
D16*
X144832000Y-68124000D02*
X144576800Y-67868800D01*
X153523739Y-115315400D02*
X152868502Y-114660163D01*
X154965400Y-81405800D02*
X154965400Y-81559400D01*
X148742400Y-111296100D02*
X148742400Y-109474000D01*
X151942800Y-70724000D02*
X153375600Y-70724000D01*
X152755600Y-71374000D02*
X153390600Y-70739000D01*
X148732400Y-103303000D02*
X147600600Y-103303000D01*
X154348100Y-115315400D02*
X153523739Y-115315400D01*
X153375600Y-70724000D02*
X153390600Y-70739000D01*
X148623100Y-111415400D02*
X148742400Y-111296100D01*
X146217800Y-68124000D02*
X144832000Y-68124000D01*
X152868502Y-114660163D02*
X152810962Y-114660163D01*
D17*
X149240400Y-76205800D02*
X150574356Y-76205800D01*
D16*
X154457400Y-108937688D02*
X154833985Y-109314273D01*
D17*
X154965400Y-81559400D02*
X155549600Y-82143600D01*
D16*
X151942800Y-73685400D02*
X152273000Y-74015600D01*
X147600600Y-103303000D02*
X147447000Y-103149400D01*
X154457400Y-108503000D02*
X154457400Y-108937688D01*
X151942800Y-71374000D02*
X152755600Y-71374000D01*
D18*
X149286000Y-122885200D02*
X150622000Y-122885200D01*
D16*
X139141200Y-96037400D02*
X140131800Y-95046800D01*
X149106037Y-95046800D02*
X152628606Y-91524231D01*
X140131800Y-95046800D02*
X149106037Y-95046800D01*
X152628606Y-91524231D02*
X152654000Y-91524231D01*
X138099800Y-99618800D02*
X139141200Y-98577400D01*
X138700766Y-102246932D02*
X138420409Y-101966575D01*
X138074400Y-103269784D02*
X138700766Y-102643418D01*
X139674600Y-110032800D02*
X138430000Y-110032800D01*
X138430000Y-110032800D02*
X138099800Y-109702600D01*
X146269861Y-114665400D02*
X143986661Y-112382200D01*
X138174618Y-101966575D02*
X138099800Y-101891757D01*
X143986661Y-112382200D02*
X142024000Y-112382200D01*
X138700766Y-102643418D02*
X138700766Y-102246932D01*
X142024000Y-112382200D02*
X139674600Y-110032800D01*
X138099800Y-105053652D02*
X138074400Y-105028252D01*
X138099800Y-101891757D02*
X138099800Y-99618800D01*
X138074400Y-105028252D02*
X138074400Y-103269784D01*
X148623100Y-114665400D02*
X146269861Y-114665400D01*
X138099800Y-109702600D02*
X138099800Y-105053652D01*
X138420409Y-101966575D02*
X138174618Y-101966575D01*
X147731000Y-105253000D02*
X147574000Y-105410000D01*
X148732400Y-105253000D02*
X147731000Y-105253000D01*
X146217800Y-72674000D02*
X143639261Y-72674000D01*
X143639261Y-72674000D02*
X139249661Y-77063600D01*
X138506200Y-77063600D02*
X137617200Y-77952600D01*
X137617200Y-77952600D02*
X137617200Y-101840209D01*
X139249661Y-77063600D02*
X138506200Y-77063600D01*
X137617200Y-101840209D02*
X138222166Y-102445175D01*
X151225917Y-105903000D02*
X150786714Y-105463797D01*
X154457400Y-105903000D02*
X151225917Y-105903000D01*
X146878400Y-112715400D02*
X144310000Y-110147000D01*
X140550800Y-110147000D02*
X139141200Y-108737400D01*
X148623100Y-112715400D02*
X146878400Y-112715400D01*
X144310000Y-110147000D02*
X140550800Y-110147000D01*
X146405600Y-116103400D02*
X144703800Y-117805200D01*
X142773400Y-117805200D02*
X139141200Y-121437400D01*
X146710400Y-116103400D02*
X146405600Y-116103400D01*
X148732400Y-104603000D02*
X147351200Y-104603000D01*
X144703800Y-117805200D02*
X142773400Y-117805200D01*
X147351200Y-104603000D02*
X147294600Y-104546400D01*
X146913600Y-115900200D02*
X146710400Y-116103400D01*
X145994500Y-103953000D02*
X145948422Y-103906922D01*
X148732400Y-103953000D02*
X145994500Y-103953000D01*
X154965400Y-80755800D02*
X156337000Y-80755800D01*
X156337000Y-80755800D02*
X156337000Y-82270600D01*
X158623000Y-84556600D02*
X160782000Y-84556600D01*
X160782000Y-84556600D02*
X164541200Y-80797400D01*
X156337000Y-82270600D02*
X158623000Y-84556600D01*
X156629887Y-80105800D02*
X158731087Y-82207000D01*
X158731087Y-82207000D02*
X160591600Y-82207000D01*
X154965400Y-80105800D02*
X156629887Y-80105800D01*
X160591600Y-82207000D02*
X164541200Y-78257400D01*
X164541200Y-76301600D02*
X164541200Y-75717400D01*
X156410939Y-79455800D02*
X158857339Y-81902200D01*
X163499800Y-78111861D02*
X163499800Y-77343000D01*
X158857339Y-81902200D02*
X159709461Y-81902200D01*
X163499800Y-77343000D02*
X164541200Y-76301600D01*
X159709461Y-81902200D02*
X163499800Y-78111861D01*
X154965400Y-79455800D02*
X156410939Y-79455800D01*
X163512600Y-74206000D02*
X164541200Y-73177400D01*
X154965400Y-78805800D02*
X157546548Y-78805800D01*
X158547548Y-79806800D02*
X160604948Y-79806800D01*
X160604948Y-79806800D02*
X163512600Y-76899148D01*
X157546548Y-78805800D02*
X158547548Y-79806800D01*
X163512600Y-76899148D02*
X163512600Y-74206000D01*
X154965400Y-78155800D02*
X157327600Y-78155800D01*
X160436586Y-79502000D02*
X163207800Y-76730786D01*
X163207800Y-71970800D02*
X164541200Y-70637400D01*
X163207800Y-76730786D02*
X163207800Y-71970800D01*
X157327600Y-78155800D02*
X158673800Y-79502000D01*
X158673800Y-79502000D02*
X160436586Y-79502000D01*
X157124400Y-77216000D02*
X156794200Y-77546200D01*
X161340800Y-77216000D02*
X157124400Y-77216000D01*
X162331400Y-76250800D02*
X162306000Y-76250800D01*
X162306000Y-76250800D02*
X161340800Y-77216000D01*
X155005800Y-77546200D02*
X154965400Y-77505800D01*
X156794200Y-77546200D02*
X155005800Y-77546200D01*
X160211004Y-76855800D02*
X161497804Y-75569000D01*
X154965400Y-76855800D02*
X160211004Y-76855800D01*
X157002364Y-74721047D02*
X161284243Y-74721047D01*
X155517611Y-76205800D02*
X157002364Y-74721047D01*
X154965400Y-76205800D02*
X155517611Y-76205800D01*
X156235400Y-109626400D02*
X157192600Y-108669200D01*
X154348100Y-112065400D02*
X156312200Y-112065400D01*
X154348100Y-112715400D02*
X155711800Y-112715400D01*
X155711800Y-112715400D02*
X156337000Y-112090200D01*
X156312200Y-112065400D02*
X156337000Y-112090200D01*
X157192600Y-108669200D02*
X157192600Y-108060477D01*
X156722609Y-100699165D02*
X155938822Y-99915378D01*
X156722609Y-107780120D02*
X156722609Y-100699165D01*
X157192600Y-108060477D02*
X156912243Y-107780120D01*
X156912243Y-107780120D02*
X156722609Y-107780120D01*
X154484900Y-114528600D02*
X154348100Y-114665400D01*
X155905200Y-114528600D02*
X154484900Y-114528600D01*
X153301443Y-101803459D02*
X153301443Y-100949783D01*
X153382000Y-113601511D02*
X153382000Y-113487557D01*
X154348100Y-114567611D02*
X153382000Y-113601511D01*
X150003301Y-105101601D02*
X153301443Y-101803459D01*
X150003301Y-110108858D02*
X150003301Y-105101601D01*
X154348100Y-114015400D02*
X155849200Y-114015400D01*
X153382000Y-113487557D02*
X150003301Y-110108858D01*
X154348100Y-114665400D02*
X154348100Y-114567611D01*
X155905200Y-114071400D02*
X155905200Y-114528600D01*
X155849200Y-114015400D02*
X155905200Y-114071400D01*
X147365600Y-113365400D02*
X147320000Y-113411000D01*
X148623100Y-113365400D02*
X147365600Y-113365400D01*
X151942800Y-67474000D02*
X150127800Y-67474000D01*
X154119103Y-109753400D02*
X154596269Y-109753400D01*
X142722600Y-130352800D02*
X144043400Y-131673600D01*
X155032228Y-109792873D02*
X155071701Y-109753400D01*
X152882954Y-102653000D02*
X150308100Y-105227854D01*
X155071701Y-109753400D02*
X155448000Y-109753400D01*
X150308100Y-105942397D02*
X154119103Y-109753400D01*
X149098000Y-131673600D02*
X144043400Y-131673600D01*
X150308100Y-105227854D02*
X150308100Y-105942397D01*
X154457400Y-102653000D02*
X152882954Y-102653000D01*
X150127800Y-67474000D02*
X150114000Y-67487800D01*
X154635742Y-109792873D02*
X155032228Y-109792873D01*
X140385800Y-66268600D02*
X139776200Y-66878200D01*
X137312400Y-129438400D02*
X138226800Y-130352800D01*
X154533600Y-126238000D02*
X154533600Y-118245956D01*
X154533600Y-126238000D02*
X149098000Y-131673600D01*
X138252200Y-66878200D02*
X137312400Y-67818000D01*
X137312400Y-67818000D02*
X137312400Y-129438400D01*
X150114000Y-67487800D02*
X149885400Y-67716400D01*
X139776200Y-66878200D02*
X138252200Y-66878200D01*
X149885400Y-67716400D02*
X149885400Y-67741800D01*
X154533600Y-118245956D02*
X154325922Y-118038278D01*
X138226800Y-130352800D02*
X142722600Y-130352800D01*
X154596269Y-109753400D02*
X154635742Y-109792873D01*
X149910800Y-66268600D02*
X140385800Y-66268600D01*
X146964400Y-134213600D02*
X148024366Y-133153634D01*
X144043400Y-134213600D02*
X146964400Y-134213600D01*
X144043400Y-124053600D02*
X148623100Y-119473900D01*
X148623100Y-119473900D02*
X148623100Y-115965400D01*
X155016200Y-95885000D02*
X157407802Y-98276602D01*
X157407802Y-98276602D02*
X157407802Y-106984794D01*
X157407802Y-106984794D02*
X157407796Y-106984800D01*
X154406600Y-94792800D02*
X154406600Y-101133843D01*
X154406600Y-101133843D02*
X154809895Y-101537138D01*
X155194000Y-94005400D02*
X154406600Y-94792800D01*
X148732400Y-102653000D02*
X149439796Y-102653000D01*
D17*
X153280631Y-95531166D02*
X153280631Y-89831431D01*
D16*
X149240400Y-74711400D02*
X149326600Y-74625200D01*
X146217800Y-67474000D02*
X145858400Y-67474000D01*
D18*
X147370800Y-122900400D02*
X147386000Y-122885200D01*
X147370800Y-124485400D02*
X147370800Y-122900400D01*
D16*
X154348100Y-115965400D02*
X153442058Y-115965400D01*
X153442058Y-115965400D02*
X152788849Y-115312191D01*
D17*
X149566800Y-102653000D02*
X149284611Y-102653000D01*
D16*
X149284611Y-102653000D02*
X148732400Y-102653000D01*
D17*
X153301490Y-96011637D02*
X153301490Y-95552025D01*
X150037800Y-103124000D02*
X149566800Y-102653000D01*
X153301490Y-95552025D02*
X153280631Y-95531166D01*
X153238200Y-97155000D02*
X153280631Y-97112569D01*
X148732400Y-102545236D02*
X153280631Y-97997005D01*
X148732400Y-102653000D02*
X148732400Y-102545236D01*
X153280631Y-96032496D02*
X153301490Y-96011637D01*
X153280631Y-97997005D02*
X153280631Y-97197431D01*
X145858400Y-67474000D02*
X145389600Y-67005200D01*
X153280631Y-97197431D02*
X153238200Y-97155000D01*
X150037800Y-103733600D02*
X150037800Y-103124000D01*
X153280631Y-97112569D02*
X153280631Y-96032496D01*
D16*
X153280631Y-89831431D02*
X153238200Y-89789000D01*
D17*
X149240400Y-75555800D02*
X149240400Y-74711400D01*
D16*
X148732400Y-107203000D02*
X147533600Y-107203000D01*
X147175837Y-107560763D02*
X147175837Y-107894967D01*
X147533600Y-107203000D02*
X147175837Y-107560763D01*
X151942800Y-72674000D02*
X151390589Y-72674000D01*
X141168396Y-84925000D02*
X140694600Y-85398796D01*
X150825200Y-73618157D02*
X151917400Y-74710357D01*
X145867722Y-85403600D02*
X145389122Y-84925000D01*
X150825200Y-73239389D02*
X150825200Y-73618157D01*
X151390589Y-72674000D02*
X150825200Y-73239389D01*
X145389122Y-84925000D02*
X141168396Y-84925000D01*
X151917400Y-74710357D02*
X151917400Y-75920600D01*
X148732400Y-106553000D02*
X146556964Y-106553000D01*
X146556964Y-106553000D02*
X146257731Y-106852233D01*
X146518083Y-105903000D02*
X145779183Y-106641900D01*
X140246543Y-106700204D02*
X140246543Y-104690200D01*
X145072000Y-109239661D02*
X144469461Y-109842200D01*
X145779183Y-106845100D02*
X145072000Y-107552283D01*
X148732400Y-105903000D02*
X146518083Y-105903000D01*
X145072000Y-107552283D02*
X145072000Y-109239661D01*
X144469461Y-109842200D02*
X143388539Y-109842200D01*
X145779183Y-106641900D02*
X145779183Y-106845100D01*
X143388539Y-109842200D02*
X140246543Y-106700204D01*
X155423500Y-102195540D02*
X155288495Y-102060535D01*
X155423500Y-102889111D02*
X155423500Y-102195540D01*
X154457400Y-103303000D02*
X155009611Y-103303000D01*
X155009611Y-103303000D02*
X155423500Y-102889111D01*
X148626353Y-107959047D02*
X147825085Y-107959047D01*
X148732400Y-107853000D02*
X148626353Y-107959047D01*
X155009611Y-103953000D02*
X155902100Y-103060511D01*
X155902100Y-103060511D02*
X155902100Y-102455600D01*
X154457400Y-103953000D02*
X155009611Y-103953000D01*
X140995400Y-79908400D02*
X142570200Y-78333600D01*
X148732400Y-108503000D02*
X146298200Y-108503000D01*
X144542600Y-99682200D02*
X145469800Y-100609400D01*
X138074400Y-93109539D02*
X138715139Y-92468800D01*
X143617339Y-99682200D02*
X144542600Y-99682200D01*
X140169800Y-91866261D02*
X140169800Y-84417000D01*
X138074400Y-94335596D02*
X138074400Y-93109539D01*
X146298200Y-108503000D02*
X146100800Y-108305600D01*
X139567261Y-92468800D02*
X140169800Y-91866261D01*
X141274800Y-95783400D02*
X141274800Y-97339661D01*
X140169800Y-84417000D02*
X140995400Y-83591400D01*
X146100800Y-108305600D02*
X145745200Y-108305600D01*
X138715139Y-92468800D02*
X139567261Y-92468800D01*
X141274800Y-97339661D02*
X143617339Y-99682200D01*
X138277600Y-94538796D02*
X138074400Y-94335596D01*
X142570200Y-78333600D02*
X144043400Y-78333600D01*
X140995400Y-83591400D02*
X140995400Y-79908400D01*
X158483401Y-117233599D02*
X159283400Y-116433600D01*
X153602362Y-117233599D02*
X158483401Y-117233599D01*
X150384163Y-114015400D02*
X153602362Y-117233599D01*
X148623100Y-114015400D02*
X150384163Y-114015400D01*
X149783800Y-112983985D02*
X149783800Y-112674400D01*
X149783800Y-112674400D02*
X149174800Y-112065400D01*
X153538215Y-116738400D02*
X149783800Y-112983985D01*
X159283400Y-113893600D02*
X156438600Y-116738400D01*
X149174800Y-112065400D02*
X148623100Y-112065400D01*
X156438600Y-116738400D02*
X153538215Y-116738400D01*
X156122052Y-111415400D02*
X158191200Y-109346252D01*
X158191200Y-109346252D02*
X158191200Y-102285800D01*
X154348100Y-111415400D02*
X156122052Y-111415400D01*
X158191200Y-102285800D02*
X159283400Y-101193600D01*
X157886400Y-109220000D02*
X157886400Y-100050600D01*
X153382000Y-111134348D02*
X153823148Y-110693200D01*
X153795889Y-113365400D02*
X153382000Y-112951511D01*
X154348100Y-113365400D02*
X153795889Y-113365400D01*
X153823148Y-110693200D02*
X156413200Y-110693200D01*
X153382000Y-112951511D02*
X153382000Y-111134348D01*
X157886400Y-100050600D02*
X159283400Y-98653600D01*
X156413200Y-110693200D02*
X157886400Y-109220000D01*
X155813229Y-95311408D02*
X155287910Y-94786089D01*
X159283400Y-108813600D02*
X161696400Y-106400600D01*
X161696400Y-96189800D02*
X160401000Y-94894400D01*
X157204718Y-94894400D02*
X156787710Y-95311408D01*
X156787710Y-95311408D02*
X155813229Y-95311408D01*
X160401000Y-94894400D02*
X157204718Y-94894400D01*
X161696400Y-106400600D02*
X161696400Y-96189800D01*
X144043400Y-108813600D02*
X144043400Y-108103148D01*
X152746690Y-96299562D02*
X152746690Y-95781831D01*
X145376800Y-103669452D02*
X152746690Y-96299562D01*
X145376800Y-106769748D02*
X145376800Y-103669452D01*
X144043400Y-108103148D02*
X145376800Y-106769748D01*
X145072000Y-105245000D02*
X145072000Y-103366148D01*
X152128593Y-96435807D02*
X152128593Y-95947075D01*
X152102962Y-95921444D02*
X152102962Y-95675799D01*
X144043400Y-106273600D02*
X145072000Y-105245000D01*
X151459722Y-97104678D02*
X152128593Y-96435807D01*
X145072000Y-103366148D02*
X151333470Y-97104678D01*
X152128593Y-95947075D02*
X152102962Y-95921444D01*
X151333470Y-97104678D02*
X151459722Y-97104678D01*
X151631682Y-96145318D02*
X151649993Y-96145318D01*
X144043400Y-103733600D02*
X151631682Y-96145318D01*
X144043400Y-101193600D02*
X145627641Y-101193600D01*
X145627641Y-101193600D02*
X151120750Y-95700491D01*
X146934778Y-98653600D02*
X150080378Y-95508000D01*
X144043400Y-98653600D02*
X146934778Y-98653600D01*
X148716509Y-96113600D02*
X149438428Y-95391681D01*
X144043400Y-96113600D02*
X148716509Y-96113600D01*
X142781624Y-122775376D02*
X137828624Y-122775376D01*
X148818600Y-81827600D02*
X148818600Y-83642200D01*
X144043400Y-121513600D02*
X142781624Y-122775376D01*
X149240400Y-81405800D02*
X148818600Y-81827600D01*
X149792611Y-80755800D02*
X150206500Y-81169689D01*
X138981939Y-94742000D02*
X137922000Y-95801939D01*
X137922000Y-96755661D02*
X138715139Y-97548800D01*
X150206500Y-88865161D02*
X144329661Y-94742000D01*
X138715139Y-97548800D02*
X139567261Y-97548800D01*
X144329661Y-94742000D02*
X138981939Y-94742000D01*
X150206500Y-81169689D02*
X150206500Y-88865161D01*
X137922000Y-95801939D02*
X137922000Y-96755661D01*
X139567261Y-97548800D02*
X142570200Y-100551739D01*
X149240400Y-80755800D02*
X149792611Y-80755800D01*
X142570200Y-100551739D02*
X142570200Y-108153200D01*
X149240400Y-80105800D02*
X149792611Y-80105800D01*
X153898600Y-98094800D02*
X150603053Y-101390347D01*
X149698500Y-104975350D02*
X149698500Y-110684100D01*
X153492200Y-89179400D02*
X153898600Y-89585800D01*
X152141043Y-88575057D02*
X152745386Y-89179400D01*
X153898600Y-89585800D02*
X153898600Y-98094800D01*
X149698500Y-110684100D02*
X152811093Y-113796693D01*
X152141043Y-82454232D02*
X152141043Y-88575057D01*
X150603053Y-101390347D02*
X150603053Y-104070797D01*
X149792611Y-80105800D02*
X152141043Y-82454232D01*
X152745386Y-89179400D02*
X153492200Y-89179400D01*
X150603053Y-104070797D02*
X149698500Y-104975350D01*
X155934600Y-90250200D02*
X152475300Y-86790900D01*
X152475300Y-86790900D02*
X152475300Y-82138489D01*
X152475300Y-82138489D02*
X149792611Y-79455800D01*
X155934600Y-94699945D02*
X155934600Y-90250200D01*
X149792611Y-79455800D02*
X149240400Y-79455800D01*
X160020000Y-92252800D02*
X160502600Y-91770200D01*
X160502600Y-89712800D02*
X159283400Y-88493600D01*
X160502600Y-91770200D02*
X160502600Y-89712800D01*
X154038663Y-83832315D02*
X157149800Y-86943452D01*
X157149800Y-90830400D02*
X158572200Y-92252800D01*
X152780100Y-81793289D02*
X152780100Y-82599900D01*
X158572200Y-92252800D02*
X160020000Y-92252800D01*
X157149800Y-86943452D02*
X157149800Y-90830400D01*
X154012515Y-83832315D02*
X154038663Y-83832315D01*
X149240400Y-78805800D02*
X149792611Y-78805800D01*
X152780100Y-82599900D02*
X154012515Y-83832315D01*
X149792611Y-78805800D02*
X152780100Y-81793289D01*
X157683200Y-87045800D02*
X157683200Y-89433400D01*
X153084900Y-82447500D02*
X157683200Y-87045800D01*
X149240400Y-78155800D02*
X149792611Y-78155800D01*
X153084900Y-81448089D02*
X153084900Y-82447500D01*
X149792611Y-78155800D02*
X153084900Y-81448089D01*
X157683200Y-89433400D02*
X159283400Y-91033600D01*
X149792611Y-77505800D02*
X153389700Y-81102889D01*
X154245115Y-83048915D02*
X154670176Y-83048915D01*
X153389700Y-82193500D02*
X154245115Y-83048915D01*
X149240400Y-77505800D02*
X149792611Y-77505800D01*
X153389700Y-81102889D02*
X153389700Y-82193500D01*
X153694500Y-80757689D02*
X153694500Y-81768163D01*
X155225105Y-83298768D02*
X157879937Y-85953600D01*
X149240400Y-76855800D02*
X149792611Y-76855800D01*
X157879937Y-85953600D02*
X159283400Y-85953600D01*
X154437305Y-82139200D02*
X155225105Y-82927000D01*
X154065537Y-82139200D02*
X154437305Y-82139200D01*
X155225105Y-82927000D02*
X155225105Y-83298768D01*
X153694500Y-81768163D02*
X154065537Y-82139200D01*
X149792611Y-76855800D02*
X153694500Y-80757689D01*
X151942800Y-68124000D02*
X153036200Y-68124000D01*
X154191789Y-81834400D02*
X154563557Y-81834400D01*
X162204400Y-121132600D02*
X159283400Y-124053600D01*
X162204400Y-86741000D02*
X162204400Y-121132600D01*
X160324800Y-84861400D02*
X162204400Y-86741000D01*
X153999300Y-69087100D02*
X153999300Y-81641911D01*
X153999300Y-81641911D02*
X154191789Y-81834400D01*
X157590557Y-84861400D02*
X160324800Y-84861400D01*
X154563557Y-81834400D02*
X157590557Y-84861400D01*
X153036200Y-68124000D02*
X153999300Y-69087100D01*
X144551400Y-91033600D02*
X144043400Y-91033600D01*
X146583400Y-74650600D02*
X146583400Y-89001600D01*
X147802600Y-72361989D02*
X147802600Y-73431400D01*
X151942800Y-68774000D02*
X151390589Y-68774000D01*
X147802600Y-73431400D02*
X146583400Y-74650600D01*
X151390589Y-68774000D02*
X147802600Y-72361989D01*
X146583400Y-89001600D02*
X144551400Y-91033600D01*
X144469461Y-92062200D02*
X143617339Y-92062200D01*
X142976600Y-91421461D02*
X142976600Y-89560400D01*
X146888200Y-89127852D02*
X146659600Y-89356452D01*
X146659600Y-89356452D02*
X146659600Y-89872061D01*
X148107400Y-72707189D02*
X148107400Y-73557652D01*
X151390589Y-69424000D02*
X148107400Y-72707189D01*
X143617339Y-92062200D02*
X142976600Y-91421461D01*
X151942800Y-69424000D02*
X151390589Y-69424000D01*
X142976600Y-89560400D02*
X144043400Y-88493600D01*
X146659600Y-89872061D02*
X144469461Y-92062200D01*
X146888200Y-74776852D02*
X146888200Y-89127852D01*
X148107400Y-73557652D02*
X146888200Y-74776852D01*
X147193000Y-89769713D02*
X144595713Y-92367000D01*
X147193000Y-74903104D02*
X147193000Y-89769713D01*
X148412200Y-73683904D02*
X147193000Y-74903104D01*
X143065400Y-92367000D02*
X142646400Y-91948000D01*
X148412200Y-73052389D02*
X148412200Y-73683904D01*
X144595713Y-92367000D02*
X143065400Y-92367000D01*
X142646400Y-91948000D02*
X142646400Y-87350600D01*
X151942800Y-70074000D02*
X151390589Y-70074000D01*
X142646400Y-87350600D02*
X144043400Y-85953600D01*
X151390589Y-70074000D02*
X148412200Y-73052389D01*
X151390589Y-72024000D02*
X150520400Y-72894189D01*
X150520400Y-73990200D02*
X151307800Y-74777600D01*
X151942800Y-72024000D02*
X151390589Y-72024000D01*
X150520400Y-72894189D02*
X150520400Y-73990200D01*
X159283400Y-134213600D02*
X158254800Y-133185000D01*
X158419800Y-112598200D02*
X157124400Y-111302800D01*
X160528000Y-116840000D02*
X160528000Y-113055400D01*
X160528000Y-113055400D02*
X160070800Y-112598200D01*
X158717539Y-117602000D02*
X159766000Y-117602000D01*
X159766000Y-117602000D02*
X160528000Y-116840000D01*
X158254800Y-118064739D02*
X158717539Y-117602000D01*
X160070800Y-112598200D02*
X158419800Y-112598200D01*
X158254800Y-133185000D02*
X158254800Y-118064739D01*
X155838815Y-104603000D02*
X155897932Y-104662117D01*
X154457400Y-104603000D02*
X155838815Y-104603000D01*
M02*
