M48
; DRILL file {KiCad 7.0.5} date Fri Jun 23 21:16:40 2023
; FORMAT={-:-/ absolute / metric / decimal}
; #@! TF.CreationDate,2023-06-23T21:16:40-07:00
; #@! TF.GenerationSoftware,Kicad,Pcbnew,7.0.5
; #@! TF.FileFunction,Plated,1,4,PTH
FMAT,2
METRIC
; #@! TA.AperFunction,Plated,PTH,ViaDrill
T1C0.300
; #@! TA.AperFunction,Plated,PTH,ComponentDrill
T2C0.800
%
G90
G05
T1
X136.72Y-82.287
X137.829Y-122.775
X138.172Y-114.92
X138.222Y-102.445
X138.278Y-94.539
X138.328Y-92.177
X140.247Y-104.69
X140.695Y-85.399
X140.788Y-93.684
X141.209Y-88.703
X141.275Y-95.783
X141.605Y-104.699
X141.859Y-90.653
X142.231Y-79.731
X142.57Y-108.153
X142.697Y-64.567
X144.577Y-67.869
X145.39Y-67.005
X145.47Y-100.609
X145.745Y-108.306
X145.865Y-88.763
X145.868Y-85.404
X145.948Y-103.907
X146.258Y-106.852
X146.431Y-94.386
X146.533Y-91.135
X146.914Y-115.9
X147.176Y-107.895
X147.295Y-104.546
X147.32Y-113.411
X147.371Y-124.485
X147.447Y-103.149
X147.55Y-92.557
X147.574Y-105.41
X147.599Y-90.272
X147.672Y-88.341
X147.825Y-107.959
X148.006Y-93.878
X148.024Y-133.154
X148.712Y-129.083
X148.742Y-109.474
X148.793Y-86.665
X148.793Y-101.346
X148.819Y-83.642
X148.819Y-120.675
X149.327Y-74.625
X149.438Y-95.392
X149.606Y-82.575
X149.84Y-114.939
X149.885Y-67.742
X149.911Y-66.269
X150.016Y-92.639
X150.038Y-103.734
X150.08Y-95.508
X150.317Y-91.592
X150.343Y-89.56
X150.622Y-122.885
X150.626Y-76.154
X150.787Y-105.464
X151.121Y-95.7
X151.308Y-74.778
X151.65Y-96.145
X151.867Y-101.092
X151.917Y-75.921
X152.103Y-95.676
X152.273Y-74.016
X152.625Y-101.648
X152.654Y-91.524
X152.747Y-95.782
X152.789Y-115.312
X152.811Y-114.66
X152.811Y-113.797
X153.107Y-88.433
X153.238Y-89.789
X153.238Y-97.155
X153.301Y-100.95
X153.361Y-103.632
X153.391Y-70.739
X154.326Y-118.038
X154.534Y-126.238
X154.551Y-86.926
X154.58Y-92.786
X154.67Y-83.049
X154.81Y-101.537
X154.834Y-109.314
X154.991Y-74.752
X155.016Y-95.885
X155.042Y-99.466
X155.194Y-94.005
X155.219Y-117.831
X155.27Y-124.884
X155.288Y-94.786
X155.288Y-102.061
X155.448Y-109.753
X155.448Y-134.087
X155.524Y-108.915
X155.55Y-82.144
X155.579Y-106.909
X155.677Y-115.672
X155.701Y-101.55
X155.898Y-104.662
X155.902Y-102.456
X155.935Y-94.7
X155.939Y-99.915
X156.032Y-88.316
X156.235Y-109.626
X156.337Y-112.09
X156.616Y-121.006
X156.714Y-108.259
X157.124Y-111.303
X157.408Y-106.985
X160.858Y-105.994
X161.284Y-74.721
X161.498Y-75.569
X162.331Y-76.251
T2
X139.141Y-55.397
X139.141Y-57.937
X139.141Y-60.477
X139.141Y-63.017
X139.141Y-65.557
X139.141Y-68.097
X139.141Y-70.637
X139.141Y-73.177
X139.141Y-75.717
X139.141Y-78.257
X139.141Y-80.797
X139.141Y-83.337
X139.141Y-85.877
X139.141Y-88.417
X139.141Y-90.957
X139.141Y-93.497
X139.141Y-96.037
X139.141Y-98.577
X139.141Y-101.117
X139.141Y-103.657
X139.141Y-106.197
X139.141Y-108.737
X139.141Y-111.277
X139.141Y-113.817
X139.141Y-116.357
X139.141Y-118.897
X139.141Y-121.437
X139.141Y-123.977
X139.141Y-126.517
X139.141Y-129.057
X139.141Y-131.597
X139.141Y-134.137
X144.043Y-75.794
X144.043Y-78.334
X144.043Y-80.874
X144.043Y-83.414
X144.043Y-85.954
X144.043Y-88.494
X144.043Y-91.034
X144.043Y-93.574
X144.043Y-96.114
X144.043Y-98.654
X144.043Y-101.194
X144.043Y-103.734
X144.043Y-106.274
X144.043Y-108.814
X144.043Y-111.354
X144.043Y-113.894
X144.043Y-116.434
X144.043Y-118.974
X144.043Y-121.514
X144.043Y-124.054
X144.043Y-126.594
X144.043Y-129.134
X144.043Y-131.674
X144.043Y-134.214
X159.283Y-75.794
X159.283Y-78.334
X159.283Y-80.874
X159.283Y-83.414
X159.283Y-85.954
X159.283Y-88.494
X159.283Y-91.034
X159.283Y-93.574
X159.283Y-96.114
X159.283Y-98.654
X159.283Y-101.194
X159.283Y-103.734
X159.283Y-106.274
X159.283Y-108.814
X159.283Y-111.354
X159.283Y-113.894
X159.283Y-116.434
X159.283Y-118.974
X159.283Y-121.514
X159.283Y-124.054
X159.283Y-126.594
X159.283Y-129.134
X159.283Y-131.674
X159.283Y-134.214
X164.541Y-55.397
X164.541Y-57.937
X164.541Y-60.477
X164.541Y-63.017
X164.541Y-65.557
X164.541Y-68.097
X164.541Y-70.637
X164.541Y-73.177
X164.541Y-75.717
X164.541Y-78.257
X164.541Y-80.797
X164.541Y-83.337
X164.541Y-85.877
X164.541Y-88.417
X164.541Y-90.957
X164.541Y-93.497
X164.541Y-96.037
X164.541Y-98.577
X164.541Y-101.117
X164.541Y-103.657
X164.541Y-106.197
X164.541Y-108.737
X164.541Y-111.277
X164.541Y-113.817
X164.541Y-116.357
X164.541Y-118.897
X164.541Y-121.437
X164.541Y-123.977
X164.541Y-126.517
X164.541Y-129.057
X164.541Y-131.597
X164.541Y-134.137
T0
M30
