G04 #@! TF.GenerationSoftware,KiCad,Pcbnew,7.0.5*
G04 #@! TF.CreationDate,2023-06-23T21:15:38-07:00*
G04 #@! TF.ProjectId,MCL68,4d434c36-382e-46b6-9963-61645f706362,rev?*
G04 #@! TF.SameCoordinates,Original*
G04 #@! TF.FileFunction,Soldermask,Top*
G04 #@! TF.FilePolarity,Negative*
%FSLAX46Y46*%
G04 Gerber Fmt 4.6, Leading zero omitted, Abs format (unit mm)*
G04 Created by KiCad (PCBNEW 7.0.5) date 2023-06-23 21:15:38*
%MOMM*%
%LPD*%
G01*
G04 APERTURE LIST*
G04 Aperture macros list*
%AMRoundRect*
0 Rectangle with rounded corners*
0 $1 Rounding radius*
0 $2 $3 $4 $5 $6 $7 $8 $9 X,Y pos of 4 corners*
0 Add a 4 corners polygon primitive as box body*
4,1,4,$2,$3,$4,$5,$6,$7,$8,$9,$2,$3,0*
0 Add four circle primitives for the rounded corners*
1,1,$1+$1,$2,$3*
1,1,$1+$1,$4,$5*
1,1,$1+$1,$6,$7*
1,1,$1+$1,$8,$9*
0 Add four rect primitives between the rounded corners*
20,1,$1+$1,$2,$3,$4,$5,0*
20,1,$1+$1,$4,$5,$6,$7,0*
20,1,$1+$1,$6,$7,$8,$9,0*
20,1,$1+$1,$8,$9,$2,$3,0*%
G04 Aperture macros list end*
%ADD10RoundRect,0.100000X-0.100000X0.637500X-0.100000X-0.637500X0.100000X-0.637500X0.100000X0.637500X0*%
%ADD11RoundRect,0.100000X-0.637500X-0.100000X0.637500X-0.100000X0.637500X0.100000X-0.637500X0.100000X0*%
%ADD12R,1.600000X1.600000*%
%ADD13O,1.600000X1.600000*%
G04 APERTURE END LIST*
D10*
X154512200Y-119159100D03*
X153862200Y-119159100D03*
X153212200Y-119159100D03*
X152562200Y-119159100D03*
X151912200Y-119159100D03*
X151262200Y-119159100D03*
X150612200Y-119159100D03*
X149962200Y-119159100D03*
X149312200Y-119159100D03*
X148662200Y-119159100D03*
X148662200Y-124884100D03*
X149312200Y-124884100D03*
X149962200Y-124884100D03*
X150612200Y-124884100D03*
X151262200Y-124884100D03*
X151912200Y-124884100D03*
X152562200Y-124884100D03*
X153212200Y-124884100D03*
X153862200Y-124884100D03*
X154512200Y-124884100D03*
D11*
X148826300Y-87666400D03*
X148826300Y-88316400D03*
X148826300Y-88966400D03*
X148826300Y-89616400D03*
X148826300Y-90266400D03*
X148826300Y-90916400D03*
X148826300Y-91566400D03*
X148826300Y-92216400D03*
X154551300Y-92216400D03*
X154551300Y-91566400D03*
X154551300Y-90916400D03*
X154551300Y-90266400D03*
X154551300Y-89616400D03*
X154551300Y-88966400D03*
X154551300Y-88316400D03*
X154551300Y-87666400D03*
D12*
X144043400Y-75793600D03*
D13*
X144043400Y-78333600D03*
X144043400Y-80873600D03*
X144043400Y-83413600D03*
X144043400Y-85953600D03*
X144043400Y-88493600D03*
X144043400Y-91033600D03*
X144043400Y-93573600D03*
X144043400Y-96113600D03*
X144043400Y-98653600D03*
X144043400Y-101193600D03*
X144043400Y-103733600D03*
X144043400Y-106273600D03*
X144043400Y-108813600D03*
X144043400Y-111353600D03*
X144043400Y-113893600D03*
X144043400Y-116433600D03*
X144043400Y-118973600D03*
X144043400Y-121513600D03*
X144043400Y-124053600D03*
X144043400Y-126593600D03*
X144043400Y-129133600D03*
X144043400Y-131673600D03*
X144043400Y-134213600D03*
X159283400Y-134213600D03*
X159283400Y-131673600D03*
X159283400Y-129133600D03*
X159283400Y-126593600D03*
X159283400Y-124053600D03*
X159283400Y-121513600D03*
X159283400Y-118973600D03*
X159283400Y-116433600D03*
X159283400Y-113893600D03*
X159283400Y-111353600D03*
X159283400Y-108813600D03*
X159283400Y-106273600D03*
X159283400Y-103733600D03*
X159283400Y-101193600D03*
X159283400Y-98653600D03*
X159283400Y-96113600D03*
X159283400Y-93573600D03*
X159283400Y-91033600D03*
X159283400Y-88493600D03*
X159283400Y-85953600D03*
X159283400Y-83413600D03*
X159283400Y-80873600D03*
X159283400Y-78333600D03*
X159283400Y-75793600D03*
D10*
X154501200Y-94173200D03*
X153851200Y-94173200D03*
X153201200Y-94173200D03*
X152551200Y-94173200D03*
X151901200Y-94173200D03*
X151251200Y-94173200D03*
X150601200Y-94173200D03*
X149951200Y-94173200D03*
X149301200Y-94173200D03*
X148651200Y-94173200D03*
X148651200Y-99898200D03*
X149301200Y-99898200D03*
X149951200Y-99898200D03*
X150601200Y-99898200D03*
X151251200Y-99898200D03*
X151901200Y-99898200D03*
X152551200Y-99898200D03*
X153201200Y-99898200D03*
X153851200Y-99898200D03*
X154501200Y-99898200D03*
D12*
X139141200Y-55397400D03*
D13*
X139141200Y-57937400D03*
X139141200Y-60477400D03*
X139141200Y-63017400D03*
X139141200Y-65557400D03*
X139141200Y-68097400D03*
X139141200Y-70637400D03*
X139141200Y-73177400D03*
X139141200Y-75717400D03*
X139141200Y-78257400D03*
X139141200Y-80797400D03*
X139141200Y-83337400D03*
X139141200Y-85877400D03*
X139141200Y-88417400D03*
X139141200Y-90957400D03*
X139141200Y-93497400D03*
X139141200Y-96037400D03*
X139141200Y-98577400D03*
X139141200Y-101117400D03*
X139141200Y-103657400D03*
X139141200Y-106197400D03*
X139141200Y-108737400D03*
X139141200Y-111277400D03*
X139141200Y-113817400D03*
X139141200Y-116357400D03*
X139141200Y-118897400D03*
X139141200Y-121437400D03*
X139141200Y-123977400D03*
X139141200Y-126517400D03*
X139141200Y-129057400D03*
X139141200Y-131597400D03*
X139141200Y-134137400D03*
X164541200Y-134137400D03*
X164541200Y-131597400D03*
X164541200Y-129057400D03*
X164541200Y-126517400D03*
X164541200Y-123977400D03*
X164541200Y-121437400D03*
X164541200Y-118897400D03*
X164541200Y-116357400D03*
X164541200Y-113817400D03*
X164541200Y-111277400D03*
X164541200Y-108737400D03*
X164541200Y-106197400D03*
X164541200Y-103657400D03*
X164541200Y-101117400D03*
X164541200Y-98577400D03*
X164541200Y-96037400D03*
X164541200Y-93497400D03*
X164541200Y-90957400D03*
X164541200Y-88417400D03*
X164541200Y-85877400D03*
X164541200Y-83337400D03*
X164541200Y-80797400D03*
X164541200Y-78257400D03*
X164541200Y-75717400D03*
X164541200Y-73177400D03*
X164541200Y-70637400D03*
X164541200Y-68097400D03*
X164541200Y-65557400D03*
X164541200Y-63017400D03*
X164541200Y-60477400D03*
X164541200Y-57937400D03*
X164541200Y-55397400D03*
D10*
X154512200Y-127541100D03*
X153862200Y-127541100D03*
X153212200Y-127541100D03*
X152562200Y-127541100D03*
X151912200Y-127541100D03*
X151262200Y-127541100D03*
X150612200Y-127541100D03*
X149962200Y-127541100D03*
X149312200Y-127541100D03*
X148662200Y-127541100D03*
X148662200Y-133266100D03*
X149312200Y-133266100D03*
X149962200Y-133266100D03*
X150612200Y-133266100D03*
X151262200Y-133266100D03*
X151912200Y-133266100D03*
X152562200Y-133266100D03*
X153212200Y-133266100D03*
X153862200Y-133266100D03*
X154512200Y-133266100D03*
X154516200Y-110810200D03*
X153866200Y-110810200D03*
X153216200Y-110810200D03*
X152566200Y-110810200D03*
X151916200Y-110810200D03*
X151266200Y-110810200D03*
X150616200Y-110810200D03*
X149966200Y-110810200D03*
X149316200Y-110810200D03*
X148666200Y-110810200D03*
X148666200Y-116535200D03*
X149316200Y-116535200D03*
X149966200Y-116535200D03*
X150616200Y-116535200D03*
X151266200Y-116535200D03*
X151916200Y-116535200D03*
X152566200Y-116535200D03*
X153216200Y-116535200D03*
X153866200Y-116535200D03*
X154516200Y-116535200D03*
X154501200Y-102479000D03*
X153851200Y-102479000D03*
X153201200Y-102479000D03*
X152551200Y-102479000D03*
X151901200Y-102479000D03*
X151251200Y-102479000D03*
X150601200Y-102479000D03*
X149951200Y-102479000D03*
X149301200Y-102479000D03*
X148651200Y-102479000D03*
X148651200Y-108204000D03*
X149301200Y-108204000D03*
X149951200Y-108204000D03*
X150601200Y-108204000D03*
X151251200Y-108204000D03*
X151901200Y-108204000D03*
X152551200Y-108204000D03*
X153201200Y-108204000D03*
X153851200Y-108204000D03*
X154501200Y-108204000D03*
M02*
