G04 #@! TF.GenerationSoftware,KiCad,Pcbnew,(6.0.5)*
G04 #@! TF.CreationDate,2024-08-24T22:28:27-07:00*
G04 #@! TF.ProjectId,XTMAX_PCB,58544d41-585f-4504-9342-2e6b69636164,rev?*
G04 #@! TF.SameCoordinates,Original*
G04 #@! TF.FileFunction,Soldermask,Bot*
G04 #@! TF.FilePolarity,Negative*
%FSLAX46Y46*%
G04 Gerber Fmt 4.6, Leading zero omitted, Abs format (unit mm)*
G04 Created by KiCad (PCBNEW (6.0.5)) date 2024-08-24 22:28:27*
%MOMM*%
%LPD*%
G01*
G04 APERTURE LIST*
%ADD10C,0.010000*%
%ADD11R,1.700000X1.700000*%
%ADD12O,1.700000X1.700000*%
%ADD13R,1.780000X7.366000*%
%ADD14R,1.600000X1.600000*%
%ADD15C,1.600000*%
G04 APERTURE END LIST*
G36*
X169291000Y-113284000D02*
G01*
X88265000Y-113284000D01*
X88265000Y-105664000D01*
X169291000Y-105664000D01*
X169291000Y-113284000D01*
G37*
D10*
X169291000Y-113284000D02*
X88265000Y-113284000D01*
X88265000Y-105664000D01*
X169291000Y-105664000D01*
X169291000Y-113284000D01*
D11*
X91694000Y-84328000D03*
D12*
X91694000Y-86868000D03*
D11*
X166878000Y-100070996D03*
D12*
X166878000Y-102610996D03*
X164338000Y-100070996D03*
X164338000Y-102610996D03*
X161798000Y-100070996D03*
X161798000Y-102610996D03*
X159258000Y-100070996D03*
X159258000Y-102610996D03*
X156718000Y-100070996D03*
X156718000Y-102610996D03*
X154178000Y-100070996D03*
X154178000Y-102610996D03*
X151638000Y-100070996D03*
X151638000Y-102610996D03*
X149098000Y-100070996D03*
X149098000Y-102610996D03*
X146558000Y-100070996D03*
X146558000Y-102610996D03*
X144018000Y-100070996D03*
X144018000Y-102610996D03*
X141478000Y-100070996D03*
X141478000Y-102610996D03*
X138938000Y-100070996D03*
X138938000Y-102610996D03*
X136398000Y-100070996D03*
X136398000Y-102610996D03*
X133858000Y-100070996D03*
X133858000Y-102610996D03*
X131318000Y-100070996D03*
X131318000Y-102610996D03*
X128778000Y-100070996D03*
X128778000Y-102610996D03*
X126238000Y-100070996D03*
X126238000Y-102610996D03*
X123698000Y-100070996D03*
X123698000Y-102610996D03*
X121158000Y-100070996D03*
X121158000Y-102610996D03*
X118618000Y-100070996D03*
X118618000Y-102610996D03*
X116078000Y-100070996D03*
X116078000Y-102610996D03*
X113538000Y-100070996D03*
X113538000Y-102610996D03*
X110998000Y-100070996D03*
X110998000Y-102610996D03*
X108458000Y-100070996D03*
X108458000Y-102610996D03*
X105918000Y-100070996D03*
X105918000Y-102610996D03*
X103378000Y-100070996D03*
X103378000Y-102610996D03*
X100838000Y-100070996D03*
X100838000Y-102610996D03*
X98298000Y-100070996D03*
X98298000Y-102610996D03*
X95758000Y-100070996D03*
X95758000Y-102610996D03*
X93218000Y-100070996D03*
X93218000Y-102610996D03*
X90678000Y-100070996D03*
X90678000Y-102610996D03*
D13*
X166878000Y-109347000D03*
X164338000Y-109347000D03*
X161798000Y-109347000D03*
X159258000Y-109347000D03*
X156718000Y-109347000D03*
X154178000Y-109347000D03*
X151638000Y-109347000D03*
X149098000Y-109347000D03*
X146558000Y-109347000D03*
X144018000Y-109347000D03*
X141478000Y-109347000D03*
X138938000Y-109347000D03*
X136398000Y-109347000D03*
X133858000Y-109347000D03*
X131318000Y-109347000D03*
X128778000Y-109347000D03*
X126238000Y-109347000D03*
X123698000Y-109347000D03*
X121158000Y-109347000D03*
X118618000Y-109347000D03*
X116078000Y-109347000D03*
X113538000Y-109347000D03*
X110998000Y-109347000D03*
X108458000Y-109347000D03*
X105918000Y-109347000D03*
X103378000Y-109347000D03*
X100838000Y-109347000D03*
X98298000Y-109347000D03*
X95758000Y-109347000D03*
X93218000Y-109347000D03*
X90678000Y-109347000D03*
D14*
X156718000Y-69596000D03*
D15*
X154178000Y-69596000D03*
X151638000Y-69596000D03*
X149098000Y-69596000D03*
X146558000Y-69596000D03*
X144018000Y-69596000D03*
X141478000Y-69596000D03*
X138938000Y-69596000D03*
X136398000Y-69596000D03*
X133858000Y-69596000D03*
X131318000Y-69596000D03*
X128778000Y-69596000D03*
X126238000Y-69596000D03*
X123698000Y-69596000D03*
X121158000Y-69596000D03*
X118618000Y-69596000D03*
X116078000Y-69596000D03*
X113538000Y-69596000D03*
X110998000Y-69596000D03*
X108458000Y-69596000D03*
X105918000Y-69596000D03*
X103378000Y-69596000D03*
X100838000Y-69596000D03*
X98298000Y-69596000D03*
X98298000Y-84836000D03*
X100838000Y-84836000D03*
X103378000Y-84836000D03*
X105918000Y-84836000D03*
X108458000Y-84836000D03*
X110998000Y-84836000D03*
X113538000Y-84836000D03*
X116078000Y-84836000D03*
X118618000Y-84836000D03*
X121158000Y-84836000D03*
X123698000Y-84836000D03*
X126238000Y-84836000D03*
X128778000Y-84836000D03*
X131318000Y-84836000D03*
X133858000Y-84836000D03*
X136398000Y-84836000D03*
X138938000Y-84836000D03*
X141478000Y-84836000D03*
X144018000Y-84836000D03*
X146558000Y-84836000D03*
X149098000Y-84836000D03*
X151638000Y-84836000D03*
X154178000Y-84836000D03*
X156718000Y-84836000D03*
M02*
