G04 #@! TF.GenerationSoftware,KiCad,Pcbnew,(6.0.5)*
G04 #@! TF.CreationDate,2024-08-24T22:28:27-07:00*
G04 #@! TF.ProjectId,XTMAX_PCB,58544d41-585f-4504-9342-2e6b69636164,rev?*
G04 #@! TF.SameCoordinates,Original*
G04 #@! TF.FileFunction,Copper,L1,Top*
G04 #@! TF.FilePolarity,Positive*
%FSLAX46Y46*%
G04 Gerber Fmt 4.6, Leading zero omitted, Abs format (unit mm)*
G04 Created by KiCad (PCBNEW (6.0.5)) date 2024-08-24 22:28:27*
%MOMM*%
%LPD*%
G01*
G04 APERTURE LIST*
G04 Aperture macros list*
%AMRoundRect*
0 Rectangle with rounded corners*
0 $1 Rounding radius*
0 $2 $3 $4 $5 $6 $7 $8 $9 X,Y pos of 4 corners*
0 Add a 4 corners polygon primitive as box body*
4,1,4,$2,$3,$4,$5,$6,$7,$8,$9,$2,$3,0*
0 Add four circle primitives for the rounded corners*
1,1,$1+$1,$2,$3*
1,1,$1+$1,$4,$5*
1,1,$1+$1,$6,$7*
1,1,$1+$1,$8,$9*
0 Add four rect primitives between the rounded corners*
20,1,$1+$1,$2,$3,$4,$5,0*
20,1,$1+$1,$4,$5,$6,$7,0*
20,1,$1+$1,$6,$7,$8,$9,0*
20,1,$1+$1,$8,$9,$2,$3,0*%
G04 Aperture macros list end*
G04 #@! TA.AperFunction,ComponentPad*
%ADD10R,1.700000X1.700000*%
G04 #@! TD*
G04 #@! TA.AperFunction,ComponentPad*
%ADD11O,1.700000X1.700000*%
G04 #@! TD*
G04 #@! TA.AperFunction,SMDPad,CuDef*
%ADD12RoundRect,0.100000X0.637500X0.100000X-0.637500X0.100000X-0.637500X-0.100000X0.637500X-0.100000X0*%
G04 #@! TD*
G04 #@! TA.AperFunction,SMDPad,CuDef*
%ADD13RoundRect,0.140000X0.170000X-0.140000X0.170000X0.140000X-0.170000X0.140000X-0.170000X-0.140000X0*%
G04 #@! TD*
G04 #@! TA.AperFunction,SMDPad,CuDef*
%ADD14RoundRect,0.100000X-0.100000X0.637500X-0.100000X-0.637500X0.100000X-0.637500X0.100000X0.637500X0*%
G04 #@! TD*
G04 #@! TA.AperFunction,ConnectorPad*
%ADD15R,1.780000X7.366000*%
G04 #@! TD*
G04 #@! TA.AperFunction,SMDPad,CuDef*
%ADD16RoundRect,0.140000X-0.140000X-0.170000X0.140000X-0.170000X0.140000X0.170000X-0.140000X0.170000X0*%
G04 #@! TD*
G04 #@! TA.AperFunction,ComponentPad*
%ADD17R,1.600000X1.600000*%
G04 #@! TD*
G04 #@! TA.AperFunction,ComponentPad*
%ADD18C,1.600000*%
G04 #@! TD*
G04 #@! TA.AperFunction,ViaPad*
%ADD19C,0.584200*%
G04 #@! TD*
G04 #@! TA.AperFunction,Conductor*
%ADD20C,0.254000*%
G04 #@! TD*
G04 #@! TA.AperFunction,Conductor*
%ADD21C,0.152400*%
G04 #@! TD*
G04 APERTURE END LIST*
D10*
X91694000Y-84328000D03*
D11*
X91694000Y-86868000D03*
D10*
X166878000Y-100070996D03*
D11*
X166878000Y-102610996D03*
X164338000Y-100070996D03*
X164338000Y-102610996D03*
X161798000Y-100070996D03*
X161798000Y-102610996D03*
X159258000Y-100070996D03*
X159258000Y-102610996D03*
X156718000Y-100070996D03*
X156718000Y-102610996D03*
X154178000Y-100070996D03*
X154178000Y-102610996D03*
X151638000Y-100070996D03*
X151638000Y-102610996D03*
X149098000Y-100070996D03*
X149098000Y-102610996D03*
X146558000Y-100070996D03*
X146558000Y-102610996D03*
X144018000Y-100070996D03*
X144018000Y-102610996D03*
X141478000Y-100070996D03*
X141478000Y-102610996D03*
X138938000Y-100070996D03*
X138938000Y-102610996D03*
X136398000Y-100070996D03*
X136398000Y-102610996D03*
X133858000Y-100070996D03*
X133858000Y-102610996D03*
X131318000Y-100070996D03*
X131318000Y-102610996D03*
X128778000Y-100070996D03*
X128778000Y-102610996D03*
X126238000Y-100070996D03*
X126238000Y-102610996D03*
X123698000Y-100070996D03*
X123698000Y-102610996D03*
X121158000Y-100070996D03*
X121158000Y-102610996D03*
X118618000Y-100070996D03*
X118618000Y-102610996D03*
X116078000Y-100070996D03*
X116078000Y-102610996D03*
X113538000Y-100070996D03*
X113538000Y-102610996D03*
X110998000Y-100070996D03*
X110998000Y-102610996D03*
X108458000Y-100070996D03*
X108458000Y-102610996D03*
X105918000Y-100070996D03*
X105918000Y-102610996D03*
X103378000Y-100070996D03*
X103378000Y-102610996D03*
X100838000Y-100070996D03*
X100838000Y-102610996D03*
X98298000Y-100070996D03*
X98298000Y-102610996D03*
X95758000Y-100070996D03*
X95758000Y-102610996D03*
X93218000Y-100070996D03*
X93218000Y-102610996D03*
X90678000Y-100070996D03*
X90678000Y-102610996D03*
D12*
X153738500Y-96143000D03*
X153738500Y-95493000D03*
X153738500Y-94843000D03*
X153738500Y-94193000D03*
X153738500Y-93543000D03*
X153738500Y-92893000D03*
X153738500Y-92243000D03*
X153738500Y-91593000D03*
X153738500Y-90943000D03*
X153738500Y-90293000D03*
X148013500Y-90293000D03*
X148013500Y-90943000D03*
X148013500Y-91593000D03*
X148013500Y-92243000D03*
X148013500Y-92893000D03*
X148013500Y-93543000D03*
X148013500Y-94193000D03*
X148013500Y-94843000D03*
X148013500Y-95493000D03*
X148013500Y-96143000D03*
D13*
X141986000Y-94714000D03*
X141986000Y-93754000D03*
D14*
X163453000Y-90101500D03*
X162803000Y-90101500D03*
X162153000Y-90101500D03*
X161503000Y-90101500D03*
X160853000Y-90101500D03*
X160203000Y-90101500D03*
X159553000Y-90101500D03*
X158903000Y-90101500D03*
X158253000Y-90101500D03*
X157603000Y-90101500D03*
X157603000Y-95826500D03*
X158253000Y-95826500D03*
X158903000Y-95826500D03*
X159553000Y-95826500D03*
X160203000Y-95826500D03*
X160853000Y-95826500D03*
X161503000Y-95826500D03*
X162153000Y-95826500D03*
X162803000Y-95826500D03*
X163453000Y-95826500D03*
X103001000Y-90101500D03*
X102351000Y-90101500D03*
X101701000Y-90101500D03*
X101051000Y-90101500D03*
X100401000Y-90101500D03*
X99751000Y-90101500D03*
X99101000Y-90101500D03*
X98451000Y-90101500D03*
X97801000Y-90101500D03*
X97151000Y-90101500D03*
X97151000Y-95826500D03*
X97801000Y-95826500D03*
X98451000Y-95826500D03*
X99101000Y-95826500D03*
X99751000Y-95826500D03*
X100401000Y-95826500D03*
X101051000Y-95826500D03*
X101701000Y-95826500D03*
X102351000Y-95826500D03*
X103001000Y-95826500D03*
X123321000Y-90101500D03*
X122671000Y-90101500D03*
X122021000Y-90101500D03*
X121371000Y-90101500D03*
X120721000Y-90101500D03*
X120071000Y-90101500D03*
X119421000Y-90101500D03*
X118771000Y-90101500D03*
X118121000Y-90101500D03*
X117471000Y-90101500D03*
X117471000Y-95826500D03*
X118121000Y-95826500D03*
X118771000Y-95826500D03*
X119421000Y-95826500D03*
X120071000Y-95826500D03*
X120721000Y-95826500D03*
X121371000Y-95826500D03*
X122021000Y-95826500D03*
X122671000Y-95826500D03*
X123321000Y-95826500D03*
D15*
X166878000Y-109347000D03*
X164338000Y-109347000D03*
X161798000Y-109347000D03*
X159258000Y-109347000D03*
X156718000Y-109347000D03*
X154178000Y-109347000D03*
X151638000Y-109347000D03*
X149098000Y-109347000D03*
X146558000Y-109347000D03*
X144018000Y-109347000D03*
X141478000Y-109347000D03*
X138938000Y-109347000D03*
X136398000Y-109347000D03*
X133858000Y-109347000D03*
X131318000Y-109347000D03*
X128778000Y-109347000D03*
X126238000Y-109347000D03*
X123698000Y-109347000D03*
X121158000Y-109347000D03*
X118618000Y-109347000D03*
X116078000Y-109347000D03*
X113538000Y-109347000D03*
X110998000Y-109347000D03*
X108458000Y-109347000D03*
X105918000Y-109347000D03*
X103378000Y-109347000D03*
X100838000Y-109347000D03*
X98298000Y-109347000D03*
X95758000Y-109347000D03*
X93218000Y-109347000D03*
X90678000Y-109347000D03*
D16*
X152936000Y-88138000D03*
X153896000Y-88138000D03*
D13*
X127000000Y-94714000D03*
X127000000Y-93754000D03*
X105410000Y-94460000D03*
X105410000Y-93500000D03*
D17*
X156718000Y-69596000D03*
D18*
X154178000Y-69596000D03*
X151638000Y-69596000D03*
X149098000Y-69596000D03*
X146558000Y-69596000D03*
X144018000Y-69596000D03*
X141478000Y-69596000D03*
X138938000Y-69596000D03*
X136398000Y-69596000D03*
X133858000Y-69596000D03*
X131318000Y-69596000D03*
X128778000Y-69596000D03*
X126238000Y-69596000D03*
X123698000Y-69596000D03*
X121158000Y-69596000D03*
X118618000Y-69596000D03*
X116078000Y-69596000D03*
X113538000Y-69596000D03*
X110998000Y-69596000D03*
X108458000Y-69596000D03*
X105918000Y-69596000D03*
X103378000Y-69596000D03*
X100838000Y-69596000D03*
X98298000Y-69596000D03*
X98298000Y-84836000D03*
X100838000Y-84836000D03*
X103378000Y-84836000D03*
X105918000Y-84836000D03*
X108458000Y-84836000D03*
X110998000Y-84836000D03*
X113538000Y-84836000D03*
X116078000Y-84836000D03*
X118618000Y-84836000D03*
X121158000Y-84836000D03*
X123698000Y-84836000D03*
X126238000Y-84836000D03*
X128778000Y-84836000D03*
X131318000Y-84836000D03*
X133858000Y-84836000D03*
X136398000Y-84836000D03*
X138938000Y-84836000D03*
X141478000Y-84836000D03*
X144018000Y-84836000D03*
X146558000Y-84836000D03*
X149098000Y-84836000D03*
X151638000Y-84836000D03*
X154178000Y-84836000D03*
X156718000Y-84836000D03*
D14*
X113669000Y-90101500D03*
X113019000Y-90101500D03*
X112369000Y-90101500D03*
X111719000Y-90101500D03*
X111069000Y-90101500D03*
X110419000Y-90101500D03*
X109769000Y-90101500D03*
X109119000Y-90101500D03*
X108469000Y-90101500D03*
X107819000Y-90101500D03*
X107819000Y-95826500D03*
X108469000Y-95826500D03*
X109119000Y-95826500D03*
X109769000Y-95826500D03*
X110419000Y-95826500D03*
X111069000Y-95826500D03*
X111719000Y-95826500D03*
X112369000Y-95826500D03*
X113019000Y-95826500D03*
X113669000Y-95826500D03*
X138815000Y-90101500D03*
X138165000Y-90101500D03*
X137515000Y-90101500D03*
X136865000Y-90101500D03*
X136215000Y-90101500D03*
X135565000Y-90101500D03*
X134915000Y-90101500D03*
X134265000Y-90101500D03*
X133615000Y-90101500D03*
X132965000Y-90101500D03*
X132965000Y-95826500D03*
X133615000Y-95826500D03*
X134265000Y-95826500D03*
X134915000Y-95826500D03*
X135565000Y-95826500D03*
X136215000Y-95826500D03*
X136865000Y-95826500D03*
X137515000Y-95826500D03*
X138165000Y-95826500D03*
X138815000Y-95826500D03*
D19*
X116586000Y-77216000D03*
X139192000Y-76005800D03*
X138176000Y-75692000D03*
X114554000Y-76454000D03*
X127254000Y-82550000D03*
X150622000Y-76962000D03*
X124206000Y-77021800D03*
X150876000Y-81788000D03*
X154178000Y-82804000D03*
X166878000Y-97536000D03*
X163576000Y-83566000D03*
X161036000Y-77470000D03*
X160274000Y-72390000D03*
X95758000Y-92964000D03*
X95758000Y-87376000D03*
X96266000Y-78994000D03*
X96774000Y-73406000D03*
X140970000Y-71882000D03*
X143256000Y-72644000D03*
X146050000Y-71628000D03*
X148590000Y-71882000D03*
X113284000Y-76708000D03*
X108712000Y-79502000D03*
X105410000Y-78740000D03*
X102362000Y-80772000D03*
X104648000Y-74930000D03*
X100330000Y-77724000D03*
X97790000Y-80264000D03*
X116781796Y-75826399D03*
X119634000Y-77470000D03*
X121412000Y-81280000D03*
X118872000Y-81280000D03*
X123952000Y-81280000D03*
X130556000Y-82355800D03*
X131438863Y-76967856D03*
X134238144Y-74166378D03*
X138938000Y-74168000D03*
X137414000Y-76454000D03*
X135128000Y-77470000D03*
X137414000Y-80772000D03*
X142240000Y-79756000D03*
X144720200Y-76708000D03*
X147066000Y-77724000D03*
X152654000Y-73406000D03*
X155194000Y-74422000D03*
X158242000Y-79380778D03*
X140208000Y-91694000D03*
X122682000Y-88138000D03*
X119380000Y-87180177D03*
X113284000Y-86614000D03*
X101600000Y-88392000D03*
X105156000Y-89662000D03*
X102870000Y-91440000D03*
X100076000Y-91948000D03*
X98044000Y-92710000D03*
X109474000Y-97790000D03*
X114810200Y-96893213D03*
X107950000Y-97222200D03*
X108966000Y-98552000D03*
X112014000Y-98806000D03*
X126492000Y-91440000D03*
X143510000Y-97282000D03*
X146304000Y-97536000D03*
X146087322Y-90132678D03*
X144272000Y-87630000D03*
X147066000Y-88392000D03*
X159766000Y-91634200D03*
X162306000Y-88392000D03*
X162560000Y-87122000D03*
X164592000Y-95504000D03*
X163830000Y-93472000D03*
X162052000Y-92710000D03*
X103886000Y-95758000D03*
X142006496Y-95758000D03*
X151638000Y-88138000D03*
X149352000Y-95758000D03*
X127000000Y-95758000D03*
X124460000Y-95758000D03*
X114554000Y-95758000D03*
X105410000Y-95758000D03*
X139954000Y-95758000D03*
X163576000Y-94488000D03*
X138176000Y-94547800D03*
X138788662Y-91306326D03*
X133096000Y-91440000D03*
X123444000Y-91440000D03*
X122682000Y-94547800D03*
X97282000Y-91694000D03*
X106934000Y-90678000D03*
X154940000Y-88138000D03*
X140970000Y-93980000D03*
X155194000Y-96266000D03*
X156718000Y-89916000D03*
X128016000Y-93726000D03*
X153924000Y-89408000D03*
X110489998Y-91440000D03*
X117348000Y-91536289D03*
X113030000Y-94547800D03*
X106172000Y-93472000D03*
X103632000Y-89154000D03*
X163576000Y-88758205D03*
X139700000Y-74676000D03*
X107696000Y-94234000D03*
X142494000Y-97282000D03*
X140192480Y-71783750D03*
X141995408Y-73585055D03*
X142566891Y-73017255D03*
X144272000Y-88413703D03*
X123698000Y-87884000D03*
X145012297Y-71628000D03*
X147828000Y-71628000D03*
X105918000Y-89154000D03*
X146584949Y-89527239D03*
X148082000Y-88900000D03*
X109415796Y-88451800D03*
X136398000Y-97849800D03*
X135614297Y-97849800D03*
X110303759Y-97349759D03*
X109943255Y-98513255D03*
X108773035Y-97439518D03*
X112522000Y-97282000D03*
X145288000Y-97282000D03*
X161544000Y-87122000D03*
X102362000Y-87884000D03*
X126042204Y-90653026D03*
X162051999Y-91693999D03*
X101854000Y-91438378D03*
X136398000Y-80518000D03*
X161322799Y-88604730D03*
X103378000Y-80772000D03*
X139192000Y-92202000D03*
X160782000Y-91440000D03*
X100426482Y-91247035D03*
X153162000Y-74168000D03*
X116023366Y-75628984D03*
X105156000Y-75632200D03*
X152146000Y-74168000D03*
X101092000Y-78486000D03*
X118618000Y-77410305D03*
X98044000Y-81026000D03*
X158903000Y-80163000D03*
X98298000Y-91694000D03*
X161036000Y-92710000D03*
X124989703Y-81220200D03*
X121732548Y-83241492D03*
X120396000Y-81788000D03*
X119653171Y-80929711D03*
X120142000Y-87376000D03*
X119328710Y-87962199D03*
X133099160Y-74166378D03*
X132135547Y-73814467D03*
X129784210Y-82491927D03*
X128465796Y-82355800D03*
X138176000Y-92298289D03*
X143983229Y-76441423D03*
X138430000Y-76708000D03*
X136144000Y-77470000D03*
X146304000Y-77216000D03*
X135128000Y-78486000D03*
X109728000Y-79598289D03*
X141478000Y-79144765D03*
X112268000Y-76708000D03*
X112268000Y-86614000D03*
X155194000Y-75438000D03*
X131106279Y-76258224D03*
X106172000Y-79248000D03*
D20*
X148713000Y-96143000D02*
X149098000Y-95758000D01*
X149098000Y-95758000D02*
X149352000Y-95758000D01*
X148013500Y-96143000D02*
X148713000Y-96143000D01*
X139885500Y-95826500D02*
X139954000Y-95758000D01*
X138815000Y-95826500D02*
X139885500Y-95826500D01*
X141251982Y-93754000D02*
X140997991Y-94007991D01*
X141986000Y-93754000D02*
X141251982Y-93754000D01*
X141986000Y-94968009D02*
X141986000Y-95737504D01*
X141986000Y-95737504D02*
X142006496Y-95758000D01*
X124391500Y-95826500D02*
X124460000Y-95758000D01*
X123321000Y-95826500D02*
X124391500Y-95826500D01*
X127000000Y-94714009D02*
X127000000Y-95758000D01*
X114485500Y-95826500D02*
X114554000Y-95758000D01*
X113669000Y-95826500D02*
X114485500Y-95826500D01*
D21*
X159385042Y-92553912D02*
X159499260Y-92553912D01*
X157945850Y-91114720D02*
X159385042Y-92553912D01*
X162153000Y-95207652D02*
X162153000Y-95826500D01*
X156870046Y-91114720D02*
X157945850Y-91114720D01*
X159499260Y-92553912D02*
X162153000Y-95207652D01*
X156698326Y-90943000D02*
X156870046Y-91114720D01*
X153738500Y-90943000D02*
X156698326Y-90943000D01*
X137515000Y-90101500D02*
X137515000Y-81473993D01*
X137515000Y-81473993D02*
X138430000Y-80558993D01*
X138430000Y-80558993D02*
X138430000Y-76708000D01*
X141427607Y-79094372D02*
X141478000Y-79144765D01*
X142277999Y-72499471D02*
X141427607Y-73349863D01*
X142277999Y-70395999D02*
X142277999Y-72499471D01*
X141478000Y-69596000D02*
X142277999Y-70395999D01*
X142807801Y-74397448D02*
X141995408Y-73585055D01*
X142807801Y-79991192D02*
X142807801Y-74397448D01*
X142553711Y-80245282D02*
X142807801Y-79991192D01*
X142553711Y-90229711D02*
X142553711Y-80245282D01*
X146517000Y-94193000D02*
X142553711Y-90229711D01*
X148013500Y-94193000D02*
X146517000Y-94193000D01*
X143159712Y-73610076D02*
X142566891Y-73017255D01*
X142942199Y-80354472D02*
X143159712Y-80136958D01*
X146883000Y-93543000D02*
X142942199Y-89602199D01*
X141427607Y-73349863D02*
X141427607Y-79094372D01*
X142942199Y-89602199D02*
X142942199Y-80354472D01*
X143159712Y-80136958D02*
X143159712Y-73610076D01*
X148013500Y-93543000D02*
X146883000Y-93543000D01*
X144123962Y-76300690D02*
X143983229Y-76441423D01*
X144018000Y-69596000D02*
X144123962Y-69701962D01*
X144123962Y-69701962D02*
X144123962Y-76300690D01*
X116078000Y-75574350D02*
X116023366Y-75628984D01*
X116078000Y-69596000D02*
X116078000Y-75574350D01*
X108966000Y-69596000D02*
X108458000Y-69596000D01*
X115316000Y-76494993D02*
X115316000Y-75946000D01*
X115316000Y-75946000D02*
X108966000Y-69596000D01*
X114965622Y-76845371D02*
X115316000Y-76494993D01*
X114965622Y-88804878D02*
X114965622Y-76845371D01*
X113669000Y-90101500D02*
X114965622Y-88804878D01*
X114613711Y-76513711D02*
X114554000Y-76454000D01*
X113019000Y-88911000D02*
X114613711Y-87316289D01*
X114613711Y-87316289D02*
X114613711Y-76513711D01*
X113019000Y-90101500D02*
X113019000Y-88911000D01*
X138176000Y-70358000D02*
X138938000Y-69596000D01*
X138176000Y-75692000D02*
X138176000Y-70358000D01*
X132745622Y-85628622D02*
X132745622Y-74519916D01*
X134915000Y-88941000D02*
X132393711Y-86419711D01*
X132393711Y-74072631D02*
X132135547Y-73814467D01*
X134915000Y-90101500D02*
X134915000Y-88941000D01*
X131318000Y-69596000D02*
X131318000Y-76046503D01*
X135565000Y-90101500D02*
X135565000Y-88448000D01*
X135565000Y-88448000D02*
X132745622Y-85628622D01*
X131318000Y-76046503D02*
X131106279Y-76258224D01*
X132393711Y-86419711D02*
X132393711Y-74072631D01*
X132745622Y-74519916D02*
X133099160Y-74166378D01*
X110530998Y-91399000D02*
X110489998Y-91440000D01*
X111719000Y-91399000D02*
X110530998Y-91399000D01*
X110490000Y-91440000D02*
X110489998Y-91440000D01*
X162246199Y-87824199D02*
X161544000Y-87122000D01*
X162541192Y-87824199D02*
X162246199Y-87824199D01*
X162873801Y-90030699D02*
X162873801Y-88156808D01*
X162803000Y-90101500D02*
X162873801Y-90030699D01*
X162873801Y-88156808D02*
X162541192Y-87824199D01*
X146995000Y-92893000D02*
X144272000Y-90170000D01*
X148013500Y-92893000D02*
X146995000Y-92893000D01*
X144272000Y-90170000D02*
X144272000Y-88413703D01*
X113168904Y-98454089D02*
X112268000Y-99354993D01*
X118121000Y-95826500D02*
X118121000Y-96445348D01*
X116112259Y-98454089D02*
X113168904Y-98454089D01*
X112268000Y-99354993D02*
X112268000Y-101341000D01*
X112268000Y-101341000D02*
X113538000Y-102611000D01*
X118121000Y-96445348D02*
X116112259Y-98454089D01*
X160242652Y-92710000D02*
X161036000Y-92710000D01*
X159530808Y-92202001D02*
X159734653Y-92202001D01*
X159198199Y-91869392D02*
X159530808Y-92202001D01*
X159198199Y-91665547D02*
X159198199Y-91869392D01*
X158253000Y-90720348D02*
X159198199Y-91665547D01*
X158253000Y-90101500D02*
X158253000Y-90720348D01*
X159734653Y-92202001D02*
X160242652Y-92710000D01*
X109119000Y-95826500D02*
X109119000Y-97093553D01*
X109119000Y-97093553D02*
X108773035Y-97439518D01*
X100401000Y-90101500D02*
X100401000Y-91221553D01*
X100401000Y-91221553D02*
X100426482Y-91247035D01*
X104588199Y-80831801D02*
X106172000Y-79248000D01*
X102351000Y-95826500D02*
X102351000Y-92975000D01*
X102351000Y-92975000D02*
X104588199Y-90737801D01*
X104588199Y-90737801D02*
X104588199Y-80831801D01*
X102108000Y-85344000D02*
X102108000Y-82042000D01*
X102108000Y-82042000D02*
X103378000Y-80772000D01*
X101032199Y-90082699D02*
X101032199Y-86419801D01*
X101032199Y-86419801D02*
X102108000Y-85344000D01*
X101051000Y-90101500D02*
X101032199Y-90082699D01*
X124146199Y-88705801D02*
X124989703Y-87862297D01*
X124989703Y-87862297D02*
X124989703Y-81220200D01*
X122671000Y-88705801D02*
X124146199Y-88705801D01*
X122671000Y-90101500D02*
X122671000Y-88705801D01*
X130205622Y-82913339D02*
X129784210Y-82491927D01*
X130205622Y-85247622D02*
X130205622Y-82913339D01*
X134265000Y-89307000D02*
X130205622Y-85247622D01*
X134265000Y-90101500D02*
X134265000Y-89307000D01*
X146584949Y-89827312D02*
X146584949Y-89527239D01*
X146655123Y-90203471D02*
X146655123Y-89897486D01*
X147394652Y-90943000D02*
X146655123Y-90203471D01*
X145288000Y-90136348D02*
X145288000Y-71903703D01*
X146617801Y-76902199D02*
X146617801Y-69655801D01*
X147394652Y-92243000D02*
X145288000Y-90136348D01*
X146655123Y-89897486D02*
X146584949Y-89827312D01*
X145288000Y-71903703D02*
X145012297Y-71628000D01*
X146304000Y-77216000D02*
X146617801Y-76902199D01*
X148013500Y-90943000D02*
X147394652Y-90943000D01*
X146617801Y-69655801D02*
X146558000Y-69596000D01*
X148013500Y-92243000D02*
X147394652Y-92243000D01*
X140402289Y-71993559D02*
X140192480Y-71783750D01*
X148013500Y-94843000D02*
X146405000Y-94843000D01*
X140402289Y-88840289D02*
X140402289Y-71993559D01*
X146405000Y-94843000D02*
X140402289Y-88840289D01*
X136398000Y-84836000D02*
X136398000Y-80518000D01*
X119328710Y-90009210D02*
X119328710Y-87962199D01*
X119421000Y-90101500D02*
X119328710Y-90009210D01*
X109119000Y-91339000D02*
X109119000Y-90101500D01*
X109220000Y-91440000D02*
X109119000Y-91339000D01*
X110490000Y-91440000D02*
X109220000Y-91440000D01*
X110490000Y-90172500D02*
X110490000Y-91440000D01*
X110419000Y-90101500D02*
X110490000Y-90172500D01*
X111719000Y-90101500D02*
X111719000Y-91399000D01*
D20*
X163453000Y-94611000D02*
X163576000Y-94488000D01*
X103817500Y-95826500D02*
X103886000Y-95758000D01*
X152935991Y-88138000D02*
X151638000Y-88138000D01*
X105410000Y-94460009D02*
X105410000Y-95758000D01*
X103001000Y-95826500D02*
X103817500Y-95826500D01*
X163453000Y-95826500D02*
X163453000Y-94611000D01*
X122671000Y-95826500D02*
X122671000Y-94558800D01*
X132965000Y-91309000D02*
X133096000Y-91440000D01*
X103001000Y-89785000D02*
X103632000Y-89154000D01*
X123321000Y-91317000D02*
X123444000Y-91440000D01*
X163453000Y-88881205D02*
X163576000Y-88758205D01*
D21*
X117382711Y-91571000D02*
X117348000Y-91536289D01*
D20*
X138815000Y-90101500D02*
X138815000Y-91279988D01*
X153738500Y-90293000D02*
X153738500Y-89593500D01*
X153896009Y-88138000D02*
X154940000Y-88138000D01*
D21*
X140998000Y-94008000D02*
X140970000Y-93980000D01*
D20*
X132965000Y-90101500D02*
X132965000Y-91309000D01*
X138165000Y-95826500D02*
X138165000Y-94558800D01*
X105410000Y-93499991D02*
X106199991Y-93499991D01*
D21*
X106200000Y-93500000D02*
X106172000Y-93472000D01*
D20*
X156903500Y-90101500D02*
X156718000Y-89916000D01*
X97151000Y-90101500D02*
X97151000Y-91563000D01*
X155071000Y-96143000D02*
X155194000Y-96266000D01*
X113019000Y-95826500D02*
X113019000Y-94558800D01*
X97151000Y-91563000D02*
X97282000Y-91694000D01*
X138815000Y-91279988D02*
X138788662Y-91306326D01*
X157603000Y-90101500D02*
X156903500Y-90101500D01*
D21*
X127988000Y-93754000D02*
X128016000Y-93726000D01*
D20*
X153738500Y-89593500D02*
X153924000Y-89408000D01*
X107819000Y-90101500D02*
X107242500Y-90678000D01*
X122671000Y-94558800D02*
X122682000Y-94547800D01*
D21*
X117471000Y-91571000D02*
X117382711Y-91571000D01*
D20*
X127000000Y-93753991D02*
X127988009Y-93753991D01*
X123321000Y-90101500D02*
X123321000Y-91317000D01*
X153738500Y-96143000D02*
X155071000Y-96143000D01*
X117471012Y-90101496D02*
X117471012Y-91570988D01*
X107242500Y-90678000D02*
X106934000Y-90678000D01*
X163453000Y-90101500D02*
X163453000Y-88881205D01*
X113019000Y-94558800D02*
X113030000Y-94547800D01*
X103001000Y-90101500D02*
X103001000Y-89785000D01*
X138165000Y-94558800D02*
X138176000Y-94547800D01*
D21*
X140013711Y-89721711D02*
X140013711Y-74989711D01*
X148013500Y-95493000D02*
X145785000Y-95493000D01*
X145785000Y-95493000D02*
X140013711Y-89721711D01*
X140013711Y-74989711D02*
X139700000Y-74676000D01*
X137668000Y-101341000D02*
X138938000Y-102611000D01*
D20*
X138938000Y-109474000D02*
X138938000Y-102611000D01*
D21*
X137668000Y-99568000D02*
X137668000Y-101341000D01*
X134915000Y-95826500D02*
X134915000Y-98339000D01*
X134915000Y-98339000D02*
X135382000Y-98806000D01*
X136906000Y-98806000D02*
X137668000Y-99568000D01*
X135382000Y-98806000D02*
X136906000Y-98806000D01*
X135128000Y-99314000D02*
X135128000Y-101341000D01*
D20*
X136398000Y-109474000D02*
X136398000Y-102611000D01*
D21*
X134265000Y-95826500D02*
X134265000Y-98451000D01*
X135128000Y-101341000D02*
X136398000Y-102611000D01*
X134265000Y-98451000D02*
X135128000Y-99314000D01*
X132588000Y-101341000D02*
X133858000Y-102611000D01*
X133615000Y-98541000D02*
X132588000Y-99568000D01*
X132588000Y-99568000D02*
X132588000Y-101341000D01*
X133615000Y-95826500D02*
X133615000Y-98541000D01*
D20*
X133858000Y-109474000D02*
X133858000Y-102611000D01*
D21*
X130048000Y-101341000D02*
X131318000Y-102611000D01*
X130048000Y-98743500D02*
X130048000Y-101341000D01*
X132965000Y-95826500D02*
X130048000Y-98743500D01*
D20*
X131318000Y-109474000D02*
X131318000Y-102611000D01*
X128778000Y-109474000D02*
X128778000Y-102611000D01*
D21*
X127508000Y-101341000D02*
X128778000Y-102611000D01*
X127508000Y-99531501D02*
X127508000Y-101341000D01*
X122021000Y-96445348D02*
X122603652Y-97028000D01*
X125004499Y-97028000D02*
X127508000Y-99531501D01*
X122021000Y-95826500D02*
X122021000Y-96445348D01*
X122603652Y-97028000D02*
X125004499Y-97028000D01*
X123731652Y-98806000D02*
X124242499Y-98806000D01*
X124242499Y-98806000D02*
X124968000Y-99531501D01*
X121371000Y-95826500D02*
X121371000Y-96445348D01*
D20*
X126238000Y-109474000D02*
X126238000Y-102611000D01*
D21*
X121371000Y-96445348D02*
X123731652Y-98806000D01*
X124968000Y-99531501D02*
X124968000Y-101341000D01*
X124968000Y-101341000D02*
X126238000Y-102611000D01*
X120721000Y-97861000D02*
X122428000Y-99568000D01*
X122428000Y-101341000D02*
X123698000Y-102611000D01*
X122428000Y-99568000D02*
X122428000Y-101341000D01*
D20*
X123698000Y-109474000D02*
X123698000Y-102611000D01*
D21*
X120721000Y-95826500D02*
X120721000Y-97861000D01*
X119888000Y-96628348D02*
X119888000Y-101341000D01*
D20*
X121158000Y-109474000D02*
X121158000Y-102611000D01*
D21*
X120071000Y-96445348D02*
X119888000Y-96628348D01*
X120071000Y-95826500D02*
X120071000Y-96445348D01*
X119888000Y-101341000D02*
X121158000Y-102611000D01*
X119421000Y-95826500D02*
X119421000Y-96987000D01*
X117348000Y-99060000D02*
X117348000Y-101341000D01*
X119421000Y-96987000D02*
X117348000Y-99060000D01*
X117348000Y-101341000D02*
X118618000Y-102611000D01*
D20*
X118618000Y-109474000D02*
X118618000Y-102611000D01*
D21*
X118771000Y-96445348D02*
X116410348Y-98806000D01*
X115316000Y-98806000D02*
X114808000Y-99314000D01*
X114808000Y-99314000D02*
X114808000Y-101341000D01*
X116410348Y-98806000D02*
X115316000Y-98806000D01*
D20*
X116078000Y-102611000D02*
X116078000Y-109474000D01*
D21*
X118771000Y-95826500D02*
X118771000Y-96445348D01*
X114808000Y-101341000D02*
X116078000Y-102611000D01*
D20*
X113538000Y-102611000D02*
X113538000Y-109474000D01*
D21*
X109728000Y-101341000D02*
X110998000Y-102611000D01*
X109728000Y-99531501D02*
X109728000Y-101341000D01*
X111409700Y-97849801D02*
X109728000Y-99531501D01*
D20*
X110998000Y-102611000D02*
X110998000Y-109474000D01*
D21*
X115447699Y-97849801D02*
X111409700Y-97849801D01*
X117471000Y-95826500D02*
X115447699Y-97849801D01*
X101701000Y-95826500D02*
X101701000Y-96660174D01*
X101701000Y-96660174D02*
X102068826Y-97028000D01*
X107188000Y-101341000D02*
X108458000Y-102611000D01*
D20*
X108458000Y-102611000D02*
X108458000Y-109474000D01*
D21*
X102068826Y-97028000D02*
X104811498Y-97028000D01*
X104811498Y-97028000D02*
X107188000Y-99404502D01*
X107188000Y-99404502D02*
X107188000Y-101341000D01*
X104648000Y-101341000D02*
X105918000Y-102611000D01*
X102459911Y-97379911D02*
X104648000Y-99568000D01*
X101051000Y-95826500D02*
X101051000Y-96507851D01*
D20*
X105918000Y-102611000D02*
X105918000Y-109474000D01*
D21*
X101923060Y-97379911D02*
X102459911Y-97379911D01*
X101051000Y-96507851D02*
X101923060Y-97379911D01*
X104648000Y-99568000D02*
X104648000Y-101341000D01*
X102108000Y-101341000D02*
X103378000Y-102611000D01*
D20*
X103378000Y-102611000D02*
X103378000Y-109474000D01*
D21*
X102108000Y-99531501D02*
X102108000Y-101341000D01*
X100401000Y-95826500D02*
X100401000Y-97824501D01*
X100401000Y-97824501D02*
X102108000Y-99531501D01*
D20*
X100838000Y-102611000D02*
X100838000Y-109474000D01*
D21*
X99568000Y-96628348D02*
X99568000Y-101341000D01*
X99751000Y-95826500D02*
X99751000Y-96445348D01*
X99751000Y-96445348D02*
X99568000Y-96628348D01*
X99568000Y-101341000D02*
X100838000Y-102611000D01*
X99101000Y-97241000D02*
X97028000Y-99314000D01*
X99101000Y-95826500D02*
X99101000Y-97241000D01*
X97028000Y-101341000D02*
X98298000Y-102611000D01*
X97028000Y-99314000D02*
X97028000Y-101341000D01*
D20*
X98298000Y-102611000D02*
X98298000Y-109474000D01*
D21*
X94488000Y-99314000D02*
X94488000Y-101089500D01*
X98451000Y-96445348D02*
X96090348Y-98806000D01*
D20*
X95758000Y-102611000D02*
X95758000Y-109474000D01*
D21*
X94488000Y-101089500D02*
X95758000Y-102359500D01*
X98451000Y-95826500D02*
X98451000Y-96445348D01*
X96090348Y-98806000D02*
X94996000Y-98806000D01*
X94996000Y-98806000D02*
X94488000Y-99314000D01*
X95758000Y-102359500D02*
X95758000Y-102611000D01*
X97406628Y-96839720D02*
X94422280Y-96839720D01*
X97801000Y-95826500D02*
X97801000Y-96445348D01*
X91948000Y-101341000D02*
X93218000Y-102611000D01*
D20*
X93218000Y-102611000D02*
X93218000Y-109474000D01*
D21*
X91948000Y-99314000D02*
X91948000Y-101341000D01*
X97801000Y-96445348D02*
X97406628Y-96839720D01*
X94422280Y-96839720D02*
X91948000Y-99314000D01*
X89408000Y-99531501D02*
X89408000Y-101341000D01*
X97151000Y-95826500D02*
X93113001Y-95826500D01*
X93113001Y-95826500D02*
X89408000Y-99531501D01*
X89408000Y-101341000D02*
X90678000Y-102611000D01*
D20*
X90678000Y-102611000D02*
X90678000Y-109474000D01*
D21*
X164706711Y-98552000D02*
X165608000Y-99453289D01*
D20*
X164338000Y-109474000D02*
X164338000Y-102611000D01*
D21*
X162153000Y-96445348D02*
X164259652Y-98552000D01*
X162153000Y-95826500D02*
X162153000Y-96445348D01*
X165608000Y-101341000D02*
X164338000Y-102611000D01*
X165608000Y-99453289D02*
X165608000Y-101341000D01*
X164259652Y-98552000D02*
X164706711Y-98552000D01*
X163068000Y-99314000D02*
X163068000Y-101341000D01*
X161503000Y-95207652D02*
X161503000Y-95826500D01*
X153738500Y-91593000D02*
X157888348Y-91593000D01*
X161503000Y-95826500D02*
X161503000Y-97749000D01*
X161503000Y-97749000D02*
X163068000Y-99314000D01*
D20*
X161798000Y-109474000D02*
X161798000Y-102611000D01*
D21*
X157888348Y-91593000D02*
X161503000Y-95207652D01*
X163068000Y-101341000D02*
X161798000Y-102611000D01*
D20*
X159258000Y-109474000D02*
X159258000Y-102611000D01*
D21*
X153738500Y-92243000D02*
X157888348Y-92243000D01*
X157888348Y-92243000D02*
X160853000Y-95207652D01*
X160853000Y-95207652D02*
X160853000Y-95826500D01*
X160853000Y-95826500D02*
X160853000Y-98735000D01*
X160853000Y-98735000D02*
X160528000Y-99060000D01*
X160528000Y-99060000D02*
X160528000Y-101341000D01*
X160528000Y-101341000D02*
X159258000Y-102611000D01*
X160203000Y-95207652D02*
X160203000Y-95826500D01*
X160203000Y-97099000D02*
X157988000Y-99314000D01*
X157888348Y-92893000D02*
X160203000Y-95207652D01*
D20*
X156718000Y-109474000D02*
X156718000Y-102611000D01*
D21*
X157988000Y-99314000D02*
X157988000Y-101341000D01*
X157988000Y-101341000D02*
X156718000Y-102611000D01*
X160203000Y-95826500D02*
X160203000Y-97099000D01*
X153738500Y-92893000D02*
X157888348Y-92893000D01*
X157469678Y-98806000D02*
X156173499Y-98806000D01*
X159553000Y-95826500D02*
X159553000Y-96722678D01*
X157888348Y-93543000D02*
X159553000Y-95207652D01*
D20*
X154178000Y-109474000D02*
X154178000Y-102611000D01*
D21*
X159553000Y-95207652D02*
X159553000Y-95826500D01*
X155448000Y-101341000D02*
X154178000Y-102611000D01*
X155448000Y-99531499D02*
X155448000Y-101341000D01*
X156173499Y-98806000D02*
X155448000Y-99531499D01*
X153738500Y-93543000D02*
X157888348Y-93543000D01*
X159553000Y-96722678D02*
X157469678Y-98806000D01*
X152908000Y-101341000D02*
X151638000Y-102611000D01*
X152908000Y-99314000D02*
X152908000Y-101341000D01*
X157888348Y-94193000D02*
X158903000Y-95207652D01*
D20*
X151638000Y-109474000D02*
X151638000Y-102611000D01*
D21*
X158903000Y-95207652D02*
X158903000Y-95826500D01*
X158903000Y-95826500D02*
X158903000Y-96875000D01*
X153738500Y-94193000D02*
X157888348Y-94193000D01*
X154178000Y-98044000D02*
X152908000Y-99314000D01*
X157734000Y-98044000D02*
X154178000Y-98044000D01*
X158903000Y-96875000D02*
X157734000Y-98044000D01*
X158253000Y-96763000D02*
X157480000Y-97536000D01*
X157858628Y-94813280D02*
X158253000Y-95207652D01*
X151892000Y-97536000D02*
X150368000Y-99060000D01*
X158253000Y-95826500D02*
X158253000Y-96763000D01*
X153768220Y-94813280D02*
X157858628Y-94813280D01*
X150368000Y-101341000D02*
X149098000Y-102611000D01*
X158253000Y-95207652D02*
X158253000Y-95826500D01*
X150368000Y-99060000D02*
X150368000Y-101341000D01*
D20*
X149098000Y-109474000D02*
X149098000Y-102611000D01*
D21*
X157480000Y-97536000D02*
X151892000Y-97536000D01*
X153738500Y-94843000D02*
X153768220Y-94813280D01*
X157269500Y-95493000D02*
X157603000Y-95826500D01*
X150114000Y-97028000D02*
X147828000Y-99314000D01*
X157603000Y-95826500D02*
X157603000Y-96143000D01*
D20*
X146558000Y-109474000D02*
X146558000Y-102611000D01*
D21*
X157603000Y-96143000D02*
X156718000Y-97028000D01*
X156718000Y-97028000D02*
X150114000Y-97028000D01*
X147828000Y-101341000D02*
X146558000Y-102611000D01*
X153738500Y-95493000D02*
X157269500Y-95493000D01*
X147828000Y-99314000D02*
X147828000Y-101341000D01*
X107819000Y-94357000D02*
X107696000Y-94234000D01*
D20*
X141478000Y-109474000D02*
X141478000Y-102611000D01*
D21*
X142748000Y-101341000D02*
X142748000Y-97536000D01*
X142748000Y-97536000D02*
X142494000Y-97282000D01*
X107819000Y-95826500D02*
X107819000Y-94357000D01*
X141478000Y-102611000D02*
X142748000Y-101341000D01*
X123698000Y-84836000D02*
X123698000Y-87884000D01*
X149026720Y-91198628D02*
X149026720Y-86674584D01*
X147887801Y-71687801D02*
X147828000Y-71628000D01*
X148013500Y-91593000D02*
X148632348Y-91593000D01*
X148632348Y-91593000D02*
X149026720Y-91198628D01*
X147887801Y-85535665D02*
X147887801Y-71687801D01*
X149026720Y-86674584D02*
X147887801Y-85535665D01*
X105918000Y-84836000D02*
X105918000Y-89154000D01*
X148013500Y-88968500D02*
X148082000Y-88900000D01*
X148013500Y-90293000D02*
X148013500Y-88968500D01*
X108458000Y-84836000D02*
X109415796Y-85793796D01*
X109415796Y-85793796D02*
X109415796Y-88451800D01*
X137515000Y-95826500D02*
X137515000Y-96445348D01*
X141140652Y-100071000D02*
X141478000Y-100071000D01*
X137515000Y-96445348D02*
X141140652Y-100071000D01*
X138938000Y-99060000D02*
X138938000Y-100071000D01*
X136865000Y-95826500D02*
X136865000Y-96987000D01*
X136865000Y-96987000D02*
X138938000Y-99060000D01*
X136215000Y-95826500D02*
X136215000Y-97666800D01*
X136215000Y-97666800D02*
X136398000Y-97849800D01*
X135614297Y-95875797D02*
X135614297Y-97849800D01*
X135565000Y-95826500D02*
X135614297Y-95875797D01*
X110419000Y-95826500D02*
X110419000Y-97234518D01*
X110419000Y-97234518D02*
X110303759Y-97349759D01*
X111719000Y-96737510D02*
X109943255Y-98513255D01*
X111719000Y-95826500D02*
X111719000Y-96737510D01*
X112369000Y-95826500D02*
X112369000Y-97129000D01*
D20*
X144018000Y-109474000D02*
X144018000Y-102611000D01*
D21*
X112369000Y-97129000D02*
X112522000Y-97282000D01*
X145288000Y-101341000D02*
X145288000Y-97282000D01*
X144018000Y-102611000D02*
X145288000Y-101341000D01*
X102351000Y-87895000D02*
X102362000Y-87884000D01*
X102351000Y-90101500D02*
X102351000Y-87895000D01*
X126238000Y-90457230D02*
X126042204Y-90653026D01*
X162052000Y-90202500D02*
X162051999Y-91693999D01*
X126238000Y-87885621D02*
X126238000Y-90457230D01*
X101701000Y-90101500D02*
X101701000Y-91285378D01*
X101701000Y-91285378D02*
X101854000Y-91438378D01*
X126238000Y-84836000D02*
X126238000Y-87885621D01*
X162153000Y-90101500D02*
X162052000Y-90202500D01*
X161484199Y-90082699D02*
X161484199Y-88766130D01*
X161484199Y-88766130D02*
X161322799Y-88604730D01*
X161503000Y-90101500D02*
X161484199Y-90082699D01*
X139305350Y-91592631D02*
X139305350Y-91598953D01*
X139305350Y-86334720D02*
X139305350Y-91020021D01*
X160782000Y-91440000D02*
X160782000Y-90172500D01*
X139356463Y-91541518D02*
X139305350Y-91592631D01*
X139356463Y-91071134D02*
X139356463Y-91541518D01*
X160782000Y-90172500D02*
X160853000Y-90101500D01*
X139290720Y-92103280D02*
X139192000Y-92202000D01*
X139305350Y-91020021D02*
X139356463Y-91071134D01*
X139290720Y-91613583D02*
X139290720Y-92103280D01*
X139305350Y-91598953D02*
X139290720Y-91613583D01*
X138938000Y-85967370D02*
X139305350Y-86334720D01*
X138938000Y-84836000D02*
X138938000Y-85967370D01*
X156534123Y-76005801D02*
X154958808Y-76005801D01*
X99751000Y-81037200D02*
X105156000Y-75632200D01*
X153162000Y-74208993D02*
X153162000Y-74168000D01*
X99751000Y-90101500D02*
X99751000Y-81037200D01*
X160203000Y-79674678D02*
X156534123Y-76005801D01*
X160203000Y-90101500D02*
X160203000Y-79674678D01*
X154958808Y-76005801D02*
X153162000Y-74208993D01*
X159553000Y-90101500D02*
X159553000Y-79786678D01*
X99101000Y-86190643D02*
X99373711Y-85917932D01*
X154686000Y-76708000D02*
X152146000Y-74168000D01*
X99373711Y-80204289D02*
X101092000Y-78486000D01*
X156474322Y-76708000D02*
X154686000Y-76708000D01*
X99101000Y-90101500D02*
X99101000Y-86190643D01*
X159553000Y-79786678D02*
X156474322Y-76708000D01*
X99373711Y-85917932D02*
X99373711Y-80204289D01*
X118618000Y-69596000D02*
X118618000Y-77410305D01*
X97028000Y-85344000D02*
X97028000Y-82042000D01*
X98451000Y-86767000D02*
X97028000Y-85344000D01*
X98451000Y-90101500D02*
X98451000Y-86767000D01*
X158903000Y-90101500D02*
X158903000Y-80163000D01*
X97028000Y-82042000D02*
X98044000Y-81026000D01*
X97801000Y-90101500D02*
X97801000Y-91410007D01*
X150838001Y-70395999D02*
X150838001Y-73662994D01*
X150838001Y-73662994D02*
X158253000Y-81077993D01*
X151638000Y-69596000D02*
X150838001Y-70395999D01*
X97801000Y-91410007D02*
X98084993Y-91694000D01*
X158253000Y-81077993D02*
X158253000Y-90101500D01*
X98084993Y-91694000D02*
X98298000Y-91694000D01*
X122428000Y-85852000D02*
X122428000Y-83936944D01*
X122428000Y-83936944D02*
X121732548Y-83241492D01*
X122021000Y-90101500D02*
X122021000Y-86259000D01*
X122021000Y-86259000D02*
X122428000Y-85852000D01*
X120082289Y-82101711D02*
X120396000Y-81788000D01*
X120082289Y-85281575D02*
X120082289Y-82101711D01*
X121371000Y-86570286D02*
X120082289Y-85281575D01*
X121371000Y-90101500D02*
X121371000Y-86570286D01*
X120963801Y-87357192D02*
X120963801Y-86660764D01*
X119730378Y-85427341D02*
X119730378Y-81006918D01*
X120963801Y-86660764D02*
X119730378Y-85427341D01*
X119730378Y-81006918D02*
X119653171Y-80929711D01*
X120721000Y-87599993D02*
X120963801Y-87357192D01*
X120721000Y-90101500D02*
X120721000Y-87599993D01*
X120071000Y-87447000D02*
X120142000Y-87376000D01*
X120071000Y-90101500D02*
X120071000Y-87447000D01*
X118771000Y-90101500D02*
X118618000Y-89948500D01*
X118618000Y-89948500D02*
X118618000Y-84836000D01*
X118121000Y-90101500D02*
X118121000Y-88911000D01*
X118121000Y-88911000D02*
X116078000Y-86868000D01*
X116078000Y-86868000D02*
X116078000Y-84836000D01*
X133615000Y-90101500D02*
X133615000Y-89482652D01*
X129853711Y-85721363D02*
X129853711Y-83743715D01*
X133615000Y-89482652D02*
X129853711Y-85721363D01*
X129853711Y-83743715D02*
X128465796Y-82355800D01*
X138116199Y-92238488D02*
X138176000Y-92298289D01*
X138165000Y-90101500D02*
X138116199Y-90150301D01*
X138116199Y-90150301D02*
X138116199Y-92238488D01*
X136865000Y-86824286D02*
X135322289Y-85281575D01*
X136144000Y-78272993D02*
X136144000Y-77470000D01*
X136865000Y-90101500D02*
X136865000Y-86824286D01*
X135322289Y-85281575D02*
X135322289Y-79094704D01*
X135322289Y-79094704D02*
X136144000Y-78272993D01*
X136215000Y-90101500D02*
X136215000Y-87701000D01*
X136215000Y-87701000D02*
X134933711Y-86419711D01*
X134933711Y-86419711D02*
X134933711Y-78680289D01*
X134933711Y-78680289D02*
X135128000Y-78486000D01*
X109983597Y-85840560D02*
X109728000Y-85584963D01*
X109769000Y-90101500D02*
X109769000Y-88901589D01*
X109728000Y-85584963D02*
X109728000Y-79598289D01*
X109769000Y-88901589D02*
X109983597Y-88686992D01*
X109983597Y-88686992D02*
X109983597Y-85840560D01*
X111069000Y-90101500D02*
X111069000Y-86428286D01*
X111069000Y-86428286D02*
X112268000Y-85229286D01*
X112268000Y-85229286D02*
X112268000Y-76708000D01*
X112369000Y-90101500D02*
X112369000Y-86715000D01*
X112369000Y-86715000D02*
X112268000Y-86614000D01*
D20*
X166878000Y-109474000D02*
X166878000Y-102611000D01*
D21*
X155194000Y-75438000D02*
X156972000Y-75438000D01*
X164338000Y-86614000D02*
X164338000Y-90718993D01*
X156972000Y-75438000D02*
X161544000Y-80010000D01*
X162754199Y-92302794D02*
X162754199Y-95777699D01*
X162754199Y-95777699D02*
X162803000Y-95826500D01*
X164338000Y-90718993D02*
X162754199Y-92302794D01*
X161544000Y-80010000D02*
X161544000Y-83820000D01*
X161544000Y-83820000D02*
X164338000Y-86614000D01*
X105918000Y-69850000D02*
X105918000Y-69596000D01*
X107188000Y-85469643D02*
X107188000Y-71120000D01*
X107188000Y-71120000D02*
X105918000Y-69850000D01*
X108469000Y-90101500D02*
X108469000Y-86750643D01*
X108469000Y-86750643D02*
X107188000Y-85469643D01*
M02*
