M48
; DRILL file {KiCad (6.0.5)} date Sat Aug 24 22:29:03 2024
; FORMAT={-:-/ absolute / metric / decimal}
; #@! TF.CreationDate,2024-08-24T22:29:03-07:00
; #@! TF.GenerationSoftware,Kicad,Pcbnew,(6.0.5)
; #@! TF.FileFunction,Plated,1,4,PTH
FMAT,2
METRIC
; #@! TA.AperFunction,Plated,PTH,ViaDrill
T1C0.254
; #@! TA.AperFunction,Plated,PTH,ComponentDrill
T2C1.000
; #@! TA.AperFunction,Plated,PTH,ComponentDrill
T3C1.100
%
G90
G05
T1
X95.758Y-87.376
X95.758Y-92.964
X96.266Y-78.994
X96.774Y-73.406
X97.282Y-91.694
X97.79Y-80.264
X98.044Y-81.026
X98.044Y-92.71
X98.298Y-91.694
X100.076Y-91.948
X100.33Y-77.724
X100.426Y-91.247
X101.092Y-78.486
X101.6Y-88.392
X101.854Y-91.438
X102.362Y-80.772
X102.362Y-87.884
X102.87Y-91.44
X103.378Y-80.772
X103.632Y-89.154
X103.886Y-95.758
X104.648Y-74.93
X105.156Y-75.632
X105.156Y-89.662
X105.41Y-78.74
X105.41Y-95.758
X105.918Y-89.154
X106.172Y-79.248
X106.172Y-93.472
X106.934Y-90.678
X107.696Y-94.234
X107.95Y-97.222
X108.712Y-79.502
X108.773Y-97.44
X108.966Y-98.552
X109.416Y-88.452
X109.474Y-97.79
X109.728Y-79.598
X109.943Y-98.513
X110.304Y-97.35
X110.49Y-91.44
X112.014Y-98.806
X112.268Y-76.708
X112.268Y-86.614
X112.522Y-97.282
X113.03Y-94.548
X113.284Y-76.708
X113.284Y-86.614
X114.554Y-76.454
X114.554Y-95.758
X114.81Y-96.893
X116.023Y-75.629
X116.586Y-77.216
X116.782Y-75.826
X117.348Y-91.536
X118.618Y-77.41
X118.872Y-81.28
X119.329Y-87.962
X119.38Y-87.18
X119.634Y-77.47
X119.653Y-80.93
X120.142Y-87.376
X120.396Y-81.788
X121.412Y-81.28
X121.733Y-83.241
X122.682Y-88.138
X122.682Y-94.548
X123.444Y-91.44
X123.698Y-87.884
X123.952Y-81.28
X124.206Y-77.022
X124.46Y-95.758
X124.99Y-81.22
X126.042Y-90.653
X126.492Y-91.44
X127.0Y-95.758
X127.254Y-82.55
X128.016Y-93.726
X128.466Y-82.356
X129.784Y-82.492
X130.556Y-82.356
X131.106Y-76.258
X131.439Y-76.968
X132.136Y-73.814
X133.096Y-91.44
X133.099Y-74.166
X134.238Y-74.166
X135.128Y-77.47
X135.128Y-78.486
X135.614Y-97.85
X136.144Y-77.47
X136.398Y-80.518
X136.398Y-97.85
X137.414Y-76.454
X137.414Y-80.772
X138.176Y-75.692
X138.176Y-92.298
X138.176Y-94.548
X138.43Y-76.708
X138.789Y-91.306
X138.938Y-74.168
X139.192Y-76.006
X139.192Y-92.202
X139.7Y-74.676
X139.954Y-95.758
X140.192Y-71.784
X140.208Y-91.694
X140.97Y-71.882
X140.97Y-93.98
X141.478Y-79.145
X141.995Y-73.585
X142.006Y-95.758
X142.24Y-79.756
X142.494Y-97.282
X142.567Y-73.017
X143.256Y-72.644
X143.51Y-97.282
X143.983Y-76.441
X144.272Y-87.63
X144.272Y-88.414
X144.72Y-76.708
X145.012Y-71.628
X145.288Y-97.282
X146.05Y-71.628
X146.087Y-90.133
X146.304Y-77.216
X146.304Y-97.536
X146.585Y-89.527
X147.066Y-77.724
X147.066Y-88.392
X147.828Y-71.628
X148.082Y-88.9
X148.59Y-71.882
X149.352Y-95.758
X150.622Y-76.962
X150.876Y-81.788
X151.638Y-88.138
X152.146Y-74.168
X152.654Y-73.406
X153.162Y-74.168
X153.924Y-89.408
X154.178Y-82.804
X154.94Y-88.138
X155.194Y-74.422
X155.194Y-75.438
X155.194Y-96.266
X156.718Y-89.916
X158.242Y-79.381
X158.903Y-80.163
X159.766Y-91.634
X160.274Y-72.39
X160.782Y-91.44
X161.036Y-77.47
X161.036Y-92.71
X161.323Y-88.605
X161.544Y-87.122
X162.052Y-91.694
X162.052Y-92.71
X162.306Y-88.392
X162.56Y-87.122
X163.576Y-83.566
X163.576Y-88.758
X163.576Y-94.488
X163.83Y-93.472
X164.592Y-95.504
X166.878Y-97.536
T2
X90.678Y-100.071
X90.678Y-102.611
X91.694Y-84.328
X91.694Y-86.868
X93.218Y-100.071
X93.218Y-102.611
X95.758Y-100.071
X95.758Y-102.611
X98.298Y-100.071
X98.298Y-102.611
X100.838Y-100.071
X100.838Y-102.611
X103.378Y-100.071
X103.378Y-102.611
X105.918Y-100.071
X105.918Y-102.611
X108.458Y-100.071
X108.458Y-102.611
X110.998Y-100.071
X110.998Y-102.611
X113.538Y-100.071
X113.538Y-102.611
X116.078Y-100.071
X116.078Y-102.611
X118.618Y-100.071
X118.618Y-102.611
X121.158Y-100.071
X121.158Y-102.611
X123.698Y-100.071
X123.698Y-102.611
X126.238Y-100.071
X126.238Y-102.611
X128.778Y-100.071
X128.778Y-102.611
X131.318Y-100.071
X131.318Y-102.611
X133.858Y-100.071
X133.858Y-102.611
X136.398Y-100.071
X136.398Y-102.611
X138.938Y-100.071
X138.938Y-102.611
X141.478Y-100.071
X141.478Y-102.611
X144.018Y-100.071
X144.018Y-102.611
X146.558Y-100.071
X146.558Y-102.611
X149.098Y-100.071
X149.098Y-102.611
X151.638Y-100.071
X151.638Y-102.611
X154.178Y-100.071
X154.178Y-102.611
X156.718Y-100.071
X156.718Y-102.611
X159.258Y-100.071
X159.258Y-102.611
X161.798Y-100.071
X161.798Y-102.611
X164.338Y-100.071
X164.338Y-102.611
X166.878Y-100.071
X166.878Y-102.611
T3
X98.298Y-69.596
X98.298Y-84.836
X100.838Y-69.596
X100.838Y-84.836
X103.378Y-69.596
X103.378Y-84.836
X105.918Y-69.596
X105.918Y-84.836
X108.458Y-69.596
X108.458Y-84.836
X110.998Y-69.596
X110.998Y-84.836
X113.538Y-69.596
X113.538Y-84.836
X116.078Y-69.596
X116.078Y-84.836
X118.618Y-69.596
X118.618Y-84.836
X121.158Y-69.596
X121.158Y-84.836
X123.698Y-69.596
X123.698Y-84.836
X126.238Y-69.596
X126.238Y-84.836
X128.778Y-69.596
X128.778Y-84.836
X131.318Y-69.596
X131.318Y-84.836
X133.858Y-69.596
X133.858Y-84.836
X136.398Y-69.596
X136.398Y-84.836
X138.938Y-69.596
X138.938Y-84.836
X141.478Y-69.596
X141.478Y-84.836
X144.018Y-69.596
X144.018Y-84.836
X146.558Y-69.596
X146.558Y-84.836
X149.098Y-69.596
X149.098Y-84.836
X151.638Y-69.596
X151.638Y-84.836
X154.178Y-69.596
X154.178Y-84.836
X156.718Y-69.596
X156.718Y-84.836
T0
M30
