G04 #@! TF.GenerationSoftware,KiCad,Pcbnew,(6.0.5)*
G04 #@! TF.CreationDate,2024-08-24T22:28:27-07:00*
G04 #@! TF.ProjectId,XTMAX_PCB,58544d41-585f-4504-9342-2e6b69636164,rev?*
G04 #@! TF.SameCoordinates,Original*
G04 #@! TF.FileFunction,Legend,Top*
G04 #@! TF.FilePolarity,Positive*
%FSLAX46Y46*%
G04 Gerber Fmt 4.6, Leading zero omitted, Abs format (unit mm)*
G04 Created by KiCad (PCBNEW (6.0.5)) date 2024-08-24 22:28:27*
%MOMM*%
%LPD*%
G01*
G04 APERTURE LIST*
G04 Aperture macros list*
%AMRoundRect*
0 Rectangle with rounded corners*
0 $1 Rounding radius*
0 $2 $3 $4 $5 $6 $7 $8 $9 X,Y pos of 4 corners*
0 Add a 4 corners polygon primitive as box body*
4,1,4,$2,$3,$4,$5,$6,$7,$8,$9,$2,$3,0*
0 Add four circle primitives for the rounded corners*
1,1,$1+$1,$2,$3*
1,1,$1+$1,$4,$5*
1,1,$1+$1,$6,$7*
1,1,$1+$1,$8,$9*
0 Add four rect primitives between the rounded corners*
20,1,$1+$1,$2,$3,$4,$5,0*
20,1,$1+$1,$4,$5,$6,$7,0*
20,1,$1+$1,$6,$7,$8,$9,0*
20,1,$1+$1,$8,$9,$2,$3,0*%
G04 Aperture macros list end*
%ADD10C,0.127000*%
%ADD11C,0.150000*%
%ADD12C,0.120000*%
%ADD13C,0.010000*%
%ADD14R,1.700000X1.700000*%
%ADD15O,1.700000X1.700000*%
%ADD16RoundRect,0.100000X0.637500X0.100000X-0.637500X0.100000X-0.637500X-0.100000X0.637500X-0.100000X0*%
%ADD17RoundRect,0.140000X0.170000X-0.140000X0.170000X0.140000X-0.170000X0.140000X-0.170000X-0.140000X0*%
%ADD18RoundRect,0.100000X-0.100000X0.637500X-0.100000X-0.637500X0.100000X-0.637500X0.100000X0.637500X0*%
%ADD19R,1.780000X7.366000*%
%ADD20RoundRect,0.140000X-0.140000X-0.170000X0.140000X-0.170000X0.140000X0.170000X-0.140000X0.170000X0*%
%ADD21R,1.600000X1.600000*%
%ADD22C,1.600000*%
G04 APERTURE END LIST*
D10*
X166923357Y-94696642D02*
X166893119Y-94787357D01*
X166862880Y-94817595D01*
X166802404Y-94847833D01*
X166711690Y-94847833D01*
X166651214Y-94817595D01*
X166620976Y-94787357D01*
X166590738Y-94726880D01*
X166590738Y-94484976D01*
X167225738Y-94484976D01*
X167225738Y-94696642D01*
X167195500Y-94757119D01*
X167165261Y-94787357D01*
X167104785Y-94817595D01*
X167044309Y-94817595D01*
X166983833Y-94787357D01*
X166953595Y-94757119D01*
X166923357Y-94696642D01*
X166923357Y-94484976D01*
X166590738Y-95452595D02*
X166590738Y-95089738D01*
X166590738Y-95271166D02*
X167225738Y-95271166D01*
X167135023Y-95210690D01*
X167074547Y-95150214D01*
X167044309Y-95089738D01*
X166772166Y-96662119D02*
X166772166Y-96964500D01*
X166590738Y-96601642D02*
X167225738Y-96813309D01*
X166590738Y-97024976D01*
X166590738Y-97569261D02*
X166590738Y-97206404D01*
X166590738Y-97387833D02*
X167225738Y-97387833D01*
X167135023Y-97327357D01*
X167074547Y-97266880D01*
X167044309Y-97206404D01*
X90469357Y-93583880D02*
X90439119Y-93674595D01*
X90408880Y-93704833D01*
X90348404Y-93735071D01*
X90257690Y-93735071D01*
X90197214Y-93704833D01*
X90166976Y-93674595D01*
X90136738Y-93614119D01*
X90136738Y-93372214D01*
X90771738Y-93372214D01*
X90771738Y-93583880D01*
X90741500Y-93644357D01*
X90711261Y-93674595D01*
X90650785Y-93704833D01*
X90590309Y-93704833D01*
X90529833Y-93674595D01*
X90499595Y-93644357D01*
X90469357Y-93583880D01*
X90469357Y-93372214D01*
X90771738Y-93946738D02*
X90771738Y-94339833D01*
X90529833Y-94128166D01*
X90529833Y-94218880D01*
X90499595Y-94279357D01*
X90469357Y-94309595D01*
X90408880Y-94339833D01*
X90257690Y-94339833D01*
X90197214Y-94309595D01*
X90166976Y-94279357D01*
X90136738Y-94218880D01*
X90136738Y-94037452D01*
X90166976Y-93976976D01*
X90197214Y-93946738D01*
X90136738Y-94944595D02*
X90136738Y-94581738D01*
X90136738Y-94763166D02*
X90771738Y-94763166D01*
X90681023Y-94702690D01*
X90620547Y-94642214D01*
X90590309Y-94581738D01*
X90318166Y-96154119D02*
X90318166Y-96456500D01*
X90136738Y-96093642D02*
X90771738Y-96305309D01*
X90136738Y-96516976D01*
X90771738Y-96668166D02*
X90771738Y-97061261D01*
X90529833Y-96849595D01*
X90529833Y-96940309D01*
X90499595Y-97000785D01*
X90469357Y-97031023D01*
X90408880Y-97061261D01*
X90257690Y-97061261D01*
X90197214Y-97031023D01*
X90166976Y-97000785D01*
X90136738Y-96940309D01*
X90136738Y-96758880D01*
X90166976Y-96698404D01*
X90197214Y-96668166D01*
X90136738Y-97666023D02*
X90136738Y-97303166D01*
X90136738Y-97484595D02*
X90771738Y-97484595D01*
X90681023Y-97424119D01*
X90620547Y-97363642D01*
X90590309Y-97303166D01*
X92041738Y-78147333D02*
X92041738Y-78510190D01*
X91406738Y-78328761D02*
X92041738Y-78328761D01*
X91406738Y-79084714D02*
X91709119Y-78873047D01*
X91406738Y-78721857D02*
X92041738Y-78721857D01*
X92041738Y-78963761D01*
X92011500Y-79024238D01*
X91981261Y-79054476D01*
X91920785Y-79084714D01*
X91830071Y-79084714D01*
X91769595Y-79054476D01*
X91739357Y-79024238D01*
X91709119Y-78963761D01*
X91709119Y-78721857D01*
X91406738Y-79356857D02*
X92041738Y-79356857D01*
X92011500Y-79991857D02*
X92041738Y-79931380D01*
X92041738Y-79840666D01*
X92011500Y-79749952D01*
X91951023Y-79689476D01*
X91890547Y-79659238D01*
X91769595Y-79629000D01*
X91678880Y-79629000D01*
X91557928Y-79659238D01*
X91497452Y-79689476D01*
X91436976Y-79749952D01*
X91406738Y-79840666D01*
X91406738Y-79901142D01*
X91436976Y-79991857D01*
X91467214Y-80022095D01*
X91678880Y-80022095D01*
X91678880Y-79901142D01*
X91346261Y-80143047D02*
X91346261Y-80626857D01*
X92041738Y-80899000D02*
X92041738Y-81019952D01*
X92011500Y-81080428D01*
X91951023Y-81140904D01*
X91830071Y-81171142D01*
X91618404Y-81171142D01*
X91497452Y-81140904D01*
X91436976Y-81080428D01*
X91406738Y-81019952D01*
X91406738Y-80899000D01*
X91436976Y-80838523D01*
X91497452Y-80778047D01*
X91618404Y-80747809D01*
X91830071Y-80747809D01*
X91951023Y-80778047D01*
X92011500Y-80838523D01*
X92041738Y-80899000D01*
X92041738Y-81443285D02*
X91527690Y-81443285D01*
X91467214Y-81473523D01*
X91436976Y-81503761D01*
X91406738Y-81564238D01*
X91406738Y-81685190D01*
X91436976Y-81745666D01*
X91467214Y-81775904D01*
X91527690Y-81806142D01*
X92041738Y-81806142D01*
X92041738Y-82017809D02*
X92041738Y-82380666D01*
X91406738Y-82199238D02*
X92041738Y-82199238D01*
X92011500Y-89178190D02*
X92041738Y-89117714D01*
X92041738Y-89027000D01*
X92011500Y-88936285D01*
X91951023Y-88875809D01*
X91890547Y-88845571D01*
X91769595Y-88815333D01*
X91678880Y-88815333D01*
X91557928Y-88845571D01*
X91497452Y-88875809D01*
X91436976Y-88936285D01*
X91406738Y-89027000D01*
X91406738Y-89087476D01*
X91436976Y-89178190D01*
X91467214Y-89208428D01*
X91678880Y-89208428D01*
X91678880Y-89087476D01*
X91406738Y-89480571D02*
X92041738Y-89480571D01*
X91406738Y-89843428D01*
X92041738Y-89843428D01*
X91406738Y-90145809D02*
X92041738Y-90145809D01*
X92041738Y-90297000D01*
X92011500Y-90387714D01*
X91951023Y-90448190D01*
X91890547Y-90478428D01*
X91769595Y-90508666D01*
X91678880Y-90508666D01*
X91557928Y-90478428D01*
X91497452Y-90448190D01*
X91436976Y-90387714D01*
X91406738Y-90297000D01*
X91406738Y-90145809D01*
D11*
X159348714Y-70343304D02*
X159348714Y-69581304D01*
X159602714Y-70125590D01*
X159856714Y-69581304D01*
X159856714Y-70343304D01*
X160219571Y-70343304D02*
X160219571Y-69835304D01*
X160219571Y-69581304D02*
X160183285Y-69617590D01*
X160219571Y-69653875D01*
X160255857Y-69617590D01*
X160219571Y-69581304D01*
X160219571Y-69653875D01*
X160909000Y-70307018D02*
X160836428Y-70343304D01*
X160691285Y-70343304D01*
X160618714Y-70307018D01*
X160582428Y-70270732D01*
X160546142Y-70198161D01*
X160546142Y-69980447D01*
X160582428Y-69907875D01*
X160618714Y-69871590D01*
X160691285Y-69835304D01*
X160836428Y-69835304D01*
X160909000Y-69871590D01*
X161235571Y-70343304D02*
X161235571Y-69835304D01*
X161235571Y-69980447D02*
X161271857Y-69907875D01*
X161308142Y-69871590D01*
X161380714Y-69835304D01*
X161453285Y-69835304D01*
X161816142Y-70343304D02*
X161743571Y-70307018D01*
X161707285Y-70270732D01*
X161671000Y-70198161D01*
X161671000Y-69980447D01*
X161707285Y-69907875D01*
X161743571Y-69871590D01*
X161816142Y-69835304D01*
X161925000Y-69835304D01*
X161997571Y-69871590D01*
X162033857Y-69907875D01*
X162070142Y-69980447D01*
X162070142Y-70198161D01*
X162033857Y-70270732D01*
X161997571Y-70307018D01*
X161925000Y-70343304D01*
X161816142Y-70343304D01*
X162832142Y-70270732D02*
X162795857Y-70307018D01*
X162687000Y-70343304D01*
X162614428Y-70343304D01*
X162505571Y-70307018D01*
X162433000Y-70234447D01*
X162396714Y-70161875D01*
X162360428Y-70016732D01*
X162360428Y-69907875D01*
X162396714Y-69762732D01*
X162433000Y-69690161D01*
X162505571Y-69617590D01*
X162614428Y-69581304D01*
X162687000Y-69581304D01*
X162795857Y-69617590D01*
X162832142Y-69653875D01*
X163267571Y-70343304D02*
X163195000Y-70307018D01*
X163158714Y-70270732D01*
X163122428Y-70198161D01*
X163122428Y-69980447D01*
X163158714Y-69907875D01*
X163195000Y-69871590D01*
X163267571Y-69835304D01*
X163376428Y-69835304D01*
X163449000Y-69871590D01*
X163485285Y-69907875D01*
X163521571Y-69980447D01*
X163521571Y-70198161D01*
X163485285Y-70270732D01*
X163449000Y-70307018D01*
X163376428Y-70343304D01*
X163267571Y-70343304D01*
X163848142Y-70343304D02*
X163848142Y-69835304D01*
X163848142Y-69980447D02*
X163884428Y-69907875D01*
X163920714Y-69871590D01*
X163993285Y-69835304D01*
X164065857Y-69835304D01*
X164610142Y-70307018D02*
X164537571Y-70343304D01*
X164392428Y-70343304D01*
X164319857Y-70307018D01*
X164283571Y-70234447D01*
X164283571Y-69944161D01*
X164319857Y-69871590D01*
X164392428Y-69835304D01*
X164537571Y-69835304D01*
X164610142Y-69871590D01*
X164646428Y-69944161D01*
X164646428Y-70016732D01*
X164283571Y-70089304D01*
X165916428Y-70343304D02*
X165553571Y-70343304D01*
X165553571Y-69581304D01*
X166497000Y-70343304D02*
X166497000Y-69944161D01*
X166460714Y-69871590D01*
X166388142Y-69835304D01*
X166243000Y-69835304D01*
X166170428Y-69871590D01*
X166497000Y-70307018D02*
X166424428Y-70343304D01*
X166243000Y-70343304D01*
X166170428Y-70307018D01*
X166134142Y-70234447D01*
X166134142Y-70161875D01*
X166170428Y-70089304D01*
X166243000Y-70053018D01*
X166424428Y-70053018D01*
X166497000Y-70016732D01*
X166859857Y-70343304D02*
X166859857Y-69581304D01*
X166859857Y-69871590D02*
X166932428Y-69835304D01*
X167077571Y-69835304D01*
X167150142Y-69871590D01*
X167186428Y-69907875D01*
X167222714Y-69980447D01*
X167222714Y-70198161D01*
X167186428Y-70270732D01*
X167150142Y-70307018D01*
X167077571Y-70343304D01*
X166932428Y-70343304D01*
X166859857Y-70307018D01*
X167513000Y-70307018D02*
X167585571Y-70343304D01*
X167730714Y-70343304D01*
X167803285Y-70307018D01*
X167839571Y-70234447D01*
X167839571Y-70198161D01*
X167803285Y-70125590D01*
X167730714Y-70089304D01*
X167621857Y-70089304D01*
X167549285Y-70053018D01*
X167513000Y-69980447D01*
X167513000Y-69944161D01*
X167549285Y-69871590D01*
X167621857Y-69835304D01*
X167730714Y-69835304D01*
X167803285Y-69871590D01*
X161943142Y-70808124D02*
X162451142Y-71570124D01*
X162451142Y-70808124D02*
X161943142Y-71570124D01*
X162632571Y-70808124D02*
X163068000Y-70808124D01*
X162850285Y-71570124D02*
X162850285Y-70808124D01*
X163322000Y-71570124D02*
X163322000Y-70808124D01*
X163576000Y-71352410D01*
X163830000Y-70808124D01*
X163830000Y-71570124D01*
X164519428Y-71570124D02*
X164519428Y-71170981D01*
X164483142Y-71098410D01*
X164410571Y-71062124D01*
X164265428Y-71062124D01*
X164192857Y-71098410D01*
X164519428Y-71533838D02*
X164446857Y-71570124D01*
X164265428Y-71570124D01*
X164192857Y-71533838D01*
X164156571Y-71461267D01*
X164156571Y-71388695D01*
X164192857Y-71316124D01*
X164265428Y-71279838D01*
X164446857Y-71279838D01*
X164519428Y-71243552D01*
X164809714Y-71570124D02*
X165208857Y-71062124D01*
X164809714Y-71062124D02*
X165208857Y-71570124D01*
X153630380Y-78477904D02*
X154439904Y-78477904D01*
X154535142Y-78430285D01*
X154582761Y-78382666D01*
X154630380Y-78287428D01*
X154630380Y-78096952D01*
X154582761Y-78001714D01*
X154535142Y-77954095D01*
X154439904Y-77906476D01*
X153630380Y-77906476D01*
X154582761Y-77477904D02*
X154630380Y-77335047D01*
X154630380Y-77096952D01*
X154582761Y-77001714D01*
X154535142Y-76954095D01*
X154439904Y-76906476D01*
X154344666Y-76906476D01*
X154249428Y-76954095D01*
X154201809Y-77001714D01*
X154154190Y-77096952D01*
X154106571Y-77287428D01*
X154058952Y-77382666D01*
X154011333Y-77430285D01*
X153916095Y-77477904D01*
X153820857Y-77477904D01*
X153725619Y-77430285D01*
X153678000Y-77382666D01*
X153630380Y-77287428D01*
X153630380Y-77049333D01*
X153678000Y-76906476D01*
X154106571Y-76144571D02*
X154154190Y-76001714D01*
X154201809Y-75954095D01*
X154297047Y-75906476D01*
X154439904Y-75906476D01*
X154535142Y-75954095D01*
X154582761Y-76001714D01*
X154630380Y-76096952D01*
X154630380Y-76477904D01*
X153630380Y-76477904D01*
X153630380Y-76144571D01*
X153678000Y-76049333D01*
X153725619Y-76001714D01*
X153820857Y-75954095D01*
X153916095Y-75954095D01*
X154011333Y-76001714D01*
X154058952Y-76049333D01*
X154106571Y-76144571D01*
X154106571Y-76477904D01*
X100258952Y-77668380D02*
X100258952Y-76668380D01*
X100592285Y-77382666D01*
X100925619Y-76668380D01*
X100925619Y-77668380D01*
X101401809Y-77668380D02*
X101401809Y-77001714D01*
X101401809Y-76668380D02*
X101354190Y-76716000D01*
X101401809Y-76763619D01*
X101449428Y-76716000D01*
X101401809Y-76668380D01*
X101401809Y-76763619D01*
X102306571Y-77620761D02*
X102211333Y-77668380D01*
X102020857Y-77668380D01*
X101925619Y-77620761D01*
X101878000Y-77573142D01*
X101830380Y-77477904D01*
X101830380Y-77192190D01*
X101878000Y-77096952D01*
X101925619Y-77049333D01*
X102020857Y-77001714D01*
X102211333Y-77001714D01*
X102306571Y-77049333D01*
X102735142Y-77668380D02*
X102735142Y-77001714D01*
X102735142Y-77192190D02*
X102782761Y-77096952D01*
X102830380Y-77049333D01*
X102925619Y-77001714D01*
X103020857Y-77001714D01*
X103497047Y-77668380D02*
X103401809Y-77620761D01*
X103354190Y-77573142D01*
X103306571Y-77477904D01*
X103306571Y-77192190D01*
X103354190Y-77096952D01*
X103401809Y-77049333D01*
X103497047Y-77001714D01*
X103639904Y-77001714D01*
X103735142Y-77049333D01*
X103782761Y-77096952D01*
X103830380Y-77192190D01*
X103830380Y-77477904D01*
X103782761Y-77573142D01*
X103735142Y-77620761D01*
X103639904Y-77668380D01*
X103497047Y-77668380D01*
X104973238Y-77620761D02*
X105116095Y-77668380D01*
X105354190Y-77668380D01*
X105449428Y-77620761D01*
X105497047Y-77573142D01*
X105544666Y-77477904D01*
X105544666Y-77382666D01*
X105497047Y-77287428D01*
X105449428Y-77239809D01*
X105354190Y-77192190D01*
X105163714Y-77144571D01*
X105068476Y-77096952D01*
X105020857Y-77049333D01*
X104973238Y-76954095D01*
X104973238Y-76858857D01*
X105020857Y-76763619D01*
X105068476Y-76716000D01*
X105163714Y-76668380D01*
X105401809Y-76668380D01*
X105544666Y-76716000D01*
X105973238Y-77668380D02*
X105973238Y-76668380D01*
X106211333Y-76668380D01*
X106354190Y-76716000D01*
X106449428Y-76811238D01*
X106497047Y-76906476D01*
X106544666Y-77096952D01*
X106544666Y-77239809D01*
X106497047Y-77430285D01*
X106449428Y-77525523D01*
X106354190Y-77620761D01*
X106211333Y-77668380D01*
X105973238Y-77668380D01*
X147839180Y-81219180D02*
X147839180Y-80647752D01*
X148839180Y-80933466D02*
X147839180Y-80933466D01*
X148791561Y-79933466D02*
X148839180Y-80028704D01*
X148839180Y-80219180D01*
X148791561Y-80314419D01*
X148696323Y-80362038D01*
X148315371Y-80362038D01*
X148220133Y-80314419D01*
X148172514Y-80219180D01*
X148172514Y-80028704D01*
X148220133Y-79933466D01*
X148315371Y-79885847D01*
X148410609Y-79885847D01*
X148505847Y-80362038D01*
X148791561Y-79076323D02*
X148839180Y-79171561D01*
X148839180Y-79362038D01*
X148791561Y-79457276D01*
X148696323Y-79504895D01*
X148315371Y-79504895D01*
X148220133Y-79457276D01*
X148172514Y-79362038D01*
X148172514Y-79171561D01*
X148220133Y-79076323D01*
X148315371Y-79028704D01*
X148410609Y-79028704D01*
X148505847Y-79504895D01*
X148172514Y-78600133D02*
X148839180Y-78600133D01*
X148267752Y-78600133D02*
X148220133Y-78552514D01*
X148172514Y-78457276D01*
X148172514Y-78314419D01*
X148220133Y-78219180D01*
X148315371Y-78171561D01*
X148839180Y-78171561D01*
X148791561Y-77742990D02*
X148839180Y-77647752D01*
X148839180Y-77457276D01*
X148791561Y-77362038D01*
X148696323Y-77314419D01*
X148648704Y-77314419D01*
X148553466Y-77362038D01*
X148505847Y-77457276D01*
X148505847Y-77600133D01*
X148458228Y-77695371D01*
X148362990Y-77742990D01*
X148315371Y-77742990D01*
X148220133Y-77695371D01*
X148172514Y-77600133D01*
X148172514Y-77457276D01*
X148220133Y-77362038D01*
X148172514Y-76981085D02*
X148839180Y-76742990D01*
X148172514Y-76504895D02*
X148839180Y-76742990D01*
X149077276Y-76838228D01*
X149124895Y-76885847D01*
X149172514Y-76981085D01*
X148172514Y-74933466D02*
X148839180Y-74933466D01*
X147791561Y-75171561D02*
X148505847Y-75409657D01*
X148505847Y-74790609D01*
X148743942Y-74409657D02*
X148791561Y-74362038D01*
X148839180Y-74409657D01*
X148791561Y-74457276D01*
X148743942Y-74409657D01*
X148839180Y-74409657D01*
X148839180Y-73409657D02*
X148839180Y-73981085D01*
X148839180Y-73695371D02*
X147839180Y-73695371D01*
X147982038Y-73790609D01*
X148077276Y-73885847D01*
X148124895Y-73981085D01*
D12*
X93024000Y-88198000D02*
X90364000Y-88198000D01*
X90364000Y-82998000D02*
X90364000Y-88198000D01*
X90424000Y-82998000D02*
X90364000Y-82998000D01*
X90424000Y-85598000D02*
X93024000Y-85598000D01*
X91694000Y-82998000D02*
X93024000Y-82998000D01*
X90424000Y-82998000D02*
X90424000Y-85598000D01*
X93024000Y-85598000D02*
X93024000Y-88198000D01*
X93024000Y-82998000D02*
X93024000Y-84328000D01*
X166878000Y-98740996D02*
X168208000Y-98740996D01*
X165608000Y-98740996D02*
X165608000Y-101340996D01*
X168208000Y-103940996D02*
X89348000Y-103940996D01*
X165608000Y-101340996D02*
X168208000Y-101340996D01*
X89348000Y-98740996D02*
X89348000Y-103940996D01*
X165608000Y-98740996D02*
X89348000Y-98740996D01*
X168208000Y-101340996D02*
X168208000Y-103940996D01*
X168208000Y-98740996D02*
X168208000Y-100070996D01*
X150876000Y-96603000D02*
X154476000Y-96603000D01*
X150876000Y-89833000D02*
X148676000Y-89833000D01*
X150876000Y-89833000D02*
X153076000Y-89833000D01*
X150876000Y-96603000D02*
X148676000Y-96603000D01*
X142346000Y-94341836D02*
X142346000Y-94126164D01*
X141626000Y-94341836D02*
X141626000Y-94126164D01*
X157143000Y-92964000D02*
X157143000Y-95164000D01*
X163913000Y-92964000D02*
X163913000Y-89364000D01*
X157143000Y-92964000D02*
X157143000Y-90764000D01*
X163913000Y-92964000D02*
X163913000Y-95164000D01*
X96691000Y-92964000D02*
X96691000Y-90764000D01*
X96691000Y-92964000D02*
X96691000Y-95164000D01*
X103461000Y-92964000D02*
X103461000Y-95164000D01*
X103461000Y-92964000D02*
X103461000Y-89364000D01*
X117011000Y-92964000D02*
X117011000Y-95164000D01*
X117011000Y-92964000D02*
X117011000Y-90764000D01*
X123781000Y-92964000D02*
X123781000Y-95164000D01*
X123781000Y-92964000D02*
X123781000Y-89364000D01*
X153308164Y-88498000D02*
X153523836Y-88498000D01*
X153308164Y-87778000D02*
X153523836Y-87778000D01*
X127360000Y-94341836D02*
X127360000Y-94126164D01*
X126640000Y-94341836D02*
X126640000Y-94126164D01*
X105050000Y-94087836D02*
X105050000Y-93872164D01*
X105770000Y-94087836D02*
X105770000Y-93872164D01*
D11*
X97028000Y-83566000D02*
X109728000Y-83566000D01*
X109728000Y-70866000D02*
X97028000Y-70866000D01*
X152908000Y-73406000D02*
X157988000Y-73406000D01*
X113538000Y-78486000D02*
X113538000Y-75946000D01*
X159258000Y-81026000D02*
X157988000Y-81026000D01*
X117348000Y-78486000D02*
X113538000Y-78486000D01*
X152908000Y-81026000D02*
X157988000Y-81026000D01*
X157988000Y-68326000D02*
X157988000Y-86106000D01*
X97028000Y-86106000D02*
X97028000Y-68326000D01*
X117348000Y-75946000D02*
X117348000Y-78486000D01*
X157988000Y-86106000D02*
X97028000Y-86106000D01*
X159258000Y-73406000D02*
X159258000Y-81026000D01*
X97028000Y-82296000D02*
X98298000Y-82296000D01*
X152908000Y-73406000D02*
X152908000Y-81026000D01*
X98298000Y-72136000D02*
X97028000Y-72136000D01*
X109728000Y-83566000D02*
X109728000Y-70866000D01*
X113538000Y-75946000D02*
X117348000Y-75946000D01*
X135128000Y-83566000D02*
X135128000Y-70866000D01*
X135128000Y-70866000D02*
X122428000Y-70866000D01*
X97028000Y-68326000D02*
X157988000Y-68326000D01*
X122428000Y-83566000D02*
X135128000Y-83566000D01*
X98298000Y-82296000D02*
X98298000Y-72136000D01*
X157988000Y-73406000D02*
X159258000Y-73406000D01*
X122428000Y-70866000D02*
X122428000Y-83566000D01*
X116341026Y-77216000D02*
G75*
G03*
X116341026Y-77216000I-898026J0D01*
G01*
D12*
X107359000Y-92964000D02*
X107359000Y-95164000D01*
X114129000Y-92964000D02*
X114129000Y-95164000D01*
X114129000Y-92964000D02*
X114129000Y-89364000D01*
X107359000Y-92964000D02*
X107359000Y-90764000D01*
X132505000Y-92964000D02*
X132505000Y-90764000D01*
X139275000Y-92964000D02*
X139275000Y-89364000D01*
X132505000Y-92964000D02*
X132505000Y-95164000D01*
X139275000Y-92964000D02*
X139275000Y-95164000D01*
%LPC*%
X88265000Y-113284000D02*
X88265000Y-105664000D01*
G36*
X169291000Y-113284000D02*
G01*
X88265000Y-113284000D01*
X88265000Y-105664000D01*
X169291000Y-105664000D01*
X169291000Y-113284000D01*
G37*
D13*
X169291000Y-113284000D02*
X88265000Y-113284000D01*
X88265000Y-105664000D01*
X169291000Y-105664000D01*
X169291000Y-113284000D01*
D14*
X91694000Y-84328000D03*
D15*
X91694000Y-86868000D03*
D14*
X166878000Y-100070996D03*
D15*
X166878000Y-102610996D03*
X164338000Y-100070996D03*
X164338000Y-102610996D03*
X161798000Y-100070996D03*
X161798000Y-102610996D03*
X159258000Y-100070996D03*
X159258000Y-102610996D03*
X156718000Y-100070996D03*
X156718000Y-102610996D03*
X154178000Y-100070996D03*
X154178000Y-102610996D03*
X151638000Y-100070996D03*
X151638000Y-102610996D03*
X149098000Y-100070996D03*
X149098000Y-102610996D03*
X146558000Y-100070996D03*
X146558000Y-102610996D03*
X144018000Y-100070996D03*
X144018000Y-102610996D03*
X141478000Y-100070996D03*
X141478000Y-102610996D03*
X138938000Y-100070996D03*
X138938000Y-102610996D03*
X136398000Y-100070996D03*
X136398000Y-102610996D03*
X133858000Y-100070996D03*
X133858000Y-102610996D03*
X131318000Y-100070996D03*
X131318000Y-102610996D03*
X128778000Y-100070996D03*
X128778000Y-102610996D03*
X126238000Y-100070996D03*
X126238000Y-102610996D03*
X123698000Y-100070996D03*
X123698000Y-102610996D03*
X121158000Y-100070996D03*
X121158000Y-102610996D03*
X118618000Y-100070996D03*
X118618000Y-102610996D03*
X116078000Y-100070996D03*
X116078000Y-102610996D03*
X113538000Y-100070996D03*
X113538000Y-102610996D03*
X110998000Y-100070996D03*
X110998000Y-102610996D03*
X108458000Y-100070996D03*
X108458000Y-102610996D03*
X105918000Y-100070996D03*
X105918000Y-102610996D03*
X103378000Y-100070996D03*
X103378000Y-102610996D03*
X100838000Y-100070996D03*
X100838000Y-102610996D03*
X98298000Y-100070996D03*
X98298000Y-102610996D03*
X95758000Y-100070996D03*
X95758000Y-102610996D03*
X93218000Y-100070996D03*
X93218000Y-102610996D03*
X90678000Y-100070996D03*
X90678000Y-102610996D03*
D16*
X153738500Y-96143000D03*
X153738500Y-95493000D03*
X153738500Y-94843000D03*
X153738500Y-94193000D03*
X153738500Y-93543000D03*
X153738500Y-92893000D03*
X153738500Y-92243000D03*
X153738500Y-91593000D03*
X153738500Y-90943000D03*
X153738500Y-90293000D03*
X148013500Y-90293000D03*
X148013500Y-90943000D03*
X148013500Y-91593000D03*
X148013500Y-92243000D03*
X148013500Y-92893000D03*
X148013500Y-93543000D03*
X148013500Y-94193000D03*
X148013500Y-94843000D03*
X148013500Y-95493000D03*
X148013500Y-96143000D03*
D17*
X141986000Y-94714000D03*
X141986000Y-93754000D03*
D18*
X163453000Y-90101500D03*
X162803000Y-90101500D03*
X162153000Y-90101500D03*
X161503000Y-90101500D03*
X160853000Y-90101500D03*
X160203000Y-90101500D03*
X159553000Y-90101500D03*
X158903000Y-90101500D03*
X158253000Y-90101500D03*
X157603000Y-90101500D03*
X157603000Y-95826500D03*
X158253000Y-95826500D03*
X158903000Y-95826500D03*
X159553000Y-95826500D03*
X160203000Y-95826500D03*
X160853000Y-95826500D03*
X161503000Y-95826500D03*
X162153000Y-95826500D03*
X162803000Y-95826500D03*
X163453000Y-95826500D03*
X103001000Y-90101500D03*
X102351000Y-90101500D03*
X101701000Y-90101500D03*
X101051000Y-90101500D03*
X100401000Y-90101500D03*
X99751000Y-90101500D03*
X99101000Y-90101500D03*
X98451000Y-90101500D03*
X97801000Y-90101500D03*
X97151000Y-90101500D03*
X97151000Y-95826500D03*
X97801000Y-95826500D03*
X98451000Y-95826500D03*
X99101000Y-95826500D03*
X99751000Y-95826500D03*
X100401000Y-95826500D03*
X101051000Y-95826500D03*
X101701000Y-95826500D03*
X102351000Y-95826500D03*
X103001000Y-95826500D03*
X123321000Y-90101500D03*
X122671000Y-90101500D03*
X122021000Y-90101500D03*
X121371000Y-90101500D03*
X120721000Y-90101500D03*
X120071000Y-90101500D03*
X119421000Y-90101500D03*
X118771000Y-90101500D03*
X118121000Y-90101500D03*
X117471000Y-90101500D03*
X117471000Y-95826500D03*
X118121000Y-95826500D03*
X118771000Y-95826500D03*
X119421000Y-95826500D03*
X120071000Y-95826500D03*
X120721000Y-95826500D03*
X121371000Y-95826500D03*
X122021000Y-95826500D03*
X122671000Y-95826500D03*
X123321000Y-95826500D03*
D19*
X166878000Y-109347000D03*
X164338000Y-109347000D03*
X161798000Y-109347000D03*
X159258000Y-109347000D03*
X156718000Y-109347000D03*
X154178000Y-109347000D03*
X151638000Y-109347000D03*
X149098000Y-109347000D03*
X146558000Y-109347000D03*
X144018000Y-109347000D03*
X141478000Y-109347000D03*
X138938000Y-109347000D03*
X136398000Y-109347000D03*
X133858000Y-109347000D03*
X131318000Y-109347000D03*
X128778000Y-109347000D03*
X126238000Y-109347000D03*
X123698000Y-109347000D03*
X121158000Y-109347000D03*
X118618000Y-109347000D03*
X116078000Y-109347000D03*
X113538000Y-109347000D03*
X110998000Y-109347000D03*
X108458000Y-109347000D03*
X105918000Y-109347000D03*
X103378000Y-109347000D03*
X100838000Y-109347000D03*
X98298000Y-109347000D03*
X95758000Y-109347000D03*
X93218000Y-109347000D03*
X90678000Y-109347000D03*
D20*
X152936000Y-88138000D03*
X153896000Y-88138000D03*
D17*
X127000000Y-94714000D03*
X127000000Y-93754000D03*
X105410000Y-94460000D03*
X105410000Y-93500000D03*
D21*
X156718000Y-69596000D03*
D22*
X154178000Y-69596000D03*
X151638000Y-69596000D03*
X149098000Y-69596000D03*
X146558000Y-69596000D03*
X144018000Y-69596000D03*
X141478000Y-69596000D03*
X138938000Y-69596000D03*
X136398000Y-69596000D03*
X133858000Y-69596000D03*
X131318000Y-69596000D03*
X128778000Y-69596000D03*
X126238000Y-69596000D03*
X123698000Y-69596000D03*
X121158000Y-69596000D03*
X118618000Y-69596000D03*
X116078000Y-69596000D03*
X113538000Y-69596000D03*
X110998000Y-69596000D03*
X108458000Y-69596000D03*
X105918000Y-69596000D03*
X103378000Y-69596000D03*
X100838000Y-69596000D03*
X98298000Y-69596000D03*
X98298000Y-84836000D03*
X100838000Y-84836000D03*
X103378000Y-84836000D03*
X105918000Y-84836000D03*
X108458000Y-84836000D03*
X110998000Y-84836000D03*
X113538000Y-84836000D03*
X116078000Y-84836000D03*
X118618000Y-84836000D03*
X121158000Y-84836000D03*
X123698000Y-84836000D03*
X126238000Y-84836000D03*
X128778000Y-84836000D03*
X131318000Y-84836000D03*
X133858000Y-84836000D03*
X136398000Y-84836000D03*
X138938000Y-84836000D03*
X141478000Y-84836000D03*
X144018000Y-84836000D03*
X146558000Y-84836000D03*
X149098000Y-84836000D03*
X151638000Y-84836000D03*
X154178000Y-84836000D03*
X156718000Y-84836000D03*
D18*
X113669000Y-90101500D03*
X113019000Y-90101500D03*
X112369000Y-90101500D03*
X111719000Y-90101500D03*
X111069000Y-90101500D03*
X110419000Y-90101500D03*
X109769000Y-90101500D03*
X109119000Y-90101500D03*
X108469000Y-90101500D03*
X107819000Y-90101500D03*
X107819000Y-95826500D03*
X108469000Y-95826500D03*
X109119000Y-95826500D03*
X109769000Y-95826500D03*
X110419000Y-95826500D03*
X111069000Y-95826500D03*
X111719000Y-95826500D03*
X112369000Y-95826500D03*
X113019000Y-95826500D03*
X113669000Y-95826500D03*
X138815000Y-90101500D03*
X138165000Y-90101500D03*
X137515000Y-90101500D03*
X136865000Y-90101500D03*
X136215000Y-90101500D03*
X135565000Y-90101500D03*
X134915000Y-90101500D03*
X134265000Y-90101500D03*
X133615000Y-90101500D03*
X132965000Y-90101500D03*
X132965000Y-95826500D03*
X133615000Y-95826500D03*
X134265000Y-95826500D03*
X134915000Y-95826500D03*
X135565000Y-95826500D03*
X136215000Y-95826500D03*
X136865000Y-95826500D03*
X137515000Y-95826500D03*
X138165000Y-95826500D03*
X138815000Y-95826500D03*
M02*
