M48
; DRILL file {KiCad (5.1.8)-1} date 12/27/20 21:31:54
; FORMAT={2:4/ absolute / inch / suppress leading zeros}
; #@! TF.CreationDate,2020-12-27T21:31:54-08:00
; #@! TF.GenerationSoftware,Kicad,Pcbnew,(5.1.8)-1
; #@! TF.FileFunction,Plated,1,2,PTH
FMAT,2
INCH,TZ
T1C0.0157
T2C0.0315
T3C0.0433
%
G90
G05
T1
X47050Y-52240
X47190Y-41240
T2
X28350Y-37120
X28350Y-38120
X28350Y-39120
X28350Y-40120
X28350Y-41120
X28350Y-42120
X28350Y-43120
X28350Y-44120
X28350Y-45120
X28350Y-46120
X28350Y-47120
X28350Y-48120
X28350Y-49120
X28350Y-50120
X28350Y-51120
X28350Y-52120
X28350Y-53120
X28350Y-54120
X28350Y-55120
X28350Y-56120
X34350Y-37120
X34350Y-38120
X34350Y-39120
X34350Y-40120
X34350Y-41120
X34350Y-42120
X34350Y-43120
X34350Y-44120
X34350Y-45120
X34350Y-46120
X34350Y-47120
X34350Y-48120
X34350Y-49120
X34350Y-50120
X34350Y-51120
X34350Y-52120
X34350Y-53120
X34350Y-54120
X34350Y-55120
X34350Y-56120
X35480Y-41560
X37449Y-41560
X36160Y-43140
X36160Y-44140
X36160Y-45140
X36160Y-46140
X36160Y-47140
X36160Y-48140
X36160Y-49140
X36160Y-50140
X36160Y-51140
X36160Y-52140
X39160Y-43140
X39160Y-44140
X39160Y-45140
X39160Y-46140
X39160Y-47140
X39160Y-48140
X39160Y-49140
X39160Y-50140
X39160Y-51140
X39160Y-52140
X41010Y-43130
X41010Y-44130
X41010Y-45130
X41010Y-46130
X41010Y-47130
X41010Y-48130
X41010Y-49130
X41010Y-50130
X41010Y-51130
X41010Y-52130
X44010Y-43130
X44010Y-44130
X44010Y-45130
X44010Y-46130
X44010Y-47130
X44010Y-48130
X44010Y-49130
X44010Y-50130
X44010Y-51130
X44010Y-52130
X38750Y-35210
X38750Y-36210
X38750Y-37210
X38750Y-38210
X38750Y-39210
X38750Y-40210
X38750Y-41210
X41750Y-35210
X41750Y-36210
X41750Y-37210
X41750Y-38210
X41750Y-39210
X41750Y-40210
X41750Y-41210
T3
X46100Y-33120
X46100Y-34120
X46100Y-35120
X46100Y-36120
X46100Y-37120
X46100Y-38120
X46100Y-39120
X46100Y-40120
X46100Y-41120
X46100Y-42120
X46100Y-43120
X46100Y-44120
X46100Y-45120
X46100Y-46120
X46100Y-47120
X46100Y-48120
X46100Y-49120
X46100Y-50120
X46100Y-51120
X46100Y-52120
X46100Y-53120
X46100Y-54120
X46100Y-55120
X46100Y-56120
X52100Y-33120
X52100Y-34120
X52100Y-35120
X52100Y-36120
X52100Y-37120
X52100Y-38120
X52100Y-39120
X52100Y-40120
X52100Y-41120
X52100Y-42120
X52100Y-43120
X52100Y-44120
X52100Y-45120
X52100Y-46120
X52100Y-47120
X52100Y-48120
X52100Y-49120
X52100Y-50120
X52100Y-51120
X52100Y-52120
X52100Y-53120
X52100Y-54120
X52100Y-55120
X52100Y-56120
T0
M30
