G04 #@! TF.GenerationSoftware,KiCad,Pcbnew,(5.1.8)-1*
G04 #@! TF.CreationDate,2020-12-27T21:30:32-08:00*
G04 #@! TF.ProjectId,MCL65+,4d434c36-352b-42e6-9b69-6361645f7063,rev?*
G04 #@! TF.SameCoordinates,Original*
G04 #@! TF.FileFunction,Legend,Top*
G04 #@! TF.FilePolarity,Positive*
%FSLAX46Y46*%
G04 Gerber Fmt 4.6, Leading zero omitted, Abs format (unit mm)*
G04 Created by KiCad (PCBNEW (5.1.8)-1) date 2020-12-27 21:30:32*
%MOMM*%
%LPD*%
G01*
G04 APERTURE LIST*
%ADD10C,0.300000*%
%ADD11C,0.120000*%
%ADD12C,0.150000*%
%ADD13C,0.100000*%
G04 APERTURE END LIST*
D10*
X67257057Y-85641571D02*
X67257057Y-84141571D01*
X67757057Y-85213000D01*
X68257057Y-84141571D01*
X68257057Y-85641571D01*
X68971342Y-85641571D02*
X68971342Y-84641571D01*
X68971342Y-84141571D02*
X68899914Y-84213000D01*
X68971342Y-84284428D01*
X69042771Y-84213000D01*
X68971342Y-84141571D01*
X68971342Y-84284428D01*
X70328485Y-85570142D02*
X70185628Y-85641571D01*
X69899914Y-85641571D01*
X69757057Y-85570142D01*
X69685628Y-85498714D01*
X69614200Y-85355857D01*
X69614200Y-84927285D01*
X69685628Y-84784428D01*
X69757057Y-84713000D01*
X69899914Y-84641571D01*
X70185628Y-84641571D01*
X70328485Y-84713000D01*
X70971342Y-85641571D02*
X70971342Y-84641571D01*
X70971342Y-84927285D02*
X71042771Y-84784428D01*
X71114200Y-84713000D01*
X71257057Y-84641571D01*
X71399914Y-84641571D01*
X72114200Y-85641571D02*
X71971342Y-85570142D01*
X71899914Y-85498714D01*
X71828485Y-85355857D01*
X71828485Y-84927285D01*
X71899914Y-84784428D01*
X71971342Y-84713000D01*
X72114200Y-84641571D01*
X72328485Y-84641571D01*
X72471342Y-84713000D01*
X72542771Y-84784428D01*
X72614200Y-84927285D01*
X72614200Y-85355857D01*
X72542771Y-85498714D01*
X72471342Y-85570142D01*
X72328485Y-85641571D01*
X72114200Y-85641571D01*
X74114200Y-85498714D02*
X74042771Y-85570142D01*
X73828485Y-85641571D01*
X73685628Y-85641571D01*
X73471342Y-85570142D01*
X73328485Y-85427285D01*
X73257057Y-85284428D01*
X73185628Y-84998714D01*
X73185628Y-84784428D01*
X73257057Y-84498714D01*
X73328485Y-84355857D01*
X73471342Y-84213000D01*
X73685628Y-84141571D01*
X73828485Y-84141571D01*
X74042771Y-84213000D01*
X74114200Y-84284428D01*
X74971342Y-85641571D02*
X74828485Y-85570142D01*
X74757057Y-85498714D01*
X74685628Y-85355857D01*
X74685628Y-84927285D01*
X74757057Y-84784428D01*
X74828485Y-84713000D01*
X74971342Y-84641571D01*
X75185628Y-84641571D01*
X75328485Y-84713000D01*
X75399914Y-84784428D01*
X75471342Y-84927285D01*
X75471342Y-85355857D01*
X75399914Y-85498714D01*
X75328485Y-85570142D01*
X75185628Y-85641571D01*
X74971342Y-85641571D01*
X76114200Y-85641571D02*
X76114200Y-84641571D01*
X76114200Y-84927285D02*
X76185628Y-84784428D01*
X76257057Y-84713000D01*
X76399914Y-84641571D01*
X76542771Y-84641571D01*
X77614200Y-85570142D02*
X77471342Y-85641571D01*
X77185628Y-85641571D01*
X77042771Y-85570142D01*
X76971342Y-85427285D01*
X76971342Y-84855857D01*
X77042771Y-84713000D01*
X77185628Y-84641571D01*
X77471342Y-84641571D01*
X77614200Y-84713000D01*
X77685628Y-84855857D01*
X77685628Y-84998714D01*
X76971342Y-85141571D01*
X80185628Y-85641571D02*
X79471342Y-85641571D01*
X79471342Y-84141571D01*
X81328485Y-85641571D02*
X81328485Y-84855857D01*
X81257057Y-84713000D01*
X81114200Y-84641571D01*
X80828485Y-84641571D01*
X80685628Y-84713000D01*
X81328485Y-85570142D02*
X81185628Y-85641571D01*
X80828485Y-85641571D01*
X80685628Y-85570142D01*
X80614200Y-85427285D01*
X80614200Y-85284428D01*
X80685628Y-85141571D01*
X80828485Y-85070142D01*
X81185628Y-85070142D01*
X81328485Y-84998714D01*
X82042771Y-85641571D02*
X82042771Y-84141571D01*
X82042771Y-84713000D02*
X82185628Y-84641571D01*
X82471342Y-84641571D01*
X82614200Y-84713000D01*
X82685628Y-84784428D01*
X82757057Y-84927285D01*
X82757057Y-85355857D01*
X82685628Y-85498714D01*
X82614200Y-85570142D01*
X82471342Y-85641571D01*
X82185628Y-85641571D01*
X82042771Y-85570142D01*
X83328485Y-85570142D02*
X83471342Y-85641571D01*
X83757057Y-85641571D01*
X83899914Y-85570142D01*
X83971342Y-85427285D01*
X83971342Y-85355857D01*
X83899914Y-85213000D01*
X83757057Y-85141571D01*
X83542771Y-85141571D01*
X83399914Y-85070142D01*
X83328485Y-84927285D01*
X83328485Y-84855857D01*
X83399914Y-84713000D01*
X83542771Y-84641571D01*
X83757057Y-84641571D01*
X83899914Y-84713000D01*
X88042771Y-85641571D02*
X88042771Y-84141571D01*
X88542771Y-85213000D01*
X89042771Y-84141571D01*
X89042771Y-85641571D01*
X90614199Y-85498714D02*
X90542771Y-85570142D01*
X90328485Y-85641571D01*
X90185628Y-85641571D01*
X89971342Y-85570142D01*
X89828485Y-85427285D01*
X89757057Y-85284428D01*
X89685628Y-84998714D01*
X89685628Y-84784428D01*
X89757057Y-84498714D01*
X89828485Y-84355857D01*
X89971342Y-84213000D01*
X90185628Y-84141571D01*
X90328485Y-84141571D01*
X90542771Y-84213000D01*
X90614199Y-84284428D01*
X91971342Y-85641571D02*
X91257057Y-85641571D01*
X91257057Y-84141571D01*
X93114199Y-84141571D02*
X92828485Y-84141571D01*
X92685628Y-84213000D01*
X92614199Y-84284428D01*
X92471342Y-84498714D01*
X92399914Y-84784428D01*
X92399914Y-85355857D01*
X92471342Y-85498714D01*
X92542771Y-85570142D01*
X92685628Y-85641571D01*
X92971342Y-85641571D01*
X93114199Y-85570142D01*
X93185628Y-85498714D01*
X93257057Y-85355857D01*
X93257057Y-84998714D01*
X93185628Y-84855857D01*
X93114199Y-84784428D01*
X92971342Y-84713000D01*
X92685628Y-84713000D01*
X92542771Y-84784428D01*
X92471342Y-84855857D01*
X92399914Y-84998714D01*
X94614199Y-84141571D02*
X93899914Y-84141571D01*
X93828485Y-84855857D01*
X93899914Y-84784428D01*
X94042771Y-84713000D01*
X94399914Y-84713000D01*
X94542771Y-84784428D01*
X94614199Y-84855857D01*
X94685628Y-84998714D01*
X94685628Y-85355857D01*
X94614199Y-85498714D01*
X94542771Y-85570142D01*
X94399914Y-85641571D01*
X94042771Y-85641571D01*
X93899914Y-85570142D01*
X93828485Y-85498714D01*
X95328485Y-85070142D02*
X96471342Y-85070142D01*
X95899914Y-85641571D02*
X95899914Y-84498714D01*
D11*
X88999200Y-104192400D02*
X96239200Y-104192400D01*
X88999200Y-106932400D02*
X96239200Y-106932400D01*
X88999200Y-104192400D02*
X88999200Y-106932400D01*
X96239200Y-104192400D02*
X96239200Y-106932400D01*
X97095000Y-106063400D02*
X107375000Y-106063400D01*
X97095000Y-88043400D02*
X97095000Y-106063400D01*
X107375000Y-88043400D02*
X97095000Y-88043400D01*
X107375000Y-106063400D02*
X107375000Y-88043400D01*
X99585000Y-106003400D02*
X101235000Y-106003400D01*
X99585000Y-88103400D02*
X99585000Y-106003400D01*
X104885000Y-88103400D02*
X99585000Y-88103400D01*
X104885000Y-106003400D02*
X104885000Y-88103400D01*
X103235000Y-106003400D02*
X104885000Y-106003400D01*
X101235000Y-106003400D02*
G75*
G02*
X103235000Y-106003400I1000000J0D01*
G01*
X90516400Y-133825600D02*
X100796400Y-133825600D01*
X90516400Y-108185600D02*
X90516400Y-133825600D01*
X100796400Y-108185600D02*
X90516400Y-108185600D01*
X100796400Y-133825600D02*
X100796400Y-108185600D01*
X93006400Y-133765600D02*
X94656400Y-133765600D01*
X93006400Y-108245600D02*
X93006400Y-133765600D01*
X98306400Y-108245600D02*
X93006400Y-108245600D01*
X98306400Y-133765600D02*
X98306400Y-108245600D01*
X96656400Y-133765600D02*
X98306400Y-133765600D01*
X94656400Y-133765600D02*
G75*
G02*
X96656400Y-133765600I1000000J0D01*
G01*
D12*
X118364000Y-120954800D02*
X131064000Y-120954800D01*
X118364000Y-108254800D02*
X118364000Y-120954800D01*
X131064000Y-108254800D02*
X118364000Y-108254800D01*
X131064000Y-120954800D02*
X131064000Y-108254800D01*
X129794000Y-84124800D02*
X129794000Y-82854800D01*
X119634000Y-84124800D02*
X129794000Y-84124800D01*
X119634000Y-82854800D02*
X119634000Y-84124800D01*
X131064000Y-95554800D02*
X131064000Y-82854800D01*
X118364000Y-95554800D02*
X131064000Y-95554800D01*
X118364000Y-82854800D02*
X118364000Y-95554800D01*
X128524000Y-143814800D02*
X128524000Y-145084800D01*
X128524000Y-145084800D02*
X120904000Y-145084800D01*
X120904000Y-145084800D02*
X120904000Y-143814800D01*
X128524000Y-138734800D02*
X120904000Y-138734800D01*
X120904000Y-138734800D02*
X120904000Y-143814800D01*
X128524000Y-138734800D02*
X128524000Y-143814800D01*
X115824000Y-143814800D02*
X115824000Y-82854800D01*
X115824000Y-82854800D02*
X133604000Y-82854800D01*
X133604000Y-82854800D02*
X133604000Y-143814800D01*
X133604000Y-143814800D02*
X115824000Y-143814800D01*
D13*
G36*
X125169000Y-110899800D02*
G01*
X125423000Y-111153800D01*
X125042000Y-111407800D01*
X124788000Y-111153800D01*
X125169000Y-110899800D01*
G37*
X125169000Y-110899800D02*
X125423000Y-111153800D01*
X125042000Y-111407800D01*
X124788000Y-111153800D01*
X125169000Y-110899800D01*
G36*
X124661000Y-111280800D02*
G01*
X124915000Y-111534800D01*
X124534000Y-111788800D01*
X124280000Y-111534800D01*
X124661000Y-111280800D01*
G37*
X124661000Y-111280800D02*
X124915000Y-111534800D01*
X124534000Y-111788800D01*
X124280000Y-111534800D01*
X124661000Y-111280800D01*
G36*
X124153000Y-111661800D02*
G01*
X124407000Y-111915800D01*
X124026000Y-112169800D01*
X123772000Y-111915800D01*
X124153000Y-111661800D01*
G37*
X124153000Y-111661800D02*
X124407000Y-111915800D01*
X124026000Y-112169800D01*
X123772000Y-111915800D01*
X124153000Y-111661800D01*
G36*
X125042000Y-111661800D02*
G01*
X125296000Y-111915800D01*
X124915000Y-112169800D01*
X124661000Y-111915800D01*
X125042000Y-111661800D01*
G37*
X125042000Y-111661800D02*
X125296000Y-111915800D01*
X124915000Y-112169800D01*
X124661000Y-111915800D01*
X125042000Y-111661800D01*
G36*
X124534000Y-112042800D02*
G01*
X124788000Y-112296800D01*
X124407000Y-112550800D01*
X124153000Y-112296800D01*
X124534000Y-112042800D01*
G37*
X124534000Y-112042800D02*
X124788000Y-112296800D01*
X124407000Y-112550800D01*
X124153000Y-112296800D01*
X124534000Y-112042800D01*
G36*
X124026000Y-112423800D02*
G01*
X124280000Y-112677800D01*
X123899000Y-112931800D01*
X123645000Y-112677800D01*
X124026000Y-112423800D01*
G37*
X124026000Y-112423800D02*
X124280000Y-112677800D01*
X123899000Y-112931800D01*
X123645000Y-112677800D01*
X124026000Y-112423800D01*
G36*
X124788000Y-110518800D02*
G01*
X125042000Y-110772800D01*
X124661000Y-111026800D01*
X124407000Y-110772800D01*
X124788000Y-110518800D01*
G37*
X124788000Y-110518800D02*
X125042000Y-110772800D01*
X124661000Y-111026800D01*
X124407000Y-110772800D01*
X124788000Y-110518800D01*
G36*
X124407000Y-110137800D02*
G01*
X124661000Y-110391800D01*
X124280000Y-110645800D01*
X124026000Y-110391800D01*
X124407000Y-110137800D01*
G37*
X124407000Y-110137800D02*
X124661000Y-110391800D01*
X124280000Y-110645800D01*
X124026000Y-110391800D01*
X124407000Y-110137800D01*
D11*
X78629000Y-92954800D02*
X73169000Y-92954800D01*
X73169000Y-92954800D02*
X73169000Y-143874800D01*
X73169000Y-143874800D02*
X86089000Y-143874800D01*
X86089000Y-143874800D02*
X86089000Y-92954800D01*
X86089000Y-92954800D02*
X80629000Y-92954800D01*
X80629000Y-92954800D02*
G75*
G02*
X78629000Y-92954800I-1000000J0D01*
G01*
X106975400Y-108220200D02*
X105325400Y-108220200D01*
X105325400Y-108220200D02*
X105325400Y-133740200D01*
X105325400Y-133740200D02*
X110625400Y-133740200D01*
X110625400Y-133740200D02*
X110625400Y-108220200D01*
X110625400Y-108220200D02*
X108975400Y-108220200D01*
X102835400Y-108160200D02*
X102835400Y-133800200D01*
X102835400Y-133800200D02*
X113115400Y-133800200D01*
X113115400Y-133800200D02*
X113115400Y-108160200D01*
X113115400Y-108160200D02*
X102835400Y-108160200D01*
X108975400Y-108220200D02*
G75*
G02*
X106975400Y-108220200I-1000000J0D01*
G01*
D12*
X92452533Y-103419542D02*
X92404914Y-103467161D01*
X92262057Y-103514780D01*
X92166819Y-103514780D01*
X92023961Y-103467161D01*
X91928723Y-103371923D01*
X91881104Y-103276685D01*
X91833485Y-103086209D01*
X91833485Y-102943352D01*
X91881104Y-102752876D01*
X91928723Y-102657638D01*
X92023961Y-102562400D01*
X92166819Y-102514780D01*
X92262057Y-102514780D01*
X92404914Y-102562400D01*
X92452533Y-102610019D01*
X93404914Y-103514780D02*
X92833485Y-103514780D01*
X93119200Y-103514780D02*
X93119200Y-102514780D01*
X93023961Y-102657638D01*
X92928723Y-102752876D01*
X92833485Y-102800495D01*
X108534295Y-104227380D02*
X108534295Y-105036904D01*
X108581914Y-105132142D01*
X108629533Y-105179761D01*
X108724771Y-105227380D01*
X108915247Y-105227380D01*
X109010485Y-105179761D01*
X109058104Y-105132142D01*
X109105723Y-105036904D01*
X109105723Y-104227380D01*
X109534295Y-104322619D02*
X109581914Y-104275000D01*
X109677152Y-104227380D01*
X109915247Y-104227380D01*
X110010485Y-104275000D01*
X110058104Y-104322619D01*
X110105723Y-104417857D01*
X110105723Y-104513095D01*
X110058104Y-104655952D01*
X109486676Y-105227380D01*
X110105723Y-105227380D01*
X95148495Y-134935980D02*
X95148495Y-135745504D01*
X95196114Y-135840742D01*
X95243733Y-135888361D01*
X95338971Y-135935980D01*
X95529447Y-135935980D01*
X95624685Y-135888361D01*
X95672304Y-135840742D01*
X95719923Y-135745504D01*
X95719923Y-134935980D01*
X96624685Y-135269314D02*
X96624685Y-135935980D01*
X96386590Y-134888361D02*
X96148495Y-135602647D01*
X96767542Y-135602647D01*
X121142571Y-98817180D02*
X121714000Y-98817180D01*
X121428285Y-99817180D02*
X121428285Y-98817180D01*
X122428285Y-99769561D02*
X122333047Y-99817180D01*
X122142571Y-99817180D01*
X122047333Y-99769561D01*
X121999714Y-99674323D01*
X121999714Y-99293371D01*
X122047333Y-99198133D01*
X122142571Y-99150514D01*
X122333047Y-99150514D01*
X122428285Y-99198133D01*
X122475904Y-99293371D01*
X122475904Y-99388609D01*
X121999714Y-99483847D01*
X123285428Y-99769561D02*
X123190190Y-99817180D01*
X122999714Y-99817180D01*
X122904476Y-99769561D01*
X122856857Y-99674323D01*
X122856857Y-99293371D01*
X122904476Y-99198133D01*
X122999714Y-99150514D01*
X123190190Y-99150514D01*
X123285428Y-99198133D01*
X123333047Y-99293371D01*
X123333047Y-99388609D01*
X122856857Y-99483847D01*
X123761619Y-99150514D02*
X123761619Y-99817180D01*
X123761619Y-99245752D02*
X123809238Y-99198133D01*
X123904476Y-99150514D01*
X124047333Y-99150514D01*
X124142571Y-99198133D01*
X124190190Y-99293371D01*
X124190190Y-99817180D01*
X124618761Y-99769561D02*
X124714000Y-99817180D01*
X124904476Y-99817180D01*
X124999714Y-99769561D01*
X125047333Y-99674323D01*
X125047333Y-99626704D01*
X124999714Y-99531466D01*
X124904476Y-99483847D01*
X124761619Y-99483847D01*
X124666380Y-99436228D01*
X124618761Y-99340990D01*
X124618761Y-99293371D01*
X124666380Y-99198133D01*
X124761619Y-99150514D01*
X124904476Y-99150514D01*
X124999714Y-99198133D01*
X125380666Y-99150514D02*
X125618761Y-99817180D01*
X125856857Y-99150514D02*
X125618761Y-99817180D01*
X125523523Y-100055276D01*
X125475904Y-100102895D01*
X125380666Y-100150514D01*
X126666380Y-99150514D02*
X126666380Y-99817180D01*
X126428285Y-98769561D02*
X126190190Y-99483847D01*
X126809238Y-99483847D01*
X127190190Y-99721942D02*
X127237809Y-99769561D01*
X127190190Y-99817180D01*
X127142571Y-99769561D01*
X127190190Y-99721942D01*
X127190190Y-99817180D01*
X128190190Y-99817180D02*
X127618761Y-99817180D01*
X127904476Y-99817180D02*
X127904476Y-98817180D01*
X127809238Y-98960038D01*
X127714000Y-99055276D01*
X127618761Y-99102895D01*
X123150666Y-116191466D02*
X123150666Y-115491466D01*
X123317333Y-115491466D01*
X123417333Y-115524800D01*
X123484000Y-115591466D01*
X123517333Y-115658133D01*
X123550666Y-115791466D01*
X123550666Y-115891466D01*
X123517333Y-116024800D01*
X123484000Y-116091466D01*
X123417333Y-116158133D01*
X123317333Y-116191466D01*
X123150666Y-116191466D01*
X123750666Y-115491466D02*
X123984000Y-116191466D01*
X124217333Y-115491466D01*
X124650666Y-115491466D02*
X124650666Y-115991466D01*
X124617333Y-116091466D01*
X124550666Y-116158133D01*
X124450666Y-116191466D01*
X124384000Y-116191466D01*
X125284000Y-115491466D02*
X125150666Y-115491466D01*
X125084000Y-115524800D01*
X125050666Y-115558133D01*
X124984000Y-115658133D01*
X124950666Y-115791466D01*
X124950666Y-116058133D01*
X124984000Y-116124800D01*
X125017333Y-116158133D01*
X125084000Y-116191466D01*
X125217333Y-116191466D01*
X125284000Y-116158133D01*
X125317333Y-116124800D01*
X125350666Y-116058133D01*
X125350666Y-115891466D01*
X125317333Y-115824800D01*
X125284000Y-115791466D01*
X125217333Y-115758133D01*
X125084000Y-115758133D01*
X125017333Y-115791466D01*
X124984000Y-115824800D01*
X124950666Y-115891466D01*
X125617333Y-115991466D02*
X125950666Y-115991466D01*
X125550666Y-116191466D02*
X125784000Y-115491466D01*
X126017333Y-116191466D01*
X121630666Y-114921466D02*
X121630666Y-114221466D01*
X121864000Y-114721466D01*
X122097333Y-114221466D01*
X122097333Y-114921466D01*
X122430666Y-114921466D02*
X122430666Y-114221466D01*
X122764000Y-114921466D02*
X122764000Y-114221466D01*
X122997333Y-114721466D01*
X123230666Y-114221466D01*
X123230666Y-114921466D01*
X123497333Y-114221466D02*
X123964000Y-114921466D01*
X123964000Y-114221466D02*
X123497333Y-114921466D01*
X124630666Y-114921466D02*
X124397333Y-114588133D01*
X124230666Y-114921466D02*
X124230666Y-114221466D01*
X124497333Y-114221466D01*
X124564000Y-114254800D01*
X124597333Y-114288133D01*
X124630666Y-114354800D01*
X124630666Y-114454800D01*
X124597333Y-114521466D01*
X124564000Y-114554800D01*
X124497333Y-114588133D01*
X124230666Y-114588133D01*
X124830666Y-114221466D02*
X125230666Y-114221466D01*
X125030666Y-114921466D02*
X125030666Y-114221466D01*
X125830666Y-114921466D02*
X125430666Y-114921466D01*
X125630666Y-114921466D02*
X125630666Y-114221466D01*
X125564000Y-114321466D01*
X125497333Y-114388133D01*
X125430666Y-114421466D01*
X126264000Y-114221466D02*
X126330666Y-114221466D01*
X126397333Y-114254800D01*
X126430666Y-114288133D01*
X126464000Y-114354800D01*
X126497333Y-114488133D01*
X126497333Y-114654800D01*
X126464000Y-114788133D01*
X126430666Y-114854800D01*
X126397333Y-114888133D01*
X126330666Y-114921466D01*
X126264000Y-114921466D01*
X126197333Y-114888133D01*
X126164000Y-114854800D01*
X126130666Y-114788133D01*
X126097333Y-114654800D01*
X126097333Y-114488133D01*
X126130666Y-114354800D01*
X126164000Y-114288133D01*
X126197333Y-114254800D01*
X126264000Y-114221466D01*
X127097333Y-114221466D02*
X126964000Y-114221466D01*
X126897333Y-114254800D01*
X126864000Y-114288133D01*
X126797333Y-114388133D01*
X126764000Y-114521466D01*
X126764000Y-114788133D01*
X126797333Y-114854800D01*
X126830666Y-114888133D01*
X126897333Y-114921466D01*
X127030666Y-114921466D01*
X127097333Y-114888133D01*
X127130666Y-114854800D01*
X127164000Y-114788133D01*
X127164000Y-114621466D01*
X127130666Y-114554800D01*
X127097333Y-114521466D01*
X127030666Y-114488133D01*
X126897333Y-114488133D01*
X126830666Y-114521466D01*
X126797333Y-114554800D01*
X126764000Y-114621466D01*
X127430666Y-114288133D02*
X127464000Y-114254800D01*
X127530666Y-114221466D01*
X127697333Y-114221466D01*
X127764000Y-114254800D01*
X127797333Y-114288133D01*
X127830666Y-114354800D01*
X127830666Y-114421466D01*
X127797333Y-114521466D01*
X127397333Y-114921466D01*
X127830666Y-114921466D01*
X123452095Y-139457180D02*
X123452095Y-140266704D01*
X123499714Y-140361942D01*
X123547333Y-140409561D01*
X123642571Y-140457180D01*
X123833047Y-140457180D01*
X123928285Y-140409561D01*
X123975904Y-140361942D01*
X124023523Y-140266704D01*
X124023523Y-139457180D01*
X124452095Y-140409561D02*
X124594952Y-140457180D01*
X124833047Y-140457180D01*
X124928285Y-140409561D01*
X124975904Y-140361942D01*
X125023523Y-140266704D01*
X125023523Y-140171466D01*
X124975904Y-140076228D01*
X124928285Y-140028609D01*
X124833047Y-139980990D01*
X124642571Y-139933371D01*
X124547333Y-139885752D01*
X124499714Y-139838133D01*
X124452095Y-139742895D01*
X124452095Y-139647657D01*
X124499714Y-139552419D01*
X124547333Y-139504800D01*
X124642571Y-139457180D01*
X124880666Y-139457180D01*
X125023523Y-139504800D01*
X125785428Y-139933371D02*
X125928285Y-139980990D01*
X125975904Y-140028609D01*
X126023523Y-140123847D01*
X126023523Y-140266704D01*
X125975904Y-140361942D01*
X125928285Y-140409561D01*
X125833047Y-140457180D01*
X125452095Y-140457180D01*
X125452095Y-139457180D01*
X125785428Y-139457180D01*
X125880666Y-139504800D01*
X125928285Y-139552419D01*
X125975904Y-139647657D01*
X125975904Y-139742895D01*
X125928285Y-139838133D01*
X125880666Y-139885752D01*
X125785428Y-139933371D01*
X125452095Y-139933371D01*
X106959495Y-134758180D02*
X106959495Y-135567704D01*
X107007114Y-135662942D01*
X107054733Y-135710561D01*
X107149971Y-135758180D01*
X107340447Y-135758180D01*
X107435685Y-135710561D01*
X107483304Y-135662942D01*
X107530923Y-135567704D01*
X107530923Y-134758180D01*
X107911876Y-134758180D02*
X108530923Y-134758180D01*
X108197590Y-135139133D01*
X108340447Y-135139133D01*
X108435685Y-135186752D01*
X108483304Y-135234371D01*
X108530923Y-135329609D01*
X108530923Y-135567704D01*
X108483304Y-135662942D01*
X108435685Y-135710561D01*
X108340447Y-135758180D01*
X108054733Y-135758180D01*
X107959495Y-135710561D01*
X107911876Y-135662942D01*
M02*
