G04 #@! TF.GenerationSoftware,KiCad,Pcbnew,(5.1.8)-1*
G04 #@! TF.CreationDate,2020-12-27T21:30:32-08:00*
G04 #@! TF.ProjectId,MCL65+,4d434c36-352b-42e6-9b69-6361645f7063,rev?*
G04 #@! TF.SameCoordinates,Original*
G04 #@! TF.FileFunction,Soldermask,Top*
G04 #@! TF.FilePolarity,Negative*
%FSLAX46Y46*%
G04 Gerber Fmt 4.6, Leading zero omitted, Abs format (unit mm)*
G04 Created by KiCad (PCBNEW (5.1.8)-1) date 2020-12-27 21:30:32*
%MOMM*%
%LPD*%
G01*
G04 APERTURE LIST*
%ADD10C,1.600000*%
%ADD11O,1.600000X1.600000*%
%ADD12R,1.600000X1.600000*%
G04 APERTURE END LIST*
D10*
X95119200Y-105562400D03*
X90119200Y-105562400D03*
D11*
X98425000Y-104673400D03*
X106045000Y-89433400D03*
X98425000Y-102133400D03*
X106045000Y-91973400D03*
X98425000Y-99593400D03*
X106045000Y-94513400D03*
X98425000Y-97053400D03*
X106045000Y-97053400D03*
X98425000Y-94513400D03*
X106045000Y-99593400D03*
X98425000Y-91973400D03*
X106045000Y-102133400D03*
X98425000Y-89433400D03*
D12*
X106045000Y-104673400D03*
D11*
X91846400Y-132435600D03*
X99466400Y-109575600D03*
X91846400Y-129895600D03*
X99466400Y-112115600D03*
X91846400Y-127355600D03*
X99466400Y-114655600D03*
X91846400Y-124815600D03*
X99466400Y-117195600D03*
X91846400Y-122275600D03*
X99466400Y-119735600D03*
X91846400Y-119735600D03*
X99466400Y-122275600D03*
X91846400Y-117195600D03*
X99466400Y-124815600D03*
X91846400Y-114655600D03*
X99466400Y-127355600D03*
X91846400Y-112115600D03*
X99466400Y-129895600D03*
X91846400Y-109575600D03*
D12*
X99466400Y-132435600D03*
D10*
X117094000Y-142544800D03*
X117094000Y-140004800D03*
X117094000Y-137464800D03*
X117094000Y-134924800D03*
X117094000Y-132384800D03*
X117094000Y-129844800D03*
X117094000Y-127304800D03*
X117094000Y-124764800D03*
X117094000Y-122224800D03*
X117094000Y-119684800D03*
X117094000Y-117144800D03*
X117094000Y-114604800D03*
X117094000Y-112064800D03*
X117094000Y-109524800D03*
D12*
X132334000Y-142544800D03*
D10*
X132334000Y-140004800D03*
X132334000Y-137464800D03*
X132334000Y-134924800D03*
X132334000Y-132384800D03*
X132334000Y-129844800D03*
X132334000Y-127304800D03*
X132334000Y-124764800D03*
X132334000Y-122224800D03*
X132334000Y-119684800D03*
X132334000Y-117144800D03*
X132334000Y-114604800D03*
X132334000Y-112064800D03*
X117094000Y-106984800D03*
X117094000Y-104444800D03*
X117094000Y-101904800D03*
X117094000Y-99364800D03*
X117094000Y-96824800D03*
X117094000Y-94284800D03*
X117094000Y-91744800D03*
X117094000Y-89204800D03*
X117094000Y-86664800D03*
X117094000Y-84124800D03*
X132334000Y-84124800D03*
X132334000Y-86664800D03*
X132334000Y-89204800D03*
X132334000Y-91744800D03*
X132334000Y-109524800D03*
X132334000Y-106984800D03*
X132334000Y-104444800D03*
X132334000Y-94284800D03*
X132334000Y-96824800D03*
X132334000Y-99364800D03*
X132334000Y-101904800D03*
D12*
X72009000Y-94284800D03*
D11*
X87249000Y-142544800D03*
X72009000Y-96824800D03*
X87249000Y-140004800D03*
X72009000Y-99364800D03*
X87249000Y-137464800D03*
X72009000Y-101904800D03*
X87249000Y-134924800D03*
X72009000Y-104444800D03*
X87249000Y-132384800D03*
X72009000Y-106984800D03*
X87249000Y-129844800D03*
X72009000Y-109524800D03*
X87249000Y-127304800D03*
X72009000Y-112064800D03*
X87249000Y-124764800D03*
X72009000Y-114604800D03*
X87249000Y-122224800D03*
X72009000Y-117144800D03*
X87249000Y-119684800D03*
X72009000Y-119684800D03*
X87249000Y-117144800D03*
X72009000Y-122224800D03*
X87249000Y-114604800D03*
X72009000Y-124764800D03*
X87249000Y-112064800D03*
X72009000Y-127304800D03*
X87249000Y-109524800D03*
X72009000Y-129844800D03*
X87249000Y-106984800D03*
X72009000Y-132384800D03*
X87249000Y-104444800D03*
X72009000Y-134924800D03*
X87249000Y-101904800D03*
X72009000Y-137464800D03*
X87249000Y-99364800D03*
X72009000Y-140004800D03*
X87249000Y-96824800D03*
X72009000Y-142544800D03*
X87249000Y-94284800D03*
D12*
X104165400Y-109550200D03*
D11*
X111785400Y-132410200D03*
X104165400Y-112090200D03*
X111785400Y-129870200D03*
X104165400Y-114630200D03*
X111785400Y-127330200D03*
X104165400Y-117170200D03*
X111785400Y-124790200D03*
X104165400Y-119710200D03*
X111785400Y-122250200D03*
X104165400Y-122250200D03*
X111785400Y-119710200D03*
X104165400Y-124790200D03*
X111785400Y-117170200D03*
X104165400Y-127330200D03*
X111785400Y-114630200D03*
X104165400Y-129870200D03*
X111785400Y-112090200D03*
X104165400Y-132410200D03*
X111785400Y-109550200D03*
M02*
