G04 #@! TF.GenerationSoftware,KiCad,Pcbnew,(5.1.8)-1*
G04 #@! TF.CreationDate,2022-03-12T16:36:43-08:00*
G04 #@! TF.ProjectId,MCLZ8_PCB,4d434c5a-385f-4504-9342-2e6b69636164,rev?*
G04 #@! TF.SameCoordinates,Original*
G04 #@! TF.FileFunction,Legend,Top*
G04 #@! TF.FilePolarity,Positive*
%FSLAX46Y46*%
G04 Gerber Fmt 4.6, Leading zero omitted, Abs format (unit mm)*
G04 Created by KiCad (PCBNEW (5.1.8)-1) date 2022-03-12 16:36:43*
%MOMM*%
%LPD*%
G01*
G04 APERTURE LIST*
%ADD10C,0.150000*%
%ADD11C,0.120000*%
%ADD12O,1.600000X1.600000*%
%ADD13R,1.600000X1.600000*%
%ADD14C,1.600000*%
G04 APERTURE END LIST*
D10*
X161942520Y-110864140D02*
X161942520Y-109864140D01*
X162275854Y-110578426D01*
X162609187Y-109864140D01*
X162609187Y-110864140D01*
X163085378Y-110864140D02*
X163085378Y-110197474D01*
X163085378Y-109864140D02*
X163037759Y-109911760D01*
X163085378Y-109959379D01*
X163132997Y-109911760D01*
X163085378Y-109864140D01*
X163085378Y-109959379D01*
X163990140Y-110816521D02*
X163894901Y-110864140D01*
X163704425Y-110864140D01*
X163609187Y-110816521D01*
X163561568Y-110768902D01*
X163513949Y-110673664D01*
X163513949Y-110387950D01*
X163561568Y-110292712D01*
X163609187Y-110245093D01*
X163704425Y-110197474D01*
X163894901Y-110197474D01*
X163990140Y-110245093D01*
X164418711Y-110864140D02*
X164418711Y-110197474D01*
X164418711Y-110387950D02*
X164466330Y-110292712D01*
X164513949Y-110245093D01*
X164609187Y-110197474D01*
X164704425Y-110197474D01*
X165180616Y-110864140D02*
X165085378Y-110816521D01*
X165037759Y-110768902D01*
X164990140Y-110673664D01*
X164990140Y-110387950D01*
X165037759Y-110292712D01*
X165085378Y-110245093D01*
X165180616Y-110197474D01*
X165323473Y-110197474D01*
X165418711Y-110245093D01*
X165466330Y-110292712D01*
X165513949Y-110387950D01*
X165513949Y-110673664D01*
X165466330Y-110768902D01*
X165418711Y-110816521D01*
X165323473Y-110864140D01*
X165180616Y-110864140D01*
X166513949Y-110768902D02*
X166466330Y-110816521D01*
X166323473Y-110864140D01*
X166228235Y-110864140D01*
X166085378Y-110816521D01*
X165990140Y-110721283D01*
X165942520Y-110626045D01*
X165894901Y-110435569D01*
X165894901Y-110292712D01*
X165942520Y-110102236D01*
X165990140Y-110006998D01*
X166085378Y-109911760D01*
X166228235Y-109864140D01*
X166323473Y-109864140D01*
X166466330Y-109911760D01*
X166513949Y-109959379D01*
X167085378Y-110864140D02*
X166990140Y-110816521D01*
X166942520Y-110768902D01*
X166894901Y-110673664D01*
X166894901Y-110387950D01*
X166942520Y-110292712D01*
X166990140Y-110245093D01*
X167085378Y-110197474D01*
X167228235Y-110197474D01*
X167323473Y-110245093D01*
X167371092Y-110292712D01*
X167418711Y-110387950D01*
X167418711Y-110673664D01*
X167371092Y-110768902D01*
X167323473Y-110816521D01*
X167228235Y-110864140D01*
X167085378Y-110864140D01*
X167847282Y-110864140D02*
X167847282Y-110197474D01*
X167847282Y-110387950D02*
X167894901Y-110292712D01*
X167942520Y-110245093D01*
X168037759Y-110197474D01*
X168132997Y-110197474D01*
X168847282Y-110816521D02*
X168752044Y-110864140D01*
X168561568Y-110864140D01*
X168466330Y-110816521D01*
X168418711Y-110721283D01*
X168418711Y-110340331D01*
X168466330Y-110245093D01*
X168561568Y-110197474D01*
X168752044Y-110197474D01*
X168847282Y-110245093D01*
X168894901Y-110340331D01*
X168894901Y-110435569D01*
X168418711Y-110530807D01*
X170561568Y-110864140D02*
X170085378Y-110864140D01*
X170085378Y-109864140D01*
X171323473Y-110864140D02*
X171323473Y-110340331D01*
X171275854Y-110245093D01*
X171180616Y-110197474D01*
X170990140Y-110197474D01*
X170894901Y-110245093D01*
X171323473Y-110816521D02*
X171228235Y-110864140D01*
X170990140Y-110864140D01*
X170894901Y-110816521D01*
X170847282Y-110721283D01*
X170847282Y-110626045D01*
X170894901Y-110530807D01*
X170990140Y-110483188D01*
X171228235Y-110483188D01*
X171323473Y-110435569D01*
X171799663Y-110864140D02*
X171799663Y-109864140D01*
X171799663Y-110245093D02*
X171894901Y-110197474D01*
X172085378Y-110197474D01*
X172180616Y-110245093D01*
X172228235Y-110292712D01*
X172275854Y-110387950D01*
X172275854Y-110673664D01*
X172228235Y-110768902D01*
X172180616Y-110816521D01*
X172085378Y-110864140D01*
X171894901Y-110864140D01*
X171799663Y-110816521D01*
X172656806Y-110816521D02*
X172752044Y-110864140D01*
X172942520Y-110864140D01*
X173037759Y-110816521D01*
X173085378Y-110721283D01*
X173085378Y-110673664D01*
X173037759Y-110578426D01*
X172942520Y-110530807D01*
X172799663Y-110530807D01*
X172704425Y-110483188D01*
X172656806Y-110387950D01*
X172656806Y-110340331D01*
X172704425Y-110245093D01*
X172799663Y-110197474D01*
X172942520Y-110197474D01*
X173037759Y-110245093D01*
X165299663Y-112514140D02*
X165299663Y-111514140D01*
X165632997Y-112228426D01*
X165966330Y-111514140D01*
X165966330Y-112514140D01*
X167013949Y-112418902D02*
X166966330Y-112466521D01*
X166823473Y-112514140D01*
X166728235Y-112514140D01*
X166585378Y-112466521D01*
X166490140Y-112371283D01*
X166442520Y-112276045D01*
X166394901Y-112085569D01*
X166394901Y-111942712D01*
X166442520Y-111752236D01*
X166490140Y-111656998D01*
X166585378Y-111561760D01*
X166728235Y-111514140D01*
X166823473Y-111514140D01*
X166966330Y-111561760D01*
X167013949Y-111609379D01*
X167918711Y-112514140D02*
X167442520Y-112514140D01*
X167442520Y-111514140D01*
X168156806Y-111514140D02*
X168823473Y-111514140D01*
X168156806Y-112514140D01*
X168823473Y-112514140D01*
X169347282Y-111942712D02*
X169252044Y-111895093D01*
X169204425Y-111847474D01*
X169156806Y-111752236D01*
X169156806Y-111704617D01*
X169204425Y-111609379D01*
X169252044Y-111561760D01*
X169347282Y-111514140D01*
X169537759Y-111514140D01*
X169632997Y-111561760D01*
X169680616Y-111609379D01*
X169728235Y-111704617D01*
X169728235Y-111752236D01*
X169680616Y-111847474D01*
X169632997Y-111895093D01*
X169537759Y-111942712D01*
X169347282Y-111942712D01*
X169252044Y-111990331D01*
X169204425Y-112037950D01*
X169156806Y-112133188D01*
X169156806Y-112323664D01*
X169204425Y-112418902D01*
X169252044Y-112466521D01*
X169347282Y-112514140D01*
X169537759Y-112514140D01*
X169632997Y-112466521D01*
X169680616Y-112418902D01*
X169728235Y-112323664D01*
X169728235Y-112133188D01*
X169680616Y-112037950D01*
X169632997Y-111990331D01*
X169537759Y-111942712D01*
D11*
X165832280Y-56599780D02*
X160372280Y-56599780D01*
X160372280Y-56599780D02*
X160372280Y-107519780D01*
X160372280Y-107519780D02*
X173292280Y-107519780D01*
X173292280Y-107519780D02*
X173292280Y-56599780D01*
X173292280Y-56599780D02*
X167832280Y-56599780D01*
X167832280Y-56599780D02*
G75*
G02*
X165832280Y-56599780I-1000000J0D01*
G01*
X185729880Y-70991280D02*
X183529880Y-70991280D01*
X185729880Y-70991280D02*
X187929880Y-70991280D01*
X185729880Y-77761280D02*
X183529880Y-77761280D01*
X185729880Y-77761280D02*
X189329880Y-77761280D01*
X185729880Y-91410340D02*
X183529880Y-91410340D01*
X185729880Y-91410340D02*
X187929880Y-91410340D01*
X185729880Y-98180340D02*
X183529880Y-98180340D01*
X185729880Y-98180340D02*
X189329880Y-98180340D01*
X166720520Y-103181600D02*
X168920520Y-103181600D01*
X166720520Y-103181600D02*
X164520520Y-103181600D01*
X166720520Y-96411600D02*
X168920520Y-96411600D01*
X166720520Y-96411600D02*
X163120520Y-96411600D01*
X166667180Y-86305840D02*
X168867180Y-86305840D01*
X166667180Y-86305840D02*
X164467180Y-86305840D01*
X166667180Y-79535840D02*
X168867180Y-79535840D01*
X166667180Y-79535840D02*
X163067180Y-79535840D01*
D10*
X194800220Y-114914680D02*
X177020220Y-114914680D01*
X194800220Y-53954680D02*
X194800220Y-114914680D01*
X177020220Y-53954680D02*
X194800220Y-53954680D01*
X177020220Y-114914680D02*
X177020220Y-53954680D01*
X189720220Y-109834680D02*
X189720220Y-114914680D01*
X182100220Y-109834680D02*
X182100220Y-114914680D01*
X189720220Y-109834680D02*
X182100220Y-109834680D01*
X182100220Y-116184680D02*
X182100220Y-114914680D01*
X189720220Y-116184680D02*
X182100220Y-116184680D01*
X189720220Y-114914680D02*
X189720220Y-116184680D01*
X179560220Y-53954680D02*
X179560220Y-66654680D01*
X179560220Y-66654680D02*
X192260220Y-66654680D01*
X192260220Y-66654680D02*
X192260220Y-53954680D01*
X180830220Y-53954680D02*
X180830220Y-55224680D01*
X180830220Y-55224680D02*
X190990220Y-55224680D01*
X190990220Y-55224680D02*
X190990220Y-53954680D01*
X184640220Y-70464680D02*
X187180220Y-70464680D01*
X187180220Y-70464680D02*
X187180220Y-74274680D01*
X187180220Y-74274680D02*
X184640220Y-74274680D01*
X184640220Y-74274680D02*
X184640220Y-70464680D01*
X192260220Y-92054680D02*
X192260220Y-79354680D01*
X192260220Y-79354680D02*
X179560220Y-79354680D01*
X179560220Y-79354680D02*
X179560220Y-92054680D01*
X179560220Y-92054680D02*
X192260220Y-92054680D01*
X186808246Y-72369680D02*
G75*
G03*
X186808246Y-72369680I-898026J0D01*
G01*
X166070375Y-55052160D02*
X166070375Y-55861684D01*
X166117994Y-55956922D01*
X166165613Y-56004541D01*
X166260851Y-56052160D01*
X166451327Y-56052160D01*
X166546565Y-56004541D01*
X166594184Y-55956922D01*
X166641803Y-55861684D01*
X166641803Y-55052160D01*
X167546565Y-55052160D02*
X167356089Y-55052160D01*
X167260851Y-55099780D01*
X167213232Y-55147399D01*
X167117994Y-55290256D01*
X167070375Y-55480732D01*
X167070375Y-55861684D01*
X167117994Y-55956922D01*
X167165613Y-56004541D01*
X167260851Y-56052160D01*
X167451327Y-56052160D01*
X167546565Y-56004541D01*
X167594184Y-55956922D01*
X167641803Y-55861684D01*
X167641803Y-55623589D01*
X167594184Y-55528351D01*
X167546565Y-55480732D01*
X167451327Y-55433113D01*
X167260851Y-55433113D01*
X167165613Y-55480732D01*
X167117994Y-55528351D01*
X167070375Y-55623589D01*
X184967975Y-78028660D02*
X184967975Y-78838184D01*
X185015594Y-78933422D01*
X185063213Y-78981041D01*
X185158451Y-79028660D01*
X185348927Y-79028660D01*
X185444165Y-78981041D01*
X185491784Y-78933422D01*
X185539403Y-78838184D01*
X185539403Y-78028660D01*
X185920356Y-78028660D02*
X186587022Y-78028660D01*
X186158451Y-79028660D01*
X184942575Y-90074500D02*
X184942575Y-90884024D01*
X184990194Y-90979262D01*
X185037813Y-91026881D01*
X185133051Y-91074500D01*
X185323527Y-91074500D01*
X185418765Y-91026881D01*
X185466384Y-90979262D01*
X185514003Y-90884024D01*
X185514003Y-90074500D01*
X186466384Y-90074500D02*
X185990194Y-90074500D01*
X185942575Y-90550691D01*
X185990194Y-90503072D01*
X186085432Y-90455453D01*
X186323527Y-90455453D01*
X186418765Y-90503072D01*
X186466384Y-90550691D01*
X186514003Y-90645929D01*
X186514003Y-90884024D01*
X186466384Y-90979262D01*
X186418765Y-91026881D01*
X186323527Y-91074500D01*
X186085432Y-91074500D01*
X185990194Y-91026881D01*
X185942575Y-90979262D01*
X165958615Y-95048980D02*
X165958615Y-95858504D01*
X166006234Y-95953742D01*
X166053853Y-96001361D01*
X166149091Y-96048980D01*
X166339567Y-96048980D01*
X166434805Y-96001361D01*
X166482424Y-95953742D01*
X166530043Y-95858504D01*
X166530043Y-95048980D01*
X167434805Y-95382314D02*
X167434805Y-96048980D01*
X167196710Y-95001361D02*
X166958615Y-95715647D01*
X167577662Y-95715647D01*
X165905275Y-78173220D02*
X165905275Y-78982744D01*
X165952894Y-79077982D01*
X166000513Y-79125601D01*
X166095751Y-79173220D01*
X166286227Y-79173220D01*
X166381465Y-79125601D01*
X166429084Y-79077982D01*
X166476703Y-78982744D01*
X166476703Y-78173220D01*
X166857656Y-78173220D02*
X167476703Y-78173220D01*
X167143370Y-78554173D01*
X167286227Y-78554173D01*
X167381465Y-78601792D01*
X167429084Y-78649411D01*
X167476703Y-78744649D01*
X167476703Y-78982744D01*
X167429084Y-79077982D01*
X167381465Y-79125601D01*
X167286227Y-79173220D01*
X167000513Y-79173220D01*
X166905275Y-79125601D01*
X166857656Y-79077982D01*
X185399775Y-56122320D02*
X185399775Y-56931844D01*
X185447394Y-57027082D01*
X185495013Y-57074701D01*
X185590251Y-57122320D01*
X185780727Y-57122320D01*
X185875965Y-57074701D01*
X185923584Y-57027082D01*
X185971203Y-56931844D01*
X185971203Y-56122320D01*
X186971203Y-57122320D02*
X186399775Y-57122320D01*
X186685489Y-57122320D02*
X186685489Y-56122320D01*
X186590251Y-56265178D01*
X186495013Y-56360416D01*
X186399775Y-56408035D01*
X184648315Y-110557060D02*
X184648315Y-111366584D01*
X184695934Y-111461822D01*
X184743553Y-111509441D01*
X184838791Y-111557060D01*
X185029267Y-111557060D01*
X185124505Y-111509441D01*
X185172124Y-111461822D01*
X185219743Y-111366584D01*
X185219743Y-110557060D01*
X185648315Y-111509441D02*
X185791172Y-111557060D01*
X186029267Y-111557060D01*
X186124505Y-111509441D01*
X186172124Y-111461822D01*
X186219743Y-111366584D01*
X186219743Y-111271346D01*
X186172124Y-111176108D01*
X186124505Y-111128489D01*
X186029267Y-111080870D01*
X185838791Y-111033251D01*
X185743553Y-110985632D01*
X185695934Y-110938013D01*
X185648315Y-110842775D01*
X185648315Y-110747537D01*
X185695934Y-110652299D01*
X185743553Y-110604680D01*
X185838791Y-110557060D01*
X186076886Y-110557060D01*
X186219743Y-110604680D01*
X186981648Y-111033251D02*
X187124505Y-111080870D01*
X187172124Y-111128489D01*
X187219743Y-111223727D01*
X187219743Y-111366584D01*
X187172124Y-111461822D01*
X187124505Y-111509441D01*
X187029267Y-111557060D01*
X186648315Y-111557060D01*
X186648315Y-110557060D01*
X186981648Y-110557060D01*
X187076886Y-110604680D01*
X187124505Y-110652299D01*
X187172124Y-110747537D01*
X187172124Y-110842775D01*
X187124505Y-110938013D01*
X187076886Y-110985632D01*
X186981648Y-111033251D01*
X186648315Y-111033251D01*
X182249939Y-106411780D02*
X182821367Y-106411780D01*
X182535653Y-107411780D02*
X182535653Y-106411780D01*
X183535653Y-107364161D02*
X183440415Y-107411780D01*
X183249939Y-107411780D01*
X183154700Y-107364161D01*
X183107081Y-107268923D01*
X183107081Y-106887971D01*
X183154700Y-106792733D01*
X183249939Y-106745114D01*
X183440415Y-106745114D01*
X183535653Y-106792733D01*
X183583272Y-106887971D01*
X183583272Y-106983209D01*
X183107081Y-107078447D01*
X184392796Y-107364161D02*
X184297558Y-107411780D01*
X184107081Y-107411780D01*
X184011843Y-107364161D01*
X183964224Y-107268923D01*
X183964224Y-106887971D01*
X184011843Y-106792733D01*
X184107081Y-106745114D01*
X184297558Y-106745114D01*
X184392796Y-106792733D01*
X184440415Y-106887971D01*
X184440415Y-106983209D01*
X183964224Y-107078447D01*
X184868986Y-106745114D02*
X184868986Y-107411780D01*
X184868986Y-106840352D02*
X184916605Y-106792733D01*
X185011843Y-106745114D01*
X185154700Y-106745114D01*
X185249939Y-106792733D01*
X185297558Y-106887971D01*
X185297558Y-107411780D01*
X185726129Y-107364161D02*
X185821367Y-107411780D01*
X186011843Y-107411780D01*
X186107081Y-107364161D01*
X186154700Y-107268923D01*
X186154700Y-107221304D01*
X186107081Y-107126066D01*
X186011843Y-107078447D01*
X185868986Y-107078447D01*
X185773748Y-107030828D01*
X185726129Y-106935590D01*
X185726129Y-106887971D01*
X185773748Y-106792733D01*
X185868986Y-106745114D01*
X186011843Y-106745114D01*
X186107081Y-106792733D01*
X186488034Y-106745114D02*
X186726129Y-107411780D01*
X186964224Y-106745114D02*
X186726129Y-107411780D01*
X186630891Y-107649876D01*
X186583272Y-107697495D01*
X186488034Y-107745114D01*
X188535653Y-106745114D02*
X188535653Y-107411780D01*
X188297558Y-106364161D02*
X188059462Y-107078447D01*
X188678510Y-107078447D01*
X189059462Y-107316542D02*
X189107081Y-107364161D01*
X189059462Y-107411780D01*
X189011843Y-107364161D01*
X189059462Y-107316542D01*
X189059462Y-107411780D01*
X190059462Y-107411780D02*
X189488034Y-107411780D01*
X189773748Y-107411780D02*
X189773748Y-106411780D01*
X189678510Y-106554638D01*
X189583272Y-106649876D01*
X189488034Y-106697495D01*
%LPC*%
D12*
X174452280Y-57929780D03*
X159212280Y-106189780D03*
X174452280Y-60469780D03*
X159212280Y-103649780D03*
X174452280Y-63009780D03*
X159212280Y-101109780D03*
X174452280Y-65549780D03*
X159212280Y-98569780D03*
X174452280Y-68089780D03*
X159212280Y-96029780D03*
X174452280Y-70629780D03*
X159212280Y-93489780D03*
X174452280Y-73169780D03*
X159212280Y-90949780D03*
X174452280Y-75709780D03*
X159212280Y-88409780D03*
X174452280Y-78249780D03*
X159212280Y-85869780D03*
X174452280Y-80789780D03*
X159212280Y-83329780D03*
X174452280Y-83329780D03*
X159212280Y-80789780D03*
X174452280Y-85869780D03*
X159212280Y-78249780D03*
X174452280Y-88409780D03*
X159212280Y-75709780D03*
X174452280Y-90949780D03*
X159212280Y-73169780D03*
X174452280Y-93489780D03*
X159212280Y-70629780D03*
X174452280Y-96029780D03*
X159212280Y-68089780D03*
X174452280Y-98569780D03*
X159212280Y-65549780D03*
X174452280Y-101109780D03*
X159212280Y-63009780D03*
X174452280Y-103649780D03*
X159212280Y-60469780D03*
X174452280Y-106189780D03*
D13*
X159212280Y-57929780D03*
G36*
G01*
X183604880Y-77201280D02*
X183604880Y-77401280D01*
G75*
G02*
X183504880Y-77501280I-100000J0D01*
G01*
X182229880Y-77501280D01*
G75*
G02*
X182129880Y-77401280I0J100000D01*
G01*
X182129880Y-77201280D01*
G75*
G02*
X182229880Y-77101280I100000J0D01*
G01*
X183504880Y-77101280D01*
G75*
G02*
X183604880Y-77201280I0J-100000D01*
G01*
G37*
G36*
G01*
X183604880Y-76551280D02*
X183604880Y-76751280D01*
G75*
G02*
X183504880Y-76851280I-100000J0D01*
G01*
X182229880Y-76851280D01*
G75*
G02*
X182129880Y-76751280I0J100000D01*
G01*
X182129880Y-76551280D01*
G75*
G02*
X182229880Y-76451280I100000J0D01*
G01*
X183504880Y-76451280D01*
G75*
G02*
X183604880Y-76551280I0J-100000D01*
G01*
G37*
G36*
G01*
X183604880Y-75901280D02*
X183604880Y-76101280D01*
G75*
G02*
X183504880Y-76201280I-100000J0D01*
G01*
X182229880Y-76201280D01*
G75*
G02*
X182129880Y-76101280I0J100000D01*
G01*
X182129880Y-75901280D01*
G75*
G02*
X182229880Y-75801280I100000J0D01*
G01*
X183504880Y-75801280D01*
G75*
G02*
X183604880Y-75901280I0J-100000D01*
G01*
G37*
G36*
G01*
X183604880Y-75251280D02*
X183604880Y-75451280D01*
G75*
G02*
X183504880Y-75551280I-100000J0D01*
G01*
X182229880Y-75551280D01*
G75*
G02*
X182129880Y-75451280I0J100000D01*
G01*
X182129880Y-75251280D01*
G75*
G02*
X182229880Y-75151280I100000J0D01*
G01*
X183504880Y-75151280D01*
G75*
G02*
X183604880Y-75251280I0J-100000D01*
G01*
G37*
G36*
G01*
X183604880Y-74601280D02*
X183604880Y-74801280D01*
G75*
G02*
X183504880Y-74901280I-100000J0D01*
G01*
X182229880Y-74901280D01*
G75*
G02*
X182129880Y-74801280I0J100000D01*
G01*
X182129880Y-74601280D01*
G75*
G02*
X182229880Y-74501280I100000J0D01*
G01*
X183504880Y-74501280D01*
G75*
G02*
X183604880Y-74601280I0J-100000D01*
G01*
G37*
G36*
G01*
X183604880Y-73951280D02*
X183604880Y-74151280D01*
G75*
G02*
X183504880Y-74251280I-100000J0D01*
G01*
X182229880Y-74251280D01*
G75*
G02*
X182129880Y-74151280I0J100000D01*
G01*
X182129880Y-73951280D01*
G75*
G02*
X182229880Y-73851280I100000J0D01*
G01*
X183504880Y-73851280D01*
G75*
G02*
X183604880Y-73951280I0J-100000D01*
G01*
G37*
G36*
G01*
X183604880Y-73301280D02*
X183604880Y-73501280D01*
G75*
G02*
X183504880Y-73601280I-100000J0D01*
G01*
X182229880Y-73601280D01*
G75*
G02*
X182129880Y-73501280I0J100000D01*
G01*
X182129880Y-73301280D01*
G75*
G02*
X182229880Y-73201280I100000J0D01*
G01*
X183504880Y-73201280D01*
G75*
G02*
X183604880Y-73301280I0J-100000D01*
G01*
G37*
G36*
G01*
X183604880Y-72651280D02*
X183604880Y-72851280D01*
G75*
G02*
X183504880Y-72951280I-100000J0D01*
G01*
X182229880Y-72951280D01*
G75*
G02*
X182129880Y-72851280I0J100000D01*
G01*
X182129880Y-72651280D01*
G75*
G02*
X182229880Y-72551280I100000J0D01*
G01*
X183504880Y-72551280D01*
G75*
G02*
X183604880Y-72651280I0J-100000D01*
G01*
G37*
G36*
G01*
X183604880Y-72001280D02*
X183604880Y-72201280D01*
G75*
G02*
X183504880Y-72301280I-100000J0D01*
G01*
X182229880Y-72301280D01*
G75*
G02*
X182129880Y-72201280I0J100000D01*
G01*
X182129880Y-72001280D01*
G75*
G02*
X182229880Y-71901280I100000J0D01*
G01*
X183504880Y-71901280D01*
G75*
G02*
X183604880Y-72001280I0J-100000D01*
G01*
G37*
G36*
G01*
X183604880Y-71351280D02*
X183604880Y-71551280D01*
G75*
G02*
X183504880Y-71651280I-100000J0D01*
G01*
X182229880Y-71651280D01*
G75*
G02*
X182129880Y-71551280I0J100000D01*
G01*
X182129880Y-71351280D01*
G75*
G02*
X182229880Y-71251280I100000J0D01*
G01*
X183504880Y-71251280D01*
G75*
G02*
X183604880Y-71351280I0J-100000D01*
G01*
G37*
G36*
G01*
X189329880Y-71351280D02*
X189329880Y-71551280D01*
G75*
G02*
X189229880Y-71651280I-100000J0D01*
G01*
X187954880Y-71651280D01*
G75*
G02*
X187854880Y-71551280I0J100000D01*
G01*
X187854880Y-71351280D01*
G75*
G02*
X187954880Y-71251280I100000J0D01*
G01*
X189229880Y-71251280D01*
G75*
G02*
X189329880Y-71351280I0J-100000D01*
G01*
G37*
G36*
G01*
X189329880Y-72001280D02*
X189329880Y-72201280D01*
G75*
G02*
X189229880Y-72301280I-100000J0D01*
G01*
X187954880Y-72301280D01*
G75*
G02*
X187854880Y-72201280I0J100000D01*
G01*
X187854880Y-72001280D01*
G75*
G02*
X187954880Y-71901280I100000J0D01*
G01*
X189229880Y-71901280D01*
G75*
G02*
X189329880Y-72001280I0J-100000D01*
G01*
G37*
G36*
G01*
X189329880Y-72651280D02*
X189329880Y-72851280D01*
G75*
G02*
X189229880Y-72951280I-100000J0D01*
G01*
X187954880Y-72951280D01*
G75*
G02*
X187854880Y-72851280I0J100000D01*
G01*
X187854880Y-72651280D01*
G75*
G02*
X187954880Y-72551280I100000J0D01*
G01*
X189229880Y-72551280D01*
G75*
G02*
X189329880Y-72651280I0J-100000D01*
G01*
G37*
G36*
G01*
X189329880Y-73301280D02*
X189329880Y-73501280D01*
G75*
G02*
X189229880Y-73601280I-100000J0D01*
G01*
X187954880Y-73601280D01*
G75*
G02*
X187854880Y-73501280I0J100000D01*
G01*
X187854880Y-73301280D01*
G75*
G02*
X187954880Y-73201280I100000J0D01*
G01*
X189229880Y-73201280D01*
G75*
G02*
X189329880Y-73301280I0J-100000D01*
G01*
G37*
G36*
G01*
X189329880Y-73951280D02*
X189329880Y-74151280D01*
G75*
G02*
X189229880Y-74251280I-100000J0D01*
G01*
X187954880Y-74251280D01*
G75*
G02*
X187854880Y-74151280I0J100000D01*
G01*
X187854880Y-73951280D01*
G75*
G02*
X187954880Y-73851280I100000J0D01*
G01*
X189229880Y-73851280D01*
G75*
G02*
X189329880Y-73951280I0J-100000D01*
G01*
G37*
G36*
G01*
X189329880Y-74601280D02*
X189329880Y-74801280D01*
G75*
G02*
X189229880Y-74901280I-100000J0D01*
G01*
X187954880Y-74901280D01*
G75*
G02*
X187854880Y-74801280I0J100000D01*
G01*
X187854880Y-74601280D01*
G75*
G02*
X187954880Y-74501280I100000J0D01*
G01*
X189229880Y-74501280D01*
G75*
G02*
X189329880Y-74601280I0J-100000D01*
G01*
G37*
G36*
G01*
X189329880Y-75251280D02*
X189329880Y-75451280D01*
G75*
G02*
X189229880Y-75551280I-100000J0D01*
G01*
X187954880Y-75551280D01*
G75*
G02*
X187854880Y-75451280I0J100000D01*
G01*
X187854880Y-75251280D01*
G75*
G02*
X187954880Y-75151280I100000J0D01*
G01*
X189229880Y-75151280D01*
G75*
G02*
X189329880Y-75251280I0J-100000D01*
G01*
G37*
G36*
G01*
X189329880Y-75901280D02*
X189329880Y-76101280D01*
G75*
G02*
X189229880Y-76201280I-100000J0D01*
G01*
X187954880Y-76201280D01*
G75*
G02*
X187854880Y-76101280I0J100000D01*
G01*
X187854880Y-75901280D01*
G75*
G02*
X187954880Y-75801280I100000J0D01*
G01*
X189229880Y-75801280D01*
G75*
G02*
X189329880Y-75901280I0J-100000D01*
G01*
G37*
G36*
G01*
X189329880Y-76551280D02*
X189329880Y-76751280D01*
G75*
G02*
X189229880Y-76851280I-100000J0D01*
G01*
X187954880Y-76851280D01*
G75*
G02*
X187854880Y-76751280I0J100000D01*
G01*
X187854880Y-76551280D01*
G75*
G02*
X187954880Y-76451280I100000J0D01*
G01*
X189229880Y-76451280D01*
G75*
G02*
X189329880Y-76551280I0J-100000D01*
G01*
G37*
G36*
G01*
X189329880Y-77201280D02*
X189329880Y-77401280D01*
G75*
G02*
X189229880Y-77501280I-100000J0D01*
G01*
X187954880Y-77501280D01*
G75*
G02*
X187854880Y-77401280I0J100000D01*
G01*
X187854880Y-77201280D01*
G75*
G02*
X187954880Y-77101280I100000J0D01*
G01*
X189229880Y-77101280D01*
G75*
G02*
X189329880Y-77201280I0J-100000D01*
G01*
G37*
G36*
G01*
X183604880Y-97620340D02*
X183604880Y-97820340D01*
G75*
G02*
X183504880Y-97920340I-100000J0D01*
G01*
X182229880Y-97920340D01*
G75*
G02*
X182129880Y-97820340I0J100000D01*
G01*
X182129880Y-97620340D01*
G75*
G02*
X182229880Y-97520340I100000J0D01*
G01*
X183504880Y-97520340D01*
G75*
G02*
X183604880Y-97620340I0J-100000D01*
G01*
G37*
G36*
G01*
X183604880Y-96970340D02*
X183604880Y-97170340D01*
G75*
G02*
X183504880Y-97270340I-100000J0D01*
G01*
X182229880Y-97270340D01*
G75*
G02*
X182129880Y-97170340I0J100000D01*
G01*
X182129880Y-96970340D01*
G75*
G02*
X182229880Y-96870340I100000J0D01*
G01*
X183504880Y-96870340D01*
G75*
G02*
X183604880Y-96970340I0J-100000D01*
G01*
G37*
G36*
G01*
X183604880Y-96320340D02*
X183604880Y-96520340D01*
G75*
G02*
X183504880Y-96620340I-100000J0D01*
G01*
X182229880Y-96620340D01*
G75*
G02*
X182129880Y-96520340I0J100000D01*
G01*
X182129880Y-96320340D01*
G75*
G02*
X182229880Y-96220340I100000J0D01*
G01*
X183504880Y-96220340D01*
G75*
G02*
X183604880Y-96320340I0J-100000D01*
G01*
G37*
G36*
G01*
X183604880Y-95670340D02*
X183604880Y-95870340D01*
G75*
G02*
X183504880Y-95970340I-100000J0D01*
G01*
X182229880Y-95970340D01*
G75*
G02*
X182129880Y-95870340I0J100000D01*
G01*
X182129880Y-95670340D01*
G75*
G02*
X182229880Y-95570340I100000J0D01*
G01*
X183504880Y-95570340D01*
G75*
G02*
X183604880Y-95670340I0J-100000D01*
G01*
G37*
G36*
G01*
X183604880Y-95020340D02*
X183604880Y-95220340D01*
G75*
G02*
X183504880Y-95320340I-100000J0D01*
G01*
X182229880Y-95320340D01*
G75*
G02*
X182129880Y-95220340I0J100000D01*
G01*
X182129880Y-95020340D01*
G75*
G02*
X182229880Y-94920340I100000J0D01*
G01*
X183504880Y-94920340D01*
G75*
G02*
X183604880Y-95020340I0J-100000D01*
G01*
G37*
G36*
G01*
X183604880Y-94370340D02*
X183604880Y-94570340D01*
G75*
G02*
X183504880Y-94670340I-100000J0D01*
G01*
X182229880Y-94670340D01*
G75*
G02*
X182129880Y-94570340I0J100000D01*
G01*
X182129880Y-94370340D01*
G75*
G02*
X182229880Y-94270340I100000J0D01*
G01*
X183504880Y-94270340D01*
G75*
G02*
X183604880Y-94370340I0J-100000D01*
G01*
G37*
G36*
G01*
X183604880Y-93720340D02*
X183604880Y-93920340D01*
G75*
G02*
X183504880Y-94020340I-100000J0D01*
G01*
X182229880Y-94020340D01*
G75*
G02*
X182129880Y-93920340I0J100000D01*
G01*
X182129880Y-93720340D01*
G75*
G02*
X182229880Y-93620340I100000J0D01*
G01*
X183504880Y-93620340D01*
G75*
G02*
X183604880Y-93720340I0J-100000D01*
G01*
G37*
G36*
G01*
X183604880Y-93070340D02*
X183604880Y-93270340D01*
G75*
G02*
X183504880Y-93370340I-100000J0D01*
G01*
X182229880Y-93370340D01*
G75*
G02*
X182129880Y-93270340I0J100000D01*
G01*
X182129880Y-93070340D01*
G75*
G02*
X182229880Y-92970340I100000J0D01*
G01*
X183504880Y-92970340D01*
G75*
G02*
X183604880Y-93070340I0J-100000D01*
G01*
G37*
G36*
G01*
X183604880Y-92420340D02*
X183604880Y-92620340D01*
G75*
G02*
X183504880Y-92720340I-100000J0D01*
G01*
X182229880Y-92720340D01*
G75*
G02*
X182129880Y-92620340I0J100000D01*
G01*
X182129880Y-92420340D01*
G75*
G02*
X182229880Y-92320340I100000J0D01*
G01*
X183504880Y-92320340D01*
G75*
G02*
X183604880Y-92420340I0J-100000D01*
G01*
G37*
G36*
G01*
X183604880Y-91770340D02*
X183604880Y-91970340D01*
G75*
G02*
X183504880Y-92070340I-100000J0D01*
G01*
X182229880Y-92070340D01*
G75*
G02*
X182129880Y-91970340I0J100000D01*
G01*
X182129880Y-91770340D01*
G75*
G02*
X182229880Y-91670340I100000J0D01*
G01*
X183504880Y-91670340D01*
G75*
G02*
X183604880Y-91770340I0J-100000D01*
G01*
G37*
G36*
G01*
X189329880Y-91770340D02*
X189329880Y-91970340D01*
G75*
G02*
X189229880Y-92070340I-100000J0D01*
G01*
X187954880Y-92070340D01*
G75*
G02*
X187854880Y-91970340I0J100000D01*
G01*
X187854880Y-91770340D01*
G75*
G02*
X187954880Y-91670340I100000J0D01*
G01*
X189229880Y-91670340D01*
G75*
G02*
X189329880Y-91770340I0J-100000D01*
G01*
G37*
G36*
G01*
X189329880Y-92420340D02*
X189329880Y-92620340D01*
G75*
G02*
X189229880Y-92720340I-100000J0D01*
G01*
X187954880Y-92720340D01*
G75*
G02*
X187854880Y-92620340I0J100000D01*
G01*
X187854880Y-92420340D01*
G75*
G02*
X187954880Y-92320340I100000J0D01*
G01*
X189229880Y-92320340D01*
G75*
G02*
X189329880Y-92420340I0J-100000D01*
G01*
G37*
G36*
G01*
X189329880Y-93070340D02*
X189329880Y-93270340D01*
G75*
G02*
X189229880Y-93370340I-100000J0D01*
G01*
X187954880Y-93370340D01*
G75*
G02*
X187854880Y-93270340I0J100000D01*
G01*
X187854880Y-93070340D01*
G75*
G02*
X187954880Y-92970340I100000J0D01*
G01*
X189229880Y-92970340D01*
G75*
G02*
X189329880Y-93070340I0J-100000D01*
G01*
G37*
G36*
G01*
X189329880Y-93720340D02*
X189329880Y-93920340D01*
G75*
G02*
X189229880Y-94020340I-100000J0D01*
G01*
X187954880Y-94020340D01*
G75*
G02*
X187854880Y-93920340I0J100000D01*
G01*
X187854880Y-93720340D01*
G75*
G02*
X187954880Y-93620340I100000J0D01*
G01*
X189229880Y-93620340D01*
G75*
G02*
X189329880Y-93720340I0J-100000D01*
G01*
G37*
G36*
G01*
X189329880Y-94370340D02*
X189329880Y-94570340D01*
G75*
G02*
X189229880Y-94670340I-100000J0D01*
G01*
X187954880Y-94670340D01*
G75*
G02*
X187854880Y-94570340I0J100000D01*
G01*
X187854880Y-94370340D01*
G75*
G02*
X187954880Y-94270340I100000J0D01*
G01*
X189229880Y-94270340D01*
G75*
G02*
X189329880Y-94370340I0J-100000D01*
G01*
G37*
G36*
G01*
X189329880Y-95020340D02*
X189329880Y-95220340D01*
G75*
G02*
X189229880Y-95320340I-100000J0D01*
G01*
X187954880Y-95320340D01*
G75*
G02*
X187854880Y-95220340I0J100000D01*
G01*
X187854880Y-95020340D01*
G75*
G02*
X187954880Y-94920340I100000J0D01*
G01*
X189229880Y-94920340D01*
G75*
G02*
X189329880Y-95020340I0J-100000D01*
G01*
G37*
G36*
G01*
X189329880Y-95670340D02*
X189329880Y-95870340D01*
G75*
G02*
X189229880Y-95970340I-100000J0D01*
G01*
X187954880Y-95970340D01*
G75*
G02*
X187854880Y-95870340I0J100000D01*
G01*
X187854880Y-95670340D01*
G75*
G02*
X187954880Y-95570340I100000J0D01*
G01*
X189229880Y-95570340D01*
G75*
G02*
X189329880Y-95670340I0J-100000D01*
G01*
G37*
G36*
G01*
X189329880Y-96320340D02*
X189329880Y-96520340D01*
G75*
G02*
X189229880Y-96620340I-100000J0D01*
G01*
X187954880Y-96620340D01*
G75*
G02*
X187854880Y-96520340I0J100000D01*
G01*
X187854880Y-96320340D01*
G75*
G02*
X187954880Y-96220340I100000J0D01*
G01*
X189229880Y-96220340D01*
G75*
G02*
X189329880Y-96320340I0J-100000D01*
G01*
G37*
G36*
G01*
X189329880Y-96970340D02*
X189329880Y-97170340D01*
G75*
G02*
X189229880Y-97270340I-100000J0D01*
G01*
X187954880Y-97270340D01*
G75*
G02*
X187854880Y-97170340I0J100000D01*
G01*
X187854880Y-96970340D01*
G75*
G02*
X187954880Y-96870340I100000J0D01*
G01*
X189229880Y-96870340D01*
G75*
G02*
X189329880Y-96970340I0J-100000D01*
G01*
G37*
G36*
G01*
X189329880Y-97620340D02*
X189329880Y-97820340D01*
G75*
G02*
X189229880Y-97920340I-100000J0D01*
G01*
X187954880Y-97920340D01*
G75*
G02*
X187854880Y-97820340I0J100000D01*
G01*
X187854880Y-97620340D01*
G75*
G02*
X187954880Y-97520340I100000J0D01*
G01*
X189229880Y-97520340D01*
G75*
G02*
X189329880Y-97620340I0J-100000D01*
G01*
G37*
G36*
G01*
X168845520Y-96971600D02*
X168845520Y-96771600D01*
G75*
G02*
X168945520Y-96671600I100000J0D01*
G01*
X170220520Y-96671600D01*
G75*
G02*
X170320520Y-96771600I0J-100000D01*
G01*
X170320520Y-96971600D01*
G75*
G02*
X170220520Y-97071600I-100000J0D01*
G01*
X168945520Y-97071600D01*
G75*
G02*
X168845520Y-96971600I0J100000D01*
G01*
G37*
G36*
G01*
X168845520Y-97621600D02*
X168845520Y-97421600D01*
G75*
G02*
X168945520Y-97321600I100000J0D01*
G01*
X170220520Y-97321600D01*
G75*
G02*
X170320520Y-97421600I0J-100000D01*
G01*
X170320520Y-97621600D01*
G75*
G02*
X170220520Y-97721600I-100000J0D01*
G01*
X168945520Y-97721600D01*
G75*
G02*
X168845520Y-97621600I0J100000D01*
G01*
G37*
G36*
G01*
X168845520Y-98271600D02*
X168845520Y-98071600D01*
G75*
G02*
X168945520Y-97971600I100000J0D01*
G01*
X170220520Y-97971600D01*
G75*
G02*
X170320520Y-98071600I0J-100000D01*
G01*
X170320520Y-98271600D01*
G75*
G02*
X170220520Y-98371600I-100000J0D01*
G01*
X168945520Y-98371600D01*
G75*
G02*
X168845520Y-98271600I0J100000D01*
G01*
G37*
G36*
G01*
X168845520Y-98921600D02*
X168845520Y-98721600D01*
G75*
G02*
X168945520Y-98621600I100000J0D01*
G01*
X170220520Y-98621600D01*
G75*
G02*
X170320520Y-98721600I0J-100000D01*
G01*
X170320520Y-98921600D01*
G75*
G02*
X170220520Y-99021600I-100000J0D01*
G01*
X168945520Y-99021600D01*
G75*
G02*
X168845520Y-98921600I0J100000D01*
G01*
G37*
G36*
G01*
X168845520Y-99571600D02*
X168845520Y-99371600D01*
G75*
G02*
X168945520Y-99271600I100000J0D01*
G01*
X170220520Y-99271600D01*
G75*
G02*
X170320520Y-99371600I0J-100000D01*
G01*
X170320520Y-99571600D01*
G75*
G02*
X170220520Y-99671600I-100000J0D01*
G01*
X168945520Y-99671600D01*
G75*
G02*
X168845520Y-99571600I0J100000D01*
G01*
G37*
G36*
G01*
X168845520Y-100221600D02*
X168845520Y-100021600D01*
G75*
G02*
X168945520Y-99921600I100000J0D01*
G01*
X170220520Y-99921600D01*
G75*
G02*
X170320520Y-100021600I0J-100000D01*
G01*
X170320520Y-100221600D01*
G75*
G02*
X170220520Y-100321600I-100000J0D01*
G01*
X168945520Y-100321600D01*
G75*
G02*
X168845520Y-100221600I0J100000D01*
G01*
G37*
G36*
G01*
X168845520Y-100871600D02*
X168845520Y-100671600D01*
G75*
G02*
X168945520Y-100571600I100000J0D01*
G01*
X170220520Y-100571600D01*
G75*
G02*
X170320520Y-100671600I0J-100000D01*
G01*
X170320520Y-100871600D01*
G75*
G02*
X170220520Y-100971600I-100000J0D01*
G01*
X168945520Y-100971600D01*
G75*
G02*
X168845520Y-100871600I0J100000D01*
G01*
G37*
G36*
G01*
X168845520Y-101521600D02*
X168845520Y-101321600D01*
G75*
G02*
X168945520Y-101221600I100000J0D01*
G01*
X170220520Y-101221600D01*
G75*
G02*
X170320520Y-101321600I0J-100000D01*
G01*
X170320520Y-101521600D01*
G75*
G02*
X170220520Y-101621600I-100000J0D01*
G01*
X168945520Y-101621600D01*
G75*
G02*
X168845520Y-101521600I0J100000D01*
G01*
G37*
G36*
G01*
X168845520Y-102171600D02*
X168845520Y-101971600D01*
G75*
G02*
X168945520Y-101871600I100000J0D01*
G01*
X170220520Y-101871600D01*
G75*
G02*
X170320520Y-101971600I0J-100000D01*
G01*
X170320520Y-102171600D01*
G75*
G02*
X170220520Y-102271600I-100000J0D01*
G01*
X168945520Y-102271600D01*
G75*
G02*
X168845520Y-102171600I0J100000D01*
G01*
G37*
G36*
G01*
X168845520Y-102821600D02*
X168845520Y-102621600D01*
G75*
G02*
X168945520Y-102521600I100000J0D01*
G01*
X170220520Y-102521600D01*
G75*
G02*
X170320520Y-102621600I0J-100000D01*
G01*
X170320520Y-102821600D01*
G75*
G02*
X170220520Y-102921600I-100000J0D01*
G01*
X168945520Y-102921600D01*
G75*
G02*
X168845520Y-102821600I0J100000D01*
G01*
G37*
G36*
G01*
X163120520Y-102821600D02*
X163120520Y-102621600D01*
G75*
G02*
X163220520Y-102521600I100000J0D01*
G01*
X164495520Y-102521600D01*
G75*
G02*
X164595520Y-102621600I0J-100000D01*
G01*
X164595520Y-102821600D01*
G75*
G02*
X164495520Y-102921600I-100000J0D01*
G01*
X163220520Y-102921600D01*
G75*
G02*
X163120520Y-102821600I0J100000D01*
G01*
G37*
G36*
G01*
X163120520Y-102171600D02*
X163120520Y-101971600D01*
G75*
G02*
X163220520Y-101871600I100000J0D01*
G01*
X164495520Y-101871600D01*
G75*
G02*
X164595520Y-101971600I0J-100000D01*
G01*
X164595520Y-102171600D01*
G75*
G02*
X164495520Y-102271600I-100000J0D01*
G01*
X163220520Y-102271600D01*
G75*
G02*
X163120520Y-102171600I0J100000D01*
G01*
G37*
G36*
G01*
X163120520Y-101521600D02*
X163120520Y-101321600D01*
G75*
G02*
X163220520Y-101221600I100000J0D01*
G01*
X164495520Y-101221600D01*
G75*
G02*
X164595520Y-101321600I0J-100000D01*
G01*
X164595520Y-101521600D01*
G75*
G02*
X164495520Y-101621600I-100000J0D01*
G01*
X163220520Y-101621600D01*
G75*
G02*
X163120520Y-101521600I0J100000D01*
G01*
G37*
G36*
G01*
X163120520Y-100871600D02*
X163120520Y-100671600D01*
G75*
G02*
X163220520Y-100571600I100000J0D01*
G01*
X164495520Y-100571600D01*
G75*
G02*
X164595520Y-100671600I0J-100000D01*
G01*
X164595520Y-100871600D01*
G75*
G02*
X164495520Y-100971600I-100000J0D01*
G01*
X163220520Y-100971600D01*
G75*
G02*
X163120520Y-100871600I0J100000D01*
G01*
G37*
G36*
G01*
X163120520Y-100221600D02*
X163120520Y-100021600D01*
G75*
G02*
X163220520Y-99921600I100000J0D01*
G01*
X164495520Y-99921600D01*
G75*
G02*
X164595520Y-100021600I0J-100000D01*
G01*
X164595520Y-100221600D01*
G75*
G02*
X164495520Y-100321600I-100000J0D01*
G01*
X163220520Y-100321600D01*
G75*
G02*
X163120520Y-100221600I0J100000D01*
G01*
G37*
G36*
G01*
X163120520Y-99571600D02*
X163120520Y-99371600D01*
G75*
G02*
X163220520Y-99271600I100000J0D01*
G01*
X164495520Y-99271600D01*
G75*
G02*
X164595520Y-99371600I0J-100000D01*
G01*
X164595520Y-99571600D01*
G75*
G02*
X164495520Y-99671600I-100000J0D01*
G01*
X163220520Y-99671600D01*
G75*
G02*
X163120520Y-99571600I0J100000D01*
G01*
G37*
G36*
G01*
X163120520Y-98921600D02*
X163120520Y-98721600D01*
G75*
G02*
X163220520Y-98621600I100000J0D01*
G01*
X164495520Y-98621600D01*
G75*
G02*
X164595520Y-98721600I0J-100000D01*
G01*
X164595520Y-98921600D01*
G75*
G02*
X164495520Y-99021600I-100000J0D01*
G01*
X163220520Y-99021600D01*
G75*
G02*
X163120520Y-98921600I0J100000D01*
G01*
G37*
G36*
G01*
X163120520Y-98271600D02*
X163120520Y-98071600D01*
G75*
G02*
X163220520Y-97971600I100000J0D01*
G01*
X164495520Y-97971600D01*
G75*
G02*
X164595520Y-98071600I0J-100000D01*
G01*
X164595520Y-98271600D01*
G75*
G02*
X164495520Y-98371600I-100000J0D01*
G01*
X163220520Y-98371600D01*
G75*
G02*
X163120520Y-98271600I0J100000D01*
G01*
G37*
G36*
G01*
X163120520Y-97621600D02*
X163120520Y-97421600D01*
G75*
G02*
X163220520Y-97321600I100000J0D01*
G01*
X164495520Y-97321600D01*
G75*
G02*
X164595520Y-97421600I0J-100000D01*
G01*
X164595520Y-97621600D01*
G75*
G02*
X164495520Y-97721600I-100000J0D01*
G01*
X163220520Y-97721600D01*
G75*
G02*
X163120520Y-97621600I0J100000D01*
G01*
G37*
G36*
G01*
X163120520Y-96971600D02*
X163120520Y-96771600D01*
G75*
G02*
X163220520Y-96671600I100000J0D01*
G01*
X164495520Y-96671600D01*
G75*
G02*
X164595520Y-96771600I0J-100000D01*
G01*
X164595520Y-96971600D01*
G75*
G02*
X164495520Y-97071600I-100000J0D01*
G01*
X163220520Y-97071600D01*
G75*
G02*
X163120520Y-96971600I0J100000D01*
G01*
G37*
G36*
G01*
X168792180Y-80095840D02*
X168792180Y-79895840D01*
G75*
G02*
X168892180Y-79795840I100000J0D01*
G01*
X170167180Y-79795840D01*
G75*
G02*
X170267180Y-79895840I0J-100000D01*
G01*
X170267180Y-80095840D01*
G75*
G02*
X170167180Y-80195840I-100000J0D01*
G01*
X168892180Y-80195840D01*
G75*
G02*
X168792180Y-80095840I0J100000D01*
G01*
G37*
G36*
G01*
X168792180Y-80745840D02*
X168792180Y-80545840D01*
G75*
G02*
X168892180Y-80445840I100000J0D01*
G01*
X170167180Y-80445840D01*
G75*
G02*
X170267180Y-80545840I0J-100000D01*
G01*
X170267180Y-80745840D01*
G75*
G02*
X170167180Y-80845840I-100000J0D01*
G01*
X168892180Y-80845840D01*
G75*
G02*
X168792180Y-80745840I0J100000D01*
G01*
G37*
G36*
G01*
X168792180Y-81395840D02*
X168792180Y-81195840D01*
G75*
G02*
X168892180Y-81095840I100000J0D01*
G01*
X170167180Y-81095840D01*
G75*
G02*
X170267180Y-81195840I0J-100000D01*
G01*
X170267180Y-81395840D01*
G75*
G02*
X170167180Y-81495840I-100000J0D01*
G01*
X168892180Y-81495840D01*
G75*
G02*
X168792180Y-81395840I0J100000D01*
G01*
G37*
G36*
G01*
X168792180Y-82045840D02*
X168792180Y-81845840D01*
G75*
G02*
X168892180Y-81745840I100000J0D01*
G01*
X170167180Y-81745840D01*
G75*
G02*
X170267180Y-81845840I0J-100000D01*
G01*
X170267180Y-82045840D01*
G75*
G02*
X170167180Y-82145840I-100000J0D01*
G01*
X168892180Y-82145840D01*
G75*
G02*
X168792180Y-82045840I0J100000D01*
G01*
G37*
G36*
G01*
X168792180Y-82695840D02*
X168792180Y-82495840D01*
G75*
G02*
X168892180Y-82395840I100000J0D01*
G01*
X170167180Y-82395840D01*
G75*
G02*
X170267180Y-82495840I0J-100000D01*
G01*
X170267180Y-82695840D01*
G75*
G02*
X170167180Y-82795840I-100000J0D01*
G01*
X168892180Y-82795840D01*
G75*
G02*
X168792180Y-82695840I0J100000D01*
G01*
G37*
G36*
G01*
X168792180Y-83345840D02*
X168792180Y-83145840D01*
G75*
G02*
X168892180Y-83045840I100000J0D01*
G01*
X170167180Y-83045840D01*
G75*
G02*
X170267180Y-83145840I0J-100000D01*
G01*
X170267180Y-83345840D01*
G75*
G02*
X170167180Y-83445840I-100000J0D01*
G01*
X168892180Y-83445840D01*
G75*
G02*
X168792180Y-83345840I0J100000D01*
G01*
G37*
G36*
G01*
X168792180Y-83995840D02*
X168792180Y-83795840D01*
G75*
G02*
X168892180Y-83695840I100000J0D01*
G01*
X170167180Y-83695840D01*
G75*
G02*
X170267180Y-83795840I0J-100000D01*
G01*
X170267180Y-83995840D01*
G75*
G02*
X170167180Y-84095840I-100000J0D01*
G01*
X168892180Y-84095840D01*
G75*
G02*
X168792180Y-83995840I0J100000D01*
G01*
G37*
G36*
G01*
X168792180Y-84645840D02*
X168792180Y-84445840D01*
G75*
G02*
X168892180Y-84345840I100000J0D01*
G01*
X170167180Y-84345840D01*
G75*
G02*
X170267180Y-84445840I0J-100000D01*
G01*
X170267180Y-84645840D01*
G75*
G02*
X170167180Y-84745840I-100000J0D01*
G01*
X168892180Y-84745840D01*
G75*
G02*
X168792180Y-84645840I0J100000D01*
G01*
G37*
G36*
G01*
X168792180Y-85295840D02*
X168792180Y-85095840D01*
G75*
G02*
X168892180Y-84995840I100000J0D01*
G01*
X170167180Y-84995840D01*
G75*
G02*
X170267180Y-85095840I0J-100000D01*
G01*
X170267180Y-85295840D01*
G75*
G02*
X170167180Y-85395840I-100000J0D01*
G01*
X168892180Y-85395840D01*
G75*
G02*
X168792180Y-85295840I0J100000D01*
G01*
G37*
G36*
G01*
X168792180Y-85945840D02*
X168792180Y-85745840D01*
G75*
G02*
X168892180Y-85645840I100000J0D01*
G01*
X170167180Y-85645840D01*
G75*
G02*
X170267180Y-85745840I0J-100000D01*
G01*
X170267180Y-85945840D01*
G75*
G02*
X170167180Y-86045840I-100000J0D01*
G01*
X168892180Y-86045840D01*
G75*
G02*
X168792180Y-85945840I0J100000D01*
G01*
G37*
G36*
G01*
X163067180Y-85945840D02*
X163067180Y-85745840D01*
G75*
G02*
X163167180Y-85645840I100000J0D01*
G01*
X164442180Y-85645840D01*
G75*
G02*
X164542180Y-85745840I0J-100000D01*
G01*
X164542180Y-85945840D01*
G75*
G02*
X164442180Y-86045840I-100000J0D01*
G01*
X163167180Y-86045840D01*
G75*
G02*
X163067180Y-85945840I0J100000D01*
G01*
G37*
G36*
G01*
X163067180Y-85295840D02*
X163067180Y-85095840D01*
G75*
G02*
X163167180Y-84995840I100000J0D01*
G01*
X164442180Y-84995840D01*
G75*
G02*
X164542180Y-85095840I0J-100000D01*
G01*
X164542180Y-85295840D01*
G75*
G02*
X164442180Y-85395840I-100000J0D01*
G01*
X163167180Y-85395840D01*
G75*
G02*
X163067180Y-85295840I0J100000D01*
G01*
G37*
G36*
G01*
X163067180Y-84645840D02*
X163067180Y-84445840D01*
G75*
G02*
X163167180Y-84345840I100000J0D01*
G01*
X164442180Y-84345840D01*
G75*
G02*
X164542180Y-84445840I0J-100000D01*
G01*
X164542180Y-84645840D01*
G75*
G02*
X164442180Y-84745840I-100000J0D01*
G01*
X163167180Y-84745840D01*
G75*
G02*
X163067180Y-84645840I0J100000D01*
G01*
G37*
G36*
G01*
X163067180Y-83995840D02*
X163067180Y-83795840D01*
G75*
G02*
X163167180Y-83695840I100000J0D01*
G01*
X164442180Y-83695840D01*
G75*
G02*
X164542180Y-83795840I0J-100000D01*
G01*
X164542180Y-83995840D01*
G75*
G02*
X164442180Y-84095840I-100000J0D01*
G01*
X163167180Y-84095840D01*
G75*
G02*
X163067180Y-83995840I0J100000D01*
G01*
G37*
G36*
G01*
X163067180Y-83345840D02*
X163067180Y-83145840D01*
G75*
G02*
X163167180Y-83045840I100000J0D01*
G01*
X164442180Y-83045840D01*
G75*
G02*
X164542180Y-83145840I0J-100000D01*
G01*
X164542180Y-83345840D01*
G75*
G02*
X164442180Y-83445840I-100000J0D01*
G01*
X163167180Y-83445840D01*
G75*
G02*
X163067180Y-83345840I0J100000D01*
G01*
G37*
G36*
G01*
X163067180Y-82695840D02*
X163067180Y-82495840D01*
G75*
G02*
X163167180Y-82395840I100000J0D01*
G01*
X164442180Y-82395840D01*
G75*
G02*
X164542180Y-82495840I0J-100000D01*
G01*
X164542180Y-82695840D01*
G75*
G02*
X164442180Y-82795840I-100000J0D01*
G01*
X163167180Y-82795840D01*
G75*
G02*
X163067180Y-82695840I0J100000D01*
G01*
G37*
G36*
G01*
X163067180Y-82045840D02*
X163067180Y-81845840D01*
G75*
G02*
X163167180Y-81745840I100000J0D01*
G01*
X164442180Y-81745840D01*
G75*
G02*
X164542180Y-81845840I0J-100000D01*
G01*
X164542180Y-82045840D01*
G75*
G02*
X164442180Y-82145840I-100000J0D01*
G01*
X163167180Y-82145840D01*
G75*
G02*
X163067180Y-82045840I0J100000D01*
G01*
G37*
G36*
G01*
X163067180Y-81395840D02*
X163067180Y-81195840D01*
G75*
G02*
X163167180Y-81095840I100000J0D01*
G01*
X164442180Y-81095840D01*
G75*
G02*
X164542180Y-81195840I0J-100000D01*
G01*
X164542180Y-81395840D01*
G75*
G02*
X164442180Y-81495840I-100000J0D01*
G01*
X163167180Y-81495840D01*
G75*
G02*
X163067180Y-81395840I0J100000D01*
G01*
G37*
G36*
G01*
X163067180Y-80745840D02*
X163067180Y-80545840D01*
G75*
G02*
X163167180Y-80445840I100000J0D01*
G01*
X164442180Y-80445840D01*
G75*
G02*
X164542180Y-80545840I0J-100000D01*
G01*
X164542180Y-80745840D01*
G75*
G02*
X164442180Y-80845840I-100000J0D01*
G01*
X163167180Y-80845840D01*
G75*
G02*
X163067180Y-80745840I0J100000D01*
G01*
G37*
G36*
G01*
X163067180Y-80095840D02*
X163067180Y-79895840D01*
G75*
G02*
X163167180Y-79795840I100000J0D01*
G01*
X164442180Y-79795840D01*
G75*
G02*
X164542180Y-79895840I0J-100000D01*
G01*
X164542180Y-80095840D01*
G75*
G02*
X164442180Y-80195840I-100000J0D01*
G01*
X163167180Y-80195840D01*
G75*
G02*
X163067180Y-80095840I0J100000D01*
G01*
G37*
D14*
X178290220Y-113644680D03*
X178290220Y-111104680D03*
X178290220Y-108564680D03*
X178290220Y-106024680D03*
X178290220Y-103484680D03*
X178290220Y-100944680D03*
X178290220Y-98404680D03*
X178290220Y-95864680D03*
X178290220Y-93324680D03*
X178290220Y-90784680D03*
X178290220Y-88244680D03*
X178290220Y-85704680D03*
X178290220Y-83164680D03*
X178290220Y-80624680D03*
D13*
X193530220Y-113644680D03*
D14*
X193530220Y-111104680D03*
X193530220Y-108564680D03*
X193530220Y-106024680D03*
X193530220Y-103484680D03*
X193530220Y-100944680D03*
X193530220Y-98404680D03*
X193530220Y-95864680D03*
X193530220Y-93324680D03*
X193530220Y-90784680D03*
X193530220Y-88244680D03*
X193530220Y-85704680D03*
X193530220Y-83164680D03*
X178290220Y-78084680D03*
X178290220Y-75544680D03*
X178290220Y-73004680D03*
X178290220Y-70464680D03*
X178290220Y-67924680D03*
X178290220Y-65384680D03*
X178290220Y-62844680D03*
X178290220Y-60304680D03*
X178290220Y-57764680D03*
X178290220Y-55224680D03*
X193530220Y-55224680D03*
X193530220Y-57764680D03*
X193530220Y-60304680D03*
X193530220Y-62844680D03*
X193530220Y-80624680D03*
X193530220Y-78084680D03*
X193530220Y-75544680D03*
X193530220Y-65384680D03*
X193530220Y-67924680D03*
X193530220Y-70464680D03*
X193530220Y-73004680D03*
M02*
