G04 #@! TF.GenerationSoftware,KiCad,Pcbnew,(5.1.8)-1*
G04 #@! TF.CreationDate,2022-03-12T16:36:43-08:00*
G04 #@! TF.ProjectId,MCLZ8_PCB,4d434c5a-385f-4504-9342-2e6b69636164,rev?*
G04 #@! TF.SameCoordinates,Original*
G04 #@! TF.FileFunction,Copper,L1,Top*
G04 #@! TF.FilePolarity,Positive*
%FSLAX46Y46*%
G04 Gerber Fmt 4.6, Leading zero omitted, Abs format (unit mm)*
G04 Created by KiCad (PCBNEW (5.1.8)-1) date 2022-03-12 16:36:43*
%MOMM*%
%LPD*%
G01*
G04 APERTURE LIST*
G04 #@! TA.AperFunction,ComponentPad*
%ADD10O,1.600000X1.600000*%
G04 #@! TD*
G04 #@! TA.AperFunction,ComponentPad*
%ADD11R,1.600000X1.600000*%
G04 #@! TD*
G04 #@! TA.AperFunction,ComponentPad*
%ADD12C,1.600000*%
G04 #@! TD*
G04 #@! TA.AperFunction,ViaPad*
%ADD13C,0.584200*%
G04 #@! TD*
G04 #@! TA.AperFunction,Conductor*
%ADD14C,0.152400*%
G04 #@! TD*
G04 APERTURE END LIST*
D10*
X174452280Y-57929780D03*
X159212280Y-106189780D03*
X174452280Y-60469780D03*
X159212280Y-103649780D03*
X174452280Y-63009780D03*
X159212280Y-101109780D03*
X174452280Y-65549780D03*
X159212280Y-98569780D03*
X174452280Y-68089780D03*
X159212280Y-96029780D03*
X174452280Y-70629780D03*
X159212280Y-93489780D03*
X174452280Y-73169780D03*
X159212280Y-90949780D03*
X174452280Y-75709780D03*
X159212280Y-88409780D03*
X174452280Y-78249780D03*
X159212280Y-85869780D03*
X174452280Y-80789780D03*
X159212280Y-83329780D03*
X174452280Y-83329780D03*
X159212280Y-80789780D03*
X174452280Y-85869780D03*
X159212280Y-78249780D03*
X174452280Y-88409780D03*
X159212280Y-75709780D03*
X174452280Y-90949780D03*
X159212280Y-73169780D03*
X174452280Y-93489780D03*
X159212280Y-70629780D03*
X174452280Y-96029780D03*
X159212280Y-68089780D03*
X174452280Y-98569780D03*
X159212280Y-65549780D03*
X174452280Y-101109780D03*
X159212280Y-63009780D03*
X174452280Y-103649780D03*
X159212280Y-60469780D03*
X174452280Y-106189780D03*
D11*
X159212280Y-57929780D03*
G04 #@! TA.AperFunction,SMDPad,CuDef*
G36*
G01*
X183604880Y-77201280D02*
X183604880Y-77401280D01*
G75*
G02*
X183504880Y-77501280I-100000J0D01*
G01*
X182229880Y-77501280D01*
G75*
G02*
X182129880Y-77401280I0J100000D01*
G01*
X182129880Y-77201280D01*
G75*
G02*
X182229880Y-77101280I100000J0D01*
G01*
X183504880Y-77101280D01*
G75*
G02*
X183604880Y-77201280I0J-100000D01*
G01*
G37*
G04 #@! TD.AperFunction*
G04 #@! TA.AperFunction,SMDPad,CuDef*
G36*
G01*
X183604880Y-76551280D02*
X183604880Y-76751280D01*
G75*
G02*
X183504880Y-76851280I-100000J0D01*
G01*
X182229880Y-76851280D01*
G75*
G02*
X182129880Y-76751280I0J100000D01*
G01*
X182129880Y-76551280D01*
G75*
G02*
X182229880Y-76451280I100000J0D01*
G01*
X183504880Y-76451280D01*
G75*
G02*
X183604880Y-76551280I0J-100000D01*
G01*
G37*
G04 #@! TD.AperFunction*
G04 #@! TA.AperFunction,SMDPad,CuDef*
G36*
G01*
X183604880Y-75901280D02*
X183604880Y-76101280D01*
G75*
G02*
X183504880Y-76201280I-100000J0D01*
G01*
X182229880Y-76201280D01*
G75*
G02*
X182129880Y-76101280I0J100000D01*
G01*
X182129880Y-75901280D01*
G75*
G02*
X182229880Y-75801280I100000J0D01*
G01*
X183504880Y-75801280D01*
G75*
G02*
X183604880Y-75901280I0J-100000D01*
G01*
G37*
G04 #@! TD.AperFunction*
G04 #@! TA.AperFunction,SMDPad,CuDef*
G36*
G01*
X183604880Y-75251280D02*
X183604880Y-75451280D01*
G75*
G02*
X183504880Y-75551280I-100000J0D01*
G01*
X182229880Y-75551280D01*
G75*
G02*
X182129880Y-75451280I0J100000D01*
G01*
X182129880Y-75251280D01*
G75*
G02*
X182229880Y-75151280I100000J0D01*
G01*
X183504880Y-75151280D01*
G75*
G02*
X183604880Y-75251280I0J-100000D01*
G01*
G37*
G04 #@! TD.AperFunction*
G04 #@! TA.AperFunction,SMDPad,CuDef*
G36*
G01*
X183604880Y-74601280D02*
X183604880Y-74801280D01*
G75*
G02*
X183504880Y-74901280I-100000J0D01*
G01*
X182229880Y-74901280D01*
G75*
G02*
X182129880Y-74801280I0J100000D01*
G01*
X182129880Y-74601280D01*
G75*
G02*
X182229880Y-74501280I100000J0D01*
G01*
X183504880Y-74501280D01*
G75*
G02*
X183604880Y-74601280I0J-100000D01*
G01*
G37*
G04 #@! TD.AperFunction*
G04 #@! TA.AperFunction,SMDPad,CuDef*
G36*
G01*
X183604880Y-73951280D02*
X183604880Y-74151280D01*
G75*
G02*
X183504880Y-74251280I-100000J0D01*
G01*
X182229880Y-74251280D01*
G75*
G02*
X182129880Y-74151280I0J100000D01*
G01*
X182129880Y-73951280D01*
G75*
G02*
X182229880Y-73851280I100000J0D01*
G01*
X183504880Y-73851280D01*
G75*
G02*
X183604880Y-73951280I0J-100000D01*
G01*
G37*
G04 #@! TD.AperFunction*
G04 #@! TA.AperFunction,SMDPad,CuDef*
G36*
G01*
X183604880Y-73301280D02*
X183604880Y-73501280D01*
G75*
G02*
X183504880Y-73601280I-100000J0D01*
G01*
X182229880Y-73601280D01*
G75*
G02*
X182129880Y-73501280I0J100000D01*
G01*
X182129880Y-73301280D01*
G75*
G02*
X182229880Y-73201280I100000J0D01*
G01*
X183504880Y-73201280D01*
G75*
G02*
X183604880Y-73301280I0J-100000D01*
G01*
G37*
G04 #@! TD.AperFunction*
G04 #@! TA.AperFunction,SMDPad,CuDef*
G36*
G01*
X183604880Y-72651280D02*
X183604880Y-72851280D01*
G75*
G02*
X183504880Y-72951280I-100000J0D01*
G01*
X182229880Y-72951280D01*
G75*
G02*
X182129880Y-72851280I0J100000D01*
G01*
X182129880Y-72651280D01*
G75*
G02*
X182229880Y-72551280I100000J0D01*
G01*
X183504880Y-72551280D01*
G75*
G02*
X183604880Y-72651280I0J-100000D01*
G01*
G37*
G04 #@! TD.AperFunction*
G04 #@! TA.AperFunction,SMDPad,CuDef*
G36*
G01*
X183604880Y-72001280D02*
X183604880Y-72201280D01*
G75*
G02*
X183504880Y-72301280I-100000J0D01*
G01*
X182229880Y-72301280D01*
G75*
G02*
X182129880Y-72201280I0J100000D01*
G01*
X182129880Y-72001280D01*
G75*
G02*
X182229880Y-71901280I100000J0D01*
G01*
X183504880Y-71901280D01*
G75*
G02*
X183604880Y-72001280I0J-100000D01*
G01*
G37*
G04 #@! TD.AperFunction*
G04 #@! TA.AperFunction,SMDPad,CuDef*
G36*
G01*
X183604880Y-71351280D02*
X183604880Y-71551280D01*
G75*
G02*
X183504880Y-71651280I-100000J0D01*
G01*
X182229880Y-71651280D01*
G75*
G02*
X182129880Y-71551280I0J100000D01*
G01*
X182129880Y-71351280D01*
G75*
G02*
X182229880Y-71251280I100000J0D01*
G01*
X183504880Y-71251280D01*
G75*
G02*
X183604880Y-71351280I0J-100000D01*
G01*
G37*
G04 #@! TD.AperFunction*
G04 #@! TA.AperFunction,SMDPad,CuDef*
G36*
G01*
X189329880Y-71351280D02*
X189329880Y-71551280D01*
G75*
G02*
X189229880Y-71651280I-100000J0D01*
G01*
X187954880Y-71651280D01*
G75*
G02*
X187854880Y-71551280I0J100000D01*
G01*
X187854880Y-71351280D01*
G75*
G02*
X187954880Y-71251280I100000J0D01*
G01*
X189229880Y-71251280D01*
G75*
G02*
X189329880Y-71351280I0J-100000D01*
G01*
G37*
G04 #@! TD.AperFunction*
G04 #@! TA.AperFunction,SMDPad,CuDef*
G36*
G01*
X189329880Y-72001280D02*
X189329880Y-72201280D01*
G75*
G02*
X189229880Y-72301280I-100000J0D01*
G01*
X187954880Y-72301280D01*
G75*
G02*
X187854880Y-72201280I0J100000D01*
G01*
X187854880Y-72001280D01*
G75*
G02*
X187954880Y-71901280I100000J0D01*
G01*
X189229880Y-71901280D01*
G75*
G02*
X189329880Y-72001280I0J-100000D01*
G01*
G37*
G04 #@! TD.AperFunction*
G04 #@! TA.AperFunction,SMDPad,CuDef*
G36*
G01*
X189329880Y-72651280D02*
X189329880Y-72851280D01*
G75*
G02*
X189229880Y-72951280I-100000J0D01*
G01*
X187954880Y-72951280D01*
G75*
G02*
X187854880Y-72851280I0J100000D01*
G01*
X187854880Y-72651280D01*
G75*
G02*
X187954880Y-72551280I100000J0D01*
G01*
X189229880Y-72551280D01*
G75*
G02*
X189329880Y-72651280I0J-100000D01*
G01*
G37*
G04 #@! TD.AperFunction*
G04 #@! TA.AperFunction,SMDPad,CuDef*
G36*
G01*
X189329880Y-73301280D02*
X189329880Y-73501280D01*
G75*
G02*
X189229880Y-73601280I-100000J0D01*
G01*
X187954880Y-73601280D01*
G75*
G02*
X187854880Y-73501280I0J100000D01*
G01*
X187854880Y-73301280D01*
G75*
G02*
X187954880Y-73201280I100000J0D01*
G01*
X189229880Y-73201280D01*
G75*
G02*
X189329880Y-73301280I0J-100000D01*
G01*
G37*
G04 #@! TD.AperFunction*
G04 #@! TA.AperFunction,SMDPad,CuDef*
G36*
G01*
X189329880Y-73951280D02*
X189329880Y-74151280D01*
G75*
G02*
X189229880Y-74251280I-100000J0D01*
G01*
X187954880Y-74251280D01*
G75*
G02*
X187854880Y-74151280I0J100000D01*
G01*
X187854880Y-73951280D01*
G75*
G02*
X187954880Y-73851280I100000J0D01*
G01*
X189229880Y-73851280D01*
G75*
G02*
X189329880Y-73951280I0J-100000D01*
G01*
G37*
G04 #@! TD.AperFunction*
G04 #@! TA.AperFunction,SMDPad,CuDef*
G36*
G01*
X189329880Y-74601280D02*
X189329880Y-74801280D01*
G75*
G02*
X189229880Y-74901280I-100000J0D01*
G01*
X187954880Y-74901280D01*
G75*
G02*
X187854880Y-74801280I0J100000D01*
G01*
X187854880Y-74601280D01*
G75*
G02*
X187954880Y-74501280I100000J0D01*
G01*
X189229880Y-74501280D01*
G75*
G02*
X189329880Y-74601280I0J-100000D01*
G01*
G37*
G04 #@! TD.AperFunction*
G04 #@! TA.AperFunction,SMDPad,CuDef*
G36*
G01*
X189329880Y-75251280D02*
X189329880Y-75451280D01*
G75*
G02*
X189229880Y-75551280I-100000J0D01*
G01*
X187954880Y-75551280D01*
G75*
G02*
X187854880Y-75451280I0J100000D01*
G01*
X187854880Y-75251280D01*
G75*
G02*
X187954880Y-75151280I100000J0D01*
G01*
X189229880Y-75151280D01*
G75*
G02*
X189329880Y-75251280I0J-100000D01*
G01*
G37*
G04 #@! TD.AperFunction*
G04 #@! TA.AperFunction,SMDPad,CuDef*
G36*
G01*
X189329880Y-75901280D02*
X189329880Y-76101280D01*
G75*
G02*
X189229880Y-76201280I-100000J0D01*
G01*
X187954880Y-76201280D01*
G75*
G02*
X187854880Y-76101280I0J100000D01*
G01*
X187854880Y-75901280D01*
G75*
G02*
X187954880Y-75801280I100000J0D01*
G01*
X189229880Y-75801280D01*
G75*
G02*
X189329880Y-75901280I0J-100000D01*
G01*
G37*
G04 #@! TD.AperFunction*
G04 #@! TA.AperFunction,SMDPad,CuDef*
G36*
G01*
X189329880Y-76551280D02*
X189329880Y-76751280D01*
G75*
G02*
X189229880Y-76851280I-100000J0D01*
G01*
X187954880Y-76851280D01*
G75*
G02*
X187854880Y-76751280I0J100000D01*
G01*
X187854880Y-76551280D01*
G75*
G02*
X187954880Y-76451280I100000J0D01*
G01*
X189229880Y-76451280D01*
G75*
G02*
X189329880Y-76551280I0J-100000D01*
G01*
G37*
G04 #@! TD.AperFunction*
G04 #@! TA.AperFunction,SMDPad,CuDef*
G36*
G01*
X189329880Y-77201280D02*
X189329880Y-77401280D01*
G75*
G02*
X189229880Y-77501280I-100000J0D01*
G01*
X187954880Y-77501280D01*
G75*
G02*
X187854880Y-77401280I0J100000D01*
G01*
X187854880Y-77201280D01*
G75*
G02*
X187954880Y-77101280I100000J0D01*
G01*
X189229880Y-77101280D01*
G75*
G02*
X189329880Y-77201280I0J-100000D01*
G01*
G37*
G04 #@! TD.AperFunction*
G04 #@! TA.AperFunction,SMDPad,CuDef*
G36*
G01*
X183604880Y-97620340D02*
X183604880Y-97820340D01*
G75*
G02*
X183504880Y-97920340I-100000J0D01*
G01*
X182229880Y-97920340D01*
G75*
G02*
X182129880Y-97820340I0J100000D01*
G01*
X182129880Y-97620340D01*
G75*
G02*
X182229880Y-97520340I100000J0D01*
G01*
X183504880Y-97520340D01*
G75*
G02*
X183604880Y-97620340I0J-100000D01*
G01*
G37*
G04 #@! TD.AperFunction*
G04 #@! TA.AperFunction,SMDPad,CuDef*
G36*
G01*
X183604880Y-96970340D02*
X183604880Y-97170340D01*
G75*
G02*
X183504880Y-97270340I-100000J0D01*
G01*
X182229880Y-97270340D01*
G75*
G02*
X182129880Y-97170340I0J100000D01*
G01*
X182129880Y-96970340D01*
G75*
G02*
X182229880Y-96870340I100000J0D01*
G01*
X183504880Y-96870340D01*
G75*
G02*
X183604880Y-96970340I0J-100000D01*
G01*
G37*
G04 #@! TD.AperFunction*
G04 #@! TA.AperFunction,SMDPad,CuDef*
G36*
G01*
X183604880Y-96320340D02*
X183604880Y-96520340D01*
G75*
G02*
X183504880Y-96620340I-100000J0D01*
G01*
X182229880Y-96620340D01*
G75*
G02*
X182129880Y-96520340I0J100000D01*
G01*
X182129880Y-96320340D01*
G75*
G02*
X182229880Y-96220340I100000J0D01*
G01*
X183504880Y-96220340D01*
G75*
G02*
X183604880Y-96320340I0J-100000D01*
G01*
G37*
G04 #@! TD.AperFunction*
G04 #@! TA.AperFunction,SMDPad,CuDef*
G36*
G01*
X183604880Y-95670340D02*
X183604880Y-95870340D01*
G75*
G02*
X183504880Y-95970340I-100000J0D01*
G01*
X182229880Y-95970340D01*
G75*
G02*
X182129880Y-95870340I0J100000D01*
G01*
X182129880Y-95670340D01*
G75*
G02*
X182229880Y-95570340I100000J0D01*
G01*
X183504880Y-95570340D01*
G75*
G02*
X183604880Y-95670340I0J-100000D01*
G01*
G37*
G04 #@! TD.AperFunction*
G04 #@! TA.AperFunction,SMDPad,CuDef*
G36*
G01*
X183604880Y-95020340D02*
X183604880Y-95220340D01*
G75*
G02*
X183504880Y-95320340I-100000J0D01*
G01*
X182229880Y-95320340D01*
G75*
G02*
X182129880Y-95220340I0J100000D01*
G01*
X182129880Y-95020340D01*
G75*
G02*
X182229880Y-94920340I100000J0D01*
G01*
X183504880Y-94920340D01*
G75*
G02*
X183604880Y-95020340I0J-100000D01*
G01*
G37*
G04 #@! TD.AperFunction*
G04 #@! TA.AperFunction,SMDPad,CuDef*
G36*
G01*
X183604880Y-94370340D02*
X183604880Y-94570340D01*
G75*
G02*
X183504880Y-94670340I-100000J0D01*
G01*
X182229880Y-94670340D01*
G75*
G02*
X182129880Y-94570340I0J100000D01*
G01*
X182129880Y-94370340D01*
G75*
G02*
X182229880Y-94270340I100000J0D01*
G01*
X183504880Y-94270340D01*
G75*
G02*
X183604880Y-94370340I0J-100000D01*
G01*
G37*
G04 #@! TD.AperFunction*
G04 #@! TA.AperFunction,SMDPad,CuDef*
G36*
G01*
X183604880Y-93720340D02*
X183604880Y-93920340D01*
G75*
G02*
X183504880Y-94020340I-100000J0D01*
G01*
X182229880Y-94020340D01*
G75*
G02*
X182129880Y-93920340I0J100000D01*
G01*
X182129880Y-93720340D01*
G75*
G02*
X182229880Y-93620340I100000J0D01*
G01*
X183504880Y-93620340D01*
G75*
G02*
X183604880Y-93720340I0J-100000D01*
G01*
G37*
G04 #@! TD.AperFunction*
G04 #@! TA.AperFunction,SMDPad,CuDef*
G36*
G01*
X183604880Y-93070340D02*
X183604880Y-93270340D01*
G75*
G02*
X183504880Y-93370340I-100000J0D01*
G01*
X182229880Y-93370340D01*
G75*
G02*
X182129880Y-93270340I0J100000D01*
G01*
X182129880Y-93070340D01*
G75*
G02*
X182229880Y-92970340I100000J0D01*
G01*
X183504880Y-92970340D01*
G75*
G02*
X183604880Y-93070340I0J-100000D01*
G01*
G37*
G04 #@! TD.AperFunction*
G04 #@! TA.AperFunction,SMDPad,CuDef*
G36*
G01*
X183604880Y-92420340D02*
X183604880Y-92620340D01*
G75*
G02*
X183504880Y-92720340I-100000J0D01*
G01*
X182229880Y-92720340D01*
G75*
G02*
X182129880Y-92620340I0J100000D01*
G01*
X182129880Y-92420340D01*
G75*
G02*
X182229880Y-92320340I100000J0D01*
G01*
X183504880Y-92320340D01*
G75*
G02*
X183604880Y-92420340I0J-100000D01*
G01*
G37*
G04 #@! TD.AperFunction*
G04 #@! TA.AperFunction,SMDPad,CuDef*
G36*
G01*
X183604880Y-91770340D02*
X183604880Y-91970340D01*
G75*
G02*
X183504880Y-92070340I-100000J0D01*
G01*
X182229880Y-92070340D01*
G75*
G02*
X182129880Y-91970340I0J100000D01*
G01*
X182129880Y-91770340D01*
G75*
G02*
X182229880Y-91670340I100000J0D01*
G01*
X183504880Y-91670340D01*
G75*
G02*
X183604880Y-91770340I0J-100000D01*
G01*
G37*
G04 #@! TD.AperFunction*
G04 #@! TA.AperFunction,SMDPad,CuDef*
G36*
G01*
X189329880Y-91770340D02*
X189329880Y-91970340D01*
G75*
G02*
X189229880Y-92070340I-100000J0D01*
G01*
X187954880Y-92070340D01*
G75*
G02*
X187854880Y-91970340I0J100000D01*
G01*
X187854880Y-91770340D01*
G75*
G02*
X187954880Y-91670340I100000J0D01*
G01*
X189229880Y-91670340D01*
G75*
G02*
X189329880Y-91770340I0J-100000D01*
G01*
G37*
G04 #@! TD.AperFunction*
G04 #@! TA.AperFunction,SMDPad,CuDef*
G36*
G01*
X189329880Y-92420340D02*
X189329880Y-92620340D01*
G75*
G02*
X189229880Y-92720340I-100000J0D01*
G01*
X187954880Y-92720340D01*
G75*
G02*
X187854880Y-92620340I0J100000D01*
G01*
X187854880Y-92420340D01*
G75*
G02*
X187954880Y-92320340I100000J0D01*
G01*
X189229880Y-92320340D01*
G75*
G02*
X189329880Y-92420340I0J-100000D01*
G01*
G37*
G04 #@! TD.AperFunction*
G04 #@! TA.AperFunction,SMDPad,CuDef*
G36*
G01*
X189329880Y-93070340D02*
X189329880Y-93270340D01*
G75*
G02*
X189229880Y-93370340I-100000J0D01*
G01*
X187954880Y-93370340D01*
G75*
G02*
X187854880Y-93270340I0J100000D01*
G01*
X187854880Y-93070340D01*
G75*
G02*
X187954880Y-92970340I100000J0D01*
G01*
X189229880Y-92970340D01*
G75*
G02*
X189329880Y-93070340I0J-100000D01*
G01*
G37*
G04 #@! TD.AperFunction*
G04 #@! TA.AperFunction,SMDPad,CuDef*
G36*
G01*
X189329880Y-93720340D02*
X189329880Y-93920340D01*
G75*
G02*
X189229880Y-94020340I-100000J0D01*
G01*
X187954880Y-94020340D01*
G75*
G02*
X187854880Y-93920340I0J100000D01*
G01*
X187854880Y-93720340D01*
G75*
G02*
X187954880Y-93620340I100000J0D01*
G01*
X189229880Y-93620340D01*
G75*
G02*
X189329880Y-93720340I0J-100000D01*
G01*
G37*
G04 #@! TD.AperFunction*
G04 #@! TA.AperFunction,SMDPad,CuDef*
G36*
G01*
X189329880Y-94370340D02*
X189329880Y-94570340D01*
G75*
G02*
X189229880Y-94670340I-100000J0D01*
G01*
X187954880Y-94670340D01*
G75*
G02*
X187854880Y-94570340I0J100000D01*
G01*
X187854880Y-94370340D01*
G75*
G02*
X187954880Y-94270340I100000J0D01*
G01*
X189229880Y-94270340D01*
G75*
G02*
X189329880Y-94370340I0J-100000D01*
G01*
G37*
G04 #@! TD.AperFunction*
G04 #@! TA.AperFunction,SMDPad,CuDef*
G36*
G01*
X189329880Y-95020340D02*
X189329880Y-95220340D01*
G75*
G02*
X189229880Y-95320340I-100000J0D01*
G01*
X187954880Y-95320340D01*
G75*
G02*
X187854880Y-95220340I0J100000D01*
G01*
X187854880Y-95020340D01*
G75*
G02*
X187954880Y-94920340I100000J0D01*
G01*
X189229880Y-94920340D01*
G75*
G02*
X189329880Y-95020340I0J-100000D01*
G01*
G37*
G04 #@! TD.AperFunction*
G04 #@! TA.AperFunction,SMDPad,CuDef*
G36*
G01*
X189329880Y-95670340D02*
X189329880Y-95870340D01*
G75*
G02*
X189229880Y-95970340I-100000J0D01*
G01*
X187954880Y-95970340D01*
G75*
G02*
X187854880Y-95870340I0J100000D01*
G01*
X187854880Y-95670340D01*
G75*
G02*
X187954880Y-95570340I100000J0D01*
G01*
X189229880Y-95570340D01*
G75*
G02*
X189329880Y-95670340I0J-100000D01*
G01*
G37*
G04 #@! TD.AperFunction*
G04 #@! TA.AperFunction,SMDPad,CuDef*
G36*
G01*
X189329880Y-96320340D02*
X189329880Y-96520340D01*
G75*
G02*
X189229880Y-96620340I-100000J0D01*
G01*
X187954880Y-96620340D01*
G75*
G02*
X187854880Y-96520340I0J100000D01*
G01*
X187854880Y-96320340D01*
G75*
G02*
X187954880Y-96220340I100000J0D01*
G01*
X189229880Y-96220340D01*
G75*
G02*
X189329880Y-96320340I0J-100000D01*
G01*
G37*
G04 #@! TD.AperFunction*
G04 #@! TA.AperFunction,SMDPad,CuDef*
G36*
G01*
X189329880Y-96970340D02*
X189329880Y-97170340D01*
G75*
G02*
X189229880Y-97270340I-100000J0D01*
G01*
X187954880Y-97270340D01*
G75*
G02*
X187854880Y-97170340I0J100000D01*
G01*
X187854880Y-96970340D01*
G75*
G02*
X187954880Y-96870340I100000J0D01*
G01*
X189229880Y-96870340D01*
G75*
G02*
X189329880Y-96970340I0J-100000D01*
G01*
G37*
G04 #@! TD.AperFunction*
G04 #@! TA.AperFunction,SMDPad,CuDef*
G36*
G01*
X189329880Y-97620340D02*
X189329880Y-97820340D01*
G75*
G02*
X189229880Y-97920340I-100000J0D01*
G01*
X187954880Y-97920340D01*
G75*
G02*
X187854880Y-97820340I0J100000D01*
G01*
X187854880Y-97620340D01*
G75*
G02*
X187954880Y-97520340I100000J0D01*
G01*
X189229880Y-97520340D01*
G75*
G02*
X189329880Y-97620340I0J-100000D01*
G01*
G37*
G04 #@! TD.AperFunction*
G04 #@! TA.AperFunction,SMDPad,CuDef*
G36*
G01*
X168845520Y-96971600D02*
X168845520Y-96771600D01*
G75*
G02*
X168945520Y-96671600I100000J0D01*
G01*
X170220520Y-96671600D01*
G75*
G02*
X170320520Y-96771600I0J-100000D01*
G01*
X170320520Y-96971600D01*
G75*
G02*
X170220520Y-97071600I-100000J0D01*
G01*
X168945520Y-97071600D01*
G75*
G02*
X168845520Y-96971600I0J100000D01*
G01*
G37*
G04 #@! TD.AperFunction*
G04 #@! TA.AperFunction,SMDPad,CuDef*
G36*
G01*
X168845520Y-97621600D02*
X168845520Y-97421600D01*
G75*
G02*
X168945520Y-97321600I100000J0D01*
G01*
X170220520Y-97321600D01*
G75*
G02*
X170320520Y-97421600I0J-100000D01*
G01*
X170320520Y-97621600D01*
G75*
G02*
X170220520Y-97721600I-100000J0D01*
G01*
X168945520Y-97721600D01*
G75*
G02*
X168845520Y-97621600I0J100000D01*
G01*
G37*
G04 #@! TD.AperFunction*
G04 #@! TA.AperFunction,SMDPad,CuDef*
G36*
G01*
X168845520Y-98271600D02*
X168845520Y-98071600D01*
G75*
G02*
X168945520Y-97971600I100000J0D01*
G01*
X170220520Y-97971600D01*
G75*
G02*
X170320520Y-98071600I0J-100000D01*
G01*
X170320520Y-98271600D01*
G75*
G02*
X170220520Y-98371600I-100000J0D01*
G01*
X168945520Y-98371600D01*
G75*
G02*
X168845520Y-98271600I0J100000D01*
G01*
G37*
G04 #@! TD.AperFunction*
G04 #@! TA.AperFunction,SMDPad,CuDef*
G36*
G01*
X168845520Y-98921600D02*
X168845520Y-98721600D01*
G75*
G02*
X168945520Y-98621600I100000J0D01*
G01*
X170220520Y-98621600D01*
G75*
G02*
X170320520Y-98721600I0J-100000D01*
G01*
X170320520Y-98921600D01*
G75*
G02*
X170220520Y-99021600I-100000J0D01*
G01*
X168945520Y-99021600D01*
G75*
G02*
X168845520Y-98921600I0J100000D01*
G01*
G37*
G04 #@! TD.AperFunction*
G04 #@! TA.AperFunction,SMDPad,CuDef*
G36*
G01*
X168845520Y-99571600D02*
X168845520Y-99371600D01*
G75*
G02*
X168945520Y-99271600I100000J0D01*
G01*
X170220520Y-99271600D01*
G75*
G02*
X170320520Y-99371600I0J-100000D01*
G01*
X170320520Y-99571600D01*
G75*
G02*
X170220520Y-99671600I-100000J0D01*
G01*
X168945520Y-99671600D01*
G75*
G02*
X168845520Y-99571600I0J100000D01*
G01*
G37*
G04 #@! TD.AperFunction*
G04 #@! TA.AperFunction,SMDPad,CuDef*
G36*
G01*
X168845520Y-100221600D02*
X168845520Y-100021600D01*
G75*
G02*
X168945520Y-99921600I100000J0D01*
G01*
X170220520Y-99921600D01*
G75*
G02*
X170320520Y-100021600I0J-100000D01*
G01*
X170320520Y-100221600D01*
G75*
G02*
X170220520Y-100321600I-100000J0D01*
G01*
X168945520Y-100321600D01*
G75*
G02*
X168845520Y-100221600I0J100000D01*
G01*
G37*
G04 #@! TD.AperFunction*
G04 #@! TA.AperFunction,SMDPad,CuDef*
G36*
G01*
X168845520Y-100871600D02*
X168845520Y-100671600D01*
G75*
G02*
X168945520Y-100571600I100000J0D01*
G01*
X170220520Y-100571600D01*
G75*
G02*
X170320520Y-100671600I0J-100000D01*
G01*
X170320520Y-100871600D01*
G75*
G02*
X170220520Y-100971600I-100000J0D01*
G01*
X168945520Y-100971600D01*
G75*
G02*
X168845520Y-100871600I0J100000D01*
G01*
G37*
G04 #@! TD.AperFunction*
G04 #@! TA.AperFunction,SMDPad,CuDef*
G36*
G01*
X168845520Y-101521600D02*
X168845520Y-101321600D01*
G75*
G02*
X168945520Y-101221600I100000J0D01*
G01*
X170220520Y-101221600D01*
G75*
G02*
X170320520Y-101321600I0J-100000D01*
G01*
X170320520Y-101521600D01*
G75*
G02*
X170220520Y-101621600I-100000J0D01*
G01*
X168945520Y-101621600D01*
G75*
G02*
X168845520Y-101521600I0J100000D01*
G01*
G37*
G04 #@! TD.AperFunction*
G04 #@! TA.AperFunction,SMDPad,CuDef*
G36*
G01*
X168845520Y-102171600D02*
X168845520Y-101971600D01*
G75*
G02*
X168945520Y-101871600I100000J0D01*
G01*
X170220520Y-101871600D01*
G75*
G02*
X170320520Y-101971600I0J-100000D01*
G01*
X170320520Y-102171600D01*
G75*
G02*
X170220520Y-102271600I-100000J0D01*
G01*
X168945520Y-102271600D01*
G75*
G02*
X168845520Y-102171600I0J100000D01*
G01*
G37*
G04 #@! TD.AperFunction*
G04 #@! TA.AperFunction,SMDPad,CuDef*
G36*
G01*
X168845520Y-102821600D02*
X168845520Y-102621600D01*
G75*
G02*
X168945520Y-102521600I100000J0D01*
G01*
X170220520Y-102521600D01*
G75*
G02*
X170320520Y-102621600I0J-100000D01*
G01*
X170320520Y-102821600D01*
G75*
G02*
X170220520Y-102921600I-100000J0D01*
G01*
X168945520Y-102921600D01*
G75*
G02*
X168845520Y-102821600I0J100000D01*
G01*
G37*
G04 #@! TD.AperFunction*
G04 #@! TA.AperFunction,SMDPad,CuDef*
G36*
G01*
X163120520Y-102821600D02*
X163120520Y-102621600D01*
G75*
G02*
X163220520Y-102521600I100000J0D01*
G01*
X164495520Y-102521600D01*
G75*
G02*
X164595520Y-102621600I0J-100000D01*
G01*
X164595520Y-102821600D01*
G75*
G02*
X164495520Y-102921600I-100000J0D01*
G01*
X163220520Y-102921600D01*
G75*
G02*
X163120520Y-102821600I0J100000D01*
G01*
G37*
G04 #@! TD.AperFunction*
G04 #@! TA.AperFunction,SMDPad,CuDef*
G36*
G01*
X163120520Y-102171600D02*
X163120520Y-101971600D01*
G75*
G02*
X163220520Y-101871600I100000J0D01*
G01*
X164495520Y-101871600D01*
G75*
G02*
X164595520Y-101971600I0J-100000D01*
G01*
X164595520Y-102171600D01*
G75*
G02*
X164495520Y-102271600I-100000J0D01*
G01*
X163220520Y-102271600D01*
G75*
G02*
X163120520Y-102171600I0J100000D01*
G01*
G37*
G04 #@! TD.AperFunction*
G04 #@! TA.AperFunction,SMDPad,CuDef*
G36*
G01*
X163120520Y-101521600D02*
X163120520Y-101321600D01*
G75*
G02*
X163220520Y-101221600I100000J0D01*
G01*
X164495520Y-101221600D01*
G75*
G02*
X164595520Y-101321600I0J-100000D01*
G01*
X164595520Y-101521600D01*
G75*
G02*
X164495520Y-101621600I-100000J0D01*
G01*
X163220520Y-101621600D01*
G75*
G02*
X163120520Y-101521600I0J100000D01*
G01*
G37*
G04 #@! TD.AperFunction*
G04 #@! TA.AperFunction,SMDPad,CuDef*
G36*
G01*
X163120520Y-100871600D02*
X163120520Y-100671600D01*
G75*
G02*
X163220520Y-100571600I100000J0D01*
G01*
X164495520Y-100571600D01*
G75*
G02*
X164595520Y-100671600I0J-100000D01*
G01*
X164595520Y-100871600D01*
G75*
G02*
X164495520Y-100971600I-100000J0D01*
G01*
X163220520Y-100971600D01*
G75*
G02*
X163120520Y-100871600I0J100000D01*
G01*
G37*
G04 #@! TD.AperFunction*
G04 #@! TA.AperFunction,SMDPad,CuDef*
G36*
G01*
X163120520Y-100221600D02*
X163120520Y-100021600D01*
G75*
G02*
X163220520Y-99921600I100000J0D01*
G01*
X164495520Y-99921600D01*
G75*
G02*
X164595520Y-100021600I0J-100000D01*
G01*
X164595520Y-100221600D01*
G75*
G02*
X164495520Y-100321600I-100000J0D01*
G01*
X163220520Y-100321600D01*
G75*
G02*
X163120520Y-100221600I0J100000D01*
G01*
G37*
G04 #@! TD.AperFunction*
G04 #@! TA.AperFunction,SMDPad,CuDef*
G36*
G01*
X163120520Y-99571600D02*
X163120520Y-99371600D01*
G75*
G02*
X163220520Y-99271600I100000J0D01*
G01*
X164495520Y-99271600D01*
G75*
G02*
X164595520Y-99371600I0J-100000D01*
G01*
X164595520Y-99571600D01*
G75*
G02*
X164495520Y-99671600I-100000J0D01*
G01*
X163220520Y-99671600D01*
G75*
G02*
X163120520Y-99571600I0J100000D01*
G01*
G37*
G04 #@! TD.AperFunction*
G04 #@! TA.AperFunction,SMDPad,CuDef*
G36*
G01*
X163120520Y-98921600D02*
X163120520Y-98721600D01*
G75*
G02*
X163220520Y-98621600I100000J0D01*
G01*
X164495520Y-98621600D01*
G75*
G02*
X164595520Y-98721600I0J-100000D01*
G01*
X164595520Y-98921600D01*
G75*
G02*
X164495520Y-99021600I-100000J0D01*
G01*
X163220520Y-99021600D01*
G75*
G02*
X163120520Y-98921600I0J100000D01*
G01*
G37*
G04 #@! TD.AperFunction*
G04 #@! TA.AperFunction,SMDPad,CuDef*
G36*
G01*
X163120520Y-98271600D02*
X163120520Y-98071600D01*
G75*
G02*
X163220520Y-97971600I100000J0D01*
G01*
X164495520Y-97971600D01*
G75*
G02*
X164595520Y-98071600I0J-100000D01*
G01*
X164595520Y-98271600D01*
G75*
G02*
X164495520Y-98371600I-100000J0D01*
G01*
X163220520Y-98371600D01*
G75*
G02*
X163120520Y-98271600I0J100000D01*
G01*
G37*
G04 #@! TD.AperFunction*
G04 #@! TA.AperFunction,SMDPad,CuDef*
G36*
G01*
X163120520Y-97621600D02*
X163120520Y-97421600D01*
G75*
G02*
X163220520Y-97321600I100000J0D01*
G01*
X164495520Y-97321600D01*
G75*
G02*
X164595520Y-97421600I0J-100000D01*
G01*
X164595520Y-97621600D01*
G75*
G02*
X164495520Y-97721600I-100000J0D01*
G01*
X163220520Y-97721600D01*
G75*
G02*
X163120520Y-97621600I0J100000D01*
G01*
G37*
G04 #@! TD.AperFunction*
G04 #@! TA.AperFunction,SMDPad,CuDef*
G36*
G01*
X163120520Y-96971600D02*
X163120520Y-96771600D01*
G75*
G02*
X163220520Y-96671600I100000J0D01*
G01*
X164495520Y-96671600D01*
G75*
G02*
X164595520Y-96771600I0J-100000D01*
G01*
X164595520Y-96971600D01*
G75*
G02*
X164495520Y-97071600I-100000J0D01*
G01*
X163220520Y-97071600D01*
G75*
G02*
X163120520Y-96971600I0J100000D01*
G01*
G37*
G04 #@! TD.AperFunction*
G04 #@! TA.AperFunction,SMDPad,CuDef*
G36*
G01*
X168792180Y-80095840D02*
X168792180Y-79895840D01*
G75*
G02*
X168892180Y-79795840I100000J0D01*
G01*
X170167180Y-79795840D01*
G75*
G02*
X170267180Y-79895840I0J-100000D01*
G01*
X170267180Y-80095840D01*
G75*
G02*
X170167180Y-80195840I-100000J0D01*
G01*
X168892180Y-80195840D01*
G75*
G02*
X168792180Y-80095840I0J100000D01*
G01*
G37*
G04 #@! TD.AperFunction*
G04 #@! TA.AperFunction,SMDPad,CuDef*
G36*
G01*
X168792180Y-80745840D02*
X168792180Y-80545840D01*
G75*
G02*
X168892180Y-80445840I100000J0D01*
G01*
X170167180Y-80445840D01*
G75*
G02*
X170267180Y-80545840I0J-100000D01*
G01*
X170267180Y-80745840D01*
G75*
G02*
X170167180Y-80845840I-100000J0D01*
G01*
X168892180Y-80845840D01*
G75*
G02*
X168792180Y-80745840I0J100000D01*
G01*
G37*
G04 #@! TD.AperFunction*
G04 #@! TA.AperFunction,SMDPad,CuDef*
G36*
G01*
X168792180Y-81395840D02*
X168792180Y-81195840D01*
G75*
G02*
X168892180Y-81095840I100000J0D01*
G01*
X170167180Y-81095840D01*
G75*
G02*
X170267180Y-81195840I0J-100000D01*
G01*
X170267180Y-81395840D01*
G75*
G02*
X170167180Y-81495840I-100000J0D01*
G01*
X168892180Y-81495840D01*
G75*
G02*
X168792180Y-81395840I0J100000D01*
G01*
G37*
G04 #@! TD.AperFunction*
G04 #@! TA.AperFunction,SMDPad,CuDef*
G36*
G01*
X168792180Y-82045840D02*
X168792180Y-81845840D01*
G75*
G02*
X168892180Y-81745840I100000J0D01*
G01*
X170167180Y-81745840D01*
G75*
G02*
X170267180Y-81845840I0J-100000D01*
G01*
X170267180Y-82045840D01*
G75*
G02*
X170167180Y-82145840I-100000J0D01*
G01*
X168892180Y-82145840D01*
G75*
G02*
X168792180Y-82045840I0J100000D01*
G01*
G37*
G04 #@! TD.AperFunction*
G04 #@! TA.AperFunction,SMDPad,CuDef*
G36*
G01*
X168792180Y-82695840D02*
X168792180Y-82495840D01*
G75*
G02*
X168892180Y-82395840I100000J0D01*
G01*
X170167180Y-82395840D01*
G75*
G02*
X170267180Y-82495840I0J-100000D01*
G01*
X170267180Y-82695840D01*
G75*
G02*
X170167180Y-82795840I-100000J0D01*
G01*
X168892180Y-82795840D01*
G75*
G02*
X168792180Y-82695840I0J100000D01*
G01*
G37*
G04 #@! TD.AperFunction*
G04 #@! TA.AperFunction,SMDPad,CuDef*
G36*
G01*
X168792180Y-83345840D02*
X168792180Y-83145840D01*
G75*
G02*
X168892180Y-83045840I100000J0D01*
G01*
X170167180Y-83045840D01*
G75*
G02*
X170267180Y-83145840I0J-100000D01*
G01*
X170267180Y-83345840D01*
G75*
G02*
X170167180Y-83445840I-100000J0D01*
G01*
X168892180Y-83445840D01*
G75*
G02*
X168792180Y-83345840I0J100000D01*
G01*
G37*
G04 #@! TD.AperFunction*
G04 #@! TA.AperFunction,SMDPad,CuDef*
G36*
G01*
X168792180Y-83995840D02*
X168792180Y-83795840D01*
G75*
G02*
X168892180Y-83695840I100000J0D01*
G01*
X170167180Y-83695840D01*
G75*
G02*
X170267180Y-83795840I0J-100000D01*
G01*
X170267180Y-83995840D01*
G75*
G02*
X170167180Y-84095840I-100000J0D01*
G01*
X168892180Y-84095840D01*
G75*
G02*
X168792180Y-83995840I0J100000D01*
G01*
G37*
G04 #@! TD.AperFunction*
G04 #@! TA.AperFunction,SMDPad,CuDef*
G36*
G01*
X168792180Y-84645840D02*
X168792180Y-84445840D01*
G75*
G02*
X168892180Y-84345840I100000J0D01*
G01*
X170167180Y-84345840D01*
G75*
G02*
X170267180Y-84445840I0J-100000D01*
G01*
X170267180Y-84645840D01*
G75*
G02*
X170167180Y-84745840I-100000J0D01*
G01*
X168892180Y-84745840D01*
G75*
G02*
X168792180Y-84645840I0J100000D01*
G01*
G37*
G04 #@! TD.AperFunction*
G04 #@! TA.AperFunction,SMDPad,CuDef*
G36*
G01*
X168792180Y-85295840D02*
X168792180Y-85095840D01*
G75*
G02*
X168892180Y-84995840I100000J0D01*
G01*
X170167180Y-84995840D01*
G75*
G02*
X170267180Y-85095840I0J-100000D01*
G01*
X170267180Y-85295840D01*
G75*
G02*
X170167180Y-85395840I-100000J0D01*
G01*
X168892180Y-85395840D01*
G75*
G02*
X168792180Y-85295840I0J100000D01*
G01*
G37*
G04 #@! TD.AperFunction*
G04 #@! TA.AperFunction,SMDPad,CuDef*
G36*
G01*
X168792180Y-85945840D02*
X168792180Y-85745840D01*
G75*
G02*
X168892180Y-85645840I100000J0D01*
G01*
X170167180Y-85645840D01*
G75*
G02*
X170267180Y-85745840I0J-100000D01*
G01*
X170267180Y-85945840D01*
G75*
G02*
X170167180Y-86045840I-100000J0D01*
G01*
X168892180Y-86045840D01*
G75*
G02*
X168792180Y-85945840I0J100000D01*
G01*
G37*
G04 #@! TD.AperFunction*
G04 #@! TA.AperFunction,SMDPad,CuDef*
G36*
G01*
X163067180Y-85945840D02*
X163067180Y-85745840D01*
G75*
G02*
X163167180Y-85645840I100000J0D01*
G01*
X164442180Y-85645840D01*
G75*
G02*
X164542180Y-85745840I0J-100000D01*
G01*
X164542180Y-85945840D01*
G75*
G02*
X164442180Y-86045840I-100000J0D01*
G01*
X163167180Y-86045840D01*
G75*
G02*
X163067180Y-85945840I0J100000D01*
G01*
G37*
G04 #@! TD.AperFunction*
G04 #@! TA.AperFunction,SMDPad,CuDef*
G36*
G01*
X163067180Y-85295840D02*
X163067180Y-85095840D01*
G75*
G02*
X163167180Y-84995840I100000J0D01*
G01*
X164442180Y-84995840D01*
G75*
G02*
X164542180Y-85095840I0J-100000D01*
G01*
X164542180Y-85295840D01*
G75*
G02*
X164442180Y-85395840I-100000J0D01*
G01*
X163167180Y-85395840D01*
G75*
G02*
X163067180Y-85295840I0J100000D01*
G01*
G37*
G04 #@! TD.AperFunction*
G04 #@! TA.AperFunction,SMDPad,CuDef*
G36*
G01*
X163067180Y-84645840D02*
X163067180Y-84445840D01*
G75*
G02*
X163167180Y-84345840I100000J0D01*
G01*
X164442180Y-84345840D01*
G75*
G02*
X164542180Y-84445840I0J-100000D01*
G01*
X164542180Y-84645840D01*
G75*
G02*
X164442180Y-84745840I-100000J0D01*
G01*
X163167180Y-84745840D01*
G75*
G02*
X163067180Y-84645840I0J100000D01*
G01*
G37*
G04 #@! TD.AperFunction*
G04 #@! TA.AperFunction,SMDPad,CuDef*
G36*
G01*
X163067180Y-83995840D02*
X163067180Y-83795840D01*
G75*
G02*
X163167180Y-83695840I100000J0D01*
G01*
X164442180Y-83695840D01*
G75*
G02*
X164542180Y-83795840I0J-100000D01*
G01*
X164542180Y-83995840D01*
G75*
G02*
X164442180Y-84095840I-100000J0D01*
G01*
X163167180Y-84095840D01*
G75*
G02*
X163067180Y-83995840I0J100000D01*
G01*
G37*
G04 #@! TD.AperFunction*
G04 #@! TA.AperFunction,SMDPad,CuDef*
G36*
G01*
X163067180Y-83345840D02*
X163067180Y-83145840D01*
G75*
G02*
X163167180Y-83045840I100000J0D01*
G01*
X164442180Y-83045840D01*
G75*
G02*
X164542180Y-83145840I0J-100000D01*
G01*
X164542180Y-83345840D01*
G75*
G02*
X164442180Y-83445840I-100000J0D01*
G01*
X163167180Y-83445840D01*
G75*
G02*
X163067180Y-83345840I0J100000D01*
G01*
G37*
G04 #@! TD.AperFunction*
G04 #@! TA.AperFunction,SMDPad,CuDef*
G36*
G01*
X163067180Y-82695840D02*
X163067180Y-82495840D01*
G75*
G02*
X163167180Y-82395840I100000J0D01*
G01*
X164442180Y-82395840D01*
G75*
G02*
X164542180Y-82495840I0J-100000D01*
G01*
X164542180Y-82695840D01*
G75*
G02*
X164442180Y-82795840I-100000J0D01*
G01*
X163167180Y-82795840D01*
G75*
G02*
X163067180Y-82695840I0J100000D01*
G01*
G37*
G04 #@! TD.AperFunction*
G04 #@! TA.AperFunction,SMDPad,CuDef*
G36*
G01*
X163067180Y-82045840D02*
X163067180Y-81845840D01*
G75*
G02*
X163167180Y-81745840I100000J0D01*
G01*
X164442180Y-81745840D01*
G75*
G02*
X164542180Y-81845840I0J-100000D01*
G01*
X164542180Y-82045840D01*
G75*
G02*
X164442180Y-82145840I-100000J0D01*
G01*
X163167180Y-82145840D01*
G75*
G02*
X163067180Y-82045840I0J100000D01*
G01*
G37*
G04 #@! TD.AperFunction*
G04 #@! TA.AperFunction,SMDPad,CuDef*
G36*
G01*
X163067180Y-81395840D02*
X163067180Y-81195840D01*
G75*
G02*
X163167180Y-81095840I100000J0D01*
G01*
X164442180Y-81095840D01*
G75*
G02*
X164542180Y-81195840I0J-100000D01*
G01*
X164542180Y-81395840D01*
G75*
G02*
X164442180Y-81495840I-100000J0D01*
G01*
X163167180Y-81495840D01*
G75*
G02*
X163067180Y-81395840I0J100000D01*
G01*
G37*
G04 #@! TD.AperFunction*
G04 #@! TA.AperFunction,SMDPad,CuDef*
G36*
G01*
X163067180Y-80745840D02*
X163067180Y-80545840D01*
G75*
G02*
X163167180Y-80445840I100000J0D01*
G01*
X164442180Y-80445840D01*
G75*
G02*
X164542180Y-80545840I0J-100000D01*
G01*
X164542180Y-80745840D01*
G75*
G02*
X164442180Y-80845840I-100000J0D01*
G01*
X163167180Y-80845840D01*
G75*
G02*
X163067180Y-80745840I0J100000D01*
G01*
G37*
G04 #@! TD.AperFunction*
G04 #@! TA.AperFunction,SMDPad,CuDef*
G36*
G01*
X163067180Y-80095840D02*
X163067180Y-79895840D01*
G75*
G02*
X163167180Y-79795840I100000J0D01*
G01*
X164442180Y-79795840D01*
G75*
G02*
X164542180Y-79895840I0J-100000D01*
G01*
X164542180Y-80095840D01*
G75*
G02*
X164442180Y-80195840I-100000J0D01*
G01*
X163167180Y-80195840D01*
G75*
G02*
X163067180Y-80095840I0J100000D01*
G01*
G37*
G04 #@! TD.AperFunction*
D12*
X178290220Y-113644680D03*
X178290220Y-111104680D03*
X178290220Y-108564680D03*
X178290220Y-106024680D03*
X178290220Y-103484680D03*
X178290220Y-100944680D03*
X178290220Y-98404680D03*
X178290220Y-95864680D03*
X178290220Y-93324680D03*
X178290220Y-90784680D03*
X178290220Y-88244680D03*
X178290220Y-85704680D03*
X178290220Y-83164680D03*
X178290220Y-80624680D03*
D11*
X193530220Y-113644680D03*
D12*
X193530220Y-111104680D03*
X193530220Y-108564680D03*
X193530220Y-106024680D03*
X193530220Y-103484680D03*
X193530220Y-100944680D03*
X193530220Y-98404680D03*
X193530220Y-95864680D03*
X193530220Y-93324680D03*
X193530220Y-90784680D03*
X193530220Y-88244680D03*
X193530220Y-85704680D03*
X193530220Y-83164680D03*
X178290220Y-78084680D03*
X178290220Y-75544680D03*
X178290220Y-73004680D03*
X178290220Y-70464680D03*
X178290220Y-67924680D03*
X178290220Y-65384680D03*
X178290220Y-62844680D03*
X178290220Y-60304680D03*
X178290220Y-57764680D03*
X178290220Y-55224680D03*
X193530220Y-55224680D03*
X193530220Y-57764680D03*
X193530220Y-60304680D03*
X193530220Y-62844680D03*
X193530220Y-80624680D03*
X193530220Y-78084680D03*
X193530220Y-75544680D03*
X193530220Y-65384680D03*
X193530220Y-67924680D03*
X193530220Y-70464680D03*
X193530220Y-73004680D03*
D13*
X163901656Y-95861604D03*
X187190380Y-71543380D03*
X187319186Y-77479426D03*
X163837620Y-103479600D03*
X188247020Y-91178380D03*
X162991800Y-86895940D03*
X164383720Y-79265780D03*
X182387240Y-78191360D03*
X169400220Y-96131380D03*
X168079420Y-102910640D03*
X183205120Y-91414600D03*
X170253969Y-86823363D03*
X168216580Y-79329280D03*
X183542940Y-98623122D03*
X187792360Y-98844100D03*
X186171842Y-97368360D03*
X185917838Y-95275400D03*
X185808620Y-93291660D03*
X184861200Y-90360500D03*
X184690370Y-87668100D03*
X165790880Y-92293440D03*
X165415610Y-98595180D03*
X162001200Y-98800920D03*
X164386065Y-86729026D03*
X162699700Y-93065600D03*
X165386716Y-85920303D03*
X181250637Y-95688650D03*
X161320480Y-82821780D03*
X180421280Y-94787720D03*
X165739111Y-84981058D03*
X162255200Y-82598260D03*
X181416960Y-94503240D03*
X165757122Y-83876618D03*
X160609280Y-81805780D03*
X165564820Y-82616040D03*
X181498240Y-93588840D03*
X165615620Y-81701640D03*
X181538880Y-92745560D03*
X165539420Y-80688180D03*
X181620160Y-91186000D03*
X167165020Y-100081080D03*
X170657520Y-93553280D03*
X184690370Y-84602225D03*
X183309260Y-83550760D03*
X162501580Y-105608120D03*
X181460140Y-66164460D03*
X167403782Y-81132680D03*
X166768780Y-90213182D03*
X181637940Y-68117720D03*
X167708580Y-91719400D03*
X166070280Y-100820220D03*
X169011600Y-86809580D03*
X168160700Y-98729800D03*
D14*
X163858020Y-102721600D02*
X163858020Y-102071600D01*
X163858020Y-102071600D02*
X163858020Y-101421600D01*
X163858020Y-101421600D02*
X163858020Y-100771600D01*
X163858020Y-96871600D02*
X163858020Y-95905240D01*
X163858020Y-95905240D02*
X163901656Y-95861604D01*
X188592380Y-71451280D02*
X187282480Y-71451280D01*
X187282480Y-71451280D02*
X187190380Y-71543380D01*
X188592380Y-77301280D02*
X187497332Y-77301280D01*
X187497332Y-77301280D02*
X187319186Y-77479426D01*
X163858020Y-102721600D02*
X163858020Y-103459200D01*
X163858020Y-103459200D02*
X163837620Y-103479600D01*
X188592380Y-91870340D02*
X188247020Y-91524980D01*
X188247020Y-91524980D02*
X188247020Y-91178380D01*
X163804680Y-85845840D02*
X162991800Y-86658720D01*
X162991800Y-86658720D02*
X162991800Y-86895940D01*
X163804680Y-79995840D02*
X164383720Y-79416800D01*
X164383720Y-79416800D02*
X164383720Y-79265780D01*
X182867380Y-77711220D02*
X182387240Y-78191360D01*
X182867380Y-77301280D02*
X182867380Y-77711220D01*
X169583020Y-96871600D02*
X169583020Y-96314180D01*
X169583020Y-96314180D02*
X169400220Y-96131380D01*
X169583020Y-102721600D02*
X168268460Y-102721600D01*
X168268460Y-102721600D02*
X168079420Y-102910640D01*
X182867380Y-91870340D02*
X183205120Y-91532600D01*
X183205120Y-91532600D02*
X183205120Y-91414600D01*
X169529680Y-85845840D02*
X170253969Y-86570129D01*
X170253969Y-86570129D02*
X170253969Y-86823363D01*
X169529680Y-79995840D02*
X168863120Y-79329280D01*
X168863120Y-79329280D02*
X168216580Y-79329280D01*
X183542940Y-98395900D02*
X183542940Y-98623122D01*
X182867380Y-97720340D02*
X183542940Y-98395900D01*
X171472860Y-101273940D02*
X170320520Y-100121600D01*
X171472860Y-102529640D02*
X171472860Y-101273940D01*
X170320520Y-100121600D02*
X169583020Y-100121600D01*
X173906180Y-104962960D02*
X171472860Y-102529640D01*
X177228500Y-104962960D02*
X173906180Y-104962960D01*
X178290220Y-106024680D02*
X177228500Y-104962960D01*
X177379119Y-100033579D02*
X172911259Y-100033579D01*
X178290220Y-100944680D02*
X177379119Y-100033579D01*
X171699280Y-98821600D02*
X169583020Y-98821600D01*
X172911259Y-100033579D02*
X171699280Y-98821600D01*
X173935703Y-97493579D02*
X173257682Y-98171600D01*
X173257682Y-98171600D02*
X169583020Y-98171600D01*
X178290220Y-98404680D02*
X177379119Y-97493579D01*
X177379119Y-97493579D02*
X173935703Y-97493579D01*
X171126580Y-97521600D02*
X169583020Y-97521600D01*
X171523660Y-97124520D02*
X171126580Y-97521600D01*
X174838360Y-97124520D02*
X171523660Y-97124520D01*
X174856899Y-97105981D02*
X174838360Y-97124520D01*
X175392839Y-97105981D02*
X174856899Y-97105981D01*
X176634140Y-95864680D02*
X175392839Y-97105981D01*
X178290220Y-95864680D02*
X176634140Y-95864680D01*
X170267180Y-85195840D02*
X169529680Y-85195840D01*
X171122241Y-86050901D02*
X170267180Y-85195840D01*
X171122241Y-87274301D02*
X171122241Y-86050901D01*
X175056800Y-89697560D02*
X173545500Y-89697560D01*
X178290220Y-92930980D02*
X175056800Y-89697560D01*
X173545500Y-89697560D02*
X171122241Y-87274301D01*
X178290220Y-93324680D02*
X178290220Y-92930980D01*
X178290220Y-90784680D02*
X178290220Y-90418920D01*
X170267180Y-84545840D02*
X169529680Y-84545840D01*
X178290220Y-90418920D02*
X175204879Y-87333579D01*
X175204879Y-87333579D02*
X173054919Y-87333579D01*
X173054919Y-87333579D02*
X170267180Y-84545840D01*
X178290220Y-88244680D02*
X177088800Y-88244680D01*
X177088800Y-88244680D02*
X175790101Y-86945981D01*
X175790101Y-86945981D02*
X173813981Y-86945981D01*
X173813981Y-86945981D02*
X170763840Y-83895840D01*
X170763840Y-83895840D02*
X169529680Y-83895840D01*
X171218740Y-83245840D02*
X169529680Y-83245840D01*
X172766479Y-84793579D02*
X171218740Y-83245840D01*
X177379119Y-84793579D02*
X172766479Y-84793579D01*
X178290220Y-85704680D02*
X177379119Y-84793579D01*
X171455200Y-82595840D02*
X169529680Y-82595840D01*
X173300528Y-84441168D02*
X171455200Y-82595840D01*
X177013732Y-84441168D02*
X173300528Y-84441168D01*
X178290220Y-83164680D02*
X177013732Y-84441168D01*
X192454019Y-102408479D02*
X193530220Y-103484680D01*
X192454019Y-100194479D02*
X192454019Y-102408479D01*
X189329880Y-97070340D02*
X192454019Y-100194479D01*
X188592380Y-97070340D02*
X189329880Y-97070340D01*
X187854880Y-97070340D02*
X188592380Y-97070340D01*
X186743544Y-82824009D02*
X187578670Y-83659135D01*
X188592380Y-76651280D02*
X186945184Y-76651280D01*
X186945184Y-76651280D02*
X186743544Y-76852920D01*
X187578670Y-83659135D02*
X187578670Y-96794130D01*
X186743544Y-76852920D02*
X186743544Y-82824009D01*
X187578670Y-96794130D02*
X187854880Y-97070340D01*
X193530220Y-100620680D02*
X193530220Y-100944680D01*
X189329880Y-96420340D02*
X193530220Y-100620680D01*
X188592380Y-96420340D02*
X189329880Y-96420340D01*
X186391133Y-76706947D02*
X186391133Y-82969982D01*
X187226259Y-98277999D02*
X187792360Y-98844100D01*
X187096800Y-76001280D02*
X186391133Y-76706947D01*
X187226259Y-83805108D02*
X187226259Y-98277999D01*
X186391133Y-82969982D02*
X187226259Y-83805108D01*
X188592380Y-76001280D02*
X187096800Y-76001280D01*
X190895880Y-95770340D02*
X193530220Y-98404680D01*
X188592380Y-95770340D02*
X190895880Y-95770340D01*
X186873848Y-96666354D02*
X186171842Y-97368360D01*
X186873848Y-83951081D02*
X186873848Y-96666354D01*
X186031481Y-83108714D02*
X186873848Y-83951081D01*
X186031481Y-76568215D02*
X186031481Y-83108714D01*
X187248416Y-75351280D02*
X186031481Y-76568215D01*
X188592380Y-75351280D02*
X187248416Y-75351280D01*
X192785880Y-95120340D02*
X193530220Y-95864680D01*
X188592380Y-95120340D02*
X192785880Y-95120340D01*
X186521437Y-94671801D02*
X185917838Y-95275400D01*
X185679070Y-76422242D02*
X185679070Y-83254687D01*
X186521437Y-84097054D02*
X186521437Y-94671801D01*
X187400032Y-74701280D02*
X185679070Y-76422242D01*
X185679070Y-83254687D02*
X186521437Y-84097054D01*
X188592380Y-74701280D02*
X187400032Y-74701280D01*
X192384560Y-94470340D02*
X193530220Y-93324680D01*
X188592380Y-94470340D02*
X192384560Y-94470340D01*
X188592380Y-74051280D02*
X187551648Y-74051280D01*
X185320282Y-76282646D02*
X185320282Y-83394283D01*
X186100719Y-84174720D02*
X186100719Y-92999561D01*
X186100719Y-92999561D02*
X185808620Y-93291660D01*
X185320282Y-83394283D02*
X186100719Y-84174720D01*
X187551648Y-74051280D02*
X185320282Y-76282646D01*
X190494560Y-93820340D02*
X193530220Y-90784680D01*
X188592380Y-93820340D02*
X190494560Y-93820340D01*
X188592380Y-73401280D02*
X187703264Y-73401280D01*
X187703264Y-73401280D02*
X184957061Y-76147483D01*
X185611082Y-89610618D02*
X184861200Y-90360500D01*
X184957061Y-83529446D02*
X185611082Y-84183467D01*
X185611082Y-84183467D02*
X185611082Y-89610618D01*
X184957061Y-76147483D02*
X184957061Y-83529446D01*
X193530220Y-88970000D02*
X193530220Y-88244680D01*
X189329880Y-93170340D02*
X193530220Y-88970000D01*
X188592380Y-93170340D02*
X189329880Y-93170340D01*
X187854880Y-72751280D02*
X184556755Y-76049405D01*
X184556755Y-83627524D02*
X185258671Y-84329440D01*
X188592380Y-72751280D02*
X187854880Y-72751280D01*
X185258671Y-84329440D02*
X185258671Y-87099799D01*
X185258671Y-87099799D02*
X184690370Y-87668100D01*
X184556755Y-76049405D02*
X184556755Y-83627524D01*
X192454019Y-86780881D02*
X193530220Y-85704680D01*
X192454019Y-89396201D02*
X192454019Y-86780881D01*
X189329880Y-92520340D02*
X192454019Y-89396201D01*
X188592380Y-92520340D02*
X189329880Y-92520340D01*
X189329880Y-72101280D02*
X190198389Y-72969789D01*
X190198389Y-72969789D02*
X190198389Y-82372849D01*
X188592380Y-72101280D02*
X189329880Y-72101280D01*
X190198389Y-82372849D02*
X193530220Y-85704680D01*
X177416460Y-75544680D02*
X178290220Y-75544680D01*
X175994060Y-76967080D02*
X177416460Y-75544680D01*
X173647100Y-76967080D02*
X175994060Y-76967080D01*
X172211640Y-78402540D02*
X173647100Y-76967080D01*
X172211640Y-81153360D02*
X172211640Y-78402540D01*
X171419160Y-81945840D02*
X172211640Y-81153360D01*
X169529680Y-81945840D02*
X171419160Y-81945840D01*
X177302160Y-72016620D02*
X178290220Y-73004680D01*
X173454060Y-72016620D02*
X177302160Y-72016620D01*
X171483020Y-73987660D02*
X173454060Y-72016620D01*
X170267180Y-81295840D02*
X171483020Y-80080000D01*
X171483020Y-80080000D02*
X171483020Y-73987660D01*
X169529680Y-81295840D02*
X170267180Y-81295840D01*
X176596040Y-70464680D02*
X178290220Y-70464680D01*
X175655591Y-69524231D02*
X176596040Y-70464680D01*
X173965051Y-69524231D02*
X175655591Y-69524231D01*
X170543390Y-72945892D02*
X173965051Y-69524231D01*
X170543390Y-80369630D02*
X170543390Y-72945892D01*
X170267180Y-80645840D02*
X170543390Y-80369630D01*
X169529680Y-80645840D02*
X170267180Y-80645840D01*
X175915320Y-63009780D02*
X178290220Y-65384680D01*
X174452280Y-63009780D02*
X175915320Y-63009780D01*
X175915320Y-60469780D02*
X178290220Y-62844680D01*
X174452280Y-60469780D02*
X175915320Y-60469780D01*
X175915320Y-57929780D02*
X178290220Y-60304680D01*
X174452280Y-57929780D02*
X175915320Y-57929780D01*
X176070260Y-56548020D02*
X177286920Y-57764680D01*
X177286920Y-57764680D02*
X178290220Y-57764680D01*
X160594040Y-56548020D02*
X176070260Y-56548020D01*
X159212280Y-57929780D02*
X160594040Y-56548020D01*
X165189190Y-98821600D02*
X165415610Y-98595180D01*
X163858020Y-98821600D02*
X165189190Y-98821600D01*
X165790880Y-92278200D02*
X165790880Y-92293440D01*
X165790880Y-89252712D02*
X165790880Y-92278200D01*
X166594179Y-88449413D02*
X165790880Y-89252712D01*
X166594179Y-78011679D02*
X166594179Y-88449413D01*
X159212280Y-70629780D02*
X166594179Y-78011679D01*
X162630520Y-98171600D02*
X162001200Y-98800920D01*
X163858020Y-98171600D02*
X162630520Y-98171600D01*
X160260460Y-97521600D02*
X159212280Y-98569780D01*
X163858020Y-97521600D02*
X160260460Y-97521600D01*
X159212280Y-90949780D02*
X161444940Y-88717120D01*
X161444940Y-88717120D02*
X161444940Y-86164420D01*
X162413520Y-85195840D02*
X163804680Y-85195840D01*
X161444940Y-86164420D02*
X162413520Y-85195840D01*
X181088658Y-97070340D02*
X178806797Y-94788479D01*
X176201752Y-94918392D02*
X163180892Y-94918392D01*
X182867380Y-97070340D02*
X181088658Y-97070340D01*
X178806797Y-94788479D02*
X176331665Y-94788479D01*
X176331665Y-94788479D02*
X176201752Y-94918392D01*
X163180892Y-94918392D02*
X159212280Y-90949780D01*
X164818390Y-86296701D02*
X164386065Y-86729026D01*
X164483286Y-84545840D02*
X164818390Y-84880944D01*
X164818390Y-84880944D02*
X164818390Y-86296701D01*
X163804680Y-84545840D02*
X164483286Y-84545840D01*
X164200081Y-94565981D02*
X162699700Y-93065600D01*
X180937042Y-96420340D02*
X178952770Y-94436068D01*
X176055779Y-94565981D02*
X164200081Y-94565981D01*
X182867380Y-96420340D02*
X180937042Y-96420340D01*
X176185692Y-94436068D02*
X176055779Y-94565981D01*
X178952770Y-94436068D02*
X176185692Y-94436068D01*
X163804680Y-83895840D02*
X161691680Y-83895840D01*
X159717740Y-85869780D02*
X159212280Y-85869780D01*
X161691680Y-83895840D02*
X159717740Y-85869780D01*
X181332327Y-95770340D02*
X181250637Y-95688650D01*
X182867380Y-95770340D02*
X181332327Y-95770340D01*
X163804680Y-83895840D02*
X164436874Y-83895840D01*
X164436874Y-83895840D02*
X165170801Y-84629767D01*
X165170801Y-84629767D02*
X165170801Y-85704388D01*
X165170801Y-85704388D02*
X165386716Y-85920303D01*
X163804680Y-83245840D02*
X161744540Y-83245840D01*
X161744540Y-83245840D02*
X161320480Y-82821780D01*
X180753900Y-95120340D02*
X180421280Y-94787720D01*
X182867380Y-95120340D02*
X180753900Y-95120340D01*
X165739111Y-84699693D02*
X165739111Y-84981058D01*
X165188821Y-83892481D02*
X165188821Y-84149403D01*
X165188821Y-84149403D02*
X165739111Y-84699693D01*
X163804680Y-83245840D02*
X164542180Y-83245840D01*
X164542180Y-83245840D02*
X165188821Y-83892481D01*
X162257620Y-82595840D02*
X162255200Y-82598260D01*
X163804680Y-82595840D02*
X162257620Y-82595840D01*
X181449860Y-94470340D02*
X181416960Y-94503240D01*
X182867380Y-94470340D02*
X181449860Y-94470340D01*
X163804680Y-82595840D02*
X164476344Y-82595840D01*
X164476344Y-82595840D02*
X165757122Y-83876618D01*
X160749340Y-81945840D02*
X160609280Y-81805780D01*
X163804680Y-81945840D02*
X160749340Y-81945840D01*
X163804680Y-81945840D02*
X164894620Y-81945840D01*
X164894620Y-81945840D02*
X165564820Y-82616040D01*
X181729740Y-93820340D02*
X181498240Y-93588840D01*
X182867380Y-93820340D02*
X181729740Y-93820340D01*
X163804680Y-81295840D02*
X161897660Y-81295840D01*
X161897660Y-81295840D02*
X161391600Y-80789780D01*
X161391600Y-80789780D02*
X159212280Y-80789780D01*
X163804680Y-81295840D02*
X165209820Y-81295840D01*
X165209820Y-81295840D02*
X165615620Y-81701640D01*
X182867380Y-93170340D02*
X181963660Y-93170340D01*
X181963660Y-93170340D02*
X181538880Y-92745560D01*
X165497080Y-80645840D02*
X165539420Y-80688180D01*
X163804680Y-80645840D02*
X165497080Y-80645840D01*
X182867380Y-92520340D02*
X182129880Y-92520340D01*
X181518560Y-91287600D02*
X181620160Y-91186000D01*
X182129880Y-92520340D02*
X181518560Y-91909020D01*
X181518560Y-91909020D02*
X181518560Y-91287600D01*
X167124500Y-100121600D02*
X167165020Y-100081080D01*
X163858020Y-100121600D02*
X167124500Y-100121600D01*
X174388780Y-93553280D02*
X174452280Y-93489780D01*
X170657520Y-93553280D02*
X174388780Y-93553280D01*
X170957360Y-99471600D02*
X169583020Y-99471600D01*
X173918880Y-102433120D02*
X170957360Y-99471600D01*
X177238660Y-102433120D02*
X173918880Y-102433120D01*
X178290220Y-103484680D02*
X177238660Y-102433120D01*
X189385714Y-70975070D02*
X190550800Y-72140156D01*
X183343590Y-70975070D02*
X189385714Y-70975070D01*
X182867380Y-71451280D02*
X183343590Y-70975070D01*
X190550800Y-80185260D02*
X193530220Y-83164680D01*
X190550800Y-72140156D02*
X190550800Y-80185260D01*
X179031900Y-107350560D02*
X164244020Y-107350560D01*
X184228082Y-102154378D02*
X179031900Y-107350560D01*
X184228082Y-98451934D02*
X184228082Y-102154378D01*
X184122060Y-98345912D02*
X184228082Y-98451934D01*
X184122060Y-84363560D02*
X184122060Y-98345912D01*
X164244020Y-107350560D02*
X162501580Y-105608120D01*
X183309260Y-83550760D02*
X184122060Y-84363560D01*
X182239920Y-65384680D02*
X181460140Y-66164460D01*
X193530220Y-65384680D02*
X182239920Y-65384680D01*
X167403782Y-81132680D02*
X167111683Y-81424779D01*
X167111683Y-81424779D02*
X167111683Y-89870279D01*
X167111683Y-89870279D02*
X166768780Y-90213182D01*
X181830980Y-67924680D02*
X181637940Y-68117720D01*
X193530220Y-67924680D02*
X181830980Y-67924680D01*
X166070280Y-102989726D02*
X166070280Y-100820220D01*
X164610227Y-104449779D02*
X166070280Y-102989726D01*
X160012279Y-104449779D02*
X164610227Y-104449779D01*
X159212280Y-103649780D02*
X160012279Y-104449779D01*
X167708580Y-91719400D02*
X167708580Y-88112600D01*
X167708580Y-88112600D02*
X169011600Y-86809580D01*
X163858020Y-99471600D02*
X167418900Y-99471600D01*
X167418900Y-99471600D02*
X168160700Y-98729800D01*
X175646080Y-65549780D02*
X174452280Y-65549780D01*
X176557181Y-66460881D02*
X175646080Y-65549780D01*
X178680621Y-66460881D02*
X176557181Y-66460881D01*
X180093620Y-67873880D02*
X178680621Y-66460881D01*
X180093620Y-70063360D02*
X180093620Y-67873880D01*
X182131540Y-72101280D02*
X180093620Y-70063360D01*
X182867380Y-72101280D02*
X182131540Y-72101280D01*
X176657000Y-69171820D02*
X175574960Y-68089780D01*
X178612800Y-69171820D02*
X176657000Y-69171820D01*
X182192260Y-72751280D02*
X178612800Y-69171820D01*
X175574960Y-68089780D02*
X174452280Y-68089780D01*
X182867380Y-72751280D02*
X182192260Y-72751280D01*
X175363381Y-71540881D02*
X174452280Y-70629780D01*
X178419199Y-71540881D02*
X175363381Y-71540881D01*
X180279598Y-73401280D02*
X178419199Y-71540881D01*
X182867380Y-73401280D02*
X180279598Y-73401280D01*
X175363381Y-74080881D02*
X174452280Y-73169780D01*
X182837779Y-74080881D02*
X175363381Y-74080881D01*
X182867380Y-74051280D02*
X182837779Y-74080881D01*
X175693581Y-74468479D02*
X174452280Y-75709780D01*
X178806797Y-74468479D02*
X175693581Y-74468479D01*
X179039598Y-74701280D02*
X178806797Y-74468479D01*
X182867380Y-74701280D02*
X179039598Y-74701280D01*
X176083504Y-78249780D02*
X174452280Y-78249780D01*
X177488124Y-76845160D02*
X176083504Y-78249780D01*
X179097940Y-76845160D02*
X177488124Y-76845160D01*
X180591820Y-75351280D02*
X179097940Y-76845160D01*
X182867380Y-75351280D02*
X180591820Y-75351280D01*
X180025691Y-78287229D02*
X178894740Y-79418180D01*
X175823880Y-79418180D02*
X174452280Y-80789780D01*
X180025691Y-78257087D02*
X180025691Y-78287229D01*
X181853670Y-76395446D02*
X181853670Y-76429107D01*
X182074046Y-76175070D02*
X181853670Y-76395446D01*
X181853670Y-76429107D02*
X180025691Y-78257087D01*
X182137850Y-76175070D02*
X182074046Y-76175070D01*
X182311640Y-76001280D02*
X182137850Y-76175070D01*
X178894740Y-79418180D02*
X175823880Y-79418180D01*
X182867380Y-76001280D02*
X182311640Y-76001280D01*
X175788320Y-81993740D02*
X174452280Y-83329780D01*
X178810920Y-81993740D02*
X175788320Y-81993740D01*
X180378100Y-78403060D02*
X180378100Y-80426560D01*
X182129880Y-76651280D02*
X180378100Y-78403060D01*
X180378100Y-80426560D02*
X178810920Y-81993740D01*
X182867380Y-76651280D02*
X182129880Y-76651280D01*
X188592380Y-97720340D02*
X191386460Y-100514420D01*
X191386460Y-103880920D02*
X193530220Y-106024680D01*
X191386460Y-100514420D02*
X191386460Y-103880920D01*
M02*
