G04 #@! TF.GenerationSoftware,KiCad,Pcbnew,(5.1.8)-1*
G04 #@! TF.CreationDate,2022-03-12T16:36:43-08:00*
G04 #@! TF.ProjectId,MCLZ8_PCB,4d434c5a-385f-4504-9342-2e6b69636164,rev?*
G04 #@! TF.SameCoordinates,Original*
G04 #@! TF.FileFunction,Soldermask,Bot*
G04 #@! TF.FilePolarity,Negative*
%FSLAX46Y46*%
G04 Gerber Fmt 4.6, Leading zero omitted, Abs format (unit mm)*
G04 Created by KiCad (PCBNEW (5.1.8)-1) date 2022-03-12 16:36:43*
%MOMM*%
%LPD*%
G01*
G04 APERTURE LIST*
%ADD10O,1.600000X1.600000*%
%ADD11R,1.600000X1.600000*%
%ADD12C,1.600000*%
G04 APERTURE END LIST*
D10*
X174452280Y-57929780D03*
X159212280Y-106189780D03*
X174452280Y-60469780D03*
X159212280Y-103649780D03*
X174452280Y-63009780D03*
X159212280Y-101109780D03*
X174452280Y-65549780D03*
X159212280Y-98569780D03*
X174452280Y-68089780D03*
X159212280Y-96029780D03*
X174452280Y-70629780D03*
X159212280Y-93489780D03*
X174452280Y-73169780D03*
X159212280Y-90949780D03*
X174452280Y-75709780D03*
X159212280Y-88409780D03*
X174452280Y-78249780D03*
X159212280Y-85869780D03*
X174452280Y-80789780D03*
X159212280Y-83329780D03*
X174452280Y-83329780D03*
X159212280Y-80789780D03*
X174452280Y-85869780D03*
X159212280Y-78249780D03*
X174452280Y-88409780D03*
X159212280Y-75709780D03*
X174452280Y-90949780D03*
X159212280Y-73169780D03*
X174452280Y-93489780D03*
X159212280Y-70629780D03*
X174452280Y-96029780D03*
X159212280Y-68089780D03*
X174452280Y-98569780D03*
X159212280Y-65549780D03*
X174452280Y-101109780D03*
X159212280Y-63009780D03*
X174452280Y-103649780D03*
X159212280Y-60469780D03*
X174452280Y-106189780D03*
D11*
X159212280Y-57929780D03*
D12*
X178290220Y-113644680D03*
X178290220Y-111104680D03*
X178290220Y-108564680D03*
X178290220Y-106024680D03*
X178290220Y-103484680D03*
X178290220Y-100944680D03*
X178290220Y-98404680D03*
X178290220Y-95864680D03*
X178290220Y-93324680D03*
X178290220Y-90784680D03*
X178290220Y-88244680D03*
X178290220Y-85704680D03*
X178290220Y-83164680D03*
X178290220Y-80624680D03*
D11*
X193530220Y-113644680D03*
D12*
X193530220Y-111104680D03*
X193530220Y-108564680D03*
X193530220Y-106024680D03*
X193530220Y-103484680D03*
X193530220Y-100944680D03*
X193530220Y-98404680D03*
X193530220Y-95864680D03*
X193530220Y-93324680D03*
X193530220Y-90784680D03*
X193530220Y-88244680D03*
X193530220Y-85704680D03*
X193530220Y-83164680D03*
X178290220Y-78084680D03*
X178290220Y-75544680D03*
X178290220Y-73004680D03*
X178290220Y-70464680D03*
X178290220Y-67924680D03*
X178290220Y-65384680D03*
X178290220Y-62844680D03*
X178290220Y-60304680D03*
X178290220Y-57764680D03*
X178290220Y-55224680D03*
X193530220Y-55224680D03*
X193530220Y-57764680D03*
X193530220Y-60304680D03*
X193530220Y-62844680D03*
X193530220Y-80624680D03*
X193530220Y-78084680D03*
X193530220Y-75544680D03*
X193530220Y-65384680D03*
X193530220Y-67924680D03*
X193530220Y-70464680D03*
X193530220Y-73004680D03*
M02*
