%FSLAX45Y45*%
G04 Gerber Fmt 4.5, Leading zero omitted, Abs format (unit mm)*
G04 Created by KiCad (PCBNEW (5.1.8)-1) date 2022-03-12 16:38:44*
%MOMM*%
%LPD*%
G01*
G04 APERTURE LIST*
%TA.AperFunction,Profile*%
%ADD10C,0.050000*%
%TD*%
%ADD11C,0.200000*%
%ADD12C,0.300000*%
G04 APERTURE END LIST*
D10*
X15780512Y-11482832D02*
X15780512Y-5337302D01*
X19492976Y-11482832D02*
X15780512Y-11482832D01*
X19492976Y-5337302D02*
X19492976Y-11482832D01*
X15780512Y-5337302D02*
X19492976Y-5337302D01*
D11*
D12*
X16064440Y-11951046D02*
X16064440Y-11651046D01*
X16135869Y-11651046D01*
X16178726Y-11665332D01*
X16207298Y-11693903D01*
X16221583Y-11722475D01*
X16235869Y-11779618D01*
X16235869Y-11822475D01*
X16221583Y-11879618D01*
X16207298Y-11908189D01*
X16178726Y-11936761D01*
X16135869Y-11951046D01*
X16064440Y-11951046D01*
X16364440Y-11951046D02*
X16364440Y-11751046D01*
X16364440Y-11808189D02*
X16378726Y-11779618D01*
X16393012Y-11765332D01*
X16421583Y-11751046D01*
X16450155Y-11751046D01*
X16550155Y-11951046D02*
X16550155Y-11751046D01*
X16550155Y-11651046D02*
X16535869Y-11665332D01*
X16550155Y-11679618D01*
X16564440Y-11665332D01*
X16550155Y-11651046D01*
X16550155Y-11679618D01*
X16735869Y-11951046D02*
X16707298Y-11936761D01*
X16693012Y-11908189D01*
X16693012Y-11651046D01*
X16893012Y-11951046D02*
X16864440Y-11936761D01*
X16850155Y-11908189D01*
X16850155Y-11651046D01*
X17235869Y-11951046D02*
X17235869Y-11651046D01*
X17335869Y-11865332D01*
X17435869Y-11651046D01*
X17435869Y-11951046D01*
X17707298Y-11951046D02*
X17707298Y-11793903D01*
X17693012Y-11765332D01*
X17664440Y-11751046D01*
X17607298Y-11751046D01*
X17578726Y-11765332D01*
X17707298Y-11936761D02*
X17678726Y-11951046D01*
X17607298Y-11951046D01*
X17578726Y-11936761D01*
X17564440Y-11908189D01*
X17564440Y-11879618D01*
X17578726Y-11851046D01*
X17607298Y-11836761D01*
X17678726Y-11836761D01*
X17707298Y-11822475D01*
X17850155Y-11751046D02*
X17850155Y-12051046D01*
X17850155Y-11765332D02*
X17878726Y-11751046D01*
X17935869Y-11751046D01*
X17964440Y-11765332D01*
X17978726Y-11779618D01*
X17993012Y-11808189D01*
X17993012Y-11893903D01*
X17978726Y-11922475D01*
X17964440Y-11936761D01*
X17935869Y-11951046D01*
X17878726Y-11951046D01*
X17850155Y-11936761D01*
X18121583Y-11922475D02*
X18135869Y-11936761D01*
X18121583Y-11951046D01*
X18107298Y-11936761D01*
X18121583Y-11922475D01*
X18121583Y-11951046D01*
X18121583Y-11765332D02*
X18135869Y-11779618D01*
X18121583Y-11793903D01*
X18107298Y-11779618D01*
X18121583Y-11765332D01*
X18121583Y-11793903D01*
M02*
