G04 #@! TF.GenerationSoftware,KiCad,Pcbnew,(5.1.8)-1*
G04 #@! TF.CreationDate,2022-03-12T16:36:43-08:00*
G04 #@! TF.ProjectId,MCLZ8_PCB,4d434c5a-385f-4504-9342-2e6b69636164,rev?*
G04 #@! TF.SameCoordinates,Original*
G04 #@! TF.FileFunction,Copper,L3,Inr*
G04 #@! TF.FilePolarity,Positive*
%FSLAX46Y46*%
G04 Gerber Fmt 4.6, Leading zero omitted, Abs format (unit mm)*
G04 Created by KiCad (PCBNEW (5.1.8)-1) date 2022-03-12 16:36:43*
%MOMM*%
%LPD*%
G01*
G04 APERTURE LIST*
G04 #@! TA.AperFunction,ComponentPad*
%ADD10O,1.600000X1.600000*%
G04 #@! TD*
G04 #@! TA.AperFunction,ComponentPad*
%ADD11R,1.600000X1.600000*%
G04 #@! TD*
G04 #@! TA.AperFunction,ComponentPad*
%ADD12C,1.600000*%
G04 #@! TD*
G04 #@! TA.AperFunction,ViaPad*
%ADD13C,0.584200*%
G04 #@! TD*
G04 #@! TA.AperFunction,Conductor*
%ADD14C,0.700000*%
G04 #@! TD*
G04 #@! TA.AperFunction,Conductor*
%ADD15C,0.152400*%
G04 #@! TD*
G04 #@! TA.AperFunction,Conductor*
%ADD16C,0.254000*%
G04 #@! TD*
G04 #@! TA.AperFunction,Conductor*
%ADD17C,0.100000*%
G04 #@! TD*
G04 APERTURE END LIST*
D10*
X174452280Y-57929780D03*
X159212280Y-106189780D03*
X174452280Y-60469780D03*
X159212280Y-103649780D03*
X174452280Y-63009780D03*
X159212280Y-101109780D03*
X174452280Y-65549780D03*
X159212280Y-98569780D03*
X174452280Y-68089780D03*
X159212280Y-96029780D03*
X174452280Y-70629780D03*
X159212280Y-93489780D03*
X174452280Y-73169780D03*
X159212280Y-90949780D03*
X174452280Y-75709780D03*
X159212280Y-88409780D03*
X174452280Y-78249780D03*
X159212280Y-85869780D03*
X174452280Y-80789780D03*
X159212280Y-83329780D03*
X174452280Y-83329780D03*
X159212280Y-80789780D03*
X174452280Y-85869780D03*
X159212280Y-78249780D03*
X174452280Y-88409780D03*
X159212280Y-75709780D03*
X174452280Y-90949780D03*
X159212280Y-73169780D03*
X174452280Y-93489780D03*
X159212280Y-70629780D03*
X174452280Y-96029780D03*
X159212280Y-68089780D03*
X174452280Y-98569780D03*
X159212280Y-65549780D03*
X174452280Y-101109780D03*
X159212280Y-63009780D03*
X174452280Y-103649780D03*
X159212280Y-60469780D03*
X174452280Y-106189780D03*
D11*
X159212280Y-57929780D03*
D12*
X178290220Y-113644680D03*
X178290220Y-111104680D03*
X178290220Y-108564680D03*
X178290220Y-106024680D03*
X178290220Y-103484680D03*
X178290220Y-100944680D03*
X178290220Y-98404680D03*
X178290220Y-95864680D03*
X178290220Y-93324680D03*
X178290220Y-90784680D03*
X178290220Y-88244680D03*
X178290220Y-85704680D03*
X178290220Y-83164680D03*
X178290220Y-80624680D03*
D11*
X193530220Y-113644680D03*
D12*
X193530220Y-111104680D03*
X193530220Y-108564680D03*
X193530220Y-106024680D03*
X193530220Y-103484680D03*
X193530220Y-100944680D03*
X193530220Y-98404680D03*
X193530220Y-95864680D03*
X193530220Y-93324680D03*
X193530220Y-90784680D03*
X193530220Y-88244680D03*
X193530220Y-85704680D03*
X193530220Y-83164680D03*
X178290220Y-78084680D03*
X178290220Y-75544680D03*
X178290220Y-73004680D03*
X178290220Y-70464680D03*
X178290220Y-67924680D03*
X178290220Y-65384680D03*
X178290220Y-62844680D03*
X178290220Y-60304680D03*
X178290220Y-57764680D03*
X178290220Y-55224680D03*
X193530220Y-55224680D03*
X193530220Y-57764680D03*
X193530220Y-60304680D03*
X193530220Y-62844680D03*
X193530220Y-80624680D03*
X193530220Y-78084680D03*
X193530220Y-75544680D03*
X193530220Y-65384680D03*
X193530220Y-67924680D03*
X193530220Y-70464680D03*
X193530220Y-73004680D03*
D13*
X163901656Y-95861604D03*
X187190380Y-71543380D03*
X187319186Y-77479426D03*
X163837620Y-103479600D03*
X188247020Y-91178380D03*
X162991800Y-86895940D03*
X164383720Y-79265780D03*
X182387240Y-78191360D03*
X169400220Y-96131380D03*
X168079420Y-102910640D03*
X183205120Y-91414600D03*
X170253969Y-86823363D03*
X168216580Y-79329280D03*
X183542940Y-98623122D03*
X187792360Y-98844100D03*
X186171842Y-97368360D03*
X185917838Y-95275400D03*
X185808620Y-93291660D03*
X184861200Y-90360500D03*
X184690370Y-87668100D03*
X165790880Y-92293440D03*
X165415610Y-98595180D03*
X162001200Y-98800920D03*
X164386065Y-86729026D03*
X162699700Y-93065600D03*
X165386716Y-85920303D03*
X181250637Y-95688650D03*
X161320480Y-82821780D03*
X180421280Y-94787720D03*
X165739111Y-84981058D03*
X162255200Y-82598260D03*
X181416960Y-94503240D03*
X165757122Y-83876618D03*
X160609280Y-81805780D03*
X165564820Y-82616040D03*
X181498240Y-93588840D03*
X165615620Y-81701640D03*
X181538880Y-92745560D03*
X165539420Y-80688180D03*
X181620160Y-91186000D03*
X167165020Y-100081080D03*
X170657520Y-93553280D03*
X184690370Y-84602225D03*
X183309260Y-83550760D03*
X162501580Y-105608120D03*
X181460140Y-66164460D03*
X167403782Y-81132680D03*
X166768780Y-90213182D03*
X181637940Y-68117720D03*
X167708580Y-91719400D03*
X166070280Y-100820220D03*
X169011600Y-86809580D03*
X168160700Y-98729800D03*
D14*
X175319250Y-113644680D02*
X160704439Y-99029869D01*
X178290220Y-113644680D02*
X175319250Y-113644680D01*
X160704439Y-99029869D02*
X160704439Y-84821939D01*
X160704439Y-84821939D02*
X159212280Y-83329780D01*
D15*
X174452280Y-90949780D02*
X176081179Y-89320881D01*
X176081179Y-89320881D02*
X179971714Y-89320881D01*
X179971714Y-89320881D02*
X184690370Y-84602225D01*
D16*
X192400404Y-72112638D02*
X192258540Y-72324953D01*
X192150367Y-72586106D01*
X192095220Y-72863345D01*
X192095220Y-73146015D01*
X192150367Y-73423254D01*
X192258540Y-73684407D01*
X192415583Y-73919439D01*
X192615461Y-74119317D01*
X192847979Y-74274680D01*
X192615461Y-74430043D01*
X192415583Y-74629921D01*
X192258540Y-74864953D01*
X192150367Y-75126106D01*
X192095220Y-75403345D01*
X192095220Y-75686015D01*
X192150367Y-75963254D01*
X192258540Y-76224407D01*
X192415583Y-76459439D01*
X192615461Y-76659317D01*
X192850493Y-76816360D01*
X193111646Y-76924533D01*
X193388885Y-76979680D01*
X193671555Y-76979680D01*
X193948794Y-76924533D01*
X194012820Y-76898013D01*
X194012820Y-79271347D01*
X193948794Y-79244827D01*
X193671555Y-79189680D01*
X193388885Y-79189680D01*
X193111646Y-79244827D01*
X192850493Y-79353000D01*
X192615461Y-79510043D01*
X192415583Y-79709921D01*
X192258540Y-79944953D01*
X192150367Y-80206106D01*
X192095220Y-80483345D01*
X192095220Y-80766015D01*
X192150367Y-81043254D01*
X192258540Y-81304407D01*
X192415583Y-81539439D01*
X192615461Y-81739317D01*
X192847979Y-81894680D01*
X192615461Y-82050043D01*
X192415583Y-82249921D01*
X192258540Y-82484953D01*
X192150367Y-82746106D01*
X192095220Y-83023345D01*
X192095220Y-83306015D01*
X192150367Y-83583254D01*
X192258540Y-83844407D01*
X192415583Y-84079439D01*
X192615461Y-84279317D01*
X192847979Y-84434680D01*
X192615461Y-84590043D01*
X192415583Y-84789921D01*
X192258540Y-85024953D01*
X192150367Y-85286106D01*
X192095220Y-85563345D01*
X192095220Y-85846015D01*
X192150367Y-86123254D01*
X192258540Y-86384407D01*
X192415583Y-86619439D01*
X192615461Y-86819317D01*
X192847979Y-86974680D01*
X192615461Y-87130043D01*
X192415583Y-87329921D01*
X192258540Y-87564953D01*
X192150367Y-87826106D01*
X192095220Y-88103345D01*
X192095220Y-88386015D01*
X192150367Y-88663254D01*
X192258540Y-88924407D01*
X192415583Y-89159439D01*
X192615461Y-89359317D01*
X192847979Y-89514680D01*
X192615461Y-89670043D01*
X192415583Y-89869921D01*
X192258540Y-90104953D01*
X192150367Y-90366106D01*
X192095220Y-90643345D01*
X192095220Y-90926015D01*
X192150367Y-91203254D01*
X192258540Y-91464407D01*
X192415583Y-91699439D01*
X192615461Y-91899317D01*
X192847979Y-92054680D01*
X192615461Y-92210043D01*
X192415583Y-92409921D01*
X192258540Y-92644953D01*
X192150367Y-92906106D01*
X192095220Y-93183345D01*
X192095220Y-93466015D01*
X192150367Y-93743254D01*
X192258540Y-94004407D01*
X192415583Y-94239439D01*
X192615461Y-94439317D01*
X192847979Y-94594680D01*
X192615461Y-94750043D01*
X192415583Y-94949921D01*
X192258540Y-95184953D01*
X192150367Y-95446106D01*
X192095220Y-95723345D01*
X192095220Y-96006015D01*
X192150367Y-96283254D01*
X192258540Y-96544407D01*
X192415583Y-96779439D01*
X192615461Y-96979317D01*
X192847979Y-97134680D01*
X192615461Y-97290043D01*
X192415583Y-97489921D01*
X192258540Y-97724953D01*
X192150367Y-97986106D01*
X192095220Y-98263345D01*
X192095220Y-98546015D01*
X192150367Y-98823254D01*
X192258540Y-99084407D01*
X192415583Y-99319439D01*
X192615461Y-99519317D01*
X192847979Y-99674680D01*
X192615461Y-99830043D01*
X192415583Y-100029921D01*
X192258540Y-100264953D01*
X192150367Y-100526106D01*
X192095220Y-100803345D01*
X192095220Y-101086015D01*
X192150367Y-101363254D01*
X192258540Y-101624407D01*
X192415583Y-101859439D01*
X192615461Y-102059317D01*
X192847979Y-102214680D01*
X192615461Y-102370043D01*
X192415583Y-102569921D01*
X192258540Y-102804953D01*
X192150367Y-103066106D01*
X192095220Y-103343345D01*
X192095220Y-103626015D01*
X192150367Y-103903254D01*
X192258540Y-104164407D01*
X192415583Y-104399439D01*
X192615461Y-104599317D01*
X192847979Y-104754680D01*
X192615461Y-104910043D01*
X192415583Y-105109921D01*
X192258540Y-105344953D01*
X192150367Y-105606106D01*
X192095220Y-105883345D01*
X192095220Y-106166015D01*
X192150367Y-106443254D01*
X192258540Y-106704407D01*
X192415583Y-106939439D01*
X192615461Y-107139317D01*
X192847979Y-107294680D01*
X192615461Y-107450043D01*
X192415583Y-107649921D01*
X192258540Y-107884953D01*
X192150367Y-108146106D01*
X192095220Y-108423345D01*
X192095220Y-108706015D01*
X192150367Y-108983254D01*
X192240675Y-109201276D01*
X172418098Y-109350527D01*
X164514545Y-101446975D01*
X164523673Y-100728909D01*
X165143180Y-100728909D01*
X165143180Y-100911531D01*
X165178808Y-101090645D01*
X165248694Y-101259367D01*
X165350154Y-101411212D01*
X165479288Y-101540346D01*
X165631133Y-101641806D01*
X165799855Y-101711692D01*
X165978969Y-101747320D01*
X166161591Y-101747320D01*
X166340705Y-101711692D01*
X166509427Y-101641806D01*
X166661272Y-101540346D01*
X166790406Y-101411212D01*
X166891866Y-101259367D01*
X166961752Y-101090645D01*
X166981792Y-100989897D01*
X167073709Y-101008180D01*
X167256331Y-101008180D01*
X167435445Y-100972552D01*
X167604167Y-100902666D01*
X167756012Y-100801206D01*
X167885146Y-100672072D01*
X167986606Y-100520227D01*
X168056492Y-100351505D01*
X168092120Y-100172391D01*
X168092120Y-99989769D01*
X168056492Y-99810655D01*
X167986606Y-99641933D01*
X167985450Y-99640204D01*
X168069389Y-99656900D01*
X168252011Y-99656900D01*
X168431125Y-99621272D01*
X168599847Y-99551386D01*
X168751692Y-99449926D01*
X168880826Y-99320792D01*
X168982286Y-99168947D01*
X169052172Y-99000225D01*
X169087800Y-98821111D01*
X169087800Y-98638489D01*
X169052172Y-98459375D01*
X168982286Y-98290653D01*
X168880826Y-98138808D01*
X168751692Y-98009674D01*
X168599847Y-97908214D01*
X168431125Y-97838328D01*
X168252011Y-97802700D01*
X168069389Y-97802700D01*
X167890275Y-97838328D01*
X167721553Y-97908214D01*
X167569708Y-98009674D01*
X167440574Y-98138808D01*
X167339114Y-98290653D01*
X167269228Y-98459375D01*
X167233600Y-98638489D01*
X167233600Y-98821111D01*
X167269228Y-99000225D01*
X167339114Y-99168947D01*
X167340270Y-99170676D01*
X167256331Y-99153980D01*
X167073709Y-99153980D01*
X166894595Y-99189608D01*
X166725873Y-99259494D01*
X166574028Y-99360954D01*
X166444894Y-99490088D01*
X166343434Y-99641933D01*
X166273548Y-99810655D01*
X166253508Y-99911403D01*
X166161591Y-99893120D01*
X165978969Y-99893120D01*
X165799855Y-99928748D01*
X165631133Y-99998634D01*
X165479288Y-100100094D01*
X165350154Y-100229228D01*
X165248694Y-100381073D01*
X165178808Y-100549795D01*
X165143180Y-100728909D01*
X164523673Y-100728909D01*
X164546671Y-98920006D01*
X164594024Y-99034327D01*
X164695484Y-99186172D01*
X164824618Y-99315306D01*
X164976463Y-99416766D01*
X165145185Y-99486652D01*
X165324299Y-99522280D01*
X165506921Y-99522280D01*
X165686035Y-99486652D01*
X165854757Y-99416766D01*
X166006602Y-99315306D01*
X166135736Y-99186172D01*
X166237196Y-99034327D01*
X166307082Y-98865605D01*
X166342710Y-98686491D01*
X166342710Y-98503869D01*
X166307082Y-98324755D01*
X166237196Y-98156033D01*
X166135736Y-98004188D01*
X166006602Y-97875054D01*
X165854757Y-97773594D01*
X165686035Y-97703708D01*
X165506921Y-97668080D01*
X165324299Y-97668080D01*
X165145185Y-97703708D01*
X164976463Y-97773594D01*
X164824618Y-97875054D01*
X164695484Y-98004188D01*
X164594024Y-98156033D01*
X164555192Y-98249783D01*
X164577477Y-96496901D01*
X164621782Y-96452596D01*
X164723242Y-96300751D01*
X164793128Y-96132029D01*
X164828756Y-95952915D01*
X164828756Y-95770293D01*
X164793128Y-95591179D01*
X164723242Y-95422457D01*
X164621782Y-95270612D01*
X164593428Y-95242258D01*
X164616061Y-93461969D01*
X169730420Y-93461969D01*
X169730420Y-93644591D01*
X169766048Y-93823705D01*
X169835934Y-93992427D01*
X169937394Y-94144272D01*
X170066528Y-94273406D01*
X170218373Y-94374866D01*
X170387095Y-94444752D01*
X170566209Y-94480380D01*
X170748831Y-94480380D01*
X170927945Y-94444752D01*
X171096667Y-94374866D01*
X171248512Y-94273406D01*
X171377646Y-94144272D01*
X171479106Y-93992427D01*
X171548992Y-93823705D01*
X171584620Y-93644591D01*
X171584620Y-93461969D01*
X171548992Y-93282855D01*
X171479106Y-93114133D01*
X171377646Y-92962288D01*
X171248512Y-92833154D01*
X171096667Y-92731694D01*
X170927945Y-92661808D01*
X170748831Y-92626180D01*
X170566209Y-92626180D01*
X170387095Y-92661808D01*
X170218373Y-92731694D01*
X170066528Y-92833154D01*
X169937394Y-92962288D01*
X169835934Y-93114133D01*
X169766048Y-93282855D01*
X169730420Y-93461969D01*
X164616061Y-93461969D01*
X164632078Y-92202129D01*
X164863780Y-92202129D01*
X164863780Y-92384751D01*
X164899408Y-92563865D01*
X164969294Y-92732587D01*
X165070754Y-92884432D01*
X165199888Y-93013566D01*
X165351733Y-93115026D01*
X165520455Y-93184912D01*
X165699569Y-93220540D01*
X165882191Y-93220540D01*
X166061305Y-93184912D01*
X166230027Y-93115026D01*
X166381872Y-93013566D01*
X166511006Y-92884432D01*
X166612466Y-92732587D01*
X166682352Y-92563865D01*
X166717980Y-92384751D01*
X166717980Y-92202129D01*
X166682352Y-92023015D01*
X166612466Y-91854293D01*
X166511006Y-91702448D01*
X166381872Y-91573314D01*
X166230027Y-91471854D01*
X166061305Y-91401968D01*
X165882191Y-91366340D01*
X165699569Y-91366340D01*
X165520455Y-91401968D01*
X165351733Y-91471854D01*
X165199888Y-91573314D01*
X165070754Y-91702448D01*
X164969294Y-91854293D01*
X164899408Y-92023015D01*
X164863780Y-92202129D01*
X164632078Y-92202129D01*
X164658525Y-90121871D01*
X165841680Y-90121871D01*
X165841680Y-90304493D01*
X165877308Y-90483607D01*
X165947194Y-90652329D01*
X166048654Y-90804174D01*
X166177788Y-90933308D01*
X166329633Y-91034768D01*
X166498355Y-91104654D01*
X166677469Y-91140282D01*
X166860091Y-91140282D01*
X167005505Y-91111357D01*
X166988454Y-91128408D01*
X166886994Y-91280253D01*
X166817108Y-91448975D01*
X166781480Y-91628089D01*
X166781480Y-91810711D01*
X166817108Y-91989825D01*
X166886994Y-92158547D01*
X166988454Y-92310392D01*
X167117588Y-92439526D01*
X167269433Y-92540986D01*
X167438155Y-92610872D01*
X167617269Y-92646500D01*
X167799891Y-92646500D01*
X167979005Y-92610872D01*
X168147727Y-92540986D01*
X168299572Y-92439526D01*
X168428706Y-92310392D01*
X168530166Y-92158547D01*
X168600052Y-91989825D01*
X168635680Y-91810711D01*
X168635680Y-91628089D01*
X168600052Y-91448975D01*
X168530166Y-91280253D01*
X168428706Y-91128408D01*
X168299572Y-90999274D01*
X168147727Y-90897814D01*
X167979005Y-90827928D01*
X167799891Y-90792300D01*
X167617269Y-90792300D01*
X167471855Y-90821225D01*
X167488906Y-90804174D01*
X167590366Y-90652329D01*
X167660252Y-90483607D01*
X167695880Y-90304493D01*
X167695880Y-90121871D01*
X167660252Y-89942757D01*
X167590366Y-89774035D01*
X167488906Y-89622190D01*
X167359772Y-89493056D01*
X167207927Y-89391596D01*
X167039205Y-89321710D01*
X166860091Y-89286082D01*
X166677469Y-89286082D01*
X166498355Y-89321710D01*
X166329633Y-89391596D01*
X166177788Y-89493056D01*
X166048654Y-89622190D01*
X165947194Y-89774035D01*
X165877308Y-89942757D01*
X165841680Y-90121871D01*
X164658525Y-90121871D01*
X164690506Y-87606408D01*
X164825212Y-87550612D01*
X164977057Y-87449152D01*
X165106191Y-87320018D01*
X165207651Y-87168173D01*
X165277537Y-86999451D01*
X165307781Y-86847403D01*
X165478027Y-86847403D01*
X165657141Y-86811775D01*
X165825863Y-86741889D01*
X165861212Y-86718269D01*
X168084500Y-86718269D01*
X168084500Y-86900891D01*
X168120128Y-87080005D01*
X168190014Y-87248727D01*
X168291474Y-87400572D01*
X168420608Y-87529706D01*
X168572453Y-87631166D01*
X168741175Y-87701052D01*
X168920289Y-87736680D01*
X169102911Y-87736680D01*
X169282025Y-87701052D01*
X169450747Y-87631166D01*
X169602592Y-87529706D01*
X169731726Y-87400572D01*
X169833186Y-87248727D01*
X169903072Y-87080005D01*
X169938700Y-86900891D01*
X169938700Y-86718269D01*
X169903072Y-86539155D01*
X169833186Y-86370433D01*
X169731726Y-86218588D01*
X169602592Y-86089454D01*
X169450747Y-85987994D01*
X169282025Y-85918108D01*
X169102911Y-85882480D01*
X168920289Y-85882480D01*
X168741175Y-85918108D01*
X168572453Y-85987994D01*
X168420608Y-86089454D01*
X168291474Y-86218588D01*
X168190014Y-86370433D01*
X168120128Y-86539155D01*
X168084500Y-86718269D01*
X165861212Y-86718269D01*
X165977708Y-86640429D01*
X166106842Y-86511295D01*
X166208302Y-86359450D01*
X166278188Y-86190728D01*
X166313816Y-86011614D01*
X166313816Y-85828992D01*
X166293287Y-85725784D01*
X166330103Y-85701184D01*
X166459237Y-85572050D01*
X166560697Y-85420205D01*
X166630583Y-85251483D01*
X166666211Y-85072369D01*
X166666211Y-84889747D01*
X166630583Y-84710633D01*
X166560697Y-84541911D01*
X166494149Y-84442316D01*
X166578708Y-84315765D01*
X166648594Y-84147043D01*
X166684222Y-83967929D01*
X166684222Y-83785307D01*
X166648594Y-83606193D01*
X166578708Y-83437471D01*
X166477248Y-83285626D01*
X166348114Y-83156492D01*
X166327790Y-83142912D01*
X166386406Y-83055187D01*
X166456292Y-82886465D01*
X166491920Y-82707351D01*
X166491920Y-82524729D01*
X166456292Y-82345615D01*
X166396614Y-82201537D01*
X166437206Y-82140787D01*
X166507092Y-81972065D01*
X166542720Y-81792951D01*
X166542720Y-81610329D01*
X166507092Y-81431215D01*
X166437206Y-81262493D01*
X166353948Y-81137890D01*
X166361006Y-81127327D01*
X166396610Y-81041369D01*
X166476682Y-81041369D01*
X166476682Y-81223991D01*
X166512310Y-81403105D01*
X166582196Y-81571827D01*
X166683656Y-81723672D01*
X166812790Y-81852806D01*
X166964635Y-81954266D01*
X167133357Y-82024152D01*
X167312471Y-82059780D01*
X167495093Y-82059780D01*
X167674207Y-82024152D01*
X167842929Y-81954266D01*
X167994774Y-81852806D01*
X168123908Y-81723672D01*
X168225368Y-81571827D01*
X168295254Y-81403105D01*
X168330882Y-81223991D01*
X168330882Y-81041369D01*
X168295254Y-80862255D01*
X168225368Y-80693533D01*
X168123908Y-80541688D01*
X167994774Y-80412554D01*
X167842929Y-80311094D01*
X167674207Y-80241208D01*
X167495093Y-80205580D01*
X167312471Y-80205580D01*
X167133357Y-80241208D01*
X166964635Y-80311094D01*
X166812790Y-80412554D01*
X166683656Y-80541688D01*
X166582196Y-80693533D01*
X166512310Y-80862255D01*
X166476682Y-81041369D01*
X166396610Y-81041369D01*
X166430892Y-80958605D01*
X166466520Y-80779491D01*
X166466520Y-80596869D01*
X166430892Y-80417755D01*
X166361006Y-80249033D01*
X166259546Y-80097188D01*
X166130412Y-79968054D01*
X165978567Y-79866594D01*
X165809845Y-79796708D01*
X165630731Y-79761080D01*
X165448109Y-79761080D01*
X165268995Y-79796708D01*
X165100273Y-79866594D01*
X165081440Y-79879178D01*
X165103846Y-79856772D01*
X165205306Y-79704927D01*
X165275192Y-79536205D01*
X165310820Y-79357091D01*
X165310820Y-79174469D01*
X165275192Y-78995355D01*
X165205306Y-78826633D01*
X165103846Y-78674788D01*
X164974712Y-78545654D01*
X164822867Y-78444194D01*
X164807073Y-78437652D01*
X164887578Y-72105366D01*
X173497863Y-72094801D01*
X173337643Y-72255021D01*
X173180600Y-72490053D01*
X173072427Y-72751206D01*
X173017280Y-73028445D01*
X173017280Y-73311115D01*
X173072427Y-73588354D01*
X173180600Y-73849507D01*
X173337643Y-74084539D01*
X173537521Y-74284417D01*
X173770039Y-74439780D01*
X173537521Y-74595143D01*
X173337643Y-74795021D01*
X173180600Y-75030053D01*
X173072427Y-75291206D01*
X173017280Y-75568445D01*
X173017280Y-75851115D01*
X173072427Y-76128354D01*
X173180600Y-76389507D01*
X173337643Y-76624539D01*
X173537521Y-76824417D01*
X173770039Y-76979780D01*
X173537521Y-77135143D01*
X173337643Y-77335021D01*
X173180600Y-77570053D01*
X173072427Y-77831206D01*
X173017280Y-78108445D01*
X173017280Y-78391115D01*
X173072427Y-78668354D01*
X173180600Y-78929507D01*
X173337643Y-79164539D01*
X173537521Y-79364417D01*
X173770039Y-79519780D01*
X173537521Y-79675143D01*
X173337643Y-79875021D01*
X173180600Y-80110053D01*
X173072427Y-80371206D01*
X173017280Y-80648445D01*
X173017280Y-80931115D01*
X173072427Y-81208354D01*
X173180600Y-81469507D01*
X173337643Y-81704539D01*
X173537521Y-81904417D01*
X173770039Y-82059780D01*
X173537521Y-82215143D01*
X173337643Y-82415021D01*
X173180600Y-82650053D01*
X173072427Y-82911206D01*
X173017280Y-83188445D01*
X173017280Y-83471115D01*
X173072427Y-83748354D01*
X173180600Y-84009507D01*
X173337643Y-84244539D01*
X173537521Y-84444417D01*
X173770039Y-84599780D01*
X173537521Y-84755143D01*
X173337643Y-84955021D01*
X173180600Y-85190053D01*
X173072427Y-85451206D01*
X173017280Y-85728445D01*
X173017280Y-86011115D01*
X173072427Y-86288354D01*
X173180600Y-86549507D01*
X173337643Y-86784539D01*
X173537521Y-86984417D01*
X173770039Y-87139780D01*
X173537521Y-87295143D01*
X173337643Y-87495021D01*
X173180600Y-87730053D01*
X173072427Y-87991206D01*
X173017280Y-88268445D01*
X173017280Y-88551115D01*
X173072427Y-88828354D01*
X173180600Y-89089507D01*
X173337643Y-89324539D01*
X173537521Y-89524417D01*
X173770039Y-89679780D01*
X173537521Y-89835143D01*
X173337643Y-90035021D01*
X173180600Y-90270053D01*
X173072427Y-90531206D01*
X173017280Y-90808445D01*
X173017280Y-91091115D01*
X173072427Y-91368354D01*
X173180600Y-91629507D01*
X173337643Y-91864539D01*
X173537521Y-92064417D01*
X173770039Y-92219780D01*
X173537521Y-92375143D01*
X173337643Y-92575021D01*
X173180600Y-92810053D01*
X173072427Y-93071206D01*
X173017280Y-93348445D01*
X173017280Y-93631115D01*
X173072427Y-93908354D01*
X173180600Y-94169507D01*
X173337643Y-94404539D01*
X173537521Y-94604417D01*
X173770039Y-94759780D01*
X173537521Y-94915143D01*
X173337643Y-95115021D01*
X173180600Y-95350053D01*
X173072427Y-95611206D01*
X173017280Y-95888445D01*
X173017280Y-96171115D01*
X173072427Y-96448354D01*
X173180600Y-96709507D01*
X173337643Y-96944539D01*
X173537521Y-97144417D01*
X173770039Y-97299780D01*
X173537521Y-97455143D01*
X173337643Y-97655021D01*
X173180600Y-97890053D01*
X173072427Y-98151206D01*
X173017280Y-98428445D01*
X173017280Y-98711115D01*
X173072427Y-98988354D01*
X173180600Y-99249507D01*
X173337643Y-99484539D01*
X173537521Y-99684417D01*
X173770039Y-99839780D01*
X173537521Y-99995143D01*
X173337643Y-100195021D01*
X173180600Y-100430053D01*
X173072427Y-100691206D01*
X173017280Y-100968445D01*
X173017280Y-101251115D01*
X173072427Y-101528354D01*
X173180600Y-101789507D01*
X173337643Y-102024539D01*
X173537521Y-102224417D01*
X173770039Y-102379780D01*
X173537521Y-102535143D01*
X173337643Y-102735021D01*
X173180600Y-102970053D01*
X173072427Y-103231206D01*
X173017280Y-103508445D01*
X173017280Y-103791115D01*
X173072427Y-104068354D01*
X173180600Y-104329507D01*
X173337643Y-104564539D01*
X173537521Y-104764417D01*
X173770039Y-104919780D01*
X173537521Y-105075143D01*
X173337643Y-105275021D01*
X173180600Y-105510053D01*
X173072427Y-105771206D01*
X173017280Y-106048445D01*
X173017280Y-106331115D01*
X173072427Y-106608354D01*
X173180600Y-106869507D01*
X173337643Y-107104539D01*
X173537521Y-107304417D01*
X173772553Y-107461460D01*
X174033706Y-107569633D01*
X174310945Y-107624780D01*
X174593615Y-107624780D01*
X174870854Y-107569633D01*
X175132007Y-107461460D01*
X175367039Y-107304417D01*
X175566917Y-107104539D01*
X175723960Y-106869507D01*
X175832133Y-106608354D01*
X175887280Y-106331115D01*
X175887280Y-106048445D01*
X175832133Y-105771206D01*
X175723960Y-105510053D01*
X175566917Y-105275021D01*
X175367039Y-105075143D01*
X175134521Y-104919780D01*
X175367039Y-104764417D01*
X175566917Y-104564539D01*
X175723960Y-104329507D01*
X175832133Y-104068354D01*
X175887280Y-103791115D01*
X175887280Y-103508445D01*
X175832133Y-103231206D01*
X175723960Y-102970053D01*
X175566917Y-102735021D01*
X175367039Y-102535143D01*
X175134521Y-102379780D01*
X175367039Y-102224417D01*
X175566917Y-102024539D01*
X175723960Y-101789507D01*
X175832133Y-101528354D01*
X175887280Y-101251115D01*
X175887280Y-100968445D01*
X175832133Y-100691206D01*
X175723960Y-100430053D01*
X175566917Y-100195021D01*
X175367039Y-99995143D01*
X175134521Y-99839780D01*
X175367039Y-99684417D01*
X175566917Y-99484539D01*
X175723960Y-99249507D01*
X175832133Y-98988354D01*
X175887280Y-98711115D01*
X175887280Y-98428445D01*
X175832133Y-98151206D01*
X175723960Y-97890053D01*
X175566917Y-97655021D01*
X175367039Y-97455143D01*
X175134521Y-97299780D01*
X175367039Y-97144417D01*
X175566917Y-96944539D01*
X175723960Y-96709507D01*
X175832133Y-96448354D01*
X175887280Y-96171115D01*
X175887280Y-95888445D01*
X175832133Y-95611206D01*
X175723960Y-95350053D01*
X175566917Y-95115021D01*
X175367039Y-94915143D01*
X175134521Y-94759780D01*
X175367039Y-94604417D01*
X175566917Y-94404539D01*
X175723960Y-94169507D01*
X175832133Y-93908354D01*
X175887280Y-93631115D01*
X175887280Y-93348445D01*
X175832133Y-93071206D01*
X175723960Y-92810053D01*
X175566917Y-92575021D01*
X175367039Y-92375143D01*
X175134521Y-92219780D01*
X175367039Y-92064417D01*
X175566917Y-91864539D01*
X175723960Y-91629507D01*
X175832133Y-91368354D01*
X175887280Y-91091115D01*
X175887280Y-90808445D01*
X175839518Y-90568330D01*
X176375767Y-90032081D01*
X177067231Y-90032081D01*
X177018540Y-90104953D01*
X176910367Y-90366106D01*
X176855220Y-90643345D01*
X176855220Y-90926015D01*
X176910367Y-91203254D01*
X177018540Y-91464407D01*
X177175583Y-91699439D01*
X177375461Y-91899317D01*
X177607979Y-92054680D01*
X177375461Y-92210043D01*
X177175583Y-92409921D01*
X177018540Y-92644953D01*
X176910367Y-92906106D01*
X176855220Y-93183345D01*
X176855220Y-93466015D01*
X176910367Y-93743254D01*
X177018540Y-94004407D01*
X177175583Y-94239439D01*
X177375461Y-94439317D01*
X177607979Y-94594680D01*
X177375461Y-94750043D01*
X177175583Y-94949921D01*
X177018540Y-95184953D01*
X176910367Y-95446106D01*
X176855220Y-95723345D01*
X176855220Y-96006015D01*
X176910367Y-96283254D01*
X177018540Y-96544407D01*
X177175583Y-96779439D01*
X177375461Y-96979317D01*
X177607979Y-97134680D01*
X177375461Y-97290043D01*
X177175583Y-97489921D01*
X177018540Y-97724953D01*
X176910367Y-97986106D01*
X176855220Y-98263345D01*
X176855220Y-98546015D01*
X176910367Y-98823254D01*
X177018540Y-99084407D01*
X177175583Y-99319439D01*
X177375461Y-99519317D01*
X177607979Y-99674680D01*
X177375461Y-99830043D01*
X177175583Y-100029921D01*
X177018540Y-100264953D01*
X176910367Y-100526106D01*
X176855220Y-100803345D01*
X176855220Y-101086015D01*
X176910367Y-101363254D01*
X177018540Y-101624407D01*
X177175583Y-101859439D01*
X177375461Y-102059317D01*
X177607979Y-102214680D01*
X177375461Y-102370043D01*
X177175583Y-102569921D01*
X177018540Y-102804953D01*
X176910367Y-103066106D01*
X176855220Y-103343345D01*
X176855220Y-103626015D01*
X176910367Y-103903254D01*
X177018540Y-104164407D01*
X177175583Y-104399439D01*
X177375461Y-104599317D01*
X177607979Y-104754680D01*
X177375461Y-104910043D01*
X177175583Y-105109921D01*
X177018540Y-105344953D01*
X176910367Y-105606106D01*
X176855220Y-105883345D01*
X176855220Y-106166015D01*
X176910367Y-106443254D01*
X177018540Y-106704407D01*
X177175583Y-106939439D01*
X177375461Y-107139317D01*
X177610493Y-107296360D01*
X177871646Y-107404533D01*
X178148885Y-107459680D01*
X178431555Y-107459680D01*
X178708794Y-107404533D01*
X178969947Y-107296360D01*
X179204979Y-107139317D01*
X179404857Y-106939439D01*
X179561900Y-106704407D01*
X179670073Y-106443254D01*
X179725220Y-106166015D01*
X179725220Y-105883345D01*
X179670073Y-105606106D01*
X179561900Y-105344953D01*
X179404857Y-105109921D01*
X179204979Y-104910043D01*
X178972461Y-104754680D01*
X179204979Y-104599317D01*
X179404857Y-104399439D01*
X179561900Y-104164407D01*
X179670073Y-103903254D01*
X179725220Y-103626015D01*
X179725220Y-103343345D01*
X179670073Y-103066106D01*
X179561900Y-102804953D01*
X179404857Y-102569921D01*
X179204979Y-102370043D01*
X178972461Y-102214680D01*
X179204979Y-102059317D01*
X179404857Y-101859439D01*
X179561900Y-101624407D01*
X179670073Y-101363254D01*
X179725220Y-101086015D01*
X179725220Y-100803345D01*
X179670073Y-100526106D01*
X179561900Y-100264953D01*
X179404857Y-100029921D01*
X179204979Y-99830043D01*
X178972461Y-99674680D01*
X179204979Y-99519317D01*
X179404857Y-99319439D01*
X179561900Y-99084407D01*
X179670073Y-98823254D01*
X179684089Y-98752789D01*
X186865260Y-98752789D01*
X186865260Y-98935411D01*
X186900888Y-99114525D01*
X186970774Y-99283247D01*
X187072234Y-99435092D01*
X187201368Y-99564226D01*
X187353213Y-99665686D01*
X187521935Y-99735572D01*
X187701049Y-99771200D01*
X187883671Y-99771200D01*
X188062785Y-99735572D01*
X188231507Y-99665686D01*
X188383352Y-99564226D01*
X188512486Y-99435092D01*
X188613946Y-99283247D01*
X188683832Y-99114525D01*
X188719460Y-98935411D01*
X188719460Y-98752789D01*
X188683832Y-98573675D01*
X188613946Y-98404953D01*
X188512486Y-98253108D01*
X188383352Y-98123974D01*
X188231507Y-98022514D01*
X188062785Y-97952628D01*
X187883671Y-97917000D01*
X187701049Y-97917000D01*
X187521935Y-97952628D01*
X187353213Y-98022514D01*
X187201368Y-98123974D01*
X187072234Y-98253108D01*
X186970774Y-98404953D01*
X186900888Y-98573675D01*
X186865260Y-98752789D01*
X179684089Y-98752789D01*
X179725220Y-98546015D01*
X179725220Y-98263345D01*
X179670073Y-97986106D01*
X179561900Y-97724953D01*
X179404857Y-97489921D01*
X179204979Y-97290043D01*
X179185533Y-97277049D01*
X185244742Y-97277049D01*
X185244742Y-97459671D01*
X185280370Y-97638785D01*
X185350256Y-97807507D01*
X185451716Y-97959352D01*
X185580850Y-98088486D01*
X185732695Y-98189946D01*
X185901417Y-98259832D01*
X186080531Y-98295460D01*
X186263153Y-98295460D01*
X186442267Y-98259832D01*
X186610989Y-98189946D01*
X186762834Y-98088486D01*
X186891968Y-97959352D01*
X186993428Y-97807507D01*
X187063314Y-97638785D01*
X187098942Y-97459671D01*
X187098942Y-97277049D01*
X187063314Y-97097935D01*
X186993428Y-96929213D01*
X186891968Y-96777368D01*
X186762834Y-96648234D01*
X186610989Y-96546774D01*
X186442267Y-96476888D01*
X186263153Y-96441260D01*
X186080531Y-96441260D01*
X185901417Y-96476888D01*
X185732695Y-96546774D01*
X185580850Y-96648234D01*
X185451716Y-96777368D01*
X185350256Y-96929213D01*
X185280370Y-97097935D01*
X185244742Y-97277049D01*
X179185533Y-97277049D01*
X178972461Y-97134680D01*
X179204979Y-96979317D01*
X179404857Y-96779439D01*
X179561900Y-96544407D01*
X179670073Y-96283254D01*
X179725220Y-96006015D01*
X179725220Y-95723345D01*
X179670073Y-95446106D01*
X179561900Y-95184953D01*
X179404857Y-94949921D01*
X179204979Y-94750043D01*
X179124710Y-94696409D01*
X179494180Y-94696409D01*
X179494180Y-94879031D01*
X179529808Y-95058145D01*
X179599694Y-95226867D01*
X179701154Y-95378712D01*
X179830288Y-95507846D01*
X179982133Y-95609306D01*
X180150855Y-95679192D01*
X180323537Y-95713541D01*
X180323537Y-95779961D01*
X180359165Y-95959075D01*
X180429051Y-96127797D01*
X180530511Y-96279642D01*
X180659645Y-96408776D01*
X180811490Y-96510236D01*
X180980212Y-96580122D01*
X181159326Y-96615750D01*
X181341948Y-96615750D01*
X181521062Y-96580122D01*
X181689784Y-96510236D01*
X181841629Y-96408776D01*
X181970763Y-96279642D01*
X182072223Y-96127797D01*
X182142109Y-95959075D01*
X182177737Y-95779961D01*
X182177737Y-95597339D01*
X182142109Y-95418225D01*
X182072223Y-95249503D01*
X182036011Y-95195307D01*
X182047229Y-95184089D01*
X184990738Y-95184089D01*
X184990738Y-95366711D01*
X185026366Y-95545825D01*
X185096252Y-95714547D01*
X185197712Y-95866392D01*
X185326846Y-95995526D01*
X185478691Y-96096986D01*
X185647413Y-96166872D01*
X185826527Y-96202500D01*
X186009149Y-96202500D01*
X186188263Y-96166872D01*
X186356985Y-96096986D01*
X186508830Y-95995526D01*
X186637964Y-95866392D01*
X186739424Y-95714547D01*
X186809310Y-95545825D01*
X186844938Y-95366711D01*
X186844938Y-95184089D01*
X186809310Y-95004975D01*
X186739424Y-94836253D01*
X186637964Y-94684408D01*
X186508830Y-94555274D01*
X186356985Y-94453814D01*
X186188263Y-94383928D01*
X186009149Y-94348300D01*
X185826527Y-94348300D01*
X185647413Y-94383928D01*
X185478691Y-94453814D01*
X185326846Y-94555274D01*
X185197712Y-94684408D01*
X185096252Y-94836253D01*
X185026366Y-95004975D01*
X184990738Y-95184089D01*
X182047229Y-95184089D01*
X182137086Y-95094232D01*
X182238546Y-94942387D01*
X182308432Y-94773665D01*
X182344060Y-94594551D01*
X182344060Y-94411929D01*
X182308432Y-94232815D01*
X182260418Y-94116897D01*
X182319826Y-94027987D01*
X182389712Y-93859265D01*
X182425340Y-93680151D01*
X182425340Y-93497529D01*
X182389712Y-93318415D01*
X182344331Y-93208854D01*
X182350014Y-93200349D01*
X184881520Y-93200349D01*
X184881520Y-93382971D01*
X184917148Y-93562085D01*
X184987034Y-93730807D01*
X185088494Y-93882652D01*
X185217628Y-94011786D01*
X185369473Y-94113246D01*
X185538195Y-94183132D01*
X185717309Y-94218760D01*
X185899931Y-94218760D01*
X186079045Y-94183132D01*
X186247767Y-94113246D01*
X186399612Y-94011786D01*
X186528746Y-93882652D01*
X186630206Y-93730807D01*
X186700092Y-93562085D01*
X186735720Y-93382971D01*
X186735720Y-93200349D01*
X186700092Y-93021235D01*
X186630206Y-92852513D01*
X186528746Y-92700668D01*
X186399612Y-92571534D01*
X186247767Y-92470074D01*
X186079045Y-92400188D01*
X185899931Y-92364560D01*
X185717309Y-92364560D01*
X185538195Y-92400188D01*
X185369473Y-92470074D01*
X185217628Y-92571534D01*
X185088494Y-92700668D01*
X184987034Y-92852513D01*
X184917148Y-93021235D01*
X184881520Y-93200349D01*
X182350014Y-93200349D01*
X182360466Y-93184707D01*
X182430352Y-93015985D01*
X182465980Y-92836871D01*
X182465980Y-92654249D01*
X182430352Y-92475135D01*
X182360466Y-92306413D01*
X182259006Y-92154568D01*
X182129872Y-92025434D01*
X182081234Y-91992935D01*
X182211152Y-91906126D01*
X182340286Y-91776992D01*
X182441746Y-91625147D01*
X182511632Y-91456425D01*
X182547260Y-91277311D01*
X182547260Y-91094689D01*
X182511632Y-90915575D01*
X182441746Y-90746853D01*
X182340286Y-90595008D01*
X182211152Y-90465874D01*
X182059307Y-90364414D01*
X181890585Y-90294528D01*
X181763198Y-90269189D01*
X183934100Y-90269189D01*
X183934100Y-90451811D01*
X183969728Y-90630925D01*
X184039614Y-90799647D01*
X184141074Y-90951492D01*
X184270208Y-91080626D01*
X184422053Y-91182086D01*
X184590775Y-91251972D01*
X184769889Y-91287600D01*
X184952511Y-91287600D01*
X185131625Y-91251972D01*
X185300347Y-91182086D01*
X185442549Y-91087069D01*
X187319920Y-91087069D01*
X187319920Y-91269691D01*
X187355548Y-91448805D01*
X187425434Y-91617527D01*
X187526894Y-91769372D01*
X187656028Y-91898506D01*
X187807873Y-91999966D01*
X187976595Y-92069852D01*
X188155709Y-92105480D01*
X188338331Y-92105480D01*
X188517445Y-92069852D01*
X188686167Y-91999966D01*
X188838012Y-91898506D01*
X188967146Y-91769372D01*
X189068606Y-91617527D01*
X189138492Y-91448805D01*
X189174120Y-91269691D01*
X189174120Y-91087069D01*
X189138492Y-90907955D01*
X189068606Y-90739233D01*
X188967146Y-90587388D01*
X188838012Y-90458254D01*
X188686167Y-90356794D01*
X188517445Y-90286908D01*
X188338331Y-90251280D01*
X188155709Y-90251280D01*
X187976595Y-90286908D01*
X187807873Y-90356794D01*
X187656028Y-90458254D01*
X187526894Y-90587388D01*
X187425434Y-90739233D01*
X187355548Y-90907955D01*
X187319920Y-91087069D01*
X185442549Y-91087069D01*
X185452192Y-91080626D01*
X185581326Y-90951492D01*
X185682786Y-90799647D01*
X185752672Y-90630925D01*
X185788300Y-90451811D01*
X185788300Y-90269189D01*
X185752672Y-90090075D01*
X185682786Y-89921353D01*
X185581326Y-89769508D01*
X185452192Y-89640374D01*
X185300347Y-89538914D01*
X185131625Y-89469028D01*
X184952511Y-89433400D01*
X184769889Y-89433400D01*
X184590775Y-89469028D01*
X184422053Y-89538914D01*
X184270208Y-89640374D01*
X184141074Y-89769508D01*
X184039614Y-89921353D01*
X183969728Y-90090075D01*
X183934100Y-90269189D01*
X181763198Y-90269189D01*
X181711471Y-90258900D01*
X181528849Y-90258900D01*
X181349735Y-90294528D01*
X181181013Y-90364414D01*
X181029168Y-90465874D01*
X180900034Y-90595008D01*
X180798574Y-90746853D01*
X180728688Y-90915575D01*
X180693060Y-91094689D01*
X180693060Y-91277311D01*
X180728688Y-91456425D01*
X180798574Y-91625147D01*
X180900034Y-91776992D01*
X181029168Y-91906126D01*
X181077806Y-91938625D01*
X180947888Y-92025434D01*
X180818754Y-92154568D01*
X180717294Y-92306413D01*
X180647408Y-92475135D01*
X180611780Y-92654249D01*
X180611780Y-92836871D01*
X180647408Y-93015985D01*
X180692789Y-93125546D01*
X180676654Y-93149693D01*
X180606768Y-93318415D01*
X180571140Y-93497529D01*
X180571140Y-93680151D01*
X180606768Y-93859265D01*
X180615836Y-93881157D01*
X180512591Y-93860620D01*
X180329969Y-93860620D01*
X180150855Y-93896248D01*
X179982133Y-93966134D01*
X179830288Y-94067594D01*
X179701154Y-94196728D01*
X179599694Y-94348573D01*
X179529808Y-94517295D01*
X179494180Y-94696409D01*
X179124710Y-94696409D01*
X178972461Y-94594680D01*
X179204979Y-94439317D01*
X179404857Y-94239439D01*
X179561900Y-94004407D01*
X179670073Y-93743254D01*
X179725220Y-93466015D01*
X179725220Y-93183345D01*
X179670073Y-92906106D01*
X179561900Y-92644953D01*
X179404857Y-92409921D01*
X179204979Y-92210043D01*
X178972461Y-92054680D01*
X179204979Y-91899317D01*
X179404857Y-91699439D01*
X179561900Y-91464407D01*
X179670073Y-91203254D01*
X179725220Y-90926015D01*
X179725220Y-90643345D01*
X179670073Y-90366106D01*
X179561900Y-90104953D01*
X179513209Y-90032081D01*
X179936788Y-90032081D01*
X179971714Y-90035521D01*
X180006640Y-90032081D01*
X180006650Y-90032081D01*
X180111134Y-90021790D01*
X180245195Y-89981123D01*
X180368747Y-89915083D01*
X180477041Y-89826208D01*
X180499316Y-89799066D01*
X182721594Y-87576789D01*
X183763270Y-87576789D01*
X183763270Y-87759411D01*
X183798898Y-87938525D01*
X183868784Y-88107247D01*
X183970244Y-88259092D01*
X184099378Y-88388226D01*
X184251223Y-88489686D01*
X184419945Y-88559572D01*
X184599059Y-88595200D01*
X184781681Y-88595200D01*
X184960795Y-88559572D01*
X185129517Y-88489686D01*
X185281362Y-88388226D01*
X185410496Y-88259092D01*
X185511956Y-88107247D01*
X185581842Y-87938525D01*
X185617470Y-87759411D01*
X185617470Y-87576789D01*
X185581842Y-87397675D01*
X185511956Y-87228953D01*
X185410496Y-87077108D01*
X185281362Y-86947974D01*
X185129517Y-86846514D01*
X184960795Y-86776628D01*
X184781681Y-86741000D01*
X184599059Y-86741000D01*
X184419945Y-86776628D01*
X184251223Y-86846514D01*
X184099378Y-86947974D01*
X183970244Y-87077108D01*
X183868784Y-87228953D01*
X183798898Y-87397675D01*
X183763270Y-87576789D01*
X182721594Y-87576789D01*
X184769059Y-85529325D01*
X184781681Y-85529325D01*
X184960795Y-85493697D01*
X185129517Y-85423811D01*
X185281362Y-85322351D01*
X185410496Y-85193217D01*
X185511956Y-85041372D01*
X185581842Y-84872650D01*
X185617470Y-84693536D01*
X185617470Y-84510914D01*
X185581842Y-84331800D01*
X185511956Y-84163078D01*
X185410496Y-84011233D01*
X185281362Y-83882099D01*
X185129517Y-83780639D01*
X184960795Y-83710753D01*
X184781681Y-83675125D01*
X184599059Y-83675125D01*
X184419945Y-83710753D01*
X184251223Y-83780639D01*
X184202294Y-83813332D01*
X184236360Y-83642071D01*
X184236360Y-83459449D01*
X184200732Y-83280335D01*
X184130846Y-83111613D01*
X184029386Y-82959768D01*
X183900252Y-82830634D01*
X183748407Y-82729174D01*
X183579685Y-82659288D01*
X183400571Y-82623660D01*
X183217949Y-82623660D01*
X183038835Y-82659288D01*
X182870113Y-82729174D01*
X182718268Y-82830634D01*
X182589134Y-82959768D01*
X182487674Y-83111613D01*
X182417788Y-83280335D01*
X182382160Y-83459449D01*
X182382160Y-83642071D01*
X182417788Y-83821185D01*
X182487674Y-83989907D01*
X182589134Y-84141752D01*
X182718268Y-84270886D01*
X182870113Y-84372346D01*
X183038835Y-84442232D01*
X183217949Y-84477860D01*
X183400571Y-84477860D01*
X183579685Y-84442232D01*
X183748407Y-84372346D01*
X183797336Y-84339653D01*
X183763270Y-84510914D01*
X183763270Y-84523536D01*
X179681624Y-88605184D01*
X179725220Y-88386015D01*
X179725220Y-88103345D01*
X179670073Y-87826106D01*
X179561900Y-87564953D01*
X179404857Y-87329921D01*
X179204979Y-87130043D01*
X178972461Y-86974680D01*
X179204979Y-86819317D01*
X179404857Y-86619439D01*
X179561900Y-86384407D01*
X179670073Y-86123254D01*
X179725220Y-85846015D01*
X179725220Y-85563345D01*
X179670073Y-85286106D01*
X179561900Y-85024953D01*
X179404857Y-84789921D01*
X179204979Y-84590043D01*
X178972461Y-84434680D01*
X179204979Y-84279317D01*
X179404857Y-84079439D01*
X179561900Y-83844407D01*
X179670073Y-83583254D01*
X179725220Y-83306015D01*
X179725220Y-83023345D01*
X179670073Y-82746106D01*
X179561900Y-82484953D01*
X179404857Y-82249921D01*
X179204979Y-82050043D01*
X178972461Y-81894680D01*
X179204979Y-81739317D01*
X179404857Y-81539439D01*
X179561900Y-81304407D01*
X179670073Y-81043254D01*
X179725220Y-80766015D01*
X179725220Y-80483345D01*
X179670073Y-80206106D01*
X179561900Y-79944953D01*
X179404857Y-79709921D01*
X179204979Y-79510043D01*
X178972461Y-79354680D01*
X179204979Y-79199317D01*
X179404857Y-78999439D01*
X179561900Y-78764407D01*
X179670073Y-78503254D01*
X179725220Y-78226015D01*
X179725220Y-77943345D01*
X179670073Y-77666106D01*
X179561900Y-77404953D01*
X179550650Y-77388115D01*
X186392086Y-77388115D01*
X186392086Y-77570737D01*
X186427714Y-77749851D01*
X186497600Y-77918573D01*
X186599060Y-78070418D01*
X186728194Y-78199552D01*
X186880039Y-78301012D01*
X187048761Y-78370898D01*
X187227875Y-78406526D01*
X187410497Y-78406526D01*
X187589611Y-78370898D01*
X187758333Y-78301012D01*
X187910178Y-78199552D01*
X188039312Y-78070418D01*
X188140772Y-77918573D01*
X188210658Y-77749851D01*
X188246286Y-77570737D01*
X188246286Y-77388115D01*
X188210658Y-77209001D01*
X188140772Y-77040279D01*
X188039312Y-76888434D01*
X187910178Y-76759300D01*
X187758333Y-76657840D01*
X187589611Y-76587954D01*
X187410497Y-76552326D01*
X187227875Y-76552326D01*
X187048761Y-76587954D01*
X186880039Y-76657840D01*
X186728194Y-76759300D01*
X186599060Y-76888434D01*
X186497600Y-77040279D01*
X186427714Y-77209001D01*
X186392086Y-77388115D01*
X179550650Y-77388115D01*
X179404857Y-77169921D01*
X179204979Y-76970043D01*
X178972461Y-76814680D01*
X179204979Y-76659317D01*
X179404857Y-76459439D01*
X179561900Y-76224407D01*
X179670073Y-75963254D01*
X179725220Y-75686015D01*
X179725220Y-75403345D01*
X179670073Y-75126106D01*
X179561900Y-74864953D01*
X179404857Y-74629921D01*
X179204979Y-74430043D01*
X178972461Y-74274680D01*
X179204979Y-74119317D01*
X179404857Y-73919439D01*
X179561900Y-73684407D01*
X179670073Y-73423254D01*
X179725220Y-73146015D01*
X179725220Y-72863345D01*
X179670073Y-72586106D01*
X179561900Y-72324953D01*
X179404857Y-72089921D01*
X179402492Y-72087556D01*
X186433209Y-72078930D01*
X186470254Y-72134372D01*
X186599388Y-72263506D01*
X186751233Y-72364966D01*
X186919955Y-72434852D01*
X187099069Y-72470480D01*
X187281691Y-72470480D01*
X187460805Y-72434852D01*
X187629527Y-72364966D01*
X187781372Y-72263506D01*
X187910506Y-72134372D01*
X187948794Y-72077070D01*
X189602580Y-72075041D01*
X192400404Y-72112638D01*
G04 #@! TA.AperFunction,Conductor*
D17*
G36*
X192400404Y-72112638D02*
G01*
X192258540Y-72324953D01*
X192150367Y-72586106D01*
X192095220Y-72863345D01*
X192095220Y-73146015D01*
X192150367Y-73423254D01*
X192258540Y-73684407D01*
X192415583Y-73919439D01*
X192615461Y-74119317D01*
X192847979Y-74274680D01*
X192615461Y-74430043D01*
X192415583Y-74629921D01*
X192258540Y-74864953D01*
X192150367Y-75126106D01*
X192095220Y-75403345D01*
X192095220Y-75686015D01*
X192150367Y-75963254D01*
X192258540Y-76224407D01*
X192415583Y-76459439D01*
X192615461Y-76659317D01*
X192850493Y-76816360D01*
X193111646Y-76924533D01*
X193388885Y-76979680D01*
X193671555Y-76979680D01*
X193948794Y-76924533D01*
X194012820Y-76898013D01*
X194012820Y-79271347D01*
X193948794Y-79244827D01*
X193671555Y-79189680D01*
X193388885Y-79189680D01*
X193111646Y-79244827D01*
X192850493Y-79353000D01*
X192615461Y-79510043D01*
X192415583Y-79709921D01*
X192258540Y-79944953D01*
X192150367Y-80206106D01*
X192095220Y-80483345D01*
X192095220Y-80766015D01*
X192150367Y-81043254D01*
X192258540Y-81304407D01*
X192415583Y-81539439D01*
X192615461Y-81739317D01*
X192847979Y-81894680D01*
X192615461Y-82050043D01*
X192415583Y-82249921D01*
X192258540Y-82484953D01*
X192150367Y-82746106D01*
X192095220Y-83023345D01*
X192095220Y-83306015D01*
X192150367Y-83583254D01*
X192258540Y-83844407D01*
X192415583Y-84079439D01*
X192615461Y-84279317D01*
X192847979Y-84434680D01*
X192615461Y-84590043D01*
X192415583Y-84789921D01*
X192258540Y-85024953D01*
X192150367Y-85286106D01*
X192095220Y-85563345D01*
X192095220Y-85846015D01*
X192150367Y-86123254D01*
X192258540Y-86384407D01*
X192415583Y-86619439D01*
X192615461Y-86819317D01*
X192847979Y-86974680D01*
X192615461Y-87130043D01*
X192415583Y-87329921D01*
X192258540Y-87564953D01*
X192150367Y-87826106D01*
X192095220Y-88103345D01*
X192095220Y-88386015D01*
X192150367Y-88663254D01*
X192258540Y-88924407D01*
X192415583Y-89159439D01*
X192615461Y-89359317D01*
X192847979Y-89514680D01*
X192615461Y-89670043D01*
X192415583Y-89869921D01*
X192258540Y-90104953D01*
X192150367Y-90366106D01*
X192095220Y-90643345D01*
X192095220Y-90926015D01*
X192150367Y-91203254D01*
X192258540Y-91464407D01*
X192415583Y-91699439D01*
X192615461Y-91899317D01*
X192847979Y-92054680D01*
X192615461Y-92210043D01*
X192415583Y-92409921D01*
X192258540Y-92644953D01*
X192150367Y-92906106D01*
X192095220Y-93183345D01*
X192095220Y-93466015D01*
X192150367Y-93743254D01*
X192258540Y-94004407D01*
X192415583Y-94239439D01*
X192615461Y-94439317D01*
X192847979Y-94594680D01*
X192615461Y-94750043D01*
X192415583Y-94949921D01*
X192258540Y-95184953D01*
X192150367Y-95446106D01*
X192095220Y-95723345D01*
X192095220Y-96006015D01*
X192150367Y-96283254D01*
X192258540Y-96544407D01*
X192415583Y-96779439D01*
X192615461Y-96979317D01*
X192847979Y-97134680D01*
X192615461Y-97290043D01*
X192415583Y-97489921D01*
X192258540Y-97724953D01*
X192150367Y-97986106D01*
X192095220Y-98263345D01*
X192095220Y-98546015D01*
X192150367Y-98823254D01*
X192258540Y-99084407D01*
X192415583Y-99319439D01*
X192615461Y-99519317D01*
X192847979Y-99674680D01*
X192615461Y-99830043D01*
X192415583Y-100029921D01*
X192258540Y-100264953D01*
X192150367Y-100526106D01*
X192095220Y-100803345D01*
X192095220Y-101086015D01*
X192150367Y-101363254D01*
X192258540Y-101624407D01*
X192415583Y-101859439D01*
X192615461Y-102059317D01*
X192847979Y-102214680D01*
X192615461Y-102370043D01*
X192415583Y-102569921D01*
X192258540Y-102804953D01*
X192150367Y-103066106D01*
X192095220Y-103343345D01*
X192095220Y-103626015D01*
X192150367Y-103903254D01*
X192258540Y-104164407D01*
X192415583Y-104399439D01*
X192615461Y-104599317D01*
X192847979Y-104754680D01*
X192615461Y-104910043D01*
X192415583Y-105109921D01*
X192258540Y-105344953D01*
X192150367Y-105606106D01*
X192095220Y-105883345D01*
X192095220Y-106166015D01*
X192150367Y-106443254D01*
X192258540Y-106704407D01*
X192415583Y-106939439D01*
X192615461Y-107139317D01*
X192847979Y-107294680D01*
X192615461Y-107450043D01*
X192415583Y-107649921D01*
X192258540Y-107884953D01*
X192150367Y-108146106D01*
X192095220Y-108423345D01*
X192095220Y-108706015D01*
X192150367Y-108983254D01*
X192240675Y-109201276D01*
X172418098Y-109350527D01*
X164514545Y-101446975D01*
X164523673Y-100728909D01*
X165143180Y-100728909D01*
X165143180Y-100911531D01*
X165178808Y-101090645D01*
X165248694Y-101259367D01*
X165350154Y-101411212D01*
X165479288Y-101540346D01*
X165631133Y-101641806D01*
X165799855Y-101711692D01*
X165978969Y-101747320D01*
X166161591Y-101747320D01*
X166340705Y-101711692D01*
X166509427Y-101641806D01*
X166661272Y-101540346D01*
X166790406Y-101411212D01*
X166891866Y-101259367D01*
X166961752Y-101090645D01*
X166981792Y-100989897D01*
X167073709Y-101008180D01*
X167256331Y-101008180D01*
X167435445Y-100972552D01*
X167604167Y-100902666D01*
X167756012Y-100801206D01*
X167885146Y-100672072D01*
X167986606Y-100520227D01*
X168056492Y-100351505D01*
X168092120Y-100172391D01*
X168092120Y-99989769D01*
X168056492Y-99810655D01*
X167986606Y-99641933D01*
X167985450Y-99640204D01*
X168069389Y-99656900D01*
X168252011Y-99656900D01*
X168431125Y-99621272D01*
X168599847Y-99551386D01*
X168751692Y-99449926D01*
X168880826Y-99320792D01*
X168982286Y-99168947D01*
X169052172Y-99000225D01*
X169087800Y-98821111D01*
X169087800Y-98638489D01*
X169052172Y-98459375D01*
X168982286Y-98290653D01*
X168880826Y-98138808D01*
X168751692Y-98009674D01*
X168599847Y-97908214D01*
X168431125Y-97838328D01*
X168252011Y-97802700D01*
X168069389Y-97802700D01*
X167890275Y-97838328D01*
X167721553Y-97908214D01*
X167569708Y-98009674D01*
X167440574Y-98138808D01*
X167339114Y-98290653D01*
X167269228Y-98459375D01*
X167233600Y-98638489D01*
X167233600Y-98821111D01*
X167269228Y-99000225D01*
X167339114Y-99168947D01*
X167340270Y-99170676D01*
X167256331Y-99153980D01*
X167073709Y-99153980D01*
X166894595Y-99189608D01*
X166725873Y-99259494D01*
X166574028Y-99360954D01*
X166444894Y-99490088D01*
X166343434Y-99641933D01*
X166273548Y-99810655D01*
X166253508Y-99911403D01*
X166161591Y-99893120D01*
X165978969Y-99893120D01*
X165799855Y-99928748D01*
X165631133Y-99998634D01*
X165479288Y-100100094D01*
X165350154Y-100229228D01*
X165248694Y-100381073D01*
X165178808Y-100549795D01*
X165143180Y-100728909D01*
X164523673Y-100728909D01*
X164546671Y-98920006D01*
X164594024Y-99034327D01*
X164695484Y-99186172D01*
X164824618Y-99315306D01*
X164976463Y-99416766D01*
X165145185Y-99486652D01*
X165324299Y-99522280D01*
X165506921Y-99522280D01*
X165686035Y-99486652D01*
X165854757Y-99416766D01*
X166006602Y-99315306D01*
X166135736Y-99186172D01*
X166237196Y-99034327D01*
X166307082Y-98865605D01*
X166342710Y-98686491D01*
X166342710Y-98503869D01*
X166307082Y-98324755D01*
X166237196Y-98156033D01*
X166135736Y-98004188D01*
X166006602Y-97875054D01*
X165854757Y-97773594D01*
X165686035Y-97703708D01*
X165506921Y-97668080D01*
X165324299Y-97668080D01*
X165145185Y-97703708D01*
X164976463Y-97773594D01*
X164824618Y-97875054D01*
X164695484Y-98004188D01*
X164594024Y-98156033D01*
X164555192Y-98249783D01*
X164577477Y-96496901D01*
X164621782Y-96452596D01*
X164723242Y-96300751D01*
X164793128Y-96132029D01*
X164828756Y-95952915D01*
X164828756Y-95770293D01*
X164793128Y-95591179D01*
X164723242Y-95422457D01*
X164621782Y-95270612D01*
X164593428Y-95242258D01*
X164616061Y-93461969D01*
X169730420Y-93461969D01*
X169730420Y-93644591D01*
X169766048Y-93823705D01*
X169835934Y-93992427D01*
X169937394Y-94144272D01*
X170066528Y-94273406D01*
X170218373Y-94374866D01*
X170387095Y-94444752D01*
X170566209Y-94480380D01*
X170748831Y-94480380D01*
X170927945Y-94444752D01*
X171096667Y-94374866D01*
X171248512Y-94273406D01*
X171377646Y-94144272D01*
X171479106Y-93992427D01*
X171548992Y-93823705D01*
X171584620Y-93644591D01*
X171584620Y-93461969D01*
X171548992Y-93282855D01*
X171479106Y-93114133D01*
X171377646Y-92962288D01*
X171248512Y-92833154D01*
X171096667Y-92731694D01*
X170927945Y-92661808D01*
X170748831Y-92626180D01*
X170566209Y-92626180D01*
X170387095Y-92661808D01*
X170218373Y-92731694D01*
X170066528Y-92833154D01*
X169937394Y-92962288D01*
X169835934Y-93114133D01*
X169766048Y-93282855D01*
X169730420Y-93461969D01*
X164616061Y-93461969D01*
X164632078Y-92202129D01*
X164863780Y-92202129D01*
X164863780Y-92384751D01*
X164899408Y-92563865D01*
X164969294Y-92732587D01*
X165070754Y-92884432D01*
X165199888Y-93013566D01*
X165351733Y-93115026D01*
X165520455Y-93184912D01*
X165699569Y-93220540D01*
X165882191Y-93220540D01*
X166061305Y-93184912D01*
X166230027Y-93115026D01*
X166381872Y-93013566D01*
X166511006Y-92884432D01*
X166612466Y-92732587D01*
X166682352Y-92563865D01*
X166717980Y-92384751D01*
X166717980Y-92202129D01*
X166682352Y-92023015D01*
X166612466Y-91854293D01*
X166511006Y-91702448D01*
X166381872Y-91573314D01*
X166230027Y-91471854D01*
X166061305Y-91401968D01*
X165882191Y-91366340D01*
X165699569Y-91366340D01*
X165520455Y-91401968D01*
X165351733Y-91471854D01*
X165199888Y-91573314D01*
X165070754Y-91702448D01*
X164969294Y-91854293D01*
X164899408Y-92023015D01*
X164863780Y-92202129D01*
X164632078Y-92202129D01*
X164658525Y-90121871D01*
X165841680Y-90121871D01*
X165841680Y-90304493D01*
X165877308Y-90483607D01*
X165947194Y-90652329D01*
X166048654Y-90804174D01*
X166177788Y-90933308D01*
X166329633Y-91034768D01*
X166498355Y-91104654D01*
X166677469Y-91140282D01*
X166860091Y-91140282D01*
X167005505Y-91111357D01*
X166988454Y-91128408D01*
X166886994Y-91280253D01*
X166817108Y-91448975D01*
X166781480Y-91628089D01*
X166781480Y-91810711D01*
X166817108Y-91989825D01*
X166886994Y-92158547D01*
X166988454Y-92310392D01*
X167117588Y-92439526D01*
X167269433Y-92540986D01*
X167438155Y-92610872D01*
X167617269Y-92646500D01*
X167799891Y-92646500D01*
X167979005Y-92610872D01*
X168147727Y-92540986D01*
X168299572Y-92439526D01*
X168428706Y-92310392D01*
X168530166Y-92158547D01*
X168600052Y-91989825D01*
X168635680Y-91810711D01*
X168635680Y-91628089D01*
X168600052Y-91448975D01*
X168530166Y-91280253D01*
X168428706Y-91128408D01*
X168299572Y-90999274D01*
X168147727Y-90897814D01*
X167979005Y-90827928D01*
X167799891Y-90792300D01*
X167617269Y-90792300D01*
X167471855Y-90821225D01*
X167488906Y-90804174D01*
X167590366Y-90652329D01*
X167660252Y-90483607D01*
X167695880Y-90304493D01*
X167695880Y-90121871D01*
X167660252Y-89942757D01*
X167590366Y-89774035D01*
X167488906Y-89622190D01*
X167359772Y-89493056D01*
X167207927Y-89391596D01*
X167039205Y-89321710D01*
X166860091Y-89286082D01*
X166677469Y-89286082D01*
X166498355Y-89321710D01*
X166329633Y-89391596D01*
X166177788Y-89493056D01*
X166048654Y-89622190D01*
X165947194Y-89774035D01*
X165877308Y-89942757D01*
X165841680Y-90121871D01*
X164658525Y-90121871D01*
X164690506Y-87606408D01*
X164825212Y-87550612D01*
X164977057Y-87449152D01*
X165106191Y-87320018D01*
X165207651Y-87168173D01*
X165277537Y-86999451D01*
X165307781Y-86847403D01*
X165478027Y-86847403D01*
X165657141Y-86811775D01*
X165825863Y-86741889D01*
X165861212Y-86718269D01*
X168084500Y-86718269D01*
X168084500Y-86900891D01*
X168120128Y-87080005D01*
X168190014Y-87248727D01*
X168291474Y-87400572D01*
X168420608Y-87529706D01*
X168572453Y-87631166D01*
X168741175Y-87701052D01*
X168920289Y-87736680D01*
X169102911Y-87736680D01*
X169282025Y-87701052D01*
X169450747Y-87631166D01*
X169602592Y-87529706D01*
X169731726Y-87400572D01*
X169833186Y-87248727D01*
X169903072Y-87080005D01*
X169938700Y-86900891D01*
X169938700Y-86718269D01*
X169903072Y-86539155D01*
X169833186Y-86370433D01*
X169731726Y-86218588D01*
X169602592Y-86089454D01*
X169450747Y-85987994D01*
X169282025Y-85918108D01*
X169102911Y-85882480D01*
X168920289Y-85882480D01*
X168741175Y-85918108D01*
X168572453Y-85987994D01*
X168420608Y-86089454D01*
X168291474Y-86218588D01*
X168190014Y-86370433D01*
X168120128Y-86539155D01*
X168084500Y-86718269D01*
X165861212Y-86718269D01*
X165977708Y-86640429D01*
X166106842Y-86511295D01*
X166208302Y-86359450D01*
X166278188Y-86190728D01*
X166313816Y-86011614D01*
X166313816Y-85828992D01*
X166293287Y-85725784D01*
X166330103Y-85701184D01*
X166459237Y-85572050D01*
X166560697Y-85420205D01*
X166630583Y-85251483D01*
X166666211Y-85072369D01*
X166666211Y-84889747D01*
X166630583Y-84710633D01*
X166560697Y-84541911D01*
X166494149Y-84442316D01*
X166578708Y-84315765D01*
X166648594Y-84147043D01*
X166684222Y-83967929D01*
X166684222Y-83785307D01*
X166648594Y-83606193D01*
X166578708Y-83437471D01*
X166477248Y-83285626D01*
X166348114Y-83156492D01*
X166327790Y-83142912D01*
X166386406Y-83055187D01*
X166456292Y-82886465D01*
X166491920Y-82707351D01*
X166491920Y-82524729D01*
X166456292Y-82345615D01*
X166396614Y-82201537D01*
X166437206Y-82140787D01*
X166507092Y-81972065D01*
X166542720Y-81792951D01*
X166542720Y-81610329D01*
X166507092Y-81431215D01*
X166437206Y-81262493D01*
X166353948Y-81137890D01*
X166361006Y-81127327D01*
X166396610Y-81041369D01*
X166476682Y-81041369D01*
X166476682Y-81223991D01*
X166512310Y-81403105D01*
X166582196Y-81571827D01*
X166683656Y-81723672D01*
X166812790Y-81852806D01*
X166964635Y-81954266D01*
X167133357Y-82024152D01*
X167312471Y-82059780D01*
X167495093Y-82059780D01*
X167674207Y-82024152D01*
X167842929Y-81954266D01*
X167994774Y-81852806D01*
X168123908Y-81723672D01*
X168225368Y-81571827D01*
X168295254Y-81403105D01*
X168330882Y-81223991D01*
X168330882Y-81041369D01*
X168295254Y-80862255D01*
X168225368Y-80693533D01*
X168123908Y-80541688D01*
X167994774Y-80412554D01*
X167842929Y-80311094D01*
X167674207Y-80241208D01*
X167495093Y-80205580D01*
X167312471Y-80205580D01*
X167133357Y-80241208D01*
X166964635Y-80311094D01*
X166812790Y-80412554D01*
X166683656Y-80541688D01*
X166582196Y-80693533D01*
X166512310Y-80862255D01*
X166476682Y-81041369D01*
X166396610Y-81041369D01*
X166430892Y-80958605D01*
X166466520Y-80779491D01*
X166466520Y-80596869D01*
X166430892Y-80417755D01*
X166361006Y-80249033D01*
X166259546Y-80097188D01*
X166130412Y-79968054D01*
X165978567Y-79866594D01*
X165809845Y-79796708D01*
X165630731Y-79761080D01*
X165448109Y-79761080D01*
X165268995Y-79796708D01*
X165100273Y-79866594D01*
X165081440Y-79879178D01*
X165103846Y-79856772D01*
X165205306Y-79704927D01*
X165275192Y-79536205D01*
X165310820Y-79357091D01*
X165310820Y-79174469D01*
X165275192Y-78995355D01*
X165205306Y-78826633D01*
X165103846Y-78674788D01*
X164974712Y-78545654D01*
X164822867Y-78444194D01*
X164807073Y-78437652D01*
X164887578Y-72105366D01*
X173497863Y-72094801D01*
X173337643Y-72255021D01*
X173180600Y-72490053D01*
X173072427Y-72751206D01*
X173017280Y-73028445D01*
X173017280Y-73311115D01*
X173072427Y-73588354D01*
X173180600Y-73849507D01*
X173337643Y-74084539D01*
X173537521Y-74284417D01*
X173770039Y-74439780D01*
X173537521Y-74595143D01*
X173337643Y-74795021D01*
X173180600Y-75030053D01*
X173072427Y-75291206D01*
X173017280Y-75568445D01*
X173017280Y-75851115D01*
X173072427Y-76128354D01*
X173180600Y-76389507D01*
X173337643Y-76624539D01*
X173537521Y-76824417D01*
X173770039Y-76979780D01*
X173537521Y-77135143D01*
X173337643Y-77335021D01*
X173180600Y-77570053D01*
X173072427Y-77831206D01*
X173017280Y-78108445D01*
X173017280Y-78391115D01*
X173072427Y-78668354D01*
X173180600Y-78929507D01*
X173337643Y-79164539D01*
X173537521Y-79364417D01*
X173770039Y-79519780D01*
X173537521Y-79675143D01*
X173337643Y-79875021D01*
X173180600Y-80110053D01*
X173072427Y-80371206D01*
X173017280Y-80648445D01*
X173017280Y-80931115D01*
X173072427Y-81208354D01*
X173180600Y-81469507D01*
X173337643Y-81704539D01*
X173537521Y-81904417D01*
X173770039Y-82059780D01*
X173537521Y-82215143D01*
X173337643Y-82415021D01*
X173180600Y-82650053D01*
X173072427Y-82911206D01*
X173017280Y-83188445D01*
X173017280Y-83471115D01*
X173072427Y-83748354D01*
X173180600Y-84009507D01*
X173337643Y-84244539D01*
X173537521Y-84444417D01*
X173770039Y-84599780D01*
X173537521Y-84755143D01*
X173337643Y-84955021D01*
X173180600Y-85190053D01*
X173072427Y-85451206D01*
X173017280Y-85728445D01*
X173017280Y-86011115D01*
X173072427Y-86288354D01*
X173180600Y-86549507D01*
X173337643Y-86784539D01*
X173537521Y-86984417D01*
X173770039Y-87139780D01*
X173537521Y-87295143D01*
X173337643Y-87495021D01*
X173180600Y-87730053D01*
X173072427Y-87991206D01*
X173017280Y-88268445D01*
X173017280Y-88551115D01*
X173072427Y-88828354D01*
X173180600Y-89089507D01*
X173337643Y-89324539D01*
X173537521Y-89524417D01*
X173770039Y-89679780D01*
X173537521Y-89835143D01*
X173337643Y-90035021D01*
X173180600Y-90270053D01*
X173072427Y-90531206D01*
X173017280Y-90808445D01*
X173017280Y-91091115D01*
X173072427Y-91368354D01*
X173180600Y-91629507D01*
X173337643Y-91864539D01*
X173537521Y-92064417D01*
X173770039Y-92219780D01*
X173537521Y-92375143D01*
X173337643Y-92575021D01*
X173180600Y-92810053D01*
X173072427Y-93071206D01*
X173017280Y-93348445D01*
X173017280Y-93631115D01*
X173072427Y-93908354D01*
X173180600Y-94169507D01*
X173337643Y-94404539D01*
X173537521Y-94604417D01*
X173770039Y-94759780D01*
X173537521Y-94915143D01*
X173337643Y-95115021D01*
X173180600Y-95350053D01*
X173072427Y-95611206D01*
X173017280Y-95888445D01*
X173017280Y-96171115D01*
X173072427Y-96448354D01*
X173180600Y-96709507D01*
X173337643Y-96944539D01*
X173537521Y-97144417D01*
X173770039Y-97299780D01*
X173537521Y-97455143D01*
X173337643Y-97655021D01*
X173180600Y-97890053D01*
X173072427Y-98151206D01*
X173017280Y-98428445D01*
X173017280Y-98711115D01*
X173072427Y-98988354D01*
X173180600Y-99249507D01*
X173337643Y-99484539D01*
X173537521Y-99684417D01*
X173770039Y-99839780D01*
X173537521Y-99995143D01*
X173337643Y-100195021D01*
X173180600Y-100430053D01*
X173072427Y-100691206D01*
X173017280Y-100968445D01*
X173017280Y-101251115D01*
X173072427Y-101528354D01*
X173180600Y-101789507D01*
X173337643Y-102024539D01*
X173537521Y-102224417D01*
X173770039Y-102379780D01*
X173537521Y-102535143D01*
X173337643Y-102735021D01*
X173180600Y-102970053D01*
X173072427Y-103231206D01*
X173017280Y-103508445D01*
X173017280Y-103791115D01*
X173072427Y-104068354D01*
X173180600Y-104329507D01*
X173337643Y-104564539D01*
X173537521Y-104764417D01*
X173770039Y-104919780D01*
X173537521Y-105075143D01*
X173337643Y-105275021D01*
X173180600Y-105510053D01*
X173072427Y-105771206D01*
X173017280Y-106048445D01*
X173017280Y-106331115D01*
X173072427Y-106608354D01*
X173180600Y-106869507D01*
X173337643Y-107104539D01*
X173537521Y-107304417D01*
X173772553Y-107461460D01*
X174033706Y-107569633D01*
X174310945Y-107624780D01*
X174593615Y-107624780D01*
X174870854Y-107569633D01*
X175132007Y-107461460D01*
X175367039Y-107304417D01*
X175566917Y-107104539D01*
X175723960Y-106869507D01*
X175832133Y-106608354D01*
X175887280Y-106331115D01*
X175887280Y-106048445D01*
X175832133Y-105771206D01*
X175723960Y-105510053D01*
X175566917Y-105275021D01*
X175367039Y-105075143D01*
X175134521Y-104919780D01*
X175367039Y-104764417D01*
X175566917Y-104564539D01*
X175723960Y-104329507D01*
X175832133Y-104068354D01*
X175887280Y-103791115D01*
X175887280Y-103508445D01*
X175832133Y-103231206D01*
X175723960Y-102970053D01*
X175566917Y-102735021D01*
X175367039Y-102535143D01*
X175134521Y-102379780D01*
X175367039Y-102224417D01*
X175566917Y-102024539D01*
X175723960Y-101789507D01*
X175832133Y-101528354D01*
X175887280Y-101251115D01*
X175887280Y-100968445D01*
X175832133Y-100691206D01*
X175723960Y-100430053D01*
X175566917Y-100195021D01*
X175367039Y-99995143D01*
X175134521Y-99839780D01*
X175367039Y-99684417D01*
X175566917Y-99484539D01*
X175723960Y-99249507D01*
X175832133Y-98988354D01*
X175887280Y-98711115D01*
X175887280Y-98428445D01*
X175832133Y-98151206D01*
X175723960Y-97890053D01*
X175566917Y-97655021D01*
X175367039Y-97455143D01*
X175134521Y-97299780D01*
X175367039Y-97144417D01*
X175566917Y-96944539D01*
X175723960Y-96709507D01*
X175832133Y-96448354D01*
X175887280Y-96171115D01*
X175887280Y-95888445D01*
X175832133Y-95611206D01*
X175723960Y-95350053D01*
X175566917Y-95115021D01*
X175367039Y-94915143D01*
X175134521Y-94759780D01*
X175367039Y-94604417D01*
X175566917Y-94404539D01*
X175723960Y-94169507D01*
X175832133Y-93908354D01*
X175887280Y-93631115D01*
X175887280Y-93348445D01*
X175832133Y-93071206D01*
X175723960Y-92810053D01*
X175566917Y-92575021D01*
X175367039Y-92375143D01*
X175134521Y-92219780D01*
X175367039Y-92064417D01*
X175566917Y-91864539D01*
X175723960Y-91629507D01*
X175832133Y-91368354D01*
X175887280Y-91091115D01*
X175887280Y-90808445D01*
X175839518Y-90568330D01*
X176375767Y-90032081D01*
X177067231Y-90032081D01*
X177018540Y-90104953D01*
X176910367Y-90366106D01*
X176855220Y-90643345D01*
X176855220Y-90926015D01*
X176910367Y-91203254D01*
X177018540Y-91464407D01*
X177175583Y-91699439D01*
X177375461Y-91899317D01*
X177607979Y-92054680D01*
X177375461Y-92210043D01*
X177175583Y-92409921D01*
X177018540Y-92644953D01*
X176910367Y-92906106D01*
X176855220Y-93183345D01*
X176855220Y-93466015D01*
X176910367Y-93743254D01*
X177018540Y-94004407D01*
X177175583Y-94239439D01*
X177375461Y-94439317D01*
X177607979Y-94594680D01*
X177375461Y-94750043D01*
X177175583Y-94949921D01*
X177018540Y-95184953D01*
X176910367Y-95446106D01*
X176855220Y-95723345D01*
X176855220Y-96006015D01*
X176910367Y-96283254D01*
X177018540Y-96544407D01*
X177175583Y-96779439D01*
X177375461Y-96979317D01*
X177607979Y-97134680D01*
X177375461Y-97290043D01*
X177175583Y-97489921D01*
X177018540Y-97724953D01*
X176910367Y-97986106D01*
X176855220Y-98263345D01*
X176855220Y-98546015D01*
X176910367Y-98823254D01*
X177018540Y-99084407D01*
X177175583Y-99319439D01*
X177375461Y-99519317D01*
X177607979Y-99674680D01*
X177375461Y-99830043D01*
X177175583Y-100029921D01*
X177018540Y-100264953D01*
X176910367Y-100526106D01*
X176855220Y-100803345D01*
X176855220Y-101086015D01*
X176910367Y-101363254D01*
X177018540Y-101624407D01*
X177175583Y-101859439D01*
X177375461Y-102059317D01*
X177607979Y-102214680D01*
X177375461Y-102370043D01*
X177175583Y-102569921D01*
X177018540Y-102804953D01*
X176910367Y-103066106D01*
X176855220Y-103343345D01*
X176855220Y-103626015D01*
X176910367Y-103903254D01*
X177018540Y-104164407D01*
X177175583Y-104399439D01*
X177375461Y-104599317D01*
X177607979Y-104754680D01*
X177375461Y-104910043D01*
X177175583Y-105109921D01*
X177018540Y-105344953D01*
X176910367Y-105606106D01*
X176855220Y-105883345D01*
X176855220Y-106166015D01*
X176910367Y-106443254D01*
X177018540Y-106704407D01*
X177175583Y-106939439D01*
X177375461Y-107139317D01*
X177610493Y-107296360D01*
X177871646Y-107404533D01*
X178148885Y-107459680D01*
X178431555Y-107459680D01*
X178708794Y-107404533D01*
X178969947Y-107296360D01*
X179204979Y-107139317D01*
X179404857Y-106939439D01*
X179561900Y-106704407D01*
X179670073Y-106443254D01*
X179725220Y-106166015D01*
X179725220Y-105883345D01*
X179670073Y-105606106D01*
X179561900Y-105344953D01*
X179404857Y-105109921D01*
X179204979Y-104910043D01*
X178972461Y-104754680D01*
X179204979Y-104599317D01*
X179404857Y-104399439D01*
X179561900Y-104164407D01*
X179670073Y-103903254D01*
X179725220Y-103626015D01*
X179725220Y-103343345D01*
X179670073Y-103066106D01*
X179561900Y-102804953D01*
X179404857Y-102569921D01*
X179204979Y-102370043D01*
X178972461Y-102214680D01*
X179204979Y-102059317D01*
X179404857Y-101859439D01*
X179561900Y-101624407D01*
X179670073Y-101363254D01*
X179725220Y-101086015D01*
X179725220Y-100803345D01*
X179670073Y-100526106D01*
X179561900Y-100264953D01*
X179404857Y-100029921D01*
X179204979Y-99830043D01*
X178972461Y-99674680D01*
X179204979Y-99519317D01*
X179404857Y-99319439D01*
X179561900Y-99084407D01*
X179670073Y-98823254D01*
X179684089Y-98752789D01*
X186865260Y-98752789D01*
X186865260Y-98935411D01*
X186900888Y-99114525D01*
X186970774Y-99283247D01*
X187072234Y-99435092D01*
X187201368Y-99564226D01*
X187353213Y-99665686D01*
X187521935Y-99735572D01*
X187701049Y-99771200D01*
X187883671Y-99771200D01*
X188062785Y-99735572D01*
X188231507Y-99665686D01*
X188383352Y-99564226D01*
X188512486Y-99435092D01*
X188613946Y-99283247D01*
X188683832Y-99114525D01*
X188719460Y-98935411D01*
X188719460Y-98752789D01*
X188683832Y-98573675D01*
X188613946Y-98404953D01*
X188512486Y-98253108D01*
X188383352Y-98123974D01*
X188231507Y-98022514D01*
X188062785Y-97952628D01*
X187883671Y-97917000D01*
X187701049Y-97917000D01*
X187521935Y-97952628D01*
X187353213Y-98022514D01*
X187201368Y-98123974D01*
X187072234Y-98253108D01*
X186970774Y-98404953D01*
X186900888Y-98573675D01*
X186865260Y-98752789D01*
X179684089Y-98752789D01*
X179725220Y-98546015D01*
X179725220Y-98263345D01*
X179670073Y-97986106D01*
X179561900Y-97724953D01*
X179404857Y-97489921D01*
X179204979Y-97290043D01*
X179185533Y-97277049D01*
X185244742Y-97277049D01*
X185244742Y-97459671D01*
X185280370Y-97638785D01*
X185350256Y-97807507D01*
X185451716Y-97959352D01*
X185580850Y-98088486D01*
X185732695Y-98189946D01*
X185901417Y-98259832D01*
X186080531Y-98295460D01*
X186263153Y-98295460D01*
X186442267Y-98259832D01*
X186610989Y-98189946D01*
X186762834Y-98088486D01*
X186891968Y-97959352D01*
X186993428Y-97807507D01*
X187063314Y-97638785D01*
X187098942Y-97459671D01*
X187098942Y-97277049D01*
X187063314Y-97097935D01*
X186993428Y-96929213D01*
X186891968Y-96777368D01*
X186762834Y-96648234D01*
X186610989Y-96546774D01*
X186442267Y-96476888D01*
X186263153Y-96441260D01*
X186080531Y-96441260D01*
X185901417Y-96476888D01*
X185732695Y-96546774D01*
X185580850Y-96648234D01*
X185451716Y-96777368D01*
X185350256Y-96929213D01*
X185280370Y-97097935D01*
X185244742Y-97277049D01*
X179185533Y-97277049D01*
X178972461Y-97134680D01*
X179204979Y-96979317D01*
X179404857Y-96779439D01*
X179561900Y-96544407D01*
X179670073Y-96283254D01*
X179725220Y-96006015D01*
X179725220Y-95723345D01*
X179670073Y-95446106D01*
X179561900Y-95184953D01*
X179404857Y-94949921D01*
X179204979Y-94750043D01*
X179124710Y-94696409D01*
X179494180Y-94696409D01*
X179494180Y-94879031D01*
X179529808Y-95058145D01*
X179599694Y-95226867D01*
X179701154Y-95378712D01*
X179830288Y-95507846D01*
X179982133Y-95609306D01*
X180150855Y-95679192D01*
X180323537Y-95713541D01*
X180323537Y-95779961D01*
X180359165Y-95959075D01*
X180429051Y-96127797D01*
X180530511Y-96279642D01*
X180659645Y-96408776D01*
X180811490Y-96510236D01*
X180980212Y-96580122D01*
X181159326Y-96615750D01*
X181341948Y-96615750D01*
X181521062Y-96580122D01*
X181689784Y-96510236D01*
X181841629Y-96408776D01*
X181970763Y-96279642D01*
X182072223Y-96127797D01*
X182142109Y-95959075D01*
X182177737Y-95779961D01*
X182177737Y-95597339D01*
X182142109Y-95418225D01*
X182072223Y-95249503D01*
X182036011Y-95195307D01*
X182047229Y-95184089D01*
X184990738Y-95184089D01*
X184990738Y-95366711D01*
X185026366Y-95545825D01*
X185096252Y-95714547D01*
X185197712Y-95866392D01*
X185326846Y-95995526D01*
X185478691Y-96096986D01*
X185647413Y-96166872D01*
X185826527Y-96202500D01*
X186009149Y-96202500D01*
X186188263Y-96166872D01*
X186356985Y-96096986D01*
X186508830Y-95995526D01*
X186637964Y-95866392D01*
X186739424Y-95714547D01*
X186809310Y-95545825D01*
X186844938Y-95366711D01*
X186844938Y-95184089D01*
X186809310Y-95004975D01*
X186739424Y-94836253D01*
X186637964Y-94684408D01*
X186508830Y-94555274D01*
X186356985Y-94453814D01*
X186188263Y-94383928D01*
X186009149Y-94348300D01*
X185826527Y-94348300D01*
X185647413Y-94383928D01*
X185478691Y-94453814D01*
X185326846Y-94555274D01*
X185197712Y-94684408D01*
X185096252Y-94836253D01*
X185026366Y-95004975D01*
X184990738Y-95184089D01*
X182047229Y-95184089D01*
X182137086Y-95094232D01*
X182238546Y-94942387D01*
X182308432Y-94773665D01*
X182344060Y-94594551D01*
X182344060Y-94411929D01*
X182308432Y-94232815D01*
X182260418Y-94116897D01*
X182319826Y-94027987D01*
X182389712Y-93859265D01*
X182425340Y-93680151D01*
X182425340Y-93497529D01*
X182389712Y-93318415D01*
X182344331Y-93208854D01*
X182350014Y-93200349D01*
X184881520Y-93200349D01*
X184881520Y-93382971D01*
X184917148Y-93562085D01*
X184987034Y-93730807D01*
X185088494Y-93882652D01*
X185217628Y-94011786D01*
X185369473Y-94113246D01*
X185538195Y-94183132D01*
X185717309Y-94218760D01*
X185899931Y-94218760D01*
X186079045Y-94183132D01*
X186247767Y-94113246D01*
X186399612Y-94011786D01*
X186528746Y-93882652D01*
X186630206Y-93730807D01*
X186700092Y-93562085D01*
X186735720Y-93382971D01*
X186735720Y-93200349D01*
X186700092Y-93021235D01*
X186630206Y-92852513D01*
X186528746Y-92700668D01*
X186399612Y-92571534D01*
X186247767Y-92470074D01*
X186079045Y-92400188D01*
X185899931Y-92364560D01*
X185717309Y-92364560D01*
X185538195Y-92400188D01*
X185369473Y-92470074D01*
X185217628Y-92571534D01*
X185088494Y-92700668D01*
X184987034Y-92852513D01*
X184917148Y-93021235D01*
X184881520Y-93200349D01*
X182350014Y-93200349D01*
X182360466Y-93184707D01*
X182430352Y-93015985D01*
X182465980Y-92836871D01*
X182465980Y-92654249D01*
X182430352Y-92475135D01*
X182360466Y-92306413D01*
X182259006Y-92154568D01*
X182129872Y-92025434D01*
X182081234Y-91992935D01*
X182211152Y-91906126D01*
X182340286Y-91776992D01*
X182441746Y-91625147D01*
X182511632Y-91456425D01*
X182547260Y-91277311D01*
X182547260Y-91094689D01*
X182511632Y-90915575D01*
X182441746Y-90746853D01*
X182340286Y-90595008D01*
X182211152Y-90465874D01*
X182059307Y-90364414D01*
X181890585Y-90294528D01*
X181763198Y-90269189D01*
X183934100Y-90269189D01*
X183934100Y-90451811D01*
X183969728Y-90630925D01*
X184039614Y-90799647D01*
X184141074Y-90951492D01*
X184270208Y-91080626D01*
X184422053Y-91182086D01*
X184590775Y-91251972D01*
X184769889Y-91287600D01*
X184952511Y-91287600D01*
X185131625Y-91251972D01*
X185300347Y-91182086D01*
X185442549Y-91087069D01*
X187319920Y-91087069D01*
X187319920Y-91269691D01*
X187355548Y-91448805D01*
X187425434Y-91617527D01*
X187526894Y-91769372D01*
X187656028Y-91898506D01*
X187807873Y-91999966D01*
X187976595Y-92069852D01*
X188155709Y-92105480D01*
X188338331Y-92105480D01*
X188517445Y-92069852D01*
X188686167Y-91999966D01*
X188838012Y-91898506D01*
X188967146Y-91769372D01*
X189068606Y-91617527D01*
X189138492Y-91448805D01*
X189174120Y-91269691D01*
X189174120Y-91087069D01*
X189138492Y-90907955D01*
X189068606Y-90739233D01*
X188967146Y-90587388D01*
X188838012Y-90458254D01*
X188686167Y-90356794D01*
X188517445Y-90286908D01*
X188338331Y-90251280D01*
X188155709Y-90251280D01*
X187976595Y-90286908D01*
X187807873Y-90356794D01*
X187656028Y-90458254D01*
X187526894Y-90587388D01*
X187425434Y-90739233D01*
X187355548Y-90907955D01*
X187319920Y-91087069D01*
X185442549Y-91087069D01*
X185452192Y-91080626D01*
X185581326Y-90951492D01*
X185682786Y-90799647D01*
X185752672Y-90630925D01*
X185788300Y-90451811D01*
X185788300Y-90269189D01*
X185752672Y-90090075D01*
X185682786Y-89921353D01*
X185581326Y-89769508D01*
X185452192Y-89640374D01*
X185300347Y-89538914D01*
X185131625Y-89469028D01*
X184952511Y-89433400D01*
X184769889Y-89433400D01*
X184590775Y-89469028D01*
X184422053Y-89538914D01*
X184270208Y-89640374D01*
X184141074Y-89769508D01*
X184039614Y-89921353D01*
X183969728Y-90090075D01*
X183934100Y-90269189D01*
X181763198Y-90269189D01*
X181711471Y-90258900D01*
X181528849Y-90258900D01*
X181349735Y-90294528D01*
X181181013Y-90364414D01*
X181029168Y-90465874D01*
X180900034Y-90595008D01*
X180798574Y-90746853D01*
X180728688Y-90915575D01*
X180693060Y-91094689D01*
X180693060Y-91277311D01*
X180728688Y-91456425D01*
X180798574Y-91625147D01*
X180900034Y-91776992D01*
X181029168Y-91906126D01*
X181077806Y-91938625D01*
X180947888Y-92025434D01*
X180818754Y-92154568D01*
X180717294Y-92306413D01*
X180647408Y-92475135D01*
X180611780Y-92654249D01*
X180611780Y-92836871D01*
X180647408Y-93015985D01*
X180692789Y-93125546D01*
X180676654Y-93149693D01*
X180606768Y-93318415D01*
X180571140Y-93497529D01*
X180571140Y-93680151D01*
X180606768Y-93859265D01*
X180615836Y-93881157D01*
X180512591Y-93860620D01*
X180329969Y-93860620D01*
X180150855Y-93896248D01*
X179982133Y-93966134D01*
X179830288Y-94067594D01*
X179701154Y-94196728D01*
X179599694Y-94348573D01*
X179529808Y-94517295D01*
X179494180Y-94696409D01*
X179124710Y-94696409D01*
X178972461Y-94594680D01*
X179204979Y-94439317D01*
X179404857Y-94239439D01*
X179561900Y-94004407D01*
X179670073Y-93743254D01*
X179725220Y-93466015D01*
X179725220Y-93183345D01*
X179670073Y-92906106D01*
X179561900Y-92644953D01*
X179404857Y-92409921D01*
X179204979Y-92210043D01*
X178972461Y-92054680D01*
X179204979Y-91899317D01*
X179404857Y-91699439D01*
X179561900Y-91464407D01*
X179670073Y-91203254D01*
X179725220Y-90926015D01*
X179725220Y-90643345D01*
X179670073Y-90366106D01*
X179561900Y-90104953D01*
X179513209Y-90032081D01*
X179936788Y-90032081D01*
X179971714Y-90035521D01*
X180006640Y-90032081D01*
X180006650Y-90032081D01*
X180111134Y-90021790D01*
X180245195Y-89981123D01*
X180368747Y-89915083D01*
X180477041Y-89826208D01*
X180499316Y-89799066D01*
X182721594Y-87576789D01*
X183763270Y-87576789D01*
X183763270Y-87759411D01*
X183798898Y-87938525D01*
X183868784Y-88107247D01*
X183970244Y-88259092D01*
X184099378Y-88388226D01*
X184251223Y-88489686D01*
X184419945Y-88559572D01*
X184599059Y-88595200D01*
X184781681Y-88595200D01*
X184960795Y-88559572D01*
X185129517Y-88489686D01*
X185281362Y-88388226D01*
X185410496Y-88259092D01*
X185511956Y-88107247D01*
X185581842Y-87938525D01*
X185617470Y-87759411D01*
X185617470Y-87576789D01*
X185581842Y-87397675D01*
X185511956Y-87228953D01*
X185410496Y-87077108D01*
X185281362Y-86947974D01*
X185129517Y-86846514D01*
X184960795Y-86776628D01*
X184781681Y-86741000D01*
X184599059Y-86741000D01*
X184419945Y-86776628D01*
X184251223Y-86846514D01*
X184099378Y-86947974D01*
X183970244Y-87077108D01*
X183868784Y-87228953D01*
X183798898Y-87397675D01*
X183763270Y-87576789D01*
X182721594Y-87576789D01*
X184769059Y-85529325D01*
X184781681Y-85529325D01*
X184960795Y-85493697D01*
X185129517Y-85423811D01*
X185281362Y-85322351D01*
X185410496Y-85193217D01*
X185511956Y-85041372D01*
X185581842Y-84872650D01*
X185617470Y-84693536D01*
X185617470Y-84510914D01*
X185581842Y-84331800D01*
X185511956Y-84163078D01*
X185410496Y-84011233D01*
X185281362Y-83882099D01*
X185129517Y-83780639D01*
X184960795Y-83710753D01*
X184781681Y-83675125D01*
X184599059Y-83675125D01*
X184419945Y-83710753D01*
X184251223Y-83780639D01*
X184202294Y-83813332D01*
X184236360Y-83642071D01*
X184236360Y-83459449D01*
X184200732Y-83280335D01*
X184130846Y-83111613D01*
X184029386Y-82959768D01*
X183900252Y-82830634D01*
X183748407Y-82729174D01*
X183579685Y-82659288D01*
X183400571Y-82623660D01*
X183217949Y-82623660D01*
X183038835Y-82659288D01*
X182870113Y-82729174D01*
X182718268Y-82830634D01*
X182589134Y-82959768D01*
X182487674Y-83111613D01*
X182417788Y-83280335D01*
X182382160Y-83459449D01*
X182382160Y-83642071D01*
X182417788Y-83821185D01*
X182487674Y-83989907D01*
X182589134Y-84141752D01*
X182718268Y-84270886D01*
X182870113Y-84372346D01*
X183038835Y-84442232D01*
X183217949Y-84477860D01*
X183400571Y-84477860D01*
X183579685Y-84442232D01*
X183748407Y-84372346D01*
X183797336Y-84339653D01*
X183763270Y-84510914D01*
X183763270Y-84523536D01*
X179681624Y-88605184D01*
X179725220Y-88386015D01*
X179725220Y-88103345D01*
X179670073Y-87826106D01*
X179561900Y-87564953D01*
X179404857Y-87329921D01*
X179204979Y-87130043D01*
X178972461Y-86974680D01*
X179204979Y-86819317D01*
X179404857Y-86619439D01*
X179561900Y-86384407D01*
X179670073Y-86123254D01*
X179725220Y-85846015D01*
X179725220Y-85563345D01*
X179670073Y-85286106D01*
X179561900Y-85024953D01*
X179404857Y-84789921D01*
X179204979Y-84590043D01*
X178972461Y-84434680D01*
X179204979Y-84279317D01*
X179404857Y-84079439D01*
X179561900Y-83844407D01*
X179670073Y-83583254D01*
X179725220Y-83306015D01*
X179725220Y-83023345D01*
X179670073Y-82746106D01*
X179561900Y-82484953D01*
X179404857Y-82249921D01*
X179204979Y-82050043D01*
X178972461Y-81894680D01*
X179204979Y-81739317D01*
X179404857Y-81539439D01*
X179561900Y-81304407D01*
X179670073Y-81043254D01*
X179725220Y-80766015D01*
X179725220Y-80483345D01*
X179670073Y-80206106D01*
X179561900Y-79944953D01*
X179404857Y-79709921D01*
X179204979Y-79510043D01*
X178972461Y-79354680D01*
X179204979Y-79199317D01*
X179404857Y-78999439D01*
X179561900Y-78764407D01*
X179670073Y-78503254D01*
X179725220Y-78226015D01*
X179725220Y-77943345D01*
X179670073Y-77666106D01*
X179561900Y-77404953D01*
X179550650Y-77388115D01*
X186392086Y-77388115D01*
X186392086Y-77570737D01*
X186427714Y-77749851D01*
X186497600Y-77918573D01*
X186599060Y-78070418D01*
X186728194Y-78199552D01*
X186880039Y-78301012D01*
X187048761Y-78370898D01*
X187227875Y-78406526D01*
X187410497Y-78406526D01*
X187589611Y-78370898D01*
X187758333Y-78301012D01*
X187910178Y-78199552D01*
X188039312Y-78070418D01*
X188140772Y-77918573D01*
X188210658Y-77749851D01*
X188246286Y-77570737D01*
X188246286Y-77388115D01*
X188210658Y-77209001D01*
X188140772Y-77040279D01*
X188039312Y-76888434D01*
X187910178Y-76759300D01*
X187758333Y-76657840D01*
X187589611Y-76587954D01*
X187410497Y-76552326D01*
X187227875Y-76552326D01*
X187048761Y-76587954D01*
X186880039Y-76657840D01*
X186728194Y-76759300D01*
X186599060Y-76888434D01*
X186497600Y-77040279D01*
X186427714Y-77209001D01*
X186392086Y-77388115D01*
X179550650Y-77388115D01*
X179404857Y-77169921D01*
X179204979Y-76970043D01*
X178972461Y-76814680D01*
X179204979Y-76659317D01*
X179404857Y-76459439D01*
X179561900Y-76224407D01*
X179670073Y-75963254D01*
X179725220Y-75686015D01*
X179725220Y-75403345D01*
X179670073Y-75126106D01*
X179561900Y-74864953D01*
X179404857Y-74629921D01*
X179204979Y-74430043D01*
X178972461Y-74274680D01*
X179204979Y-74119317D01*
X179404857Y-73919439D01*
X179561900Y-73684407D01*
X179670073Y-73423254D01*
X179725220Y-73146015D01*
X179725220Y-72863345D01*
X179670073Y-72586106D01*
X179561900Y-72324953D01*
X179404857Y-72089921D01*
X179402492Y-72087556D01*
X186433209Y-72078930D01*
X186470254Y-72134372D01*
X186599388Y-72263506D01*
X186751233Y-72364966D01*
X186919955Y-72434852D01*
X187099069Y-72470480D01*
X187281691Y-72470480D01*
X187460805Y-72434852D01*
X187629527Y-72364966D01*
X187781372Y-72263506D01*
X187910506Y-72134372D01*
X187948794Y-72077070D01*
X189602580Y-72075041D01*
X192400404Y-72112638D01*
G37*
G04 #@! TD.AperFunction*
M02*
