M48
; DRILL file {KiCad (5.1.8)-1} date 03/12/22 16:38:11
; FORMAT={-:-/ absolute / metric / decimal}
; #@! TF.CreationDate,2022-03-12T16:38:11-08:00
; #@! TF.GenerationSoftware,Kicad,Pcbnew,(5.1.8)-1
; #@! TF.FileFunction,Plated,1,4,PTH
FMAT,2
METRIC
T1C0.254
T2C0.800
T3C1.100
%
G90
G05
T1
X160.609Y-81.806
X161.32Y-82.822
X162.001Y-98.801
X162.255Y-82.598
X162.502Y-105.608
X162.7Y-93.066
X162.992Y-86.896
X163.838Y-103.48
X163.902Y-95.862
X164.384Y-79.266
X164.386Y-86.729
X165.387Y-85.92
X165.416Y-98.595
X165.539Y-80.688
X165.565Y-82.616
X165.616Y-81.702
X165.739Y-84.981
X165.757Y-83.877
X165.791Y-92.293
X166.07Y-100.82
X166.769Y-90.213
X167.165Y-100.081
X167.404Y-81.133
X167.709Y-91.719
X168.079Y-102.911
X168.161Y-98.73
X168.217Y-79.329
X169.012Y-86.81
X169.4Y-96.131
X170.254Y-86.823
X170.658Y-93.553
X180.421Y-94.788
X181.251Y-95.689
X181.417Y-94.503
X181.46Y-66.164
X181.498Y-93.589
X181.539Y-92.746
X181.62Y-91.186
X181.638Y-68.118
X182.387Y-78.191
X183.205Y-91.415
X183.309Y-83.551
X183.543Y-98.623
X184.69Y-84.602
X184.69Y-87.668
X184.861Y-90.361
X185.809Y-93.292
X185.918Y-95.275
X186.172Y-97.368
X187.19Y-71.543
X187.319Y-77.479
X187.792Y-98.844
X188.247Y-91.178
T2
X159.212Y-57.93
X159.212Y-60.47
X159.212Y-63.01
X159.212Y-65.55
X159.212Y-68.09
X159.212Y-70.63
X159.212Y-73.17
X159.212Y-75.71
X159.212Y-78.25
X159.212Y-80.79
X159.212Y-83.33
X159.212Y-85.87
X159.212Y-88.41
X159.212Y-90.95
X159.212Y-93.49
X159.212Y-96.03
X159.212Y-98.57
X159.212Y-101.11
X159.212Y-103.65
X159.212Y-106.19
X174.452Y-57.93
X174.452Y-60.47
X174.452Y-63.01
X174.452Y-65.55
X174.452Y-68.09
X174.452Y-70.63
X174.452Y-73.17
X174.452Y-75.71
X174.452Y-78.25
X174.452Y-80.79
X174.452Y-83.33
X174.452Y-85.87
X174.452Y-88.41
X174.452Y-90.95
X174.452Y-93.49
X174.452Y-96.03
X174.452Y-98.57
X174.452Y-101.11
X174.452Y-103.65
X174.452Y-106.19
T3
X178.29Y-55.225
X178.29Y-57.765
X178.29Y-60.305
X178.29Y-62.845
X178.29Y-65.385
X178.29Y-67.925
X178.29Y-70.465
X178.29Y-73.005
X178.29Y-75.545
X178.29Y-78.085
X178.29Y-80.625
X178.29Y-83.165
X178.29Y-85.705
X178.29Y-88.245
X178.29Y-90.785
X178.29Y-93.325
X178.29Y-95.865
X178.29Y-98.405
X178.29Y-100.945
X178.29Y-103.485
X178.29Y-106.025
X178.29Y-108.565
X178.29Y-111.105
X178.29Y-113.645
X193.53Y-55.225
X193.53Y-57.765
X193.53Y-60.305
X193.53Y-62.845
X193.53Y-65.385
X193.53Y-67.925
X193.53Y-70.465
X193.53Y-73.005
X193.53Y-75.545
X193.53Y-78.085
X193.53Y-80.625
X193.53Y-83.165
X193.53Y-85.705
X193.53Y-88.245
X193.53Y-90.785
X193.53Y-93.325
X193.53Y-95.865
X193.53Y-98.405
X193.53Y-100.945
X193.53Y-103.485
X193.53Y-106.025
X193.53Y-108.565
X193.53Y-111.105
X193.53Y-113.645
T0
M30
