%FSLAX45Y45*%
G04 Gerber Fmt 4.5, Leading zero omitted, Abs format (unit mm)*
G04 Created by KiCad (PCBNEW (5.1.8)-1) date 2022-03-12 16:38:44*
%MOMM*%
%LPD*%
G01*
G04 APERTURE LIST*
%TA.AperFunction,Profile*%
%ADD10C,0.050000*%
%TD*%
%ADD11C,0.200000*%
%ADD12C,0.300000*%
G04 APERTURE END LIST*
D10*
X15780512Y-11482832D02*
X15780512Y-5337302D01*
X19492976Y-11482832D02*
X15780512Y-11482832D01*
X19492976Y-5337302D02*
X19492976Y-11482832D01*
X15780512Y-5337302D02*
X19492976Y-5337302D01*
D11*
X16048228Y-8167878D02*
X16073628Y-8193278D01*
X16073628Y-8167878D02*
X16048228Y-8193278D01*
X16119348Y-8269478D02*
X16144748Y-8294878D01*
X16144748Y-8269478D02*
X16119348Y-8294878D01*
X16187420Y-9867392D02*
X16212820Y-9892792D01*
X16212820Y-9867392D02*
X16187420Y-9892792D01*
X16212820Y-8247126D02*
X16238220Y-8272526D01*
X16238220Y-8247126D02*
X16212820Y-8272526D01*
X16237458Y-10548112D02*
X16262858Y-10573512D01*
X16262858Y-10548112D02*
X16237458Y-10573512D01*
X16257270Y-9293860D02*
X16282670Y-9319260D01*
X16282670Y-9293860D02*
X16257270Y-9319260D01*
X16286480Y-8676894D02*
X16311880Y-8702294D01*
X16311880Y-8676894D02*
X16286480Y-8702294D01*
X16371062Y-10335260D02*
X16396462Y-10360660D01*
X16396462Y-10335260D02*
X16371062Y-10360660D01*
X16377466Y-9573460D02*
X16402866Y-9598860D01*
X16402866Y-9573460D02*
X16377466Y-9598860D01*
X16425672Y-7913878D02*
X16451072Y-7939278D01*
X16451072Y-7913878D02*
X16425672Y-7939278D01*
X16425906Y-8660203D02*
X16451306Y-8685603D01*
X16451306Y-8660203D02*
X16425906Y-8685603D01*
X16525972Y-8579330D02*
X16551372Y-8604730D01*
X16551372Y-8579330D02*
X16525972Y-8604730D01*
X16528861Y-9846818D02*
X16554261Y-9872218D01*
X16554261Y-9846818D02*
X16528861Y-9872218D01*
X16541242Y-8056118D02*
X16566642Y-8081518D01*
X16566642Y-8056118D02*
X16541242Y-8081518D01*
X16543782Y-8248904D02*
X16569182Y-8274304D01*
X16569182Y-8248904D02*
X16543782Y-8274304D01*
X16548862Y-8157464D02*
X16574262Y-8182864D01*
X16574262Y-8157464D02*
X16548862Y-8182864D01*
X16561211Y-8485406D02*
X16586611Y-8510806D01*
X16586611Y-8485406D02*
X16561211Y-8510806D01*
X16563012Y-8374962D02*
X16588412Y-8400362D01*
X16588412Y-8374962D02*
X16563012Y-8400362D01*
X16566388Y-9216644D02*
X16591788Y-9242044D01*
X16591788Y-9216644D02*
X16566388Y-9242044D01*
X16594328Y-10069322D02*
X16619728Y-10094722D01*
X16619728Y-10069322D02*
X16594328Y-10094722D01*
X16664178Y-9008618D02*
X16689578Y-9034018D01*
X16689578Y-9008618D02*
X16664178Y-9034018D01*
X16703802Y-9995408D02*
X16729202Y-10020808D01*
X16729202Y-9995408D02*
X16703802Y-10020808D01*
X16727678Y-8100568D02*
X16753078Y-8125968D01*
X16753078Y-8100568D02*
X16727678Y-8125968D01*
X16758158Y-9159240D02*
X16783558Y-9184640D01*
X16783558Y-9159240D02*
X16758158Y-9184640D01*
X16795242Y-10278364D02*
X16820642Y-10303764D01*
X16820642Y-10278364D02*
X16795242Y-10303764D01*
X16803370Y-9860280D02*
X16828770Y-9885680D01*
X16828770Y-9860280D02*
X16803370Y-9885680D01*
X16808958Y-7920228D02*
X16834358Y-7945628D01*
X16834358Y-7920228D02*
X16808958Y-7945628D01*
X16888460Y-8668258D02*
X16913860Y-8693658D01*
X16913860Y-8668258D02*
X16888460Y-8693658D01*
X16927322Y-9600438D02*
X16952722Y-9625838D01*
X16952722Y-9600438D02*
X16927322Y-9625838D01*
X17012697Y-8669636D02*
X17038097Y-8695036D01*
X17038097Y-8669636D02*
X17012697Y-8695036D01*
X17053052Y-9342628D02*
X17078452Y-9368028D01*
X17078452Y-9342628D02*
X17053052Y-9368028D01*
X18029428Y-9466072D02*
X18054828Y-9491472D01*
X18054828Y-9466072D02*
X18029428Y-9491472D01*
X18112364Y-9556165D02*
X18137764Y-9581565D01*
X18137764Y-9556165D02*
X18112364Y-9581565D01*
X18128996Y-9437624D02*
X18154396Y-9463024D01*
X18154396Y-9437624D02*
X18128996Y-9463024D01*
X18133314Y-6603746D02*
X18158714Y-6629146D01*
X18158714Y-6603746D02*
X18133314Y-6629146D01*
X18137124Y-9346184D02*
X18162524Y-9371584D01*
X18162524Y-9346184D02*
X18137124Y-9371584D01*
X18141188Y-9261856D02*
X18166588Y-9287256D01*
X18166588Y-9261856D02*
X18141188Y-9287256D01*
X18149316Y-9105900D02*
X18174716Y-9131300D01*
X18174716Y-9105900D02*
X18149316Y-9131300D01*
X18151094Y-6799072D02*
X18176494Y-6824472D01*
X18176494Y-6799072D02*
X18151094Y-6824472D01*
X18226024Y-7806436D02*
X18251424Y-7831836D01*
X18251424Y-7806436D02*
X18226024Y-7831836D01*
X18307812Y-9128760D02*
X18333212Y-9154160D01*
X18333212Y-9128760D02*
X18307812Y-9154160D01*
X18318226Y-8342376D02*
X18343626Y-8367776D01*
X18343626Y-8342376D02*
X18318226Y-8367776D01*
X18341594Y-9849612D02*
X18366994Y-9875012D01*
X18366994Y-9849612D02*
X18341594Y-9875012D01*
X18456337Y-8447523D02*
X18481737Y-8472923D01*
X18481737Y-8447523D02*
X18456337Y-8472923D01*
X18456337Y-8754110D02*
X18481737Y-8779510D01*
X18481737Y-8754110D02*
X18456337Y-8779510D01*
X18473420Y-9023350D02*
X18498820Y-9048750D01*
X18498820Y-9023350D02*
X18473420Y-9048750D01*
X18568162Y-9316466D02*
X18593562Y-9341866D01*
X18593562Y-9316466D02*
X18568162Y-9341866D01*
X18579084Y-9514840D02*
X18604484Y-9540240D01*
X18604484Y-9514840D02*
X18579084Y-9540240D01*
X18604484Y-9724136D02*
X18629884Y-9749536D01*
X18629884Y-9724136D02*
X18604484Y-9749536D01*
X18706338Y-7141638D02*
X18731738Y-7167038D01*
X18731738Y-7141638D02*
X18706338Y-7167038D01*
X18719219Y-7735243D02*
X18744619Y-7760643D01*
X18744619Y-7735243D02*
X18719219Y-7760643D01*
X18766536Y-9871710D02*
X18791936Y-9897110D01*
X18791936Y-9871710D02*
X18766536Y-9897110D01*
X18812002Y-9105138D02*
X18837402Y-9130538D01*
X18837402Y-9105138D02*
X18812002Y-9130538D01*
X15961228Y-5792978D02*
G75*
G03*
X15961228Y-5792978I-40000J0D01*
G01*
X15961228Y-6046978D02*
G75*
G03*
X15961228Y-6046978I-40000J0D01*
G01*
X15961228Y-6300978D02*
G75*
G03*
X15961228Y-6300978I-40000J0D01*
G01*
X15961228Y-6554978D02*
G75*
G03*
X15961228Y-6554978I-40000J0D01*
G01*
X15961228Y-6808978D02*
G75*
G03*
X15961228Y-6808978I-40000J0D01*
G01*
X15961228Y-7062978D02*
G75*
G03*
X15961228Y-7062978I-40000J0D01*
G01*
X15961228Y-7316978D02*
G75*
G03*
X15961228Y-7316978I-40000J0D01*
G01*
X15961228Y-7570978D02*
G75*
G03*
X15961228Y-7570978I-40000J0D01*
G01*
X15961228Y-7824978D02*
G75*
G03*
X15961228Y-7824978I-40000J0D01*
G01*
X15961228Y-8078978D02*
G75*
G03*
X15961228Y-8078978I-40000J0D01*
G01*
X15961228Y-8332978D02*
G75*
G03*
X15961228Y-8332978I-40000J0D01*
G01*
X15961228Y-8586978D02*
G75*
G03*
X15961228Y-8586978I-40000J0D01*
G01*
X15961228Y-8840978D02*
G75*
G03*
X15961228Y-8840978I-40000J0D01*
G01*
X15961228Y-9094978D02*
G75*
G03*
X15961228Y-9094978I-40000J0D01*
G01*
X15961228Y-9348978D02*
G75*
G03*
X15961228Y-9348978I-40000J0D01*
G01*
X15961228Y-9602978D02*
G75*
G03*
X15961228Y-9602978I-40000J0D01*
G01*
X15961228Y-9856978D02*
G75*
G03*
X15961228Y-9856978I-40000J0D01*
G01*
X15961228Y-10110978D02*
G75*
G03*
X15961228Y-10110978I-40000J0D01*
G01*
X15961228Y-10364978D02*
G75*
G03*
X15961228Y-10364978I-40000J0D01*
G01*
X15961228Y-10618978D02*
G75*
G03*
X15961228Y-10618978I-40000J0D01*
G01*
X17485228Y-5792978D02*
G75*
G03*
X17485228Y-5792978I-40000J0D01*
G01*
X17485228Y-6046978D02*
G75*
G03*
X17485228Y-6046978I-40000J0D01*
G01*
X17485228Y-6300978D02*
G75*
G03*
X17485228Y-6300978I-40000J0D01*
G01*
X17485228Y-6554978D02*
G75*
G03*
X17485228Y-6554978I-40000J0D01*
G01*
X17485228Y-6808978D02*
G75*
G03*
X17485228Y-6808978I-40000J0D01*
G01*
X17485228Y-7062978D02*
G75*
G03*
X17485228Y-7062978I-40000J0D01*
G01*
X17485228Y-7316978D02*
G75*
G03*
X17485228Y-7316978I-40000J0D01*
G01*
X17485228Y-7570978D02*
G75*
G03*
X17485228Y-7570978I-40000J0D01*
G01*
X17485228Y-7824978D02*
G75*
G03*
X17485228Y-7824978I-40000J0D01*
G01*
X17485228Y-8078978D02*
G75*
G03*
X17485228Y-8078978I-40000J0D01*
G01*
X17485228Y-8332978D02*
G75*
G03*
X17485228Y-8332978I-40000J0D01*
G01*
X17485228Y-8586978D02*
G75*
G03*
X17485228Y-8586978I-40000J0D01*
G01*
X17485228Y-8840978D02*
G75*
G03*
X17485228Y-8840978I-40000J0D01*
G01*
X17485228Y-9094978D02*
G75*
G03*
X17485228Y-9094978I-40000J0D01*
G01*
X17485228Y-9348978D02*
G75*
G03*
X17485228Y-9348978I-40000J0D01*
G01*
X17485228Y-9602978D02*
G75*
G03*
X17485228Y-9602978I-40000J0D01*
G01*
X17485228Y-9856978D02*
G75*
G03*
X17485228Y-9856978I-40000J0D01*
G01*
X17485228Y-10110978D02*
G75*
G03*
X17485228Y-10110978I-40000J0D01*
G01*
X17485228Y-10364978D02*
G75*
G03*
X17485228Y-10364978I-40000J0D01*
G01*
X17485228Y-10618978D02*
G75*
G03*
X17485228Y-10618978I-40000J0D01*
G01*
X17829022Y-5467468D02*
X17829022Y-5577468D01*
X17774022Y-5522468D02*
X17884022Y-5522468D01*
X17829022Y-5721468D02*
X17829022Y-5831468D01*
X17774022Y-5776468D02*
X17884022Y-5776468D01*
X17829022Y-5975468D02*
X17829022Y-6085468D01*
X17774022Y-6030468D02*
X17884022Y-6030468D01*
X17829022Y-6229468D02*
X17829022Y-6339468D01*
X17774022Y-6284468D02*
X17884022Y-6284468D01*
X17829022Y-6483468D02*
X17829022Y-6593468D01*
X17774022Y-6538468D02*
X17884022Y-6538468D01*
X17829022Y-6737468D02*
X17829022Y-6847468D01*
X17774022Y-6792468D02*
X17884022Y-6792468D01*
X17829022Y-6991468D02*
X17829022Y-7101468D01*
X17774022Y-7046468D02*
X17884022Y-7046468D01*
X17829022Y-7245468D02*
X17829022Y-7355468D01*
X17774022Y-7300468D02*
X17884022Y-7300468D01*
X17829022Y-7499468D02*
X17829022Y-7609468D01*
X17774022Y-7554468D02*
X17884022Y-7554468D01*
X17829022Y-7753468D02*
X17829022Y-7863468D01*
X17774022Y-7808468D02*
X17884022Y-7808468D01*
X17829022Y-8007468D02*
X17829022Y-8117468D01*
X17774022Y-8062468D02*
X17884022Y-8062468D01*
X17829022Y-8261468D02*
X17829022Y-8371468D01*
X17774022Y-8316468D02*
X17884022Y-8316468D01*
X17829022Y-8515468D02*
X17829022Y-8625468D01*
X17774022Y-8570468D02*
X17884022Y-8570468D01*
X17829022Y-8769468D02*
X17829022Y-8879468D01*
X17774022Y-8824468D02*
X17884022Y-8824468D01*
X17829022Y-9023468D02*
X17829022Y-9133468D01*
X17774022Y-9078468D02*
X17884022Y-9078468D01*
X17829022Y-9277468D02*
X17829022Y-9387468D01*
X17774022Y-9332468D02*
X17884022Y-9332468D01*
X17829022Y-9531468D02*
X17829022Y-9641468D01*
X17774022Y-9586468D02*
X17884022Y-9586468D01*
X17829022Y-9785468D02*
X17829022Y-9895468D01*
X17774022Y-9840468D02*
X17884022Y-9840468D01*
X17829022Y-10039468D02*
X17829022Y-10149468D01*
X17774022Y-10094468D02*
X17884022Y-10094468D01*
X17829022Y-10293468D02*
X17829022Y-10403468D01*
X17774022Y-10348468D02*
X17884022Y-10348468D01*
X17829022Y-10547468D02*
X17829022Y-10657468D01*
X17774022Y-10602468D02*
X17884022Y-10602468D01*
X17829022Y-10801468D02*
X17829022Y-10911468D01*
X17774022Y-10856468D02*
X17884022Y-10856468D01*
X17829022Y-11055468D02*
X17829022Y-11165468D01*
X17774022Y-11110468D02*
X17884022Y-11110468D01*
X17829022Y-11309468D02*
X17829022Y-11419468D01*
X17774022Y-11364468D02*
X17884022Y-11364468D01*
X19353022Y-5467468D02*
X19353022Y-5577468D01*
X19298022Y-5522468D02*
X19408022Y-5522468D01*
X19353022Y-5721468D02*
X19353022Y-5831468D01*
X19298022Y-5776468D02*
X19408022Y-5776468D01*
X19353022Y-5975468D02*
X19353022Y-6085468D01*
X19298022Y-6030468D02*
X19408022Y-6030468D01*
X19353022Y-6229468D02*
X19353022Y-6339468D01*
X19298022Y-6284468D02*
X19408022Y-6284468D01*
X19353022Y-6483468D02*
X19353022Y-6593468D01*
X19298022Y-6538468D02*
X19408022Y-6538468D01*
X19353022Y-6737468D02*
X19353022Y-6847468D01*
X19298022Y-6792468D02*
X19408022Y-6792468D01*
X19353022Y-6991468D02*
X19353022Y-7101468D01*
X19298022Y-7046468D02*
X19408022Y-7046468D01*
X19353022Y-7245468D02*
X19353022Y-7355468D01*
X19298022Y-7300468D02*
X19408022Y-7300468D01*
X19353022Y-7499468D02*
X19353022Y-7609468D01*
X19298022Y-7554468D02*
X19408022Y-7554468D01*
X19353022Y-7753468D02*
X19353022Y-7863468D01*
X19298022Y-7808468D02*
X19408022Y-7808468D01*
X19353022Y-8007468D02*
X19353022Y-8117468D01*
X19298022Y-8062468D02*
X19408022Y-8062468D01*
X19353022Y-8261468D02*
X19353022Y-8371468D01*
X19298022Y-8316468D02*
X19408022Y-8316468D01*
X19353022Y-8515468D02*
X19353022Y-8625468D01*
X19298022Y-8570468D02*
X19408022Y-8570468D01*
X19353022Y-8769468D02*
X19353022Y-8879468D01*
X19298022Y-8824468D02*
X19408022Y-8824468D01*
X19353022Y-9023468D02*
X19353022Y-9133468D01*
X19298022Y-9078468D02*
X19408022Y-9078468D01*
X19353022Y-9277468D02*
X19353022Y-9387468D01*
X19298022Y-9332468D02*
X19408022Y-9332468D01*
X19353022Y-9531468D02*
X19353022Y-9641468D01*
X19298022Y-9586468D02*
X19408022Y-9586468D01*
X19353022Y-9785468D02*
X19353022Y-9895468D01*
X19298022Y-9840468D02*
X19408022Y-9840468D01*
X19353022Y-10039468D02*
X19353022Y-10149468D01*
X19298022Y-10094468D02*
X19408022Y-10094468D01*
X19353022Y-10293468D02*
X19353022Y-10403468D01*
X19298022Y-10348468D02*
X19408022Y-10348468D01*
X19353022Y-10547468D02*
X19353022Y-10657468D01*
X19298022Y-10602468D02*
X19408022Y-10602468D01*
X19353022Y-10801468D02*
X19353022Y-10911468D01*
X19298022Y-10856468D02*
X19408022Y-10856468D01*
X19353022Y-11055468D02*
X19353022Y-11165468D01*
X19298022Y-11110468D02*
X19408022Y-11110468D01*
X19353022Y-11309468D02*
X19353022Y-11419468D01*
X19298022Y-11364468D02*
X19408022Y-11364468D01*
D12*
X16064440Y-11951046D02*
X16064440Y-11651046D01*
X16135869Y-11651046D01*
X16178726Y-11665332D01*
X16207298Y-11693903D01*
X16221583Y-11722475D01*
X16235869Y-11779618D01*
X16235869Y-11822475D01*
X16221583Y-11879618D01*
X16207298Y-11908189D01*
X16178726Y-11936761D01*
X16135869Y-11951046D01*
X16064440Y-11951046D01*
X16364440Y-11951046D02*
X16364440Y-11751046D01*
X16364440Y-11808189D02*
X16378726Y-11779618D01*
X16393012Y-11765332D01*
X16421583Y-11751046D01*
X16450155Y-11751046D01*
X16550155Y-11951046D02*
X16550155Y-11751046D01*
X16550155Y-11651046D02*
X16535869Y-11665332D01*
X16550155Y-11679618D01*
X16564440Y-11665332D01*
X16550155Y-11651046D01*
X16550155Y-11679618D01*
X16735869Y-11951046D02*
X16707298Y-11936761D01*
X16693012Y-11908189D01*
X16693012Y-11651046D01*
X16893012Y-11951046D02*
X16864440Y-11936761D01*
X16850155Y-11908189D01*
X16850155Y-11651046D01*
X17235869Y-11951046D02*
X17235869Y-11651046D01*
X17335869Y-11865332D01*
X17435869Y-11651046D01*
X17435869Y-11951046D01*
X17707298Y-11951046D02*
X17707298Y-11793903D01*
X17693012Y-11765332D01*
X17664440Y-11751046D01*
X17607298Y-11751046D01*
X17578726Y-11765332D01*
X17707298Y-11936761D02*
X17678726Y-11951046D01*
X17607298Y-11951046D01*
X17578726Y-11936761D01*
X17564440Y-11908189D01*
X17564440Y-11879618D01*
X17578726Y-11851046D01*
X17607298Y-11836761D01*
X17678726Y-11836761D01*
X17707298Y-11822475D01*
X17850155Y-11751046D02*
X17850155Y-12051046D01*
X17850155Y-11765332D02*
X17878726Y-11751046D01*
X17935869Y-11751046D01*
X17964440Y-11765332D01*
X17978726Y-11779618D01*
X17993012Y-11808189D01*
X17993012Y-11893903D01*
X17978726Y-11922475D01*
X17964440Y-11936761D01*
X17935869Y-11951046D01*
X17878726Y-11951046D01*
X17850155Y-11936761D01*
X18121583Y-11922475D02*
X18135869Y-11936761D01*
X18121583Y-11951046D01*
X18107298Y-11936761D01*
X18121583Y-11922475D01*
X18121583Y-11951046D01*
X18121583Y-11765332D02*
X18135869Y-11779618D01*
X18121583Y-11793903D01*
X18107298Y-11779618D01*
X18121583Y-11765332D01*
X18121583Y-11793903D01*
X15752612Y-12432632D02*
X15778012Y-12458032D01*
X15778012Y-12432632D02*
X15752612Y-12458032D01*
X16121583Y-12281046D02*
X16150155Y-12281046D01*
X16178726Y-12295332D01*
X16193012Y-12309618D01*
X16207298Y-12338189D01*
X16221583Y-12395332D01*
X16221583Y-12466761D01*
X16207298Y-12523903D01*
X16193012Y-12552475D01*
X16178726Y-12566761D01*
X16150155Y-12581046D01*
X16121583Y-12581046D01*
X16093012Y-12566761D01*
X16078726Y-12552475D01*
X16064440Y-12523903D01*
X16050155Y-12466761D01*
X16050155Y-12395332D01*
X16064440Y-12338189D01*
X16078726Y-12309618D01*
X16093012Y-12295332D01*
X16121583Y-12281046D01*
X16350155Y-12552475D02*
X16364440Y-12566761D01*
X16350155Y-12581046D01*
X16335869Y-12566761D01*
X16350155Y-12552475D01*
X16350155Y-12581046D01*
X16478726Y-12309618D02*
X16493012Y-12295332D01*
X16521583Y-12281046D01*
X16593012Y-12281046D01*
X16621583Y-12295332D01*
X16635869Y-12309618D01*
X16650155Y-12338189D01*
X16650155Y-12366761D01*
X16635869Y-12409618D01*
X16464440Y-12581046D01*
X16650155Y-12581046D01*
X16921583Y-12281046D02*
X16778726Y-12281046D01*
X16764440Y-12423903D01*
X16778726Y-12409618D01*
X16807298Y-12395332D01*
X16878726Y-12395332D01*
X16907298Y-12409618D01*
X16921583Y-12423903D01*
X16935869Y-12452475D01*
X16935869Y-12523903D01*
X16921583Y-12552475D01*
X16907298Y-12566761D01*
X16878726Y-12581046D01*
X16807298Y-12581046D01*
X16778726Y-12566761D01*
X16764440Y-12552475D01*
X17064440Y-12581046D02*
X17064440Y-12381046D01*
X17064440Y-12409618D02*
X17078726Y-12395332D01*
X17107298Y-12381046D01*
X17150155Y-12381046D01*
X17178726Y-12395332D01*
X17193012Y-12423903D01*
X17193012Y-12581046D01*
X17193012Y-12423903D02*
X17207298Y-12395332D01*
X17235869Y-12381046D01*
X17278726Y-12381046D01*
X17307298Y-12395332D01*
X17321583Y-12423903D01*
X17321583Y-12581046D01*
X17464440Y-12581046D02*
X17464440Y-12381046D01*
X17464440Y-12409618D02*
X17478726Y-12395332D01*
X17507298Y-12381046D01*
X17550155Y-12381046D01*
X17578726Y-12395332D01*
X17593012Y-12423903D01*
X17593012Y-12581046D01*
X17593012Y-12423903D02*
X17607298Y-12395332D01*
X17635869Y-12381046D01*
X17678726Y-12381046D01*
X17707298Y-12395332D01*
X17721583Y-12423903D01*
X17721583Y-12581046D01*
X18307298Y-12266761D02*
X18050155Y-12652475D01*
X18693012Y-12281046D02*
X18721583Y-12281046D01*
X18750155Y-12295332D01*
X18764440Y-12309618D01*
X18778726Y-12338189D01*
X18793012Y-12395332D01*
X18793012Y-12466761D01*
X18778726Y-12523903D01*
X18764440Y-12552475D01*
X18750155Y-12566761D01*
X18721583Y-12581046D01*
X18693012Y-12581046D01*
X18664440Y-12566761D01*
X18650155Y-12552475D01*
X18635869Y-12523903D01*
X18621583Y-12466761D01*
X18621583Y-12395332D01*
X18635869Y-12338189D01*
X18650155Y-12309618D01*
X18664440Y-12295332D01*
X18693012Y-12281046D01*
X18921583Y-12552475D02*
X18935869Y-12566761D01*
X18921583Y-12581046D01*
X18907298Y-12566761D01*
X18921583Y-12552475D01*
X18921583Y-12581046D01*
X19121583Y-12281046D02*
X19150155Y-12281046D01*
X19178726Y-12295332D01*
X19193012Y-12309618D01*
X19207298Y-12338189D01*
X19221583Y-12395332D01*
X19221583Y-12466761D01*
X19207298Y-12523903D01*
X19193012Y-12552475D01*
X19178726Y-12566761D01*
X19150155Y-12581046D01*
X19121583Y-12581046D01*
X19093012Y-12566761D01*
X19078726Y-12552475D01*
X19064440Y-12523903D01*
X19050155Y-12466761D01*
X19050155Y-12395332D01*
X19064440Y-12338189D01*
X19078726Y-12309618D01*
X19093012Y-12295332D01*
X19121583Y-12281046D01*
X19507298Y-12581046D02*
X19335869Y-12581046D01*
X19421583Y-12581046D02*
X19421583Y-12281046D01*
X19393012Y-12323903D01*
X19364440Y-12352475D01*
X19335869Y-12366761D01*
X19693012Y-12281046D02*
X19721583Y-12281046D01*
X19750155Y-12295332D01*
X19764440Y-12309618D01*
X19778726Y-12338189D01*
X19793012Y-12395332D01*
X19793012Y-12466761D01*
X19778726Y-12523903D01*
X19764440Y-12552475D01*
X19750155Y-12566761D01*
X19721583Y-12581046D01*
X19693012Y-12581046D01*
X19664440Y-12566761D01*
X19650155Y-12552475D01*
X19635869Y-12523903D01*
X19621583Y-12466761D01*
X19621583Y-12395332D01*
X19635869Y-12338189D01*
X19650155Y-12309618D01*
X19664440Y-12295332D01*
X19693012Y-12281046D01*
X19907298Y-12281046D02*
X19907298Y-12338189D01*
X20021583Y-12281046D02*
X20021583Y-12338189D01*
X20464440Y-12695332D02*
X20450155Y-12681046D01*
X20421583Y-12638189D01*
X20407298Y-12609618D01*
X20393012Y-12566761D01*
X20378726Y-12495332D01*
X20378726Y-12438189D01*
X20393012Y-12366761D01*
X20407298Y-12323903D01*
X20421583Y-12295332D01*
X20450155Y-12252475D01*
X20464440Y-12238189D01*
X20721583Y-12281046D02*
X20578726Y-12281046D01*
X20564440Y-12423903D01*
X20578726Y-12409618D01*
X20607298Y-12395332D01*
X20678726Y-12395332D01*
X20707298Y-12409618D01*
X20721583Y-12423903D01*
X20735869Y-12452475D01*
X20735869Y-12523903D01*
X20721583Y-12552475D01*
X20707298Y-12566761D01*
X20678726Y-12581046D01*
X20607298Y-12581046D01*
X20578726Y-12566761D01*
X20564440Y-12552475D01*
X20835869Y-12281046D02*
X21021583Y-12281046D01*
X20921583Y-12395332D01*
X20964440Y-12395332D01*
X20993012Y-12409618D01*
X21007298Y-12423903D01*
X21021583Y-12452475D01*
X21021583Y-12523903D01*
X21007298Y-12552475D01*
X20993012Y-12566761D01*
X20964440Y-12581046D01*
X20878726Y-12581046D01*
X20850155Y-12566761D01*
X20835869Y-12552475D01*
X21378726Y-12581046D02*
X21378726Y-12281046D01*
X21507298Y-12581046D02*
X21507298Y-12423903D01*
X21493012Y-12395332D01*
X21464440Y-12381046D01*
X21421583Y-12381046D01*
X21393012Y-12395332D01*
X21378726Y-12409618D01*
X21693012Y-12581046D02*
X21664440Y-12566761D01*
X21650155Y-12552475D01*
X21635869Y-12523903D01*
X21635869Y-12438189D01*
X21650155Y-12409618D01*
X21664440Y-12395332D01*
X21693012Y-12381046D01*
X21735869Y-12381046D01*
X21764440Y-12395332D01*
X21778726Y-12409618D01*
X21793012Y-12438189D01*
X21793012Y-12523903D01*
X21778726Y-12552475D01*
X21764440Y-12566761D01*
X21735869Y-12581046D01*
X21693012Y-12581046D01*
X21964440Y-12581046D02*
X21935869Y-12566761D01*
X21921583Y-12538189D01*
X21921583Y-12281046D01*
X22193012Y-12566761D02*
X22164440Y-12581046D01*
X22107298Y-12581046D01*
X22078726Y-12566761D01*
X22064440Y-12538189D01*
X22064440Y-12423903D01*
X22078726Y-12395332D01*
X22107298Y-12381046D01*
X22164440Y-12381046D01*
X22193012Y-12395332D01*
X22207298Y-12423903D01*
X22207298Y-12452475D01*
X22064440Y-12481046D01*
X22321583Y-12566761D02*
X22350155Y-12581046D01*
X22407298Y-12581046D01*
X22435869Y-12566761D01*
X22450155Y-12538189D01*
X22450155Y-12523903D01*
X22435869Y-12495332D01*
X22407298Y-12481046D01*
X22364440Y-12481046D01*
X22335869Y-12466761D01*
X22321583Y-12438189D01*
X22321583Y-12423903D01*
X22335869Y-12395332D01*
X22364440Y-12381046D01*
X22407298Y-12381046D01*
X22435869Y-12395332D01*
X22550155Y-12695332D02*
X22564440Y-12681046D01*
X22593012Y-12638189D01*
X22607298Y-12609618D01*
X22621583Y-12566761D01*
X22635869Y-12495332D01*
X22635869Y-12438189D01*
X22621583Y-12366761D01*
X22607298Y-12323903D01*
X22593012Y-12295332D01*
X22564440Y-12252475D01*
X22550155Y-12238189D01*
X15778012Y-12841332D02*
G75*
G03*
X15778012Y-12841332I-40000J0D01*
G01*
X16121583Y-12677046D02*
X16150155Y-12677046D01*
X16178726Y-12691332D01*
X16193012Y-12705618D01*
X16207298Y-12734189D01*
X16221583Y-12791332D01*
X16221583Y-12862761D01*
X16207298Y-12919903D01*
X16193012Y-12948475D01*
X16178726Y-12962761D01*
X16150155Y-12977046D01*
X16121583Y-12977046D01*
X16093012Y-12962761D01*
X16078726Y-12948475D01*
X16064440Y-12919903D01*
X16050155Y-12862761D01*
X16050155Y-12791332D01*
X16064440Y-12734189D01*
X16078726Y-12705618D01*
X16093012Y-12691332D01*
X16121583Y-12677046D01*
X16350155Y-12948475D02*
X16364440Y-12962761D01*
X16350155Y-12977046D01*
X16335869Y-12962761D01*
X16350155Y-12948475D01*
X16350155Y-12977046D01*
X16535869Y-12805618D02*
X16507298Y-12791332D01*
X16493012Y-12777046D01*
X16478726Y-12748475D01*
X16478726Y-12734189D01*
X16493012Y-12705618D01*
X16507298Y-12691332D01*
X16535869Y-12677046D01*
X16593012Y-12677046D01*
X16621583Y-12691332D01*
X16635869Y-12705618D01*
X16650155Y-12734189D01*
X16650155Y-12748475D01*
X16635869Y-12777046D01*
X16621583Y-12791332D01*
X16593012Y-12805618D01*
X16535869Y-12805618D01*
X16507298Y-12819903D01*
X16493012Y-12834189D01*
X16478726Y-12862761D01*
X16478726Y-12919903D01*
X16493012Y-12948475D01*
X16507298Y-12962761D01*
X16535869Y-12977046D01*
X16593012Y-12977046D01*
X16621583Y-12962761D01*
X16635869Y-12948475D01*
X16650155Y-12919903D01*
X16650155Y-12862761D01*
X16635869Y-12834189D01*
X16621583Y-12819903D01*
X16593012Y-12805618D01*
X16835869Y-12677046D02*
X16864440Y-12677046D01*
X16893012Y-12691332D01*
X16907298Y-12705618D01*
X16921583Y-12734189D01*
X16935869Y-12791332D01*
X16935869Y-12862761D01*
X16921583Y-12919903D01*
X16907298Y-12948475D01*
X16893012Y-12962761D01*
X16864440Y-12977046D01*
X16835869Y-12977046D01*
X16807298Y-12962761D01*
X16793012Y-12948475D01*
X16778726Y-12919903D01*
X16764440Y-12862761D01*
X16764440Y-12791332D01*
X16778726Y-12734189D01*
X16793012Y-12705618D01*
X16807298Y-12691332D01*
X16835869Y-12677046D01*
X17064440Y-12977046D02*
X17064440Y-12777046D01*
X17064440Y-12805618D02*
X17078726Y-12791332D01*
X17107298Y-12777046D01*
X17150155Y-12777046D01*
X17178726Y-12791332D01*
X17193012Y-12819903D01*
X17193012Y-12977046D01*
X17193012Y-12819903D02*
X17207298Y-12791332D01*
X17235869Y-12777046D01*
X17278726Y-12777046D01*
X17307298Y-12791332D01*
X17321583Y-12819903D01*
X17321583Y-12977046D01*
X17464440Y-12977046D02*
X17464440Y-12777046D01*
X17464440Y-12805618D02*
X17478726Y-12791332D01*
X17507298Y-12777046D01*
X17550155Y-12777046D01*
X17578726Y-12791332D01*
X17593012Y-12819903D01*
X17593012Y-12977046D01*
X17593012Y-12819903D02*
X17607298Y-12791332D01*
X17635869Y-12777046D01*
X17678726Y-12777046D01*
X17707298Y-12791332D01*
X17721583Y-12819903D01*
X17721583Y-12977046D01*
X18307298Y-12662761D02*
X18050155Y-13048475D01*
X18693012Y-12677046D02*
X18721583Y-12677046D01*
X18750155Y-12691332D01*
X18764440Y-12705618D01*
X18778726Y-12734189D01*
X18793012Y-12791332D01*
X18793012Y-12862761D01*
X18778726Y-12919903D01*
X18764440Y-12948475D01*
X18750155Y-12962761D01*
X18721583Y-12977046D01*
X18693012Y-12977046D01*
X18664440Y-12962761D01*
X18650155Y-12948475D01*
X18635869Y-12919903D01*
X18621583Y-12862761D01*
X18621583Y-12791332D01*
X18635869Y-12734189D01*
X18650155Y-12705618D01*
X18664440Y-12691332D01*
X18693012Y-12677046D01*
X18921583Y-12948475D02*
X18935869Y-12962761D01*
X18921583Y-12977046D01*
X18907298Y-12962761D01*
X18921583Y-12948475D01*
X18921583Y-12977046D01*
X19121583Y-12677046D02*
X19150155Y-12677046D01*
X19178726Y-12691332D01*
X19193012Y-12705618D01*
X19207298Y-12734189D01*
X19221583Y-12791332D01*
X19221583Y-12862761D01*
X19207298Y-12919903D01*
X19193012Y-12948475D01*
X19178726Y-12962761D01*
X19150155Y-12977046D01*
X19121583Y-12977046D01*
X19093012Y-12962761D01*
X19078726Y-12948475D01*
X19064440Y-12919903D01*
X19050155Y-12862761D01*
X19050155Y-12791332D01*
X19064440Y-12734189D01*
X19078726Y-12705618D01*
X19093012Y-12691332D01*
X19121583Y-12677046D01*
X19321583Y-12677046D02*
X19507298Y-12677046D01*
X19407298Y-12791332D01*
X19450155Y-12791332D01*
X19478726Y-12805618D01*
X19493012Y-12819903D01*
X19507298Y-12848475D01*
X19507298Y-12919903D01*
X19493012Y-12948475D01*
X19478726Y-12962761D01*
X19450155Y-12977046D01*
X19364440Y-12977046D01*
X19335869Y-12962761D01*
X19321583Y-12948475D01*
X19793012Y-12977046D02*
X19621583Y-12977046D01*
X19707298Y-12977046D02*
X19707298Y-12677046D01*
X19678726Y-12719903D01*
X19650155Y-12748475D01*
X19621583Y-12762761D01*
X19907298Y-12677046D02*
X19907298Y-12734189D01*
X20021583Y-12677046D02*
X20021583Y-12734189D01*
X20464440Y-13091332D02*
X20450155Y-13077046D01*
X20421583Y-13034189D01*
X20407298Y-13005618D01*
X20393012Y-12962761D01*
X20378726Y-12891332D01*
X20378726Y-12834189D01*
X20393012Y-12762761D01*
X20407298Y-12719903D01*
X20421583Y-12691332D01*
X20450155Y-12648475D01*
X20464440Y-12634189D01*
X20707298Y-12777046D02*
X20707298Y-12977046D01*
X20635869Y-12662761D02*
X20564440Y-12877046D01*
X20750155Y-12877046D01*
X20921583Y-12677046D02*
X20950155Y-12677046D01*
X20978726Y-12691332D01*
X20993012Y-12705618D01*
X21007298Y-12734189D01*
X21021583Y-12791332D01*
X21021583Y-12862761D01*
X21007298Y-12919903D01*
X20993012Y-12948475D01*
X20978726Y-12962761D01*
X20950155Y-12977046D01*
X20921583Y-12977046D01*
X20893012Y-12962761D01*
X20878726Y-12948475D01*
X20864440Y-12919903D01*
X20850155Y-12862761D01*
X20850155Y-12791332D01*
X20864440Y-12734189D01*
X20878726Y-12705618D01*
X20893012Y-12691332D01*
X20921583Y-12677046D01*
X21378726Y-12977046D02*
X21378726Y-12677046D01*
X21507298Y-12977046D02*
X21507298Y-12819903D01*
X21493012Y-12791332D01*
X21464440Y-12777046D01*
X21421583Y-12777046D01*
X21393012Y-12791332D01*
X21378726Y-12805618D01*
X21693012Y-12977046D02*
X21664440Y-12962761D01*
X21650155Y-12948475D01*
X21635869Y-12919903D01*
X21635869Y-12834189D01*
X21650155Y-12805618D01*
X21664440Y-12791332D01*
X21693012Y-12777046D01*
X21735869Y-12777046D01*
X21764440Y-12791332D01*
X21778726Y-12805618D01*
X21793012Y-12834189D01*
X21793012Y-12919903D01*
X21778726Y-12948475D01*
X21764440Y-12962761D01*
X21735869Y-12977046D01*
X21693012Y-12977046D01*
X21964440Y-12977046D02*
X21935869Y-12962761D01*
X21921583Y-12934189D01*
X21921583Y-12677046D01*
X22193012Y-12962761D02*
X22164440Y-12977046D01*
X22107298Y-12977046D01*
X22078726Y-12962761D01*
X22064440Y-12934189D01*
X22064440Y-12819903D01*
X22078726Y-12791332D01*
X22107298Y-12777046D01*
X22164440Y-12777046D01*
X22193012Y-12791332D01*
X22207298Y-12819903D01*
X22207298Y-12848475D01*
X22064440Y-12877046D01*
X22321583Y-12962761D02*
X22350155Y-12977046D01*
X22407298Y-12977046D01*
X22435869Y-12962761D01*
X22450155Y-12934189D01*
X22450155Y-12919903D01*
X22435869Y-12891332D01*
X22407298Y-12877046D01*
X22364440Y-12877046D01*
X22335869Y-12862761D01*
X22321583Y-12834189D01*
X22321583Y-12819903D01*
X22335869Y-12791332D01*
X22364440Y-12777046D01*
X22407298Y-12777046D01*
X22435869Y-12791332D01*
X22550155Y-13091332D02*
X22564440Y-13077046D01*
X22593012Y-13034189D01*
X22607298Y-13005618D01*
X22621583Y-12962761D01*
X22635869Y-12891332D01*
X22635869Y-12834189D01*
X22621583Y-12762761D01*
X22607298Y-12719903D01*
X22593012Y-12691332D01*
X22564440Y-12648475D01*
X22550155Y-12634189D01*
X15723012Y-13182332D02*
X15723012Y-13292332D01*
X15668012Y-13237332D02*
X15778012Y-13237332D01*
X16221583Y-13373046D02*
X16050155Y-13373046D01*
X16135869Y-13373046D02*
X16135869Y-13073046D01*
X16107298Y-13115903D01*
X16078726Y-13144475D01*
X16050155Y-13158761D01*
X16350155Y-13344475D02*
X16364440Y-13358761D01*
X16350155Y-13373046D01*
X16335869Y-13358761D01*
X16350155Y-13344475D01*
X16350155Y-13373046D01*
X16650155Y-13373046D02*
X16478726Y-13373046D01*
X16564440Y-13373046D02*
X16564440Y-13073046D01*
X16535869Y-13115903D01*
X16507298Y-13144475D01*
X16478726Y-13158761D01*
X16835869Y-13073046D02*
X16864440Y-13073046D01*
X16893012Y-13087332D01*
X16907298Y-13101618D01*
X16921583Y-13130189D01*
X16935869Y-13187332D01*
X16935869Y-13258761D01*
X16921583Y-13315903D01*
X16907298Y-13344475D01*
X16893012Y-13358761D01*
X16864440Y-13373046D01*
X16835869Y-13373046D01*
X16807298Y-13358761D01*
X16793012Y-13344475D01*
X16778726Y-13315903D01*
X16764440Y-13258761D01*
X16764440Y-13187332D01*
X16778726Y-13130189D01*
X16793012Y-13101618D01*
X16807298Y-13087332D01*
X16835869Y-13073046D01*
X17064440Y-13373046D02*
X17064440Y-13173046D01*
X17064440Y-13201618D02*
X17078726Y-13187332D01*
X17107298Y-13173046D01*
X17150155Y-13173046D01*
X17178726Y-13187332D01*
X17193012Y-13215903D01*
X17193012Y-13373046D01*
X17193012Y-13215903D02*
X17207298Y-13187332D01*
X17235869Y-13173046D01*
X17278726Y-13173046D01*
X17307298Y-13187332D01*
X17321583Y-13215903D01*
X17321583Y-13373046D01*
X17464440Y-13373046D02*
X17464440Y-13173046D01*
X17464440Y-13201618D02*
X17478726Y-13187332D01*
X17507298Y-13173046D01*
X17550155Y-13173046D01*
X17578726Y-13187332D01*
X17593012Y-13215903D01*
X17593012Y-13373046D01*
X17593012Y-13215903D02*
X17607298Y-13187332D01*
X17635869Y-13173046D01*
X17678726Y-13173046D01*
X17707298Y-13187332D01*
X17721583Y-13215903D01*
X17721583Y-13373046D01*
X18307298Y-13058761D02*
X18050155Y-13444475D01*
X18693012Y-13073046D02*
X18721583Y-13073046D01*
X18750155Y-13087332D01*
X18764440Y-13101618D01*
X18778726Y-13130189D01*
X18793012Y-13187332D01*
X18793012Y-13258761D01*
X18778726Y-13315903D01*
X18764440Y-13344475D01*
X18750155Y-13358761D01*
X18721583Y-13373046D01*
X18693012Y-13373046D01*
X18664440Y-13358761D01*
X18650155Y-13344475D01*
X18635869Y-13315903D01*
X18621583Y-13258761D01*
X18621583Y-13187332D01*
X18635869Y-13130189D01*
X18650155Y-13101618D01*
X18664440Y-13087332D01*
X18693012Y-13073046D01*
X18921583Y-13344475D02*
X18935869Y-13358761D01*
X18921583Y-13373046D01*
X18907298Y-13358761D01*
X18921583Y-13344475D01*
X18921583Y-13373046D01*
X19121583Y-13073046D02*
X19150155Y-13073046D01*
X19178726Y-13087332D01*
X19193012Y-13101618D01*
X19207298Y-13130189D01*
X19221583Y-13187332D01*
X19221583Y-13258761D01*
X19207298Y-13315903D01*
X19193012Y-13344475D01*
X19178726Y-13358761D01*
X19150155Y-13373046D01*
X19121583Y-13373046D01*
X19093012Y-13358761D01*
X19078726Y-13344475D01*
X19064440Y-13315903D01*
X19050155Y-13258761D01*
X19050155Y-13187332D01*
X19064440Y-13130189D01*
X19078726Y-13101618D01*
X19093012Y-13087332D01*
X19121583Y-13073046D01*
X19478726Y-13173046D02*
X19478726Y-13373046D01*
X19407298Y-13058761D02*
X19335869Y-13273046D01*
X19521583Y-13273046D01*
X19607298Y-13073046D02*
X19793012Y-13073046D01*
X19693012Y-13187332D01*
X19735869Y-13187332D01*
X19764440Y-13201618D01*
X19778726Y-13215903D01*
X19793012Y-13244475D01*
X19793012Y-13315903D01*
X19778726Y-13344475D01*
X19764440Y-13358761D01*
X19735869Y-13373046D01*
X19650155Y-13373046D01*
X19621583Y-13358761D01*
X19607298Y-13344475D01*
X19907298Y-13073046D02*
X19907298Y-13130189D01*
X20021583Y-13073046D02*
X20021583Y-13130189D01*
X20464440Y-13487332D02*
X20450155Y-13473046D01*
X20421583Y-13430189D01*
X20407298Y-13401618D01*
X20393012Y-13358761D01*
X20378726Y-13287332D01*
X20378726Y-13230189D01*
X20393012Y-13158761D01*
X20407298Y-13115903D01*
X20421583Y-13087332D01*
X20450155Y-13044475D01*
X20464440Y-13030189D01*
X20707298Y-13173046D02*
X20707298Y-13373046D01*
X20635869Y-13058761D02*
X20564440Y-13273046D01*
X20750155Y-13273046D01*
X20907298Y-13201618D02*
X20878726Y-13187332D01*
X20864440Y-13173046D01*
X20850155Y-13144475D01*
X20850155Y-13130189D01*
X20864440Y-13101618D01*
X20878726Y-13087332D01*
X20907298Y-13073046D01*
X20964440Y-13073046D01*
X20993012Y-13087332D01*
X21007298Y-13101618D01*
X21021583Y-13130189D01*
X21021583Y-13144475D01*
X21007298Y-13173046D01*
X20993012Y-13187332D01*
X20964440Y-13201618D01*
X20907298Y-13201618D01*
X20878726Y-13215903D01*
X20864440Y-13230189D01*
X20850155Y-13258761D01*
X20850155Y-13315903D01*
X20864440Y-13344475D01*
X20878726Y-13358761D01*
X20907298Y-13373046D01*
X20964440Y-13373046D01*
X20993012Y-13358761D01*
X21007298Y-13344475D01*
X21021583Y-13315903D01*
X21021583Y-13258761D01*
X21007298Y-13230189D01*
X20993012Y-13215903D01*
X20964440Y-13201618D01*
X21378726Y-13373046D02*
X21378726Y-13073046D01*
X21507298Y-13373046D02*
X21507298Y-13215903D01*
X21493012Y-13187332D01*
X21464440Y-13173046D01*
X21421583Y-13173046D01*
X21393012Y-13187332D01*
X21378726Y-13201618D01*
X21693012Y-13373046D02*
X21664440Y-13358761D01*
X21650155Y-13344475D01*
X21635869Y-13315903D01*
X21635869Y-13230189D01*
X21650155Y-13201618D01*
X21664440Y-13187332D01*
X21693012Y-13173046D01*
X21735869Y-13173046D01*
X21764440Y-13187332D01*
X21778726Y-13201618D01*
X21793012Y-13230189D01*
X21793012Y-13315903D01*
X21778726Y-13344475D01*
X21764440Y-13358761D01*
X21735869Y-13373046D01*
X21693012Y-13373046D01*
X21964440Y-13373046D02*
X21935869Y-13358761D01*
X21921583Y-13330189D01*
X21921583Y-13073046D01*
X22193012Y-13358761D02*
X22164440Y-13373046D01*
X22107298Y-13373046D01*
X22078726Y-13358761D01*
X22064440Y-13330189D01*
X22064440Y-13215903D01*
X22078726Y-13187332D01*
X22107298Y-13173046D01*
X22164440Y-13173046D01*
X22193012Y-13187332D01*
X22207298Y-13215903D01*
X22207298Y-13244475D01*
X22064440Y-13273046D01*
X22321583Y-13358761D02*
X22350155Y-13373046D01*
X22407298Y-13373046D01*
X22435869Y-13358761D01*
X22450155Y-13330189D01*
X22450155Y-13315903D01*
X22435869Y-13287332D01*
X22407298Y-13273046D01*
X22364440Y-13273046D01*
X22335869Y-13258761D01*
X22321583Y-13230189D01*
X22321583Y-13215903D01*
X22335869Y-13187332D01*
X22364440Y-13173046D01*
X22407298Y-13173046D01*
X22435869Y-13187332D01*
X22550155Y-13487332D02*
X22564440Y-13473046D01*
X22593012Y-13430189D01*
X22607298Y-13401618D01*
X22621583Y-13358761D01*
X22635869Y-13287332D01*
X22635869Y-13230189D01*
X22621583Y-13158761D01*
X22607298Y-13115903D01*
X22593012Y-13087332D01*
X22564440Y-13044475D01*
X22550155Y-13030189D01*
M02*
