G04 #@! TF.GenerationSoftware,KiCad,Pcbnew,(5.1.8)-1*
G04 #@! TF.CreationDate,2022-03-12T16:36:43-08:00*
G04 #@! TF.ProjectId,MCLZ8_PCB,4d434c5a-385f-4504-9342-2e6b69636164,rev?*
G04 #@! TF.SameCoordinates,Original*
G04 #@! TF.FileFunction,Copper,L4,Bot*
G04 #@! TF.FilePolarity,Positive*
%FSLAX46Y46*%
G04 Gerber Fmt 4.6, Leading zero omitted, Abs format (unit mm)*
G04 Created by KiCad (PCBNEW (5.1.8)-1) date 2022-03-12 16:36:43*
%MOMM*%
%LPD*%
G01*
G04 APERTURE LIST*
G04 #@! TA.AperFunction,ComponentPad*
%ADD10O,1.600000X1.600000*%
G04 #@! TD*
G04 #@! TA.AperFunction,ComponentPad*
%ADD11R,1.600000X1.600000*%
G04 #@! TD*
G04 #@! TA.AperFunction,ComponentPad*
%ADD12C,1.600000*%
G04 #@! TD*
G04 #@! TA.AperFunction,ViaPad*
%ADD13C,0.584200*%
G04 #@! TD*
G04 #@! TA.AperFunction,Conductor*
%ADD14C,0.152400*%
G04 #@! TD*
G04 APERTURE END LIST*
D10*
X174452280Y-57929780D03*
X159212280Y-106189780D03*
X174452280Y-60469780D03*
X159212280Y-103649780D03*
X174452280Y-63009780D03*
X159212280Y-101109780D03*
X174452280Y-65549780D03*
X159212280Y-98569780D03*
X174452280Y-68089780D03*
X159212280Y-96029780D03*
X174452280Y-70629780D03*
X159212280Y-93489780D03*
X174452280Y-73169780D03*
X159212280Y-90949780D03*
X174452280Y-75709780D03*
X159212280Y-88409780D03*
X174452280Y-78249780D03*
X159212280Y-85869780D03*
X174452280Y-80789780D03*
X159212280Y-83329780D03*
X174452280Y-83329780D03*
X159212280Y-80789780D03*
X174452280Y-85869780D03*
X159212280Y-78249780D03*
X174452280Y-88409780D03*
X159212280Y-75709780D03*
X174452280Y-90949780D03*
X159212280Y-73169780D03*
X174452280Y-93489780D03*
X159212280Y-70629780D03*
X174452280Y-96029780D03*
X159212280Y-68089780D03*
X174452280Y-98569780D03*
X159212280Y-65549780D03*
X174452280Y-101109780D03*
X159212280Y-63009780D03*
X174452280Y-103649780D03*
X159212280Y-60469780D03*
X174452280Y-106189780D03*
D11*
X159212280Y-57929780D03*
D12*
X178290220Y-113644680D03*
X178290220Y-111104680D03*
X178290220Y-108564680D03*
X178290220Y-106024680D03*
X178290220Y-103484680D03*
X178290220Y-100944680D03*
X178290220Y-98404680D03*
X178290220Y-95864680D03*
X178290220Y-93324680D03*
X178290220Y-90784680D03*
X178290220Y-88244680D03*
X178290220Y-85704680D03*
X178290220Y-83164680D03*
X178290220Y-80624680D03*
D11*
X193530220Y-113644680D03*
D12*
X193530220Y-111104680D03*
X193530220Y-108564680D03*
X193530220Y-106024680D03*
X193530220Y-103484680D03*
X193530220Y-100944680D03*
X193530220Y-98404680D03*
X193530220Y-95864680D03*
X193530220Y-93324680D03*
X193530220Y-90784680D03*
X193530220Y-88244680D03*
X193530220Y-85704680D03*
X193530220Y-83164680D03*
X178290220Y-78084680D03*
X178290220Y-75544680D03*
X178290220Y-73004680D03*
X178290220Y-70464680D03*
X178290220Y-67924680D03*
X178290220Y-65384680D03*
X178290220Y-62844680D03*
X178290220Y-60304680D03*
X178290220Y-57764680D03*
X178290220Y-55224680D03*
X193530220Y-55224680D03*
X193530220Y-57764680D03*
X193530220Y-60304680D03*
X193530220Y-62844680D03*
X193530220Y-80624680D03*
X193530220Y-78084680D03*
X193530220Y-75544680D03*
X193530220Y-65384680D03*
X193530220Y-67924680D03*
X193530220Y-70464680D03*
X193530220Y-73004680D03*
D13*
X163901656Y-95861604D03*
X187190380Y-71543380D03*
X187319186Y-77479426D03*
X163837620Y-103479600D03*
X188247020Y-91178380D03*
X162991800Y-86895940D03*
X164383720Y-79265780D03*
X182387240Y-78191360D03*
X169400220Y-96131380D03*
X168079420Y-102910640D03*
X183205120Y-91414600D03*
X170253969Y-86823363D03*
X168216580Y-79329280D03*
X183542940Y-98623122D03*
X187792360Y-98844100D03*
X186171842Y-97368360D03*
X185917838Y-95275400D03*
X185808620Y-93291660D03*
X184861200Y-90360500D03*
X184690370Y-87668100D03*
X165790880Y-92293440D03*
X165415610Y-98595180D03*
X162001200Y-98800920D03*
X164386065Y-86729026D03*
X162699700Y-93065600D03*
X165386716Y-85920303D03*
X181250637Y-95688650D03*
X161320480Y-82821780D03*
X180421280Y-94787720D03*
X165739111Y-84981058D03*
X162255200Y-82598260D03*
X181416960Y-94503240D03*
X165757122Y-83876618D03*
X160609280Y-81805780D03*
X165564820Y-82616040D03*
X181498240Y-93588840D03*
X165615620Y-81701640D03*
X181538880Y-92745560D03*
X165539420Y-80688180D03*
X181620160Y-91186000D03*
X167165020Y-100081080D03*
X170657520Y-93553280D03*
X184690370Y-84602225D03*
X183309260Y-83550760D03*
X162501580Y-105608120D03*
X181460140Y-66164460D03*
X167403782Y-81132680D03*
X166768780Y-90213182D03*
X181637940Y-68117720D03*
X167708580Y-91719400D03*
X166070280Y-100820220D03*
X169011600Y-86809580D03*
X168160700Y-98729800D03*
D14*
X193530220Y-100944680D02*
X189892940Y-100944680D01*
X189892940Y-100944680D02*
X187792360Y-98844100D01*
X192493900Y-97368360D02*
X186171842Y-97368360D01*
X193530220Y-98404680D02*
X192493900Y-97368360D01*
X186507118Y-95864680D02*
X185917838Y-95275400D01*
X193530220Y-95864680D02*
X186507118Y-95864680D01*
X185841640Y-93324680D02*
X185808620Y-93291660D01*
X193530220Y-93324680D02*
X185841640Y-93324680D01*
X185237019Y-89984681D02*
X184861200Y-90360500D01*
X193530220Y-90784680D02*
X192730221Y-89984681D01*
X192730221Y-89984681D02*
X185237019Y-89984681D01*
X193530220Y-88244680D02*
X185266950Y-88244680D01*
X185266950Y-88244680D02*
X184690370Y-87668100D01*
X159212280Y-60469780D02*
X166331900Y-60469780D01*
X166331900Y-60469780D02*
X171523660Y-55278020D01*
X178236880Y-55278020D02*
X178290220Y-55224680D01*
X171523660Y-55278020D02*
X178236880Y-55278020D01*
X159212280Y-63009780D02*
X165905180Y-63009780D01*
X172614079Y-56300881D02*
X190477899Y-56300881D01*
X165905180Y-63009780D02*
X172614079Y-56300881D01*
X191554100Y-55224680D02*
X193530220Y-55224680D01*
X190477899Y-56300881D02*
X191554100Y-55224680D01*
X159212280Y-65549780D02*
X165394640Y-65549780D01*
X171715941Y-59228479D02*
X189224161Y-59228479D01*
X165394640Y-65549780D02*
X171715941Y-59228479D01*
X190687960Y-57764680D02*
X193530220Y-57764680D01*
X189224161Y-59228479D02*
X190687960Y-57764680D01*
X159212280Y-68089780D02*
X164683440Y-68089780D01*
X171227239Y-61545981D02*
X189141859Y-61545981D01*
X164683440Y-68089780D02*
X171227239Y-61545981D01*
X190383160Y-60304680D02*
X193530220Y-60304680D01*
X189141859Y-61545981D02*
X190383160Y-60304680D01*
X165415610Y-92668710D02*
X165415610Y-98595180D01*
X165790880Y-92293440D02*
X165415610Y-92668710D01*
X159212280Y-96029780D02*
X161983420Y-98800920D01*
X161983420Y-98800920D02*
X162001200Y-98800920D01*
X159636460Y-93065600D02*
X159212280Y-93489780D01*
X159212280Y-93489780D02*
X164386065Y-88315995D01*
X164386065Y-88315995D02*
X164386065Y-86729026D01*
X162699700Y-93065600D02*
X159636460Y-93065600D01*
X180481124Y-95688650D02*
X181250637Y-95688650D01*
X165386716Y-85920303D02*
X165386716Y-86948976D01*
X165386716Y-86948976D02*
X173356131Y-94918391D01*
X176625389Y-94918391D02*
X176755301Y-94788479D01*
X173356131Y-94918391D02*
X176625389Y-94918391D01*
X176755301Y-94788479D02*
X179580953Y-94788479D01*
X179580953Y-94788479D02*
X180481124Y-95688650D01*
X159212280Y-75709780D02*
X161320480Y-77817980D01*
X161320480Y-77817980D02*
X161320480Y-82821780D01*
X166031210Y-87037267D02*
X166031210Y-85273157D01*
X173559923Y-94565980D02*
X166031210Y-87037267D01*
X176479416Y-94565980D02*
X173559923Y-94565980D01*
X166031210Y-85273157D02*
X165739111Y-84981058D01*
X176609328Y-94436068D02*
X176479416Y-94565980D01*
X180421280Y-94787720D02*
X180069628Y-94436068D01*
X180069628Y-94436068D02*
X176609328Y-94436068D01*
X162255200Y-76212700D02*
X159212280Y-73169780D01*
X162255200Y-82598260D02*
X162255200Y-76212700D01*
X166697067Y-84816563D02*
X165757122Y-83876618D01*
X179162199Y-92248479D02*
X176235145Y-92248479D01*
X166697067Y-87204740D02*
X166697067Y-84816563D01*
X176235145Y-92248479D02*
X176105232Y-92378392D01*
X176105232Y-92378392D02*
X171870718Y-92378391D01*
X181416960Y-94503240D02*
X179162199Y-92248479D01*
X171870718Y-92378391D02*
X166697067Y-87204740D01*
X160609280Y-79646780D02*
X159212280Y-78249780D01*
X160609280Y-81805780D02*
X160609280Y-79646780D01*
X176124359Y-91860881D02*
X175959259Y-92025981D01*
X172016692Y-92025981D02*
X167049478Y-87058767D01*
X167049478Y-87058767D02*
X167049478Y-84100698D01*
X167049478Y-84100698D02*
X165564820Y-82616040D01*
X175959259Y-92025981D02*
X172016692Y-92025981D01*
X179770281Y-91860881D02*
X176124359Y-91860881D01*
X181498240Y-93588840D02*
X179770281Y-91860881D01*
X181538880Y-92745560D02*
X181538880Y-92332469D01*
X178914890Y-89708479D02*
X176232605Y-89708479D01*
X181538880Y-92332469D02*
X178914890Y-89708479D01*
X176232605Y-89708479D02*
X176102692Y-89838392D01*
X176102692Y-89838392D02*
X170327486Y-89838391D01*
X170327486Y-89838391D02*
X167401889Y-86912794D01*
X167401889Y-86912794D02*
X167401889Y-83487909D01*
X167401889Y-83487909D02*
X165615620Y-81701640D01*
X164787643Y-81439957D02*
X165539420Y-80688180D01*
X159212280Y-88409780D02*
X164787643Y-82834417D01*
X164787643Y-82834417D02*
X164787643Y-81439957D01*
X167754300Y-82903060D02*
X165539420Y-80688180D01*
X181620160Y-91186000D02*
X179755041Y-89320881D01*
X167754300Y-86766821D02*
X167754300Y-82903060D01*
X170473460Y-89485981D02*
X167754300Y-86766821D01*
X175956719Y-89485981D02*
X170473460Y-89485981D01*
X176121819Y-89320881D02*
X175956719Y-89485981D01*
X179755041Y-89320881D02*
X176121819Y-89320881D01*
X167165020Y-100081080D02*
X167165020Y-98254820D01*
X167165020Y-98254820D02*
X168424860Y-96994980D01*
X168424860Y-96994980D02*
X168424860Y-95785940D01*
X168424860Y-95785940D02*
X170657520Y-93553280D01*
X193530220Y-80624680D02*
X189552675Y-84602225D01*
X189552675Y-84602225D02*
X184690370Y-84602225D01*
X193530220Y-75544680D02*
X191315340Y-75544680D01*
X191315340Y-75544680D02*
X183309260Y-83550760D01*
X159212280Y-106189780D02*
X164799010Y-100603050D01*
X164799010Y-100603050D02*
X164799010Y-92182952D01*
X164799010Y-92182952D02*
X166768780Y-90213182D01*
X167403782Y-70010018D02*
X167403782Y-81132680D01*
X170637200Y-66776600D02*
X167403782Y-70010018D01*
X180848000Y-66776600D02*
X170637200Y-66776600D01*
X181460140Y-66164460D02*
X180848000Y-66776600D01*
X167708580Y-91719400D02*
X166070280Y-93357700D01*
X166070280Y-93357700D02*
X166070280Y-100820220D01*
X181637940Y-68117720D02*
X180589679Y-69165981D01*
X170465239Y-69165981D02*
X169303699Y-70327521D01*
X180589679Y-69165981D02*
X170465239Y-69165981D01*
X169303699Y-70327521D02*
X169303699Y-86517481D01*
X169303699Y-86517481D02*
X169011600Y-86809580D01*
X182284408Y-81710492D02*
X193530220Y-70464680D01*
X182284408Y-96724432D02*
X182284408Y-81710492D01*
X179334160Y-99674680D02*
X182284408Y-96724432D01*
X176136300Y-100766880D02*
X177228500Y-99674680D01*
X176136300Y-101846380D02*
X176136300Y-100766880D01*
X176121060Y-101861620D02*
X176136300Y-101846380D01*
X177228500Y-99674680D02*
X179334160Y-99674680D01*
X176121060Y-101981000D02*
X176121060Y-101861620D01*
X174452280Y-103649780D02*
X176121060Y-101981000D01*
X193014252Y-73004680D02*
X193530220Y-73004680D01*
X182636819Y-83382113D02*
X193014252Y-73004680D01*
X182636819Y-98495461D02*
X182636819Y-83382113D01*
X178920140Y-102212140D02*
X182636819Y-98495461D01*
X177723800Y-102212140D02*
X178920140Y-102212140D01*
X174452280Y-105483660D02*
X177723800Y-102212140D01*
X174452280Y-106189780D02*
X174452280Y-105483660D01*
X174452280Y-98569780D02*
X168320720Y-98569780D01*
X168320720Y-98569780D02*
X168160700Y-98729800D01*
X176072800Y-86789260D02*
X174452280Y-88409780D01*
X176072800Y-75598020D02*
X176072800Y-86789260D01*
X182123080Y-74251820D02*
X177419000Y-74251820D01*
X177419000Y-74251820D02*
X176072800Y-75598020D01*
X193530220Y-62844680D02*
X182123080Y-74251820D01*
M02*
