G04 #@! TF.GenerationSoftware,KiCad,Pcbnew,(5.1.8)-1*
G04 #@! TF.CreationDate,2021-02-05T23:49:50-08:00*
G04 #@! TF.ProjectId,ROM_Emulator,524f4d5f-456d-4756-9c61-746f722e6b69,rev?*
G04 #@! TF.SameCoordinates,Original*
G04 #@! TF.FileFunction,Copper,L1,Top*
G04 #@! TF.FilePolarity,Positive*
%FSLAX46Y46*%
G04 Gerber Fmt 4.6, Leading zero omitted, Abs format (unit mm)*
G04 Created by KiCad (PCBNEW (5.1.8)-1) date 2021-02-05 23:49:50*
%MOMM*%
%LPD*%
G01*
G04 APERTURE LIST*
G04 #@! TA.AperFunction,ComponentPad*
%ADD10C,1.600000*%
G04 #@! TD*
G04 #@! TA.AperFunction,ComponentPad*
%ADD11O,1.600000X1.600000*%
G04 #@! TD*
G04 #@! TA.AperFunction,ComponentPad*
%ADD12R,1.600000X1.600000*%
G04 #@! TD*
G04 #@! TA.AperFunction,ViaPad*
%ADD13C,0.800000*%
G04 #@! TD*
G04 #@! TA.AperFunction,Conductor*
%ADD14C,0.152400*%
G04 #@! TD*
G04 APERTURE END LIST*
D10*
X179806600Y-116967000D03*
X164566600Y-116967000D03*
X179806600Y-114427000D03*
X179806600Y-111887000D03*
X179806600Y-109347000D03*
X179806600Y-106807000D03*
X179806600Y-104267000D03*
X179806600Y-101727000D03*
X179806600Y-99187000D03*
X179806600Y-96647000D03*
X179806600Y-94107000D03*
X179806600Y-91567000D03*
X179806600Y-89027000D03*
X179806600Y-86487000D03*
X179806600Y-83947000D03*
X164566600Y-114427000D03*
X164566600Y-111887000D03*
X164566600Y-109347000D03*
X164566600Y-106807000D03*
X164566600Y-104267000D03*
X164566600Y-101727000D03*
X164566600Y-99187000D03*
X164566600Y-96647000D03*
X164566600Y-94107000D03*
X164566600Y-91567000D03*
X164566600Y-89027000D03*
X164566600Y-86487000D03*
X164566600Y-83947000D03*
G04 #@! TA.AperFunction,SMDPad,CuDef*
G36*
G01*
X169057400Y-84525200D02*
X169057400Y-84275200D01*
G75*
G02*
X169182400Y-84150200I125000J0D01*
G01*
X170832400Y-84150200D01*
G75*
G02*
X170957400Y-84275200I0J-125000D01*
G01*
X170957400Y-84525200D01*
G75*
G02*
X170832400Y-84650200I-125000J0D01*
G01*
X169182400Y-84650200D01*
G75*
G02*
X169057400Y-84525200I0J125000D01*
G01*
G37*
G04 #@! TD.AperFunction*
G04 #@! TA.AperFunction,SMDPad,CuDef*
G36*
G01*
X169057400Y-85175200D02*
X169057400Y-84925200D01*
G75*
G02*
X169182400Y-84800200I125000J0D01*
G01*
X170832400Y-84800200D01*
G75*
G02*
X170957400Y-84925200I0J-125000D01*
G01*
X170957400Y-85175200D01*
G75*
G02*
X170832400Y-85300200I-125000J0D01*
G01*
X169182400Y-85300200D01*
G75*
G02*
X169057400Y-85175200I0J125000D01*
G01*
G37*
G04 #@! TD.AperFunction*
G04 #@! TA.AperFunction,SMDPad,CuDef*
G36*
G01*
X169057400Y-85825200D02*
X169057400Y-85575200D01*
G75*
G02*
X169182400Y-85450200I125000J0D01*
G01*
X170832400Y-85450200D01*
G75*
G02*
X170957400Y-85575200I0J-125000D01*
G01*
X170957400Y-85825200D01*
G75*
G02*
X170832400Y-85950200I-125000J0D01*
G01*
X169182400Y-85950200D01*
G75*
G02*
X169057400Y-85825200I0J125000D01*
G01*
G37*
G04 #@! TD.AperFunction*
G04 #@! TA.AperFunction,SMDPad,CuDef*
G36*
G01*
X169057400Y-86475200D02*
X169057400Y-86225200D01*
G75*
G02*
X169182400Y-86100200I125000J0D01*
G01*
X170832400Y-86100200D01*
G75*
G02*
X170957400Y-86225200I0J-125000D01*
G01*
X170957400Y-86475200D01*
G75*
G02*
X170832400Y-86600200I-125000J0D01*
G01*
X169182400Y-86600200D01*
G75*
G02*
X169057400Y-86475200I0J125000D01*
G01*
G37*
G04 #@! TD.AperFunction*
G04 #@! TA.AperFunction,SMDPad,CuDef*
G36*
G01*
X169057400Y-87125200D02*
X169057400Y-86875200D01*
G75*
G02*
X169182400Y-86750200I125000J0D01*
G01*
X170832400Y-86750200D01*
G75*
G02*
X170957400Y-86875200I0J-125000D01*
G01*
X170957400Y-87125200D01*
G75*
G02*
X170832400Y-87250200I-125000J0D01*
G01*
X169182400Y-87250200D01*
G75*
G02*
X169057400Y-87125200I0J125000D01*
G01*
G37*
G04 #@! TD.AperFunction*
G04 #@! TA.AperFunction,SMDPad,CuDef*
G36*
G01*
X169057400Y-87775200D02*
X169057400Y-87525200D01*
G75*
G02*
X169182400Y-87400200I125000J0D01*
G01*
X170832400Y-87400200D01*
G75*
G02*
X170957400Y-87525200I0J-125000D01*
G01*
X170957400Y-87775200D01*
G75*
G02*
X170832400Y-87900200I-125000J0D01*
G01*
X169182400Y-87900200D01*
G75*
G02*
X169057400Y-87775200I0J125000D01*
G01*
G37*
G04 #@! TD.AperFunction*
G04 #@! TA.AperFunction,SMDPad,CuDef*
G36*
G01*
X169057400Y-88425200D02*
X169057400Y-88175200D01*
G75*
G02*
X169182400Y-88050200I125000J0D01*
G01*
X170832400Y-88050200D01*
G75*
G02*
X170957400Y-88175200I0J-125000D01*
G01*
X170957400Y-88425200D01*
G75*
G02*
X170832400Y-88550200I-125000J0D01*
G01*
X169182400Y-88550200D01*
G75*
G02*
X169057400Y-88425200I0J125000D01*
G01*
G37*
G04 #@! TD.AperFunction*
G04 #@! TA.AperFunction,SMDPad,CuDef*
G36*
G01*
X169057400Y-89075200D02*
X169057400Y-88825200D01*
G75*
G02*
X169182400Y-88700200I125000J0D01*
G01*
X170832400Y-88700200D01*
G75*
G02*
X170957400Y-88825200I0J-125000D01*
G01*
X170957400Y-89075200D01*
G75*
G02*
X170832400Y-89200200I-125000J0D01*
G01*
X169182400Y-89200200D01*
G75*
G02*
X169057400Y-89075200I0J125000D01*
G01*
G37*
G04 #@! TD.AperFunction*
G04 #@! TA.AperFunction,SMDPad,CuDef*
G36*
G01*
X169057400Y-89725200D02*
X169057400Y-89475200D01*
G75*
G02*
X169182400Y-89350200I125000J0D01*
G01*
X170832400Y-89350200D01*
G75*
G02*
X170957400Y-89475200I0J-125000D01*
G01*
X170957400Y-89725200D01*
G75*
G02*
X170832400Y-89850200I-125000J0D01*
G01*
X169182400Y-89850200D01*
G75*
G02*
X169057400Y-89725200I0J125000D01*
G01*
G37*
G04 #@! TD.AperFunction*
G04 #@! TA.AperFunction,SMDPad,CuDef*
G36*
G01*
X169057400Y-90375200D02*
X169057400Y-90125200D01*
G75*
G02*
X169182400Y-90000200I125000J0D01*
G01*
X170832400Y-90000200D01*
G75*
G02*
X170957400Y-90125200I0J-125000D01*
G01*
X170957400Y-90375200D01*
G75*
G02*
X170832400Y-90500200I-125000J0D01*
G01*
X169182400Y-90500200D01*
G75*
G02*
X169057400Y-90375200I0J125000D01*
G01*
G37*
G04 #@! TD.AperFunction*
G04 #@! TA.AperFunction,SMDPad,CuDef*
G36*
G01*
X176057400Y-90375200D02*
X176057400Y-90125200D01*
G75*
G02*
X176182400Y-90000200I125000J0D01*
G01*
X177832400Y-90000200D01*
G75*
G02*
X177957400Y-90125200I0J-125000D01*
G01*
X177957400Y-90375200D01*
G75*
G02*
X177832400Y-90500200I-125000J0D01*
G01*
X176182400Y-90500200D01*
G75*
G02*
X176057400Y-90375200I0J125000D01*
G01*
G37*
G04 #@! TD.AperFunction*
G04 #@! TA.AperFunction,SMDPad,CuDef*
G36*
G01*
X176057400Y-89725200D02*
X176057400Y-89475200D01*
G75*
G02*
X176182400Y-89350200I125000J0D01*
G01*
X177832400Y-89350200D01*
G75*
G02*
X177957400Y-89475200I0J-125000D01*
G01*
X177957400Y-89725200D01*
G75*
G02*
X177832400Y-89850200I-125000J0D01*
G01*
X176182400Y-89850200D01*
G75*
G02*
X176057400Y-89725200I0J125000D01*
G01*
G37*
G04 #@! TD.AperFunction*
G04 #@! TA.AperFunction,SMDPad,CuDef*
G36*
G01*
X176057400Y-89075200D02*
X176057400Y-88825200D01*
G75*
G02*
X176182400Y-88700200I125000J0D01*
G01*
X177832400Y-88700200D01*
G75*
G02*
X177957400Y-88825200I0J-125000D01*
G01*
X177957400Y-89075200D01*
G75*
G02*
X177832400Y-89200200I-125000J0D01*
G01*
X176182400Y-89200200D01*
G75*
G02*
X176057400Y-89075200I0J125000D01*
G01*
G37*
G04 #@! TD.AperFunction*
G04 #@! TA.AperFunction,SMDPad,CuDef*
G36*
G01*
X176057400Y-88425200D02*
X176057400Y-88175200D01*
G75*
G02*
X176182400Y-88050200I125000J0D01*
G01*
X177832400Y-88050200D01*
G75*
G02*
X177957400Y-88175200I0J-125000D01*
G01*
X177957400Y-88425200D01*
G75*
G02*
X177832400Y-88550200I-125000J0D01*
G01*
X176182400Y-88550200D01*
G75*
G02*
X176057400Y-88425200I0J125000D01*
G01*
G37*
G04 #@! TD.AperFunction*
G04 #@! TA.AperFunction,SMDPad,CuDef*
G36*
G01*
X176057400Y-87775200D02*
X176057400Y-87525200D01*
G75*
G02*
X176182400Y-87400200I125000J0D01*
G01*
X177832400Y-87400200D01*
G75*
G02*
X177957400Y-87525200I0J-125000D01*
G01*
X177957400Y-87775200D01*
G75*
G02*
X177832400Y-87900200I-125000J0D01*
G01*
X176182400Y-87900200D01*
G75*
G02*
X176057400Y-87775200I0J125000D01*
G01*
G37*
G04 #@! TD.AperFunction*
G04 #@! TA.AperFunction,SMDPad,CuDef*
G36*
G01*
X176057400Y-87125200D02*
X176057400Y-86875200D01*
G75*
G02*
X176182400Y-86750200I125000J0D01*
G01*
X177832400Y-86750200D01*
G75*
G02*
X177957400Y-86875200I0J-125000D01*
G01*
X177957400Y-87125200D01*
G75*
G02*
X177832400Y-87250200I-125000J0D01*
G01*
X176182400Y-87250200D01*
G75*
G02*
X176057400Y-87125200I0J125000D01*
G01*
G37*
G04 #@! TD.AperFunction*
G04 #@! TA.AperFunction,SMDPad,CuDef*
G36*
G01*
X176057400Y-86475200D02*
X176057400Y-86225200D01*
G75*
G02*
X176182400Y-86100200I125000J0D01*
G01*
X177832400Y-86100200D01*
G75*
G02*
X177957400Y-86225200I0J-125000D01*
G01*
X177957400Y-86475200D01*
G75*
G02*
X177832400Y-86600200I-125000J0D01*
G01*
X176182400Y-86600200D01*
G75*
G02*
X176057400Y-86475200I0J125000D01*
G01*
G37*
G04 #@! TD.AperFunction*
G04 #@! TA.AperFunction,SMDPad,CuDef*
G36*
G01*
X176057400Y-85825200D02*
X176057400Y-85575200D01*
G75*
G02*
X176182400Y-85450200I125000J0D01*
G01*
X177832400Y-85450200D01*
G75*
G02*
X177957400Y-85575200I0J-125000D01*
G01*
X177957400Y-85825200D01*
G75*
G02*
X177832400Y-85950200I-125000J0D01*
G01*
X176182400Y-85950200D01*
G75*
G02*
X176057400Y-85825200I0J125000D01*
G01*
G37*
G04 #@! TD.AperFunction*
G04 #@! TA.AperFunction,SMDPad,CuDef*
G36*
G01*
X176057400Y-85175200D02*
X176057400Y-84925200D01*
G75*
G02*
X176182400Y-84800200I125000J0D01*
G01*
X177832400Y-84800200D01*
G75*
G02*
X177957400Y-84925200I0J-125000D01*
G01*
X177957400Y-85175200D01*
G75*
G02*
X177832400Y-85300200I-125000J0D01*
G01*
X176182400Y-85300200D01*
G75*
G02*
X176057400Y-85175200I0J125000D01*
G01*
G37*
G04 #@! TD.AperFunction*
G04 #@! TA.AperFunction,SMDPad,CuDef*
G36*
G01*
X176057400Y-84525200D02*
X176057400Y-84275200D01*
G75*
G02*
X176182400Y-84150200I125000J0D01*
G01*
X177832400Y-84150200D01*
G75*
G02*
X177957400Y-84275200I0J-125000D01*
G01*
X177957400Y-84525200D01*
G75*
G02*
X177832400Y-84650200I-125000J0D01*
G01*
X176182400Y-84650200D01*
G75*
G02*
X176057400Y-84525200I0J125000D01*
G01*
G37*
G04 #@! TD.AperFunction*
G04 #@! TA.AperFunction,SMDPad,CuDef*
G36*
G01*
X176184400Y-97123600D02*
X176184400Y-96873600D01*
G75*
G02*
X176309400Y-96748600I125000J0D01*
G01*
X177959400Y-96748600D01*
G75*
G02*
X178084400Y-96873600I0J-125000D01*
G01*
X178084400Y-97123600D01*
G75*
G02*
X177959400Y-97248600I-125000J0D01*
G01*
X176309400Y-97248600D01*
G75*
G02*
X176184400Y-97123600I0J125000D01*
G01*
G37*
G04 #@! TD.AperFunction*
G04 #@! TA.AperFunction,SMDPad,CuDef*
G36*
G01*
X176184400Y-97773600D02*
X176184400Y-97523600D01*
G75*
G02*
X176309400Y-97398600I125000J0D01*
G01*
X177959400Y-97398600D01*
G75*
G02*
X178084400Y-97523600I0J-125000D01*
G01*
X178084400Y-97773600D01*
G75*
G02*
X177959400Y-97898600I-125000J0D01*
G01*
X176309400Y-97898600D01*
G75*
G02*
X176184400Y-97773600I0J125000D01*
G01*
G37*
G04 #@! TD.AperFunction*
G04 #@! TA.AperFunction,SMDPad,CuDef*
G36*
G01*
X176184400Y-98423600D02*
X176184400Y-98173600D01*
G75*
G02*
X176309400Y-98048600I125000J0D01*
G01*
X177959400Y-98048600D01*
G75*
G02*
X178084400Y-98173600I0J-125000D01*
G01*
X178084400Y-98423600D01*
G75*
G02*
X177959400Y-98548600I-125000J0D01*
G01*
X176309400Y-98548600D01*
G75*
G02*
X176184400Y-98423600I0J125000D01*
G01*
G37*
G04 #@! TD.AperFunction*
G04 #@! TA.AperFunction,SMDPad,CuDef*
G36*
G01*
X176184400Y-99073600D02*
X176184400Y-98823600D01*
G75*
G02*
X176309400Y-98698600I125000J0D01*
G01*
X177959400Y-98698600D01*
G75*
G02*
X178084400Y-98823600I0J-125000D01*
G01*
X178084400Y-99073600D01*
G75*
G02*
X177959400Y-99198600I-125000J0D01*
G01*
X176309400Y-99198600D01*
G75*
G02*
X176184400Y-99073600I0J125000D01*
G01*
G37*
G04 #@! TD.AperFunction*
G04 #@! TA.AperFunction,SMDPad,CuDef*
G36*
G01*
X176184400Y-99723600D02*
X176184400Y-99473600D01*
G75*
G02*
X176309400Y-99348600I125000J0D01*
G01*
X177959400Y-99348600D01*
G75*
G02*
X178084400Y-99473600I0J-125000D01*
G01*
X178084400Y-99723600D01*
G75*
G02*
X177959400Y-99848600I-125000J0D01*
G01*
X176309400Y-99848600D01*
G75*
G02*
X176184400Y-99723600I0J125000D01*
G01*
G37*
G04 #@! TD.AperFunction*
G04 #@! TA.AperFunction,SMDPad,CuDef*
G36*
G01*
X176184400Y-100373600D02*
X176184400Y-100123600D01*
G75*
G02*
X176309400Y-99998600I125000J0D01*
G01*
X177959400Y-99998600D01*
G75*
G02*
X178084400Y-100123600I0J-125000D01*
G01*
X178084400Y-100373600D01*
G75*
G02*
X177959400Y-100498600I-125000J0D01*
G01*
X176309400Y-100498600D01*
G75*
G02*
X176184400Y-100373600I0J125000D01*
G01*
G37*
G04 #@! TD.AperFunction*
G04 #@! TA.AperFunction,SMDPad,CuDef*
G36*
G01*
X176184400Y-101023600D02*
X176184400Y-100773600D01*
G75*
G02*
X176309400Y-100648600I125000J0D01*
G01*
X177959400Y-100648600D01*
G75*
G02*
X178084400Y-100773600I0J-125000D01*
G01*
X178084400Y-101023600D01*
G75*
G02*
X177959400Y-101148600I-125000J0D01*
G01*
X176309400Y-101148600D01*
G75*
G02*
X176184400Y-101023600I0J125000D01*
G01*
G37*
G04 #@! TD.AperFunction*
G04 #@! TA.AperFunction,SMDPad,CuDef*
G36*
G01*
X176184400Y-101673600D02*
X176184400Y-101423600D01*
G75*
G02*
X176309400Y-101298600I125000J0D01*
G01*
X177959400Y-101298600D01*
G75*
G02*
X178084400Y-101423600I0J-125000D01*
G01*
X178084400Y-101673600D01*
G75*
G02*
X177959400Y-101798600I-125000J0D01*
G01*
X176309400Y-101798600D01*
G75*
G02*
X176184400Y-101673600I0J125000D01*
G01*
G37*
G04 #@! TD.AperFunction*
G04 #@! TA.AperFunction,SMDPad,CuDef*
G36*
G01*
X176184400Y-102323600D02*
X176184400Y-102073600D01*
G75*
G02*
X176309400Y-101948600I125000J0D01*
G01*
X177959400Y-101948600D01*
G75*
G02*
X178084400Y-102073600I0J-125000D01*
G01*
X178084400Y-102323600D01*
G75*
G02*
X177959400Y-102448600I-125000J0D01*
G01*
X176309400Y-102448600D01*
G75*
G02*
X176184400Y-102323600I0J125000D01*
G01*
G37*
G04 #@! TD.AperFunction*
G04 #@! TA.AperFunction,SMDPad,CuDef*
G36*
G01*
X176184400Y-102973600D02*
X176184400Y-102723600D01*
G75*
G02*
X176309400Y-102598600I125000J0D01*
G01*
X177959400Y-102598600D01*
G75*
G02*
X178084400Y-102723600I0J-125000D01*
G01*
X178084400Y-102973600D01*
G75*
G02*
X177959400Y-103098600I-125000J0D01*
G01*
X176309400Y-103098600D01*
G75*
G02*
X176184400Y-102973600I0J125000D01*
G01*
G37*
G04 #@! TD.AperFunction*
G04 #@! TA.AperFunction,SMDPad,CuDef*
G36*
G01*
X169184400Y-102973600D02*
X169184400Y-102723600D01*
G75*
G02*
X169309400Y-102598600I125000J0D01*
G01*
X170959400Y-102598600D01*
G75*
G02*
X171084400Y-102723600I0J-125000D01*
G01*
X171084400Y-102973600D01*
G75*
G02*
X170959400Y-103098600I-125000J0D01*
G01*
X169309400Y-103098600D01*
G75*
G02*
X169184400Y-102973600I0J125000D01*
G01*
G37*
G04 #@! TD.AperFunction*
G04 #@! TA.AperFunction,SMDPad,CuDef*
G36*
G01*
X169184400Y-102323600D02*
X169184400Y-102073600D01*
G75*
G02*
X169309400Y-101948600I125000J0D01*
G01*
X170959400Y-101948600D01*
G75*
G02*
X171084400Y-102073600I0J-125000D01*
G01*
X171084400Y-102323600D01*
G75*
G02*
X170959400Y-102448600I-125000J0D01*
G01*
X169309400Y-102448600D01*
G75*
G02*
X169184400Y-102323600I0J125000D01*
G01*
G37*
G04 #@! TD.AperFunction*
G04 #@! TA.AperFunction,SMDPad,CuDef*
G36*
G01*
X169184400Y-101673600D02*
X169184400Y-101423600D01*
G75*
G02*
X169309400Y-101298600I125000J0D01*
G01*
X170959400Y-101298600D01*
G75*
G02*
X171084400Y-101423600I0J-125000D01*
G01*
X171084400Y-101673600D01*
G75*
G02*
X170959400Y-101798600I-125000J0D01*
G01*
X169309400Y-101798600D01*
G75*
G02*
X169184400Y-101673600I0J125000D01*
G01*
G37*
G04 #@! TD.AperFunction*
G04 #@! TA.AperFunction,SMDPad,CuDef*
G36*
G01*
X169184400Y-101023600D02*
X169184400Y-100773600D01*
G75*
G02*
X169309400Y-100648600I125000J0D01*
G01*
X170959400Y-100648600D01*
G75*
G02*
X171084400Y-100773600I0J-125000D01*
G01*
X171084400Y-101023600D01*
G75*
G02*
X170959400Y-101148600I-125000J0D01*
G01*
X169309400Y-101148600D01*
G75*
G02*
X169184400Y-101023600I0J125000D01*
G01*
G37*
G04 #@! TD.AperFunction*
G04 #@! TA.AperFunction,SMDPad,CuDef*
G36*
G01*
X169184400Y-100373600D02*
X169184400Y-100123600D01*
G75*
G02*
X169309400Y-99998600I125000J0D01*
G01*
X170959400Y-99998600D01*
G75*
G02*
X171084400Y-100123600I0J-125000D01*
G01*
X171084400Y-100373600D01*
G75*
G02*
X170959400Y-100498600I-125000J0D01*
G01*
X169309400Y-100498600D01*
G75*
G02*
X169184400Y-100373600I0J125000D01*
G01*
G37*
G04 #@! TD.AperFunction*
G04 #@! TA.AperFunction,SMDPad,CuDef*
G36*
G01*
X169184400Y-99723600D02*
X169184400Y-99473600D01*
G75*
G02*
X169309400Y-99348600I125000J0D01*
G01*
X170959400Y-99348600D01*
G75*
G02*
X171084400Y-99473600I0J-125000D01*
G01*
X171084400Y-99723600D01*
G75*
G02*
X170959400Y-99848600I-125000J0D01*
G01*
X169309400Y-99848600D01*
G75*
G02*
X169184400Y-99723600I0J125000D01*
G01*
G37*
G04 #@! TD.AperFunction*
G04 #@! TA.AperFunction,SMDPad,CuDef*
G36*
G01*
X169184400Y-99073600D02*
X169184400Y-98823600D01*
G75*
G02*
X169309400Y-98698600I125000J0D01*
G01*
X170959400Y-98698600D01*
G75*
G02*
X171084400Y-98823600I0J-125000D01*
G01*
X171084400Y-99073600D01*
G75*
G02*
X170959400Y-99198600I-125000J0D01*
G01*
X169309400Y-99198600D01*
G75*
G02*
X169184400Y-99073600I0J125000D01*
G01*
G37*
G04 #@! TD.AperFunction*
G04 #@! TA.AperFunction,SMDPad,CuDef*
G36*
G01*
X169184400Y-98423600D02*
X169184400Y-98173600D01*
G75*
G02*
X169309400Y-98048600I125000J0D01*
G01*
X170959400Y-98048600D01*
G75*
G02*
X171084400Y-98173600I0J-125000D01*
G01*
X171084400Y-98423600D01*
G75*
G02*
X170959400Y-98548600I-125000J0D01*
G01*
X169309400Y-98548600D01*
G75*
G02*
X169184400Y-98423600I0J125000D01*
G01*
G37*
G04 #@! TD.AperFunction*
G04 #@! TA.AperFunction,SMDPad,CuDef*
G36*
G01*
X169184400Y-97773600D02*
X169184400Y-97523600D01*
G75*
G02*
X169309400Y-97398600I125000J0D01*
G01*
X170959400Y-97398600D01*
G75*
G02*
X171084400Y-97523600I0J-125000D01*
G01*
X171084400Y-97773600D01*
G75*
G02*
X170959400Y-97898600I-125000J0D01*
G01*
X169309400Y-97898600D01*
G75*
G02*
X169184400Y-97773600I0J125000D01*
G01*
G37*
G04 #@! TD.AperFunction*
G04 #@! TA.AperFunction,SMDPad,CuDef*
G36*
G01*
X169184400Y-97123600D02*
X169184400Y-96873600D01*
G75*
G02*
X169309400Y-96748600I125000J0D01*
G01*
X170959400Y-96748600D01*
G75*
G02*
X171084400Y-96873600I0J-125000D01*
G01*
X171084400Y-97123600D01*
G75*
G02*
X170959400Y-97248600I-125000J0D01*
G01*
X169309400Y-97248600D01*
G75*
G02*
X169184400Y-97123600I0J125000D01*
G01*
G37*
G04 #@! TD.AperFunction*
G04 #@! TA.AperFunction,SMDPad,CuDef*
G36*
G01*
X176133600Y-108756800D02*
X176133600Y-108506800D01*
G75*
G02*
X176258600Y-108381800I125000J0D01*
G01*
X177908600Y-108381800D01*
G75*
G02*
X178033600Y-108506800I0J-125000D01*
G01*
X178033600Y-108756800D01*
G75*
G02*
X177908600Y-108881800I-125000J0D01*
G01*
X176258600Y-108881800D01*
G75*
G02*
X176133600Y-108756800I0J125000D01*
G01*
G37*
G04 #@! TD.AperFunction*
G04 #@! TA.AperFunction,SMDPad,CuDef*
G36*
G01*
X176133600Y-109406800D02*
X176133600Y-109156800D01*
G75*
G02*
X176258600Y-109031800I125000J0D01*
G01*
X177908600Y-109031800D01*
G75*
G02*
X178033600Y-109156800I0J-125000D01*
G01*
X178033600Y-109406800D01*
G75*
G02*
X177908600Y-109531800I-125000J0D01*
G01*
X176258600Y-109531800D01*
G75*
G02*
X176133600Y-109406800I0J125000D01*
G01*
G37*
G04 #@! TD.AperFunction*
G04 #@! TA.AperFunction,SMDPad,CuDef*
G36*
G01*
X176133600Y-110056800D02*
X176133600Y-109806800D01*
G75*
G02*
X176258600Y-109681800I125000J0D01*
G01*
X177908600Y-109681800D01*
G75*
G02*
X178033600Y-109806800I0J-125000D01*
G01*
X178033600Y-110056800D01*
G75*
G02*
X177908600Y-110181800I-125000J0D01*
G01*
X176258600Y-110181800D01*
G75*
G02*
X176133600Y-110056800I0J125000D01*
G01*
G37*
G04 #@! TD.AperFunction*
G04 #@! TA.AperFunction,SMDPad,CuDef*
G36*
G01*
X176133600Y-110706800D02*
X176133600Y-110456800D01*
G75*
G02*
X176258600Y-110331800I125000J0D01*
G01*
X177908600Y-110331800D01*
G75*
G02*
X178033600Y-110456800I0J-125000D01*
G01*
X178033600Y-110706800D01*
G75*
G02*
X177908600Y-110831800I-125000J0D01*
G01*
X176258600Y-110831800D01*
G75*
G02*
X176133600Y-110706800I0J125000D01*
G01*
G37*
G04 #@! TD.AperFunction*
G04 #@! TA.AperFunction,SMDPad,CuDef*
G36*
G01*
X176133600Y-111356800D02*
X176133600Y-111106800D01*
G75*
G02*
X176258600Y-110981800I125000J0D01*
G01*
X177908600Y-110981800D01*
G75*
G02*
X178033600Y-111106800I0J-125000D01*
G01*
X178033600Y-111356800D01*
G75*
G02*
X177908600Y-111481800I-125000J0D01*
G01*
X176258600Y-111481800D01*
G75*
G02*
X176133600Y-111356800I0J125000D01*
G01*
G37*
G04 #@! TD.AperFunction*
G04 #@! TA.AperFunction,SMDPad,CuDef*
G36*
G01*
X176133600Y-112006800D02*
X176133600Y-111756800D01*
G75*
G02*
X176258600Y-111631800I125000J0D01*
G01*
X177908600Y-111631800D01*
G75*
G02*
X178033600Y-111756800I0J-125000D01*
G01*
X178033600Y-112006800D01*
G75*
G02*
X177908600Y-112131800I-125000J0D01*
G01*
X176258600Y-112131800D01*
G75*
G02*
X176133600Y-112006800I0J125000D01*
G01*
G37*
G04 #@! TD.AperFunction*
G04 #@! TA.AperFunction,SMDPad,CuDef*
G36*
G01*
X176133600Y-112656800D02*
X176133600Y-112406800D01*
G75*
G02*
X176258600Y-112281800I125000J0D01*
G01*
X177908600Y-112281800D01*
G75*
G02*
X178033600Y-112406800I0J-125000D01*
G01*
X178033600Y-112656800D01*
G75*
G02*
X177908600Y-112781800I-125000J0D01*
G01*
X176258600Y-112781800D01*
G75*
G02*
X176133600Y-112656800I0J125000D01*
G01*
G37*
G04 #@! TD.AperFunction*
G04 #@! TA.AperFunction,SMDPad,CuDef*
G36*
G01*
X176133600Y-113306800D02*
X176133600Y-113056800D01*
G75*
G02*
X176258600Y-112931800I125000J0D01*
G01*
X177908600Y-112931800D01*
G75*
G02*
X178033600Y-113056800I0J-125000D01*
G01*
X178033600Y-113306800D01*
G75*
G02*
X177908600Y-113431800I-125000J0D01*
G01*
X176258600Y-113431800D01*
G75*
G02*
X176133600Y-113306800I0J125000D01*
G01*
G37*
G04 #@! TD.AperFunction*
G04 #@! TA.AperFunction,SMDPad,CuDef*
G36*
G01*
X176133600Y-113956800D02*
X176133600Y-113706800D01*
G75*
G02*
X176258600Y-113581800I125000J0D01*
G01*
X177908600Y-113581800D01*
G75*
G02*
X178033600Y-113706800I0J-125000D01*
G01*
X178033600Y-113956800D01*
G75*
G02*
X177908600Y-114081800I-125000J0D01*
G01*
X176258600Y-114081800D01*
G75*
G02*
X176133600Y-113956800I0J125000D01*
G01*
G37*
G04 #@! TD.AperFunction*
G04 #@! TA.AperFunction,SMDPad,CuDef*
G36*
G01*
X176133600Y-114606800D02*
X176133600Y-114356800D01*
G75*
G02*
X176258600Y-114231800I125000J0D01*
G01*
X177908600Y-114231800D01*
G75*
G02*
X178033600Y-114356800I0J-125000D01*
G01*
X178033600Y-114606800D01*
G75*
G02*
X177908600Y-114731800I-125000J0D01*
G01*
X176258600Y-114731800D01*
G75*
G02*
X176133600Y-114606800I0J125000D01*
G01*
G37*
G04 #@! TD.AperFunction*
G04 #@! TA.AperFunction,SMDPad,CuDef*
G36*
G01*
X169133600Y-114606800D02*
X169133600Y-114356800D01*
G75*
G02*
X169258600Y-114231800I125000J0D01*
G01*
X170908600Y-114231800D01*
G75*
G02*
X171033600Y-114356800I0J-125000D01*
G01*
X171033600Y-114606800D01*
G75*
G02*
X170908600Y-114731800I-125000J0D01*
G01*
X169258600Y-114731800D01*
G75*
G02*
X169133600Y-114606800I0J125000D01*
G01*
G37*
G04 #@! TD.AperFunction*
G04 #@! TA.AperFunction,SMDPad,CuDef*
G36*
G01*
X169133600Y-113956800D02*
X169133600Y-113706800D01*
G75*
G02*
X169258600Y-113581800I125000J0D01*
G01*
X170908600Y-113581800D01*
G75*
G02*
X171033600Y-113706800I0J-125000D01*
G01*
X171033600Y-113956800D01*
G75*
G02*
X170908600Y-114081800I-125000J0D01*
G01*
X169258600Y-114081800D01*
G75*
G02*
X169133600Y-113956800I0J125000D01*
G01*
G37*
G04 #@! TD.AperFunction*
G04 #@! TA.AperFunction,SMDPad,CuDef*
G36*
G01*
X169133600Y-113306800D02*
X169133600Y-113056800D01*
G75*
G02*
X169258600Y-112931800I125000J0D01*
G01*
X170908600Y-112931800D01*
G75*
G02*
X171033600Y-113056800I0J-125000D01*
G01*
X171033600Y-113306800D01*
G75*
G02*
X170908600Y-113431800I-125000J0D01*
G01*
X169258600Y-113431800D01*
G75*
G02*
X169133600Y-113306800I0J125000D01*
G01*
G37*
G04 #@! TD.AperFunction*
G04 #@! TA.AperFunction,SMDPad,CuDef*
G36*
G01*
X169133600Y-112656800D02*
X169133600Y-112406800D01*
G75*
G02*
X169258600Y-112281800I125000J0D01*
G01*
X170908600Y-112281800D01*
G75*
G02*
X171033600Y-112406800I0J-125000D01*
G01*
X171033600Y-112656800D01*
G75*
G02*
X170908600Y-112781800I-125000J0D01*
G01*
X169258600Y-112781800D01*
G75*
G02*
X169133600Y-112656800I0J125000D01*
G01*
G37*
G04 #@! TD.AperFunction*
G04 #@! TA.AperFunction,SMDPad,CuDef*
G36*
G01*
X169133600Y-112006800D02*
X169133600Y-111756800D01*
G75*
G02*
X169258600Y-111631800I125000J0D01*
G01*
X170908600Y-111631800D01*
G75*
G02*
X171033600Y-111756800I0J-125000D01*
G01*
X171033600Y-112006800D01*
G75*
G02*
X170908600Y-112131800I-125000J0D01*
G01*
X169258600Y-112131800D01*
G75*
G02*
X169133600Y-112006800I0J125000D01*
G01*
G37*
G04 #@! TD.AperFunction*
G04 #@! TA.AperFunction,SMDPad,CuDef*
G36*
G01*
X169133600Y-111356800D02*
X169133600Y-111106800D01*
G75*
G02*
X169258600Y-110981800I125000J0D01*
G01*
X170908600Y-110981800D01*
G75*
G02*
X171033600Y-111106800I0J-125000D01*
G01*
X171033600Y-111356800D01*
G75*
G02*
X170908600Y-111481800I-125000J0D01*
G01*
X169258600Y-111481800D01*
G75*
G02*
X169133600Y-111356800I0J125000D01*
G01*
G37*
G04 #@! TD.AperFunction*
G04 #@! TA.AperFunction,SMDPad,CuDef*
G36*
G01*
X169133600Y-110706800D02*
X169133600Y-110456800D01*
G75*
G02*
X169258600Y-110331800I125000J0D01*
G01*
X170908600Y-110331800D01*
G75*
G02*
X171033600Y-110456800I0J-125000D01*
G01*
X171033600Y-110706800D01*
G75*
G02*
X170908600Y-110831800I-125000J0D01*
G01*
X169258600Y-110831800D01*
G75*
G02*
X169133600Y-110706800I0J125000D01*
G01*
G37*
G04 #@! TD.AperFunction*
G04 #@! TA.AperFunction,SMDPad,CuDef*
G36*
G01*
X169133600Y-110056800D02*
X169133600Y-109806800D01*
G75*
G02*
X169258600Y-109681800I125000J0D01*
G01*
X170908600Y-109681800D01*
G75*
G02*
X171033600Y-109806800I0J-125000D01*
G01*
X171033600Y-110056800D01*
G75*
G02*
X170908600Y-110181800I-125000J0D01*
G01*
X169258600Y-110181800D01*
G75*
G02*
X169133600Y-110056800I0J125000D01*
G01*
G37*
G04 #@! TD.AperFunction*
G04 #@! TA.AperFunction,SMDPad,CuDef*
G36*
G01*
X169133600Y-109406800D02*
X169133600Y-109156800D01*
G75*
G02*
X169258600Y-109031800I125000J0D01*
G01*
X170908600Y-109031800D01*
G75*
G02*
X171033600Y-109156800I0J-125000D01*
G01*
X171033600Y-109406800D01*
G75*
G02*
X170908600Y-109531800I-125000J0D01*
G01*
X169258600Y-109531800D01*
G75*
G02*
X169133600Y-109406800I0J125000D01*
G01*
G37*
G04 #@! TD.AperFunction*
G04 #@! TA.AperFunction,SMDPad,CuDef*
G36*
G01*
X169133600Y-108756800D02*
X169133600Y-108506800D01*
G75*
G02*
X169258600Y-108381800I125000J0D01*
G01*
X170908600Y-108381800D01*
G75*
G02*
X171033600Y-108506800I0J-125000D01*
G01*
X171033600Y-108756800D01*
G75*
G02*
X170908600Y-108881800I-125000J0D01*
G01*
X169258600Y-108881800D01*
G75*
G02*
X169133600Y-108756800I0J125000D01*
G01*
G37*
G04 #@! TD.AperFunction*
D11*
X182270400Y-83947000D03*
X167030400Y-116967000D03*
X182270400Y-86487000D03*
X167030400Y-114427000D03*
X182270400Y-89027000D03*
X167030400Y-111887000D03*
X182270400Y-91567000D03*
X167030400Y-109347000D03*
X182270400Y-94107000D03*
X167030400Y-106807000D03*
X182270400Y-96647000D03*
X167030400Y-104267000D03*
X182270400Y-99187000D03*
X167030400Y-101727000D03*
X182270400Y-101727000D03*
X167030400Y-99187000D03*
X182270400Y-104267000D03*
X167030400Y-96647000D03*
X182270400Y-106807000D03*
X167030400Y-94107000D03*
X182270400Y-109347000D03*
X167030400Y-91567000D03*
X182270400Y-111887000D03*
X167030400Y-89027000D03*
X182270400Y-114427000D03*
X167030400Y-86487000D03*
X182270400Y-116967000D03*
D12*
X167030400Y-83947000D03*
D13*
X171881800Y-84582000D03*
X170053000Y-91440000D03*
X171907200Y-97078800D03*
X170002200Y-107772200D03*
X170129200Y-115570000D03*
X175183800Y-84709000D03*
X175514000Y-97028000D03*
X169672000Y-103911400D03*
X172339000Y-106807000D03*
X171196000Y-104038400D03*
X175437800Y-106629200D03*
X173913800Y-101600000D03*
X173913800Y-99237800D03*
X174320200Y-108102400D03*
X174734220Y-90065860D03*
X174345600Y-114427000D03*
X173786800Y-88900000D03*
X173583600Y-115570000D03*
X173405800Y-86487000D03*
X172516800Y-116890800D03*
X177317400Y-83286600D03*
X177520600Y-107518200D03*
X178003200Y-95961200D03*
X174091600Y-109931200D03*
X173507400Y-111785400D03*
X174345602Y-112928400D03*
X171754800Y-87655400D03*
X172618400Y-100253800D03*
X174320200Y-103200200D03*
X172847000Y-104089200D03*
X176911000Y-91998800D03*
D14*
X171700000Y-84400200D02*
X171881800Y-84582000D01*
X170007400Y-84400200D02*
X171700000Y-84400200D01*
X170007400Y-90250200D02*
X170007400Y-91394400D01*
X170007400Y-91394400D02*
X170053000Y-91440000D01*
X171827000Y-96998600D02*
X171907200Y-97078800D01*
X170134400Y-96998600D02*
X171827000Y-96998600D01*
X170083600Y-107853600D02*
X170002200Y-107772200D01*
X170083600Y-108631800D02*
X170083600Y-107853600D01*
X170083600Y-115524400D02*
X170129200Y-115570000D01*
X170083600Y-114481800D02*
X170083600Y-115524400D01*
X175525000Y-85050200D02*
X175183800Y-84709000D01*
X177007400Y-85050200D02*
X175525000Y-85050200D01*
X176134600Y-97648600D02*
X175514000Y-97028000D01*
X177134400Y-97648600D02*
X176134600Y-97648600D01*
X170134400Y-103449000D02*
X169672000Y-103911400D01*
X170134400Y-102848600D02*
X170134400Y-103449000D01*
X181000400Y-85217000D02*
X182270400Y-86487000D01*
X179146200Y-85217000D02*
X181000400Y-85217000D01*
X178013000Y-86350200D02*
X179146200Y-85217000D01*
X177007400Y-86350200D02*
X178013000Y-86350200D01*
X168605200Y-112852200D02*
X167030400Y-114427000D01*
X168907100Y-110581800D02*
X168605200Y-110883700D01*
X168605200Y-110883700D02*
X168605200Y-112852200D01*
X170083600Y-110581800D02*
X168907100Y-110581800D01*
X180893600Y-87650200D02*
X182270400Y-89027000D01*
X177007400Y-87650200D02*
X180893600Y-87650200D01*
X168985600Y-109931800D02*
X167030400Y-111887000D01*
X170083600Y-109931800D02*
X168985600Y-109931800D01*
X181051200Y-90347800D02*
X182270400Y-91567000D01*
X179273200Y-90347800D02*
X181051200Y-90347800D01*
X177875600Y-88950200D02*
X179273200Y-90347800D01*
X177007400Y-88950200D02*
X177875600Y-88950200D01*
X167095600Y-109281800D02*
X167030400Y-109347000D01*
X170083600Y-109281800D02*
X167095600Y-109281800D01*
X181025800Y-92862400D02*
X182270400Y-94107000D01*
X179273200Y-92862400D02*
X181025800Y-92862400D01*
X177007400Y-90596600D02*
X179273200Y-92862400D01*
X177007400Y-90250200D02*
X177007400Y-90596600D01*
X177134400Y-102848600D02*
X173176000Y-106807000D01*
X172339000Y-106807000D02*
X173176000Y-106807000D01*
X180949600Y-97967800D02*
X182270400Y-96647000D01*
X179146200Y-97967800D02*
X180949600Y-97967800D01*
X178165400Y-98948600D02*
X179146200Y-97967800D01*
X177134400Y-98948600D02*
X178165400Y-98948600D01*
X176304780Y-102198600D02*
X177134400Y-102198600D01*
X173398180Y-105105200D02*
X173652180Y-104851200D01*
X172262800Y-105105200D02*
X173398180Y-105105200D01*
X171196000Y-104038400D02*
X172262800Y-105105200D01*
X173652180Y-104851200D02*
X174233840Y-104851200D01*
X174233840Y-104851200D02*
X175503840Y-103581200D01*
X175503840Y-103581200D02*
X175503840Y-102364540D01*
X175669780Y-102198600D02*
X177134400Y-102198600D01*
X175503840Y-102364540D02*
X175669780Y-102198600D01*
X177083600Y-109281800D02*
X176133600Y-109281800D01*
X175437800Y-108586000D02*
X175437800Y-106629200D01*
X176133600Y-109281800D02*
X175437800Y-108586000D01*
X173965200Y-101548600D02*
X173913800Y-101600000D01*
X177134400Y-101548600D02*
X173965200Y-101548600D01*
X181000400Y-100457000D02*
X182270400Y-101727000D01*
X178587400Y-100457000D02*
X181000400Y-100457000D01*
X178409600Y-100279200D02*
X178587400Y-100457000D01*
X177165000Y-100279200D02*
X177134400Y-100248600D01*
X178409600Y-100279200D02*
X177165000Y-100279200D01*
X175574600Y-100898600D02*
X173913800Y-99237800D01*
X177134400Y-100898600D02*
X175574600Y-100898600D01*
X167030400Y-96647000D02*
X167538400Y-96139000D01*
X176184400Y-99598600D02*
X177134400Y-99598600D01*
X172724800Y-96139000D02*
X176184400Y-99598600D01*
X167538400Y-96139000D02*
X172724800Y-96139000D01*
X171033600Y-111231800D02*
X170083600Y-111231800D01*
X172669200Y-109596200D02*
X171033600Y-111231800D01*
X172669200Y-108280200D02*
X172669200Y-109596200D01*
X175412400Y-105537000D02*
X172669200Y-108280200D01*
X181000400Y-105537000D02*
X175412400Y-105537000D01*
X182270400Y-106807000D02*
X181000400Y-105537000D01*
X167030400Y-94107000D02*
X171399200Y-94107000D01*
X175590800Y-98298600D02*
X177134400Y-98298600D01*
X171399200Y-94107000D02*
X175590800Y-98298600D01*
X174320200Y-108595200D02*
X174320200Y-108102400D01*
X170083600Y-111881800D02*
X171033600Y-111881800D01*
X171033600Y-111881800D02*
X174320200Y-108595200D01*
X175199880Y-89600200D02*
X177007400Y-89600200D01*
X174734220Y-90065860D02*
X175199880Y-89600200D01*
X170083600Y-112531800D02*
X172450400Y-112531800D01*
X172450400Y-112531800D02*
X174345600Y-114427000D01*
X174386600Y-88300200D02*
X177007400Y-88300200D01*
X173786800Y-88900000D02*
X174386600Y-88300200D01*
X170083600Y-113181800D02*
X171195400Y-113181800D01*
X171195400Y-113181800D02*
X173583600Y-115570000D01*
X173919000Y-87000200D02*
X173405800Y-86487000D01*
X177007400Y-87000200D02*
X173919000Y-87000200D01*
X172516800Y-115315000D02*
X172516800Y-116890800D01*
X171033600Y-113831800D02*
X172516800Y-115315000D01*
X170083600Y-113831800D02*
X171033600Y-113831800D01*
X174664980Y-85700200D02*
X177007400Y-85700200D01*
X172708580Y-83743800D02*
X174664980Y-85700200D01*
X167233600Y-83743800D02*
X172708580Y-83743800D01*
X167030400Y-83947000D02*
X167233600Y-83743800D01*
X177190400Y-84217200D02*
X177007400Y-84400200D01*
X177317400Y-84090200D02*
X177007400Y-84400200D01*
X177317400Y-83286600D02*
X177317400Y-84090200D01*
X177083600Y-107955200D02*
X177520600Y-107518200D01*
X177083600Y-108631800D02*
X177083600Y-107955200D01*
X178003200Y-96129800D02*
X178003200Y-95961200D01*
X177134400Y-96998600D02*
X178003200Y-96129800D01*
X174092200Y-109931800D02*
X174091600Y-109931200D01*
X177083600Y-109931800D02*
X174092200Y-109931800D01*
X177083600Y-110581800D02*
X174711000Y-110581800D01*
X174711000Y-110581800D02*
X173507400Y-111785400D01*
X177083600Y-111231800D02*
X176042202Y-111231800D01*
X176042202Y-111231800D02*
X174345602Y-112928400D01*
X177321400Y-114481800D02*
X177083600Y-114481800D01*
X179806600Y-116967000D02*
X177321400Y-114481800D01*
X177098000Y-113817400D02*
X177083600Y-113831800D01*
X179197000Y-113817400D02*
X177098000Y-113817400D01*
X179806600Y-114427000D02*
X179197000Y-113817400D01*
X178511800Y-113181800D02*
X177083600Y-113181800D01*
X179806600Y-111887000D02*
X178511800Y-113181800D01*
X178795680Y-111678720D02*
X177942600Y-112531800D01*
X178795680Y-111208820D02*
X178795680Y-111678720D01*
X177942600Y-112531800D02*
X177083600Y-112531800D01*
X179806600Y-110197900D02*
X178795680Y-111208820D01*
X179806600Y-109347000D02*
X179806600Y-110197900D01*
X178122700Y-111881800D02*
X177083600Y-111881800D01*
X178460400Y-111544100D02*
X178122700Y-111881800D01*
X178460400Y-108153200D02*
X178460400Y-111544100D01*
X179806600Y-106807000D02*
X178460400Y-108153200D01*
X171749600Y-87650200D02*
X171754800Y-87655400D01*
X170007400Y-87650200D02*
X171749600Y-87650200D01*
X176149000Y-94107000D02*
X179806600Y-94107000D01*
X170992200Y-88950200D02*
X176149000Y-94107000D01*
X170007400Y-88950200D02*
X170992200Y-88950200D01*
X166027100Y-97726500D02*
X164566600Y-99187000D01*
X168465500Y-97726500D02*
X166027100Y-97726500D01*
X168554400Y-97637600D02*
X168465500Y-97726500D01*
X170123400Y-97637600D02*
X168554400Y-97637600D01*
X170134400Y-97648600D02*
X170123400Y-97637600D01*
X165811200Y-103022400D02*
X164566600Y-104267000D01*
X167589200Y-103022400D02*
X165811200Y-103022400D01*
X168122600Y-102489000D02*
X167589200Y-103022400D01*
X168122600Y-99837240D02*
X168122600Y-102489000D01*
X169011240Y-98948600D02*
X168122600Y-99837240D01*
X170134400Y-98948600D02*
X169011240Y-98948600D01*
X165785800Y-108127800D02*
X164566600Y-109347000D01*
X167487600Y-108127800D02*
X165785800Y-108127800D01*
X168783000Y-106832400D02*
X167487600Y-108127800D01*
X168783000Y-100708460D02*
X168783000Y-106832400D01*
X169242860Y-100248600D02*
X168783000Y-100708460D01*
X170134400Y-100248600D02*
X169242860Y-100248600D01*
X171973600Y-100898600D02*
X170134400Y-100898600D01*
X172618400Y-100253800D02*
X171973600Y-100898600D01*
X172668600Y-101548600D02*
X170134400Y-101548600D01*
X174320200Y-103200200D02*
X172668600Y-101548600D01*
X170134400Y-102198600D02*
X170956400Y-102198600D01*
X170956400Y-102198600D02*
X172847000Y-104089200D01*
X165811200Y-85242400D02*
X164566600Y-86487000D01*
X168757600Y-85242400D02*
X165811200Y-85242400D01*
X168899840Y-85100160D02*
X168757600Y-85242400D01*
X169957440Y-85100160D02*
X168899840Y-85100160D01*
X170007400Y-85050200D02*
X169957440Y-85100160D01*
X170007400Y-85700200D02*
X169366600Y-85700200D01*
X165760400Y-87833200D02*
X164566600Y-89027000D01*
X167241220Y-87833200D02*
X165760400Y-87833200D01*
X168142920Y-86931500D02*
X167241220Y-87833200D01*
X168142920Y-86212680D02*
X168142920Y-86931500D01*
X168655400Y-85700200D02*
X168142920Y-86212680D01*
X170007400Y-85700200D02*
X168655400Y-85700200D01*
X168376600Y-92786200D02*
X165887400Y-92786200D01*
X168630600Y-92532200D02*
X168376600Y-92786200D01*
X168630600Y-87427000D02*
X168630600Y-92532200D01*
X165887400Y-92786200D02*
X164566600Y-94107000D01*
X169057400Y-87000200D02*
X168630600Y-87427000D01*
X170007400Y-87000200D02*
X169057400Y-87000200D01*
X170007400Y-86350200D02*
X169279160Y-86350200D01*
X168661440Y-86350200D02*
X170007400Y-86350200D01*
X168656000Y-86344760D02*
X168661440Y-86350200D01*
X168122600Y-87452200D02*
X168656000Y-86918800D01*
X167487600Y-90297000D02*
X168122600Y-89662000D01*
X168122600Y-89662000D02*
X168122600Y-87452200D01*
X165836600Y-90297000D02*
X167487600Y-90297000D01*
X168656000Y-86918800D02*
X168656000Y-86344760D01*
X164566600Y-91567000D02*
X165836600Y-90297000D01*
X165785800Y-100507800D02*
X164566600Y-101727000D01*
X165785800Y-98800920D02*
X165785800Y-100507800D01*
X166542720Y-98044000D02*
X165785800Y-98800920D01*
X167721280Y-98044000D02*
X166542720Y-98044000D01*
X167975880Y-98298600D02*
X167721280Y-98044000D01*
X170134400Y-98298600D02*
X167975880Y-98298600D01*
X165862000Y-105511600D02*
X164566600Y-106807000D01*
X168427400Y-104825800D02*
X167741600Y-105511600D01*
X168427400Y-100355600D02*
X168427400Y-104825800D01*
X167741600Y-105511600D02*
X165862000Y-105511600D01*
X169184400Y-99598600D02*
X168427400Y-100355600D01*
X170134400Y-99598600D02*
X169184400Y-99598600D01*
X179806600Y-96342200D02*
X179806600Y-96647000D01*
X178587400Y-95123000D02*
X179806600Y-96342200D01*
X175666400Y-95123000D02*
X178587400Y-95123000D01*
X172542200Y-91998800D02*
X175666400Y-95123000D01*
X172542200Y-91185000D02*
X172542200Y-91998800D01*
X170957400Y-89600200D02*
X172542200Y-91185000D01*
X170007400Y-89600200D02*
X170957400Y-89600200D01*
X175217654Y-91998800D02*
X176911000Y-91998800D01*
X171519054Y-88300200D02*
X175217654Y-91998800D01*
X170007400Y-88300200D02*
X171519054Y-88300200D01*
M02*
