%FSLAX45Y45*%
G04 Gerber Fmt 4.5, Leading zero omitted, Abs format (unit mm)*
G04 Created by KiCad (PCBNEW (5.1.5)-3) date 2020-10-03 21:18:49*
%MOMM*%
%LPD*%
G04 APERTURE LIST*
%TA.AperFunction,Profile*%
%ADD10C,0.050000*%
%TD*%
%ADD11C,0.200000*%
%ADD12C,0.300000*%
G04 APERTURE END LIST*
D10*
X0Y-5709920D02*
X0Y0D01*
X5613400Y-5709920D02*
X0Y-5709920D01*
X5613400Y0D02*
X5613400Y-5709920D01*
X0Y0D02*
X5613400Y0D01*
D11*
X581980Y-4534220D02*
X621980Y-4574220D01*
X621980Y-4534220D02*
X581980Y-4574220D01*
X772480Y-5082860D02*
X812480Y-5122860D01*
X812480Y-5082860D02*
X772480Y-5122860D01*
X775040Y-4290400D02*
X815040Y-4330400D01*
X815040Y-4290400D02*
X775040Y-4330400D01*
X787720Y-3226120D02*
X827720Y-3266120D01*
X827720Y-3226120D02*
X787720Y-3266120D01*
X1095060Y-2728280D02*
X1135060Y-2768280D01*
X1135060Y-2728280D02*
X1095060Y-2768280D01*
X1176340Y-4468180D02*
X1216340Y-4508180D01*
X1216340Y-4468180D02*
X1176340Y-4508180D01*
X1196800Y-4935540D02*
X1236800Y-4975540D01*
X1236800Y-4935540D02*
X1196800Y-4975540D01*
X1199200Y-2532700D02*
X1239200Y-2572700D01*
X1239200Y-2532700D02*
X1199200Y-2572700D01*
X1343980Y-4272600D02*
X1383980Y-4312600D01*
X1383980Y-4272600D02*
X1343980Y-4312600D01*
X1441620Y-4064320D02*
X1481620Y-4104320D01*
X1481620Y-4064320D02*
X1441620Y-4104320D01*
X1500039Y-4427540D02*
X1540039Y-4467540D01*
X1540039Y-4427540D02*
X1500039Y-4467540D01*
X1953580Y-373700D02*
X1993580Y-413700D01*
X1993580Y-373700D02*
X1953580Y-413700D01*
X2131380Y-4632020D02*
X2171380Y-4672020D01*
X2171380Y-4632020D02*
X2131380Y-4672020D01*
X2232980Y-3335340D02*
X2272980Y-3375340D01*
X2272980Y-3335340D02*
X2232980Y-3375340D01*
X2281272Y-1539592D02*
X2321272Y-1579592D01*
X2321272Y-1539592D02*
X2281272Y-1579592D01*
X2283780Y-700241D02*
X2323780Y-740241D01*
X2323780Y-700241D02*
X2283780Y-740241D01*
X2283780Y-1211900D02*
X2323780Y-1251900D01*
X2323780Y-1211900D02*
X2283780Y-1251900D01*
X2289248Y-2906468D02*
X2329248Y-2946468D01*
X2329248Y-2906468D02*
X2289248Y-2946468D01*
X2321880Y-4336100D02*
X2361880Y-4376100D01*
X2361880Y-4336100D02*
X2321880Y-4376100D01*
X2351122Y-2125062D02*
X2391122Y-2165062D01*
X2391122Y-2125062D02*
X2351122Y-2165062D01*
X2384811Y-3974765D02*
X2424811Y-4014765D01*
X2424811Y-3974765D02*
X2384811Y-4014765D01*
X2430563Y-1199501D02*
X2470563Y-1239501D01*
X2470563Y-1199501D02*
X2430563Y-1239501D01*
X2453928Y-1864648D02*
X2493928Y-1904648D01*
X2493928Y-1864648D02*
X2453928Y-1904648D01*
X2456500Y-1036640D02*
X2496500Y-1076640D01*
X2496500Y-1036640D02*
X2456500Y-1076640D01*
X2464120Y-764860D02*
X2504120Y-804860D01*
X2504120Y-764860D02*
X2464120Y-804860D01*
X2468532Y-885164D02*
X2508532Y-925164D01*
X2508532Y-885164D02*
X2468532Y-925164D01*
X2479650Y-2490000D02*
X2519650Y-2530000D01*
X2519650Y-2490000D02*
X2479650Y-2530000D01*
X2481900Y-3121980D02*
X2521900Y-3161980D01*
X2521900Y-3121980D02*
X2481900Y-3161980D01*
X2499680Y-437200D02*
X2539680Y-477200D01*
X2539680Y-437200D02*
X2499680Y-477200D01*
X2499680Y-526100D02*
X2539680Y-566100D01*
X2539680Y-526100D02*
X2499680Y-566100D01*
X2507300Y-2824800D02*
X2547300Y-2864800D01*
X2547300Y-2824800D02*
X2507300Y-2864800D01*
X2664780Y-4336100D02*
X2704780Y-4376100D01*
X2704780Y-4336100D02*
X2664780Y-4376100D01*
X2682560Y-4150680D02*
X2722560Y-4190680D01*
X2722560Y-4150680D02*
X2682560Y-4190680D01*
X2775608Y-2790436D02*
X2815608Y-2830436D01*
X2815608Y-2790436D02*
X2775608Y-2830436D01*
X2779080Y-1110300D02*
X2819080Y-1150300D01*
X2819080Y-1110300D02*
X2779080Y-1150300D01*
X2781620Y-1608140D02*
X2821620Y-1648140D01*
X2821620Y-1608140D02*
X2781620Y-1648140D01*
X2791779Y-1910000D02*
X2831779Y-1950000D01*
X2831779Y-1910000D02*
X2791779Y-1950000D01*
X2791780Y-437200D02*
X2831780Y-477200D01*
X2831780Y-437200D02*
X2791780Y-477200D01*
X2791780Y-560239D02*
X2831780Y-600239D01*
X2831780Y-560239D02*
X2791780Y-600239D01*
X2794320Y-2210120D02*
X2834320Y-2250120D01*
X2834320Y-2210120D02*
X2794320Y-2250120D01*
X2799400Y-2499680D02*
X2839400Y-2539680D01*
X2839400Y-2499680D02*
X2799400Y-2539680D01*
X2799400Y-3121980D02*
X2839400Y-3161980D01*
X2839400Y-3121980D02*
X2799400Y-3161980D01*
X2829880Y-2367600D02*
X2869880Y-2407600D01*
X2869880Y-2367600D02*
X2829880Y-2407600D01*
X2885760Y-2789240D02*
X2925760Y-2829240D01*
X2925760Y-2789240D02*
X2885760Y-2829240D01*
X2888300Y-4496120D02*
X2928300Y-4536120D01*
X2928300Y-4496120D02*
X2888300Y-4536120D01*
X2944180Y-564200D02*
X2984180Y-604200D01*
X2984180Y-564200D02*
X2944180Y-604200D01*
X2946720Y-4130360D02*
X2986720Y-4170360D01*
X2986720Y-4130360D02*
X2946720Y-4170360D01*
X2956880Y-1097600D02*
X2996880Y-1137600D01*
X2996880Y-1097600D02*
X2956880Y-1137600D01*
X2956880Y-1392240D02*
X2996880Y-1432240D01*
X2996880Y-1392240D02*
X2956880Y-1432240D01*
X2959420Y-1549720D02*
X2999420Y-1589720D01*
X2999420Y-1549720D02*
X2959420Y-1589720D01*
X2977200Y-1722440D02*
X3017200Y-1762440D01*
X3017200Y-1722440D02*
X2977200Y-1762440D01*
X2987360Y-2756220D02*
X3027360Y-2796220D01*
X3027360Y-2756220D02*
X2987360Y-2796220D01*
X2994980Y-970600D02*
X3034980Y-1010600D01*
X3034980Y-970600D02*
X2994980Y-1010600D01*
X3050860Y-4120200D02*
X3090860Y-4160200D01*
X3090860Y-4120200D02*
X3050860Y-4160200D01*
X3070116Y-3105676D02*
X3110116Y-3145676D01*
X3110116Y-3105676D02*
X3070116Y-3145676D01*
X3096580Y-1910400D02*
X3136580Y-1950400D01*
X3136580Y-1910400D02*
X3096580Y-1950400D01*
X3106740Y-1478600D02*
X3146740Y-1518600D01*
X3146740Y-1478600D02*
X3106740Y-1518600D01*
X3109280Y-1652440D02*
X3149280Y-1692440D01*
X3149280Y-1652440D02*
X3109280Y-1692440D01*
X3141583Y-3756341D02*
X3181583Y-3796341D01*
X3181583Y-3756341D02*
X3141583Y-3796341D01*
X3185480Y-4094800D02*
X3225480Y-4134800D01*
X3225480Y-4094800D02*
X3185480Y-4134800D01*
X3185480Y-4501200D02*
X3225480Y-4541200D01*
X3225480Y-4501200D02*
X3185480Y-4541200D01*
X3200720Y-3675700D02*
X3240720Y-3715700D01*
X3240720Y-3675700D02*
X3200720Y-3715700D01*
X3215960Y-965520D02*
X3255960Y-1005520D01*
X3255960Y-965520D02*
X3215960Y-1005520D01*
X3236280Y-564200D02*
X3276280Y-604200D01*
X3276280Y-564200D02*
X3236280Y-604200D01*
X3238820Y-3579180D02*
X3278820Y-3619180D01*
X3278820Y-3579180D02*
X3238820Y-3619180D01*
X3246440Y-2375220D02*
X3286440Y-2415220D01*
X3286440Y-2375220D02*
X3246440Y-2415220D01*
X3251520Y-2085660D02*
X3291520Y-2125660D01*
X3291520Y-2085660D02*
X3251520Y-2125660D01*
X3266760Y-675960D02*
X3306760Y-715960D01*
X3306760Y-675960D02*
X3266760Y-715960D01*
X3269300Y-3480120D02*
X3309300Y-3520120D01*
X3309300Y-3480120D02*
X3269300Y-3520120D01*
X3315020Y-4087180D02*
X3355020Y-4127180D01*
X3355020Y-4087180D02*
X3315020Y-4127180D01*
X3327720Y-3370900D02*
X3367720Y-3410900D01*
X3367720Y-3370900D02*
X3327720Y-3410900D01*
X3373440Y-543880D02*
X3413440Y-583880D01*
X3413440Y-543880D02*
X3373440Y-583880D01*
X3414365Y-2795578D02*
X3454365Y-2835578D01*
X3454365Y-2795578D02*
X3414365Y-2835578D01*
X3452164Y-3199299D02*
X3492164Y-3239299D01*
X3492164Y-3199299D02*
X3452164Y-3239299D01*
X3454720Y-4087180D02*
X3494720Y-4127180D01*
X3494720Y-4087180D02*
X3454720Y-4127180D01*
X3462340Y-1097600D02*
X3502340Y-1137600D01*
X3502340Y-1097600D02*
X3462340Y-1137600D01*
X3464879Y-3100110D02*
X3504879Y-3140110D01*
X3504879Y-3100110D02*
X3464879Y-3140110D01*
X3505520Y-947740D02*
X3545520Y-987740D01*
X3545520Y-947740D02*
X3505520Y-987740D01*
X3566480Y-665800D02*
X3606480Y-705800D01*
X3606480Y-665800D02*
X3566480Y-705800D01*
X3566480Y-2393000D02*
X3606480Y-2433000D01*
X3606480Y-2393000D02*
X3566480Y-2433000D01*
X3576640Y-2720660D02*
X3616640Y-2760660D01*
X3616640Y-2720660D02*
X3576640Y-2760660D01*
X3589340Y-1879920D02*
X3629340Y-1919920D01*
X3629340Y-1879920D02*
X3589340Y-1919920D01*
X3589340Y-2164400D02*
X3629340Y-2204400D01*
X3629340Y-2164400D02*
X3589340Y-2204400D01*
X3591880Y-246700D02*
X3631880Y-286700D01*
X3631880Y-246700D02*
X3591880Y-286700D01*
X3612300Y-4066860D02*
X3652300Y-4106860D01*
X3652300Y-4066860D02*
X3612300Y-4106860D01*
X3617280Y-1021400D02*
X3657280Y-1061400D01*
X3657280Y-1021400D02*
X3617280Y-1061400D01*
X3617280Y-1338900D02*
X3657280Y-1378900D01*
X3657280Y-1338900D02*
X3617280Y-1378900D01*
X3617280Y-3116900D02*
X3657280Y-3156900D01*
X3657280Y-3116900D02*
X3617280Y-3156900D01*
X3665540Y-543880D02*
X3705540Y-583880D01*
X3705540Y-543880D02*
X3665540Y-583880D01*
X3680256Y-3430456D02*
X3720256Y-3470456D01*
X3720256Y-3430456D02*
X3680256Y-3470456D01*
X3686277Y-56200D02*
X3726277Y-96200D01*
X3726277Y-56200D02*
X3686277Y-96200D01*
X3707014Y-2812965D02*
X3747014Y-2852965D01*
X3747014Y-2812965D02*
X3707014Y-2852965D01*
X3722540Y-1102680D02*
X3762540Y-1142680D01*
X3762540Y-1102680D02*
X3722540Y-1142680D01*
X3770148Y-666268D02*
X3810148Y-706268D01*
X3810148Y-666268D02*
X3770148Y-706268D01*
X3774760Y-3721420D02*
X3814760Y-3761420D01*
X3814760Y-3721420D02*
X3774760Y-3761420D01*
X3786279Y-56200D02*
X3826279Y-96200D01*
X3826279Y-56200D02*
X3786279Y-96200D01*
X3792540Y-1011240D02*
X3832540Y-1051240D01*
X3832540Y-1011240D02*
X3792540Y-1051240D01*
X3845880Y-4910140D02*
X3885880Y-4950140D01*
X3885880Y-4910140D02*
X3845880Y-4950140D01*
X3886280Y-56202D02*
X3926280Y-96202D01*
X3926280Y-56202D02*
X3886280Y-96202D01*
X3898479Y-665800D02*
X3938479Y-705800D01*
X3938479Y-665800D02*
X3898479Y-705800D01*
X3904300Y-3731580D02*
X3944300Y-3771580D01*
X3944300Y-3731580D02*
X3904300Y-3771580D01*
X3919540Y-1008700D02*
X3959540Y-1048700D01*
X3959540Y-1008700D02*
X3919540Y-1048700D01*
X3957640Y-4910140D02*
X3997640Y-4950140D01*
X3997640Y-4910140D02*
X3957640Y-4950140D01*
X3972880Y-2469200D02*
X4012880Y-2509200D01*
X4012880Y-2469200D02*
X3972880Y-2509200D01*
X3972880Y-2799400D02*
X4012880Y-2839400D01*
X4012880Y-2799400D02*
X3972880Y-2839400D01*
X3986281Y-56170D02*
X4026281Y-96170D01*
X4026281Y-56170D02*
X3986281Y-96170D01*
X4051025Y-1012989D02*
X4091025Y-1052989D01*
X4091025Y-1012989D02*
X4051025Y-1052989D01*
X4069400Y-4915220D02*
X4109400Y-4955220D01*
X4109400Y-4915220D02*
X4069400Y-4955220D01*
X4098972Y-58698D02*
X4138972Y-98698D01*
X4138972Y-58698D02*
X4098972Y-98698D01*
X4101301Y-3188020D02*
X4141301Y-3228020D01*
X4141301Y-3188020D02*
X4101301Y-3228020D01*
X4136860Y-1086020D02*
X4176860Y-1126020D01*
X4176860Y-1086020D02*
X4136860Y-1126020D01*
X4196400Y-4917760D02*
X4236400Y-4957760D01*
X4236400Y-4917760D02*
X4196400Y-4957760D01*
X4206560Y-53660D02*
X4246560Y-93660D01*
X4246560Y-53660D02*
X4206560Y-93660D01*
X4219260Y-1001080D02*
X4259260Y-1041080D01*
X4259260Y-1001080D02*
X4219260Y-1041080D01*
X4264980Y-1961200D02*
X4304980Y-2001200D01*
X4304980Y-1961200D02*
X4264980Y-2001200D01*
X4270060Y-2687640D02*
X4310060Y-2727640D01*
X4310060Y-2687640D02*
X4270060Y-2727640D01*
X4323400Y-4912680D02*
X4363400Y-4952680D01*
X4363400Y-4912680D02*
X4323400Y-4952680D01*
X4330097Y-2779126D02*
X4370097Y-2819126D01*
X4370097Y-2779126D02*
X4330097Y-2819126D01*
X4337341Y-61399D02*
X4377341Y-101399D01*
X4377341Y-61399D02*
X4337341Y-101399D01*
X4341180Y-564200D02*
X4381180Y-604200D01*
X4381180Y-564200D02*
X4341180Y-604200D01*
X4346099Y-4526751D02*
X4386099Y-4566751D01*
X4386099Y-4526751D02*
X4346099Y-4566751D01*
X4366580Y-970600D02*
X4406580Y-1010600D01*
X4406580Y-970600D02*
X4366580Y-1010600D01*
X4369500Y-3116494D02*
X4409500Y-3156494D01*
X4409500Y-3116494D02*
X4369500Y-3156494D01*
X4374878Y-3414822D02*
X4414878Y-3454822D01*
X4414878Y-3414822D02*
X4374878Y-3454822D01*
X4422210Y-2818055D02*
X4462210Y-2858055D01*
X4462210Y-2818055D02*
X4422210Y-2858055D01*
X4437157Y-55310D02*
X4477157Y-95310D01*
X4477157Y-55310D02*
X4437157Y-95310D01*
X4468582Y-4523041D02*
X4508582Y-4563041D01*
X4508582Y-4523041D02*
X4468582Y-4563041D01*
X4468968Y-3126810D02*
X4508968Y-3166810D01*
X4508968Y-3126810D02*
X4468968Y-3166810D01*
X4506280Y-246700D02*
X4546280Y-286700D01*
X4546280Y-246700D02*
X4506280Y-286700D01*
X4521520Y-3459800D02*
X4561520Y-3499800D01*
X4561520Y-3459800D02*
X4521520Y-3499800D01*
X4522048Y-2812347D02*
X4562048Y-2852347D01*
X4562048Y-2812347D02*
X4522048Y-2852347D01*
X4581674Y-1964964D02*
X4621674Y-2004964D01*
X4621674Y-1964964D02*
X4581674Y-2004964D01*
X4597720Y-1661480D02*
X4637720Y-1701480D01*
X4637720Y-1661480D02*
X4597720Y-1701480D01*
X4610420Y-1859600D02*
X4650420Y-1899600D01*
X4650420Y-1859600D02*
X4610420Y-1899600D01*
X4620580Y-2507300D02*
X4660580Y-2547300D01*
X4660580Y-2507300D02*
X4620580Y-2547300D01*
X4620580Y-2608900D02*
X4660580Y-2648900D01*
X4660580Y-2608900D02*
X4620580Y-2648900D01*
X4645980Y-564200D02*
X4685980Y-604200D01*
X4685980Y-564200D02*
X4645980Y-604200D01*
X4734880Y-706440D02*
X4774880Y-746440D01*
X4774880Y-706440D02*
X4734880Y-746440D01*
X4816160Y-3081340D02*
X4856160Y-3121340D01*
X4856160Y-3081340D02*
X4816160Y-3121340D01*
X4874580Y-3647760D02*
X4914580Y-3687760D01*
X4914580Y-3647760D02*
X4874580Y-3687760D01*
X4889820Y-4907600D02*
X4929820Y-4947600D01*
X4929820Y-4907600D02*
X4889820Y-4947600D01*
X4910140Y-2827340D02*
X4950140Y-2867340D01*
X4950140Y-2827340D02*
X4910140Y-2867340D01*
X4912143Y-2114719D02*
X4952143Y-2154719D01*
X4952143Y-2114719D02*
X4912143Y-2154719D01*
X4918879Y-2591120D02*
X4958879Y-2631120D01*
X4958879Y-2591120D02*
X4918879Y-2631120D01*
X4924771Y-1932087D02*
X4964771Y-1972087D01*
X4964771Y-1932087D02*
X4924771Y-1972087D01*
X4931896Y-1620002D02*
X4971896Y-1660002D01*
X4971896Y-1620002D02*
X4931896Y-1660002D01*
X4933000Y-5049840D02*
X4973000Y-5089840D01*
X4973000Y-5049840D02*
X4933000Y-5089840D01*
X4950780Y-1008700D02*
X4990780Y-1048700D01*
X4990780Y-1008700D02*
X4950780Y-1048700D01*
X4950780Y-1262700D02*
X4990780Y-1302700D01*
X4990780Y-1262700D02*
X4950780Y-1302700D01*
X4957913Y-1771957D02*
X4997913Y-1811957D01*
X4997913Y-1771957D02*
X4957913Y-1811957D01*
X4994536Y-2242535D02*
X5034536Y-2282535D01*
X5034536Y-2242535D02*
X4994536Y-2282535D01*
X5021900Y-706440D02*
X5061900Y-746440D01*
X5061900Y-706440D02*
X5021900Y-746440D01*
X5035720Y-1667936D02*
X5075720Y-1707936D01*
X5075720Y-1667936D02*
X5035720Y-1707936D01*
X5047300Y-1907862D02*
X5087300Y-1947862D01*
X5087300Y-1907862D02*
X5047300Y-1947862D01*
X5051218Y-1807938D02*
X5091218Y-1847938D01*
X5091218Y-1807938D02*
X5051218Y-1847938D01*
X5057459Y-1527935D02*
X5097459Y-1567935D01*
X5097459Y-1527935D02*
X5057459Y-1567935D01*
X394560Y-621160D02*
G75*
G03X394560Y-621160I-40000J0D01*
G01*
X394560Y-875160D02*
G75*
G03X394560Y-875160I-40000J0D01*
G01*
X394560Y-1129160D02*
G75*
G03X394560Y-1129160I-40000J0D01*
G01*
X394560Y-1383160D02*
G75*
G03X394560Y-1383160I-40000J0D01*
G01*
X394560Y-1637160D02*
G75*
G03X394560Y-1637160I-40000J0D01*
G01*
X394560Y-1891160D02*
G75*
G03X394560Y-1891160I-40000J0D01*
G01*
X394560Y-2145160D02*
G75*
G03X394560Y-2145160I-40000J0D01*
G01*
X394560Y-2399160D02*
G75*
G03X394560Y-2399160I-40000J0D01*
G01*
X394560Y-2653160D02*
G75*
G03X394560Y-2653160I-40000J0D01*
G01*
X394560Y-2907160D02*
G75*
G03X394560Y-2907160I-40000J0D01*
G01*
X394560Y-3161160D02*
G75*
G03X394560Y-3161160I-40000J0D01*
G01*
X394560Y-3415160D02*
G75*
G03X394560Y-3415160I-40000J0D01*
G01*
X394560Y-3669160D02*
G75*
G03X394560Y-3669160I-40000J0D01*
G01*
X394560Y-3923160D02*
G75*
G03X394560Y-3923160I-40000J0D01*
G01*
X394560Y-4177160D02*
G75*
G03X394560Y-4177160I-40000J0D01*
G01*
X394560Y-4431160D02*
G75*
G03X394560Y-4431160I-40000J0D01*
G01*
X394560Y-4685160D02*
G75*
G03X394560Y-4685160I-40000J0D01*
G01*
X394560Y-4939160D02*
G75*
G03X394560Y-4939160I-40000J0D01*
G01*
X394560Y-5193160D02*
G75*
G03X394560Y-5193160I-40000J0D01*
G01*
X394560Y-5447160D02*
G75*
G03X394560Y-5447160I-40000J0D01*
G01*
X1918560Y-621160D02*
G75*
G03X1918560Y-621160I-40000J0D01*
G01*
X1918560Y-875160D02*
G75*
G03X1918560Y-875160I-40000J0D01*
G01*
X1918560Y-1129160D02*
G75*
G03X1918560Y-1129160I-40000J0D01*
G01*
X1918560Y-1383160D02*
G75*
G03X1918560Y-1383160I-40000J0D01*
G01*
X1918560Y-1637160D02*
G75*
G03X1918560Y-1637160I-40000J0D01*
G01*
X1918560Y-1891160D02*
G75*
G03X1918560Y-1891160I-40000J0D01*
G01*
X1918560Y-2145160D02*
G75*
G03X1918560Y-2145160I-40000J0D01*
G01*
X1918560Y-2399160D02*
G75*
G03X1918560Y-2399160I-40000J0D01*
G01*
X1918560Y-2653160D02*
G75*
G03X1918560Y-2653160I-40000J0D01*
G01*
X1918560Y-2907160D02*
G75*
G03X1918560Y-2907160I-40000J0D01*
G01*
X1918560Y-3161160D02*
G75*
G03X1918560Y-3161160I-40000J0D01*
G01*
X1918560Y-3415160D02*
G75*
G03X1918560Y-3415160I-40000J0D01*
G01*
X1918560Y-3669160D02*
G75*
G03X1918560Y-3669160I-40000J0D01*
G01*
X1918560Y-3923160D02*
G75*
G03X1918560Y-3923160I-40000J0D01*
G01*
X1918560Y-4177160D02*
G75*
G03X1918560Y-4177160I-40000J0D01*
G01*
X1918560Y-4431160D02*
G75*
G03X1918560Y-4431160I-40000J0D01*
G01*
X1918560Y-4685160D02*
G75*
G03X1918560Y-4685160I-40000J0D01*
G01*
X1918560Y-4939160D02*
G75*
G03X1918560Y-4939160I-40000J0D01*
G01*
X1918560Y-5193160D02*
G75*
G03X1918560Y-5193160I-40000J0D01*
G01*
X1918560Y-5447160D02*
G75*
G03X1918560Y-5447160I-40000J0D01*
G01*
X1120140Y-719620D02*
X1120140Y-819620D01*
X1070140Y-769620D02*
X1170140Y-769620D01*
X1120140Y-973620D02*
X1120140Y-1073620D01*
X1070140Y-1023620D02*
X1170140Y-1023620D01*
X1120140Y-1227620D02*
X1120140Y-1327620D01*
X1070140Y-1277620D02*
X1170140Y-1277620D01*
X1120140Y-1481620D02*
X1120140Y-1581620D01*
X1070140Y-1531620D02*
X1170140Y-1531620D01*
X1120140Y-1735620D02*
X1120140Y-1835620D01*
X1070140Y-1785620D02*
X1170140Y-1785620D01*
X1120140Y-1989620D02*
X1120140Y-2089620D01*
X1070140Y-2039620D02*
X1170140Y-2039620D01*
D12*
X283928Y-6178134D02*
X283928Y-5878134D01*
X355357Y-5878134D01*
X398214Y-5892420D01*
X426786Y-5920991D01*
X441071Y-5949563D01*
X455357Y-6006706D01*
X455357Y-6049563D01*
X441071Y-6106706D01*
X426786Y-6135277D01*
X398214Y-6163849D01*
X355357Y-6178134D01*
X283928Y-6178134D01*
X583928Y-6178134D02*
X583928Y-5978134D01*
X583928Y-6035277D02*
X598214Y-6006706D01*
X612500Y-5992420D01*
X641071Y-5978134D01*
X669643Y-5978134D01*
X769643Y-6178134D02*
X769643Y-5978134D01*
X769643Y-5878134D02*
X755357Y-5892420D01*
X769643Y-5906706D01*
X783928Y-5892420D01*
X769643Y-5878134D01*
X769643Y-5906706D01*
X955357Y-6178134D02*
X926786Y-6163849D01*
X912500Y-6135277D01*
X912500Y-5878134D01*
X1112500Y-6178134D02*
X1083928Y-6163849D01*
X1069643Y-6135277D01*
X1069643Y-5878134D01*
X1455357Y-6178134D02*
X1455357Y-5878134D01*
X1555357Y-6092420D01*
X1655357Y-5878134D01*
X1655357Y-6178134D01*
X1926786Y-6178134D02*
X1926786Y-6020991D01*
X1912500Y-5992420D01*
X1883928Y-5978134D01*
X1826786Y-5978134D01*
X1798214Y-5992420D01*
X1926786Y-6163849D02*
X1898214Y-6178134D01*
X1826786Y-6178134D01*
X1798214Y-6163849D01*
X1783928Y-6135277D01*
X1783928Y-6106706D01*
X1798214Y-6078134D01*
X1826786Y-6063849D01*
X1898214Y-6063849D01*
X1926786Y-6049563D01*
X2069643Y-5978134D02*
X2069643Y-6278134D01*
X2069643Y-5992420D02*
X2098214Y-5978134D01*
X2155357Y-5978134D01*
X2183928Y-5992420D01*
X2198214Y-6006706D01*
X2212500Y-6035277D01*
X2212500Y-6120991D01*
X2198214Y-6149563D01*
X2183928Y-6163849D01*
X2155357Y-6178134D01*
X2098214Y-6178134D01*
X2069643Y-6163849D01*
X2341071Y-6149563D02*
X2355357Y-6163849D01*
X2341071Y-6178134D01*
X2326786Y-6163849D01*
X2341071Y-6149563D01*
X2341071Y-6178134D01*
X2341071Y-5992420D02*
X2355357Y-6006706D01*
X2341071Y-6020991D01*
X2326786Y-6006706D01*
X2341071Y-5992420D01*
X2341071Y-6020991D01*
X-42500Y-6652420D02*
X-2500Y-6692420D01*
X-2500Y-6652420D02*
X-42500Y-6692420D01*
X341071Y-6508134D02*
X369643Y-6508134D01*
X398214Y-6522420D01*
X412500Y-6536706D01*
X426786Y-6565277D01*
X441071Y-6622420D01*
X441071Y-6693849D01*
X426786Y-6750991D01*
X412500Y-6779563D01*
X398214Y-6793849D01*
X369643Y-6808134D01*
X341071Y-6808134D01*
X312500Y-6793849D01*
X298214Y-6779563D01*
X283928Y-6750991D01*
X269643Y-6693849D01*
X269643Y-6622420D01*
X283928Y-6565277D01*
X298214Y-6536706D01*
X312500Y-6522420D01*
X341071Y-6508134D01*
X569643Y-6779563D02*
X583928Y-6793849D01*
X569643Y-6808134D01*
X555357Y-6793849D01*
X569643Y-6779563D01*
X569643Y-6808134D01*
X841071Y-6608134D02*
X841071Y-6808134D01*
X769643Y-6493849D02*
X698214Y-6708134D01*
X883928Y-6708134D01*
X1055357Y-6508134D02*
X1083928Y-6508134D01*
X1112500Y-6522420D01*
X1126786Y-6536706D01*
X1141071Y-6565277D01*
X1155357Y-6622420D01*
X1155357Y-6693849D01*
X1141071Y-6750991D01*
X1126786Y-6779563D01*
X1112500Y-6793849D01*
X1083928Y-6808134D01*
X1055357Y-6808134D01*
X1026786Y-6793849D01*
X1012500Y-6779563D01*
X998214Y-6750991D01*
X983928Y-6693849D01*
X983928Y-6622420D01*
X998214Y-6565277D01*
X1012500Y-6536706D01*
X1026786Y-6522420D01*
X1055357Y-6508134D01*
X1283928Y-6808134D02*
X1283928Y-6608134D01*
X1283928Y-6636706D02*
X1298214Y-6622420D01*
X1326786Y-6608134D01*
X1369643Y-6608134D01*
X1398214Y-6622420D01*
X1412500Y-6650991D01*
X1412500Y-6808134D01*
X1412500Y-6650991D02*
X1426786Y-6622420D01*
X1455357Y-6608134D01*
X1498214Y-6608134D01*
X1526786Y-6622420D01*
X1541071Y-6650991D01*
X1541071Y-6808134D01*
X1683928Y-6808134D02*
X1683928Y-6608134D01*
X1683928Y-6636706D02*
X1698214Y-6622420D01*
X1726786Y-6608134D01*
X1769643Y-6608134D01*
X1798214Y-6622420D01*
X1812500Y-6650991D01*
X1812500Y-6808134D01*
X1812500Y-6650991D02*
X1826786Y-6622420D01*
X1855357Y-6608134D01*
X1898214Y-6608134D01*
X1926786Y-6622420D01*
X1941071Y-6650991D01*
X1941071Y-6808134D01*
X2526786Y-6493849D02*
X2269643Y-6879563D01*
X2912500Y-6508134D02*
X2941071Y-6508134D01*
X2969643Y-6522420D01*
X2983928Y-6536706D01*
X2998214Y-6565277D01*
X3012500Y-6622420D01*
X3012500Y-6693849D01*
X2998214Y-6750991D01*
X2983928Y-6779563D01*
X2969643Y-6793849D01*
X2941071Y-6808134D01*
X2912500Y-6808134D01*
X2883928Y-6793849D01*
X2869643Y-6779563D01*
X2855357Y-6750991D01*
X2841071Y-6693849D01*
X2841071Y-6622420D01*
X2855357Y-6565277D01*
X2869643Y-6536706D01*
X2883928Y-6522420D01*
X2912500Y-6508134D01*
X3141071Y-6779563D02*
X3155357Y-6793849D01*
X3141071Y-6808134D01*
X3126786Y-6793849D01*
X3141071Y-6779563D01*
X3141071Y-6808134D01*
X3341071Y-6508134D02*
X3369643Y-6508134D01*
X3398214Y-6522420D01*
X3412500Y-6536706D01*
X3426786Y-6565277D01*
X3441071Y-6622420D01*
X3441071Y-6693849D01*
X3426786Y-6750991D01*
X3412500Y-6779563D01*
X3398214Y-6793849D01*
X3369643Y-6808134D01*
X3341071Y-6808134D01*
X3312500Y-6793849D01*
X3298214Y-6779563D01*
X3283928Y-6750991D01*
X3269643Y-6693849D01*
X3269643Y-6622420D01*
X3283928Y-6565277D01*
X3298214Y-6536706D01*
X3312500Y-6522420D01*
X3341071Y-6508134D01*
X3726786Y-6808134D02*
X3555357Y-6808134D01*
X3641071Y-6808134D02*
X3641071Y-6508134D01*
X3612500Y-6550991D01*
X3583928Y-6579563D01*
X3555357Y-6593849D01*
X3983928Y-6508134D02*
X3926786Y-6508134D01*
X3898214Y-6522420D01*
X3883928Y-6536706D01*
X3855357Y-6579563D01*
X3841071Y-6636706D01*
X3841071Y-6750991D01*
X3855357Y-6779563D01*
X3869643Y-6793849D01*
X3898214Y-6808134D01*
X3955357Y-6808134D01*
X3983928Y-6793849D01*
X3998214Y-6779563D01*
X4012500Y-6750991D01*
X4012500Y-6679563D01*
X3998214Y-6650991D01*
X3983928Y-6636706D01*
X3955357Y-6622420D01*
X3898214Y-6622420D01*
X3869643Y-6636706D01*
X3855357Y-6650991D01*
X3841071Y-6679563D01*
X4126786Y-6508134D02*
X4126786Y-6565277D01*
X4241071Y-6508134D02*
X4241071Y-6565277D01*
X4683928Y-6922420D02*
X4669643Y-6908134D01*
X4641071Y-6865277D01*
X4626786Y-6836706D01*
X4612500Y-6793849D01*
X4598214Y-6722420D01*
X4598214Y-6665277D01*
X4612500Y-6593849D01*
X4626786Y-6550991D01*
X4641071Y-6522420D01*
X4669643Y-6479563D01*
X4683928Y-6465277D01*
X4955357Y-6808134D02*
X4783928Y-6808134D01*
X4869643Y-6808134D02*
X4869643Y-6508134D01*
X4841071Y-6550991D01*
X4812500Y-6579563D01*
X4783928Y-6593849D01*
X5226786Y-6508134D02*
X5083928Y-6508134D01*
X5069643Y-6650991D01*
X5083928Y-6636706D01*
X5112500Y-6622420D01*
X5183928Y-6622420D01*
X5212500Y-6636706D01*
X5226786Y-6650991D01*
X5241071Y-6679563D01*
X5241071Y-6750991D01*
X5226786Y-6779563D01*
X5212500Y-6793849D01*
X5183928Y-6808134D01*
X5112500Y-6808134D01*
X5083928Y-6793849D01*
X5069643Y-6779563D01*
X5498214Y-6508134D02*
X5441071Y-6508134D01*
X5412500Y-6522420D01*
X5398214Y-6536706D01*
X5369643Y-6579563D01*
X5355357Y-6636706D01*
X5355357Y-6750991D01*
X5369643Y-6779563D01*
X5383928Y-6793849D01*
X5412500Y-6808134D01*
X5469643Y-6808134D01*
X5498214Y-6793849D01*
X5512500Y-6779563D01*
X5526786Y-6750991D01*
X5526786Y-6679563D01*
X5512500Y-6650991D01*
X5498214Y-6636706D01*
X5469643Y-6622420D01*
X5412500Y-6622420D01*
X5383928Y-6636706D01*
X5369643Y-6650991D01*
X5355357Y-6679563D01*
X5883928Y-6808134D02*
X5883928Y-6508134D01*
X6012500Y-6808134D02*
X6012500Y-6650991D01*
X5998214Y-6622420D01*
X5969643Y-6608134D01*
X5926786Y-6608134D01*
X5898214Y-6622420D01*
X5883928Y-6636706D01*
X6198214Y-6808134D02*
X6169643Y-6793849D01*
X6155357Y-6779563D01*
X6141071Y-6750991D01*
X6141071Y-6665277D01*
X6155357Y-6636706D01*
X6169643Y-6622420D01*
X6198214Y-6608134D01*
X6241071Y-6608134D01*
X6269643Y-6622420D01*
X6283928Y-6636706D01*
X6298214Y-6665277D01*
X6298214Y-6750991D01*
X6283928Y-6779563D01*
X6269643Y-6793849D01*
X6241071Y-6808134D01*
X6198214Y-6808134D01*
X6469643Y-6808134D02*
X6441071Y-6793849D01*
X6426786Y-6765277D01*
X6426786Y-6508134D01*
X6698214Y-6793849D02*
X6669643Y-6808134D01*
X6612500Y-6808134D01*
X6583928Y-6793849D01*
X6569643Y-6765277D01*
X6569643Y-6650991D01*
X6583928Y-6622420D01*
X6612500Y-6608134D01*
X6669643Y-6608134D01*
X6698214Y-6622420D01*
X6712500Y-6650991D01*
X6712500Y-6679563D01*
X6569643Y-6708134D01*
X6826786Y-6793849D02*
X6855357Y-6808134D01*
X6912500Y-6808134D01*
X6941071Y-6793849D01*
X6955357Y-6765277D01*
X6955357Y-6750991D01*
X6941071Y-6722420D01*
X6912500Y-6708134D01*
X6869643Y-6708134D01*
X6841071Y-6693849D01*
X6826786Y-6665277D01*
X6826786Y-6650991D01*
X6841071Y-6622420D01*
X6869643Y-6608134D01*
X6912500Y-6608134D01*
X6941071Y-6622420D01*
X7055357Y-6922420D02*
X7069643Y-6908134D01*
X7098214Y-6865277D01*
X7112500Y-6836706D01*
X7126786Y-6793849D01*
X7141071Y-6722420D01*
X7141071Y-6665277D01*
X7126786Y-6593849D01*
X7112500Y-6550991D01*
X7098214Y-6522420D01*
X7069643Y-6479563D01*
X7055357Y-6465277D01*
X-2500Y-7068420D02*
G75*
G03X-2500Y-7068420I-40000J0D01*
G01*
X341071Y-6904134D02*
X369643Y-6904134D01*
X398214Y-6918420D01*
X412500Y-6932706D01*
X426786Y-6961277D01*
X441071Y-7018420D01*
X441071Y-7089849D01*
X426786Y-7146991D01*
X412500Y-7175563D01*
X398214Y-7189849D01*
X369643Y-7204134D01*
X341071Y-7204134D01*
X312500Y-7189849D01*
X298214Y-7175563D01*
X283928Y-7146991D01*
X269643Y-7089849D01*
X269643Y-7018420D01*
X283928Y-6961277D01*
X298214Y-6932706D01*
X312500Y-6918420D01*
X341071Y-6904134D01*
X569643Y-7175563D02*
X583928Y-7189849D01*
X569643Y-7204134D01*
X555357Y-7189849D01*
X569643Y-7175563D01*
X569643Y-7204134D01*
X755357Y-7032706D02*
X726786Y-7018420D01*
X712500Y-7004134D01*
X698214Y-6975563D01*
X698214Y-6961277D01*
X712500Y-6932706D01*
X726786Y-6918420D01*
X755357Y-6904134D01*
X812500Y-6904134D01*
X841071Y-6918420D01*
X855357Y-6932706D01*
X869643Y-6961277D01*
X869643Y-6975563D01*
X855357Y-7004134D01*
X841071Y-7018420D01*
X812500Y-7032706D01*
X755357Y-7032706D01*
X726786Y-7046991D01*
X712500Y-7061277D01*
X698214Y-7089849D01*
X698214Y-7146991D01*
X712500Y-7175563D01*
X726786Y-7189849D01*
X755357Y-7204134D01*
X812500Y-7204134D01*
X841071Y-7189849D01*
X855357Y-7175563D01*
X869643Y-7146991D01*
X869643Y-7089849D01*
X855357Y-7061277D01*
X841071Y-7046991D01*
X812500Y-7032706D01*
X1055357Y-6904134D02*
X1083928Y-6904134D01*
X1112500Y-6918420D01*
X1126786Y-6932706D01*
X1141071Y-6961277D01*
X1155357Y-7018420D01*
X1155357Y-7089849D01*
X1141071Y-7146991D01*
X1126786Y-7175563D01*
X1112500Y-7189849D01*
X1083928Y-7204134D01*
X1055357Y-7204134D01*
X1026786Y-7189849D01*
X1012500Y-7175563D01*
X998214Y-7146991D01*
X983928Y-7089849D01*
X983928Y-7018420D01*
X998214Y-6961277D01*
X1012500Y-6932706D01*
X1026786Y-6918420D01*
X1055357Y-6904134D01*
X1283928Y-7204134D02*
X1283928Y-7004134D01*
X1283928Y-7032706D02*
X1298214Y-7018420D01*
X1326786Y-7004134D01*
X1369643Y-7004134D01*
X1398214Y-7018420D01*
X1412500Y-7046991D01*
X1412500Y-7204134D01*
X1412500Y-7046991D02*
X1426786Y-7018420D01*
X1455357Y-7004134D01*
X1498214Y-7004134D01*
X1526786Y-7018420D01*
X1541071Y-7046991D01*
X1541071Y-7204134D01*
X1683928Y-7204134D02*
X1683928Y-7004134D01*
X1683928Y-7032706D02*
X1698214Y-7018420D01*
X1726786Y-7004134D01*
X1769643Y-7004134D01*
X1798214Y-7018420D01*
X1812500Y-7046991D01*
X1812500Y-7204134D01*
X1812500Y-7046991D02*
X1826786Y-7018420D01*
X1855357Y-7004134D01*
X1898214Y-7004134D01*
X1926786Y-7018420D01*
X1941071Y-7046991D01*
X1941071Y-7204134D01*
X2526786Y-6889849D02*
X2269643Y-7275563D01*
X2912500Y-6904134D02*
X2941071Y-6904134D01*
X2969643Y-6918420D01*
X2983928Y-6932706D01*
X2998214Y-6961277D01*
X3012500Y-7018420D01*
X3012500Y-7089849D01*
X2998214Y-7146991D01*
X2983928Y-7175563D01*
X2969643Y-7189849D01*
X2941071Y-7204134D01*
X2912500Y-7204134D01*
X2883928Y-7189849D01*
X2869643Y-7175563D01*
X2855357Y-7146991D01*
X2841071Y-7089849D01*
X2841071Y-7018420D01*
X2855357Y-6961277D01*
X2869643Y-6932706D01*
X2883928Y-6918420D01*
X2912500Y-6904134D01*
X3141071Y-7175563D02*
X3155357Y-7189849D01*
X3141071Y-7204134D01*
X3126786Y-7189849D01*
X3141071Y-7175563D01*
X3141071Y-7204134D01*
X3341071Y-6904134D02*
X3369643Y-6904134D01*
X3398214Y-6918420D01*
X3412500Y-6932706D01*
X3426786Y-6961277D01*
X3441071Y-7018420D01*
X3441071Y-7089849D01*
X3426786Y-7146991D01*
X3412500Y-7175563D01*
X3398214Y-7189849D01*
X3369643Y-7204134D01*
X3341071Y-7204134D01*
X3312500Y-7189849D01*
X3298214Y-7175563D01*
X3283928Y-7146991D01*
X3269643Y-7089849D01*
X3269643Y-7018420D01*
X3283928Y-6961277D01*
X3298214Y-6932706D01*
X3312500Y-6918420D01*
X3341071Y-6904134D01*
X3541071Y-6904134D02*
X3726786Y-6904134D01*
X3626786Y-7018420D01*
X3669643Y-7018420D01*
X3698214Y-7032706D01*
X3712500Y-7046991D01*
X3726786Y-7075563D01*
X3726786Y-7146991D01*
X3712500Y-7175563D01*
X3698214Y-7189849D01*
X3669643Y-7204134D01*
X3583928Y-7204134D01*
X3555357Y-7189849D01*
X3541071Y-7175563D01*
X4012500Y-7204134D02*
X3841071Y-7204134D01*
X3926786Y-7204134D02*
X3926786Y-6904134D01*
X3898214Y-6946991D01*
X3869643Y-6975563D01*
X3841071Y-6989849D01*
X4126786Y-6904134D02*
X4126786Y-6961277D01*
X4241071Y-6904134D02*
X4241071Y-6961277D01*
X4683928Y-7318420D02*
X4669643Y-7304134D01*
X4641071Y-7261277D01*
X4626786Y-7232706D01*
X4612500Y-7189849D01*
X4598214Y-7118420D01*
X4598214Y-7061277D01*
X4612500Y-6989849D01*
X4626786Y-6946991D01*
X4641071Y-6918420D01*
X4669643Y-6875563D01*
X4683928Y-6861277D01*
X4926786Y-7004134D02*
X4926786Y-7204134D01*
X4855357Y-6889849D02*
X4783928Y-7104134D01*
X4969643Y-7104134D01*
X5141071Y-6904134D02*
X5169643Y-6904134D01*
X5198214Y-6918420D01*
X5212500Y-6932706D01*
X5226786Y-6961277D01*
X5241071Y-7018420D01*
X5241071Y-7089849D01*
X5226786Y-7146991D01*
X5212500Y-7175563D01*
X5198214Y-7189849D01*
X5169643Y-7204134D01*
X5141071Y-7204134D01*
X5112500Y-7189849D01*
X5098214Y-7175563D01*
X5083928Y-7146991D01*
X5069643Y-7089849D01*
X5069643Y-7018420D01*
X5083928Y-6961277D01*
X5098214Y-6932706D01*
X5112500Y-6918420D01*
X5141071Y-6904134D01*
X5598214Y-7204134D02*
X5598214Y-6904134D01*
X5726786Y-7204134D02*
X5726786Y-7046991D01*
X5712500Y-7018420D01*
X5683928Y-7004134D01*
X5641071Y-7004134D01*
X5612500Y-7018420D01*
X5598214Y-7032706D01*
X5912500Y-7204134D02*
X5883928Y-7189849D01*
X5869643Y-7175563D01*
X5855357Y-7146991D01*
X5855357Y-7061277D01*
X5869643Y-7032706D01*
X5883928Y-7018420D01*
X5912500Y-7004134D01*
X5955357Y-7004134D01*
X5983928Y-7018420D01*
X5998214Y-7032706D01*
X6012500Y-7061277D01*
X6012500Y-7146991D01*
X5998214Y-7175563D01*
X5983928Y-7189849D01*
X5955357Y-7204134D01*
X5912500Y-7204134D01*
X6183928Y-7204134D02*
X6155357Y-7189849D01*
X6141071Y-7161277D01*
X6141071Y-6904134D01*
X6412500Y-7189849D02*
X6383928Y-7204134D01*
X6326786Y-7204134D01*
X6298214Y-7189849D01*
X6283928Y-7161277D01*
X6283928Y-7046991D01*
X6298214Y-7018420D01*
X6326786Y-7004134D01*
X6383928Y-7004134D01*
X6412500Y-7018420D01*
X6426786Y-7046991D01*
X6426786Y-7075563D01*
X6283928Y-7104134D01*
X6541071Y-7189849D02*
X6569643Y-7204134D01*
X6626786Y-7204134D01*
X6655357Y-7189849D01*
X6669643Y-7161277D01*
X6669643Y-7146991D01*
X6655357Y-7118420D01*
X6626786Y-7104134D01*
X6583928Y-7104134D01*
X6555357Y-7089849D01*
X6541071Y-7061277D01*
X6541071Y-7046991D01*
X6555357Y-7018420D01*
X6583928Y-7004134D01*
X6626786Y-7004134D01*
X6655357Y-7018420D01*
X6769643Y-7318420D02*
X6783928Y-7304134D01*
X6812500Y-7261277D01*
X6826786Y-7232706D01*
X6841071Y-7189849D01*
X6855357Y-7118420D01*
X6855357Y-7061277D01*
X6841071Y-6989849D01*
X6826786Y-6946991D01*
X6812500Y-6918420D01*
X6783928Y-6875563D01*
X6769643Y-6861277D01*
X-52500Y-7414420D02*
X-52500Y-7514420D01*
X-102500Y-7464420D02*
X-2500Y-7464420D01*
X441071Y-7600134D02*
X269643Y-7600134D01*
X355357Y-7600134D02*
X355357Y-7300134D01*
X326786Y-7342991D01*
X298214Y-7371563D01*
X269643Y-7385849D01*
X569643Y-7571563D02*
X583928Y-7585849D01*
X569643Y-7600134D01*
X555357Y-7585849D01*
X569643Y-7571563D01*
X569643Y-7600134D01*
X769643Y-7300134D02*
X798214Y-7300134D01*
X826786Y-7314420D01*
X841071Y-7328706D01*
X855357Y-7357277D01*
X869643Y-7414420D01*
X869643Y-7485849D01*
X855357Y-7542991D01*
X841071Y-7571563D01*
X826786Y-7585849D01*
X798214Y-7600134D01*
X769643Y-7600134D01*
X741071Y-7585849D01*
X726786Y-7571563D01*
X712500Y-7542991D01*
X698214Y-7485849D01*
X698214Y-7414420D01*
X712500Y-7357277D01*
X726786Y-7328706D01*
X741071Y-7314420D01*
X769643Y-7300134D01*
X1055357Y-7300134D02*
X1083928Y-7300134D01*
X1112500Y-7314420D01*
X1126786Y-7328706D01*
X1141071Y-7357277D01*
X1155357Y-7414420D01*
X1155357Y-7485849D01*
X1141071Y-7542991D01*
X1126786Y-7571563D01*
X1112500Y-7585849D01*
X1083928Y-7600134D01*
X1055357Y-7600134D01*
X1026786Y-7585849D01*
X1012500Y-7571563D01*
X998214Y-7542991D01*
X983928Y-7485849D01*
X983928Y-7414420D01*
X998214Y-7357277D01*
X1012500Y-7328706D01*
X1026786Y-7314420D01*
X1055357Y-7300134D01*
X1283928Y-7600134D02*
X1283928Y-7400134D01*
X1283928Y-7428706D02*
X1298214Y-7414420D01*
X1326786Y-7400134D01*
X1369643Y-7400134D01*
X1398214Y-7414420D01*
X1412500Y-7442991D01*
X1412500Y-7600134D01*
X1412500Y-7442991D02*
X1426786Y-7414420D01*
X1455357Y-7400134D01*
X1498214Y-7400134D01*
X1526786Y-7414420D01*
X1541071Y-7442991D01*
X1541071Y-7600134D01*
X1683928Y-7600134D02*
X1683928Y-7400134D01*
X1683928Y-7428706D02*
X1698214Y-7414420D01*
X1726786Y-7400134D01*
X1769643Y-7400134D01*
X1798214Y-7414420D01*
X1812500Y-7442991D01*
X1812500Y-7600134D01*
X1812500Y-7442991D02*
X1826786Y-7414420D01*
X1855357Y-7400134D01*
X1898214Y-7400134D01*
X1926786Y-7414420D01*
X1941071Y-7442991D01*
X1941071Y-7600134D01*
X2526786Y-7285849D02*
X2269643Y-7671563D01*
X2912500Y-7300134D02*
X2941071Y-7300134D01*
X2969643Y-7314420D01*
X2983928Y-7328706D01*
X2998214Y-7357277D01*
X3012500Y-7414420D01*
X3012500Y-7485849D01*
X2998214Y-7542991D01*
X2983928Y-7571563D01*
X2969643Y-7585849D01*
X2941071Y-7600134D01*
X2912500Y-7600134D01*
X2883928Y-7585849D01*
X2869643Y-7571563D01*
X2855357Y-7542991D01*
X2841071Y-7485849D01*
X2841071Y-7414420D01*
X2855357Y-7357277D01*
X2869643Y-7328706D01*
X2883928Y-7314420D01*
X2912500Y-7300134D01*
X3141071Y-7571563D02*
X3155357Y-7585849D01*
X3141071Y-7600134D01*
X3126786Y-7585849D01*
X3141071Y-7571563D01*
X3141071Y-7600134D01*
X3341071Y-7300134D02*
X3369643Y-7300134D01*
X3398214Y-7314420D01*
X3412500Y-7328706D01*
X3426786Y-7357277D01*
X3441071Y-7414420D01*
X3441071Y-7485849D01*
X3426786Y-7542991D01*
X3412500Y-7571563D01*
X3398214Y-7585849D01*
X3369643Y-7600134D01*
X3341071Y-7600134D01*
X3312500Y-7585849D01*
X3298214Y-7571563D01*
X3283928Y-7542991D01*
X3269643Y-7485849D01*
X3269643Y-7414420D01*
X3283928Y-7357277D01*
X3298214Y-7328706D01*
X3312500Y-7314420D01*
X3341071Y-7300134D01*
X3541071Y-7300134D02*
X3726786Y-7300134D01*
X3626786Y-7414420D01*
X3669643Y-7414420D01*
X3698214Y-7428706D01*
X3712500Y-7442991D01*
X3726786Y-7471563D01*
X3726786Y-7542991D01*
X3712500Y-7571563D01*
X3698214Y-7585849D01*
X3669643Y-7600134D01*
X3583928Y-7600134D01*
X3555357Y-7585849D01*
X3541071Y-7571563D01*
X3869643Y-7600134D02*
X3926786Y-7600134D01*
X3955357Y-7585849D01*
X3969643Y-7571563D01*
X3998214Y-7528706D01*
X4012500Y-7471563D01*
X4012500Y-7357277D01*
X3998214Y-7328706D01*
X3983928Y-7314420D01*
X3955357Y-7300134D01*
X3898214Y-7300134D01*
X3869643Y-7314420D01*
X3855357Y-7328706D01*
X3841071Y-7357277D01*
X3841071Y-7428706D01*
X3855357Y-7457277D01*
X3869643Y-7471563D01*
X3898214Y-7485849D01*
X3955357Y-7485849D01*
X3983928Y-7471563D01*
X3998214Y-7457277D01*
X4012500Y-7428706D01*
X4126786Y-7300134D02*
X4126786Y-7357277D01*
X4241071Y-7300134D02*
X4241071Y-7357277D01*
X4683928Y-7714420D02*
X4669643Y-7700134D01*
X4641071Y-7657277D01*
X4626786Y-7628706D01*
X4612500Y-7585849D01*
X4598214Y-7514420D01*
X4598214Y-7457277D01*
X4612500Y-7385849D01*
X4626786Y-7342991D01*
X4641071Y-7314420D01*
X4669643Y-7271563D01*
X4683928Y-7257277D01*
X4926786Y-7300134D02*
X4869643Y-7300134D01*
X4841071Y-7314420D01*
X4826786Y-7328706D01*
X4798214Y-7371563D01*
X4783928Y-7428706D01*
X4783928Y-7542991D01*
X4798214Y-7571563D01*
X4812500Y-7585849D01*
X4841071Y-7600134D01*
X4898214Y-7600134D01*
X4926786Y-7585849D01*
X4941071Y-7571563D01*
X4955357Y-7542991D01*
X4955357Y-7471563D01*
X4941071Y-7442991D01*
X4926786Y-7428706D01*
X4898214Y-7414420D01*
X4841071Y-7414420D01*
X4812500Y-7428706D01*
X4798214Y-7442991D01*
X4783928Y-7471563D01*
X5312500Y-7600134D02*
X5312500Y-7300134D01*
X5441071Y-7600134D02*
X5441071Y-7442991D01*
X5426786Y-7414420D01*
X5398214Y-7400134D01*
X5355357Y-7400134D01*
X5326786Y-7414420D01*
X5312500Y-7428706D01*
X5626786Y-7600134D02*
X5598214Y-7585849D01*
X5583928Y-7571563D01*
X5569643Y-7542991D01*
X5569643Y-7457277D01*
X5583928Y-7428706D01*
X5598214Y-7414420D01*
X5626786Y-7400134D01*
X5669643Y-7400134D01*
X5698214Y-7414420D01*
X5712500Y-7428706D01*
X5726786Y-7457277D01*
X5726786Y-7542991D01*
X5712500Y-7571563D01*
X5698214Y-7585849D01*
X5669643Y-7600134D01*
X5626786Y-7600134D01*
X5898214Y-7600134D02*
X5869643Y-7585849D01*
X5855357Y-7557277D01*
X5855357Y-7300134D01*
X6126786Y-7585849D02*
X6098214Y-7600134D01*
X6041071Y-7600134D01*
X6012500Y-7585849D01*
X5998214Y-7557277D01*
X5998214Y-7442991D01*
X6012500Y-7414420D01*
X6041071Y-7400134D01*
X6098214Y-7400134D01*
X6126786Y-7414420D01*
X6141071Y-7442991D01*
X6141071Y-7471563D01*
X5998214Y-7500134D01*
X6255357Y-7585849D02*
X6283928Y-7600134D01*
X6341071Y-7600134D01*
X6369643Y-7585849D01*
X6383928Y-7557277D01*
X6383928Y-7542991D01*
X6369643Y-7514420D01*
X6341071Y-7500134D01*
X6298214Y-7500134D01*
X6269643Y-7485849D01*
X6255357Y-7457277D01*
X6255357Y-7442991D01*
X6269643Y-7414420D01*
X6298214Y-7400134D01*
X6341071Y-7400134D01*
X6369643Y-7414420D01*
X6483928Y-7714420D02*
X6498214Y-7700134D01*
X6526786Y-7657277D01*
X6541071Y-7628706D01*
X6555357Y-7585849D01*
X6569643Y-7514420D01*
X6569643Y-7457277D01*
X6555357Y-7385849D01*
X6541071Y-7342991D01*
X6526786Y-7314420D01*
X6498214Y-7271563D01*
X6483928Y-7257277D01*
M02*
