%FSLAX45Y45*%
G04 Gerber Fmt 4.5, Leading zero omitted, Abs format (unit mm)*
G04 Created by KiCad (PCBNEW (5.1.5)-3) date 2020-10-03 21:18:49*
%MOMM*%
%LPD*%
G04 APERTURE LIST*
%TA.AperFunction,Profile*%
%ADD10C,0.050000*%
%TD*%
%ADD11C,0.200000*%
%ADD12C,0.300000*%
G04 APERTURE END LIST*
D10*
X0Y-5709920D02*
X0Y0D01*
X5613400Y-5709920D02*
X0Y-5709920D01*
X5613400Y0D02*
X5613400Y-5709920D01*
X0Y0D02*
X5613400Y0D01*
D11*
D12*
X283928Y-6178134D02*
X283928Y-5878134D01*
X355357Y-5878134D01*
X398214Y-5892420D01*
X426786Y-5920991D01*
X441071Y-5949563D01*
X455357Y-6006706D01*
X455357Y-6049563D01*
X441071Y-6106706D01*
X426786Y-6135277D01*
X398214Y-6163849D01*
X355357Y-6178134D01*
X283928Y-6178134D01*
X583928Y-6178134D02*
X583928Y-5978134D01*
X583928Y-6035277D02*
X598214Y-6006706D01*
X612500Y-5992420D01*
X641071Y-5978134D01*
X669643Y-5978134D01*
X769643Y-6178134D02*
X769643Y-5978134D01*
X769643Y-5878134D02*
X755357Y-5892420D01*
X769643Y-5906706D01*
X783928Y-5892420D01*
X769643Y-5878134D01*
X769643Y-5906706D01*
X955357Y-6178134D02*
X926786Y-6163849D01*
X912500Y-6135277D01*
X912500Y-5878134D01*
X1112500Y-6178134D02*
X1083928Y-6163849D01*
X1069643Y-6135277D01*
X1069643Y-5878134D01*
X1455357Y-6178134D02*
X1455357Y-5878134D01*
X1555357Y-6092420D01*
X1655357Y-5878134D01*
X1655357Y-6178134D01*
X1926786Y-6178134D02*
X1926786Y-6020991D01*
X1912500Y-5992420D01*
X1883928Y-5978134D01*
X1826786Y-5978134D01*
X1798214Y-5992420D01*
X1926786Y-6163849D02*
X1898214Y-6178134D01*
X1826786Y-6178134D01*
X1798214Y-6163849D01*
X1783928Y-6135277D01*
X1783928Y-6106706D01*
X1798214Y-6078134D01*
X1826786Y-6063849D01*
X1898214Y-6063849D01*
X1926786Y-6049563D01*
X2069643Y-5978134D02*
X2069643Y-6278134D01*
X2069643Y-5992420D02*
X2098214Y-5978134D01*
X2155357Y-5978134D01*
X2183928Y-5992420D01*
X2198214Y-6006706D01*
X2212500Y-6035277D01*
X2212500Y-6120991D01*
X2198214Y-6149563D01*
X2183928Y-6163849D01*
X2155357Y-6178134D01*
X2098214Y-6178134D01*
X2069643Y-6163849D01*
X2341071Y-6149563D02*
X2355357Y-6163849D01*
X2341071Y-6178134D01*
X2326786Y-6163849D01*
X2341071Y-6149563D01*
X2341071Y-6178134D01*
X2341071Y-5992420D02*
X2355357Y-6006706D01*
X2341071Y-6020991D01*
X2326786Y-6006706D01*
X2341071Y-5992420D01*
X2341071Y-6020991D01*
M02*
