G04 #@! TF.GenerationSoftware,KiCad,Pcbnew,(5.1.5)-3*
G04 #@! TF.CreationDate,2020-10-03T21:18:42-07:00*
G04 #@! TF.ProjectId,MCL86jr,4d434c38-366a-4722-9e6b-696361645f70,rev?*
G04 #@! TF.SameCoordinates,PX6b9fce8PY20f1980*
G04 #@! TF.FileFunction,Soldermask,Bot*
G04 #@! TF.FilePolarity,Negative*
%FSLAX46Y46*%
G04 Gerber Fmt 4.6, Leading zero omitted, Abs format (unit mm)*
G04 Created by KiCad (PCBNEW (5.1.5)-3) date 2020-10-03 21:18:42*
%MOMM*%
%LPD*%
G04 APERTURE LIST*
%ADD10C,0.100000*%
G04 APERTURE END LIST*
D10*
G36*
X19033828Y-53653303D02*
G01*
X19188700Y-53717453D01*
X19328081Y-53810585D01*
X19446615Y-53929119D01*
X19539747Y-54068500D01*
X19603897Y-54223372D01*
X19636600Y-54387784D01*
X19636600Y-54555416D01*
X19603897Y-54719828D01*
X19539747Y-54874700D01*
X19446615Y-55014081D01*
X19328081Y-55132615D01*
X19188700Y-55225747D01*
X19033828Y-55289897D01*
X18869416Y-55322600D01*
X18701784Y-55322600D01*
X18537372Y-55289897D01*
X18382500Y-55225747D01*
X18243119Y-55132615D01*
X18124585Y-55014081D01*
X18031453Y-54874700D01*
X17967303Y-54719828D01*
X17934600Y-54555416D01*
X17934600Y-54387784D01*
X17967303Y-54223372D01*
X18031453Y-54068500D01*
X18124585Y-53929119D01*
X18243119Y-53810585D01*
X18382500Y-53717453D01*
X18537372Y-53653303D01*
X18701784Y-53620600D01*
X18869416Y-53620600D01*
X19033828Y-53653303D01*
G37*
G36*
X3793828Y-53653303D02*
G01*
X3948700Y-53717453D01*
X4088081Y-53810585D01*
X4206615Y-53929119D01*
X4299747Y-54068500D01*
X4363897Y-54223372D01*
X4396600Y-54387784D01*
X4396600Y-54555416D01*
X4363897Y-54719828D01*
X4299747Y-54874700D01*
X4206615Y-55014081D01*
X4088081Y-55132615D01*
X3948700Y-55225747D01*
X3793828Y-55289897D01*
X3629416Y-55322600D01*
X3461784Y-55322600D01*
X3297372Y-55289897D01*
X3142500Y-55225747D01*
X3003119Y-55132615D01*
X2884585Y-55014081D01*
X2791453Y-54874700D01*
X2727303Y-54719828D01*
X2694600Y-54555416D01*
X2694600Y-54387784D01*
X2727303Y-54223372D01*
X2791453Y-54068500D01*
X2884585Y-53929119D01*
X3003119Y-53810585D01*
X3142500Y-53717453D01*
X3297372Y-53653303D01*
X3461784Y-53620600D01*
X3629416Y-53620600D01*
X3793828Y-53653303D01*
G37*
G36*
X3793828Y-51113303D02*
G01*
X3948700Y-51177453D01*
X4088081Y-51270585D01*
X4206615Y-51389119D01*
X4299747Y-51528500D01*
X4363897Y-51683372D01*
X4396600Y-51847784D01*
X4396600Y-52015416D01*
X4363897Y-52179828D01*
X4299747Y-52334700D01*
X4206615Y-52474081D01*
X4088081Y-52592615D01*
X3948700Y-52685747D01*
X3793828Y-52749897D01*
X3629416Y-52782600D01*
X3461784Y-52782600D01*
X3297372Y-52749897D01*
X3142500Y-52685747D01*
X3003119Y-52592615D01*
X2884585Y-52474081D01*
X2791453Y-52334700D01*
X2727303Y-52179828D01*
X2694600Y-52015416D01*
X2694600Y-51847784D01*
X2727303Y-51683372D01*
X2791453Y-51528500D01*
X2884585Y-51389119D01*
X3003119Y-51270585D01*
X3142500Y-51177453D01*
X3297372Y-51113303D01*
X3461784Y-51080600D01*
X3629416Y-51080600D01*
X3793828Y-51113303D01*
G37*
G36*
X19033828Y-51113303D02*
G01*
X19188700Y-51177453D01*
X19328081Y-51270585D01*
X19446615Y-51389119D01*
X19539747Y-51528500D01*
X19603897Y-51683372D01*
X19636600Y-51847784D01*
X19636600Y-52015416D01*
X19603897Y-52179828D01*
X19539747Y-52334700D01*
X19446615Y-52474081D01*
X19328081Y-52592615D01*
X19188700Y-52685747D01*
X19033828Y-52749897D01*
X18869416Y-52782600D01*
X18701784Y-52782600D01*
X18537372Y-52749897D01*
X18382500Y-52685747D01*
X18243119Y-52592615D01*
X18124585Y-52474081D01*
X18031453Y-52334700D01*
X17967303Y-52179828D01*
X17934600Y-52015416D01*
X17934600Y-51847784D01*
X17967303Y-51683372D01*
X18031453Y-51528500D01*
X18124585Y-51389119D01*
X18243119Y-51270585D01*
X18382500Y-51177453D01*
X18537372Y-51113303D01*
X18701784Y-51080600D01*
X18869416Y-51080600D01*
X19033828Y-51113303D01*
G37*
G36*
X19033828Y-48573303D02*
G01*
X19188700Y-48637453D01*
X19328081Y-48730585D01*
X19446615Y-48849119D01*
X19539747Y-48988500D01*
X19603897Y-49143372D01*
X19636600Y-49307784D01*
X19636600Y-49475416D01*
X19603897Y-49639828D01*
X19539747Y-49794700D01*
X19446615Y-49934081D01*
X19328081Y-50052615D01*
X19188700Y-50145747D01*
X19033828Y-50209897D01*
X18869416Y-50242600D01*
X18701784Y-50242600D01*
X18537372Y-50209897D01*
X18382500Y-50145747D01*
X18243119Y-50052615D01*
X18124585Y-49934081D01*
X18031453Y-49794700D01*
X17967303Y-49639828D01*
X17934600Y-49475416D01*
X17934600Y-49307784D01*
X17967303Y-49143372D01*
X18031453Y-48988500D01*
X18124585Y-48849119D01*
X18243119Y-48730585D01*
X18382500Y-48637453D01*
X18537372Y-48573303D01*
X18701784Y-48540600D01*
X18869416Y-48540600D01*
X19033828Y-48573303D01*
G37*
G36*
X3793828Y-48573303D02*
G01*
X3948700Y-48637453D01*
X4088081Y-48730585D01*
X4206615Y-48849119D01*
X4299747Y-48988500D01*
X4363897Y-49143372D01*
X4396600Y-49307784D01*
X4396600Y-49475416D01*
X4363897Y-49639828D01*
X4299747Y-49794700D01*
X4206615Y-49934081D01*
X4088081Y-50052615D01*
X3948700Y-50145747D01*
X3793828Y-50209897D01*
X3629416Y-50242600D01*
X3461784Y-50242600D01*
X3297372Y-50209897D01*
X3142500Y-50145747D01*
X3003119Y-50052615D01*
X2884585Y-49934081D01*
X2791453Y-49794700D01*
X2727303Y-49639828D01*
X2694600Y-49475416D01*
X2694600Y-49307784D01*
X2727303Y-49143372D01*
X2791453Y-48988500D01*
X2884585Y-48849119D01*
X3003119Y-48730585D01*
X3142500Y-48637453D01*
X3297372Y-48573303D01*
X3461784Y-48540600D01*
X3629416Y-48540600D01*
X3793828Y-48573303D01*
G37*
G36*
X50345338Y-49468516D02*
G01*
X50365957Y-49474771D01*
X50384953Y-49484924D01*
X50401608Y-49498592D01*
X50415276Y-49515247D01*
X50425429Y-49534243D01*
X50431684Y-49554862D01*
X50434400Y-49582440D01*
X50434400Y-50041160D01*
X50431684Y-50068738D01*
X50425429Y-50089357D01*
X50415276Y-50108353D01*
X50401608Y-50125008D01*
X50384953Y-50138676D01*
X50365957Y-50148829D01*
X50345338Y-50155084D01*
X50317760Y-50157800D01*
X49809040Y-50157800D01*
X49781462Y-50155084D01*
X49760843Y-50148829D01*
X49741847Y-50138676D01*
X49725192Y-50125008D01*
X49711524Y-50108353D01*
X49701371Y-50089357D01*
X49695116Y-50068738D01*
X49692400Y-50041160D01*
X49692400Y-49582440D01*
X49695116Y-49554862D01*
X49701371Y-49534243D01*
X49711524Y-49515247D01*
X49725192Y-49498592D01*
X49741847Y-49484924D01*
X49760843Y-49474771D01*
X49781462Y-49468516D01*
X49809040Y-49465800D01*
X50317760Y-49465800D01*
X50345338Y-49468516D01*
G37*
G36*
X50345338Y-48498516D02*
G01*
X50365957Y-48504771D01*
X50384953Y-48514924D01*
X50401608Y-48528592D01*
X50415276Y-48545247D01*
X50425429Y-48564243D01*
X50431684Y-48584862D01*
X50434400Y-48612440D01*
X50434400Y-49071160D01*
X50431684Y-49098738D01*
X50425429Y-49119357D01*
X50415276Y-49138353D01*
X50401608Y-49155008D01*
X50384953Y-49168676D01*
X50365957Y-49178829D01*
X50345338Y-49185084D01*
X50317760Y-49187800D01*
X49809040Y-49187800D01*
X49781462Y-49185084D01*
X49760843Y-49178829D01*
X49741847Y-49168676D01*
X49725192Y-49155008D01*
X49711524Y-49138353D01*
X49701371Y-49119357D01*
X49695116Y-49098738D01*
X49692400Y-49071160D01*
X49692400Y-48612440D01*
X49695116Y-48584862D01*
X49701371Y-48564243D01*
X49711524Y-48545247D01*
X49725192Y-48528592D01*
X49741847Y-48514924D01*
X49760843Y-48504771D01*
X49781462Y-48498516D01*
X49809040Y-48495800D01*
X50317760Y-48495800D01*
X50345338Y-48498516D01*
G37*
G36*
X19033828Y-46033303D02*
G01*
X19188700Y-46097453D01*
X19328081Y-46190585D01*
X19446615Y-46309119D01*
X19539747Y-46448500D01*
X19603897Y-46603372D01*
X19636600Y-46767784D01*
X19636600Y-46935416D01*
X19603897Y-47099828D01*
X19539747Y-47254700D01*
X19446615Y-47394081D01*
X19328081Y-47512615D01*
X19188700Y-47605747D01*
X19033828Y-47669897D01*
X18869416Y-47702600D01*
X18701784Y-47702600D01*
X18537372Y-47669897D01*
X18382500Y-47605747D01*
X18243119Y-47512615D01*
X18124585Y-47394081D01*
X18031453Y-47254700D01*
X17967303Y-47099828D01*
X17934600Y-46935416D01*
X17934600Y-46767784D01*
X17967303Y-46603372D01*
X18031453Y-46448500D01*
X18124585Y-46309119D01*
X18243119Y-46190585D01*
X18382500Y-46097453D01*
X18537372Y-46033303D01*
X18701784Y-46000600D01*
X18869416Y-46000600D01*
X19033828Y-46033303D01*
G37*
G36*
X3793828Y-46033303D02*
G01*
X3948700Y-46097453D01*
X4088081Y-46190585D01*
X4206615Y-46309119D01*
X4299747Y-46448500D01*
X4363897Y-46603372D01*
X4396600Y-46767784D01*
X4396600Y-46935416D01*
X4363897Y-47099828D01*
X4299747Y-47254700D01*
X4206615Y-47394081D01*
X4088081Y-47512615D01*
X3948700Y-47605747D01*
X3793828Y-47669897D01*
X3629416Y-47702600D01*
X3461784Y-47702600D01*
X3297372Y-47669897D01*
X3142500Y-47605747D01*
X3003119Y-47512615D01*
X2884585Y-47394081D01*
X2791453Y-47254700D01*
X2727303Y-47099828D01*
X2694600Y-46935416D01*
X2694600Y-46767784D01*
X2727303Y-46603372D01*
X2791453Y-46448500D01*
X2884585Y-46309119D01*
X3003119Y-46190585D01*
X3142500Y-46097453D01*
X3297372Y-46033303D01*
X3461784Y-46000600D01*
X3629416Y-46000600D01*
X3793828Y-46033303D01*
G37*
G36*
X22352538Y-45250116D02*
G01*
X22373157Y-45256371D01*
X22392153Y-45266524D01*
X22408808Y-45280192D01*
X22422476Y-45296847D01*
X22432629Y-45315843D01*
X22438884Y-45336462D01*
X22441600Y-45364040D01*
X22441600Y-45872760D01*
X22438884Y-45900338D01*
X22432629Y-45920957D01*
X22422476Y-45939953D01*
X22408808Y-45956608D01*
X22392153Y-45970276D01*
X22373157Y-45980429D01*
X22352538Y-45986684D01*
X22324960Y-45989400D01*
X21866240Y-45989400D01*
X21838662Y-45986684D01*
X21818043Y-45980429D01*
X21799047Y-45970276D01*
X21782392Y-45956608D01*
X21768724Y-45939953D01*
X21758571Y-45920957D01*
X21752316Y-45900338D01*
X21749600Y-45872760D01*
X21749600Y-45364040D01*
X21752316Y-45336462D01*
X21758571Y-45315843D01*
X21768724Y-45296847D01*
X21782392Y-45280192D01*
X21799047Y-45266524D01*
X21818043Y-45256371D01*
X21838662Y-45250116D01*
X21866240Y-45247400D01*
X22324960Y-45247400D01*
X22352538Y-45250116D01*
G37*
G36*
X23322538Y-45250116D02*
G01*
X23343157Y-45256371D01*
X23362153Y-45266524D01*
X23378808Y-45280192D01*
X23392476Y-45296847D01*
X23402629Y-45315843D01*
X23408884Y-45336462D01*
X23411600Y-45364040D01*
X23411600Y-45872760D01*
X23408884Y-45900338D01*
X23402629Y-45920957D01*
X23392476Y-45939953D01*
X23378808Y-45956608D01*
X23362153Y-45970276D01*
X23343157Y-45980429D01*
X23322538Y-45986684D01*
X23294960Y-45989400D01*
X22836240Y-45989400D01*
X22808662Y-45986684D01*
X22788043Y-45980429D01*
X22769047Y-45970276D01*
X22752392Y-45956608D01*
X22738724Y-45939953D01*
X22728571Y-45920957D01*
X22722316Y-45900338D01*
X22719600Y-45872760D01*
X22719600Y-45364040D01*
X22722316Y-45336462D01*
X22728571Y-45315843D01*
X22738724Y-45296847D01*
X22752392Y-45280192D01*
X22769047Y-45266524D01*
X22788043Y-45256371D01*
X22808662Y-45250116D01*
X22836240Y-45247400D01*
X23294960Y-45247400D01*
X23322538Y-45250116D01*
G37*
G36*
X30353538Y-44818316D02*
G01*
X30374157Y-44824571D01*
X30393153Y-44834724D01*
X30409808Y-44848392D01*
X30423476Y-44865047D01*
X30433629Y-44884043D01*
X30439884Y-44904662D01*
X30442600Y-44932240D01*
X30442600Y-45440960D01*
X30439884Y-45468538D01*
X30433629Y-45489157D01*
X30423476Y-45508153D01*
X30409808Y-45524808D01*
X30393153Y-45538476D01*
X30374157Y-45548629D01*
X30353538Y-45554884D01*
X30325960Y-45557600D01*
X29867240Y-45557600D01*
X29839662Y-45554884D01*
X29819043Y-45548629D01*
X29800047Y-45538476D01*
X29783392Y-45524808D01*
X29769724Y-45508153D01*
X29759571Y-45489157D01*
X29753316Y-45468538D01*
X29750600Y-45440960D01*
X29750600Y-44932240D01*
X29753316Y-44904662D01*
X29759571Y-44884043D01*
X29769724Y-44865047D01*
X29783392Y-44848392D01*
X29800047Y-44834724D01*
X29819043Y-44824571D01*
X29839662Y-44818316D01*
X29867240Y-44815600D01*
X30325960Y-44815600D01*
X30353538Y-44818316D01*
G37*
G36*
X31323538Y-44818316D02*
G01*
X31344157Y-44824571D01*
X31363153Y-44834724D01*
X31379808Y-44848392D01*
X31393476Y-44865047D01*
X31403629Y-44884043D01*
X31409884Y-44904662D01*
X31412600Y-44932240D01*
X31412600Y-45440960D01*
X31409884Y-45468538D01*
X31403629Y-45489157D01*
X31393476Y-45508153D01*
X31379808Y-45524808D01*
X31363153Y-45538476D01*
X31344157Y-45548629D01*
X31323538Y-45554884D01*
X31295960Y-45557600D01*
X30837240Y-45557600D01*
X30809662Y-45554884D01*
X30789043Y-45548629D01*
X30770047Y-45538476D01*
X30753392Y-45524808D01*
X30739724Y-45508153D01*
X30729571Y-45489157D01*
X30723316Y-45468538D01*
X30720600Y-45440960D01*
X30720600Y-44932240D01*
X30723316Y-44904662D01*
X30729571Y-44884043D01*
X30739724Y-44865047D01*
X30753392Y-44848392D01*
X30770047Y-44834724D01*
X30789043Y-44824571D01*
X30809662Y-44818316D01*
X30837240Y-44815600D01*
X31295960Y-44815600D01*
X31323538Y-44818316D01*
G37*
G36*
X42014138Y-44693316D02*
G01*
X42034757Y-44699571D01*
X42053753Y-44709724D01*
X42070408Y-44723392D01*
X42084076Y-44740047D01*
X42094229Y-44759043D01*
X42100484Y-44779662D01*
X42103200Y-44807240D01*
X42103200Y-45265960D01*
X42100484Y-45293538D01*
X42094229Y-45314157D01*
X42084076Y-45333153D01*
X42070408Y-45349808D01*
X42053753Y-45363476D01*
X42034757Y-45373629D01*
X42014138Y-45379884D01*
X41986560Y-45382600D01*
X41477840Y-45382600D01*
X41450262Y-45379884D01*
X41429643Y-45373629D01*
X41410647Y-45363476D01*
X41393992Y-45349808D01*
X41380324Y-45333153D01*
X41370171Y-45314157D01*
X41363916Y-45293538D01*
X41361200Y-45265960D01*
X41361200Y-44807240D01*
X41363916Y-44779662D01*
X41370171Y-44759043D01*
X41380324Y-44740047D01*
X41393992Y-44723392D01*
X41410647Y-44709724D01*
X41429643Y-44699571D01*
X41450262Y-44693316D01*
X41477840Y-44690600D01*
X41986560Y-44690600D01*
X42014138Y-44693316D01*
G37*
G36*
X3793828Y-43493303D02*
G01*
X3948700Y-43557453D01*
X4088081Y-43650585D01*
X4206615Y-43769119D01*
X4299747Y-43908500D01*
X4363897Y-44063372D01*
X4396600Y-44227784D01*
X4396600Y-44395416D01*
X4363897Y-44559828D01*
X4299747Y-44714700D01*
X4206615Y-44854081D01*
X4088081Y-44972615D01*
X3948700Y-45065747D01*
X3793828Y-45129897D01*
X3629416Y-45162600D01*
X3461784Y-45162600D01*
X3297372Y-45129897D01*
X3142500Y-45065747D01*
X3003119Y-44972615D01*
X2884585Y-44854081D01*
X2791453Y-44714700D01*
X2727303Y-44559828D01*
X2694600Y-44395416D01*
X2694600Y-44227784D01*
X2727303Y-44063372D01*
X2791453Y-43908500D01*
X2884585Y-43769119D01*
X3003119Y-43650585D01*
X3142500Y-43557453D01*
X3297372Y-43493303D01*
X3461784Y-43460600D01*
X3629416Y-43460600D01*
X3793828Y-43493303D01*
G37*
G36*
X19033828Y-43493303D02*
G01*
X19188700Y-43557453D01*
X19328081Y-43650585D01*
X19446615Y-43769119D01*
X19539747Y-43908500D01*
X19603897Y-44063372D01*
X19636600Y-44227784D01*
X19636600Y-44395416D01*
X19603897Y-44559828D01*
X19539747Y-44714700D01*
X19446615Y-44854081D01*
X19328081Y-44972615D01*
X19188700Y-45065747D01*
X19033828Y-45129897D01*
X18869416Y-45162600D01*
X18701784Y-45162600D01*
X18537372Y-45129897D01*
X18382500Y-45065747D01*
X18243119Y-44972615D01*
X18124585Y-44854081D01*
X18031453Y-44714700D01*
X17967303Y-44559828D01*
X17934600Y-44395416D01*
X17934600Y-44227784D01*
X17967303Y-44063372D01*
X18031453Y-43908500D01*
X18124585Y-43769119D01*
X18243119Y-43650585D01*
X18382500Y-43557453D01*
X18537372Y-43493303D01*
X18701784Y-43460600D01*
X18869416Y-43460600D01*
X19033828Y-43493303D01*
G37*
G36*
X43871728Y-43036164D02*
G01*
X43892809Y-43042560D01*
X43912245Y-43052948D01*
X43929276Y-43066924D01*
X43943252Y-43083955D01*
X43953640Y-43103391D01*
X43960036Y-43124472D01*
X43962800Y-43152540D01*
X43962800Y-44616260D01*
X43960036Y-44644328D01*
X43953640Y-44665409D01*
X43943252Y-44684845D01*
X43929276Y-44701876D01*
X43912245Y-44715852D01*
X43892809Y-44726240D01*
X43871728Y-44732636D01*
X43843660Y-44735400D01*
X43379940Y-44735400D01*
X43351872Y-44732636D01*
X43330791Y-44726240D01*
X43311355Y-44715852D01*
X43294324Y-44701876D01*
X43280348Y-44684845D01*
X43269960Y-44665409D01*
X43263564Y-44644328D01*
X43260800Y-44616260D01*
X43260800Y-43152540D01*
X43263564Y-43124472D01*
X43269960Y-43103391D01*
X43280348Y-43083955D01*
X43294324Y-43066924D01*
X43311355Y-43052948D01*
X43330791Y-43042560D01*
X43351872Y-43036164D01*
X43379940Y-43033400D01*
X43843660Y-43033400D01*
X43871728Y-43036164D01*
G37*
G36*
X45141728Y-43036164D02*
G01*
X45162809Y-43042560D01*
X45182245Y-43052948D01*
X45199276Y-43066924D01*
X45213252Y-43083955D01*
X45223640Y-43103391D01*
X45230036Y-43124472D01*
X45232800Y-43152540D01*
X45232800Y-44616260D01*
X45230036Y-44644328D01*
X45223640Y-44665409D01*
X45213252Y-44684845D01*
X45199276Y-44701876D01*
X45182245Y-44715852D01*
X45162809Y-44726240D01*
X45141728Y-44732636D01*
X45113660Y-44735400D01*
X44649940Y-44735400D01*
X44621872Y-44732636D01*
X44600791Y-44726240D01*
X44581355Y-44715852D01*
X44564324Y-44701876D01*
X44550348Y-44684845D01*
X44539960Y-44665409D01*
X44533564Y-44644328D01*
X44530800Y-44616260D01*
X44530800Y-43152540D01*
X44533564Y-43124472D01*
X44539960Y-43103391D01*
X44550348Y-43083955D01*
X44564324Y-43066924D01*
X44581355Y-43052948D01*
X44600791Y-43042560D01*
X44621872Y-43036164D01*
X44649940Y-43033400D01*
X45113660Y-43033400D01*
X45141728Y-43036164D01*
G37*
G36*
X46411728Y-43036164D02*
G01*
X46432809Y-43042560D01*
X46452245Y-43052948D01*
X46469276Y-43066924D01*
X46483252Y-43083955D01*
X46493640Y-43103391D01*
X46500036Y-43124472D01*
X46502800Y-43152540D01*
X46502800Y-44616260D01*
X46500036Y-44644328D01*
X46493640Y-44665409D01*
X46483252Y-44684845D01*
X46469276Y-44701876D01*
X46452245Y-44715852D01*
X46432809Y-44726240D01*
X46411728Y-44732636D01*
X46383660Y-44735400D01*
X45919940Y-44735400D01*
X45891872Y-44732636D01*
X45870791Y-44726240D01*
X45851355Y-44715852D01*
X45834324Y-44701876D01*
X45820348Y-44684845D01*
X45809960Y-44665409D01*
X45803564Y-44644328D01*
X45800800Y-44616260D01*
X45800800Y-43152540D01*
X45803564Y-43124472D01*
X45809960Y-43103391D01*
X45820348Y-43083955D01*
X45834324Y-43066924D01*
X45851355Y-43052948D01*
X45870791Y-43042560D01*
X45891872Y-43036164D01*
X45919940Y-43033400D01*
X46383660Y-43033400D01*
X46411728Y-43036164D01*
G37*
G36*
X47681728Y-43036164D02*
G01*
X47702809Y-43042560D01*
X47722245Y-43052948D01*
X47739276Y-43066924D01*
X47753252Y-43083955D01*
X47763640Y-43103391D01*
X47770036Y-43124472D01*
X47772800Y-43152540D01*
X47772800Y-44616260D01*
X47770036Y-44644328D01*
X47763640Y-44665409D01*
X47753252Y-44684845D01*
X47739276Y-44701876D01*
X47722245Y-44715852D01*
X47702809Y-44726240D01*
X47681728Y-44732636D01*
X47653660Y-44735400D01*
X47189940Y-44735400D01*
X47161872Y-44732636D01*
X47140791Y-44726240D01*
X47121355Y-44715852D01*
X47104324Y-44701876D01*
X47090348Y-44684845D01*
X47079960Y-44665409D01*
X47073564Y-44644328D01*
X47070800Y-44616260D01*
X47070800Y-43152540D01*
X47073564Y-43124472D01*
X47079960Y-43103391D01*
X47090348Y-43083955D01*
X47104324Y-43066924D01*
X47121355Y-43052948D01*
X47140791Y-43042560D01*
X47161872Y-43036164D01*
X47189940Y-43033400D01*
X47653660Y-43033400D01*
X47681728Y-43036164D01*
G37*
G36*
X42014138Y-43723316D02*
G01*
X42034757Y-43729571D01*
X42053753Y-43739724D01*
X42070408Y-43753392D01*
X42084076Y-43770047D01*
X42094229Y-43789043D01*
X42100484Y-43809662D01*
X42103200Y-43837240D01*
X42103200Y-44295960D01*
X42100484Y-44323538D01*
X42094229Y-44344157D01*
X42084076Y-44363153D01*
X42070408Y-44379808D01*
X42053753Y-44393476D01*
X42034757Y-44403629D01*
X42014138Y-44409884D01*
X41986560Y-44412600D01*
X41477840Y-44412600D01*
X41450262Y-44409884D01*
X41429643Y-44403629D01*
X41410647Y-44393476D01*
X41393992Y-44379808D01*
X41380324Y-44363153D01*
X41370171Y-44344157D01*
X41363916Y-44323538D01*
X41361200Y-44295960D01*
X41361200Y-43837240D01*
X41363916Y-43809662D01*
X41370171Y-43789043D01*
X41380324Y-43770047D01*
X41393992Y-43753392D01*
X41410647Y-43739724D01*
X41429643Y-43729571D01*
X41450262Y-43723316D01*
X41477840Y-43720600D01*
X41986560Y-43720600D01*
X42014138Y-43723316D01*
G37*
G36*
X24841738Y-43192716D02*
G01*
X24862357Y-43198971D01*
X24881353Y-43209124D01*
X24898008Y-43222792D01*
X24911676Y-43239447D01*
X24921829Y-43258443D01*
X24928084Y-43279062D01*
X24930800Y-43306640D01*
X24930800Y-43815360D01*
X24928084Y-43842938D01*
X24921829Y-43863557D01*
X24911676Y-43882553D01*
X24898008Y-43899208D01*
X24881353Y-43912876D01*
X24862357Y-43923029D01*
X24841738Y-43929284D01*
X24814160Y-43932000D01*
X24355440Y-43932000D01*
X24327862Y-43929284D01*
X24307243Y-43923029D01*
X24288247Y-43912876D01*
X24271592Y-43899208D01*
X24257924Y-43882553D01*
X24247771Y-43863557D01*
X24241516Y-43842938D01*
X24238800Y-43815360D01*
X24238800Y-43306640D01*
X24241516Y-43279062D01*
X24247771Y-43258443D01*
X24257924Y-43239447D01*
X24271592Y-43222792D01*
X24288247Y-43209124D01*
X24307243Y-43198971D01*
X24327862Y-43192716D01*
X24355440Y-43190000D01*
X24814160Y-43190000D01*
X24841738Y-43192716D01*
G37*
G36*
X25811738Y-43192716D02*
G01*
X25832357Y-43198971D01*
X25851353Y-43209124D01*
X25868008Y-43222792D01*
X25881676Y-43239447D01*
X25891829Y-43258443D01*
X25898084Y-43279062D01*
X25900800Y-43306640D01*
X25900800Y-43815360D01*
X25898084Y-43842938D01*
X25891829Y-43863557D01*
X25881676Y-43882553D01*
X25868008Y-43899208D01*
X25851353Y-43912876D01*
X25832357Y-43923029D01*
X25811738Y-43929284D01*
X25784160Y-43932000D01*
X25325440Y-43932000D01*
X25297862Y-43929284D01*
X25277243Y-43923029D01*
X25258247Y-43912876D01*
X25241592Y-43899208D01*
X25227924Y-43882553D01*
X25217771Y-43863557D01*
X25211516Y-43842938D01*
X25208800Y-43815360D01*
X25208800Y-43306640D01*
X25211516Y-43279062D01*
X25217771Y-43258443D01*
X25227924Y-43239447D01*
X25241592Y-43222792D01*
X25258247Y-43209124D01*
X25277243Y-43198971D01*
X25297862Y-43192716D01*
X25325440Y-43190000D01*
X25784160Y-43190000D01*
X25811738Y-43192716D01*
G37*
G36*
X28552138Y-42534316D02*
G01*
X28572757Y-42540571D01*
X28591753Y-42550724D01*
X28608408Y-42564392D01*
X28622076Y-42581047D01*
X28632229Y-42600043D01*
X28638484Y-42620662D01*
X28641200Y-42648240D01*
X28641200Y-43106960D01*
X28638484Y-43134538D01*
X28632229Y-43155157D01*
X28622076Y-43174153D01*
X28608408Y-43190808D01*
X28591753Y-43204476D01*
X28572757Y-43214629D01*
X28552138Y-43220884D01*
X28524560Y-43223600D01*
X28015840Y-43223600D01*
X27988262Y-43220884D01*
X27967643Y-43214629D01*
X27948647Y-43204476D01*
X27931992Y-43190808D01*
X27918324Y-43174153D01*
X27908171Y-43155157D01*
X27901916Y-43134538D01*
X27899200Y-43106960D01*
X27899200Y-42648240D01*
X27901916Y-42620662D01*
X27908171Y-42600043D01*
X27918324Y-42581047D01*
X27931992Y-42564392D01*
X27948647Y-42550724D01*
X27967643Y-42540571D01*
X27988262Y-42534316D01*
X28015840Y-42531600D01*
X28524560Y-42531600D01*
X28552138Y-42534316D01*
G37*
G36*
X19033828Y-40953303D02*
G01*
X19188700Y-41017453D01*
X19328081Y-41110585D01*
X19446615Y-41229119D01*
X19539747Y-41368500D01*
X19603897Y-41523372D01*
X19636600Y-41687784D01*
X19636600Y-41855416D01*
X19603897Y-42019828D01*
X19539747Y-42174700D01*
X19446615Y-42314081D01*
X19328081Y-42432615D01*
X19188700Y-42525747D01*
X19033828Y-42589897D01*
X18869416Y-42622600D01*
X18701784Y-42622600D01*
X18537372Y-42589897D01*
X18382500Y-42525747D01*
X18243119Y-42432615D01*
X18124585Y-42314081D01*
X18031453Y-42174700D01*
X17967303Y-42019828D01*
X17934600Y-41855416D01*
X17934600Y-41687784D01*
X17967303Y-41523372D01*
X18031453Y-41368500D01*
X18124585Y-41229119D01*
X18243119Y-41110585D01*
X18382500Y-41017453D01*
X18537372Y-40953303D01*
X18701784Y-40920600D01*
X18869416Y-40920600D01*
X19033828Y-40953303D01*
G37*
G36*
X3793828Y-40953303D02*
G01*
X3948700Y-41017453D01*
X4088081Y-41110585D01*
X4206615Y-41229119D01*
X4299747Y-41368500D01*
X4363897Y-41523372D01*
X4396600Y-41687784D01*
X4396600Y-41855416D01*
X4363897Y-42019828D01*
X4299747Y-42174700D01*
X4206615Y-42314081D01*
X4088081Y-42432615D01*
X3948700Y-42525747D01*
X3793828Y-42589897D01*
X3629416Y-42622600D01*
X3461784Y-42622600D01*
X3297372Y-42589897D01*
X3142500Y-42525747D01*
X3003119Y-42432615D01*
X2884585Y-42314081D01*
X2791453Y-42174700D01*
X2727303Y-42019828D01*
X2694600Y-41855416D01*
X2694600Y-41687784D01*
X2727303Y-41523372D01*
X2791453Y-41368500D01*
X2884585Y-41229119D01*
X3003119Y-41110585D01*
X3142500Y-41017453D01*
X3297372Y-40953303D01*
X3461784Y-40920600D01*
X3629416Y-40920600D01*
X3793828Y-40953303D01*
G37*
G36*
X13896338Y-41569116D02*
G01*
X13916957Y-41575371D01*
X13935953Y-41585524D01*
X13952608Y-41599192D01*
X13966276Y-41615847D01*
X13976429Y-41634843D01*
X13982684Y-41655462D01*
X13985400Y-41683040D01*
X13985400Y-42141760D01*
X13982684Y-42169338D01*
X13976429Y-42189957D01*
X13966276Y-42208953D01*
X13952608Y-42225608D01*
X13935953Y-42239276D01*
X13916957Y-42249429D01*
X13896338Y-42255684D01*
X13868760Y-42258400D01*
X13360040Y-42258400D01*
X13332462Y-42255684D01*
X13311843Y-42249429D01*
X13292847Y-42239276D01*
X13276192Y-42225608D01*
X13262524Y-42208953D01*
X13252371Y-42189957D01*
X13246116Y-42169338D01*
X13243400Y-42141760D01*
X13243400Y-41683040D01*
X13246116Y-41655462D01*
X13252371Y-41634843D01*
X13262524Y-41615847D01*
X13276192Y-41599192D01*
X13292847Y-41585524D01*
X13311843Y-41575371D01*
X13332462Y-41569116D01*
X13360040Y-41566400D01*
X13868760Y-41566400D01*
X13896338Y-41569116D01*
G37*
G36*
X28552138Y-41564316D02*
G01*
X28572757Y-41570571D01*
X28591753Y-41580724D01*
X28608408Y-41594392D01*
X28622076Y-41611047D01*
X28632229Y-41630043D01*
X28638484Y-41650662D01*
X28641200Y-41678240D01*
X28641200Y-42136960D01*
X28638484Y-42164538D01*
X28632229Y-42185157D01*
X28622076Y-42204153D01*
X28608408Y-42220808D01*
X28591753Y-42234476D01*
X28572757Y-42244629D01*
X28552138Y-42250884D01*
X28524560Y-42253600D01*
X28015840Y-42253600D01*
X27988262Y-42250884D01*
X27967643Y-42244629D01*
X27948647Y-42234476D01*
X27931992Y-42220808D01*
X27918324Y-42204153D01*
X27908171Y-42185157D01*
X27901916Y-42164538D01*
X27899200Y-42136960D01*
X27899200Y-41678240D01*
X27901916Y-41650662D01*
X27908171Y-41630043D01*
X27918324Y-41611047D01*
X27931992Y-41594392D01*
X27948647Y-41580724D01*
X27967643Y-41570571D01*
X27988262Y-41564316D01*
X28015840Y-41561600D01*
X28524560Y-41561600D01*
X28552138Y-41564316D01*
G37*
G36*
X13896338Y-40599116D02*
G01*
X13916957Y-40605371D01*
X13935953Y-40615524D01*
X13952608Y-40629192D01*
X13966276Y-40645847D01*
X13976429Y-40664843D01*
X13982684Y-40685462D01*
X13985400Y-40713040D01*
X13985400Y-41171760D01*
X13982684Y-41199338D01*
X13976429Y-41219957D01*
X13966276Y-41238953D01*
X13952608Y-41255608D01*
X13935953Y-41269276D01*
X13916957Y-41279429D01*
X13896338Y-41285684D01*
X13868760Y-41288400D01*
X13360040Y-41288400D01*
X13332462Y-41285684D01*
X13311843Y-41279429D01*
X13292847Y-41269276D01*
X13276192Y-41255608D01*
X13262524Y-41238953D01*
X13252371Y-41219957D01*
X13246116Y-41199338D01*
X13243400Y-41171760D01*
X13243400Y-40713040D01*
X13246116Y-40685462D01*
X13252371Y-40664843D01*
X13262524Y-40645847D01*
X13276192Y-40629192D01*
X13292847Y-40615524D01*
X13311843Y-40605371D01*
X13332462Y-40599116D01*
X13360040Y-40596400D01*
X13868760Y-40596400D01*
X13896338Y-40599116D01*
G37*
G36*
X23289800Y-40823800D02*
G01*
X21617800Y-40823800D01*
X21617800Y-34461800D01*
X23289800Y-34461800D01*
X23289800Y-40823800D01*
G37*
G36*
X29029800Y-40823800D02*
G01*
X27357800Y-40823800D01*
X27357800Y-34461800D01*
X29029800Y-34461800D01*
X29029800Y-40823800D01*
G37*
G36*
X19033828Y-38413303D02*
G01*
X19188700Y-38477453D01*
X19328081Y-38570585D01*
X19446615Y-38689119D01*
X19539747Y-38828500D01*
X19603897Y-38983372D01*
X19636600Y-39147784D01*
X19636600Y-39315416D01*
X19603897Y-39479828D01*
X19539747Y-39634700D01*
X19446615Y-39774081D01*
X19328081Y-39892615D01*
X19188700Y-39985747D01*
X19033828Y-40049897D01*
X18869416Y-40082600D01*
X18701784Y-40082600D01*
X18537372Y-40049897D01*
X18382500Y-39985747D01*
X18243119Y-39892615D01*
X18124585Y-39774081D01*
X18031453Y-39634700D01*
X17967303Y-39479828D01*
X17934600Y-39315416D01*
X17934600Y-39147784D01*
X17967303Y-38983372D01*
X18031453Y-38828500D01*
X18124585Y-38689119D01*
X18243119Y-38570585D01*
X18382500Y-38477453D01*
X18537372Y-38413303D01*
X18701784Y-38380600D01*
X18869416Y-38380600D01*
X19033828Y-38413303D01*
G37*
G36*
X3793828Y-38413303D02*
G01*
X3948700Y-38477453D01*
X4088081Y-38570585D01*
X4206615Y-38689119D01*
X4299747Y-38828500D01*
X4363897Y-38983372D01*
X4396600Y-39147784D01*
X4396600Y-39315416D01*
X4363897Y-39479828D01*
X4299747Y-39634700D01*
X4206615Y-39774081D01*
X4088081Y-39892615D01*
X3948700Y-39985747D01*
X3793828Y-40049897D01*
X3629416Y-40082600D01*
X3461784Y-40082600D01*
X3297372Y-40049897D01*
X3142500Y-39985747D01*
X3003119Y-39892615D01*
X2884585Y-39774081D01*
X2791453Y-39634700D01*
X2727303Y-39479828D01*
X2694600Y-39315416D01*
X2694600Y-39147784D01*
X2727303Y-38983372D01*
X2791453Y-38828500D01*
X2884585Y-38689119D01*
X3003119Y-38570585D01*
X3142500Y-38477453D01*
X3297372Y-38413303D01*
X3461784Y-38380600D01*
X3629416Y-38380600D01*
X3793828Y-38413303D01*
G37*
G36*
X3793828Y-35873303D02*
G01*
X3948700Y-35937453D01*
X4088081Y-36030585D01*
X4206615Y-36149119D01*
X4299747Y-36288500D01*
X4363897Y-36443372D01*
X4396600Y-36607784D01*
X4396600Y-36775416D01*
X4363897Y-36939828D01*
X4299747Y-37094700D01*
X4206615Y-37234081D01*
X4088081Y-37352615D01*
X3948700Y-37445747D01*
X3793828Y-37509897D01*
X3629416Y-37542600D01*
X3461784Y-37542600D01*
X3297372Y-37509897D01*
X3142500Y-37445747D01*
X3003119Y-37352615D01*
X2884585Y-37234081D01*
X2791453Y-37094700D01*
X2727303Y-36939828D01*
X2694600Y-36775416D01*
X2694600Y-36607784D01*
X2727303Y-36443372D01*
X2791453Y-36288500D01*
X2884585Y-36149119D01*
X3003119Y-36030585D01*
X3142500Y-35937453D01*
X3297372Y-35873303D01*
X3461784Y-35840600D01*
X3629416Y-35840600D01*
X3793828Y-35873303D01*
G37*
G36*
X19033828Y-35873303D02*
G01*
X19188700Y-35937453D01*
X19328081Y-36030585D01*
X19446615Y-36149119D01*
X19539747Y-36288500D01*
X19603897Y-36443372D01*
X19636600Y-36607784D01*
X19636600Y-36775416D01*
X19603897Y-36939828D01*
X19539747Y-37094700D01*
X19446615Y-37234081D01*
X19328081Y-37352615D01*
X19188700Y-37445747D01*
X19033828Y-37509897D01*
X18869416Y-37542600D01*
X18701784Y-37542600D01*
X18537372Y-37509897D01*
X18382500Y-37445747D01*
X18243119Y-37352615D01*
X18124585Y-37234081D01*
X18031453Y-37094700D01*
X17967303Y-36939828D01*
X17934600Y-36775416D01*
X17934600Y-36607784D01*
X17967303Y-36443372D01*
X18031453Y-36288500D01*
X18124585Y-36149119D01*
X18243119Y-36030585D01*
X18382500Y-35937453D01*
X18537372Y-35873303D01*
X18701784Y-35840600D01*
X18869416Y-35840600D01*
X19033828Y-35873303D01*
G37*
G36*
X47681728Y-35836164D02*
G01*
X47702809Y-35842560D01*
X47722245Y-35852948D01*
X47739276Y-35866924D01*
X47753252Y-35883955D01*
X47763640Y-35903391D01*
X47770036Y-35924472D01*
X47772800Y-35952540D01*
X47772800Y-37416260D01*
X47770036Y-37444328D01*
X47763640Y-37465409D01*
X47753252Y-37484845D01*
X47739276Y-37501876D01*
X47722245Y-37515852D01*
X47702809Y-37526240D01*
X47681728Y-37532636D01*
X47653660Y-37535400D01*
X47189940Y-37535400D01*
X47161872Y-37532636D01*
X47140791Y-37526240D01*
X47121355Y-37515852D01*
X47104324Y-37501876D01*
X47090348Y-37484845D01*
X47079960Y-37465409D01*
X47073564Y-37444328D01*
X47070800Y-37416260D01*
X47070800Y-35952540D01*
X47073564Y-35924472D01*
X47079960Y-35903391D01*
X47090348Y-35883955D01*
X47104324Y-35866924D01*
X47121355Y-35852948D01*
X47140791Y-35842560D01*
X47161872Y-35836164D01*
X47189940Y-35833400D01*
X47653660Y-35833400D01*
X47681728Y-35836164D01*
G37*
G36*
X45141728Y-35836164D02*
G01*
X45162809Y-35842560D01*
X45182245Y-35852948D01*
X45199276Y-35866924D01*
X45213252Y-35883955D01*
X45223640Y-35903391D01*
X45230036Y-35924472D01*
X45232800Y-35952540D01*
X45232800Y-37416260D01*
X45230036Y-37444328D01*
X45223640Y-37465409D01*
X45213252Y-37484845D01*
X45199276Y-37501876D01*
X45182245Y-37515852D01*
X45162809Y-37526240D01*
X45141728Y-37532636D01*
X45113660Y-37535400D01*
X44649940Y-37535400D01*
X44621872Y-37532636D01*
X44600791Y-37526240D01*
X44581355Y-37515852D01*
X44564324Y-37501876D01*
X44550348Y-37484845D01*
X44539960Y-37465409D01*
X44533564Y-37444328D01*
X44530800Y-37416260D01*
X44530800Y-35952540D01*
X44533564Y-35924472D01*
X44539960Y-35903391D01*
X44550348Y-35883955D01*
X44564324Y-35866924D01*
X44581355Y-35852948D01*
X44600791Y-35842560D01*
X44621872Y-35836164D01*
X44649940Y-35833400D01*
X45113660Y-35833400D01*
X45141728Y-35836164D01*
G37*
G36*
X43871728Y-35836164D02*
G01*
X43892809Y-35842560D01*
X43912245Y-35852948D01*
X43929276Y-35866924D01*
X43943252Y-35883955D01*
X43953640Y-35903391D01*
X43960036Y-35924472D01*
X43962800Y-35952540D01*
X43962800Y-37416260D01*
X43960036Y-37444328D01*
X43953640Y-37465409D01*
X43943252Y-37484845D01*
X43929276Y-37501876D01*
X43912245Y-37515852D01*
X43892809Y-37526240D01*
X43871728Y-37532636D01*
X43843660Y-37535400D01*
X43379940Y-37535400D01*
X43351872Y-37532636D01*
X43330791Y-37526240D01*
X43311355Y-37515852D01*
X43294324Y-37501876D01*
X43280348Y-37484845D01*
X43269960Y-37465409D01*
X43263564Y-37444328D01*
X43260800Y-37416260D01*
X43260800Y-35952540D01*
X43263564Y-35924472D01*
X43269960Y-35903391D01*
X43280348Y-35883955D01*
X43294324Y-35866924D01*
X43311355Y-35852948D01*
X43330791Y-35842560D01*
X43351872Y-35836164D01*
X43379940Y-35833400D01*
X43843660Y-35833400D01*
X43871728Y-35836164D01*
G37*
G36*
X46411728Y-35836164D02*
G01*
X46432809Y-35842560D01*
X46452245Y-35852948D01*
X46469276Y-35866924D01*
X46483252Y-35883955D01*
X46493640Y-35903391D01*
X46500036Y-35924472D01*
X46502800Y-35952540D01*
X46502800Y-37416260D01*
X46500036Y-37444328D01*
X46493640Y-37465409D01*
X46483252Y-37484845D01*
X46469276Y-37501876D01*
X46452245Y-37515852D01*
X46432809Y-37526240D01*
X46411728Y-37532636D01*
X46383660Y-37535400D01*
X45919940Y-37535400D01*
X45891872Y-37532636D01*
X45870791Y-37526240D01*
X45851355Y-37515852D01*
X45834324Y-37501876D01*
X45820348Y-37484845D01*
X45809960Y-37465409D01*
X45803564Y-37444328D01*
X45800800Y-37416260D01*
X45800800Y-35952540D01*
X45803564Y-35924472D01*
X45809960Y-35903391D01*
X45820348Y-35883955D01*
X45834324Y-35866924D01*
X45851355Y-35852948D01*
X45870791Y-35842560D01*
X45891872Y-35836164D01*
X45919940Y-35833400D01*
X46383660Y-35833400D01*
X46411728Y-35836164D01*
G37*
G36*
X3793828Y-33333303D02*
G01*
X3948700Y-33397453D01*
X4088081Y-33490585D01*
X4206615Y-33609119D01*
X4299747Y-33748500D01*
X4363897Y-33903372D01*
X4396600Y-34067784D01*
X4396600Y-34235416D01*
X4363897Y-34399828D01*
X4299747Y-34554700D01*
X4206615Y-34694081D01*
X4088081Y-34812615D01*
X3948700Y-34905747D01*
X3793828Y-34969897D01*
X3629416Y-35002600D01*
X3461784Y-35002600D01*
X3297372Y-34969897D01*
X3142500Y-34905747D01*
X3003119Y-34812615D01*
X2884585Y-34694081D01*
X2791453Y-34554700D01*
X2727303Y-34399828D01*
X2694600Y-34235416D01*
X2694600Y-34067784D01*
X2727303Y-33903372D01*
X2791453Y-33748500D01*
X2884585Y-33609119D01*
X3003119Y-33490585D01*
X3142500Y-33397453D01*
X3297372Y-33333303D01*
X3461784Y-33300600D01*
X3629416Y-33300600D01*
X3793828Y-33333303D01*
G37*
G36*
X19033828Y-33333303D02*
G01*
X19188700Y-33397453D01*
X19328081Y-33490585D01*
X19446615Y-33609119D01*
X19539747Y-33748500D01*
X19603897Y-33903372D01*
X19636600Y-34067784D01*
X19636600Y-34235416D01*
X19603897Y-34399828D01*
X19539747Y-34554700D01*
X19446615Y-34694081D01*
X19328081Y-34812615D01*
X19188700Y-34905747D01*
X19033828Y-34969897D01*
X18869416Y-35002600D01*
X18701784Y-35002600D01*
X18537372Y-34969897D01*
X18382500Y-34905747D01*
X18243119Y-34812615D01*
X18124585Y-34694081D01*
X18031453Y-34554700D01*
X17967303Y-34399828D01*
X17934600Y-34235416D01*
X17934600Y-34067784D01*
X17967303Y-33903372D01*
X18031453Y-33748500D01*
X18124585Y-33609119D01*
X18243119Y-33490585D01*
X18382500Y-33397453D01*
X18537372Y-33333303D01*
X18701784Y-33300600D01*
X18869416Y-33300600D01*
X19033828Y-33333303D01*
G37*
G36*
X45214538Y-33364916D02*
G01*
X45235157Y-33371171D01*
X45254153Y-33381324D01*
X45270808Y-33394992D01*
X45284476Y-33411647D01*
X45294629Y-33430643D01*
X45300884Y-33451262D01*
X45303600Y-33478840D01*
X45303600Y-33937560D01*
X45300884Y-33965138D01*
X45294629Y-33985757D01*
X45284476Y-34004753D01*
X45270808Y-34021408D01*
X45254153Y-34035076D01*
X45235157Y-34045229D01*
X45214538Y-34051484D01*
X45186960Y-34054200D01*
X44678240Y-34054200D01*
X44650662Y-34051484D01*
X44630043Y-34045229D01*
X44611047Y-34035076D01*
X44594392Y-34021408D01*
X44580724Y-34004753D01*
X44570571Y-33985757D01*
X44564316Y-33965138D01*
X44561600Y-33937560D01*
X44561600Y-33478840D01*
X44564316Y-33451262D01*
X44570571Y-33430643D01*
X44580724Y-33411647D01*
X44594392Y-33394992D01*
X44611047Y-33381324D01*
X44630043Y-33371171D01*
X44650662Y-33364916D01*
X44678240Y-33362200D01*
X45186960Y-33362200D01*
X45214538Y-33364916D01*
G37*
G36*
X48541938Y-33263316D02*
G01*
X48562557Y-33269571D01*
X48581553Y-33279724D01*
X48598208Y-33293392D01*
X48611876Y-33310047D01*
X48622029Y-33329043D01*
X48628284Y-33349662D01*
X48631000Y-33377240D01*
X48631000Y-33835960D01*
X48628284Y-33863538D01*
X48622029Y-33884157D01*
X48611876Y-33903153D01*
X48598208Y-33919808D01*
X48581553Y-33933476D01*
X48562557Y-33943629D01*
X48541938Y-33949884D01*
X48514360Y-33952600D01*
X48005640Y-33952600D01*
X47978062Y-33949884D01*
X47957443Y-33943629D01*
X47938447Y-33933476D01*
X47921792Y-33919808D01*
X47908124Y-33903153D01*
X47897971Y-33884157D01*
X47891716Y-33863538D01*
X47889000Y-33835960D01*
X47889000Y-33377240D01*
X47891716Y-33349662D01*
X47897971Y-33329043D01*
X47908124Y-33310047D01*
X47921792Y-33293392D01*
X47938447Y-33279724D01*
X47957443Y-33269571D01*
X47978062Y-33263316D01*
X48005640Y-33260600D01*
X48514360Y-33260600D01*
X48541938Y-33263316D01*
G37*
G36*
X36629338Y-33009316D02*
G01*
X36649957Y-33015571D01*
X36668953Y-33025724D01*
X36685608Y-33039392D01*
X36699276Y-33056047D01*
X36709429Y-33075043D01*
X36715684Y-33095662D01*
X36718400Y-33123240D01*
X36718400Y-33581960D01*
X36715684Y-33609538D01*
X36709429Y-33630157D01*
X36699276Y-33649153D01*
X36685608Y-33665808D01*
X36668953Y-33679476D01*
X36649957Y-33689629D01*
X36629338Y-33695884D01*
X36601760Y-33698600D01*
X36093040Y-33698600D01*
X36065462Y-33695884D01*
X36044843Y-33689629D01*
X36025847Y-33679476D01*
X36009192Y-33665808D01*
X35995524Y-33649153D01*
X35985371Y-33630157D01*
X35979116Y-33609538D01*
X35976400Y-33581960D01*
X35976400Y-33123240D01*
X35979116Y-33095662D01*
X35985371Y-33075043D01*
X35995524Y-33056047D01*
X36009192Y-33039392D01*
X36025847Y-33025724D01*
X36044843Y-33015571D01*
X36065462Y-33009316D01*
X36093040Y-33006600D01*
X36601760Y-33006600D01*
X36629338Y-33009316D01*
G37*
G36*
X44096938Y-33009316D02*
G01*
X44117557Y-33015571D01*
X44136553Y-33025724D01*
X44153208Y-33039392D01*
X44166876Y-33056047D01*
X44177029Y-33075043D01*
X44183284Y-33095662D01*
X44186000Y-33123240D01*
X44186000Y-33581960D01*
X44183284Y-33609538D01*
X44177029Y-33630157D01*
X44166876Y-33649153D01*
X44153208Y-33665808D01*
X44136553Y-33679476D01*
X44117557Y-33689629D01*
X44096938Y-33695884D01*
X44069360Y-33698600D01*
X43560640Y-33698600D01*
X43533062Y-33695884D01*
X43512443Y-33689629D01*
X43493447Y-33679476D01*
X43476792Y-33665808D01*
X43463124Y-33649153D01*
X43452971Y-33630157D01*
X43446716Y-33609538D01*
X43444000Y-33581960D01*
X43444000Y-33123240D01*
X43446716Y-33095662D01*
X43452971Y-33075043D01*
X43463124Y-33056047D01*
X43476792Y-33039392D01*
X43493447Y-33025724D01*
X43512443Y-33015571D01*
X43533062Y-33009316D01*
X43560640Y-33006600D01*
X44069360Y-33006600D01*
X44096938Y-33009316D01*
G37*
G36*
X45214538Y-32394916D02*
G01*
X45235157Y-32401171D01*
X45254153Y-32411324D01*
X45270808Y-32424992D01*
X45284476Y-32441647D01*
X45294629Y-32460643D01*
X45300884Y-32481262D01*
X45303600Y-32508840D01*
X45303600Y-32967560D01*
X45300884Y-32995138D01*
X45294629Y-33015757D01*
X45284476Y-33034753D01*
X45270808Y-33051408D01*
X45254153Y-33065076D01*
X45235157Y-33075229D01*
X45214538Y-33081484D01*
X45186960Y-33084200D01*
X44678240Y-33084200D01*
X44650662Y-33081484D01*
X44630043Y-33075229D01*
X44611047Y-33065076D01*
X44594392Y-33051408D01*
X44580724Y-33034753D01*
X44570571Y-33015757D01*
X44564316Y-32995138D01*
X44561600Y-32967560D01*
X44561600Y-32508840D01*
X44564316Y-32481262D01*
X44570571Y-32460643D01*
X44580724Y-32441647D01*
X44594392Y-32424992D01*
X44611047Y-32411324D01*
X44630043Y-32401171D01*
X44650662Y-32394916D01*
X44678240Y-32392200D01*
X45186960Y-32392200D01*
X45214538Y-32394916D01*
G37*
G36*
X48541938Y-32293316D02*
G01*
X48562557Y-32299571D01*
X48581553Y-32309724D01*
X48598208Y-32323392D01*
X48611876Y-32340047D01*
X48622029Y-32359043D01*
X48628284Y-32379662D01*
X48631000Y-32407240D01*
X48631000Y-32865960D01*
X48628284Y-32893538D01*
X48622029Y-32914157D01*
X48611876Y-32933153D01*
X48598208Y-32949808D01*
X48581553Y-32963476D01*
X48562557Y-32973629D01*
X48541938Y-32979884D01*
X48514360Y-32982600D01*
X48005640Y-32982600D01*
X47978062Y-32979884D01*
X47957443Y-32973629D01*
X47938447Y-32963476D01*
X47921792Y-32949808D01*
X47908124Y-32933153D01*
X47897971Y-32914157D01*
X47891716Y-32893538D01*
X47889000Y-32865960D01*
X47889000Y-32407240D01*
X47891716Y-32379662D01*
X47897971Y-32359043D01*
X47908124Y-32340047D01*
X47921792Y-32323392D01*
X47938447Y-32309724D01*
X47957443Y-32299571D01*
X47978062Y-32293316D01*
X48005640Y-32290600D01*
X48514360Y-32290600D01*
X48541938Y-32293316D01*
G37*
G36*
X44096938Y-32039316D02*
G01*
X44117557Y-32045571D01*
X44136553Y-32055724D01*
X44153208Y-32069392D01*
X44166876Y-32086047D01*
X44177029Y-32105043D01*
X44183284Y-32125662D01*
X44186000Y-32153240D01*
X44186000Y-32611960D01*
X44183284Y-32639538D01*
X44177029Y-32660157D01*
X44166876Y-32679153D01*
X44153208Y-32695808D01*
X44136553Y-32709476D01*
X44117557Y-32719629D01*
X44096938Y-32725884D01*
X44069360Y-32728600D01*
X43560640Y-32728600D01*
X43533062Y-32725884D01*
X43512443Y-32719629D01*
X43493447Y-32709476D01*
X43476792Y-32695808D01*
X43463124Y-32679153D01*
X43452971Y-32660157D01*
X43446716Y-32639538D01*
X43444000Y-32611960D01*
X43444000Y-32153240D01*
X43446716Y-32125662D01*
X43452971Y-32105043D01*
X43463124Y-32086047D01*
X43476792Y-32069392D01*
X43493447Y-32055724D01*
X43512443Y-32045571D01*
X43533062Y-32039316D01*
X43560640Y-32036600D01*
X44069360Y-32036600D01*
X44096938Y-32039316D01*
G37*
G36*
X36629338Y-32039316D02*
G01*
X36649957Y-32045571D01*
X36668953Y-32055724D01*
X36685608Y-32069392D01*
X36699276Y-32086047D01*
X36709429Y-32105043D01*
X36715684Y-32125662D01*
X36718400Y-32153240D01*
X36718400Y-32611960D01*
X36715684Y-32639538D01*
X36709429Y-32660157D01*
X36699276Y-32679153D01*
X36685608Y-32695808D01*
X36668953Y-32709476D01*
X36649957Y-32719629D01*
X36629338Y-32725884D01*
X36601760Y-32728600D01*
X36093040Y-32728600D01*
X36065462Y-32725884D01*
X36044843Y-32719629D01*
X36025847Y-32709476D01*
X36009192Y-32695808D01*
X35995524Y-32679153D01*
X35985371Y-32660157D01*
X35979116Y-32639538D01*
X35976400Y-32611960D01*
X35976400Y-32153240D01*
X35979116Y-32125662D01*
X35985371Y-32105043D01*
X35995524Y-32086047D01*
X36009192Y-32069392D01*
X36025847Y-32055724D01*
X36044843Y-32045571D01*
X36065462Y-32039316D01*
X36093040Y-32036600D01*
X36601760Y-32036600D01*
X36629338Y-32039316D01*
G37*
G36*
X3793828Y-30793303D02*
G01*
X3948700Y-30857453D01*
X4088081Y-30950585D01*
X4206615Y-31069119D01*
X4299747Y-31208500D01*
X4363897Y-31363372D01*
X4396600Y-31527784D01*
X4396600Y-31695416D01*
X4363897Y-31859828D01*
X4299747Y-32014700D01*
X4206615Y-32154081D01*
X4088081Y-32272615D01*
X3948700Y-32365747D01*
X3793828Y-32429897D01*
X3629416Y-32462600D01*
X3461784Y-32462600D01*
X3297372Y-32429897D01*
X3142500Y-32365747D01*
X3003119Y-32272615D01*
X2884585Y-32154081D01*
X2791453Y-32014700D01*
X2727303Y-31859828D01*
X2694600Y-31695416D01*
X2694600Y-31527784D01*
X2727303Y-31363372D01*
X2791453Y-31208500D01*
X2884585Y-31069119D01*
X3003119Y-30950585D01*
X3142500Y-30857453D01*
X3297372Y-30793303D01*
X3461784Y-30760600D01*
X3629416Y-30760600D01*
X3793828Y-30793303D01*
G37*
G36*
X19033828Y-30793303D02*
G01*
X19188700Y-30857453D01*
X19328081Y-30950585D01*
X19446615Y-31069119D01*
X19539747Y-31208500D01*
X19603897Y-31363372D01*
X19636600Y-31527784D01*
X19636600Y-31695416D01*
X19603897Y-31859828D01*
X19539747Y-32014700D01*
X19446615Y-32154081D01*
X19328081Y-32272615D01*
X19188700Y-32365747D01*
X19033828Y-32429897D01*
X18869416Y-32462600D01*
X18701784Y-32462600D01*
X18537372Y-32429897D01*
X18382500Y-32365747D01*
X18243119Y-32272615D01*
X18124585Y-32154081D01*
X18031453Y-32014700D01*
X17967303Y-31859828D01*
X17934600Y-31695416D01*
X17934600Y-31527784D01*
X17967303Y-31363372D01*
X18031453Y-31208500D01*
X18124585Y-31069119D01*
X18243119Y-30950585D01*
X18382500Y-30857453D01*
X18537372Y-30793303D01*
X18701784Y-30760600D01*
X18869416Y-30760600D01*
X19033828Y-30793303D01*
G37*
G36*
X26418938Y-31051516D02*
G01*
X26439557Y-31057771D01*
X26458553Y-31067924D01*
X26475208Y-31081592D01*
X26488876Y-31098247D01*
X26499029Y-31117243D01*
X26505284Y-31137862D01*
X26508000Y-31165440D01*
X26508000Y-31674160D01*
X26505284Y-31701738D01*
X26499029Y-31722357D01*
X26488876Y-31741353D01*
X26475208Y-31758008D01*
X26458553Y-31771676D01*
X26439557Y-31781829D01*
X26418938Y-31788084D01*
X26391360Y-31790800D01*
X25932640Y-31790800D01*
X25905062Y-31788084D01*
X25884443Y-31781829D01*
X25865447Y-31771676D01*
X25848792Y-31758008D01*
X25835124Y-31741353D01*
X25824971Y-31722357D01*
X25818716Y-31701738D01*
X25816000Y-31674160D01*
X25816000Y-31165440D01*
X25818716Y-31137862D01*
X25824971Y-31117243D01*
X25835124Y-31098247D01*
X25848792Y-31081592D01*
X25865447Y-31067924D01*
X25884443Y-31057771D01*
X25905062Y-31051516D01*
X25932640Y-31048800D01*
X26391360Y-31048800D01*
X26418938Y-31051516D01*
G37*
G36*
X27388938Y-31051516D02*
G01*
X27409557Y-31057771D01*
X27428553Y-31067924D01*
X27445208Y-31081592D01*
X27458876Y-31098247D01*
X27469029Y-31117243D01*
X27475284Y-31137862D01*
X27478000Y-31165440D01*
X27478000Y-31674160D01*
X27475284Y-31701738D01*
X27469029Y-31722357D01*
X27458876Y-31741353D01*
X27445208Y-31758008D01*
X27428553Y-31771676D01*
X27409557Y-31781829D01*
X27388938Y-31788084D01*
X27361360Y-31790800D01*
X26902640Y-31790800D01*
X26875062Y-31788084D01*
X26854443Y-31781829D01*
X26835447Y-31771676D01*
X26818792Y-31758008D01*
X26805124Y-31741353D01*
X26794971Y-31722357D01*
X26788716Y-31701738D01*
X26786000Y-31674160D01*
X26786000Y-31165440D01*
X26788716Y-31137862D01*
X26794971Y-31117243D01*
X26805124Y-31098247D01*
X26818792Y-31081592D01*
X26835447Y-31067924D01*
X26854443Y-31057771D01*
X26875062Y-31051516D01*
X26902640Y-31048800D01*
X27361360Y-31048800D01*
X27388938Y-31051516D01*
G37*
G36*
X3793828Y-28253303D02*
G01*
X3948700Y-28317453D01*
X4088081Y-28410585D01*
X4206615Y-28529119D01*
X4299747Y-28668500D01*
X4363897Y-28823372D01*
X4396600Y-28987784D01*
X4396600Y-29155416D01*
X4363897Y-29319828D01*
X4299747Y-29474700D01*
X4206615Y-29614081D01*
X4088081Y-29732615D01*
X3948700Y-29825747D01*
X3793828Y-29889897D01*
X3629416Y-29922600D01*
X3461784Y-29922600D01*
X3297372Y-29889897D01*
X3142500Y-29825747D01*
X3003119Y-29732615D01*
X2884585Y-29614081D01*
X2791453Y-29474700D01*
X2727303Y-29319828D01*
X2694600Y-29155416D01*
X2694600Y-28987784D01*
X2727303Y-28823372D01*
X2791453Y-28668500D01*
X2884585Y-28529119D01*
X3003119Y-28410585D01*
X3142500Y-28317453D01*
X3297372Y-28253303D01*
X3461784Y-28220600D01*
X3629416Y-28220600D01*
X3793828Y-28253303D01*
G37*
G36*
X19033828Y-28253303D02*
G01*
X19188700Y-28317453D01*
X19328081Y-28410585D01*
X19446615Y-28529119D01*
X19539747Y-28668500D01*
X19603897Y-28823372D01*
X19636600Y-28987784D01*
X19636600Y-29155416D01*
X19603897Y-29319828D01*
X19539747Y-29474700D01*
X19446615Y-29614081D01*
X19328081Y-29732615D01*
X19188700Y-29825747D01*
X19033828Y-29889897D01*
X18869416Y-29922600D01*
X18701784Y-29922600D01*
X18537372Y-29889897D01*
X18382500Y-29825747D01*
X18243119Y-29732615D01*
X18124585Y-29614081D01*
X18031453Y-29474700D01*
X17967303Y-29319828D01*
X17934600Y-29155416D01*
X17934600Y-28987784D01*
X17967303Y-28823372D01*
X18031453Y-28668500D01*
X18124585Y-28529119D01*
X18243119Y-28410585D01*
X18382500Y-28317453D01*
X18537372Y-28253303D01*
X18701784Y-28220600D01*
X18869416Y-28220600D01*
X19033828Y-28253303D01*
G37*
G36*
X25252938Y-29070316D02*
G01*
X25273557Y-29076571D01*
X25292553Y-29086724D01*
X25309208Y-29100392D01*
X25322876Y-29117047D01*
X25333029Y-29136043D01*
X25339284Y-29156662D01*
X25342000Y-29184240D01*
X25342000Y-29692960D01*
X25339284Y-29720538D01*
X25333029Y-29741157D01*
X25322876Y-29760153D01*
X25309208Y-29776808D01*
X25292553Y-29790476D01*
X25273557Y-29800629D01*
X25252938Y-29806884D01*
X25225360Y-29809600D01*
X24766640Y-29809600D01*
X24739062Y-29806884D01*
X24718443Y-29800629D01*
X24699447Y-29790476D01*
X24682792Y-29776808D01*
X24669124Y-29760153D01*
X24658971Y-29741157D01*
X24652716Y-29720538D01*
X24650000Y-29692960D01*
X24650000Y-29184240D01*
X24652716Y-29156662D01*
X24658971Y-29136043D01*
X24669124Y-29117047D01*
X24682792Y-29100392D01*
X24699447Y-29086724D01*
X24718443Y-29076571D01*
X24739062Y-29070316D01*
X24766640Y-29067600D01*
X25225360Y-29067600D01*
X25252938Y-29070316D01*
G37*
G36*
X24282938Y-29070316D02*
G01*
X24303557Y-29076571D01*
X24322553Y-29086724D01*
X24339208Y-29100392D01*
X24352876Y-29117047D01*
X24363029Y-29136043D01*
X24369284Y-29156662D01*
X24372000Y-29184240D01*
X24372000Y-29692960D01*
X24369284Y-29720538D01*
X24363029Y-29741157D01*
X24352876Y-29760153D01*
X24339208Y-29776808D01*
X24322553Y-29790476D01*
X24303557Y-29800629D01*
X24282938Y-29806884D01*
X24255360Y-29809600D01*
X23796640Y-29809600D01*
X23769062Y-29806884D01*
X23748443Y-29800629D01*
X23729447Y-29790476D01*
X23712792Y-29776808D01*
X23699124Y-29760153D01*
X23688971Y-29741157D01*
X23682716Y-29720538D01*
X23680000Y-29692960D01*
X23680000Y-29184240D01*
X23682716Y-29156662D01*
X23688971Y-29136043D01*
X23699124Y-29117047D01*
X23712792Y-29100392D01*
X23729447Y-29086724D01*
X23748443Y-29076571D01*
X23769062Y-29070316D01*
X23796640Y-29067600D01*
X24255360Y-29067600D01*
X24282938Y-29070316D01*
G37*
G36*
X50802538Y-27192716D02*
G01*
X50823157Y-27198971D01*
X50842153Y-27209124D01*
X50858808Y-27222792D01*
X50872476Y-27239447D01*
X50882629Y-27258443D01*
X50888884Y-27279062D01*
X50891600Y-27306640D01*
X50891600Y-27765360D01*
X50888884Y-27792938D01*
X50882629Y-27813557D01*
X50872476Y-27832553D01*
X50858808Y-27849208D01*
X50842153Y-27862876D01*
X50823157Y-27873029D01*
X50802538Y-27879284D01*
X50774960Y-27882000D01*
X50266240Y-27882000D01*
X50238662Y-27879284D01*
X50218043Y-27873029D01*
X50199047Y-27862876D01*
X50182392Y-27849208D01*
X50168724Y-27832553D01*
X50158571Y-27813557D01*
X50152316Y-27792938D01*
X50149600Y-27765360D01*
X50149600Y-27306640D01*
X50152316Y-27279062D01*
X50158571Y-27258443D01*
X50168724Y-27239447D01*
X50182392Y-27222792D01*
X50199047Y-27209124D01*
X50218043Y-27198971D01*
X50238662Y-27192716D01*
X50266240Y-27190000D01*
X50774960Y-27190000D01*
X50802538Y-27192716D01*
G37*
G36*
X28526738Y-26811716D02*
G01*
X28547357Y-26817971D01*
X28566353Y-26828124D01*
X28583008Y-26841792D01*
X28596676Y-26858447D01*
X28606829Y-26877443D01*
X28613084Y-26898062D01*
X28615800Y-26925640D01*
X28615800Y-27384360D01*
X28613084Y-27411938D01*
X28606829Y-27432557D01*
X28596676Y-27451553D01*
X28583008Y-27468208D01*
X28566353Y-27481876D01*
X28547357Y-27492029D01*
X28526738Y-27498284D01*
X28499160Y-27501000D01*
X27990440Y-27501000D01*
X27962862Y-27498284D01*
X27942243Y-27492029D01*
X27923247Y-27481876D01*
X27906592Y-27468208D01*
X27892924Y-27451553D01*
X27882771Y-27432557D01*
X27876516Y-27411938D01*
X27873800Y-27384360D01*
X27873800Y-26925640D01*
X27876516Y-26898062D01*
X27882771Y-26877443D01*
X27892924Y-26858447D01*
X27906592Y-26841792D01*
X27923247Y-26828124D01*
X27942243Y-26817971D01*
X27962862Y-26811716D01*
X27990440Y-26809000D01*
X28499160Y-26809000D01*
X28526738Y-26811716D01*
G37*
G36*
X45798738Y-26811716D02*
G01*
X45819357Y-26817971D01*
X45838353Y-26828124D01*
X45855008Y-26841792D01*
X45868676Y-26858447D01*
X45878829Y-26877443D01*
X45885084Y-26898062D01*
X45887800Y-26925640D01*
X45887800Y-27384360D01*
X45885084Y-27411938D01*
X45878829Y-27432557D01*
X45868676Y-27451553D01*
X45855008Y-27468208D01*
X45838353Y-27481876D01*
X45819357Y-27492029D01*
X45798738Y-27498284D01*
X45771160Y-27501000D01*
X45262440Y-27501000D01*
X45234862Y-27498284D01*
X45214243Y-27492029D01*
X45195247Y-27481876D01*
X45178592Y-27468208D01*
X45164924Y-27451553D01*
X45154771Y-27432557D01*
X45148516Y-27411938D01*
X45145800Y-27384360D01*
X45145800Y-26925640D01*
X45148516Y-26898062D01*
X45154771Y-26877443D01*
X45164924Y-26858447D01*
X45178592Y-26841792D01*
X45195247Y-26828124D01*
X45214243Y-26817971D01*
X45234862Y-26811716D01*
X45262440Y-26809000D01*
X45771160Y-26809000D01*
X45798738Y-26811716D01*
G37*
G36*
X40210738Y-26811716D02*
G01*
X40231357Y-26817971D01*
X40250353Y-26828124D01*
X40267008Y-26841792D01*
X40280676Y-26858447D01*
X40290829Y-26877443D01*
X40297084Y-26898062D01*
X40299800Y-26925640D01*
X40299800Y-27384360D01*
X40297084Y-27411938D01*
X40290829Y-27432557D01*
X40280676Y-27451553D01*
X40267008Y-27468208D01*
X40250353Y-27481876D01*
X40231357Y-27492029D01*
X40210738Y-27498284D01*
X40183160Y-27501000D01*
X39674440Y-27501000D01*
X39646862Y-27498284D01*
X39626243Y-27492029D01*
X39607247Y-27481876D01*
X39590592Y-27468208D01*
X39576924Y-27451553D01*
X39566771Y-27432557D01*
X39560516Y-27411938D01*
X39557800Y-27384360D01*
X39557800Y-26925640D01*
X39560516Y-26898062D01*
X39566771Y-26877443D01*
X39576924Y-26858447D01*
X39590592Y-26841792D01*
X39607247Y-26828124D01*
X39626243Y-26817971D01*
X39646862Y-26811716D01*
X39674440Y-26809000D01*
X40183160Y-26809000D01*
X40210738Y-26811716D01*
G37*
G36*
X44655738Y-26811716D02*
G01*
X44676357Y-26817971D01*
X44695353Y-26828124D01*
X44712008Y-26841792D01*
X44725676Y-26858447D01*
X44735829Y-26877443D01*
X44742084Y-26898062D01*
X44744800Y-26925640D01*
X44744800Y-27384360D01*
X44742084Y-27411938D01*
X44735829Y-27432557D01*
X44725676Y-27451553D01*
X44712008Y-27468208D01*
X44695353Y-27481876D01*
X44676357Y-27492029D01*
X44655738Y-27498284D01*
X44628160Y-27501000D01*
X44119440Y-27501000D01*
X44091862Y-27498284D01*
X44071243Y-27492029D01*
X44052247Y-27481876D01*
X44035592Y-27468208D01*
X44021924Y-27451553D01*
X44011771Y-27432557D01*
X44005516Y-27411938D01*
X44002800Y-27384360D01*
X44002800Y-26925640D01*
X44005516Y-26898062D01*
X44011771Y-26877443D01*
X44021924Y-26858447D01*
X44035592Y-26841792D01*
X44052247Y-26828124D01*
X44071243Y-26817971D01*
X44091862Y-26811716D01*
X44119440Y-26809000D01*
X44628160Y-26809000D01*
X44655738Y-26811716D01*
G37*
G36*
X19033828Y-25713303D02*
G01*
X19188700Y-25777453D01*
X19328081Y-25870585D01*
X19446615Y-25989119D01*
X19539747Y-26128500D01*
X19603897Y-26283372D01*
X19636600Y-26447784D01*
X19636600Y-26615416D01*
X19603897Y-26779828D01*
X19539747Y-26934700D01*
X19446615Y-27074081D01*
X19328081Y-27192615D01*
X19188700Y-27285747D01*
X19033828Y-27349897D01*
X18869416Y-27382600D01*
X18701784Y-27382600D01*
X18537372Y-27349897D01*
X18382500Y-27285747D01*
X18243119Y-27192615D01*
X18124585Y-27074081D01*
X18031453Y-26934700D01*
X17967303Y-26779828D01*
X17934600Y-26615416D01*
X17934600Y-26447784D01*
X17967303Y-26283372D01*
X18031453Y-26128500D01*
X18124585Y-25989119D01*
X18243119Y-25870585D01*
X18382500Y-25777453D01*
X18537372Y-25713303D01*
X18701784Y-25680600D01*
X18869416Y-25680600D01*
X19033828Y-25713303D01*
G37*
G36*
X3793828Y-25713303D02*
G01*
X3948700Y-25777453D01*
X4088081Y-25870585D01*
X4206615Y-25989119D01*
X4299747Y-26128500D01*
X4363897Y-26283372D01*
X4396600Y-26447784D01*
X4396600Y-26615416D01*
X4363897Y-26779828D01*
X4299747Y-26934700D01*
X4206615Y-27074081D01*
X4088081Y-27192615D01*
X3948700Y-27285747D01*
X3793828Y-27349897D01*
X3629416Y-27382600D01*
X3461784Y-27382600D01*
X3297372Y-27349897D01*
X3142500Y-27285747D01*
X3003119Y-27192615D01*
X2884585Y-27074081D01*
X2791453Y-26934700D01*
X2727303Y-26779828D01*
X2694600Y-26615416D01*
X2694600Y-26447784D01*
X2727303Y-26283372D01*
X2791453Y-26128500D01*
X2884585Y-25989119D01*
X3003119Y-25870585D01*
X3142500Y-25777453D01*
X3297372Y-25713303D01*
X3461784Y-25680600D01*
X3629416Y-25680600D01*
X3793828Y-25713303D01*
G37*
G36*
X29999938Y-26354516D02*
G01*
X30020557Y-26360771D01*
X30039553Y-26370924D01*
X30056208Y-26384592D01*
X30069876Y-26401247D01*
X30080029Y-26420243D01*
X30086284Y-26440862D01*
X30089000Y-26468440D01*
X30089000Y-26927160D01*
X30086284Y-26954738D01*
X30080029Y-26975357D01*
X30069876Y-26994353D01*
X30056208Y-27011008D01*
X30039553Y-27024676D01*
X30020557Y-27034829D01*
X29999938Y-27041084D01*
X29972360Y-27043800D01*
X29463640Y-27043800D01*
X29436062Y-27041084D01*
X29415443Y-27034829D01*
X29396447Y-27024676D01*
X29379792Y-27011008D01*
X29366124Y-26994353D01*
X29355971Y-26975357D01*
X29349716Y-26954738D01*
X29347000Y-26927160D01*
X29347000Y-26468440D01*
X29349716Y-26440862D01*
X29355971Y-26420243D01*
X29366124Y-26401247D01*
X29379792Y-26384592D01*
X29396447Y-26370924D01*
X29415443Y-26360771D01*
X29436062Y-26354516D01*
X29463640Y-26351800D01*
X29972360Y-26351800D01*
X29999938Y-26354516D01*
G37*
G36*
X50802538Y-26222716D02*
G01*
X50823157Y-26228971D01*
X50842153Y-26239124D01*
X50858808Y-26252792D01*
X50872476Y-26269447D01*
X50882629Y-26288443D01*
X50888884Y-26309062D01*
X50891600Y-26336640D01*
X50891600Y-26795360D01*
X50888884Y-26822938D01*
X50882629Y-26843557D01*
X50872476Y-26862553D01*
X50858808Y-26879208D01*
X50842153Y-26892876D01*
X50823157Y-26903029D01*
X50802538Y-26909284D01*
X50774960Y-26912000D01*
X50266240Y-26912000D01*
X50238662Y-26909284D01*
X50218043Y-26903029D01*
X50199047Y-26892876D01*
X50182392Y-26879208D01*
X50168724Y-26862553D01*
X50158571Y-26843557D01*
X50152316Y-26822938D01*
X50149600Y-26795360D01*
X50149600Y-26336640D01*
X50152316Y-26309062D01*
X50158571Y-26288443D01*
X50168724Y-26269447D01*
X50182392Y-26252792D01*
X50199047Y-26239124D01*
X50218043Y-26228971D01*
X50238662Y-26222716D01*
X50266240Y-26220000D01*
X50774960Y-26220000D01*
X50802538Y-26222716D01*
G37*
G36*
X11407138Y-26176716D02*
G01*
X11427757Y-26182971D01*
X11446753Y-26193124D01*
X11463408Y-26206792D01*
X11477076Y-26223447D01*
X11487229Y-26242443D01*
X11493484Y-26263062D01*
X11496200Y-26290640D01*
X11496200Y-26749360D01*
X11493484Y-26776938D01*
X11487229Y-26797557D01*
X11477076Y-26816553D01*
X11463408Y-26833208D01*
X11446753Y-26846876D01*
X11427757Y-26857029D01*
X11407138Y-26863284D01*
X11379560Y-26866000D01*
X10870840Y-26866000D01*
X10843262Y-26863284D01*
X10822643Y-26857029D01*
X10803647Y-26846876D01*
X10786992Y-26833208D01*
X10773324Y-26816553D01*
X10763171Y-26797557D01*
X10756916Y-26776938D01*
X10754200Y-26749360D01*
X10754200Y-26290640D01*
X10756916Y-26263062D01*
X10763171Y-26242443D01*
X10773324Y-26223447D01*
X10786992Y-26206792D01*
X10803647Y-26193124D01*
X10822643Y-26182971D01*
X10843262Y-26176716D01*
X10870840Y-26174000D01*
X11379560Y-26174000D01*
X11407138Y-26176716D01*
G37*
G36*
X36146738Y-26049716D02*
G01*
X36167357Y-26055971D01*
X36186353Y-26066124D01*
X36203008Y-26079792D01*
X36216676Y-26096447D01*
X36226829Y-26115443D01*
X36233084Y-26136062D01*
X36235800Y-26163640D01*
X36235800Y-26622360D01*
X36233084Y-26649938D01*
X36226829Y-26670557D01*
X36216676Y-26689553D01*
X36203008Y-26706208D01*
X36186353Y-26719876D01*
X36167357Y-26730029D01*
X36146738Y-26736284D01*
X36119160Y-26739000D01*
X35610440Y-26739000D01*
X35582862Y-26736284D01*
X35562243Y-26730029D01*
X35543247Y-26719876D01*
X35526592Y-26706208D01*
X35512924Y-26689553D01*
X35502771Y-26670557D01*
X35496516Y-26649938D01*
X35493800Y-26622360D01*
X35493800Y-26163640D01*
X35496516Y-26136062D01*
X35502771Y-26115443D01*
X35512924Y-26096447D01*
X35526592Y-26079792D01*
X35543247Y-26066124D01*
X35562243Y-26055971D01*
X35582862Y-26049716D01*
X35610440Y-26047000D01*
X36119160Y-26047000D01*
X36146738Y-26049716D01*
G37*
G36*
X45798738Y-25841716D02*
G01*
X45819357Y-25847971D01*
X45838353Y-25858124D01*
X45855008Y-25871792D01*
X45868676Y-25888447D01*
X45878829Y-25907443D01*
X45885084Y-25928062D01*
X45887800Y-25955640D01*
X45887800Y-26414360D01*
X45885084Y-26441938D01*
X45878829Y-26462557D01*
X45868676Y-26481553D01*
X45855008Y-26498208D01*
X45838353Y-26511876D01*
X45819357Y-26522029D01*
X45798738Y-26528284D01*
X45771160Y-26531000D01*
X45262440Y-26531000D01*
X45234862Y-26528284D01*
X45214243Y-26522029D01*
X45195247Y-26511876D01*
X45178592Y-26498208D01*
X45164924Y-26481553D01*
X45154771Y-26462557D01*
X45148516Y-26441938D01*
X45145800Y-26414360D01*
X45145800Y-25955640D01*
X45148516Y-25928062D01*
X45154771Y-25907443D01*
X45164924Y-25888447D01*
X45178592Y-25871792D01*
X45195247Y-25858124D01*
X45214243Y-25847971D01*
X45234862Y-25841716D01*
X45262440Y-25839000D01*
X45771160Y-25839000D01*
X45798738Y-25841716D01*
G37*
G36*
X40210738Y-25841716D02*
G01*
X40231357Y-25847971D01*
X40250353Y-25858124D01*
X40267008Y-25871792D01*
X40280676Y-25888447D01*
X40290829Y-25907443D01*
X40297084Y-25928062D01*
X40299800Y-25955640D01*
X40299800Y-26414360D01*
X40297084Y-26441938D01*
X40290829Y-26462557D01*
X40280676Y-26481553D01*
X40267008Y-26498208D01*
X40250353Y-26511876D01*
X40231357Y-26522029D01*
X40210738Y-26528284D01*
X40183160Y-26531000D01*
X39674440Y-26531000D01*
X39646862Y-26528284D01*
X39626243Y-26522029D01*
X39607247Y-26511876D01*
X39590592Y-26498208D01*
X39576924Y-26481553D01*
X39566771Y-26462557D01*
X39560516Y-26441938D01*
X39557800Y-26414360D01*
X39557800Y-25955640D01*
X39560516Y-25928062D01*
X39566771Y-25907443D01*
X39576924Y-25888447D01*
X39590592Y-25871792D01*
X39607247Y-25858124D01*
X39626243Y-25847971D01*
X39646862Y-25841716D01*
X39674440Y-25839000D01*
X40183160Y-25839000D01*
X40210738Y-25841716D01*
G37*
G36*
X44655738Y-25841716D02*
G01*
X44676357Y-25847971D01*
X44695353Y-25858124D01*
X44712008Y-25871792D01*
X44725676Y-25888447D01*
X44735829Y-25907443D01*
X44742084Y-25928062D01*
X44744800Y-25955640D01*
X44744800Y-26414360D01*
X44742084Y-26441938D01*
X44735829Y-26462557D01*
X44725676Y-26481553D01*
X44712008Y-26498208D01*
X44695353Y-26511876D01*
X44676357Y-26522029D01*
X44655738Y-26528284D01*
X44628160Y-26531000D01*
X44119440Y-26531000D01*
X44091862Y-26528284D01*
X44071243Y-26522029D01*
X44052247Y-26511876D01*
X44035592Y-26498208D01*
X44021924Y-26481553D01*
X44011771Y-26462557D01*
X44005516Y-26441938D01*
X44002800Y-26414360D01*
X44002800Y-25955640D01*
X44005516Y-25928062D01*
X44011771Y-25907443D01*
X44021924Y-25888447D01*
X44035592Y-25871792D01*
X44052247Y-25858124D01*
X44071243Y-25847971D01*
X44091862Y-25841716D01*
X44119440Y-25839000D01*
X44628160Y-25839000D01*
X44655738Y-25841716D01*
G37*
G36*
X28526738Y-25841716D02*
G01*
X28547357Y-25847971D01*
X28566353Y-25858124D01*
X28583008Y-25871792D01*
X28596676Y-25888447D01*
X28606829Y-25907443D01*
X28613084Y-25928062D01*
X28615800Y-25955640D01*
X28615800Y-26414360D01*
X28613084Y-26441938D01*
X28606829Y-26462557D01*
X28596676Y-26481553D01*
X28583008Y-26498208D01*
X28566353Y-26511876D01*
X28547357Y-26522029D01*
X28526738Y-26528284D01*
X28499160Y-26531000D01*
X27990440Y-26531000D01*
X27962862Y-26528284D01*
X27942243Y-26522029D01*
X27923247Y-26511876D01*
X27906592Y-26498208D01*
X27892924Y-26481553D01*
X27882771Y-26462557D01*
X27876516Y-26441938D01*
X27873800Y-26414360D01*
X27873800Y-25955640D01*
X27876516Y-25928062D01*
X27882771Y-25907443D01*
X27892924Y-25888447D01*
X27906592Y-25871792D01*
X27923247Y-25858124D01*
X27942243Y-25847971D01*
X27962862Y-25841716D01*
X27990440Y-25839000D01*
X28499160Y-25839000D01*
X28526738Y-25841716D01*
G37*
G36*
X29999938Y-25384516D02*
G01*
X30020557Y-25390771D01*
X30039553Y-25400924D01*
X30056208Y-25414592D01*
X30069876Y-25431247D01*
X30080029Y-25450243D01*
X30086284Y-25470862D01*
X30089000Y-25498440D01*
X30089000Y-25957160D01*
X30086284Y-25984738D01*
X30080029Y-26005357D01*
X30069876Y-26024353D01*
X30056208Y-26041008D01*
X30039553Y-26054676D01*
X30020557Y-26064829D01*
X29999938Y-26071084D01*
X29972360Y-26073800D01*
X29463640Y-26073800D01*
X29436062Y-26071084D01*
X29415443Y-26064829D01*
X29396447Y-26054676D01*
X29379792Y-26041008D01*
X29366124Y-26024353D01*
X29355971Y-26005357D01*
X29349716Y-25984738D01*
X29347000Y-25957160D01*
X29347000Y-25498440D01*
X29349716Y-25470862D01*
X29355971Y-25450243D01*
X29366124Y-25431247D01*
X29379792Y-25414592D01*
X29396447Y-25400924D01*
X29415443Y-25390771D01*
X29436062Y-25384516D01*
X29463640Y-25381800D01*
X29972360Y-25381800D01*
X29999938Y-25384516D01*
G37*
G36*
X11407138Y-25206716D02*
G01*
X11427757Y-25212971D01*
X11446753Y-25223124D01*
X11463408Y-25236792D01*
X11477076Y-25253447D01*
X11487229Y-25272443D01*
X11493484Y-25293062D01*
X11496200Y-25320640D01*
X11496200Y-25779360D01*
X11493484Y-25806938D01*
X11487229Y-25827557D01*
X11477076Y-25846553D01*
X11463408Y-25863208D01*
X11446753Y-25876876D01*
X11427757Y-25887029D01*
X11407138Y-25893284D01*
X11379560Y-25896000D01*
X10870840Y-25896000D01*
X10843262Y-25893284D01*
X10822643Y-25887029D01*
X10803647Y-25876876D01*
X10786992Y-25863208D01*
X10773324Y-25846553D01*
X10763171Y-25827557D01*
X10756916Y-25806938D01*
X10754200Y-25779360D01*
X10754200Y-25320640D01*
X10756916Y-25293062D01*
X10763171Y-25272443D01*
X10773324Y-25253447D01*
X10786992Y-25236792D01*
X10803647Y-25223124D01*
X10822643Y-25212971D01*
X10843262Y-25206716D01*
X10870840Y-25204000D01*
X11379560Y-25204000D01*
X11407138Y-25206716D01*
G37*
G36*
X36146738Y-25079716D02*
G01*
X36167357Y-25085971D01*
X36186353Y-25096124D01*
X36203008Y-25109792D01*
X36216676Y-25126447D01*
X36226829Y-25145443D01*
X36233084Y-25166062D01*
X36235800Y-25193640D01*
X36235800Y-25652360D01*
X36233084Y-25679938D01*
X36226829Y-25700557D01*
X36216676Y-25719553D01*
X36203008Y-25736208D01*
X36186353Y-25749876D01*
X36167357Y-25760029D01*
X36146738Y-25766284D01*
X36119160Y-25769000D01*
X35610440Y-25769000D01*
X35582862Y-25766284D01*
X35562243Y-25760029D01*
X35543247Y-25749876D01*
X35526592Y-25736208D01*
X35512924Y-25719553D01*
X35502771Y-25700557D01*
X35496516Y-25679938D01*
X35493800Y-25652360D01*
X35493800Y-25193640D01*
X35496516Y-25166062D01*
X35502771Y-25145443D01*
X35512924Y-25126447D01*
X35526592Y-25109792D01*
X35543247Y-25096124D01*
X35562243Y-25085971D01*
X35582862Y-25079716D01*
X35610440Y-25077000D01*
X36119160Y-25077000D01*
X36146738Y-25079716D01*
G37*
G36*
X19033828Y-23173303D02*
G01*
X19188700Y-23237453D01*
X19328081Y-23330585D01*
X19446615Y-23449119D01*
X19539747Y-23588500D01*
X19603897Y-23743372D01*
X19636600Y-23907784D01*
X19636600Y-24075416D01*
X19603897Y-24239828D01*
X19539747Y-24394700D01*
X19446615Y-24534081D01*
X19328081Y-24652615D01*
X19188700Y-24745747D01*
X19033828Y-24809897D01*
X18869416Y-24842600D01*
X18701784Y-24842600D01*
X18537372Y-24809897D01*
X18382500Y-24745747D01*
X18243119Y-24652615D01*
X18124585Y-24534081D01*
X18031453Y-24394700D01*
X17967303Y-24239828D01*
X17934600Y-24075416D01*
X17934600Y-23907784D01*
X17967303Y-23743372D01*
X18031453Y-23588500D01*
X18124585Y-23449119D01*
X18243119Y-23330585D01*
X18382500Y-23237453D01*
X18537372Y-23173303D01*
X18701784Y-23140600D01*
X18869416Y-23140600D01*
X19033828Y-23173303D01*
G37*
G36*
X3793828Y-23173303D02*
G01*
X3948700Y-23237453D01*
X4088081Y-23330585D01*
X4206615Y-23449119D01*
X4299747Y-23588500D01*
X4363897Y-23743372D01*
X4396600Y-23907784D01*
X4396600Y-24075416D01*
X4363897Y-24239828D01*
X4299747Y-24394700D01*
X4206615Y-24534081D01*
X4088081Y-24652615D01*
X3948700Y-24745747D01*
X3793828Y-24809897D01*
X3629416Y-24842600D01*
X3461784Y-24842600D01*
X3297372Y-24809897D01*
X3142500Y-24745747D01*
X3003119Y-24652615D01*
X2884585Y-24534081D01*
X2791453Y-24394700D01*
X2727303Y-24239828D01*
X2694600Y-24075416D01*
X2694600Y-23907784D01*
X2727303Y-23743372D01*
X2791453Y-23588500D01*
X2884585Y-23449119D01*
X3003119Y-23330585D01*
X3142500Y-23237453D01*
X3297372Y-23173303D01*
X3461784Y-23140600D01*
X3629416Y-23140600D01*
X3793828Y-23173303D01*
G37*
G36*
X32971738Y-22620716D02*
G01*
X32992357Y-22626971D01*
X33011353Y-22637124D01*
X33028008Y-22650792D01*
X33041676Y-22667447D01*
X33051829Y-22686443D01*
X33058084Y-22707062D01*
X33060800Y-22734640D01*
X33060800Y-23193360D01*
X33058084Y-23220938D01*
X33051829Y-23241557D01*
X33041676Y-23260553D01*
X33028008Y-23277208D01*
X33011353Y-23290876D01*
X32992357Y-23301029D01*
X32971738Y-23307284D01*
X32944160Y-23310000D01*
X32435440Y-23310000D01*
X32407862Y-23307284D01*
X32387243Y-23301029D01*
X32368247Y-23290876D01*
X32351592Y-23277208D01*
X32337924Y-23260553D01*
X32327771Y-23241557D01*
X32321516Y-23220938D01*
X32318800Y-23193360D01*
X32318800Y-22734640D01*
X32321516Y-22707062D01*
X32327771Y-22686443D01*
X32337924Y-22667447D01*
X32351592Y-22650792D01*
X32368247Y-22637124D01*
X32387243Y-22626971D01*
X32407862Y-22620716D01*
X32435440Y-22618000D01*
X32944160Y-22618000D01*
X32971738Y-22620716D01*
G37*
G36*
X32971738Y-21650716D02*
G01*
X32992357Y-21656971D01*
X33011353Y-21667124D01*
X33028008Y-21680792D01*
X33041676Y-21697447D01*
X33051829Y-21716443D01*
X33058084Y-21737062D01*
X33060800Y-21764640D01*
X33060800Y-22223360D01*
X33058084Y-22250938D01*
X33051829Y-22271557D01*
X33041676Y-22290553D01*
X33028008Y-22307208D01*
X33011353Y-22320876D01*
X32992357Y-22331029D01*
X32971738Y-22337284D01*
X32944160Y-22340000D01*
X32435440Y-22340000D01*
X32407862Y-22337284D01*
X32387243Y-22331029D01*
X32368247Y-22320876D01*
X32351592Y-22307208D01*
X32337924Y-22290553D01*
X32327771Y-22271557D01*
X32321516Y-22250938D01*
X32318800Y-22223360D01*
X32318800Y-21764640D01*
X32321516Y-21737062D01*
X32327771Y-21716443D01*
X32337924Y-21697447D01*
X32351592Y-21680792D01*
X32368247Y-21667124D01*
X32387243Y-21656971D01*
X32407862Y-21650716D01*
X32435440Y-21648000D01*
X32944160Y-21648000D01*
X32971738Y-21650716D01*
G37*
G36*
X3793828Y-20633303D02*
G01*
X3948700Y-20697453D01*
X4088081Y-20790585D01*
X4206615Y-20909119D01*
X4299747Y-21048500D01*
X4363897Y-21203372D01*
X4396600Y-21367784D01*
X4396600Y-21535416D01*
X4363897Y-21699828D01*
X4299747Y-21854700D01*
X4206615Y-21994081D01*
X4088081Y-22112615D01*
X3948700Y-22205747D01*
X3793828Y-22269897D01*
X3629416Y-22302600D01*
X3461784Y-22302600D01*
X3297372Y-22269897D01*
X3142500Y-22205747D01*
X3003119Y-22112615D01*
X2884585Y-21994081D01*
X2791453Y-21854700D01*
X2727303Y-21699828D01*
X2694600Y-21535416D01*
X2694600Y-21367784D01*
X2727303Y-21203372D01*
X2791453Y-21048500D01*
X2884585Y-20909119D01*
X3003119Y-20790585D01*
X3142500Y-20697453D01*
X3297372Y-20633303D01*
X3461784Y-20600600D01*
X3629416Y-20600600D01*
X3793828Y-20633303D01*
G37*
G36*
X19033828Y-20633303D02*
G01*
X19188700Y-20697453D01*
X19328081Y-20790585D01*
X19446615Y-20909119D01*
X19539747Y-21048500D01*
X19603897Y-21203372D01*
X19636600Y-21367784D01*
X19636600Y-21535416D01*
X19603897Y-21699828D01*
X19539747Y-21854700D01*
X19446615Y-21994081D01*
X19328081Y-22112615D01*
X19188700Y-22205747D01*
X19033828Y-22269897D01*
X18869416Y-22302600D01*
X18701784Y-22302600D01*
X18537372Y-22269897D01*
X18382500Y-22205747D01*
X18243119Y-22112615D01*
X18124585Y-21994081D01*
X18031453Y-21854700D01*
X17967303Y-21699828D01*
X17934600Y-21535416D01*
X17934600Y-21367784D01*
X17967303Y-21203372D01*
X18031453Y-21048500D01*
X18124585Y-20909119D01*
X18243119Y-20790585D01*
X18382500Y-20697453D01*
X18537372Y-20633303D01*
X18701784Y-20600600D01*
X18869416Y-20600600D01*
X19033828Y-20633303D01*
G37*
G36*
X51005738Y-20842716D02*
G01*
X51026357Y-20848971D01*
X51045353Y-20859124D01*
X51062008Y-20872792D01*
X51075676Y-20889447D01*
X51085829Y-20908443D01*
X51092084Y-20929062D01*
X51094800Y-20956640D01*
X51094800Y-21415360D01*
X51092084Y-21442938D01*
X51085829Y-21463557D01*
X51075676Y-21482553D01*
X51062008Y-21499208D01*
X51045353Y-21512876D01*
X51026357Y-21523029D01*
X51005738Y-21529284D01*
X50978160Y-21532000D01*
X50469440Y-21532000D01*
X50441862Y-21529284D01*
X50421243Y-21523029D01*
X50402247Y-21512876D01*
X50385592Y-21499208D01*
X50371924Y-21482553D01*
X50361771Y-21463557D01*
X50355516Y-21442938D01*
X50352800Y-21415360D01*
X50352800Y-20956640D01*
X50355516Y-20929062D01*
X50361771Y-20908443D01*
X50371924Y-20889447D01*
X50385592Y-20872792D01*
X50402247Y-20859124D01*
X50421243Y-20848971D01*
X50441862Y-20842716D01*
X50469440Y-20840000D01*
X50978160Y-20840000D01*
X51005738Y-20842716D01*
G37*
G36*
X11314912Y-19500127D02*
G01*
X11464212Y-19529824D01*
X11628184Y-19597744D01*
X11775754Y-19696347D01*
X11901253Y-19821846D01*
X11999856Y-19969416D01*
X12067776Y-20133388D01*
X12095985Y-20275208D01*
X12102204Y-20306471D01*
X12102400Y-20307459D01*
X12102400Y-20484941D01*
X12067776Y-20659012D01*
X11999856Y-20822984D01*
X11901253Y-20970554D01*
X11775754Y-21096053D01*
X11628184Y-21194656D01*
X11464212Y-21262576D01*
X11314912Y-21292273D01*
X11290142Y-21297200D01*
X11112658Y-21297200D01*
X11087888Y-21292273D01*
X10938588Y-21262576D01*
X10774616Y-21194656D01*
X10627046Y-21096053D01*
X10501547Y-20970554D01*
X10402944Y-20822984D01*
X10335024Y-20659012D01*
X10300400Y-20484941D01*
X10300400Y-20307459D01*
X10300597Y-20306471D01*
X10306815Y-20275208D01*
X10335024Y-20133388D01*
X10402944Y-19969416D01*
X10501547Y-19821846D01*
X10627046Y-19696347D01*
X10774616Y-19597744D01*
X10938588Y-19529824D01*
X11087888Y-19500127D01*
X11112658Y-19495200D01*
X11290142Y-19495200D01*
X11314912Y-19500127D01*
G37*
G36*
X36400738Y-20588716D02*
G01*
X36421357Y-20594971D01*
X36440353Y-20605124D01*
X36457008Y-20618792D01*
X36470676Y-20635447D01*
X36480829Y-20654443D01*
X36487084Y-20675062D01*
X36489800Y-20702640D01*
X36489800Y-21161360D01*
X36487084Y-21188938D01*
X36480829Y-21209557D01*
X36470676Y-21228553D01*
X36457008Y-21245208D01*
X36440353Y-21258876D01*
X36421357Y-21269029D01*
X36400738Y-21275284D01*
X36373160Y-21278000D01*
X35864440Y-21278000D01*
X35836862Y-21275284D01*
X35816243Y-21269029D01*
X35797247Y-21258876D01*
X35780592Y-21245208D01*
X35766924Y-21228553D01*
X35756771Y-21209557D01*
X35750516Y-21188938D01*
X35747800Y-21161360D01*
X35747800Y-20702640D01*
X35750516Y-20675062D01*
X35756771Y-20654443D01*
X35766924Y-20635447D01*
X35780592Y-20618792D01*
X35797247Y-20605124D01*
X35816243Y-20594971D01*
X35836862Y-20588716D01*
X35864440Y-20586000D01*
X36373160Y-20586000D01*
X36400738Y-20588716D01*
G37*
G36*
X24056338Y-20258516D02*
G01*
X24076957Y-20264771D01*
X24095953Y-20274924D01*
X24112608Y-20288592D01*
X24126276Y-20305247D01*
X24136429Y-20324243D01*
X24142684Y-20344862D01*
X24145400Y-20372440D01*
X24145400Y-20831160D01*
X24142684Y-20858738D01*
X24136429Y-20879357D01*
X24126276Y-20898353D01*
X24112608Y-20915008D01*
X24095953Y-20928676D01*
X24076957Y-20938829D01*
X24056338Y-20945084D01*
X24028760Y-20947800D01*
X23520040Y-20947800D01*
X23492462Y-20945084D01*
X23471843Y-20938829D01*
X23452847Y-20928676D01*
X23436192Y-20915008D01*
X23422524Y-20898353D01*
X23412371Y-20879357D01*
X23406116Y-20858738D01*
X23403400Y-20831160D01*
X23403400Y-20372440D01*
X23406116Y-20344862D01*
X23412371Y-20324243D01*
X23422524Y-20305247D01*
X23436192Y-20288592D01*
X23452847Y-20274924D01*
X23471843Y-20264771D01*
X23492462Y-20258516D01*
X23520040Y-20255800D01*
X24028760Y-20255800D01*
X24056338Y-20258516D01*
G37*
G36*
X51005738Y-19872716D02*
G01*
X51026357Y-19878971D01*
X51045353Y-19889124D01*
X51062008Y-19902792D01*
X51075676Y-19919447D01*
X51085829Y-19938443D01*
X51092084Y-19959062D01*
X51094800Y-19986640D01*
X51094800Y-20445360D01*
X51092084Y-20472938D01*
X51085829Y-20493557D01*
X51075676Y-20512553D01*
X51062008Y-20529208D01*
X51045353Y-20542876D01*
X51026357Y-20553029D01*
X51005738Y-20559284D01*
X50978160Y-20562000D01*
X50469440Y-20562000D01*
X50441862Y-20559284D01*
X50421243Y-20553029D01*
X50402247Y-20542876D01*
X50385592Y-20529208D01*
X50371924Y-20512553D01*
X50361771Y-20493557D01*
X50355516Y-20472938D01*
X50352800Y-20445360D01*
X50352800Y-19986640D01*
X50355516Y-19959062D01*
X50361771Y-19938443D01*
X50371924Y-19919447D01*
X50385592Y-19902792D01*
X50402247Y-19889124D01*
X50421243Y-19878971D01*
X50441862Y-19872716D01*
X50469440Y-19870000D01*
X50978160Y-19870000D01*
X51005738Y-19872716D01*
G37*
G36*
X36400738Y-19618716D02*
G01*
X36421357Y-19624971D01*
X36440353Y-19635124D01*
X36457008Y-19648792D01*
X36470676Y-19665447D01*
X36480829Y-19684443D01*
X36487084Y-19705062D01*
X36489800Y-19732640D01*
X36489800Y-20191360D01*
X36487084Y-20218938D01*
X36480829Y-20239557D01*
X36470676Y-20258553D01*
X36457008Y-20275208D01*
X36440353Y-20288876D01*
X36421357Y-20299029D01*
X36400738Y-20305284D01*
X36373160Y-20308000D01*
X35864440Y-20308000D01*
X35836862Y-20305284D01*
X35816243Y-20299029D01*
X35797247Y-20288876D01*
X35780592Y-20275208D01*
X35766924Y-20258553D01*
X35756771Y-20239557D01*
X35750516Y-20218938D01*
X35747800Y-20191360D01*
X35747800Y-19732640D01*
X35750516Y-19705062D01*
X35756771Y-19684443D01*
X35766924Y-19665447D01*
X35780592Y-19648792D01*
X35797247Y-19635124D01*
X35816243Y-19624971D01*
X35836862Y-19618716D01*
X35864440Y-19616000D01*
X36373160Y-19616000D01*
X36400738Y-19618716D01*
G37*
G36*
X44145738Y-19443716D02*
G01*
X44166357Y-19449971D01*
X44185353Y-19460124D01*
X44202008Y-19473792D01*
X44215676Y-19490447D01*
X44225829Y-19509443D01*
X44232084Y-19530062D01*
X44234800Y-19557640D01*
X44234800Y-20066360D01*
X44232084Y-20093938D01*
X44225829Y-20114557D01*
X44215676Y-20133553D01*
X44202008Y-20150208D01*
X44185353Y-20163876D01*
X44166357Y-20174029D01*
X44145738Y-20180284D01*
X44118160Y-20183000D01*
X43659440Y-20183000D01*
X43631862Y-20180284D01*
X43611243Y-20174029D01*
X43592247Y-20163876D01*
X43575592Y-20150208D01*
X43561924Y-20133553D01*
X43551771Y-20114557D01*
X43545516Y-20093938D01*
X43542800Y-20066360D01*
X43542800Y-19557640D01*
X43545516Y-19530062D01*
X43551771Y-19509443D01*
X43561924Y-19490447D01*
X43575592Y-19473792D01*
X43592247Y-19460124D01*
X43611243Y-19449971D01*
X43631862Y-19443716D01*
X43659440Y-19441000D01*
X44118160Y-19441000D01*
X44145738Y-19443716D01*
G37*
G36*
X45115738Y-19443716D02*
G01*
X45136357Y-19449971D01*
X45155353Y-19460124D01*
X45172008Y-19473792D01*
X45185676Y-19490447D01*
X45195829Y-19509443D01*
X45202084Y-19530062D01*
X45204800Y-19557640D01*
X45204800Y-20066360D01*
X45202084Y-20093938D01*
X45195829Y-20114557D01*
X45185676Y-20133553D01*
X45172008Y-20150208D01*
X45155353Y-20163876D01*
X45136357Y-20174029D01*
X45115738Y-20180284D01*
X45088160Y-20183000D01*
X44629440Y-20183000D01*
X44601862Y-20180284D01*
X44581243Y-20174029D01*
X44562247Y-20163876D01*
X44545592Y-20150208D01*
X44531924Y-20133553D01*
X44521771Y-20114557D01*
X44515516Y-20093938D01*
X44512800Y-20066360D01*
X44512800Y-19557640D01*
X44515516Y-19530062D01*
X44521771Y-19509443D01*
X44531924Y-19490447D01*
X44545592Y-19473792D01*
X44562247Y-19460124D01*
X44581243Y-19449971D01*
X44601862Y-19443716D01*
X44629440Y-19441000D01*
X45088160Y-19441000D01*
X45115738Y-19443716D01*
G37*
G36*
X24056338Y-19288516D02*
G01*
X24076957Y-19294771D01*
X24095953Y-19304924D01*
X24112608Y-19318592D01*
X24126276Y-19335247D01*
X24136429Y-19354243D01*
X24142684Y-19374862D01*
X24145400Y-19402440D01*
X24145400Y-19861160D01*
X24142684Y-19888738D01*
X24136429Y-19909357D01*
X24126276Y-19928353D01*
X24112608Y-19945008D01*
X24095953Y-19958676D01*
X24076957Y-19968829D01*
X24056338Y-19975084D01*
X24028760Y-19977800D01*
X23520040Y-19977800D01*
X23492462Y-19975084D01*
X23471843Y-19968829D01*
X23452847Y-19958676D01*
X23436192Y-19945008D01*
X23422524Y-19928353D01*
X23412371Y-19909357D01*
X23406116Y-19888738D01*
X23403400Y-19861160D01*
X23403400Y-19402440D01*
X23406116Y-19374862D01*
X23412371Y-19354243D01*
X23422524Y-19335247D01*
X23436192Y-19318592D01*
X23452847Y-19304924D01*
X23471843Y-19294771D01*
X23492462Y-19288516D01*
X23520040Y-19285800D01*
X24028760Y-19285800D01*
X24056338Y-19288516D01*
G37*
G36*
X19033828Y-18093303D02*
G01*
X19188700Y-18157453D01*
X19328081Y-18250585D01*
X19446615Y-18369119D01*
X19539747Y-18508500D01*
X19603897Y-18663372D01*
X19636600Y-18827784D01*
X19636600Y-18995416D01*
X19603897Y-19159828D01*
X19539747Y-19314700D01*
X19446615Y-19454081D01*
X19328081Y-19572615D01*
X19188700Y-19665747D01*
X19033828Y-19729897D01*
X18869416Y-19762600D01*
X18701784Y-19762600D01*
X18537372Y-19729897D01*
X18382500Y-19665747D01*
X18243119Y-19572615D01*
X18124585Y-19454081D01*
X18031453Y-19314700D01*
X17967303Y-19159828D01*
X17934600Y-18995416D01*
X17934600Y-18827784D01*
X17967303Y-18663372D01*
X18031453Y-18508500D01*
X18124585Y-18369119D01*
X18243119Y-18250585D01*
X18382500Y-18157453D01*
X18537372Y-18093303D01*
X18701784Y-18060600D01*
X18869416Y-18060600D01*
X19033828Y-18093303D01*
G37*
G36*
X3793828Y-18093303D02*
G01*
X3948700Y-18157453D01*
X4088081Y-18250585D01*
X4206615Y-18369119D01*
X4299747Y-18508500D01*
X4363897Y-18663372D01*
X4396600Y-18827784D01*
X4396600Y-18995416D01*
X4363897Y-19159828D01*
X4299747Y-19314700D01*
X4206615Y-19454081D01*
X4088081Y-19572615D01*
X3948700Y-19665747D01*
X3793828Y-19729897D01*
X3629416Y-19762600D01*
X3461784Y-19762600D01*
X3297372Y-19729897D01*
X3142500Y-19665747D01*
X3003119Y-19572615D01*
X2884585Y-19454081D01*
X2791453Y-19314700D01*
X2727303Y-19159828D01*
X2694600Y-18995416D01*
X2694600Y-18827784D01*
X2727303Y-18663372D01*
X2791453Y-18508500D01*
X2884585Y-18369119D01*
X3003119Y-18250585D01*
X3142500Y-18157453D01*
X3297372Y-18093303D01*
X3461784Y-18060600D01*
X3629416Y-18060600D01*
X3793828Y-18093303D01*
G37*
G36*
X30383738Y-18935716D02*
G01*
X30404357Y-18941971D01*
X30423353Y-18952124D01*
X30440008Y-18965792D01*
X30453676Y-18982447D01*
X30463829Y-19001443D01*
X30470084Y-19022062D01*
X30472800Y-19049640D01*
X30472800Y-19558360D01*
X30470084Y-19585938D01*
X30463829Y-19606557D01*
X30453676Y-19625553D01*
X30440008Y-19642208D01*
X30423353Y-19655876D01*
X30404357Y-19666029D01*
X30383738Y-19672284D01*
X30356160Y-19675000D01*
X29897440Y-19675000D01*
X29869862Y-19672284D01*
X29849243Y-19666029D01*
X29830247Y-19655876D01*
X29813592Y-19642208D01*
X29799924Y-19625553D01*
X29789771Y-19606557D01*
X29783516Y-19585938D01*
X29780800Y-19558360D01*
X29780800Y-19049640D01*
X29783516Y-19022062D01*
X29789771Y-19001443D01*
X29799924Y-18982447D01*
X29813592Y-18965792D01*
X29830247Y-18952124D01*
X29849243Y-18941971D01*
X29869862Y-18935716D01*
X29897440Y-18933000D01*
X30356160Y-18933000D01*
X30383738Y-18935716D01*
G37*
G36*
X29413738Y-18935716D02*
G01*
X29434357Y-18941971D01*
X29453353Y-18952124D01*
X29470008Y-18965792D01*
X29483676Y-18982447D01*
X29493829Y-19001443D01*
X29500084Y-19022062D01*
X29502800Y-19049640D01*
X29502800Y-19558360D01*
X29500084Y-19585938D01*
X29493829Y-19606557D01*
X29483676Y-19625553D01*
X29470008Y-19642208D01*
X29453353Y-19655876D01*
X29434357Y-19666029D01*
X29413738Y-19672284D01*
X29386160Y-19675000D01*
X28927440Y-19675000D01*
X28899862Y-19672284D01*
X28879243Y-19666029D01*
X28860247Y-19655876D01*
X28843592Y-19642208D01*
X28829924Y-19625553D01*
X28819771Y-19606557D01*
X28813516Y-19585938D01*
X28810800Y-19558360D01*
X28810800Y-19049640D01*
X28813516Y-19022062D01*
X28819771Y-19001443D01*
X28829924Y-18982447D01*
X28843592Y-18965792D01*
X28860247Y-18952124D01*
X28879243Y-18941971D01*
X28899862Y-18935716D01*
X28927440Y-18933000D01*
X29386160Y-18933000D01*
X29413738Y-18935716D01*
G37*
G36*
X11314912Y-16960127D02*
G01*
X11464212Y-16989824D01*
X11628184Y-17057744D01*
X11775754Y-17156347D01*
X11901253Y-17281846D01*
X11999856Y-17429416D01*
X12067776Y-17593388D01*
X12102400Y-17767459D01*
X12102400Y-17944941D01*
X12067776Y-18119012D01*
X11999856Y-18282984D01*
X11901253Y-18430554D01*
X11775754Y-18556053D01*
X11628184Y-18654656D01*
X11464212Y-18722576D01*
X11314912Y-18752273D01*
X11290142Y-18757200D01*
X11112658Y-18757200D01*
X11087888Y-18752273D01*
X10938588Y-18722576D01*
X10774616Y-18654656D01*
X10627046Y-18556053D01*
X10501547Y-18430554D01*
X10402944Y-18282984D01*
X10335024Y-18119012D01*
X10300400Y-17944941D01*
X10300400Y-17767459D01*
X10335024Y-17593388D01*
X10402944Y-17429416D01*
X10501547Y-17281846D01*
X10627046Y-17156347D01*
X10774616Y-17057744D01*
X10938588Y-16989824D01*
X11087888Y-16960127D01*
X11112658Y-16955200D01*
X11290142Y-16955200D01*
X11314912Y-16960127D01*
G37*
G36*
X19033828Y-15553303D02*
G01*
X19188700Y-15617453D01*
X19328081Y-15710585D01*
X19446615Y-15829119D01*
X19539747Y-15968500D01*
X19603897Y-16123372D01*
X19636600Y-16287784D01*
X19636600Y-16455416D01*
X19603897Y-16619828D01*
X19539747Y-16774700D01*
X19446615Y-16914081D01*
X19328081Y-17032615D01*
X19188700Y-17125747D01*
X19033828Y-17189897D01*
X18869416Y-17222600D01*
X18701784Y-17222600D01*
X18537372Y-17189897D01*
X18382500Y-17125747D01*
X18243119Y-17032615D01*
X18124585Y-16914081D01*
X18031453Y-16774700D01*
X17967303Y-16619828D01*
X17934600Y-16455416D01*
X17934600Y-16287784D01*
X17967303Y-16123372D01*
X18031453Y-15968500D01*
X18124585Y-15829119D01*
X18243119Y-15710585D01*
X18382500Y-15617453D01*
X18537372Y-15553303D01*
X18701784Y-15520600D01*
X18869416Y-15520600D01*
X19033828Y-15553303D01*
G37*
G36*
X3793828Y-15553303D02*
G01*
X3948700Y-15617453D01*
X4088081Y-15710585D01*
X4206615Y-15829119D01*
X4299747Y-15968500D01*
X4363897Y-16123372D01*
X4396600Y-16287784D01*
X4396600Y-16455416D01*
X4363897Y-16619828D01*
X4299747Y-16774700D01*
X4206615Y-16914081D01*
X4088081Y-17032615D01*
X3948700Y-17125747D01*
X3793828Y-17189897D01*
X3629416Y-17222600D01*
X3461784Y-17222600D01*
X3297372Y-17189897D01*
X3142500Y-17125747D01*
X3003119Y-17032615D01*
X2884585Y-16914081D01*
X2791453Y-16774700D01*
X2727303Y-16619828D01*
X2694600Y-16455416D01*
X2694600Y-16287784D01*
X2727303Y-16123372D01*
X2791453Y-15968500D01*
X2884585Y-15829119D01*
X3003119Y-15710585D01*
X3142500Y-15617453D01*
X3297372Y-15553303D01*
X3461784Y-15520600D01*
X3629416Y-15520600D01*
X3793828Y-15553303D01*
G37*
G36*
X11314912Y-14420127D02*
G01*
X11464212Y-14449824D01*
X11628184Y-14517744D01*
X11775754Y-14616347D01*
X11901253Y-14741846D01*
X11999856Y-14889416D01*
X12067776Y-15053388D01*
X12102400Y-15227459D01*
X12102400Y-15404941D01*
X12067776Y-15579012D01*
X11999856Y-15742984D01*
X11901253Y-15890554D01*
X11775754Y-16016053D01*
X11628184Y-16114656D01*
X11464212Y-16182576D01*
X11314912Y-16212273D01*
X11290142Y-16217200D01*
X11112658Y-16217200D01*
X11087888Y-16212273D01*
X10938588Y-16182576D01*
X10774616Y-16114656D01*
X10627046Y-16016053D01*
X10501547Y-15890554D01*
X10402944Y-15742984D01*
X10335024Y-15579012D01*
X10300400Y-15404941D01*
X10300400Y-15227459D01*
X10335024Y-15053388D01*
X10402944Y-14889416D01*
X10501547Y-14741846D01*
X10627046Y-14616347D01*
X10774616Y-14517744D01*
X10938588Y-14449824D01*
X11087888Y-14420127D01*
X11112658Y-14415200D01*
X11290142Y-14415200D01*
X11314912Y-14420127D01*
G37*
G36*
X19033828Y-13013303D02*
G01*
X19188700Y-13077453D01*
X19328081Y-13170585D01*
X19446615Y-13289119D01*
X19539747Y-13428500D01*
X19603897Y-13583372D01*
X19636600Y-13747784D01*
X19636600Y-13915416D01*
X19603897Y-14079828D01*
X19539747Y-14234700D01*
X19446615Y-14374081D01*
X19328081Y-14492615D01*
X19188700Y-14585747D01*
X19033828Y-14649897D01*
X18869416Y-14682600D01*
X18701784Y-14682600D01*
X18537372Y-14649897D01*
X18382500Y-14585747D01*
X18243119Y-14492615D01*
X18124585Y-14374081D01*
X18031453Y-14234700D01*
X17967303Y-14079828D01*
X17934600Y-13915416D01*
X17934600Y-13747784D01*
X17967303Y-13583372D01*
X18031453Y-13428500D01*
X18124585Y-13289119D01*
X18243119Y-13170585D01*
X18382500Y-13077453D01*
X18537372Y-13013303D01*
X18701784Y-12980600D01*
X18869416Y-12980600D01*
X19033828Y-13013303D01*
G37*
G36*
X3793828Y-13013303D02*
G01*
X3948700Y-13077453D01*
X4088081Y-13170585D01*
X4206615Y-13289119D01*
X4299747Y-13428500D01*
X4363897Y-13583372D01*
X4396600Y-13747784D01*
X4396600Y-13915416D01*
X4363897Y-14079828D01*
X4299747Y-14234700D01*
X4206615Y-14374081D01*
X4088081Y-14492615D01*
X3948700Y-14585747D01*
X3793828Y-14649897D01*
X3629416Y-14682600D01*
X3461784Y-14682600D01*
X3297372Y-14649897D01*
X3142500Y-14585747D01*
X3003119Y-14492615D01*
X2884585Y-14374081D01*
X2791453Y-14234700D01*
X2727303Y-14079828D01*
X2694600Y-13915416D01*
X2694600Y-13747784D01*
X2727303Y-13583372D01*
X2791453Y-13428500D01*
X2884585Y-13289119D01*
X3003119Y-13170585D01*
X3142500Y-13077453D01*
X3297372Y-13013303D01*
X3461784Y-12980600D01*
X3629416Y-12980600D01*
X3793828Y-13013303D01*
G37*
G36*
X23319738Y-13984716D02*
G01*
X23340357Y-13990971D01*
X23359353Y-14001124D01*
X23376008Y-14014792D01*
X23389676Y-14031447D01*
X23399829Y-14050443D01*
X23406084Y-14071062D01*
X23408800Y-14098640D01*
X23408800Y-14557360D01*
X23406084Y-14584938D01*
X23399829Y-14605557D01*
X23389676Y-14624553D01*
X23376008Y-14641208D01*
X23359353Y-14654876D01*
X23340357Y-14665029D01*
X23319738Y-14671284D01*
X23292160Y-14674000D01*
X22783440Y-14674000D01*
X22755862Y-14671284D01*
X22735243Y-14665029D01*
X22716247Y-14654876D01*
X22699592Y-14641208D01*
X22685924Y-14624553D01*
X22675771Y-14605557D01*
X22669516Y-14584938D01*
X22666800Y-14557360D01*
X22666800Y-14098640D01*
X22669516Y-14071062D01*
X22675771Y-14050443D01*
X22685924Y-14031447D01*
X22699592Y-14014792D01*
X22716247Y-14001124D01*
X22735243Y-13990971D01*
X22755862Y-13984716D01*
X22783440Y-13982000D01*
X23292160Y-13982000D01*
X23319738Y-13984716D01*
G37*
G36*
X23319738Y-13014716D02*
G01*
X23340357Y-13020971D01*
X23359353Y-13031124D01*
X23376008Y-13044792D01*
X23389676Y-13061447D01*
X23399829Y-13080443D01*
X23406084Y-13101062D01*
X23408800Y-13128640D01*
X23408800Y-13587360D01*
X23406084Y-13614938D01*
X23399829Y-13635557D01*
X23389676Y-13654553D01*
X23376008Y-13671208D01*
X23359353Y-13684876D01*
X23340357Y-13695029D01*
X23319738Y-13701284D01*
X23292160Y-13704000D01*
X22783440Y-13704000D01*
X22755862Y-13701284D01*
X22735243Y-13695029D01*
X22716247Y-13684876D01*
X22699592Y-13671208D01*
X22685924Y-13654553D01*
X22675771Y-13635557D01*
X22669516Y-13614938D01*
X22666800Y-13587360D01*
X22666800Y-13128640D01*
X22669516Y-13101062D01*
X22675771Y-13080443D01*
X22685924Y-13061447D01*
X22699592Y-13044792D01*
X22716247Y-13031124D01*
X22735243Y-13020971D01*
X22755862Y-13014716D01*
X22783440Y-13012000D01*
X23292160Y-13012000D01*
X23319738Y-13014716D01*
G37*
G36*
X11314912Y-11880127D02*
G01*
X11464212Y-11909824D01*
X11628184Y-11977744D01*
X11775754Y-12076347D01*
X11901253Y-12201846D01*
X11999856Y-12349416D01*
X12067776Y-12513388D01*
X12102400Y-12687459D01*
X12102400Y-12864941D01*
X12067776Y-13039012D01*
X11999856Y-13202984D01*
X11901253Y-13350554D01*
X11775754Y-13476053D01*
X11628184Y-13574656D01*
X11464212Y-13642576D01*
X11314912Y-13672273D01*
X11290142Y-13677200D01*
X11112658Y-13677200D01*
X11087888Y-13672273D01*
X10938588Y-13642576D01*
X10774616Y-13574656D01*
X10627046Y-13476053D01*
X10501547Y-13350554D01*
X10402944Y-13202984D01*
X10335024Y-13039012D01*
X10300400Y-12864941D01*
X10300400Y-12687459D01*
X10335024Y-12513388D01*
X10402944Y-12349416D01*
X10501547Y-12201846D01*
X10627046Y-12076347D01*
X10774616Y-11977744D01*
X10938588Y-11909824D01*
X11087888Y-11880127D01*
X11112658Y-11875200D01*
X11290142Y-11875200D01*
X11314912Y-11880127D01*
G37*
G36*
X30101538Y-12790916D02*
G01*
X30122157Y-12797171D01*
X30141153Y-12807324D01*
X30157808Y-12820992D01*
X30171476Y-12837647D01*
X30181629Y-12856643D01*
X30187884Y-12877262D01*
X30190600Y-12904840D01*
X30190600Y-13363560D01*
X30187884Y-13391138D01*
X30181629Y-13411757D01*
X30171476Y-13430753D01*
X30157808Y-13447408D01*
X30141153Y-13461076D01*
X30122157Y-13471229D01*
X30101538Y-13477484D01*
X30073960Y-13480200D01*
X29565240Y-13480200D01*
X29537662Y-13477484D01*
X29517043Y-13471229D01*
X29498047Y-13461076D01*
X29481392Y-13447408D01*
X29467724Y-13430753D01*
X29457571Y-13411757D01*
X29451316Y-13391138D01*
X29448600Y-13363560D01*
X29448600Y-12904840D01*
X29451316Y-12877262D01*
X29457571Y-12856643D01*
X29467724Y-12837647D01*
X29481392Y-12820992D01*
X29498047Y-12807324D01*
X29517043Y-12797171D01*
X29537662Y-12790916D01*
X29565240Y-12788200D01*
X30073960Y-12788200D01*
X30101538Y-12790916D01*
G37*
G36*
X36654738Y-12079716D02*
G01*
X36675357Y-12085971D01*
X36694353Y-12096124D01*
X36711008Y-12109792D01*
X36724676Y-12126447D01*
X36734829Y-12145443D01*
X36741084Y-12166062D01*
X36743800Y-12193640D01*
X36743800Y-12652360D01*
X36741084Y-12679938D01*
X36734829Y-12700557D01*
X36724676Y-12719553D01*
X36711008Y-12736208D01*
X36694353Y-12749876D01*
X36675357Y-12760029D01*
X36654738Y-12766284D01*
X36627160Y-12769000D01*
X36118440Y-12769000D01*
X36090862Y-12766284D01*
X36070243Y-12760029D01*
X36051247Y-12749876D01*
X36034592Y-12736208D01*
X36020924Y-12719553D01*
X36010771Y-12700557D01*
X36004516Y-12679938D01*
X36001800Y-12652360D01*
X36001800Y-12193640D01*
X36004516Y-12166062D01*
X36010771Y-12145443D01*
X36020924Y-12126447D01*
X36034592Y-12109792D01*
X36051247Y-12096124D01*
X36070243Y-12085971D01*
X36090862Y-12079716D01*
X36118440Y-12077000D01*
X36627160Y-12077000D01*
X36654738Y-12079716D01*
G37*
G36*
X30101538Y-11820916D02*
G01*
X30122157Y-11827171D01*
X30141153Y-11837324D01*
X30157808Y-11850992D01*
X30171476Y-11867647D01*
X30181629Y-11886643D01*
X30187884Y-11907262D01*
X30190600Y-11934840D01*
X30190600Y-12393560D01*
X30187884Y-12421138D01*
X30181629Y-12441757D01*
X30171476Y-12460753D01*
X30157808Y-12477408D01*
X30141153Y-12491076D01*
X30122157Y-12501229D01*
X30101538Y-12507484D01*
X30073960Y-12510200D01*
X29565240Y-12510200D01*
X29537662Y-12507484D01*
X29517043Y-12501229D01*
X29498047Y-12491076D01*
X29481392Y-12477408D01*
X29467724Y-12460753D01*
X29457571Y-12441757D01*
X29451316Y-12421138D01*
X29448600Y-12393560D01*
X29448600Y-11934840D01*
X29451316Y-11907262D01*
X29457571Y-11886643D01*
X29467724Y-11867647D01*
X29481392Y-11850992D01*
X29498047Y-11837324D01*
X29517043Y-11827171D01*
X29537662Y-11820916D01*
X29565240Y-11818200D01*
X30073960Y-11818200D01*
X30101538Y-11820916D01*
G37*
G36*
X50929538Y-11647916D02*
G01*
X50950157Y-11654171D01*
X50969153Y-11664324D01*
X50985808Y-11677992D01*
X50999476Y-11694647D01*
X51009629Y-11713643D01*
X51015884Y-11734262D01*
X51018600Y-11761840D01*
X51018600Y-12220560D01*
X51015884Y-12248138D01*
X51009629Y-12268757D01*
X50999476Y-12287753D01*
X50985808Y-12304408D01*
X50969153Y-12318076D01*
X50950157Y-12328229D01*
X50929538Y-12334484D01*
X50901960Y-12337200D01*
X50393240Y-12337200D01*
X50365662Y-12334484D01*
X50345043Y-12328229D01*
X50326047Y-12318076D01*
X50309392Y-12304408D01*
X50295724Y-12287753D01*
X50285571Y-12268757D01*
X50279316Y-12248138D01*
X50276600Y-12220560D01*
X50276600Y-11761840D01*
X50279316Y-11734262D01*
X50285571Y-11713643D01*
X50295724Y-11694647D01*
X50309392Y-11677992D01*
X50326047Y-11664324D01*
X50345043Y-11654171D01*
X50365662Y-11647916D01*
X50393240Y-11645200D01*
X50901960Y-11645200D01*
X50929538Y-11647916D01*
G37*
G36*
X19033828Y-10473303D02*
G01*
X19188700Y-10537453D01*
X19328081Y-10630585D01*
X19446615Y-10749119D01*
X19539747Y-10888500D01*
X19603897Y-11043372D01*
X19636600Y-11207784D01*
X19636600Y-11375416D01*
X19603897Y-11539828D01*
X19539747Y-11694700D01*
X19446615Y-11834081D01*
X19328081Y-11952615D01*
X19188700Y-12045747D01*
X19033828Y-12109897D01*
X18869416Y-12142600D01*
X18701784Y-12142600D01*
X18537372Y-12109897D01*
X18382500Y-12045747D01*
X18243119Y-11952615D01*
X18124585Y-11834081D01*
X18031453Y-11694700D01*
X17967303Y-11539828D01*
X17934600Y-11375416D01*
X17934600Y-11207784D01*
X17967303Y-11043372D01*
X18031453Y-10888500D01*
X18124585Y-10749119D01*
X18243119Y-10630585D01*
X18382500Y-10537453D01*
X18537372Y-10473303D01*
X18701784Y-10440600D01*
X18869416Y-10440600D01*
X19033828Y-10473303D01*
G37*
G36*
X3793828Y-10473303D02*
G01*
X3948700Y-10537453D01*
X4088081Y-10630585D01*
X4206615Y-10749119D01*
X4299747Y-10888500D01*
X4363897Y-11043372D01*
X4396600Y-11207784D01*
X4396600Y-11375416D01*
X4363897Y-11539828D01*
X4299747Y-11694700D01*
X4206615Y-11834081D01*
X4088081Y-11952615D01*
X3948700Y-12045747D01*
X3793828Y-12109897D01*
X3629416Y-12142600D01*
X3461784Y-12142600D01*
X3297372Y-12109897D01*
X3142500Y-12045747D01*
X3003119Y-11952615D01*
X2884585Y-11834081D01*
X2791453Y-11694700D01*
X2727303Y-11539828D01*
X2694600Y-11375416D01*
X2694600Y-11207784D01*
X2727303Y-11043372D01*
X2791453Y-10888500D01*
X2884585Y-10749119D01*
X3003119Y-10630585D01*
X3142500Y-10537453D01*
X3297372Y-10473303D01*
X3461784Y-10440600D01*
X3629416Y-10440600D01*
X3793828Y-10473303D01*
G37*
G36*
X36654738Y-11109716D02*
G01*
X36675357Y-11115971D01*
X36694353Y-11126124D01*
X36711008Y-11139792D01*
X36724676Y-11156447D01*
X36734829Y-11175443D01*
X36741084Y-11196062D01*
X36743800Y-11223640D01*
X36743800Y-11682360D01*
X36741084Y-11709938D01*
X36734829Y-11730557D01*
X36724676Y-11749553D01*
X36711008Y-11766208D01*
X36694353Y-11779876D01*
X36675357Y-11790029D01*
X36654738Y-11796284D01*
X36627160Y-11799000D01*
X36118440Y-11799000D01*
X36090862Y-11796284D01*
X36070243Y-11790029D01*
X36051247Y-11779876D01*
X36034592Y-11766208D01*
X36020924Y-11749553D01*
X36010771Y-11730557D01*
X36004516Y-11709938D01*
X36001800Y-11682360D01*
X36001800Y-11223640D01*
X36004516Y-11196062D01*
X36010771Y-11175443D01*
X36020924Y-11156447D01*
X36034592Y-11139792D01*
X36051247Y-11126124D01*
X36070243Y-11115971D01*
X36090862Y-11109716D01*
X36118440Y-11107000D01*
X36627160Y-11107000D01*
X36654738Y-11109716D01*
G37*
G36*
X50929538Y-10677916D02*
G01*
X50950157Y-10684171D01*
X50969153Y-10694324D01*
X50985808Y-10707992D01*
X50999476Y-10724647D01*
X51009629Y-10743643D01*
X51015884Y-10764262D01*
X51018600Y-10791840D01*
X51018600Y-11250560D01*
X51015884Y-11278138D01*
X51009629Y-11298757D01*
X50999476Y-11317753D01*
X50985808Y-11334408D01*
X50969153Y-11348076D01*
X50950157Y-11358229D01*
X50929538Y-11364484D01*
X50901960Y-11367200D01*
X50393240Y-11367200D01*
X50365662Y-11364484D01*
X50345043Y-11358229D01*
X50326047Y-11348076D01*
X50309392Y-11334408D01*
X50295724Y-11317753D01*
X50285571Y-11298757D01*
X50279316Y-11278138D01*
X50276600Y-11250560D01*
X50276600Y-10791840D01*
X50279316Y-10764262D01*
X50285571Y-10743643D01*
X50295724Y-10724647D01*
X50309392Y-10707992D01*
X50326047Y-10694324D01*
X50345043Y-10684171D01*
X50365662Y-10677916D01*
X50393240Y-10675200D01*
X50901960Y-10675200D01*
X50929538Y-10677916D01*
G37*
G36*
X11314912Y-9340127D02*
G01*
X11464212Y-9369824D01*
X11628184Y-9437744D01*
X11775754Y-9536347D01*
X11901253Y-9661846D01*
X11999856Y-9809416D01*
X12067776Y-9973388D01*
X12102400Y-10147459D01*
X12102400Y-10324941D01*
X12067776Y-10499012D01*
X11999856Y-10662984D01*
X11901253Y-10810554D01*
X11775754Y-10936053D01*
X11628184Y-11034656D01*
X11464212Y-11102576D01*
X11314912Y-11132273D01*
X11290142Y-11137200D01*
X11112658Y-11137200D01*
X11087888Y-11132273D01*
X10938588Y-11102576D01*
X10774616Y-11034656D01*
X10627046Y-10936053D01*
X10501547Y-10810554D01*
X10402944Y-10662984D01*
X10335024Y-10499012D01*
X10300400Y-10324941D01*
X10300400Y-10147459D01*
X10335024Y-9973388D01*
X10402944Y-9809416D01*
X10501547Y-9661846D01*
X10627046Y-9536347D01*
X10774616Y-9437744D01*
X10938588Y-9369824D01*
X11087888Y-9340127D01*
X11112658Y-9335200D01*
X11290142Y-9335200D01*
X11314912Y-9340127D01*
G37*
G36*
X26811400Y-10267200D02*
G01*
X25569400Y-10267200D01*
X25569400Y-7665200D01*
X26811400Y-7665200D01*
X26811400Y-10267200D01*
G37*
G36*
X29091400Y-10267200D02*
G01*
X27849400Y-10267200D01*
X27849400Y-9565200D01*
X29091400Y-9565200D01*
X29091400Y-10267200D01*
G37*
G36*
X3793828Y-7933303D02*
G01*
X3948700Y-7997453D01*
X4088081Y-8090585D01*
X4206615Y-8209119D01*
X4299747Y-8348500D01*
X4363897Y-8503372D01*
X4396600Y-8667784D01*
X4396600Y-8835416D01*
X4363897Y-8999828D01*
X4299747Y-9154700D01*
X4206615Y-9294081D01*
X4088081Y-9412615D01*
X3948700Y-9505747D01*
X3793828Y-9569897D01*
X3629416Y-9602600D01*
X3461784Y-9602600D01*
X3297372Y-9569897D01*
X3142500Y-9505747D01*
X3003119Y-9412615D01*
X2884585Y-9294081D01*
X2791453Y-9154700D01*
X2727303Y-8999828D01*
X2694600Y-8835416D01*
X2694600Y-8667784D01*
X2727303Y-8503372D01*
X2791453Y-8348500D01*
X2884585Y-8209119D01*
X3003119Y-8090585D01*
X3142500Y-7997453D01*
X3297372Y-7933303D01*
X3461784Y-7900600D01*
X3629416Y-7900600D01*
X3793828Y-7933303D01*
G37*
G36*
X19033828Y-7933303D02*
G01*
X19188700Y-7997453D01*
X19328081Y-8090585D01*
X19446615Y-8209119D01*
X19539747Y-8348500D01*
X19603897Y-8503372D01*
X19636600Y-8667784D01*
X19636600Y-8835416D01*
X19603897Y-8999828D01*
X19539747Y-9154700D01*
X19446615Y-9294081D01*
X19328081Y-9412615D01*
X19188700Y-9505747D01*
X19033828Y-9569897D01*
X18869416Y-9602600D01*
X18701784Y-9602600D01*
X18537372Y-9569897D01*
X18382500Y-9505747D01*
X18243119Y-9412615D01*
X18124585Y-9294081D01*
X18031453Y-9154700D01*
X17967303Y-8999828D01*
X17934600Y-8835416D01*
X17934600Y-8667784D01*
X17967303Y-8503372D01*
X18031453Y-8348500D01*
X18124585Y-8209119D01*
X18243119Y-8090585D01*
X18382500Y-7997453D01*
X18537372Y-7933303D01*
X18701784Y-7900600D01*
X18869416Y-7900600D01*
X19033828Y-7933303D01*
G37*
G36*
X12102400Y-8597200D02*
G01*
X10300400Y-8597200D01*
X10300400Y-6795200D01*
X12102400Y-6795200D01*
X12102400Y-8597200D01*
G37*
G36*
X29091400Y-8367200D02*
G01*
X27849400Y-8367200D01*
X27849400Y-7665200D01*
X29091400Y-7665200D01*
X29091400Y-8367200D01*
G37*
G36*
X49740938Y-6896116D02*
G01*
X49761557Y-6902371D01*
X49780553Y-6912524D01*
X49797208Y-6926192D01*
X49810876Y-6942847D01*
X49821029Y-6961843D01*
X49827284Y-6982462D01*
X49830000Y-7010040D01*
X49830000Y-7518760D01*
X49827284Y-7546338D01*
X49821029Y-7566957D01*
X49810876Y-7585953D01*
X49797208Y-7602608D01*
X49780553Y-7616276D01*
X49761557Y-7626429D01*
X49740938Y-7632684D01*
X49713360Y-7635400D01*
X49254640Y-7635400D01*
X49227062Y-7632684D01*
X49206443Y-7626429D01*
X49187447Y-7616276D01*
X49170792Y-7602608D01*
X49157124Y-7585953D01*
X49146971Y-7566957D01*
X49140716Y-7546338D01*
X49138000Y-7518760D01*
X49138000Y-7010040D01*
X49140716Y-6982462D01*
X49146971Y-6961843D01*
X49157124Y-6942847D01*
X49170792Y-6926192D01*
X49187447Y-6912524D01*
X49206443Y-6902371D01*
X49227062Y-6896116D01*
X49254640Y-6893400D01*
X49713360Y-6893400D01*
X49740938Y-6896116D01*
G37*
G36*
X48770938Y-6896116D02*
G01*
X48791557Y-6902371D01*
X48810553Y-6912524D01*
X48827208Y-6926192D01*
X48840876Y-6942847D01*
X48851029Y-6961843D01*
X48857284Y-6982462D01*
X48860000Y-7010040D01*
X48860000Y-7518760D01*
X48857284Y-7546338D01*
X48851029Y-7566957D01*
X48840876Y-7585953D01*
X48827208Y-7602608D01*
X48810553Y-7616276D01*
X48791557Y-7626429D01*
X48770938Y-7632684D01*
X48743360Y-7635400D01*
X48284640Y-7635400D01*
X48257062Y-7632684D01*
X48236443Y-7626429D01*
X48217447Y-7616276D01*
X48200792Y-7602608D01*
X48187124Y-7585953D01*
X48176971Y-7566957D01*
X48170716Y-7546338D01*
X48168000Y-7518760D01*
X48168000Y-7010040D01*
X48170716Y-6982462D01*
X48176971Y-6961843D01*
X48187124Y-6942847D01*
X48200792Y-6926192D01*
X48217447Y-6912524D01*
X48236443Y-6902371D01*
X48257062Y-6896116D01*
X48284640Y-6893400D01*
X48743360Y-6893400D01*
X48770938Y-6896116D01*
G37*
G36*
X22255738Y-6362716D02*
G01*
X22276357Y-6368971D01*
X22295353Y-6379124D01*
X22312008Y-6392792D01*
X22325676Y-6409447D01*
X22335829Y-6428443D01*
X22342084Y-6449062D01*
X22344800Y-6476640D01*
X22344800Y-6985360D01*
X22342084Y-7012938D01*
X22335829Y-7033557D01*
X22325676Y-7052553D01*
X22312008Y-7069208D01*
X22295353Y-7082876D01*
X22276357Y-7093029D01*
X22255738Y-7099284D01*
X22228160Y-7102000D01*
X21769440Y-7102000D01*
X21741862Y-7099284D01*
X21721243Y-7093029D01*
X21702247Y-7082876D01*
X21685592Y-7069208D01*
X21671924Y-7052553D01*
X21661771Y-7033557D01*
X21655516Y-7012938D01*
X21652800Y-6985360D01*
X21652800Y-6476640D01*
X21655516Y-6449062D01*
X21661771Y-6428443D01*
X21671924Y-6409447D01*
X21685592Y-6392792D01*
X21702247Y-6379124D01*
X21721243Y-6368971D01*
X21741862Y-6362716D01*
X21769440Y-6360000D01*
X22228160Y-6360000D01*
X22255738Y-6362716D01*
G37*
G36*
X21285738Y-6362716D02*
G01*
X21306357Y-6368971D01*
X21325353Y-6379124D01*
X21342008Y-6392792D01*
X21355676Y-6409447D01*
X21365829Y-6428443D01*
X21372084Y-6449062D01*
X21374800Y-6476640D01*
X21374800Y-6985360D01*
X21372084Y-7012938D01*
X21365829Y-7033557D01*
X21355676Y-7052553D01*
X21342008Y-7069208D01*
X21325353Y-7082876D01*
X21306357Y-7093029D01*
X21285738Y-7099284D01*
X21258160Y-7102000D01*
X20799440Y-7102000D01*
X20771862Y-7099284D01*
X20751243Y-7093029D01*
X20732247Y-7082876D01*
X20715592Y-7069208D01*
X20701924Y-7052553D01*
X20691771Y-7033557D01*
X20685516Y-7012938D01*
X20682800Y-6985360D01*
X20682800Y-6476640D01*
X20685516Y-6449062D01*
X20691771Y-6428443D01*
X20701924Y-6409447D01*
X20715592Y-6392792D01*
X20732247Y-6379124D01*
X20751243Y-6368971D01*
X20771862Y-6362716D01*
X20799440Y-6360000D01*
X21258160Y-6360000D01*
X21285738Y-6362716D01*
G37*
G36*
X4396600Y-7062600D02*
G01*
X2694600Y-7062600D01*
X2694600Y-5360600D01*
X4396600Y-5360600D01*
X4396600Y-7062600D01*
G37*
G36*
X19033828Y-5393303D02*
G01*
X19188700Y-5457453D01*
X19328081Y-5550585D01*
X19446615Y-5669119D01*
X19539747Y-5808500D01*
X19603897Y-5963372D01*
X19636600Y-6127784D01*
X19636600Y-6295416D01*
X19603897Y-6459828D01*
X19539747Y-6614700D01*
X19446615Y-6754081D01*
X19328081Y-6872615D01*
X19188700Y-6965747D01*
X19033828Y-7029897D01*
X18869416Y-7062600D01*
X18701784Y-7062600D01*
X18537372Y-7029897D01*
X18382500Y-6965747D01*
X18243119Y-6872615D01*
X18124585Y-6754081D01*
X18031453Y-6614700D01*
X17967303Y-6459828D01*
X17934600Y-6295416D01*
X17934600Y-6127784D01*
X17967303Y-5963372D01*
X18031453Y-5808500D01*
X18124585Y-5669119D01*
X18243119Y-5550585D01*
X18382500Y-5457453D01*
X18537372Y-5393303D01*
X18701784Y-5360600D01*
X18869416Y-5360600D01*
X19033828Y-5393303D01*
G37*
G36*
X27462738Y-5473716D02*
G01*
X27483357Y-5479971D01*
X27502353Y-5490124D01*
X27519008Y-5503792D01*
X27532676Y-5520447D01*
X27542829Y-5539443D01*
X27549084Y-5560062D01*
X27551800Y-5587640D01*
X27551800Y-6096360D01*
X27549084Y-6123938D01*
X27542829Y-6144557D01*
X27532676Y-6163553D01*
X27519008Y-6180208D01*
X27502353Y-6193876D01*
X27483357Y-6204029D01*
X27462738Y-6210284D01*
X27435160Y-6213000D01*
X26976440Y-6213000D01*
X26948862Y-6210284D01*
X26928243Y-6204029D01*
X26909247Y-6193876D01*
X26892592Y-6180208D01*
X26878924Y-6163553D01*
X26868771Y-6144557D01*
X26862516Y-6123938D01*
X26859800Y-6096360D01*
X26859800Y-5587640D01*
X26862516Y-5560062D01*
X26868771Y-5539443D01*
X26878924Y-5520447D01*
X26892592Y-5503792D01*
X26909247Y-5490124D01*
X26928243Y-5479971D01*
X26948862Y-5473716D01*
X26976440Y-5471000D01*
X27435160Y-5471000D01*
X27462738Y-5473716D01*
G37*
G36*
X45877738Y-5473716D02*
G01*
X45898357Y-5479971D01*
X45917353Y-5490124D01*
X45934008Y-5503792D01*
X45947676Y-5520447D01*
X45957829Y-5539443D01*
X45964084Y-5560062D01*
X45966800Y-5587640D01*
X45966800Y-6096360D01*
X45964084Y-6123938D01*
X45957829Y-6144557D01*
X45947676Y-6163553D01*
X45934008Y-6180208D01*
X45917353Y-6193876D01*
X45898357Y-6204029D01*
X45877738Y-6210284D01*
X45850160Y-6213000D01*
X45391440Y-6213000D01*
X45363862Y-6210284D01*
X45343243Y-6204029D01*
X45324247Y-6193876D01*
X45307592Y-6180208D01*
X45293924Y-6163553D01*
X45283771Y-6144557D01*
X45277516Y-6123938D01*
X45274800Y-6096360D01*
X45274800Y-5587640D01*
X45277516Y-5560062D01*
X45283771Y-5539443D01*
X45293924Y-5520447D01*
X45307592Y-5503792D01*
X45324247Y-5490124D01*
X45343243Y-5479971D01*
X45363862Y-5473716D01*
X45391440Y-5471000D01*
X45850160Y-5471000D01*
X45877738Y-5473716D01*
G37*
G36*
X30937738Y-5473716D02*
G01*
X30958357Y-5479971D01*
X30977353Y-5490124D01*
X30994008Y-5503792D01*
X31007676Y-5520447D01*
X31017829Y-5539443D01*
X31024084Y-5560062D01*
X31026800Y-5587640D01*
X31026800Y-6096360D01*
X31024084Y-6123938D01*
X31017829Y-6144557D01*
X31007676Y-6163553D01*
X30994008Y-6180208D01*
X30977353Y-6193876D01*
X30958357Y-6204029D01*
X30937738Y-6210284D01*
X30910160Y-6213000D01*
X30451440Y-6213000D01*
X30423862Y-6210284D01*
X30403243Y-6204029D01*
X30384247Y-6193876D01*
X30367592Y-6180208D01*
X30353924Y-6163553D01*
X30343771Y-6144557D01*
X30337516Y-6123938D01*
X30334800Y-6096360D01*
X30334800Y-5587640D01*
X30337516Y-5560062D01*
X30343771Y-5539443D01*
X30353924Y-5520447D01*
X30367592Y-5503792D01*
X30384247Y-5490124D01*
X30403243Y-5479971D01*
X30423862Y-5473716D01*
X30451440Y-5471000D01*
X30910160Y-5471000D01*
X30937738Y-5473716D01*
G37*
G36*
X26492738Y-5473716D02*
G01*
X26513357Y-5479971D01*
X26532353Y-5490124D01*
X26549008Y-5503792D01*
X26562676Y-5520447D01*
X26572829Y-5539443D01*
X26579084Y-5560062D01*
X26581800Y-5587640D01*
X26581800Y-6096360D01*
X26579084Y-6123938D01*
X26572829Y-6144557D01*
X26562676Y-6163553D01*
X26549008Y-6180208D01*
X26532353Y-6193876D01*
X26513357Y-6204029D01*
X26492738Y-6210284D01*
X26465160Y-6213000D01*
X26006440Y-6213000D01*
X25978862Y-6210284D01*
X25958243Y-6204029D01*
X25939247Y-6193876D01*
X25922592Y-6180208D01*
X25908924Y-6163553D01*
X25898771Y-6144557D01*
X25892516Y-6123938D01*
X25889800Y-6096360D01*
X25889800Y-5587640D01*
X25892516Y-5560062D01*
X25898771Y-5539443D01*
X25908924Y-5520447D01*
X25922592Y-5503792D01*
X25939247Y-5490124D01*
X25958243Y-5479971D01*
X25978862Y-5473716D01*
X26006440Y-5471000D01*
X26465160Y-5471000D01*
X26492738Y-5473716D01*
G37*
G36*
X31907738Y-5473716D02*
G01*
X31928357Y-5479971D01*
X31947353Y-5490124D01*
X31964008Y-5503792D01*
X31977676Y-5520447D01*
X31987829Y-5539443D01*
X31994084Y-5560062D01*
X31996800Y-5587640D01*
X31996800Y-6096360D01*
X31994084Y-6123938D01*
X31987829Y-6144557D01*
X31977676Y-6163553D01*
X31964008Y-6180208D01*
X31947353Y-6193876D01*
X31928357Y-6204029D01*
X31907738Y-6210284D01*
X31880160Y-6213000D01*
X31421440Y-6213000D01*
X31393862Y-6210284D01*
X31373243Y-6204029D01*
X31354247Y-6193876D01*
X31337592Y-6180208D01*
X31323924Y-6163553D01*
X31313771Y-6144557D01*
X31307516Y-6123938D01*
X31304800Y-6096360D01*
X31304800Y-5587640D01*
X31307516Y-5560062D01*
X31313771Y-5539443D01*
X31323924Y-5520447D01*
X31337592Y-5503792D01*
X31354247Y-5490124D01*
X31373243Y-5479971D01*
X31393862Y-5473716D01*
X31421440Y-5471000D01*
X31880160Y-5471000D01*
X31907738Y-5473716D01*
G37*
G36*
X44907738Y-5473716D02*
G01*
X44928357Y-5479971D01*
X44947353Y-5490124D01*
X44964008Y-5503792D01*
X44977676Y-5520447D01*
X44987829Y-5539443D01*
X44994084Y-5560062D01*
X44996800Y-5587640D01*
X44996800Y-6096360D01*
X44994084Y-6123938D01*
X44987829Y-6144557D01*
X44977676Y-6163553D01*
X44964008Y-6180208D01*
X44947353Y-6193876D01*
X44928357Y-6204029D01*
X44907738Y-6210284D01*
X44880160Y-6213000D01*
X44421440Y-6213000D01*
X44393862Y-6210284D01*
X44373243Y-6204029D01*
X44354247Y-6193876D01*
X44337592Y-6180208D01*
X44323924Y-6163553D01*
X44313771Y-6144557D01*
X44307516Y-6123938D01*
X44304800Y-6096360D01*
X44304800Y-5587640D01*
X44307516Y-5560062D01*
X44313771Y-5539443D01*
X44323924Y-5520447D01*
X44337592Y-5503792D01*
X44354247Y-5490124D01*
X44373243Y-5479971D01*
X44393862Y-5473716D01*
X44421440Y-5471000D01*
X44880160Y-5471000D01*
X44907738Y-5473716D01*
G37*
G36*
X36200338Y-5270516D02*
G01*
X36220957Y-5276771D01*
X36239953Y-5286924D01*
X36256608Y-5300592D01*
X36270276Y-5317247D01*
X36280429Y-5336243D01*
X36286684Y-5356862D01*
X36289400Y-5384440D01*
X36289400Y-5893160D01*
X36286684Y-5920738D01*
X36280429Y-5941357D01*
X36270276Y-5960353D01*
X36256608Y-5977008D01*
X36239953Y-5990676D01*
X36220957Y-6000829D01*
X36200338Y-6007084D01*
X36172760Y-6009800D01*
X35714040Y-6009800D01*
X35686462Y-6007084D01*
X35665843Y-6000829D01*
X35646847Y-5990676D01*
X35630192Y-5977008D01*
X35616524Y-5960353D01*
X35606371Y-5941357D01*
X35600116Y-5920738D01*
X35597400Y-5893160D01*
X35597400Y-5384440D01*
X35600116Y-5356862D01*
X35606371Y-5336243D01*
X35616524Y-5317247D01*
X35630192Y-5300592D01*
X35646847Y-5286924D01*
X35665843Y-5276771D01*
X35686462Y-5270516D01*
X35714040Y-5267800D01*
X36172760Y-5267800D01*
X36200338Y-5270516D01*
G37*
G36*
X35230338Y-5270516D02*
G01*
X35250957Y-5276771D01*
X35269953Y-5286924D01*
X35286608Y-5300592D01*
X35300276Y-5317247D01*
X35310429Y-5336243D01*
X35316684Y-5356862D01*
X35319400Y-5384440D01*
X35319400Y-5893160D01*
X35316684Y-5920738D01*
X35310429Y-5941357D01*
X35300276Y-5960353D01*
X35286608Y-5977008D01*
X35269953Y-5990676D01*
X35250957Y-6000829D01*
X35230338Y-6007084D01*
X35202760Y-6009800D01*
X34744040Y-6009800D01*
X34716462Y-6007084D01*
X34695843Y-6000829D01*
X34676847Y-5990676D01*
X34660192Y-5977008D01*
X34646524Y-5960353D01*
X34636371Y-5941357D01*
X34630116Y-5920738D01*
X34627400Y-5893160D01*
X34627400Y-5384440D01*
X34630116Y-5356862D01*
X34636371Y-5336243D01*
X34646524Y-5317247D01*
X34660192Y-5300592D01*
X34676847Y-5286924D01*
X34695843Y-5276771D01*
X34716462Y-5270516D01*
X34744040Y-5267800D01*
X35202760Y-5267800D01*
X35230338Y-5270516D01*
G37*
G36*
X24290800Y-5873000D02*
G01*
X23048800Y-5873000D01*
X23048800Y-5171000D01*
X24290800Y-5171000D01*
X24290800Y-5873000D01*
G37*
G36*
X22010800Y-5873000D02*
G01*
X20768800Y-5873000D01*
X20768800Y-3271000D01*
X22010800Y-3271000D01*
X22010800Y-5873000D01*
G37*
G36*
X27462738Y-4203716D02*
G01*
X27483357Y-4209971D01*
X27502353Y-4220124D01*
X27519008Y-4233792D01*
X27532676Y-4250447D01*
X27542829Y-4269443D01*
X27549084Y-4290062D01*
X27551800Y-4317640D01*
X27551800Y-4826360D01*
X27549084Y-4853938D01*
X27542829Y-4874557D01*
X27532676Y-4893553D01*
X27519008Y-4910208D01*
X27502353Y-4923876D01*
X27483357Y-4934029D01*
X27462738Y-4940284D01*
X27435160Y-4943000D01*
X26976440Y-4943000D01*
X26948862Y-4940284D01*
X26928243Y-4934029D01*
X26909247Y-4923876D01*
X26892592Y-4910208D01*
X26878924Y-4893553D01*
X26868771Y-4874557D01*
X26862516Y-4853938D01*
X26859800Y-4826360D01*
X26859800Y-4317640D01*
X26862516Y-4290062D01*
X26868771Y-4269443D01*
X26878924Y-4250447D01*
X26892592Y-4233792D01*
X26909247Y-4220124D01*
X26928243Y-4209971D01*
X26948862Y-4203716D01*
X26976440Y-4201000D01*
X27435160Y-4201000D01*
X27462738Y-4203716D01*
G37*
G36*
X26492738Y-4203716D02*
G01*
X26513357Y-4209971D01*
X26532353Y-4220124D01*
X26549008Y-4233792D01*
X26562676Y-4250447D01*
X26572829Y-4269443D01*
X26579084Y-4290062D01*
X26581800Y-4317640D01*
X26581800Y-4826360D01*
X26579084Y-4853938D01*
X26572829Y-4874557D01*
X26562676Y-4893553D01*
X26549008Y-4910208D01*
X26532353Y-4923876D01*
X26513357Y-4934029D01*
X26492738Y-4940284D01*
X26465160Y-4943000D01*
X26006440Y-4943000D01*
X25978862Y-4940284D01*
X25958243Y-4934029D01*
X25939247Y-4923876D01*
X25922592Y-4910208D01*
X25908924Y-4893553D01*
X25898771Y-4874557D01*
X25892516Y-4853938D01*
X25889800Y-4826360D01*
X25889800Y-4317640D01*
X25892516Y-4290062D01*
X25898771Y-4269443D01*
X25908924Y-4250447D01*
X25922592Y-4233792D01*
X25939247Y-4220124D01*
X25958243Y-4209971D01*
X25978862Y-4203716D01*
X26006440Y-4201000D01*
X26465160Y-4201000D01*
X26492738Y-4203716D01*
G37*
G36*
X24290800Y-3973000D02*
G01*
X23048800Y-3973000D01*
X23048800Y-3271000D01*
X24290800Y-3271000D01*
X24290800Y-3973000D01*
G37*
G36*
X37645338Y-2300716D02*
G01*
X37665957Y-2306971D01*
X37684953Y-2317124D01*
X37701608Y-2330792D01*
X37715276Y-2347447D01*
X37725430Y-2366444D01*
X37726383Y-2369586D01*
X37735760Y-2392225D01*
X37749374Y-2412600D01*
X37766701Y-2429927D01*
X37787075Y-2443541D01*
X37809714Y-2452918D01*
X37833747Y-2457699D01*
X37858251Y-2457699D01*
X37882284Y-2452919D01*
X37904923Y-2443542D01*
X37925298Y-2429928D01*
X37942625Y-2412601D01*
X37956239Y-2392227D01*
X37965617Y-2369586D01*
X37966570Y-2366444D01*
X37976724Y-2347447D01*
X37990392Y-2330792D01*
X38007047Y-2317124D01*
X38026043Y-2306971D01*
X38046662Y-2300716D01*
X38074240Y-2298000D01*
X38582960Y-2298000D01*
X38610538Y-2300716D01*
X38631157Y-2306971D01*
X38650153Y-2317124D01*
X38666808Y-2330792D01*
X38680476Y-2347447D01*
X38690629Y-2366443D01*
X38696884Y-2387062D01*
X38699503Y-2413655D01*
X38704283Y-2437688D01*
X38713661Y-2460327D01*
X38727274Y-2480701D01*
X38744601Y-2498028D01*
X38764976Y-2511642D01*
X38787614Y-2521019D01*
X38811648Y-2525800D01*
X38836152Y-2525800D01*
X38860185Y-2521020D01*
X38882824Y-2511642D01*
X38903198Y-2498029D01*
X38920525Y-2480702D01*
X38934139Y-2460327D01*
X38943516Y-2437689D01*
X38948297Y-2413655D01*
X38950916Y-2387062D01*
X38957171Y-2366443D01*
X38967324Y-2347447D01*
X38980992Y-2330792D01*
X38997647Y-2317124D01*
X39016643Y-2306971D01*
X39037262Y-2300716D01*
X39064840Y-2298000D01*
X39573560Y-2298000D01*
X39601138Y-2300716D01*
X39621757Y-2306971D01*
X39640753Y-2317124D01*
X39657408Y-2330792D01*
X39671076Y-2347447D01*
X39681230Y-2366444D01*
X39682183Y-2369586D01*
X39691560Y-2392225D01*
X39705174Y-2412600D01*
X39722501Y-2429927D01*
X39742875Y-2443541D01*
X39765514Y-2452918D01*
X39789547Y-2457699D01*
X39814051Y-2457699D01*
X39838084Y-2452919D01*
X39860723Y-2443542D01*
X39881098Y-2429928D01*
X39898425Y-2412601D01*
X39912039Y-2392227D01*
X39921417Y-2369586D01*
X39922370Y-2366444D01*
X39932524Y-2347447D01*
X39946192Y-2330792D01*
X39962847Y-2317124D01*
X39981843Y-2306971D01*
X40002462Y-2300716D01*
X40030040Y-2298000D01*
X40538760Y-2298000D01*
X40566338Y-2300716D01*
X40586957Y-2306971D01*
X40605953Y-2317124D01*
X40622608Y-2330792D01*
X40636276Y-2347447D01*
X40646429Y-2366443D01*
X40652684Y-2387062D01*
X40655303Y-2413655D01*
X40660083Y-2437688D01*
X40669461Y-2460327D01*
X40683074Y-2480701D01*
X40700401Y-2498028D01*
X40720776Y-2511642D01*
X40743414Y-2521019D01*
X40767448Y-2525800D01*
X40791952Y-2525800D01*
X40815985Y-2521020D01*
X40838624Y-2511642D01*
X40858998Y-2498029D01*
X40876325Y-2480702D01*
X40889939Y-2460327D01*
X40899316Y-2437689D01*
X40904097Y-2413655D01*
X40906716Y-2387062D01*
X40912971Y-2366443D01*
X40923124Y-2347447D01*
X40936792Y-2330792D01*
X40953447Y-2317124D01*
X40972443Y-2306971D01*
X40993062Y-2300716D01*
X41020640Y-2298000D01*
X41529360Y-2298000D01*
X41556938Y-2300716D01*
X41577557Y-2306971D01*
X41596553Y-2317124D01*
X41613208Y-2330792D01*
X41626876Y-2347447D01*
X41637029Y-2366443D01*
X41643284Y-2387062D01*
X41645903Y-2413655D01*
X41650683Y-2437688D01*
X41660061Y-2460327D01*
X41673674Y-2480701D01*
X41691001Y-2498028D01*
X41711376Y-2511642D01*
X41734014Y-2521019D01*
X41758048Y-2525800D01*
X41782552Y-2525800D01*
X41806585Y-2521020D01*
X41829224Y-2511642D01*
X41849598Y-2498029D01*
X41866925Y-2480702D01*
X41880539Y-2460327D01*
X41889916Y-2437689D01*
X41894697Y-2413655D01*
X41897316Y-2387062D01*
X41903571Y-2366443D01*
X41913724Y-2347447D01*
X41927392Y-2330792D01*
X41944047Y-2317124D01*
X41963043Y-2306971D01*
X41983662Y-2300716D01*
X42011240Y-2298000D01*
X42519960Y-2298000D01*
X42547538Y-2300716D01*
X42568157Y-2306971D01*
X42587153Y-2317124D01*
X42603808Y-2330792D01*
X42617476Y-2347447D01*
X42627629Y-2366443D01*
X42633884Y-2387062D01*
X42636503Y-2413655D01*
X42641283Y-2437688D01*
X42650661Y-2460327D01*
X42664274Y-2480701D01*
X42681601Y-2498028D01*
X42701976Y-2511642D01*
X42724614Y-2521019D01*
X42748648Y-2525800D01*
X42773152Y-2525800D01*
X42797185Y-2521020D01*
X42819824Y-2511642D01*
X42840198Y-2498029D01*
X42857525Y-2480702D01*
X42871139Y-2460327D01*
X42880516Y-2437689D01*
X42885297Y-2413655D01*
X42887916Y-2387062D01*
X42894171Y-2366443D01*
X42904324Y-2347447D01*
X42917992Y-2330792D01*
X42934647Y-2317124D01*
X42953643Y-2306971D01*
X42974262Y-2300716D01*
X43001840Y-2298000D01*
X43510560Y-2298000D01*
X43538138Y-2300716D01*
X43558757Y-2306971D01*
X43577753Y-2317124D01*
X43594408Y-2330792D01*
X43608076Y-2347447D01*
X43618229Y-2366443D01*
X43624484Y-2387062D01*
X43627103Y-2413655D01*
X43631883Y-2437688D01*
X43641261Y-2460327D01*
X43654874Y-2480701D01*
X43672201Y-2498028D01*
X43692576Y-2511642D01*
X43715214Y-2521019D01*
X43739248Y-2525800D01*
X43763752Y-2525800D01*
X43787785Y-2521020D01*
X43810424Y-2511642D01*
X43830798Y-2498029D01*
X43848125Y-2480702D01*
X43861739Y-2460327D01*
X43871116Y-2437689D01*
X43875897Y-2413655D01*
X43878516Y-2387062D01*
X43884771Y-2366443D01*
X43894924Y-2347447D01*
X43908592Y-2330792D01*
X43925247Y-2317124D01*
X43944243Y-2306971D01*
X43964862Y-2300716D01*
X43992440Y-2298000D01*
X44501160Y-2298000D01*
X44528738Y-2300716D01*
X44549357Y-2306971D01*
X44568353Y-2317124D01*
X44585008Y-2330792D01*
X44598676Y-2347447D01*
X44608829Y-2366443D01*
X44615084Y-2387062D01*
X44617800Y-2414640D01*
X44617800Y-2873360D01*
X44615084Y-2900938D01*
X44608829Y-2921557D01*
X44598676Y-2940553D01*
X44585008Y-2957208D01*
X44568353Y-2970876D01*
X44549357Y-2981029D01*
X44528738Y-2987284D01*
X44501160Y-2990000D01*
X43992440Y-2990000D01*
X43964862Y-2987284D01*
X43944243Y-2981029D01*
X43925247Y-2970876D01*
X43908592Y-2957208D01*
X43894924Y-2940553D01*
X43884771Y-2921557D01*
X43878516Y-2900938D01*
X43875897Y-2874345D01*
X43871117Y-2850312D01*
X43861739Y-2827673D01*
X43848126Y-2807299D01*
X43830799Y-2789972D01*
X43810424Y-2776358D01*
X43787786Y-2766981D01*
X43763752Y-2762200D01*
X43739248Y-2762200D01*
X43715215Y-2766980D01*
X43692576Y-2776358D01*
X43672202Y-2789971D01*
X43654875Y-2807298D01*
X43641261Y-2827673D01*
X43631884Y-2850311D01*
X43627103Y-2874345D01*
X43624484Y-2900938D01*
X43618229Y-2921557D01*
X43608076Y-2940553D01*
X43594408Y-2957208D01*
X43577753Y-2970876D01*
X43558757Y-2981029D01*
X43538138Y-2987284D01*
X43510560Y-2990000D01*
X43001840Y-2990000D01*
X42974262Y-2987284D01*
X42953643Y-2981029D01*
X42934647Y-2970876D01*
X42917992Y-2957208D01*
X42904324Y-2940553D01*
X42894171Y-2921557D01*
X42887916Y-2900938D01*
X42885297Y-2874345D01*
X42880517Y-2850312D01*
X42871139Y-2827673D01*
X42857526Y-2807299D01*
X42840199Y-2789972D01*
X42819824Y-2776358D01*
X42797186Y-2766981D01*
X42773152Y-2762200D01*
X42748648Y-2762200D01*
X42724615Y-2766980D01*
X42701976Y-2776358D01*
X42681602Y-2789971D01*
X42664275Y-2807298D01*
X42650661Y-2827673D01*
X42641284Y-2850311D01*
X42636503Y-2874345D01*
X42633884Y-2900938D01*
X42627629Y-2921557D01*
X42617476Y-2940553D01*
X42603808Y-2957208D01*
X42587153Y-2970876D01*
X42568157Y-2981029D01*
X42547538Y-2987284D01*
X42519960Y-2990000D01*
X42011240Y-2990000D01*
X41983662Y-2987284D01*
X41963043Y-2981029D01*
X41944047Y-2970876D01*
X41927392Y-2957208D01*
X41913724Y-2940553D01*
X41903571Y-2921557D01*
X41897316Y-2900938D01*
X41894697Y-2874345D01*
X41889917Y-2850312D01*
X41880539Y-2827673D01*
X41866926Y-2807299D01*
X41849599Y-2789972D01*
X41829224Y-2776358D01*
X41806586Y-2766981D01*
X41782552Y-2762200D01*
X41758048Y-2762200D01*
X41734015Y-2766980D01*
X41711376Y-2776358D01*
X41691002Y-2789971D01*
X41673675Y-2807298D01*
X41660061Y-2827673D01*
X41650684Y-2850311D01*
X41645903Y-2874345D01*
X41643284Y-2900938D01*
X41637029Y-2921557D01*
X41626876Y-2940553D01*
X41613208Y-2957208D01*
X41596553Y-2970876D01*
X41577557Y-2981029D01*
X41556938Y-2987284D01*
X41529360Y-2990000D01*
X41020640Y-2990000D01*
X40993062Y-2987284D01*
X40972443Y-2981029D01*
X40953447Y-2970876D01*
X40936792Y-2957208D01*
X40923124Y-2940553D01*
X40912971Y-2921557D01*
X40906716Y-2900938D01*
X40904097Y-2874345D01*
X40899317Y-2850312D01*
X40889939Y-2827673D01*
X40876326Y-2807299D01*
X40858999Y-2789972D01*
X40838624Y-2776358D01*
X40815986Y-2766981D01*
X40791952Y-2762200D01*
X40767448Y-2762200D01*
X40743415Y-2766980D01*
X40720776Y-2776358D01*
X40700402Y-2789971D01*
X40683075Y-2807298D01*
X40669461Y-2827673D01*
X40660084Y-2850311D01*
X40655303Y-2874345D01*
X40652684Y-2900938D01*
X40646429Y-2921557D01*
X40636276Y-2940553D01*
X40622608Y-2957208D01*
X40605953Y-2970876D01*
X40586957Y-2981029D01*
X40566338Y-2987284D01*
X40538760Y-2990000D01*
X40030040Y-2990000D01*
X40002462Y-2987284D01*
X39981843Y-2981029D01*
X39962847Y-2970876D01*
X39946192Y-2957208D01*
X39932524Y-2940553D01*
X39922370Y-2921556D01*
X39921417Y-2918414D01*
X39912040Y-2895775D01*
X39898426Y-2875400D01*
X39881099Y-2858073D01*
X39860725Y-2844459D01*
X39838086Y-2835082D01*
X39814053Y-2830301D01*
X39789549Y-2830301D01*
X39765516Y-2835081D01*
X39742877Y-2844458D01*
X39722502Y-2858072D01*
X39705175Y-2875399D01*
X39691561Y-2895773D01*
X39682183Y-2918414D01*
X39681230Y-2921556D01*
X39671076Y-2940553D01*
X39657408Y-2957208D01*
X39640753Y-2970876D01*
X39621757Y-2981029D01*
X39601138Y-2987284D01*
X39573560Y-2990000D01*
X39064840Y-2990000D01*
X39037262Y-2987284D01*
X39016643Y-2981029D01*
X38997647Y-2970876D01*
X38980992Y-2957208D01*
X38967324Y-2940553D01*
X38957171Y-2921557D01*
X38950916Y-2900938D01*
X38948297Y-2874345D01*
X38943517Y-2850312D01*
X38934139Y-2827673D01*
X38920526Y-2807299D01*
X38903199Y-2789972D01*
X38882824Y-2776358D01*
X38860186Y-2766981D01*
X38836152Y-2762200D01*
X38811648Y-2762200D01*
X38787615Y-2766980D01*
X38764976Y-2776358D01*
X38744602Y-2789971D01*
X38727275Y-2807298D01*
X38713661Y-2827673D01*
X38704284Y-2850311D01*
X38699503Y-2874345D01*
X38696884Y-2900938D01*
X38690629Y-2921557D01*
X38680476Y-2940553D01*
X38666808Y-2957208D01*
X38650153Y-2970876D01*
X38631157Y-2981029D01*
X38610538Y-2987284D01*
X38582960Y-2990000D01*
X38074240Y-2990000D01*
X38046662Y-2987284D01*
X38026043Y-2981029D01*
X38007047Y-2970876D01*
X37990392Y-2957208D01*
X37976724Y-2940553D01*
X37966570Y-2921556D01*
X37965617Y-2918414D01*
X37956240Y-2895775D01*
X37942626Y-2875400D01*
X37925299Y-2858073D01*
X37904925Y-2844459D01*
X37882286Y-2835082D01*
X37858253Y-2830301D01*
X37833749Y-2830301D01*
X37809716Y-2835081D01*
X37787077Y-2844458D01*
X37766702Y-2858072D01*
X37749375Y-2875399D01*
X37735761Y-2895773D01*
X37726383Y-2918414D01*
X37725430Y-2921556D01*
X37715276Y-2940553D01*
X37701608Y-2957208D01*
X37684953Y-2970876D01*
X37665957Y-2981029D01*
X37645338Y-2987284D01*
X37617760Y-2990000D01*
X37109040Y-2990000D01*
X37081462Y-2987284D01*
X37060843Y-2981029D01*
X37041847Y-2970876D01*
X37025192Y-2957208D01*
X37011524Y-2940553D01*
X37001371Y-2921557D01*
X36995116Y-2900938D01*
X36992400Y-2873360D01*
X36992400Y-2414640D01*
X36995116Y-2387062D01*
X37001371Y-2366443D01*
X37011524Y-2347447D01*
X37025192Y-2330792D01*
X37041847Y-2317124D01*
X37060843Y-2306971D01*
X37081462Y-2300716D01*
X37109040Y-2298000D01*
X37617760Y-2298000D01*
X37645338Y-2300716D01*
G37*
G36*
X37645338Y-1330716D02*
G01*
X37665957Y-1336971D01*
X37684953Y-1347124D01*
X37701608Y-1360792D01*
X37715276Y-1377447D01*
X37725430Y-1396444D01*
X37726383Y-1399586D01*
X37735760Y-1422225D01*
X37749374Y-1442600D01*
X37766701Y-1459927D01*
X37787075Y-1473541D01*
X37809714Y-1482918D01*
X37833747Y-1487699D01*
X37858251Y-1487699D01*
X37882284Y-1482919D01*
X37904923Y-1473542D01*
X37925298Y-1459928D01*
X37942625Y-1442601D01*
X37956239Y-1422227D01*
X37965617Y-1399586D01*
X37966570Y-1396444D01*
X37976724Y-1377447D01*
X37990392Y-1360792D01*
X38007047Y-1347124D01*
X38026043Y-1336971D01*
X38046662Y-1330716D01*
X38074240Y-1328000D01*
X38582960Y-1328000D01*
X38610538Y-1330716D01*
X38631157Y-1336971D01*
X38650153Y-1347124D01*
X38666808Y-1360792D01*
X38680476Y-1377447D01*
X38690629Y-1396443D01*
X38696884Y-1417062D01*
X38699503Y-1443655D01*
X38704283Y-1467688D01*
X38713661Y-1490327D01*
X38727274Y-1510701D01*
X38744601Y-1528028D01*
X38764976Y-1541642D01*
X38787614Y-1551019D01*
X38811648Y-1555800D01*
X38836152Y-1555800D01*
X38860185Y-1551020D01*
X38882824Y-1541642D01*
X38903198Y-1528029D01*
X38920525Y-1510702D01*
X38934139Y-1490327D01*
X38943516Y-1467689D01*
X38948297Y-1443655D01*
X38950916Y-1417062D01*
X38957171Y-1396443D01*
X38967324Y-1377447D01*
X38980992Y-1360792D01*
X38997647Y-1347124D01*
X39016643Y-1336971D01*
X39037262Y-1330716D01*
X39064840Y-1328000D01*
X39573560Y-1328000D01*
X39601138Y-1330716D01*
X39621757Y-1336971D01*
X39640753Y-1347124D01*
X39657408Y-1360792D01*
X39671076Y-1377447D01*
X39681230Y-1396444D01*
X39682183Y-1399586D01*
X39691560Y-1422225D01*
X39705174Y-1442600D01*
X39722501Y-1459927D01*
X39742875Y-1473541D01*
X39765514Y-1482918D01*
X39789547Y-1487699D01*
X39814051Y-1487699D01*
X39838084Y-1482919D01*
X39860723Y-1473542D01*
X39881098Y-1459928D01*
X39898425Y-1442601D01*
X39912039Y-1422227D01*
X39921417Y-1399586D01*
X39922370Y-1396444D01*
X39932524Y-1377447D01*
X39946192Y-1360792D01*
X39962847Y-1347124D01*
X39981843Y-1336971D01*
X40002462Y-1330716D01*
X40030040Y-1328000D01*
X40538760Y-1328000D01*
X40566338Y-1330716D01*
X40586957Y-1336971D01*
X40605953Y-1347124D01*
X40622608Y-1360792D01*
X40636276Y-1377447D01*
X40646429Y-1396443D01*
X40652684Y-1417062D01*
X40655303Y-1443655D01*
X40660083Y-1467688D01*
X40669461Y-1490327D01*
X40683074Y-1510701D01*
X40700401Y-1528028D01*
X40720776Y-1541642D01*
X40743414Y-1551019D01*
X40767448Y-1555800D01*
X40791952Y-1555800D01*
X40815985Y-1551020D01*
X40838624Y-1541642D01*
X40858998Y-1528029D01*
X40876325Y-1510702D01*
X40889939Y-1490327D01*
X40899316Y-1467689D01*
X40904097Y-1443655D01*
X40906716Y-1417062D01*
X40912971Y-1396443D01*
X40923124Y-1377447D01*
X40936792Y-1360792D01*
X40953447Y-1347124D01*
X40972443Y-1336971D01*
X40993062Y-1330716D01*
X41020640Y-1328000D01*
X41529360Y-1328000D01*
X41556938Y-1330716D01*
X41577557Y-1336971D01*
X41596553Y-1347124D01*
X41613208Y-1360792D01*
X41626876Y-1377447D01*
X41637029Y-1396443D01*
X41643284Y-1417062D01*
X41645903Y-1443655D01*
X41650683Y-1467688D01*
X41660061Y-1490327D01*
X41673674Y-1510701D01*
X41691001Y-1528028D01*
X41711376Y-1541642D01*
X41734014Y-1551019D01*
X41758048Y-1555800D01*
X41782552Y-1555800D01*
X41806585Y-1551020D01*
X41829224Y-1541642D01*
X41849598Y-1528029D01*
X41866925Y-1510702D01*
X41880539Y-1490327D01*
X41889916Y-1467689D01*
X41894697Y-1443655D01*
X41897316Y-1417062D01*
X41903571Y-1396443D01*
X41913724Y-1377447D01*
X41927392Y-1360792D01*
X41944047Y-1347124D01*
X41963043Y-1336971D01*
X41983662Y-1330716D01*
X42011240Y-1328000D01*
X42519960Y-1328000D01*
X42547538Y-1330716D01*
X42568157Y-1336971D01*
X42587153Y-1347124D01*
X42603808Y-1360792D01*
X42617476Y-1377447D01*
X42627629Y-1396443D01*
X42633884Y-1417062D01*
X42636503Y-1443655D01*
X42641283Y-1467688D01*
X42650661Y-1490327D01*
X42664274Y-1510701D01*
X42681601Y-1528028D01*
X42701976Y-1541642D01*
X42724614Y-1551019D01*
X42748648Y-1555800D01*
X42773152Y-1555800D01*
X42797185Y-1551020D01*
X42819824Y-1541642D01*
X42840198Y-1528029D01*
X42857525Y-1510702D01*
X42871139Y-1490327D01*
X42880516Y-1467689D01*
X42885297Y-1443655D01*
X42887916Y-1417062D01*
X42894171Y-1396443D01*
X42904324Y-1377447D01*
X42917992Y-1360792D01*
X42934647Y-1347124D01*
X42953643Y-1336971D01*
X42974262Y-1330716D01*
X43001840Y-1328000D01*
X43510560Y-1328000D01*
X43538138Y-1330716D01*
X43558757Y-1336971D01*
X43577753Y-1347124D01*
X43594408Y-1360792D01*
X43608076Y-1377447D01*
X43618229Y-1396443D01*
X43624484Y-1417062D01*
X43627103Y-1443655D01*
X43631883Y-1467688D01*
X43641261Y-1490327D01*
X43654874Y-1510701D01*
X43672201Y-1528028D01*
X43692576Y-1541642D01*
X43715214Y-1551019D01*
X43739248Y-1555800D01*
X43763752Y-1555800D01*
X43787785Y-1551020D01*
X43810424Y-1541642D01*
X43830798Y-1528029D01*
X43848125Y-1510702D01*
X43861739Y-1490327D01*
X43871116Y-1467689D01*
X43875897Y-1443655D01*
X43878516Y-1417062D01*
X43884771Y-1396443D01*
X43894924Y-1377447D01*
X43908592Y-1360792D01*
X43925247Y-1347124D01*
X43944243Y-1336971D01*
X43964862Y-1330716D01*
X43992440Y-1328000D01*
X44501160Y-1328000D01*
X44528738Y-1330716D01*
X44549357Y-1336971D01*
X44568353Y-1347124D01*
X44585008Y-1360792D01*
X44598676Y-1377447D01*
X44608829Y-1396443D01*
X44615084Y-1417062D01*
X44617800Y-1444640D01*
X44617800Y-1903360D01*
X44615084Y-1930938D01*
X44608829Y-1951557D01*
X44598676Y-1970553D01*
X44585008Y-1987208D01*
X44568353Y-2000876D01*
X44549357Y-2011029D01*
X44528738Y-2017284D01*
X44501160Y-2020000D01*
X43992440Y-2020000D01*
X43964862Y-2017284D01*
X43944243Y-2011029D01*
X43925247Y-2000876D01*
X43908592Y-1987208D01*
X43894924Y-1970553D01*
X43884771Y-1951557D01*
X43878516Y-1930938D01*
X43875897Y-1904345D01*
X43871117Y-1880312D01*
X43861739Y-1857673D01*
X43848126Y-1837299D01*
X43830799Y-1819972D01*
X43810424Y-1806358D01*
X43787786Y-1796981D01*
X43763752Y-1792200D01*
X43739248Y-1792200D01*
X43715215Y-1796980D01*
X43692576Y-1806358D01*
X43672202Y-1819971D01*
X43654875Y-1837298D01*
X43641261Y-1857673D01*
X43631884Y-1880311D01*
X43627103Y-1904345D01*
X43624484Y-1930938D01*
X43618229Y-1951557D01*
X43608076Y-1970553D01*
X43594408Y-1987208D01*
X43577753Y-2000876D01*
X43558757Y-2011029D01*
X43538138Y-2017284D01*
X43510560Y-2020000D01*
X43001840Y-2020000D01*
X42974262Y-2017284D01*
X42953643Y-2011029D01*
X42934647Y-2000876D01*
X42917992Y-1987208D01*
X42904324Y-1970553D01*
X42894171Y-1951557D01*
X42887916Y-1930938D01*
X42885297Y-1904345D01*
X42880517Y-1880312D01*
X42871139Y-1857673D01*
X42857526Y-1837299D01*
X42840199Y-1819972D01*
X42819824Y-1806358D01*
X42797186Y-1796981D01*
X42773152Y-1792200D01*
X42748648Y-1792200D01*
X42724615Y-1796980D01*
X42701976Y-1806358D01*
X42681602Y-1819971D01*
X42664275Y-1837298D01*
X42650661Y-1857673D01*
X42641284Y-1880311D01*
X42636503Y-1904345D01*
X42633884Y-1930938D01*
X42627629Y-1951557D01*
X42617476Y-1970553D01*
X42603808Y-1987208D01*
X42587153Y-2000876D01*
X42568157Y-2011029D01*
X42547538Y-2017284D01*
X42519960Y-2020000D01*
X42011240Y-2020000D01*
X41983662Y-2017284D01*
X41963043Y-2011029D01*
X41944047Y-2000876D01*
X41927392Y-1987208D01*
X41913724Y-1970553D01*
X41903571Y-1951557D01*
X41897316Y-1930938D01*
X41894697Y-1904345D01*
X41889917Y-1880312D01*
X41880539Y-1857673D01*
X41866926Y-1837299D01*
X41849599Y-1819972D01*
X41829224Y-1806358D01*
X41806586Y-1796981D01*
X41782552Y-1792200D01*
X41758048Y-1792200D01*
X41734015Y-1796980D01*
X41711376Y-1806358D01*
X41691002Y-1819971D01*
X41673675Y-1837298D01*
X41660061Y-1857673D01*
X41650684Y-1880311D01*
X41645903Y-1904345D01*
X41643284Y-1930938D01*
X41637029Y-1951557D01*
X41626876Y-1970553D01*
X41613208Y-1987208D01*
X41596553Y-2000876D01*
X41577557Y-2011029D01*
X41556938Y-2017284D01*
X41529360Y-2020000D01*
X41020640Y-2020000D01*
X40993062Y-2017284D01*
X40972443Y-2011029D01*
X40953447Y-2000876D01*
X40936792Y-1987208D01*
X40923124Y-1970553D01*
X40912971Y-1951557D01*
X40906716Y-1930938D01*
X40904097Y-1904345D01*
X40899317Y-1880312D01*
X40889939Y-1857673D01*
X40876326Y-1837299D01*
X40858999Y-1819972D01*
X40838624Y-1806358D01*
X40815986Y-1796981D01*
X40791952Y-1792200D01*
X40767448Y-1792200D01*
X40743415Y-1796980D01*
X40720776Y-1806358D01*
X40700402Y-1819971D01*
X40683075Y-1837298D01*
X40669461Y-1857673D01*
X40660084Y-1880311D01*
X40655303Y-1904345D01*
X40652684Y-1930938D01*
X40646429Y-1951557D01*
X40636276Y-1970553D01*
X40622608Y-1987208D01*
X40605953Y-2000876D01*
X40586957Y-2011029D01*
X40566338Y-2017284D01*
X40538760Y-2020000D01*
X40030040Y-2020000D01*
X40002462Y-2017284D01*
X39981843Y-2011029D01*
X39962847Y-2000876D01*
X39946192Y-1987208D01*
X39932524Y-1970553D01*
X39922370Y-1951556D01*
X39921417Y-1948414D01*
X39912040Y-1925775D01*
X39898426Y-1905400D01*
X39881099Y-1888073D01*
X39860725Y-1874459D01*
X39838086Y-1865082D01*
X39814053Y-1860301D01*
X39789549Y-1860301D01*
X39765516Y-1865081D01*
X39742877Y-1874458D01*
X39722502Y-1888072D01*
X39705175Y-1905399D01*
X39691561Y-1925773D01*
X39682183Y-1948414D01*
X39681230Y-1951556D01*
X39671076Y-1970553D01*
X39657408Y-1987208D01*
X39640753Y-2000876D01*
X39621757Y-2011029D01*
X39601138Y-2017284D01*
X39573560Y-2020000D01*
X39064840Y-2020000D01*
X39037262Y-2017284D01*
X39016643Y-2011029D01*
X38997647Y-2000876D01*
X38980992Y-1987208D01*
X38967324Y-1970553D01*
X38957171Y-1951557D01*
X38950916Y-1930938D01*
X38948297Y-1904345D01*
X38943517Y-1880312D01*
X38934139Y-1857673D01*
X38920526Y-1837299D01*
X38903199Y-1819972D01*
X38882824Y-1806358D01*
X38860186Y-1796981D01*
X38836152Y-1792200D01*
X38811648Y-1792200D01*
X38787615Y-1796980D01*
X38764976Y-1806358D01*
X38744602Y-1819971D01*
X38727275Y-1837298D01*
X38713661Y-1857673D01*
X38704284Y-1880311D01*
X38699503Y-1904345D01*
X38696884Y-1930938D01*
X38690629Y-1951557D01*
X38680476Y-1970553D01*
X38666808Y-1987208D01*
X38650153Y-2000876D01*
X38631157Y-2011029D01*
X38610538Y-2017284D01*
X38582960Y-2020000D01*
X38074240Y-2020000D01*
X38046662Y-2017284D01*
X38026043Y-2011029D01*
X38007047Y-2000876D01*
X37990392Y-1987208D01*
X37976724Y-1970553D01*
X37966570Y-1951556D01*
X37965617Y-1948414D01*
X37956240Y-1925775D01*
X37942626Y-1905400D01*
X37925299Y-1888073D01*
X37904925Y-1874459D01*
X37882286Y-1865082D01*
X37858253Y-1860301D01*
X37833749Y-1860301D01*
X37809716Y-1865081D01*
X37787077Y-1874458D01*
X37766702Y-1888072D01*
X37749375Y-1905399D01*
X37735761Y-1925773D01*
X37726383Y-1948414D01*
X37725430Y-1951556D01*
X37715276Y-1970553D01*
X37701608Y-1987208D01*
X37684953Y-2000876D01*
X37665957Y-2011029D01*
X37645338Y-2017284D01*
X37617760Y-2020000D01*
X37109040Y-2020000D01*
X37081462Y-2017284D01*
X37060843Y-2011029D01*
X37041847Y-2000876D01*
X37025192Y-1987208D01*
X37011524Y-1970553D01*
X37001371Y-1951557D01*
X36995116Y-1930938D01*
X36992400Y-1903360D01*
X36992400Y-1444640D01*
X36995116Y-1417062D01*
X37001371Y-1396443D01*
X37011524Y-1377447D01*
X37025192Y-1360792D01*
X37041847Y-1347124D01*
X37060843Y-1336971D01*
X37081462Y-1330716D01*
X37109040Y-1328000D01*
X37617760Y-1328000D01*
X37645338Y-1330716D01*
G37*
M02*
