G04 #@! TF.GenerationSoftware,KiCad,Pcbnew,(5.1.5)-3*
G04 #@! TF.CreationDate,2020-10-03T21:18:42-07:00*
G04 #@! TF.ProjectId,MCL86jr,4d434c38-366a-4722-9e6b-696361645f70,rev?*
G04 #@! TF.SameCoordinates,PX6b9fce8PY20f1980*
G04 #@! TF.FileFunction,Copper,L3,Inr*
G04 #@! TF.FilePolarity,Positive*
%FSLAX46Y46*%
G04 Gerber Fmt 4.6, Leading zero omitted, Abs format (unit mm)*
G04 Created by KiCad (PCBNEW (5.1.5)-3) date 2020-10-03 21:18:42*
%MOMM*%
%LPD*%
G04 APERTURE LIST*
%ADD10O,1.600000X1.600000*%
%ADD11R,1.600000X1.600000*%
%ADD12O,1.700000X1.700000*%
%ADD13R,1.700000X1.700000*%
%ADD14C,0.800000*%
%ADD15C,0.254000*%
G04 APERTURE END LIST*
D10*
X18785600Y-6211600D03*
X3545600Y-54471600D03*
X18785600Y-8751600D03*
X3545600Y-51931600D03*
X18785600Y-11291600D03*
X3545600Y-49391600D03*
X18785600Y-13831600D03*
X3545600Y-46851600D03*
X18785600Y-16371600D03*
X3545600Y-44311600D03*
X18785600Y-18911600D03*
X3545600Y-41771600D03*
X18785600Y-21451600D03*
X3545600Y-39231600D03*
X18785600Y-23991600D03*
X3545600Y-36691600D03*
X18785600Y-26531600D03*
X3545600Y-34151600D03*
X18785600Y-29071600D03*
X3545600Y-31611600D03*
X18785600Y-31611600D03*
X3545600Y-29071600D03*
X18785600Y-34151600D03*
X3545600Y-26531600D03*
X18785600Y-36691600D03*
X3545600Y-23991600D03*
X18785600Y-39231600D03*
X3545600Y-21451600D03*
X18785600Y-41771600D03*
X3545600Y-18911600D03*
X18785600Y-44311600D03*
X3545600Y-16371600D03*
X18785600Y-46851600D03*
X3545600Y-13831600D03*
X18785600Y-49391600D03*
X3545600Y-11291600D03*
X18785600Y-51931600D03*
X3545600Y-8751600D03*
X18785600Y-54471600D03*
D11*
X3545600Y-6211600D03*
D12*
X11201400Y-20396200D03*
X11201400Y-17856200D03*
X11201400Y-15316200D03*
X11201400Y-12776200D03*
X11201400Y-10236200D03*
D13*
X11201400Y-7696200D03*
D14*
X48361600Y-31013400D03*
X19735800Y-3937000D03*
X33934400Y-5638800D03*
X46659800Y-5842000D03*
X42849800Y-19812000D03*
X32562800Y-5842000D03*
X28194000Y-31419800D03*
X23037800Y-12319000D03*
X31165800Y-19304000D03*
X35864800Y-24130000D03*
X36372800Y-13589000D03*
X39928800Y-24892000D03*
X27990800Y-11303000D03*
X43865800Y-9906000D03*
X49707800Y-10287000D03*
X46405800Y-25273000D03*
X28117800Y-4572000D03*
X28143200Y-22301200D03*
X28016200Y-16281400D03*
X11150600Y-27482800D03*
X8077200Y-32461200D03*
X23711218Y-21450618D03*
X11963400Y-44881800D03*
X7924800Y-51028600D03*
X22529800Y-33553400D03*
X14616200Y-40843200D03*
X24048106Y-39947655D03*
X29768800Y-14122400D03*
X50145360Y-22625345D03*
X43660992Y-45467509D03*
X49518958Y-16400021D03*
X37002562Y-34504557D03*
X37270144Y-28329653D03*
X43895000Y-31364941D03*
X29667200Y-41503600D03*
X32359600Y-9855200D03*
X35255200Y-9677400D03*
X34343649Y-28155780D03*
X23092483Y-29264683D03*
X49301400Y-28473400D03*
X32664400Y-23952200D03*
X50419000Y-7264400D03*
X32054800Y-45212000D03*
X26847800Y-43561000D03*
X46304200Y-18796000D03*
X49098200Y-49276000D03*
X28117800Y-5802390D03*
X24885316Y-9051637D03*
X23037800Y-7202410D03*
X36093400Y-21844000D03*
X25196800Y-4572000D03*
X43611800Y-5842000D03*
X29641800Y-5842000D03*
X25019000Y-31419800D03*
X46405800Y-26289000D03*
X23418800Y-43561000D03*
X13639800Y-42926000D03*
X35864800Y-6858000D03*
X49707800Y-12827000D03*
X36372800Y-31369000D03*
X25196800Y-5461000D03*
X23012718Y-15595918D03*
X24739282Y-18846482D03*
X12192000Y-25527000D03*
X25273000Y-28448000D03*
X7950400Y-43104000D03*
X48945800Y-36677600D03*
X28194000Y-25196800D03*
X21513800Y-46520200D03*
X49388790Y-26111200D03*
X49447710Y-19520869D03*
X50673000Y-19278620D03*
X45262800Y-2667000D03*
X36118800Y-2667000D03*
X36855400Y-5638800D03*
X37901483Y-6862683D03*
X49530000Y-50698400D03*
X44885823Y-45430413D03*
X32867600Y-6959598D03*
X24996501Y-25100000D03*
X47548800Y-7264400D03*
X29083000Y-45161200D03*
X27025600Y-41706800D03*
X39184790Y-6858000D03*
X49321434Y-21347190D03*
X45415198Y-34798000D03*
X41213010Y-32080200D03*
X43948783Y-34348218D03*
X30901159Y-31256757D03*
X24841200Y-7848600D03*
X24505628Y-12195012D03*
X24765000Y-10566400D03*
X28117792Y-19300000D03*
X29768800Y-11176000D03*
X36372800Y-10414000D03*
X28498800Y-23876000D03*
X30149800Y-9906000D03*
X35966400Y-27406600D03*
X32715200Y-21056600D03*
X46016740Y-19849642D03*
X36093400Y-18999200D03*
X6019800Y-45542200D03*
X15200390Y-44475400D03*
X12168000Y-49555400D03*
X43434000Y-49326800D03*
X50774591Y-15479354D03*
X42164000Y-49377600D03*
X46177200Y-16814800D03*
X40894000Y-49352200D03*
X50557199Y-16879365D03*
X39776400Y-49301400D03*
X49779133Y-17919568D03*
X38658800Y-49301400D03*
X50712180Y-18279376D03*
X30708600Y-41402000D03*
X42392600Y-10210800D03*
X41568601Y-11060199D03*
X32054800Y-41148000D03*
X33350200Y-41071800D03*
X40710254Y-10329889D03*
X34747200Y-41071800D03*
X34823400Y-11176000D03*
X36323000Y-40868600D03*
X37425400Y-11226800D03*
X38125400Y-10312400D03*
X37947600Y-37414200D03*
X39243000Y-37515800D03*
X39395400Y-10287000D03*
X31615829Y-37763415D03*
X29972000Y-17424400D03*
X31292800Y-16724400D03*
X29794200Y-15697200D03*
X31267400Y-14986000D03*
X43500970Y-27991262D03*
X42900600Y-27076400D03*
X29057602Y-28092400D03*
X44571570Y-753100D03*
X43573413Y-813987D03*
X42265600Y-736602D03*
X41189722Y-786979D03*
X40062810Y-761697D03*
X39062799Y-762019D03*
X38062788Y-762000D03*
X37062775Y-762000D03*
X44422098Y-28380553D03*
X39928800Y-28194000D03*
X45420479Y-28323467D03*
X27956079Y-28104361D03*
X30073600Y-27762200D03*
X44889677Y-31468102D03*
X34848791Y-31201100D03*
X32207200Y-36957000D03*
X32588200Y-35991800D03*
X32893000Y-35001200D03*
X33477200Y-33909000D03*
X34721636Y-32192990D03*
D15*
G36*
X47183860Y-16570386D02*
G01*
X47172426Y-16512902D01*
X47094405Y-16324544D01*
X46981137Y-16155026D01*
X46836974Y-16010863D01*
X46667456Y-15897595D01*
X46479098Y-15819574D01*
X46279139Y-15779800D01*
X46075261Y-15779800D01*
X45875302Y-15819574D01*
X45686944Y-15897595D01*
X45517426Y-16010863D01*
X45373263Y-16155026D01*
X45259995Y-16324544D01*
X45181974Y-16512902D01*
X45142200Y-16712861D01*
X45142200Y-16916739D01*
X45181974Y-17116698D01*
X45259995Y-17305056D01*
X45373263Y-17474574D01*
X45517426Y-17618737D01*
X45686944Y-17732005D01*
X45875302Y-17810026D01*
X45946011Y-17824091D01*
X45813944Y-17878795D01*
X45644426Y-17992063D01*
X45500263Y-18136226D01*
X45386995Y-18305744D01*
X45308974Y-18494102D01*
X45269200Y-18694061D01*
X45269200Y-18897939D01*
X45308974Y-19097898D01*
X45386995Y-19286256D01*
X45500263Y-19455774D01*
X45644426Y-19599937D01*
X45813944Y-19713205D01*
X46002302Y-19791226D01*
X46202261Y-19831000D01*
X46406139Y-19831000D01*
X46606098Y-19791226D01*
X46794456Y-19713205D01*
X46963974Y-19599937D01*
X47108137Y-19455774D01*
X47173470Y-19357996D01*
X47154090Y-24557579D01*
X47065574Y-24469063D01*
X46896056Y-24355795D01*
X46707698Y-24277774D01*
X46507739Y-24238000D01*
X46303861Y-24238000D01*
X46103902Y-24277774D01*
X45915544Y-24355795D01*
X45746026Y-24469063D01*
X45601863Y-24613226D01*
X45488595Y-24782744D01*
X45410574Y-24971102D01*
X45370800Y-25171061D01*
X45370800Y-25374939D01*
X45410574Y-25574898D01*
X45488595Y-25763256D01*
X45500451Y-25781000D01*
X45488595Y-25798744D01*
X45410574Y-25987102D01*
X45370800Y-26187061D01*
X45370800Y-26390939D01*
X45410574Y-26590898D01*
X45488595Y-26779256D01*
X45601863Y-26948774D01*
X45746026Y-27092937D01*
X45915544Y-27206205D01*
X46103902Y-27284226D01*
X46303861Y-27324000D01*
X46507739Y-27324000D01*
X46707698Y-27284226D01*
X46896056Y-27206205D01*
X47065574Y-27092937D01*
X47144936Y-27013575D01*
X47138114Y-28844031D01*
X46321063Y-28838599D01*
X46337684Y-28813723D01*
X46415705Y-28625365D01*
X46455479Y-28425406D01*
X46455479Y-28221528D01*
X46415705Y-28021569D01*
X46337684Y-27833211D01*
X46224416Y-27663693D01*
X46080253Y-27519530D01*
X45910735Y-27406262D01*
X45722377Y-27328241D01*
X45522418Y-27288467D01*
X45318540Y-27288467D01*
X45118581Y-27328241D01*
X44930223Y-27406262D01*
X44870644Y-27446071D01*
X44723996Y-27385327D01*
X44524037Y-27345553D01*
X44320159Y-27345553D01*
X44314992Y-27346581D01*
X44304907Y-27331488D01*
X44160744Y-27187325D01*
X43991226Y-27074057D01*
X43935600Y-27051016D01*
X43935600Y-26974461D01*
X43895826Y-26774502D01*
X43817805Y-26586144D01*
X43704537Y-26416626D01*
X43560374Y-26272463D01*
X43390856Y-26159195D01*
X43202498Y-26081174D01*
X43002539Y-26041400D01*
X42798661Y-26041400D01*
X42598702Y-26081174D01*
X42410344Y-26159195D01*
X42240826Y-26272463D01*
X42096663Y-26416626D01*
X41983395Y-26586144D01*
X41905374Y-26774502D01*
X41865600Y-26974461D01*
X41865600Y-27178339D01*
X41905374Y-27378298D01*
X41983395Y-27566656D01*
X42096663Y-27736174D01*
X42240826Y-27880337D01*
X42410344Y-27993605D01*
X42465970Y-28016646D01*
X42465970Y-28093201D01*
X42505744Y-28293160D01*
X42583765Y-28481518D01*
X42697033Y-28651036D01*
X42841196Y-28795199D01*
X42871827Y-28815666D01*
X40767548Y-28801675D01*
X40846005Y-28684256D01*
X40924026Y-28495898D01*
X40963800Y-28295939D01*
X40963800Y-28092061D01*
X40924026Y-27892102D01*
X40846005Y-27703744D01*
X40732737Y-27534226D01*
X40588574Y-27390063D01*
X40419056Y-27276795D01*
X40230698Y-27198774D01*
X40030739Y-27159000D01*
X39826861Y-27159000D01*
X39626902Y-27198774D01*
X39438544Y-27276795D01*
X39269026Y-27390063D01*
X39124863Y-27534226D01*
X39011595Y-27703744D01*
X38933574Y-27892102D01*
X38893800Y-28092061D01*
X38893800Y-28295939D01*
X38933574Y-28495898D01*
X39011595Y-28684256D01*
X39082566Y-28790472D01*
X38201968Y-28784617D01*
X38265370Y-28631551D01*
X38305144Y-28431592D01*
X38305144Y-28227714D01*
X38265370Y-28027755D01*
X38187349Y-27839397D01*
X38074081Y-27669879D01*
X37929918Y-27525716D01*
X37760400Y-27412448D01*
X37572042Y-27334427D01*
X37372083Y-27294653D01*
X37168205Y-27294653D01*
X36968246Y-27334427D01*
X36779888Y-27412448D01*
X36610370Y-27525716D01*
X36466207Y-27669879D01*
X36352939Y-27839397D01*
X36274918Y-28027755D01*
X36235144Y-28227714D01*
X36235144Y-28431592D01*
X36274918Y-28631551D01*
X36333174Y-28772192D01*
X35181675Y-28764536D01*
X35260854Y-28646036D01*
X35338875Y-28457678D01*
X35378649Y-28257719D01*
X35378649Y-28053841D01*
X35338875Y-27853882D01*
X35260854Y-27665524D01*
X35147586Y-27496006D01*
X35003423Y-27351843D01*
X34833905Y-27238575D01*
X34645547Y-27160554D01*
X34445588Y-27120780D01*
X34241710Y-27120780D01*
X34041751Y-27160554D01*
X33853393Y-27238575D01*
X33683875Y-27351843D01*
X33539712Y-27496006D01*
X33426444Y-27665524D01*
X33348423Y-27853882D01*
X33308649Y-28053841D01*
X33308649Y-28257719D01*
X33348423Y-28457678D01*
X33426444Y-28646036D01*
X33498144Y-28753343D01*
X30434531Y-28732974D01*
X30563856Y-28679405D01*
X30733374Y-28566137D01*
X30877537Y-28421974D01*
X30990805Y-28252456D01*
X31068826Y-28064098D01*
X31108600Y-27864139D01*
X31108600Y-27660261D01*
X31068826Y-27460302D01*
X30990805Y-27271944D01*
X30877537Y-27102426D01*
X30733374Y-26958263D01*
X30563856Y-26844995D01*
X30375498Y-26766974D01*
X30175539Y-26727200D01*
X29971661Y-26727200D01*
X29771702Y-26766974D01*
X29583344Y-26844995D01*
X29413826Y-26958263D01*
X29288948Y-27083141D01*
X29159541Y-27057400D01*
X28955663Y-27057400D01*
X28755704Y-27097174D01*
X28567346Y-27175195D01*
X28497890Y-27221604D01*
X28446335Y-27187156D01*
X28257977Y-27109135D01*
X28058018Y-27069361D01*
X27854140Y-27069361D01*
X27654181Y-27109135D01*
X27465823Y-27187156D01*
X27346996Y-27266553D01*
X27357969Y-25808541D01*
X27390063Y-25856574D01*
X27534226Y-26000737D01*
X27703744Y-26114005D01*
X27892102Y-26192026D01*
X28092061Y-26231800D01*
X28295939Y-26231800D01*
X28495898Y-26192026D01*
X28684256Y-26114005D01*
X28853774Y-26000737D01*
X28997937Y-25856574D01*
X29111205Y-25687056D01*
X29189226Y-25498698D01*
X29229000Y-25298739D01*
X29229000Y-25094861D01*
X29189226Y-24894902D01*
X29111205Y-24706544D01*
X28997937Y-24537026D01*
X28853774Y-24392863D01*
X28684256Y-24279595D01*
X28495898Y-24201574D01*
X28295939Y-24161800D01*
X28092061Y-24161800D01*
X27892102Y-24201574D01*
X27703744Y-24279595D01*
X27534226Y-24392863D01*
X27390063Y-24537026D01*
X27367281Y-24571122D01*
X27372705Y-23850261D01*
X31629400Y-23850261D01*
X31629400Y-24054139D01*
X31669174Y-24254098D01*
X31747195Y-24442456D01*
X31860463Y-24611974D01*
X32004626Y-24756137D01*
X32174144Y-24869405D01*
X32362502Y-24947426D01*
X32562461Y-24987200D01*
X32766339Y-24987200D01*
X32966298Y-24947426D01*
X33154656Y-24869405D01*
X33324174Y-24756137D01*
X33468337Y-24611974D01*
X33581605Y-24442456D01*
X33659626Y-24254098D01*
X33699400Y-24054139D01*
X33699400Y-24028061D01*
X34829800Y-24028061D01*
X34829800Y-24231939D01*
X34869574Y-24431898D01*
X34947595Y-24620256D01*
X35060863Y-24789774D01*
X35205026Y-24933937D01*
X35374544Y-25047205D01*
X35562902Y-25125226D01*
X35762861Y-25165000D01*
X35966739Y-25165000D01*
X36166698Y-25125226D01*
X36355056Y-25047205D01*
X36524574Y-24933937D01*
X36668450Y-24790061D01*
X38893800Y-24790061D01*
X38893800Y-24993939D01*
X38933574Y-25193898D01*
X39011595Y-25382256D01*
X39124863Y-25551774D01*
X39269026Y-25695937D01*
X39438544Y-25809205D01*
X39626902Y-25887226D01*
X39826861Y-25927000D01*
X40030739Y-25927000D01*
X40230698Y-25887226D01*
X40419056Y-25809205D01*
X40588574Y-25695937D01*
X40732737Y-25551774D01*
X40846005Y-25382256D01*
X40924026Y-25193898D01*
X40963800Y-24993939D01*
X40963800Y-24790061D01*
X40924026Y-24590102D01*
X40846005Y-24401744D01*
X40732737Y-24232226D01*
X40588574Y-24088063D01*
X40419056Y-23974795D01*
X40230698Y-23896774D01*
X40030739Y-23857000D01*
X39826861Y-23857000D01*
X39626902Y-23896774D01*
X39438544Y-23974795D01*
X39269026Y-24088063D01*
X39124863Y-24232226D01*
X39011595Y-24401744D01*
X38933574Y-24590102D01*
X38893800Y-24790061D01*
X36668450Y-24790061D01*
X36668737Y-24789774D01*
X36782005Y-24620256D01*
X36860026Y-24431898D01*
X36899800Y-24231939D01*
X36899800Y-24028061D01*
X36860026Y-23828102D01*
X36782005Y-23639744D01*
X36668737Y-23470226D01*
X36524574Y-23326063D01*
X36355056Y-23212795D01*
X36166698Y-23134774D01*
X35966739Y-23095000D01*
X35762861Y-23095000D01*
X35562902Y-23134774D01*
X35374544Y-23212795D01*
X35205026Y-23326063D01*
X35060863Y-23470226D01*
X34947595Y-23639744D01*
X34869574Y-23828102D01*
X34829800Y-24028061D01*
X33699400Y-24028061D01*
X33699400Y-23850261D01*
X33659626Y-23650302D01*
X33581605Y-23461944D01*
X33468337Y-23292426D01*
X33324174Y-23148263D01*
X33154656Y-23034995D01*
X32966298Y-22956974D01*
X32766339Y-22917200D01*
X32562461Y-22917200D01*
X32362502Y-22956974D01*
X32174144Y-23034995D01*
X32004626Y-23148263D01*
X31860463Y-23292426D01*
X31747195Y-23461944D01*
X31669174Y-23650302D01*
X31629400Y-23850261D01*
X27372705Y-23850261D01*
X27379098Y-23000809D01*
X27483426Y-23105137D01*
X27652944Y-23218405D01*
X27841302Y-23296426D01*
X28041261Y-23336200D01*
X28245139Y-23336200D01*
X28445098Y-23296426D01*
X28633456Y-23218405D01*
X28802974Y-23105137D01*
X28947137Y-22960974D01*
X29060405Y-22791456D01*
X29138426Y-22603098D01*
X29178200Y-22403139D01*
X29178200Y-22199261D01*
X29138426Y-21999302D01*
X29060405Y-21810944D01*
X29014379Y-21742061D01*
X35058400Y-21742061D01*
X35058400Y-21945939D01*
X35098174Y-22145898D01*
X35176195Y-22334256D01*
X35289463Y-22503774D01*
X35433626Y-22647937D01*
X35603144Y-22761205D01*
X35791502Y-22839226D01*
X35991461Y-22879000D01*
X36195339Y-22879000D01*
X36395298Y-22839226D01*
X36583656Y-22761205D01*
X36753174Y-22647937D01*
X36897337Y-22503774D01*
X37010605Y-22334256D01*
X37088626Y-22145898D01*
X37128400Y-21945939D01*
X37128400Y-21742061D01*
X37088626Y-21542102D01*
X37010605Y-21353744D01*
X36897337Y-21184226D01*
X36753174Y-21040063D01*
X36583656Y-20926795D01*
X36395298Y-20848774D01*
X36195339Y-20809000D01*
X35991461Y-20809000D01*
X35791502Y-20848774D01*
X35603144Y-20926795D01*
X35433626Y-21040063D01*
X35289463Y-21184226D01*
X35176195Y-21353744D01*
X35098174Y-21542102D01*
X35058400Y-21742061D01*
X29014379Y-21742061D01*
X28947137Y-21641426D01*
X28802974Y-21497263D01*
X28633456Y-21383995D01*
X28445098Y-21305974D01*
X28245139Y-21266200D01*
X28041261Y-21266200D01*
X27841302Y-21305974D01*
X27652944Y-21383995D01*
X27483426Y-21497263D01*
X27389708Y-21590981D01*
X27407685Y-19202061D01*
X30130800Y-19202061D01*
X30130800Y-19405939D01*
X30170574Y-19605898D01*
X30248595Y-19794256D01*
X30361863Y-19963774D01*
X30506026Y-20107937D01*
X30675544Y-20221205D01*
X30863902Y-20299226D01*
X31063861Y-20339000D01*
X31267739Y-20339000D01*
X31467698Y-20299226D01*
X31656056Y-20221205D01*
X31825574Y-20107937D01*
X31969737Y-19963774D01*
X32083005Y-19794256D01*
X32117879Y-19710061D01*
X41814800Y-19710061D01*
X41814800Y-19913939D01*
X41854574Y-20113898D01*
X41932595Y-20302256D01*
X42045863Y-20471774D01*
X42190026Y-20615937D01*
X42359544Y-20729205D01*
X42547902Y-20807226D01*
X42747861Y-20847000D01*
X42951739Y-20847000D01*
X43151698Y-20807226D01*
X43340056Y-20729205D01*
X43509574Y-20615937D01*
X43653737Y-20471774D01*
X43767005Y-20302256D01*
X43845026Y-20113898D01*
X43884800Y-19913939D01*
X43884800Y-19710061D01*
X43845026Y-19510102D01*
X43767005Y-19321744D01*
X43653737Y-19152226D01*
X43509574Y-19008063D01*
X43340056Y-18894795D01*
X43151698Y-18816774D01*
X42951739Y-18777000D01*
X42747861Y-18777000D01*
X42547902Y-18816774D01*
X42359544Y-18894795D01*
X42190026Y-19008063D01*
X42045863Y-19152226D01*
X41932595Y-19321744D01*
X41854574Y-19510102D01*
X41814800Y-19710061D01*
X32117879Y-19710061D01*
X32161026Y-19605898D01*
X32200800Y-19405939D01*
X32200800Y-19202061D01*
X32161026Y-19002102D01*
X32083005Y-18813744D01*
X31969737Y-18644226D01*
X31825574Y-18500063D01*
X31656056Y-18386795D01*
X31467698Y-18308774D01*
X31267739Y-18269000D01*
X31063861Y-18269000D01*
X30863902Y-18308774D01*
X30675544Y-18386795D01*
X30506026Y-18500063D01*
X30361863Y-18644226D01*
X30248595Y-18813744D01*
X30170574Y-19002102D01*
X30130800Y-19202061D01*
X27407685Y-19202061D01*
X27423278Y-17130006D01*
X27525944Y-17198605D01*
X27714302Y-17276626D01*
X27914261Y-17316400D01*
X28118139Y-17316400D01*
X28318098Y-17276626D01*
X28506456Y-17198605D01*
X28675974Y-17085337D01*
X28820137Y-16941174D01*
X28933405Y-16771656D01*
X29011426Y-16583298D01*
X29045464Y-16412175D01*
X29134426Y-16501137D01*
X29303944Y-16614405D01*
X29314653Y-16618841D01*
X29312226Y-16620463D01*
X29168063Y-16764626D01*
X29054795Y-16934144D01*
X28976774Y-17122502D01*
X28937000Y-17322461D01*
X28937000Y-17526339D01*
X28976774Y-17726298D01*
X29054795Y-17914656D01*
X29168063Y-18084174D01*
X29312226Y-18228337D01*
X29481744Y-18341605D01*
X29670102Y-18419626D01*
X29870061Y-18459400D01*
X30073939Y-18459400D01*
X30273898Y-18419626D01*
X30462256Y-18341605D01*
X30631774Y-18228337D01*
X30775937Y-18084174D01*
X30889205Y-17914656D01*
X30967226Y-17726298D01*
X30970254Y-17711073D01*
X30990902Y-17719626D01*
X31190861Y-17759400D01*
X31394739Y-17759400D01*
X31594698Y-17719626D01*
X31783056Y-17641605D01*
X31952574Y-17528337D01*
X32096737Y-17384174D01*
X32210005Y-17214656D01*
X32288026Y-17026298D01*
X32327800Y-16826339D01*
X32327800Y-16622461D01*
X32288026Y-16422502D01*
X32210005Y-16234144D01*
X32096737Y-16064626D01*
X31952574Y-15920463D01*
X31842201Y-15846714D01*
X31927174Y-15789937D01*
X32071337Y-15645774D01*
X32184605Y-15476256D01*
X32262626Y-15287898D01*
X32302400Y-15087939D01*
X32302400Y-14884061D01*
X32262626Y-14684102D01*
X32184605Y-14495744D01*
X32071337Y-14326226D01*
X31927174Y-14182063D01*
X31757656Y-14068795D01*
X31569298Y-13990774D01*
X31369339Y-13951000D01*
X31165461Y-13951000D01*
X30965502Y-13990774D01*
X30803800Y-14057754D01*
X30803800Y-14020461D01*
X30764026Y-13820502D01*
X30686005Y-13632144D01*
X30589064Y-13487061D01*
X35337800Y-13487061D01*
X35337800Y-13690939D01*
X35377574Y-13890898D01*
X35455595Y-14079256D01*
X35568863Y-14248774D01*
X35713026Y-14392937D01*
X35882544Y-14506205D01*
X36070902Y-14584226D01*
X36270861Y-14624000D01*
X36474739Y-14624000D01*
X36674698Y-14584226D01*
X36863056Y-14506205D01*
X37032574Y-14392937D01*
X37176737Y-14248774D01*
X37290005Y-14079256D01*
X37368026Y-13890898D01*
X37407800Y-13690939D01*
X37407800Y-13487061D01*
X37368026Y-13287102D01*
X37290005Y-13098744D01*
X37176737Y-12929226D01*
X37032574Y-12785063D01*
X36863056Y-12671795D01*
X36674698Y-12593774D01*
X36474739Y-12554000D01*
X36270861Y-12554000D01*
X36070902Y-12593774D01*
X35882544Y-12671795D01*
X35713026Y-12785063D01*
X35568863Y-12929226D01*
X35455595Y-13098744D01*
X35377574Y-13287102D01*
X35337800Y-13487061D01*
X30589064Y-13487061D01*
X30572737Y-13462626D01*
X30428574Y-13318463D01*
X30259056Y-13205195D01*
X30070698Y-13127174D01*
X29870739Y-13087400D01*
X29666861Y-13087400D01*
X29466902Y-13127174D01*
X29278544Y-13205195D01*
X29109026Y-13318463D01*
X28964863Y-13462626D01*
X28851595Y-13632144D01*
X28773574Y-13820502D01*
X28733800Y-14020461D01*
X28733800Y-14224339D01*
X28773574Y-14424298D01*
X28851595Y-14612656D01*
X28964863Y-14782174D01*
X29105189Y-14922500D01*
X28990263Y-15037426D01*
X28876995Y-15206944D01*
X28798974Y-15395302D01*
X28764936Y-15566425D01*
X28675974Y-15477463D01*
X28506456Y-15364195D01*
X28318098Y-15286174D01*
X28118139Y-15246400D01*
X27914261Y-15246400D01*
X27714302Y-15286174D01*
X27525944Y-15364195D01*
X27436115Y-15424217D01*
X27460429Y-12193401D01*
X27500544Y-12220205D01*
X27688902Y-12298226D01*
X27888861Y-12338000D01*
X28092739Y-12338000D01*
X28292698Y-12298226D01*
X28481056Y-12220205D01*
X28650574Y-12106937D01*
X28794737Y-11962774D01*
X28908005Y-11793256D01*
X28986026Y-11604898D01*
X29025800Y-11404939D01*
X29025800Y-11201061D01*
X28986026Y-11001102D01*
X28908005Y-10812744D01*
X28794737Y-10643226D01*
X28650574Y-10499063D01*
X28481056Y-10385795D01*
X28292698Y-10307774D01*
X28092739Y-10268000D01*
X27888861Y-10268000D01*
X27688902Y-10307774D01*
X27500544Y-10385795D01*
X27473898Y-10403600D01*
X27481860Y-9345529D01*
X31491120Y-9292021D01*
X31442395Y-9364944D01*
X31364374Y-9553302D01*
X31324600Y-9753261D01*
X31324600Y-9957139D01*
X31364374Y-10157098D01*
X31442395Y-10345456D01*
X31555663Y-10514974D01*
X31699826Y-10659137D01*
X31869344Y-10772405D01*
X32057702Y-10850426D01*
X32257661Y-10890200D01*
X32461539Y-10890200D01*
X32661498Y-10850426D01*
X32849856Y-10772405D01*
X33019374Y-10659137D01*
X33163537Y-10514974D01*
X33276805Y-10345456D01*
X33354826Y-10157098D01*
X33394600Y-9957139D01*
X33394600Y-9753261D01*
X33354826Y-9553302D01*
X33276805Y-9364944D01*
X33212727Y-9269045D01*
X34310137Y-9254399D01*
X34259974Y-9375502D01*
X34220200Y-9575461D01*
X34220200Y-9779339D01*
X34259974Y-9979298D01*
X34337995Y-10167656D01*
X34384640Y-10237465D01*
X34333144Y-10258795D01*
X34163626Y-10372063D01*
X34019463Y-10516226D01*
X33906195Y-10685744D01*
X33828174Y-10874102D01*
X33788400Y-11074061D01*
X33788400Y-11277939D01*
X33828174Y-11477898D01*
X33906195Y-11666256D01*
X34019463Y-11835774D01*
X34163626Y-11979937D01*
X34333144Y-12093205D01*
X34521502Y-12171226D01*
X34721461Y-12211000D01*
X34925339Y-12211000D01*
X35125298Y-12171226D01*
X35313656Y-12093205D01*
X35483174Y-11979937D01*
X35627337Y-11835774D01*
X35740605Y-11666256D01*
X35818626Y-11477898D01*
X35858400Y-11277939D01*
X35858400Y-11074061D01*
X35818626Y-10874102D01*
X35740605Y-10685744D01*
X35693960Y-10615935D01*
X35745456Y-10594605D01*
X35914974Y-10481337D01*
X36059137Y-10337174D01*
X36172405Y-10167656D01*
X36250426Y-9979298D01*
X36290200Y-9779339D01*
X36290200Y-9575461D01*
X36250426Y-9375502D01*
X36189872Y-9229312D01*
X43171961Y-9136128D01*
X43061863Y-9246226D01*
X42984730Y-9361665D01*
X42882856Y-9293595D01*
X42694498Y-9215574D01*
X42494539Y-9175800D01*
X42290661Y-9175800D01*
X42090702Y-9215574D01*
X41902344Y-9293595D01*
X41732826Y-9406863D01*
X41588663Y-9551026D01*
X41511133Y-9667057D01*
X41370028Y-9525952D01*
X41200510Y-9412684D01*
X41012152Y-9334663D01*
X40812193Y-9294889D01*
X40608315Y-9294889D01*
X40408356Y-9334663D01*
X40219998Y-9412684D01*
X40079004Y-9506893D01*
X40055174Y-9483063D01*
X39885656Y-9369795D01*
X39697298Y-9291774D01*
X39497339Y-9252000D01*
X39293461Y-9252000D01*
X39093502Y-9291774D01*
X38905144Y-9369795D01*
X38741393Y-9479210D01*
X38615656Y-9395195D01*
X38427298Y-9317174D01*
X38227339Y-9277400D01*
X38023461Y-9277400D01*
X37823502Y-9317174D01*
X37635144Y-9395195D01*
X37465626Y-9508463D01*
X37321463Y-9652626D01*
X37208195Y-9822144D01*
X37130174Y-10010502D01*
X37090400Y-10210461D01*
X37090400Y-10245285D01*
X36935144Y-10309595D01*
X36765626Y-10422863D01*
X36621463Y-10567026D01*
X36508195Y-10736544D01*
X36430174Y-10924902D01*
X36390400Y-11124861D01*
X36390400Y-11328739D01*
X36430174Y-11528698D01*
X36508195Y-11717056D01*
X36621463Y-11886574D01*
X36765626Y-12030737D01*
X36935144Y-12144005D01*
X37123502Y-12222026D01*
X37323461Y-12261800D01*
X37527339Y-12261800D01*
X37727298Y-12222026D01*
X37915656Y-12144005D01*
X38085174Y-12030737D01*
X38229337Y-11886574D01*
X38342605Y-11717056D01*
X38420626Y-11528698D01*
X38460400Y-11328739D01*
X38460400Y-11293915D01*
X38615656Y-11229605D01*
X38779407Y-11120190D01*
X38905144Y-11204205D01*
X39093502Y-11282226D01*
X39293461Y-11322000D01*
X39497339Y-11322000D01*
X39697298Y-11282226D01*
X39885656Y-11204205D01*
X40026650Y-11109996D01*
X40050480Y-11133826D01*
X40219998Y-11247094D01*
X40408356Y-11325115D01*
X40572514Y-11357768D01*
X40573375Y-11362097D01*
X40651396Y-11550455D01*
X40764664Y-11719973D01*
X40908827Y-11864136D01*
X41078345Y-11977404D01*
X41266703Y-12055425D01*
X41466662Y-12095199D01*
X41670540Y-12095199D01*
X41870499Y-12055425D01*
X42058857Y-11977404D01*
X42228375Y-11864136D01*
X42372538Y-11719973D01*
X42485806Y-11550455D01*
X42563827Y-11362097D01*
X42590767Y-11226659D01*
X42694498Y-11206026D01*
X42882856Y-11128005D01*
X43052374Y-11014737D01*
X43196537Y-10870574D01*
X43273670Y-10755135D01*
X43375544Y-10823205D01*
X43563902Y-10901226D01*
X43763861Y-10941000D01*
X43967739Y-10941000D01*
X44167698Y-10901226D01*
X44356056Y-10823205D01*
X44525574Y-10709937D01*
X44669737Y-10565774D01*
X44783005Y-10396256D01*
X44861026Y-10207898D01*
X44900800Y-10007939D01*
X44900800Y-9804061D01*
X44861026Y-9604102D01*
X44783005Y-9415744D01*
X44669737Y-9246226D01*
X44541363Y-9117852D01*
X47211770Y-9082213D01*
X47183860Y-16570386D01*
G37*
X47183860Y-16570386D02*
X47172426Y-16512902D01*
X47094405Y-16324544D01*
X46981137Y-16155026D01*
X46836974Y-16010863D01*
X46667456Y-15897595D01*
X46479098Y-15819574D01*
X46279139Y-15779800D01*
X46075261Y-15779800D01*
X45875302Y-15819574D01*
X45686944Y-15897595D01*
X45517426Y-16010863D01*
X45373263Y-16155026D01*
X45259995Y-16324544D01*
X45181974Y-16512902D01*
X45142200Y-16712861D01*
X45142200Y-16916739D01*
X45181974Y-17116698D01*
X45259995Y-17305056D01*
X45373263Y-17474574D01*
X45517426Y-17618737D01*
X45686944Y-17732005D01*
X45875302Y-17810026D01*
X45946011Y-17824091D01*
X45813944Y-17878795D01*
X45644426Y-17992063D01*
X45500263Y-18136226D01*
X45386995Y-18305744D01*
X45308974Y-18494102D01*
X45269200Y-18694061D01*
X45269200Y-18897939D01*
X45308974Y-19097898D01*
X45386995Y-19286256D01*
X45500263Y-19455774D01*
X45644426Y-19599937D01*
X45813944Y-19713205D01*
X46002302Y-19791226D01*
X46202261Y-19831000D01*
X46406139Y-19831000D01*
X46606098Y-19791226D01*
X46794456Y-19713205D01*
X46963974Y-19599937D01*
X47108137Y-19455774D01*
X47173470Y-19357996D01*
X47154090Y-24557579D01*
X47065574Y-24469063D01*
X46896056Y-24355795D01*
X46707698Y-24277774D01*
X46507739Y-24238000D01*
X46303861Y-24238000D01*
X46103902Y-24277774D01*
X45915544Y-24355795D01*
X45746026Y-24469063D01*
X45601863Y-24613226D01*
X45488595Y-24782744D01*
X45410574Y-24971102D01*
X45370800Y-25171061D01*
X45370800Y-25374939D01*
X45410574Y-25574898D01*
X45488595Y-25763256D01*
X45500451Y-25781000D01*
X45488595Y-25798744D01*
X45410574Y-25987102D01*
X45370800Y-26187061D01*
X45370800Y-26390939D01*
X45410574Y-26590898D01*
X45488595Y-26779256D01*
X45601863Y-26948774D01*
X45746026Y-27092937D01*
X45915544Y-27206205D01*
X46103902Y-27284226D01*
X46303861Y-27324000D01*
X46507739Y-27324000D01*
X46707698Y-27284226D01*
X46896056Y-27206205D01*
X47065574Y-27092937D01*
X47144936Y-27013575D01*
X47138114Y-28844031D01*
X46321063Y-28838599D01*
X46337684Y-28813723D01*
X46415705Y-28625365D01*
X46455479Y-28425406D01*
X46455479Y-28221528D01*
X46415705Y-28021569D01*
X46337684Y-27833211D01*
X46224416Y-27663693D01*
X46080253Y-27519530D01*
X45910735Y-27406262D01*
X45722377Y-27328241D01*
X45522418Y-27288467D01*
X45318540Y-27288467D01*
X45118581Y-27328241D01*
X44930223Y-27406262D01*
X44870644Y-27446071D01*
X44723996Y-27385327D01*
X44524037Y-27345553D01*
X44320159Y-27345553D01*
X44314992Y-27346581D01*
X44304907Y-27331488D01*
X44160744Y-27187325D01*
X43991226Y-27074057D01*
X43935600Y-27051016D01*
X43935600Y-26974461D01*
X43895826Y-26774502D01*
X43817805Y-26586144D01*
X43704537Y-26416626D01*
X43560374Y-26272463D01*
X43390856Y-26159195D01*
X43202498Y-26081174D01*
X43002539Y-26041400D01*
X42798661Y-26041400D01*
X42598702Y-26081174D01*
X42410344Y-26159195D01*
X42240826Y-26272463D01*
X42096663Y-26416626D01*
X41983395Y-26586144D01*
X41905374Y-26774502D01*
X41865600Y-26974461D01*
X41865600Y-27178339D01*
X41905374Y-27378298D01*
X41983395Y-27566656D01*
X42096663Y-27736174D01*
X42240826Y-27880337D01*
X42410344Y-27993605D01*
X42465970Y-28016646D01*
X42465970Y-28093201D01*
X42505744Y-28293160D01*
X42583765Y-28481518D01*
X42697033Y-28651036D01*
X42841196Y-28795199D01*
X42871827Y-28815666D01*
X40767548Y-28801675D01*
X40846005Y-28684256D01*
X40924026Y-28495898D01*
X40963800Y-28295939D01*
X40963800Y-28092061D01*
X40924026Y-27892102D01*
X40846005Y-27703744D01*
X40732737Y-27534226D01*
X40588574Y-27390063D01*
X40419056Y-27276795D01*
X40230698Y-27198774D01*
X40030739Y-27159000D01*
X39826861Y-27159000D01*
X39626902Y-27198774D01*
X39438544Y-27276795D01*
X39269026Y-27390063D01*
X39124863Y-27534226D01*
X39011595Y-27703744D01*
X38933574Y-27892102D01*
X38893800Y-28092061D01*
X38893800Y-28295939D01*
X38933574Y-28495898D01*
X39011595Y-28684256D01*
X39082566Y-28790472D01*
X38201968Y-28784617D01*
X38265370Y-28631551D01*
X38305144Y-28431592D01*
X38305144Y-28227714D01*
X38265370Y-28027755D01*
X38187349Y-27839397D01*
X38074081Y-27669879D01*
X37929918Y-27525716D01*
X37760400Y-27412448D01*
X37572042Y-27334427D01*
X37372083Y-27294653D01*
X37168205Y-27294653D01*
X36968246Y-27334427D01*
X36779888Y-27412448D01*
X36610370Y-27525716D01*
X36466207Y-27669879D01*
X36352939Y-27839397D01*
X36274918Y-28027755D01*
X36235144Y-28227714D01*
X36235144Y-28431592D01*
X36274918Y-28631551D01*
X36333174Y-28772192D01*
X35181675Y-28764536D01*
X35260854Y-28646036D01*
X35338875Y-28457678D01*
X35378649Y-28257719D01*
X35378649Y-28053841D01*
X35338875Y-27853882D01*
X35260854Y-27665524D01*
X35147586Y-27496006D01*
X35003423Y-27351843D01*
X34833905Y-27238575D01*
X34645547Y-27160554D01*
X34445588Y-27120780D01*
X34241710Y-27120780D01*
X34041751Y-27160554D01*
X33853393Y-27238575D01*
X33683875Y-27351843D01*
X33539712Y-27496006D01*
X33426444Y-27665524D01*
X33348423Y-27853882D01*
X33308649Y-28053841D01*
X33308649Y-28257719D01*
X33348423Y-28457678D01*
X33426444Y-28646036D01*
X33498144Y-28753343D01*
X30434531Y-28732974D01*
X30563856Y-28679405D01*
X30733374Y-28566137D01*
X30877537Y-28421974D01*
X30990805Y-28252456D01*
X31068826Y-28064098D01*
X31108600Y-27864139D01*
X31108600Y-27660261D01*
X31068826Y-27460302D01*
X30990805Y-27271944D01*
X30877537Y-27102426D01*
X30733374Y-26958263D01*
X30563856Y-26844995D01*
X30375498Y-26766974D01*
X30175539Y-26727200D01*
X29971661Y-26727200D01*
X29771702Y-26766974D01*
X29583344Y-26844995D01*
X29413826Y-26958263D01*
X29288948Y-27083141D01*
X29159541Y-27057400D01*
X28955663Y-27057400D01*
X28755704Y-27097174D01*
X28567346Y-27175195D01*
X28497890Y-27221604D01*
X28446335Y-27187156D01*
X28257977Y-27109135D01*
X28058018Y-27069361D01*
X27854140Y-27069361D01*
X27654181Y-27109135D01*
X27465823Y-27187156D01*
X27346996Y-27266553D01*
X27357969Y-25808541D01*
X27390063Y-25856574D01*
X27534226Y-26000737D01*
X27703744Y-26114005D01*
X27892102Y-26192026D01*
X28092061Y-26231800D01*
X28295939Y-26231800D01*
X28495898Y-26192026D01*
X28684256Y-26114005D01*
X28853774Y-26000737D01*
X28997937Y-25856574D01*
X29111205Y-25687056D01*
X29189226Y-25498698D01*
X29229000Y-25298739D01*
X29229000Y-25094861D01*
X29189226Y-24894902D01*
X29111205Y-24706544D01*
X28997937Y-24537026D01*
X28853774Y-24392863D01*
X28684256Y-24279595D01*
X28495898Y-24201574D01*
X28295939Y-24161800D01*
X28092061Y-24161800D01*
X27892102Y-24201574D01*
X27703744Y-24279595D01*
X27534226Y-24392863D01*
X27390063Y-24537026D01*
X27367281Y-24571122D01*
X27372705Y-23850261D01*
X31629400Y-23850261D01*
X31629400Y-24054139D01*
X31669174Y-24254098D01*
X31747195Y-24442456D01*
X31860463Y-24611974D01*
X32004626Y-24756137D01*
X32174144Y-24869405D01*
X32362502Y-24947426D01*
X32562461Y-24987200D01*
X32766339Y-24987200D01*
X32966298Y-24947426D01*
X33154656Y-24869405D01*
X33324174Y-24756137D01*
X33468337Y-24611974D01*
X33581605Y-24442456D01*
X33659626Y-24254098D01*
X33699400Y-24054139D01*
X33699400Y-24028061D01*
X34829800Y-24028061D01*
X34829800Y-24231939D01*
X34869574Y-24431898D01*
X34947595Y-24620256D01*
X35060863Y-24789774D01*
X35205026Y-24933937D01*
X35374544Y-25047205D01*
X35562902Y-25125226D01*
X35762861Y-25165000D01*
X35966739Y-25165000D01*
X36166698Y-25125226D01*
X36355056Y-25047205D01*
X36524574Y-24933937D01*
X36668450Y-24790061D01*
X38893800Y-24790061D01*
X38893800Y-24993939D01*
X38933574Y-25193898D01*
X39011595Y-25382256D01*
X39124863Y-25551774D01*
X39269026Y-25695937D01*
X39438544Y-25809205D01*
X39626902Y-25887226D01*
X39826861Y-25927000D01*
X40030739Y-25927000D01*
X40230698Y-25887226D01*
X40419056Y-25809205D01*
X40588574Y-25695937D01*
X40732737Y-25551774D01*
X40846005Y-25382256D01*
X40924026Y-25193898D01*
X40963800Y-24993939D01*
X40963800Y-24790061D01*
X40924026Y-24590102D01*
X40846005Y-24401744D01*
X40732737Y-24232226D01*
X40588574Y-24088063D01*
X40419056Y-23974795D01*
X40230698Y-23896774D01*
X40030739Y-23857000D01*
X39826861Y-23857000D01*
X39626902Y-23896774D01*
X39438544Y-23974795D01*
X39269026Y-24088063D01*
X39124863Y-24232226D01*
X39011595Y-24401744D01*
X38933574Y-24590102D01*
X38893800Y-24790061D01*
X36668450Y-24790061D01*
X36668737Y-24789774D01*
X36782005Y-24620256D01*
X36860026Y-24431898D01*
X36899800Y-24231939D01*
X36899800Y-24028061D01*
X36860026Y-23828102D01*
X36782005Y-23639744D01*
X36668737Y-23470226D01*
X36524574Y-23326063D01*
X36355056Y-23212795D01*
X36166698Y-23134774D01*
X35966739Y-23095000D01*
X35762861Y-23095000D01*
X35562902Y-23134774D01*
X35374544Y-23212795D01*
X35205026Y-23326063D01*
X35060863Y-23470226D01*
X34947595Y-23639744D01*
X34869574Y-23828102D01*
X34829800Y-24028061D01*
X33699400Y-24028061D01*
X33699400Y-23850261D01*
X33659626Y-23650302D01*
X33581605Y-23461944D01*
X33468337Y-23292426D01*
X33324174Y-23148263D01*
X33154656Y-23034995D01*
X32966298Y-22956974D01*
X32766339Y-22917200D01*
X32562461Y-22917200D01*
X32362502Y-22956974D01*
X32174144Y-23034995D01*
X32004626Y-23148263D01*
X31860463Y-23292426D01*
X31747195Y-23461944D01*
X31669174Y-23650302D01*
X31629400Y-23850261D01*
X27372705Y-23850261D01*
X27379098Y-23000809D01*
X27483426Y-23105137D01*
X27652944Y-23218405D01*
X27841302Y-23296426D01*
X28041261Y-23336200D01*
X28245139Y-23336200D01*
X28445098Y-23296426D01*
X28633456Y-23218405D01*
X28802974Y-23105137D01*
X28947137Y-22960974D01*
X29060405Y-22791456D01*
X29138426Y-22603098D01*
X29178200Y-22403139D01*
X29178200Y-22199261D01*
X29138426Y-21999302D01*
X29060405Y-21810944D01*
X29014379Y-21742061D01*
X35058400Y-21742061D01*
X35058400Y-21945939D01*
X35098174Y-22145898D01*
X35176195Y-22334256D01*
X35289463Y-22503774D01*
X35433626Y-22647937D01*
X35603144Y-22761205D01*
X35791502Y-22839226D01*
X35991461Y-22879000D01*
X36195339Y-22879000D01*
X36395298Y-22839226D01*
X36583656Y-22761205D01*
X36753174Y-22647937D01*
X36897337Y-22503774D01*
X37010605Y-22334256D01*
X37088626Y-22145898D01*
X37128400Y-21945939D01*
X37128400Y-21742061D01*
X37088626Y-21542102D01*
X37010605Y-21353744D01*
X36897337Y-21184226D01*
X36753174Y-21040063D01*
X36583656Y-20926795D01*
X36395298Y-20848774D01*
X36195339Y-20809000D01*
X35991461Y-20809000D01*
X35791502Y-20848774D01*
X35603144Y-20926795D01*
X35433626Y-21040063D01*
X35289463Y-21184226D01*
X35176195Y-21353744D01*
X35098174Y-21542102D01*
X35058400Y-21742061D01*
X29014379Y-21742061D01*
X28947137Y-21641426D01*
X28802974Y-21497263D01*
X28633456Y-21383995D01*
X28445098Y-21305974D01*
X28245139Y-21266200D01*
X28041261Y-21266200D01*
X27841302Y-21305974D01*
X27652944Y-21383995D01*
X27483426Y-21497263D01*
X27389708Y-21590981D01*
X27407685Y-19202061D01*
X30130800Y-19202061D01*
X30130800Y-19405939D01*
X30170574Y-19605898D01*
X30248595Y-19794256D01*
X30361863Y-19963774D01*
X30506026Y-20107937D01*
X30675544Y-20221205D01*
X30863902Y-20299226D01*
X31063861Y-20339000D01*
X31267739Y-20339000D01*
X31467698Y-20299226D01*
X31656056Y-20221205D01*
X31825574Y-20107937D01*
X31969737Y-19963774D01*
X32083005Y-19794256D01*
X32117879Y-19710061D01*
X41814800Y-19710061D01*
X41814800Y-19913939D01*
X41854574Y-20113898D01*
X41932595Y-20302256D01*
X42045863Y-20471774D01*
X42190026Y-20615937D01*
X42359544Y-20729205D01*
X42547902Y-20807226D01*
X42747861Y-20847000D01*
X42951739Y-20847000D01*
X43151698Y-20807226D01*
X43340056Y-20729205D01*
X43509574Y-20615937D01*
X43653737Y-20471774D01*
X43767005Y-20302256D01*
X43845026Y-20113898D01*
X43884800Y-19913939D01*
X43884800Y-19710061D01*
X43845026Y-19510102D01*
X43767005Y-19321744D01*
X43653737Y-19152226D01*
X43509574Y-19008063D01*
X43340056Y-18894795D01*
X43151698Y-18816774D01*
X42951739Y-18777000D01*
X42747861Y-18777000D01*
X42547902Y-18816774D01*
X42359544Y-18894795D01*
X42190026Y-19008063D01*
X42045863Y-19152226D01*
X41932595Y-19321744D01*
X41854574Y-19510102D01*
X41814800Y-19710061D01*
X32117879Y-19710061D01*
X32161026Y-19605898D01*
X32200800Y-19405939D01*
X32200800Y-19202061D01*
X32161026Y-19002102D01*
X32083005Y-18813744D01*
X31969737Y-18644226D01*
X31825574Y-18500063D01*
X31656056Y-18386795D01*
X31467698Y-18308774D01*
X31267739Y-18269000D01*
X31063861Y-18269000D01*
X30863902Y-18308774D01*
X30675544Y-18386795D01*
X30506026Y-18500063D01*
X30361863Y-18644226D01*
X30248595Y-18813744D01*
X30170574Y-19002102D01*
X30130800Y-19202061D01*
X27407685Y-19202061D01*
X27423278Y-17130006D01*
X27525944Y-17198605D01*
X27714302Y-17276626D01*
X27914261Y-17316400D01*
X28118139Y-17316400D01*
X28318098Y-17276626D01*
X28506456Y-17198605D01*
X28675974Y-17085337D01*
X28820137Y-16941174D01*
X28933405Y-16771656D01*
X29011426Y-16583298D01*
X29045464Y-16412175D01*
X29134426Y-16501137D01*
X29303944Y-16614405D01*
X29314653Y-16618841D01*
X29312226Y-16620463D01*
X29168063Y-16764626D01*
X29054795Y-16934144D01*
X28976774Y-17122502D01*
X28937000Y-17322461D01*
X28937000Y-17526339D01*
X28976774Y-17726298D01*
X29054795Y-17914656D01*
X29168063Y-18084174D01*
X29312226Y-18228337D01*
X29481744Y-18341605D01*
X29670102Y-18419626D01*
X29870061Y-18459400D01*
X30073939Y-18459400D01*
X30273898Y-18419626D01*
X30462256Y-18341605D01*
X30631774Y-18228337D01*
X30775937Y-18084174D01*
X30889205Y-17914656D01*
X30967226Y-17726298D01*
X30970254Y-17711073D01*
X30990902Y-17719626D01*
X31190861Y-17759400D01*
X31394739Y-17759400D01*
X31594698Y-17719626D01*
X31783056Y-17641605D01*
X31952574Y-17528337D01*
X32096737Y-17384174D01*
X32210005Y-17214656D01*
X32288026Y-17026298D01*
X32327800Y-16826339D01*
X32327800Y-16622461D01*
X32288026Y-16422502D01*
X32210005Y-16234144D01*
X32096737Y-16064626D01*
X31952574Y-15920463D01*
X31842201Y-15846714D01*
X31927174Y-15789937D01*
X32071337Y-15645774D01*
X32184605Y-15476256D01*
X32262626Y-15287898D01*
X32302400Y-15087939D01*
X32302400Y-14884061D01*
X32262626Y-14684102D01*
X32184605Y-14495744D01*
X32071337Y-14326226D01*
X31927174Y-14182063D01*
X31757656Y-14068795D01*
X31569298Y-13990774D01*
X31369339Y-13951000D01*
X31165461Y-13951000D01*
X30965502Y-13990774D01*
X30803800Y-14057754D01*
X30803800Y-14020461D01*
X30764026Y-13820502D01*
X30686005Y-13632144D01*
X30589064Y-13487061D01*
X35337800Y-13487061D01*
X35337800Y-13690939D01*
X35377574Y-13890898D01*
X35455595Y-14079256D01*
X35568863Y-14248774D01*
X35713026Y-14392937D01*
X35882544Y-14506205D01*
X36070902Y-14584226D01*
X36270861Y-14624000D01*
X36474739Y-14624000D01*
X36674698Y-14584226D01*
X36863056Y-14506205D01*
X37032574Y-14392937D01*
X37176737Y-14248774D01*
X37290005Y-14079256D01*
X37368026Y-13890898D01*
X37407800Y-13690939D01*
X37407800Y-13487061D01*
X37368026Y-13287102D01*
X37290005Y-13098744D01*
X37176737Y-12929226D01*
X37032574Y-12785063D01*
X36863056Y-12671795D01*
X36674698Y-12593774D01*
X36474739Y-12554000D01*
X36270861Y-12554000D01*
X36070902Y-12593774D01*
X35882544Y-12671795D01*
X35713026Y-12785063D01*
X35568863Y-12929226D01*
X35455595Y-13098744D01*
X35377574Y-13287102D01*
X35337800Y-13487061D01*
X30589064Y-13487061D01*
X30572737Y-13462626D01*
X30428574Y-13318463D01*
X30259056Y-13205195D01*
X30070698Y-13127174D01*
X29870739Y-13087400D01*
X29666861Y-13087400D01*
X29466902Y-13127174D01*
X29278544Y-13205195D01*
X29109026Y-13318463D01*
X28964863Y-13462626D01*
X28851595Y-13632144D01*
X28773574Y-13820502D01*
X28733800Y-14020461D01*
X28733800Y-14224339D01*
X28773574Y-14424298D01*
X28851595Y-14612656D01*
X28964863Y-14782174D01*
X29105189Y-14922500D01*
X28990263Y-15037426D01*
X28876995Y-15206944D01*
X28798974Y-15395302D01*
X28764936Y-15566425D01*
X28675974Y-15477463D01*
X28506456Y-15364195D01*
X28318098Y-15286174D01*
X28118139Y-15246400D01*
X27914261Y-15246400D01*
X27714302Y-15286174D01*
X27525944Y-15364195D01*
X27436115Y-15424217D01*
X27460429Y-12193401D01*
X27500544Y-12220205D01*
X27688902Y-12298226D01*
X27888861Y-12338000D01*
X28092739Y-12338000D01*
X28292698Y-12298226D01*
X28481056Y-12220205D01*
X28650574Y-12106937D01*
X28794737Y-11962774D01*
X28908005Y-11793256D01*
X28986026Y-11604898D01*
X29025800Y-11404939D01*
X29025800Y-11201061D01*
X28986026Y-11001102D01*
X28908005Y-10812744D01*
X28794737Y-10643226D01*
X28650574Y-10499063D01*
X28481056Y-10385795D01*
X28292698Y-10307774D01*
X28092739Y-10268000D01*
X27888861Y-10268000D01*
X27688902Y-10307774D01*
X27500544Y-10385795D01*
X27473898Y-10403600D01*
X27481860Y-9345529D01*
X31491120Y-9292021D01*
X31442395Y-9364944D01*
X31364374Y-9553302D01*
X31324600Y-9753261D01*
X31324600Y-9957139D01*
X31364374Y-10157098D01*
X31442395Y-10345456D01*
X31555663Y-10514974D01*
X31699826Y-10659137D01*
X31869344Y-10772405D01*
X32057702Y-10850426D01*
X32257661Y-10890200D01*
X32461539Y-10890200D01*
X32661498Y-10850426D01*
X32849856Y-10772405D01*
X33019374Y-10659137D01*
X33163537Y-10514974D01*
X33276805Y-10345456D01*
X33354826Y-10157098D01*
X33394600Y-9957139D01*
X33394600Y-9753261D01*
X33354826Y-9553302D01*
X33276805Y-9364944D01*
X33212727Y-9269045D01*
X34310137Y-9254399D01*
X34259974Y-9375502D01*
X34220200Y-9575461D01*
X34220200Y-9779339D01*
X34259974Y-9979298D01*
X34337995Y-10167656D01*
X34384640Y-10237465D01*
X34333144Y-10258795D01*
X34163626Y-10372063D01*
X34019463Y-10516226D01*
X33906195Y-10685744D01*
X33828174Y-10874102D01*
X33788400Y-11074061D01*
X33788400Y-11277939D01*
X33828174Y-11477898D01*
X33906195Y-11666256D01*
X34019463Y-11835774D01*
X34163626Y-11979937D01*
X34333144Y-12093205D01*
X34521502Y-12171226D01*
X34721461Y-12211000D01*
X34925339Y-12211000D01*
X35125298Y-12171226D01*
X35313656Y-12093205D01*
X35483174Y-11979937D01*
X35627337Y-11835774D01*
X35740605Y-11666256D01*
X35818626Y-11477898D01*
X35858400Y-11277939D01*
X35858400Y-11074061D01*
X35818626Y-10874102D01*
X35740605Y-10685744D01*
X35693960Y-10615935D01*
X35745456Y-10594605D01*
X35914974Y-10481337D01*
X36059137Y-10337174D01*
X36172405Y-10167656D01*
X36250426Y-9979298D01*
X36290200Y-9779339D01*
X36290200Y-9575461D01*
X36250426Y-9375502D01*
X36189872Y-9229312D01*
X43171961Y-9136128D01*
X43061863Y-9246226D01*
X42984730Y-9361665D01*
X42882856Y-9293595D01*
X42694498Y-9215574D01*
X42494539Y-9175800D01*
X42290661Y-9175800D01*
X42090702Y-9215574D01*
X41902344Y-9293595D01*
X41732826Y-9406863D01*
X41588663Y-9551026D01*
X41511133Y-9667057D01*
X41370028Y-9525952D01*
X41200510Y-9412684D01*
X41012152Y-9334663D01*
X40812193Y-9294889D01*
X40608315Y-9294889D01*
X40408356Y-9334663D01*
X40219998Y-9412684D01*
X40079004Y-9506893D01*
X40055174Y-9483063D01*
X39885656Y-9369795D01*
X39697298Y-9291774D01*
X39497339Y-9252000D01*
X39293461Y-9252000D01*
X39093502Y-9291774D01*
X38905144Y-9369795D01*
X38741393Y-9479210D01*
X38615656Y-9395195D01*
X38427298Y-9317174D01*
X38227339Y-9277400D01*
X38023461Y-9277400D01*
X37823502Y-9317174D01*
X37635144Y-9395195D01*
X37465626Y-9508463D01*
X37321463Y-9652626D01*
X37208195Y-9822144D01*
X37130174Y-10010502D01*
X37090400Y-10210461D01*
X37090400Y-10245285D01*
X36935144Y-10309595D01*
X36765626Y-10422863D01*
X36621463Y-10567026D01*
X36508195Y-10736544D01*
X36430174Y-10924902D01*
X36390400Y-11124861D01*
X36390400Y-11328739D01*
X36430174Y-11528698D01*
X36508195Y-11717056D01*
X36621463Y-11886574D01*
X36765626Y-12030737D01*
X36935144Y-12144005D01*
X37123502Y-12222026D01*
X37323461Y-12261800D01*
X37527339Y-12261800D01*
X37727298Y-12222026D01*
X37915656Y-12144005D01*
X38085174Y-12030737D01*
X38229337Y-11886574D01*
X38342605Y-11717056D01*
X38420626Y-11528698D01*
X38460400Y-11328739D01*
X38460400Y-11293915D01*
X38615656Y-11229605D01*
X38779407Y-11120190D01*
X38905144Y-11204205D01*
X39093502Y-11282226D01*
X39293461Y-11322000D01*
X39497339Y-11322000D01*
X39697298Y-11282226D01*
X39885656Y-11204205D01*
X40026650Y-11109996D01*
X40050480Y-11133826D01*
X40219998Y-11247094D01*
X40408356Y-11325115D01*
X40572514Y-11357768D01*
X40573375Y-11362097D01*
X40651396Y-11550455D01*
X40764664Y-11719973D01*
X40908827Y-11864136D01*
X41078345Y-11977404D01*
X41266703Y-12055425D01*
X41466662Y-12095199D01*
X41670540Y-12095199D01*
X41870499Y-12055425D01*
X42058857Y-11977404D01*
X42228375Y-11864136D01*
X42372538Y-11719973D01*
X42485806Y-11550455D01*
X42563827Y-11362097D01*
X42590767Y-11226659D01*
X42694498Y-11206026D01*
X42882856Y-11128005D01*
X43052374Y-11014737D01*
X43196537Y-10870574D01*
X43273670Y-10755135D01*
X43375544Y-10823205D01*
X43563902Y-10901226D01*
X43763861Y-10941000D01*
X43967739Y-10941000D01*
X44167698Y-10901226D01*
X44356056Y-10823205D01*
X44525574Y-10709937D01*
X44669737Y-10565774D01*
X44783005Y-10396256D01*
X44861026Y-10207898D01*
X44900800Y-10007939D01*
X44900800Y-9804061D01*
X44861026Y-9604102D01*
X44783005Y-9415744D01*
X44669737Y-9246226D01*
X44541363Y-9117852D01*
X47211770Y-9082213D01*
X47183860Y-16570386D01*
G36*
X36028463Y-867397D02*
G01*
X36067549Y-1063898D01*
X36145570Y-1252256D01*
X36258838Y-1421774D01*
X36403001Y-1565937D01*
X36572519Y-1679205D01*
X36760877Y-1757226D01*
X36960836Y-1797000D01*
X37164714Y-1797000D01*
X37364673Y-1757226D01*
X37553031Y-1679205D01*
X37562782Y-1672690D01*
X37572532Y-1679205D01*
X37760890Y-1757226D01*
X37960849Y-1797000D01*
X38164727Y-1797000D01*
X38364686Y-1757226D01*
X38553044Y-1679205D01*
X38562779Y-1672700D01*
X38572543Y-1679224D01*
X38760901Y-1757245D01*
X38960860Y-1797019D01*
X39164738Y-1797019D01*
X39364697Y-1757245D01*
X39553055Y-1679224D01*
X39563045Y-1672549D01*
X39572554Y-1678902D01*
X39760912Y-1756923D01*
X39960871Y-1796697D01*
X40164749Y-1796697D01*
X40364708Y-1756923D01*
X40553066Y-1678902D01*
X40607347Y-1642632D01*
X40699466Y-1704184D01*
X40887824Y-1782205D01*
X41087783Y-1821979D01*
X41291661Y-1821979D01*
X41491620Y-1782205D01*
X41679978Y-1704184D01*
X41765358Y-1647135D01*
X41775344Y-1653807D01*
X41963702Y-1731828D01*
X42163661Y-1771602D01*
X42367539Y-1771602D01*
X42567498Y-1731828D01*
X42755856Y-1653807D01*
X42871950Y-1576235D01*
X42913639Y-1617924D01*
X43083157Y-1731192D01*
X43271515Y-1809213D01*
X43471474Y-1848987D01*
X43675352Y-1848987D01*
X43875311Y-1809213D01*
X44063669Y-1731192D01*
X44126674Y-1689094D01*
X44269672Y-1748326D01*
X44469631Y-1788100D01*
X44673509Y-1788100D01*
X44873468Y-1748326D01*
X45061826Y-1670305D01*
X45231344Y-1557037D01*
X45375507Y-1412874D01*
X45488775Y-1243356D01*
X45566796Y-1054998D01*
X45594363Y-916407D01*
X54995225Y-964572D01*
X55245052Y-8309495D01*
X55346613Y-12727393D01*
X55474000Y-27304186D01*
X55474001Y-39701470D01*
X55347562Y-56337200D01*
X25808383Y-56337200D01*
X24997567Y-56311862D01*
X24993467Y-56311800D01*
X787305Y-56337067D01*
X749302Y-5411600D01*
X2107528Y-5411600D01*
X2107528Y-7011600D01*
X2119788Y-7136082D01*
X2156098Y-7255780D01*
X2215063Y-7366094D01*
X2294415Y-7462785D01*
X2391106Y-7542137D01*
X2501420Y-7601102D01*
X2621118Y-7637412D01*
X2629561Y-7638243D01*
X2430963Y-7836841D01*
X2273920Y-8071873D01*
X2165747Y-8333026D01*
X2110600Y-8610265D01*
X2110600Y-8892935D01*
X2165747Y-9170174D01*
X2273920Y-9431327D01*
X2430963Y-9666359D01*
X2630841Y-9866237D01*
X2863359Y-10021600D01*
X2630841Y-10176963D01*
X2430963Y-10376841D01*
X2273920Y-10611873D01*
X2165747Y-10873026D01*
X2110600Y-11150265D01*
X2110600Y-11432935D01*
X2165747Y-11710174D01*
X2273920Y-11971327D01*
X2430963Y-12206359D01*
X2630841Y-12406237D01*
X2863359Y-12561600D01*
X2630841Y-12716963D01*
X2430963Y-12916841D01*
X2273920Y-13151873D01*
X2165747Y-13413026D01*
X2110600Y-13690265D01*
X2110600Y-13972935D01*
X2165747Y-14250174D01*
X2273920Y-14511327D01*
X2430963Y-14746359D01*
X2630841Y-14946237D01*
X2863359Y-15101600D01*
X2630841Y-15256963D01*
X2430963Y-15456841D01*
X2273920Y-15691873D01*
X2165747Y-15953026D01*
X2110600Y-16230265D01*
X2110600Y-16512935D01*
X2165747Y-16790174D01*
X2273920Y-17051327D01*
X2430963Y-17286359D01*
X2630841Y-17486237D01*
X2863359Y-17641600D01*
X2630841Y-17796963D01*
X2430963Y-17996841D01*
X2273920Y-18231873D01*
X2165747Y-18493026D01*
X2110600Y-18770265D01*
X2110600Y-19052935D01*
X2165747Y-19330174D01*
X2273920Y-19591327D01*
X2430963Y-19826359D01*
X2630841Y-20026237D01*
X2863359Y-20181600D01*
X2630841Y-20336963D01*
X2430963Y-20536841D01*
X2273920Y-20771873D01*
X2165747Y-21033026D01*
X2110600Y-21310265D01*
X2110600Y-21592935D01*
X2165747Y-21870174D01*
X2273920Y-22131327D01*
X2430963Y-22366359D01*
X2630841Y-22566237D01*
X2863359Y-22721600D01*
X2630841Y-22876963D01*
X2430963Y-23076841D01*
X2273920Y-23311873D01*
X2165747Y-23573026D01*
X2110600Y-23850265D01*
X2110600Y-24132935D01*
X2165747Y-24410174D01*
X2273920Y-24671327D01*
X2430963Y-24906359D01*
X2630841Y-25106237D01*
X2863359Y-25261600D01*
X2630841Y-25416963D01*
X2430963Y-25616841D01*
X2273920Y-25851873D01*
X2165747Y-26113026D01*
X2110600Y-26390265D01*
X2110600Y-26672935D01*
X2165747Y-26950174D01*
X2273920Y-27211327D01*
X2430963Y-27446359D01*
X2630841Y-27646237D01*
X2863359Y-27801600D01*
X2630841Y-27956963D01*
X2430963Y-28156841D01*
X2273920Y-28391873D01*
X2165747Y-28653026D01*
X2110600Y-28930265D01*
X2110600Y-29212935D01*
X2165747Y-29490174D01*
X2273920Y-29751327D01*
X2430963Y-29986359D01*
X2630841Y-30186237D01*
X2863359Y-30341600D01*
X2630841Y-30496963D01*
X2430963Y-30696841D01*
X2273920Y-30931873D01*
X2165747Y-31193026D01*
X2110600Y-31470265D01*
X2110600Y-31752935D01*
X2165747Y-32030174D01*
X2273920Y-32291327D01*
X2430963Y-32526359D01*
X2630841Y-32726237D01*
X2863359Y-32881600D01*
X2630841Y-33036963D01*
X2430963Y-33236841D01*
X2273920Y-33471873D01*
X2165747Y-33733026D01*
X2110600Y-34010265D01*
X2110600Y-34292935D01*
X2165747Y-34570174D01*
X2273920Y-34831327D01*
X2430963Y-35066359D01*
X2630841Y-35266237D01*
X2863359Y-35421600D01*
X2630841Y-35576963D01*
X2430963Y-35776841D01*
X2273920Y-36011873D01*
X2165747Y-36273026D01*
X2110600Y-36550265D01*
X2110600Y-36832935D01*
X2165747Y-37110174D01*
X2273920Y-37371327D01*
X2430963Y-37606359D01*
X2630841Y-37806237D01*
X2863359Y-37961600D01*
X2630841Y-38116963D01*
X2430963Y-38316841D01*
X2273920Y-38551873D01*
X2165747Y-38813026D01*
X2110600Y-39090265D01*
X2110600Y-39372935D01*
X2165747Y-39650174D01*
X2273920Y-39911327D01*
X2430963Y-40146359D01*
X2630841Y-40346237D01*
X2863359Y-40501600D01*
X2630841Y-40656963D01*
X2430963Y-40856841D01*
X2273920Y-41091873D01*
X2165747Y-41353026D01*
X2110600Y-41630265D01*
X2110600Y-41912935D01*
X2165747Y-42190174D01*
X2273920Y-42451327D01*
X2430963Y-42686359D01*
X2630841Y-42886237D01*
X2863359Y-43041600D01*
X2630841Y-43196963D01*
X2430963Y-43396841D01*
X2273920Y-43631873D01*
X2165747Y-43893026D01*
X2110600Y-44170265D01*
X2110600Y-44452935D01*
X2165747Y-44730174D01*
X2273920Y-44991327D01*
X2430963Y-45226359D01*
X2630841Y-45426237D01*
X2863359Y-45581600D01*
X2630841Y-45736963D01*
X2430963Y-45936841D01*
X2273920Y-46171873D01*
X2165747Y-46433026D01*
X2110600Y-46710265D01*
X2110600Y-46992935D01*
X2165747Y-47270174D01*
X2273920Y-47531327D01*
X2430963Y-47766359D01*
X2630841Y-47966237D01*
X2863359Y-48121600D01*
X2630841Y-48276963D01*
X2430963Y-48476841D01*
X2273920Y-48711873D01*
X2165747Y-48973026D01*
X2110600Y-49250265D01*
X2110600Y-49532935D01*
X2165747Y-49810174D01*
X2273920Y-50071327D01*
X2430963Y-50306359D01*
X2630841Y-50506237D01*
X2863359Y-50661600D01*
X2630841Y-50816963D01*
X2430963Y-51016841D01*
X2273920Y-51251873D01*
X2165747Y-51513026D01*
X2110600Y-51790265D01*
X2110600Y-52072935D01*
X2165747Y-52350174D01*
X2273920Y-52611327D01*
X2430963Y-52846359D01*
X2630841Y-53046237D01*
X2863359Y-53201600D01*
X2630841Y-53356963D01*
X2430963Y-53556841D01*
X2273920Y-53791873D01*
X2165747Y-54053026D01*
X2110600Y-54330265D01*
X2110600Y-54612935D01*
X2165747Y-54890174D01*
X2273920Y-55151327D01*
X2430963Y-55386359D01*
X2630841Y-55586237D01*
X2865873Y-55743280D01*
X3127026Y-55851453D01*
X3404265Y-55906600D01*
X3686935Y-55906600D01*
X3964174Y-55851453D01*
X4225327Y-55743280D01*
X4460359Y-55586237D01*
X4660237Y-55386359D01*
X4817280Y-55151327D01*
X4925453Y-54890174D01*
X4980600Y-54612935D01*
X4980600Y-54330265D01*
X4925453Y-54053026D01*
X4817280Y-53791873D01*
X4660237Y-53556841D01*
X4460359Y-53356963D01*
X4227841Y-53201600D01*
X4460359Y-53046237D01*
X4660237Y-52846359D01*
X4817280Y-52611327D01*
X4925453Y-52350174D01*
X4980600Y-52072935D01*
X4980600Y-51790265D01*
X4925453Y-51513026D01*
X4817280Y-51251873D01*
X4660237Y-51016841D01*
X4570057Y-50926661D01*
X6889800Y-50926661D01*
X6889800Y-51130539D01*
X6929574Y-51330498D01*
X7007595Y-51518856D01*
X7120863Y-51688374D01*
X7265026Y-51832537D01*
X7434544Y-51945805D01*
X7622902Y-52023826D01*
X7822861Y-52063600D01*
X8026739Y-52063600D01*
X8226698Y-52023826D01*
X8415056Y-51945805D01*
X8584574Y-51832537D01*
X8728737Y-51688374D01*
X8842005Y-51518856D01*
X8920026Y-51330498D01*
X8959800Y-51130539D01*
X8959800Y-50926661D01*
X8920026Y-50726702D01*
X8842005Y-50538344D01*
X8728737Y-50368826D01*
X8584574Y-50224663D01*
X8415056Y-50111395D01*
X8226698Y-50033374D01*
X8026739Y-49993600D01*
X7822861Y-49993600D01*
X7622902Y-50033374D01*
X7434544Y-50111395D01*
X7265026Y-50224663D01*
X7120863Y-50368826D01*
X7007595Y-50538344D01*
X6929574Y-50726702D01*
X6889800Y-50926661D01*
X4570057Y-50926661D01*
X4460359Y-50816963D01*
X4227841Y-50661600D01*
X4460359Y-50506237D01*
X4660237Y-50306359D01*
X4817280Y-50071327D01*
X4925453Y-49810174D01*
X4980600Y-49532935D01*
X4980600Y-49453461D01*
X11133000Y-49453461D01*
X11133000Y-49657339D01*
X11172774Y-49857298D01*
X11250795Y-50045656D01*
X11364063Y-50215174D01*
X11508226Y-50359337D01*
X11677744Y-50472605D01*
X11866102Y-50550626D01*
X12066061Y-50590400D01*
X12269939Y-50590400D01*
X12469898Y-50550626D01*
X12658256Y-50472605D01*
X12827774Y-50359337D01*
X12971937Y-50215174D01*
X13085205Y-50045656D01*
X13163226Y-49857298D01*
X13203000Y-49657339D01*
X13203000Y-49453461D01*
X13163226Y-49253502D01*
X13085205Y-49065144D01*
X12971937Y-48895626D01*
X12827774Y-48751463D01*
X12658256Y-48638195D01*
X12469898Y-48560174D01*
X12269939Y-48520400D01*
X12066061Y-48520400D01*
X11866102Y-48560174D01*
X11677744Y-48638195D01*
X11508226Y-48751463D01*
X11364063Y-48895626D01*
X11250795Y-49065144D01*
X11172774Y-49253502D01*
X11133000Y-49453461D01*
X4980600Y-49453461D01*
X4980600Y-49250265D01*
X4925453Y-48973026D01*
X4817280Y-48711873D01*
X4660237Y-48476841D01*
X4460359Y-48276963D01*
X4227841Y-48121600D01*
X4460359Y-47966237D01*
X4660237Y-47766359D01*
X4817280Y-47531327D01*
X4925453Y-47270174D01*
X4980600Y-46992935D01*
X4980600Y-46710265D01*
X4925453Y-46433026D01*
X4817280Y-46171873D01*
X4660237Y-45936841D01*
X4460359Y-45736963D01*
X4227841Y-45581600D01*
X4439370Y-45440261D01*
X4984800Y-45440261D01*
X4984800Y-45644139D01*
X5024574Y-45844098D01*
X5102595Y-46032456D01*
X5215863Y-46201974D01*
X5360026Y-46346137D01*
X5529544Y-46459405D01*
X5717902Y-46537426D01*
X5917861Y-46577200D01*
X6121739Y-46577200D01*
X6321698Y-46537426D01*
X6510056Y-46459405D01*
X6679574Y-46346137D01*
X6823737Y-46201974D01*
X6937005Y-46032456D01*
X7015026Y-45844098D01*
X7054800Y-45644139D01*
X7054800Y-45440261D01*
X7015026Y-45240302D01*
X6937005Y-45051944D01*
X6823737Y-44882426D01*
X6721172Y-44779861D01*
X10928400Y-44779861D01*
X10928400Y-44983739D01*
X10968174Y-45183698D01*
X11046195Y-45372056D01*
X11159463Y-45541574D01*
X11303626Y-45685737D01*
X11473144Y-45799005D01*
X11661502Y-45877026D01*
X11861461Y-45916800D01*
X12065339Y-45916800D01*
X12265298Y-45877026D01*
X12453656Y-45799005D01*
X12623174Y-45685737D01*
X12767337Y-45541574D01*
X12880605Y-45372056D01*
X12958626Y-45183698D01*
X12998400Y-44983739D01*
X12998400Y-44779861D01*
X12958626Y-44579902D01*
X12880605Y-44391544D01*
X12868523Y-44373461D01*
X14165390Y-44373461D01*
X14165390Y-44577339D01*
X14205164Y-44777298D01*
X14283185Y-44965656D01*
X14396453Y-45135174D01*
X14540616Y-45279337D01*
X14710134Y-45392605D01*
X14898492Y-45470626D01*
X15098451Y-45510400D01*
X15302329Y-45510400D01*
X15502288Y-45470626D01*
X15690646Y-45392605D01*
X15860164Y-45279337D01*
X16004327Y-45135174D01*
X16117595Y-44965656D01*
X16195616Y-44777298D01*
X16235390Y-44577339D01*
X16235390Y-44373461D01*
X16195616Y-44173502D01*
X16117595Y-43985144D01*
X16004327Y-43815626D01*
X15860164Y-43671463D01*
X15690646Y-43558195D01*
X15502288Y-43480174D01*
X15302329Y-43440400D01*
X15098451Y-43440400D01*
X14898492Y-43480174D01*
X14710134Y-43558195D01*
X14540616Y-43671463D01*
X14396453Y-43815626D01*
X14283185Y-43985144D01*
X14205164Y-44173502D01*
X14165390Y-44373461D01*
X12868523Y-44373461D01*
X12767337Y-44222026D01*
X12623174Y-44077863D01*
X12453656Y-43964595D01*
X12265298Y-43886574D01*
X12065339Y-43846800D01*
X11861461Y-43846800D01*
X11661502Y-43886574D01*
X11473144Y-43964595D01*
X11303626Y-44077863D01*
X11159463Y-44222026D01*
X11046195Y-44391544D01*
X10968174Y-44579902D01*
X10928400Y-44779861D01*
X6721172Y-44779861D01*
X6679574Y-44738263D01*
X6510056Y-44624995D01*
X6321698Y-44546974D01*
X6121739Y-44507200D01*
X5917861Y-44507200D01*
X5717902Y-44546974D01*
X5529544Y-44624995D01*
X5360026Y-44738263D01*
X5215863Y-44882426D01*
X5102595Y-45051944D01*
X5024574Y-45240302D01*
X4984800Y-45440261D01*
X4439370Y-45440261D01*
X4460359Y-45426237D01*
X4660237Y-45226359D01*
X4817280Y-44991327D01*
X4925453Y-44730174D01*
X4980600Y-44452935D01*
X4980600Y-44170265D01*
X4925453Y-43893026D01*
X4817280Y-43631873D01*
X4660237Y-43396841D01*
X4460359Y-43196963D01*
X4227841Y-43041600D01*
X4460359Y-42886237D01*
X4660237Y-42686359D01*
X4817280Y-42451327D01*
X4925453Y-42190174D01*
X4980600Y-41912935D01*
X4980600Y-41630265D01*
X4925453Y-41353026D01*
X4817280Y-41091873D01*
X4660237Y-40856841D01*
X4544657Y-40741261D01*
X13581200Y-40741261D01*
X13581200Y-40945139D01*
X13620974Y-41145098D01*
X13698995Y-41333456D01*
X13812263Y-41502974D01*
X13956426Y-41647137D01*
X14125944Y-41760405D01*
X14314302Y-41838426D01*
X14514261Y-41878200D01*
X14718139Y-41878200D01*
X14918098Y-41838426D01*
X15106456Y-41760405D01*
X15275974Y-41647137D01*
X15420137Y-41502974D01*
X15533405Y-41333456D01*
X15611426Y-41145098D01*
X15651200Y-40945139D01*
X15651200Y-40741261D01*
X15611426Y-40541302D01*
X15533405Y-40352944D01*
X15420137Y-40183426D01*
X15275974Y-40039263D01*
X15106456Y-39925995D01*
X14918098Y-39847974D01*
X14718139Y-39808200D01*
X14514261Y-39808200D01*
X14314302Y-39847974D01*
X14125944Y-39925995D01*
X13956426Y-40039263D01*
X13812263Y-40183426D01*
X13698995Y-40352944D01*
X13620974Y-40541302D01*
X13581200Y-40741261D01*
X4544657Y-40741261D01*
X4460359Y-40656963D01*
X4227841Y-40501600D01*
X4460359Y-40346237D01*
X4660237Y-40146359D01*
X4817280Y-39911327D01*
X4925453Y-39650174D01*
X4980600Y-39372935D01*
X4980600Y-39090265D01*
X4925453Y-38813026D01*
X4817280Y-38551873D01*
X4660237Y-38316841D01*
X4460359Y-38116963D01*
X4227841Y-37961600D01*
X4460359Y-37806237D01*
X4660237Y-37606359D01*
X4817280Y-37371327D01*
X4925453Y-37110174D01*
X4980600Y-36832935D01*
X4980600Y-36550265D01*
X4925453Y-36273026D01*
X4817280Y-36011873D01*
X4660237Y-35776841D01*
X4460359Y-35576963D01*
X4227841Y-35421600D01*
X4460359Y-35266237D01*
X4660237Y-35066359D01*
X4817280Y-34831327D01*
X4925453Y-34570174D01*
X4980600Y-34292935D01*
X4980600Y-34010265D01*
X4925453Y-33733026D01*
X4817280Y-33471873D01*
X4660237Y-33236841D01*
X4460359Y-33036963D01*
X4227841Y-32881600D01*
X4460359Y-32726237D01*
X4660237Y-32526359D01*
X4771888Y-32359261D01*
X7042200Y-32359261D01*
X7042200Y-32563139D01*
X7081974Y-32763098D01*
X7159995Y-32951456D01*
X7273263Y-33120974D01*
X7417426Y-33265137D01*
X7586944Y-33378405D01*
X7775302Y-33456426D01*
X7975261Y-33496200D01*
X8179139Y-33496200D01*
X8379098Y-33456426D01*
X8567456Y-33378405D01*
X8736974Y-33265137D01*
X8881137Y-33120974D01*
X8994405Y-32951456D01*
X9072426Y-32763098D01*
X9112200Y-32563139D01*
X9112200Y-32359261D01*
X9072426Y-32159302D01*
X8994405Y-31970944D01*
X8881137Y-31801426D01*
X8736974Y-31657263D01*
X8567456Y-31543995D01*
X8379098Y-31465974D01*
X8179139Y-31426200D01*
X7975261Y-31426200D01*
X7775302Y-31465974D01*
X7586944Y-31543995D01*
X7417426Y-31657263D01*
X7273263Y-31801426D01*
X7159995Y-31970944D01*
X7081974Y-32159302D01*
X7042200Y-32359261D01*
X4771888Y-32359261D01*
X4817280Y-32291327D01*
X4925453Y-32030174D01*
X4980600Y-31752935D01*
X4980600Y-31470265D01*
X4925453Y-31193026D01*
X4817280Y-30931873D01*
X4660237Y-30696841D01*
X4460359Y-30496963D01*
X4227841Y-30341600D01*
X4460359Y-30186237D01*
X4660237Y-29986359D01*
X4817280Y-29751327D01*
X4925453Y-29490174D01*
X4980600Y-29212935D01*
X4980600Y-28930265D01*
X4925453Y-28653026D01*
X4817280Y-28391873D01*
X4660237Y-28156841D01*
X4460359Y-27956963D01*
X4227841Y-27801600D01*
X4460359Y-27646237D01*
X4660237Y-27446359D01*
X4704001Y-27380861D01*
X10115600Y-27380861D01*
X10115600Y-27584739D01*
X10155374Y-27784698D01*
X10233395Y-27973056D01*
X10346663Y-28142574D01*
X10490826Y-28286737D01*
X10660344Y-28400005D01*
X10848702Y-28478026D01*
X11048661Y-28517800D01*
X11252539Y-28517800D01*
X11452498Y-28478026D01*
X11640856Y-28400005D01*
X11810374Y-28286737D01*
X11954537Y-28142574D01*
X12067805Y-27973056D01*
X12145826Y-27784698D01*
X12185600Y-27584739D01*
X12185600Y-27380861D01*
X12145826Y-27180902D01*
X12067805Y-26992544D01*
X11954537Y-26823026D01*
X11810374Y-26678863D01*
X11640856Y-26565595D01*
X11452498Y-26487574D01*
X11252539Y-26447800D01*
X11048661Y-26447800D01*
X10848702Y-26487574D01*
X10660344Y-26565595D01*
X10490826Y-26678863D01*
X10346663Y-26823026D01*
X10233395Y-26992544D01*
X10155374Y-27180902D01*
X10115600Y-27380861D01*
X4704001Y-27380861D01*
X4817280Y-27211327D01*
X4925453Y-26950174D01*
X4980600Y-26672935D01*
X4980600Y-26390265D01*
X4925453Y-26113026D01*
X4817280Y-25851873D01*
X4660237Y-25616841D01*
X4460359Y-25416963D01*
X4227841Y-25261600D01*
X4460359Y-25106237D01*
X4660237Y-24906359D01*
X4817280Y-24671327D01*
X4925453Y-24410174D01*
X4980600Y-24132935D01*
X4980600Y-23850265D01*
X4925453Y-23573026D01*
X4817280Y-23311873D01*
X4660237Y-23076841D01*
X4460359Y-22876963D01*
X4227841Y-22721600D01*
X4460359Y-22566237D01*
X4660237Y-22366359D01*
X4817280Y-22131327D01*
X4925453Y-21870174D01*
X4980600Y-21592935D01*
X4980600Y-21310265D01*
X4925453Y-21033026D01*
X4817280Y-20771873D01*
X4660237Y-20536841D01*
X4460359Y-20336963D01*
X4227841Y-20181600D01*
X4460359Y-20026237D01*
X4660237Y-19826359D01*
X4817280Y-19591327D01*
X4925453Y-19330174D01*
X4980600Y-19052935D01*
X4980600Y-18770265D01*
X4925453Y-18493026D01*
X4817280Y-18231873D01*
X4660237Y-17996841D01*
X4460359Y-17796963D01*
X4227841Y-17641600D01*
X4460359Y-17486237D01*
X4660237Y-17286359D01*
X4817280Y-17051327D01*
X4925453Y-16790174D01*
X4980600Y-16512935D01*
X4980600Y-16230265D01*
X4925453Y-15953026D01*
X4817280Y-15691873D01*
X4660237Y-15456841D01*
X4460359Y-15256963D01*
X4227841Y-15101600D01*
X4460359Y-14946237D01*
X4660237Y-14746359D01*
X4817280Y-14511327D01*
X4925453Y-14250174D01*
X4980600Y-13972935D01*
X4980600Y-13690265D01*
X4925453Y-13413026D01*
X4817280Y-13151873D01*
X4660237Y-12916841D01*
X4460359Y-12716963D01*
X4227841Y-12561600D01*
X4460359Y-12406237D01*
X4660237Y-12206359D01*
X4817280Y-11971327D01*
X4925453Y-11710174D01*
X4980600Y-11432935D01*
X4980600Y-11150265D01*
X4925453Y-10873026D01*
X4817280Y-10611873D01*
X4660237Y-10376841D01*
X4460359Y-10176963D01*
X4227841Y-10021600D01*
X4460359Y-9866237D01*
X4660237Y-9666359D01*
X4817280Y-9431327D01*
X4925453Y-9170174D01*
X4980600Y-8892935D01*
X4980600Y-8610265D01*
X4967857Y-8546200D01*
X9713328Y-8546200D01*
X9725588Y-8670682D01*
X9761898Y-8790380D01*
X9820863Y-8900694D01*
X9900215Y-8997385D01*
X9996906Y-9076737D01*
X10107220Y-9135702D01*
X10179780Y-9157713D01*
X10047925Y-9289568D01*
X9885410Y-9532789D01*
X9773468Y-9803042D01*
X9716400Y-10089940D01*
X9716400Y-10382460D01*
X9773468Y-10669358D01*
X9885410Y-10939611D01*
X10047925Y-11182832D01*
X10254768Y-11389675D01*
X10429160Y-11506200D01*
X10254768Y-11622725D01*
X10047925Y-11829568D01*
X9885410Y-12072789D01*
X9773468Y-12343042D01*
X9716400Y-12629940D01*
X9716400Y-12922460D01*
X9773468Y-13209358D01*
X9885410Y-13479611D01*
X10047925Y-13722832D01*
X10254768Y-13929675D01*
X10429160Y-14046200D01*
X10254768Y-14162725D01*
X10047925Y-14369568D01*
X9885410Y-14612789D01*
X9773468Y-14883042D01*
X9716400Y-15169940D01*
X9716400Y-15462460D01*
X9773468Y-15749358D01*
X9885410Y-16019611D01*
X10047925Y-16262832D01*
X10254768Y-16469675D01*
X10429160Y-16586200D01*
X10254768Y-16702725D01*
X10047925Y-16909568D01*
X9885410Y-17152789D01*
X9773468Y-17423042D01*
X9716400Y-17709940D01*
X9716400Y-18002460D01*
X9773468Y-18289358D01*
X9885410Y-18559611D01*
X10047925Y-18802832D01*
X10254768Y-19009675D01*
X10429160Y-19126200D01*
X10254768Y-19242725D01*
X10047925Y-19449568D01*
X9885410Y-19692789D01*
X9773468Y-19963042D01*
X9716400Y-20249940D01*
X9716400Y-20542460D01*
X9773468Y-20829358D01*
X9885410Y-21099611D01*
X10047925Y-21342832D01*
X10254768Y-21549675D01*
X10497989Y-21712190D01*
X10768242Y-21824132D01*
X11055140Y-21881200D01*
X11347660Y-21881200D01*
X11634558Y-21824132D01*
X11904811Y-21712190D01*
X12148032Y-21549675D01*
X12354875Y-21342832D01*
X12517390Y-21099611D01*
X12629332Y-20829358D01*
X12686400Y-20542460D01*
X12686400Y-20249940D01*
X12629332Y-19963042D01*
X12517390Y-19692789D01*
X12354875Y-19449568D01*
X12148032Y-19242725D01*
X11973640Y-19126200D01*
X12148032Y-19009675D01*
X12354875Y-18802832D01*
X12517390Y-18559611D01*
X12629332Y-18289358D01*
X12686400Y-18002460D01*
X12686400Y-17709940D01*
X12629332Y-17423042D01*
X12517390Y-17152789D01*
X12354875Y-16909568D01*
X12148032Y-16702725D01*
X11973640Y-16586200D01*
X12148032Y-16469675D01*
X12354875Y-16262832D01*
X12517390Y-16019611D01*
X12629332Y-15749358D01*
X12686400Y-15462460D01*
X12686400Y-15169940D01*
X12629332Y-14883042D01*
X12517390Y-14612789D01*
X12354875Y-14369568D01*
X12148032Y-14162725D01*
X11973640Y-14046200D01*
X12148032Y-13929675D01*
X12354875Y-13722832D01*
X12517390Y-13479611D01*
X12629332Y-13209358D01*
X12686400Y-12922460D01*
X12686400Y-12629940D01*
X12629332Y-12343042D01*
X12517390Y-12072789D01*
X12354875Y-11829568D01*
X12148032Y-11622725D01*
X11973640Y-11506200D01*
X12148032Y-11389675D01*
X12354875Y-11182832D01*
X12517390Y-10939611D01*
X12629332Y-10669358D01*
X12686400Y-10382460D01*
X12686400Y-10089940D01*
X12629332Y-9803042D01*
X12517390Y-9532789D01*
X12354875Y-9289568D01*
X12223020Y-9157713D01*
X12295580Y-9135702D01*
X12405894Y-9076737D01*
X12502585Y-8997385D01*
X12581937Y-8900694D01*
X12640902Y-8790380D01*
X12677212Y-8670682D01*
X12689472Y-8546200D01*
X12686400Y-7981950D01*
X12527650Y-7823200D01*
X11328400Y-7823200D01*
X11328400Y-7843200D01*
X11074400Y-7843200D01*
X11074400Y-7823200D01*
X9875150Y-7823200D01*
X9716400Y-7981950D01*
X9713328Y-8546200D01*
X4967857Y-8546200D01*
X4925453Y-8333026D01*
X4817280Y-8071873D01*
X4660237Y-7836841D01*
X4461639Y-7638243D01*
X4470082Y-7637412D01*
X4589780Y-7601102D01*
X4700094Y-7542137D01*
X4796785Y-7462785D01*
X4876137Y-7366094D01*
X4935102Y-7255780D01*
X4971412Y-7136082D01*
X4983672Y-7011600D01*
X4983672Y-6846200D01*
X9713328Y-6846200D01*
X9716400Y-7410450D01*
X9875150Y-7569200D01*
X11074400Y-7569200D01*
X11074400Y-6369950D01*
X11328400Y-6369950D01*
X11328400Y-7569200D01*
X12527650Y-7569200D01*
X12686400Y-7410450D01*
X12689472Y-6846200D01*
X12677212Y-6721718D01*
X12640902Y-6602020D01*
X12581937Y-6491706D01*
X12502585Y-6395015D01*
X12405894Y-6315663D01*
X12295580Y-6256698D01*
X12175882Y-6220388D01*
X12051400Y-6208128D01*
X11487150Y-6211200D01*
X11328400Y-6369950D01*
X11074400Y-6369950D01*
X10915650Y-6211200D01*
X10351400Y-6208128D01*
X10226918Y-6220388D01*
X10107220Y-6256698D01*
X9996906Y-6315663D01*
X9900215Y-6395015D01*
X9820863Y-6491706D01*
X9761898Y-6602020D01*
X9725588Y-6721718D01*
X9713328Y-6846200D01*
X4983672Y-6846200D01*
X4983672Y-6070265D01*
X17350600Y-6070265D01*
X17350600Y-6352935D01*
X17405747Y-6630174D01*
X17513920Y-6891327D01*
X17670963Y-7126359D01*
X17870841Y-7326237D01*
X18103359Y-7481600D01*
X17870841Y-7636963D01*
X17670963Y-7836841D01*
X17513920Y-8071873D01*
X17405747Y-8333026D01*
X17350600Y-8610265D01*
X17350600Y-8892935D01*
X17405747Y-9170174D01*
X17513920Y-9431327D01*
X17670963Y-9666359D01*
X17870841Y-9866237D01*
X18103359Y-10021600D01*
X17870841Y-10176963D01*
X17670963Y-10376841D01*
X17513920Y-10611873D01*
X17405747Y-10873026D01*
X17350600Y-11150265D01*
X17350600Y-11432935D01*
X17405747Y-11710174D01*
X17513920Y-11971327D01*
X17670963Y-12206359D01*
X17870841Y-12406237D01*
X18103359Y-12561600D01*
X17870841Y-12716963D01*
X17670963Y-12916841D01*
X17513920Y-13151873D01*
X17405747Y-13413026D01*
X17350600Y-13690265D01*
X17350600Y-13972935D01*
X17405747Y-14250174D01*
X17513920Y-14511327D01*
X17670963Y-14746359D01*
X17870841Y-14946237D01*
X18103359Y-15101600D01*
X17870841Y-15256963D01*
X17670963Y-15456841D01*
X17513920Y-15691873D01*
X17405747Y-15953026D01*
X17350600Y-16230265D01*
X17350600Y-16512935D01*
X17405747Y-16790174D01*
X17513920Y-17051327D01*
X17670963Y-17286359D01*
X17870841Y-17486237D01*
X18103359Y-17641600D01*
X17870841Y-17796963D01*
X17670963Y-17996841D01*
X17513920Y-18231873D01*
X17405747Y-18493026D01*
X17350600Y-18770265D01*
X17350600Y-19052935D01*
X17405747Y-19330174D01*
X17513920Y-19591327D01*
X17670963Y-19826359D01*
X17870841Y-20026237D01*
X18103359Y-20181600D01*
X17870841Y-20336963D01*
X17670963Y-20536841D01*
X17513920Y-20771873D01*
X17405747Y-21033026D01*
X17350600Y-21310265D01*
X17350600Y-21592935D01*
X17405747Y-21870174D01*
X17513920Y-22131327D01*
X17670963Y-22366359D01*
X17870841Y-22566237D01*
X18103359Y-22721600D01*
X17870841Y-22876963D01*
X17670963Y-23076841D01*
X17513920Y-23311873D01*
X17405747Y-23573026D01*
X17350600Y-23850265D01*
X17350600Y-24132935D01*
X17405747Y-24410174D01*
X17513920Y-24671327D01*
X17670963Y-24906359D01*
X17870841Y-25106237D01*
X18103359Y-25261600D01*
X17870841Y-25416963D01*
X17670963Y-25616841D01*
X17513920Y-25851873D01*
X17405747Y-26113026D01*
X17350600Y-26390265D01*
X17350600Y-26672935D01*
X17405747Y-26950174D01*
X17513920Y-27211327D01*
X17670963Y-27446359D01*
X17870841Y-27646237D01*
X18103359Y-27801600D01*
X17870841Y-27956963D01*
X17670963Y-28156841D01*
X17513920Y-28391873D01*
X17405747Y-28653026D01*
X17350600Y-28930265D01*
X17350600Y-29212935D01*
X17405747Y-29490174D01*
X17513920Y-29751327D01*
X17670963Y-29986359D01*
X17870841Y-30186237D01*
X18103359Y-30341600D01*
X17870841Y-30496963D01*
X17670963Y-30696841D01*
X17513920Y-30931873D01*
X17405747Y-31193026D01*
X17350600Y-31470265D01*
X17350600Y-31752935D01*
X17405747Y-32030174D01*
X17513920Y-32291327D01*
X17670963Y-32526359D01*
X17870841Y-32726237D01*
X18103359Y-32881600D01*
X17870841Y-33036963D01*
X17670963Y-33236841D01*
X17513920Y-33471873D01*
X17405747Y-33733026D01*
X17350600Y-34010265D01*
X17350600Y-34292935D01*
X17405747Y-34570174D01*
X17513920Y-34831327D01*
X17670963Y-35066359D01*
X17870841Y-35266237D01*
X18103359Y-35421600D01*
X17870841Y-35576963D01*
X17670963Y-35776841D01*
X17513920Y-36011873D01*
X17405747Y-36273026D01*
X17350600Y-36550265D01*
X17350600Y-36832935D01*
X17405747Y-37110174D01*
X17513920Y-37371327D01*
X17670963Y-37606359D01*
X17870841Y-37806237D01*
X18103359Y-37961600D01*
X17870841Y-38116963D01*
X17670963Y-38316841D01*
X17513920Y-38551873D01*
X17405747Y-38813026D01*
X17350600Y-39090265D01*
X17350600Y-39372935D01*
X17405747Y-39650174D01*
X17513920Y-39911327D01*
X17670963Y-40146359D01*
X17870841Y-40346237D01*
X18103359Y-40501600D01*
X17870841Y-40656963D01*
X17670963Y-40856841D01*
X17513920Y-41091873D01*
X17405747Y-41353026D01*
X17350600Y-41630265D01*
X17350600Y-41912935D01*
X17405747Y-42190174D01*
X17513920Y-42451327D01*
X17670963Y-42686359D01*
X17870841Y-42886237D01*
X18103359Y-43041600D01*
X17870841Y-43196963D01*
X17670963Y-43396841D01*
X17513920Y-43631873D01*
X17405747Y-43893026D01*
X17350600Y-44170265D01*
X17350600Y-44452935D01*
X17405747Y-44730174D01*
X17513920Y-44991327D01*
X17670963Y-45226359D01*
X17870841Y-45426237D01*
X18103359Y-45581600D01*
X17870841Y-45736963D01*
X17670963Y-45936841D01*
X17513920Y-46171873D01*
X17405747Y-46433026D01*
X17350600Y-46710265D01*
X17350600Y-46992935D01*
X17405747Y-47270174D01*
X17513920Y-47531327D01*
X17670963Y-47766359D01*
X17870841Y-47966237D01*
X18103359Y-48121600D01*
X17870841Y-48276963D01*
X17670963Y-48476841D01*
X17513920Y-48711873D01*
X17405747Y-48973026D01*
X17350600Y-49250265D01*
X17350600Y-49532935D01*
X17405747Y-49810174D01*
X17513920Y-50071327D01*
X17670963Y-50306359D01*
X17870841Y-50506237D01*
X18103359Y-50661600D01*
X17870841Y-50816963D01*
X17670963Y-51016841D01*
X17513920Y-51251873D01*
X17405747Y-51513026D01*
X17350600Y-51790265D01*
X17350600Y-52072935D01*
X17405747Y-52350174D01*
X17513920Y-52611327D01*
X17670963Y-52846359D01*
X17870841Y-53046237D01*
X18103359Y-53201600D01*
X17870841Y-53356963D01*
X17670963Y-53556841D01*
X17513920Y-53791873D01*
X17405747Y-54053026D01*
X17350600Y-54330265D01*
X17350600Y-54612935D01*
X17405747Y-54890174D01*
X17513920Y-55151327D01*
X17670963Y-55386359D01*
X17870841Y-55586237D01*
X18105873Y-55743280D01*
X18367026Y-55851453D01*
X18644265Y-55906600D01*
X18926935Y-55906600D01*
X19204174Y-55851453D01*
X19465327Y-55743280D01*
X19700359Y-55586237D01*
X19900237Y-55386359D01*
X20057280Y-55151327D01*
X20165453Y-54890174D01*
X20220600Y-54612935D01*
X20220600Y-54330265D01*
X20165453Y-54053026D01*
X20057280Y-53791873D01*
X19900237Y-53556841D01*
X19700359Y-53356963D01*
X19467841Y-53201600D01*
X19700359Y-53046237D01*
X19900237Y-52846359D01*
X20057280Y-52611327D01*
X20165453Y-52350174D01*
X20220600Y-52072935D01*
X20220600Y-51790265D01*
X20165453Y-51513026D01*
X20057280Y-51251873D01*
X19900237Y-51016841D01*
X19700359Y-50816963D01*
X19467841Y-50661600D01*
X19700359Y-50506237D01*
X19900237Y-50306359D01*
X20057280Y-50071327D01*
X20165453Y-49810174D01*
X20220600Y-49532935D01*
X20220600Y-49250265D01*
X20210495Y-49199461D01*
X37623800Y-49199461D01*
X37623800Y-49403339D01*
X37663574Y-49603298D01*
X37741595Y-49791656D01*
X37854863Y-49961174D01*
X37999026Y-50105337D01*
X38168544Y-50218605D01*
X38356902Y-50296626D01*
X38556861Y-50336400D01*
X38760739Y-50336400D01*
X38960698Y-50296626D01*
X39149056Y-50218605D01*
X39217600Y-50172805D01*
X39286144Y-50218605D01*
X39474502Y-50296626D01*
X39674461Y-50336400D01*
X39878339Y-50336400D01*
X40078298Y-50296626D01*
X40266656Y-50218605D01*
X40297186Y-50198205D01*
X40403744Y-50269405D01*
X40592102Y-50347426D01*
X40792061Y-50387200D01*
X40995939Y-50387200D01*
X41195898Y-50347426D01*
X41384256Y-50269405D01*
X41509993Y-50185390D01*
X41673744Y-50294805D01*
X41862102Y-50372826D01*
X42062061Y-50412600D01*
X42265939Y-50412600D01*
X42465898Y-50372826D01*
X42654256Y-50294805D01*
X42823774Y-50181537D01*
X42834380Y-50170931D01*
X42943744Y-50244005D01*
X43132102Y-50322026D01*
X43332061Y-50361800D01*
X43535939Y-50361800D01*
X43735898Y-50322026D01*
X43924256Y-50244005D01*
X44093774Y-50130737D01*
X44237937Y-49986574D01*
X44351205Y-49817056D01*
X44429226Y-49628698D01*
X44469000Y-49428739D01*
X44469000Y-49224861D01*
X44458896Y-49174061D01*
X48063200Y-49174061D01*
X48063200Y-49377939D01*
X48102974Y-49577898D01*
X48180995Y-49766256D01*
X48294263Y-49935774D01*
X48438426Y-50079937D01*
X48607944Y-50193205D01*
X48796302Y-50271226D01*
X48996261Y-50311000D01*
X49200139Y-50311000D01*
X49400098Y-50271226D01*
X49588456Y-50193205D01*
X49757974Y-50079937D01*
X49902137Y-49935774D01*
X50015405Y-49766256D01*
X50093426Y-49577898D01*
X50133200Y-49377939D01*
X50133200Y-49174061D01*
X50093426Y-48974102D01*
X50015405Y-48785744D01*
X49902137Y-48616226D01*
X49757974Y-48472063D01*
X49588456Y-48358795D01*
X49400098Y-48280774D01*
X49200139Y-48241000D01*
X48996261Y-48241000D01*
X48796302Y-48280774D01*
X48607944Y-48358795D01*
X48438426Y-48472063D01*
X48294263Y-48616226D01*
X48180995Y-48785744D01*
X48102974Y-48974102D01*
X48063200Y-49174061D01*
X44458896Y-49174061D01*
X44429226Y-49024902D01*
X44351205Y-48836544D01*
X44237937Y-48667026D01*
X44093774Y-48522863D01*
X43924256Y-48409595D01*
X43735898Y-48331574D01*
X43535939Y-48291800D01*
X43332061Y-48291800D01*
X43132102Y-48331574D01*
X42943744Y-48409595D01*
X42774226Y-48522863D01*
X42763620Y-48533469D01*
X42654256Y-48460395D01*
X42465898Y-48382374D01*
X42265939Y-48342600D01*
X42062061Y-48342600D01*
X41862102Y-48382374D01*
X41673744Y-48460395D01*
X41548007Y-48544410D01*
X41384256Y-48434995D01*
X41195898Y-48356974D01*
X40995939Y-48317200D01*
X40792061Y-48317200D01*
X40592102Y-48356974D01*
X40403744Y-48434995D01*
X40373214Y-48455395D01*
X40266656Y-48384195D01*
X40078298Y-48306174D01*
X39878339Y-48266400D01*
X39674461Y-48266400D01*
X39474502Y-48306174D01*
X39286144Y-48384195D01*
X39217600Y-48429995D01*
X39149056Y-48384195D01*
X38960698Y-48306174D01*
X38760739Y-48266400D01*
X38556861Y-48266400D01*
X38356902Y-48306174D01*
X38168544Y-48384195D01*
X37999026Y-48497463D01*
X37854863Y-48641626D01*
X37741595Y-48811144D01*
X37663574Y-48999502D01*
X37623800Y-49199461D01*
X20210495Y-49199461D01*
X20165453Y-48973026D01*
X20057280Y-48711873D01*
X19900237Y-48476841D01*
X19700359Y-48276963D01*
X19467841Y-48121600D01*
X19700359Y-47966237D01*
X19900237Y-47766359D01*
X20057280Y-47531327D01*
X20165453Y-47270174D01*
X20220600Y-46992935D01*
X20220600Y-46710265D01*
X20165453Y-46433026D01*
X20057280Y-46171873D01*
X19900237Y-45936841D01*
X19700359Y-45736963D01*
X19467841Y-45581600D01*
X19700359Y-45426237D01*
X19900237Y-45226359D01*
X19977944Y-45110061D01*
X31019800Y-45110061D01*
X31019800Y-45313939D01*
X31059574Y-45513898D01*
X31137595Y-45702256D01*
X31250863Y-45871774D01*
X31395026Y-46015937D01*
X31564544Y-46129205D01*
X31752902Y-46207226D01*
X31952861Y-46247000D01*
X32156739Y-46247000D01*
X32356698Y-46207226D01*
X32545056Y-46129205D01*
X32714574Y-46015937D01*
X32858737Y-45871774D01*
X32972005Y-45702256D01*
X33050026Y-45513898D01*
X33079530Y-45365570D01*
X42625992Y-45365570D01*
X42625992Y-45569448D01*
X42665766Y-45769407D01*
X42743787Y-45957765D01*
X42857055Y-46127283D01*
X43001218Y-46271446D01*
X43170736Y-46384714D01*
X43359094Y-46462735D01*
X43559053Y-46502509D01*
X43762931Y-46502509D01*
X43962890Y-46462735D01*
X44151248Y-46384714D01*
X44320766Y-46271446D01*
X44464929Y-46127283D01*
X44578197Y-45957765D01*
X44656218Y-45769407D01*
X44695992Y-45569448D01*
X44695992Y-45365570D01*
X44656218Y-45165611D01*
X44578197Y-44977253D01*
X44464929Y-44807735D01*
X44320766Y-44663572D01*
X44151248Y-44550304D01*
X43962890Y-44472283D01*
X43762931Y-44432509D01*
X43559053Y-44432509D01*
X43359094Y-44472283D01*
X43170736Y-44550304D01*
X43001218Y-44663572D01*
X42857055Y-44807735D01*
X42743787Y-44977253D01*
X42665766Y-45165611D01*
X42625992Y-45365570D01*
X33079530Y-45365570D01*
X33089800Y-45313939D01*
X33089800Y-45110061D01*
X33050026Y-44910102D01*
X32972005Y-44721744D01*
X32858737Y-44552226D01*
X32714574Y-44408063D01*
X32545056Y-44294795D01*
X32356698Y-44216774D01*
X32156739Y-44177000D01*
X31952861Y-44177000D01*
X31752902Y-44216774D01*
X31564544Y-44294795D01*
X31395026Y-44408063D01*
X31250863Y-44552226D01*
X31137595Y-44721744D01*
X31059574Y-44910102D01*
X31019800Y-45110061D01*
X19977944Y-45110061D01*
X20057280Y-44991327D01*
X20165453Y-44730174D01*
X20220600Y-44452935D01*
X20220600Y-44170265D01*
X20165453Y-43893026D01*
X20057280Y-43631873D01*
X19941811Y-43459061D01*
X25812800Y-43459061D01*
X25812800Y-43662939D01*
X25852574Y-43862898D01*
X25930595Y-44051256D01*
X26043863Y-44220774D01*
X26188026Y-44364937D01*
X26357544Y-44478205D01*
X26545902Y-44556226D01*
X26745861Y-44596000D01*
X26949739Y-44596000D01*
X27149698Y-44556226D01*
X27338056Y-44478205D01*
X27507574Y-44364937D01*
X27651737Y-44220774D01*
X27765005Y-44051256D01*
X27843026Y-43862898D01*
X27882800Y-43662939D01*
X27882800Y-43459061D01*
X27843026Y-43259102D01*
X27765005Y-43070744D01*
X27651737Y-42901226D01*
X27507574Y-42757063D01*
X27338056Y-42643795D01*
X27149698Y-42565774D01*
X26949739Y-42526000D01*
X26745861Y-42526000D01*
X26545902Y-42565774D01*
X26357544Y-42643795D01*
X26188026Y-42757063D01*
X26043863Y-42901226D01*
X25930595Y-43070744D01*
X25852574Y-43259102D01*
X25812800Y-43459061D01*
X19941811Y-43459061D01*
X19900237Y-43396841D01*
X19700359Y-43196963D01*
X19467841Y-43041600D01*
X19700359Y-42886237D01*
X19900237Y-42686359D01*
X20057280Y-42451327D01*
X20165453Y-42190174D01*
X20220600Y-41912935D01*
X20220600Y-41630265D01*
X20175128Y-41401661D01*
X28632200Y-41401661D01*
X28632200Y-41605539D01*
X28671974Y-41805498D01*
X28749995Y-41993856D01*
X28863263Y-42163374D01*
X29007426Y-42307537D01*
X29176944Y-42420805D01*
X29365302Y-42498826D01*
X29565261Y-42538600D01*
X29769139Y-42538600D01*
X29969098Y-42498826D01*
X30157456Y-42420805D01*
X30274623Y-42342517D01*
X30406702Y-42397226D01*
X30606661Y-42437000D01*
X30810539Y-42437000D01*
X31010498Y-42397226D01*
X31198856Y-42319205D01*
X31368374Y-42205937D01*
X31512537Y-42061774D01*
X31527004Y-42040122D01*
X31564544Y-42065205D01*
X31752902Y-42143226D01*
X31952861Y-42183000D01*
X32156739Y-42183000D01*
X32356698Y-42143226D01*
X32545056Y-42065205D01*
X32714574Y-41951937D01*
X32750580Y-41915931D01*
X32859944Y-41989005D01*
X33048302Y-42067026D01*
X33248261Y-42106800D01*
X33452139Y-42106800D01*
X33652098Y-42067026D01*
X33840456Y-41989005D01*
X34009974Y-41875737D01*
X34048700Y-41837011D01*
X34087426Y-41875737D01*
X34256944Y-41989005D01*
X34445302Y-42067026D01*
X34645261Y-42106800D01*
X34849139Y-42106800D01*
X35049098Y-42067026D01*
X35237456Y-41989005D01*
X35406974Y-41875737D01*
X35551137Y-41731574D01*
X35619680Y-41628991D01*
X35663226Y-41672537D01*
X35832744Y-41785805D01*
X36021102Y-41863826D01*
X36221061Y-41903600D01*
X36424939Y-41903600D01*
X36624898Y-41863826D01*
X36813256Y-41785805D01*
X36982774Y-41672537D01*
X37126937Y-41528374D01*
X37240205Y-41358856D01*
X37318226Y-41170498D01*
X37358000Y-40970539D01*
X37358000Y-40766661D01*
X37318226Y-40566702D01*
X37240205Y-40378344D01*
X37126937Y-40208826D01*
X36982774Y-40064663D01*
X36813256Y-39951395D01*
X36624898Y-39873374D01*
X36424939Y-39833600D01*
X36221061Y-39833600D01*
X36021102Y-39873374D01*
X35832744Y-39951395D01*
X35663226Y-40064663D01*
X35519063Y-40208826D01*
X35450520Y-40311409D01*
X35406974Y-40267863D01*
X35237456Y-40154595D01*
X35049098Y-40076574D01*
X34849139Y-40036800D01*
X34645261Y-40036800D01*
X34445302Y-40076574D01*
X34256944Y-40154595D01*
X34087426Y-40267863D01*
X34048700Y-40306589D01*
X34009974Y-40267863D01*
X33840456Y-40154595D01*
X33652098Y-40076574D01*
X33452139Y-40036800D01*
X33248261Y-40036800D01*
X33048302Y-40076574D01*
X32859944Y-40154595D01*
X32690426Y-40267863D01*
X32654420Y-40303869D01*
X32545056Y-40230795D01*
X32356698Y-40152774D01*
X32156739Y-40113000D01*
X31952861Y-40113000D01*
X31752902Y-40152774D01*
X31564544Y-40230795D01*
X31395026Y-40344063D01*
X31250863Y-40488226D01*
X31236396Y-40509878D01*
X31198856Y-40484795D01*
X31010498Y-40406774D01*
X30810539Y-40367000D01*
X30606661Y-40367000D01*
X30406702Y-40406774D01*
X30218344Y-40484795D01*
X30101177Y-40563083D01*
X29969098Y-40508374D01*
X29769139Y-40468600D01*
X29565261Y-40468600D01*
X29365302Y-40508374D01*
X29176944Y-40586395D01*
X29007426Y-40699663D01*
X28863263Y-40843826D01*
X28749995Y-41013344D01*
X28671974Y-41201702D01*
X28632200Y-41401661D01*
X20175128Y-41401661D01*
X20165453Y-41353026D01*
X20057280Y-41091873D01*
X19900237Y-40856841D01*
X19700359Y-40656963D01*
X19467841Y-40501600D01*
X19700359Y-40346237D01*
X19900237Y-40146359D01*
X20057280Y-39911327D01*
X20084456Y-39845716D01*
X23013106Y-39845716D01*
X23013106Y-40049594D01*
X23052880Y-40249553D01*
X23130901Y-40437911D01*
X23244169Y-40607429D01*
X23388332Y-40751592D01*
X23557850Y-40864860D01*
X23746208Y-40942881D01*
X23946167Y-40982655D01*
X24150045Y-40982655D01*
X24350004Y-40942881D01*
X24538362Y-40864860D01*
X24707880Y-40751592D01*
X24852043Y-40607429D01*
X24965311Y-40437911D01*
X25043332Y-40249553D01*
X25083106Y-40049594D01*
X25083106Y-39845716D01*
X25043332Y-39645757D01*
X24965311Y-39457399D01*
X24852043Y-39287881D01*
X24707880Y-39143718D01*
X24538362Y-39030450D01*
X24350004Y-38952429D01*
X24150045Y-38912655D01*
X23946167Y-38912655D01*
X23746208Y-38952429D01*
X23557850Y-39030450D01*
X23388332Y-39143718D01*
X23244169Y-39287881D01*
X23130901Y-39457399D01*
X23052880Y-39645757D01*
X23013106Y-39845716D01*
X20084456Y-39845716D01*
X20165453Y-39650174D01*
X20220600Y-39372935D01*
X20220600Y-39090265D01*
X20165453Y-38813026D01*
X20057280Y-38551873D01*
X19900237Y-38316841D01*
X19700359Y-38116963D01*
X19467841Y-37961600D01*
X19700359Y-37806237D01*
X19845120Y-37661476D01*
X30580829Y-37661476D01*
X30580829Y-37865354D01*
X30620603Y-38065313D01*
X30698624Y-38253671D01*
X30811892Y-38423189D01*
X30956055Y-38567352D01*
X31125573Y-38680620D01*
X31313931Y-38758641D01*
X31513890Y-38798415D01*
X31717768Y-38798415D01*
X31917727Y-38758641D01*
X32106085Y-38680620D01*
X32275603Y-38567352D01*
X32419766Y-38423189D01*
X32533034Y-38253671D01*
X32611055Y-38065313D01*
X32644724Y-37896048D01*
X32697456Y-37874205D01*
X32866974Y-37760937D01*
X33011137Y-37616774D01*
X33124405Y-37447256D01*
X33180322Y-37312261D01*
X36912600Y-37312261D01*
X36912600Y-37516139D01*
X36952374Y-37716098D01*
X37030395Y-37904456D01*
X37143663Y-38073974D01*
X37287826Y-38218137D01*
X37457344Y-38331405D01*
X37645702Y-38409426D01*
X37845661Y-38449200D01*
X38049539Y-38449200D01*
X38249498Y-38409426D01*
X38437856Y-38331405D01*
X38531994Y-38268505D01*
X38583226Y-38319737D01*
X38752744Y-38433005D01*
X38941102Y-38511026D01*
X39141061Y-38550800D01*
X39344939Y-38550800D01*
X39544898Y-38511026D01*
X39733256Y-38433005D01*
X39902774Y-38319737D01*
X40046937Y-38175574D01*
X40160205Y-38006056D01*
X40238226Y-37817698D01*
X40278000Y-37617739D01*
X40278000Y-37413861D01*
X40238226Y-37213902D01*
X40160205Y-37025544D01*
X40046937Y-36856026D01*
X39902774Y-36711863D01*
X39733256Y-36598595D01*
X39544898Y-36520574D01*
X39344939Y-36480800D01*
X39141061Y-36480800D01*
X38941102Y-36520574D01*
X38752744Y-36598595D01*
X38658606Y-36661495D01*
X38607374Y-36610263D01*
X38437856Y-36496995D01*
X38249498Y-36418974D01*
X38049539Y-36379200D01*
X37845661Y-36379200D01*
X37645702Y-36418974D01*
X37457344Y-36496995D01*
X37287826Y-36610263D01*
X37143663Y-36754426D01*
X37030395Y-36923944D01*
X36952374Y-37112302D01*
X36912600Y-37312261D01*
X33180322Y-37312261D01*
X33202426Y-37258898D01*
X33242200Y-37058939D01*
X33242200Y-36855061D01*
X33232462Y-36806102D01*
X33247974Y-36795737D01*
X33392137Y-36651574D01*
X33505405Y-36482056D01*
X33583426Y-36293698D01*
X33623200Y-36093739D01*
X33623200Y-35889861D01*
X33597459Y-35760452D01*
X33696937Y-35660974D01*
X33810205Y-35491456D01*
X33888226Y-35303098D01*
X33928000Y-35103139D01*
X33928000Y-34899261D01*
X33917578Y-34846865D01*
X33967456Y-34826205D01*
X34136974Y-34712937D01*
X34281137Y-34568774D01*
X34392158Y-34402618D01*
X35967562Y-34402618D01*
X35967562Y-34606496D01*
X36007336Y-34806455D01*
X36085357Y-34994813D01*
X36198625Y-35164331D01*
X36342788Y-35308494D01*
X36512306Y-35421762D01*
X36700664Y-35499783D01*
X36900623Y-35539557D01*
X37104501Y-35539557D01*
X37304460Y-35499783D01*
X37492818Y-35421762D01*
X37662336Y-35308494D01*
X37806499Y-35164331D01*
X37919767Y-34994813D01*
X37997788Y-34806455D01*
X38037562Y-34606496D01*
X38037562Y-34402618D01*
X37997788Y-34202659D01*
X37919767Y-34014301D01*
X37806499Y-33844783D01*
X37662336Y-33700620D01*
X37492818Y-33587352D01*
X37304460Y-33509331D01*
X37104501Y-33469557D01*
X36900623Y-33469557D01*
X36700664Y-33509331D01*
X36512306Y-33587352D01*
X36342788Y-33700620D01*
X36198625Y-33844783D01*
X36085357Y-34014301D01*
X36007336Y-34202659D01*
X35967562Y-34402618D01*
X34392158Y-34402618D01*
X34394405Y-34399256D01*
X34472426Y-34210898D01*
X34512200Y-34010939D01*
X34512200Y-33807061D01*
X34472426Y-33607102D01*
X34394405Y-33418744D01*
X34281137Y-33249226D01*
X34136974Y-33105063D01*
X33967456Y-32991795D01*
X33779098Y-32913774D01*
X33579139Y-32874000D01*
X33375261Y-32874000D01*
X33175302Y-32913774D01*
X32986944Y-32991795D01*
X32817426Y-33105063D01*
X32673263Y-33249226D01*
X32559995Y-33418744D01*
X32481974Y-33607102D01*
X32442200Y-33807061D01*
X32442200Y-34010939D01*
X32452622Y-34063335D01*
X32402744Y-34083995D01*
X32233226Y-34197263D01*
X32089063Y-34341426D01*
X31975795Y-34510944D01*
X31897774Y-34699302D01*
X31858000Y-34899261D01*
X31858000Y-35103139D01*
X31883741Y-35232548D01*
X31784263Y-35332026D01*
X31670995Y-35501544D01*
X31592974Y-35689902D01*
X31553200Y-35889861D01*
X31553200Y-36093739D01*
X31562938Y-36142698D01*
X31547426Y-36153063D01*
X31403263Y-36297226D01*
X31289995Y-36466744D01*
X31211974Y-36655102D01*
X31178305Y-36824367D01*
X31125573Y-36846210D01*
X30956055Y-36959478D01*
X30811892Y-37103641D01*
X30698624Y-37273159D01*
X30620603Y-37461517D01*
X30580829Y-37661476D01*
X19845120Y-37661476D01*
X19900237Y-37606359D01*
X20057280Y-37371327D01*
X20165453Y-37110174D01*
X20220600Y-36832935D01*
X20220600Y-36550265D01*
X20165453Y-36273026D01*
X20057280Y-36011873D01*
X19900237Y-35776841D01*
X19700359Y-35576963D01*
X19467841Y-35421600D01*
X19700359Y-35266237D01*
X19900237Y-35066359D01*
X20057280Y-34831327D01*
X20165453Y-34570174D01*
X20220600Y-34292935D01*
X20220600Y-34010265D01*
X20165453Y-33733026D01*
X20057280Y-33471873D01*
X20043642Y-33451461D01*
X21494800Y-33451461D01*
X21494800Y-33655339D01*
X21534574Y-33855298D01*
X21612595Y-34043656D01*
X21725863Y-34213174D01*
X21870026Y-34357337D01*
X22039544Y-34470605D01*
X22227902Y-34548626D01*
X22427861Y-34588400D01*
X22631739Y-34588400D01*
X22831698Y-34548626D01*
X23020056Y-34470605D01*
X23189574Y-34357337D01*
X23333737Y-34213174D01*
X23447005Y-34043656D01*
X23525026Y-33855298D01*
X23564800Y-33655339D01*
X23564800Y-33451461D01*
X23525026Y-33251502D01*
X23447005Y-33063144D01*
X23333737Y-32893626D01*
X23189574Y-32749463D01*
X23020056Y-32636195D01*
X22831698Y-32558174D01*
X22631739Y-32518400D01*
X22427861Y-32518400D01*
X22227902Y-32558174D01*
X22039544Y-32636195D01*
X21870026Y-32749463D01*
X21725863Y-32893626D01*
X21612595Y-33063144D01*
X21534574Y-33251502D01*
X21494800Y-33451461D01*
X20043642Y-33451461D01*
X19900237Y-33236841D01*
X19700359Y-33036963D01*
X19467841Y-32881600D01*
X19700359Y-32726237D01*
X19900237Y-32526359D01*
X20057280Y-32291327D01*
X20165453Y-32030174D01*
X20220600Y-31752935D01*
X20220600Y-31470265D01*
X20190285Y-31317861D01*
X27159000Y-31317861D01*
X27159000Y-31521739D01*
X27198774Y-31721698D01*
X27276795Y-31910056D01*
X27390063Y-32079574D01*
X27534226Y-32223737D01*
X27703744Y-32337005D01*
X27892102Y-32415026D01*
X28092061Y-32454800D01*
X28295939Y-32454800D01*
X28495898Y-32415026D01*
X28684256Y-32337005D01*
X28853774Y-32223737D01*
X28986460Y-32091051D01*
X33686636Y-32091051D01*
X33686636Y-32294929D01*
X33726410Y-32494888D01*
X33804431Y-32683246D01*
X33917699Y-32852764D01*
X34061862Y-32996927D01*
X34231380Y-33110195D01*
X34419738Y-33188216D01*
X34619697Y-33227990D01*
X34823575Y-33227990D01*
X35023534Y-33188216D01*
X35211892Y-33110195D01*
X35381410Y-32996927D01*
X35525573Y-32852764D01*
X35638841Y-32683246D01*
X35716862Y-32494888D01*
X35756636Y-32294929D01*
X35756636Y-32091051D01*
X35716862Y-31891092D01*
X35684592Y-31813186D01*
X35765996Y-31691356D01*
X35844017Y-31502998D01*
X35883791Y-31303039D01*
X35883791Y-31263002D01*
X42860000Y-31263002D01*
X42860000Y-31466880D01*
X42899774Y-31666839D01*
X42977795Y-31855197D01*
X43091063Y-32024715D01*
X43235226Y-32168878D01*
X43404744Y-32282146D01*
X43593102Y-32360167D01*
X43793061Y-32399941D01*
X43996939Y-32399941D01*
X44196898Y-32360167D01*
X44298692Y-32318002D01*
X44399421Y-32385307D01*
X44587779Y-32463328D01*
X44787738Y-32503102D01*
X44991616Y-32503102D01*
X45191575Y-32463328D01*
X45379933Y-32385307D01*
X45549451Y-32272039D01*
X45693614Y-32127876D01*
X45806882Y-31958358D01*
X45884903Y-31770000D01*
X45924677Y-31570041D01*
X45924677Y-31366163D01*
X45884903Y-31166204D01*
X45806882Y-30977846D01*
X45693614Y-30808328D01*
X45549451Y-30664165D01*
X45379933Y-30550897D01*
X45191575Y-30472876D01*
X44991616Y-30433102D01*
X44787738Y-30433102D01*
X44587779Y-30472876D01*
X44485985Y-30515041D01*
X44385256Y-30447736D01*
X44196898Y-30369715D01*
X43996939Y-30329941D01*
X43793061Y-30329941D01*
X43593102Y-30369715D01*
X43404744Y-30447736D01*
X43235226Y-30561004D01*
X43091063Y-30705167D01*
X42977795Y-30874685D01*
X42899774Y-31063043D01*
X42860000Y-31263002D01*
X35883791Y-31263002D01*
X35883791Y-31099161D01*
X35844017Y-30899202D01*
X35765996Y-30710844D01*
X35652728Y-30541326D01*
X35508565Y-30397163D01*
X35339047Y-30283895D01*
X35150689Y-30205874D01*
X34950730Y-30166100D01*
X34746852Y-30166100D01*
X34546893Y-30205874D01*
X34358535Y-30283895D01*
X34189017Y-30397163D01*
X34044854Y-30541326D01*
X33931586Y-30710844D01*
X33853565Y-30899202D01*
X33813791Y-31099161D01*
X33813791Y-31303039D01*
X33853565Y-31502998D01*
X33885835Y-31580904D01*
X33804431Y-31702734D01*
X33726410Y-31891092D01*
X33686636Y-32091051D01*
X28986460Y-32091051D01*
X28997937Y-32079574D01*
X29111205Y-31910056D01*
X29189226Y-31721698D01*
X29229000Y-31521739D01*
X29229000Y-31317861D01*
X29189226Y-31117902D01*
X29111205Y-30929544D01*
X28997937Y-30760026D01*
X28853774Y-30615863D01*
X28684256Y-30502595D01*
X28495898Y-30424574D01*
X28295939Y-30384800D01*
X28092061Y-30384800D01*
X27892102Y-30424574D01*
X27703744Y-30502595D01*
X27534226Y-30615863D01*
X27390063Y-30760026D01*
X27276795Y-30929544D01*
X27198774Y-31117902D01*
X27159000Y-31317861D01*
X20190285Y-31317861D01*
X20165453Y-31193026D01*
X20057280Y-30931873D01*
X19900237Y-30696841D01*
X19700359Y-30496963D01*
X19467841Y-30341600D01*
X19700359Y-30186237D01*
X19900237Y-29986359D01*
X20057280Y-29751327D01*
X20165453Y-29490174D01*
X20220600Y-29212935D01*
X20220600Y-29162744D01*
X22057483Y-29162744D01*
X22057483Y-29366622D01*
X22097257Y-29566581D01*
X22175278Y-29754939D01*
X22288546Y-29924457D01*
X22432709Y-30068620D01*
X22602227Y-30181888D01*
X22790585Y-30259909D01*
X22990544Y-30299683D01*
X23194422Y-30299683D01*
X23394381Y-30259909D01*
X23582739Y-30181888D01*
X23752257Y-30068620D01*
X23896420Y-29924457D01*
X23949024Y-29845728D01*
X25507694Y-29845728D01*
X25509639Y-29870548D01*
X25516389Y-29894512D01*
X25527684Y-29916699D01*
X25543091Y-29936255D01*
X25562017Y-29952431D01*
X25583735Y-29964603D01*
X25607410Y-29972304D01*
X25634070Y-29975263D01*
X47909630Y-30080336D01*
X47871344Y-30096195D01*
X47701826Y-30209463D01*
X47557663Y-30353626D01*
X47444395Y-30523144D01*
X47366374Y-30711502D01*
X47326600Y-30911461D01*
X47326600Y-31115339D01*
X47366374Y-31315298D01*
X47444395Y-31503656D01*
X47557663Y-31673174D01*
X47701826Y-31817337D01*
X47871344Y-31930605D01*
X48059702Y-32008626D01*
X48259661Y-32048400D01*
X48463539Y-32048400D01*
X48663498Y-32008626D01*
X48851856Y-31930605D01*
X49021374Y-31817337D01*
X49165537Y-31673174D01*
X49278805Y-31503656D01*
X49356826Y-31315298D01*
X49396600Y-31115339D01*
X49396600Y-30911461D01*
X49356826Y-30711502D01*
X49278805Y-30523144D01*
X49165537Y-30353626D01*
X49021374Y-30209463D01*
X48851856Y-30096195D01*
X48663498Y-30018174D01*
X48463539Y-29978400D01*
X48358961Y-29978400D01*
X48361339Y-29954267D01*
X48356349Y-28896431D01*
X48384195Y-28963656D01*
X48497463Y-29133174D01*
X48641626Y-29277337D01*
X48811144Y-29390605D01*
X48999502Y-29468626D01*
X49199461Y-29508400D01*
X49403339Y-29508400D01*
X49603298Y-29468626D01*
X49791656Y-29390605D01*
X49961174Y-29277337D01*
X50105337Y-29133174D01*
X50218605Y-28963656D01*
X50296626Y-28775298D01*
X50336400Y-28575339D01*
X50336400Y-28371461D01*
X50296626Y-28171502D01*
X50218605Y-27983144D01*
X50105337Y-27813626D01*
X49961174Y-27669463D01*
X49791656Y-27556195D01*
X49603298Y-27478174D01*
X49403339Y-27438400D01*
X49199461Y-27438400D01*
X48999502Y-27478174D01*
X48811144Y-27556195D01*
X48641626Y-27669463D01*
X48497463Y-27813626D01*
X48384195Y-27983144D01*
X48352403Y-28059895D01*
X48326288Y-22523406D01*
X49110360Y-22523406D01*
X49110360Y-22727284D01*
X49150134Y-22927243D01*
X49228155Y-23115601D01*
X49341423Y-23285119D01*
X49485586Y-23429282D01*
X49655104Y-23542550D01*
X49843462Y-23620571D01*
X50043421Y-23660345D01*
X50247299Y-23660345D01*
X50447258Y-23620571D01*
X50635616Y-23542550D01*
X50805134Y-23429282D01*
X50949297Y-23285119D01*
X51062565Y-23115601D01*
X51140586Y-22927243D01*
X51180360Y-22727284D01*
X51180360Y-22523406D01*
X51140586Y-22323447D01*
X51062565Y-22135089D01*
X50949297Y-21965571D01*
X50805134Y-21821408D01*
X50635616Y-21708140D01*
X50447258Y-21630119D01*
X50247299Y-21590345D01*
X50043421Y-21590345D01*
X49843462Y-21630119D01*
X49655104Y-21708140D01*
X49485586Y-21821408D01*
X49341423Y-21965571D01*
X49228155Y-22135089D01*
X49150134Y-22323447D01*
X49110360Y-22523406D01*
X48326288Y-22523406D01*
X48296923Y-16298082D01*
X48483958Y-16298082D01*
X48483958Y-16501960D01*
X48523732Y-16701919D01*
X48601753Y-16890277D01*
X48715021Y-17059795D01*
X48859184Y-17203958D01*
X48965181Y-17274783D01*
X48861928Y-17429312D01*
X48783907Y-17617670D01*
X48744133Y-17817629D01*
X48744133Y-18021507D01*
X48783907Y-18221466D01*
X48861928Y-18409824D01*
X48975196Y-18579342D01*
X49119359Y-18723505D01*
X49288877Y-18836773D01*
X49477235Y-18914794D01*
X49677194Y-18954568D01*
X49881072Y-18954568D01*
X49916595Y-18947502D01*
X50052406Y-19083313D01*
X50221924Y-19196581D01*
X50410282Y-19274602D01*
X50610241Y-19314376D01*
X50814119Y-19314376D01*
X51014078Y-19274602D01*
X51202436Y-19196581D01*
X51371954Y-19083313D01*
X51516117Y-18939150D01*
X51629385Y-18769632D01*
X51707406Y-18581274D01*
X51747180Y-18381315D01*
X51747180Y-18177437D01*
X51707406Y-17977478D01*
X51629385Y-17789120D01*
X51516117Y-17619602D01*
X51390984Y-17494469D01*
X51474404Y-17369621D01*
X51552425Y-17181263D01*
X51592199Y-16981304D01*
X51592199Y-16777426D01*
X51552425Y-16577467D01*
X51474404Y-16389109D01*
X51413164Y-16297457D01*
X51434365Y-16283291D01*
X51578528Y-16139128D01*
X51691796Y-15969610D01*
X51769817Y-15781252D01*
X51809591Y-15581293D01*
X51809591Y-15377415D01*
X51769817Y-15177456D01*
X51691796Y-14989098D01*
X51578528Y-14819580D01*
X51434365Y-14675417D01*
X51264847Y-14562149D01*
X51076489Y-14484128D01*
X50876530Y-14444354D01*
X50672652Y-14444354D01*
X50472693Y-14484128D01*
X50284335Y-14562149D01*
X50114817Y-14675417D01*
X49970654Y-14819580D01*
X49857386Y-14989098D01*
X49779365Y-15177456D01*
X49739591Y-15377415D01*
X49739591Y-15388631D01*
X49620897Y-15365021D01*
X49417019Y-15365021D01*
X49217060Y-15404795D01*
X49028702Y-15482816D01*
X48859184Y-15596084D01*
X48715021Y-15740247D01*
X48601753Y-15909765D01*
X48523732Y-16098123D01*
X48483958Y-16298082D01*
X48296923Y-16298082D01*
X48268088Y-10185061D01*
X48672800Y-10185061D01*
X48672800Y-10388939D01*
X48712574Y-10588898D01*
X48790595Y-10777256D01*
X48903863Y-10946774D01*
X49048026Y-11090937D01*
X49217544Y-11204205D01*
X49405902Y-11282226D01*
X49605861Y-11322000D01*
X49809739Y-11322000D01*
X50009698Y-11282226D01*
X50198056Y-11204205D01*
X50367574Y-11090937D01*
X50511737Y-10946774D01*
X50625005Y-10777256D01*
X50703026Y-10588898D01*
X50742800Y-10388939D01*
X50742800Y-10185061D01*
X50703026Y-9985102D01*
X50625005Y-9796744D01*
X50511737Y-9627226D01*
X50367574Y-9483063D01*
X50198056Y-9369795D01*
X50009698Y-9291774D01*
X49809739Y-9252000D01*
X49605861Y-9252000D01*
X49405902Y-9291774D01*
X49217544Y-9369795D01*
X49048026Y-9483063D01*
X48903863Y-9627226D01*
X48790595Y-9796744D01*
X48712574Y-9985102D01*
X48672800Y-10185061D01*
X48268088Y-10185061D01*
X48259765Y-8420592D01*
X48257207Y-8395827D01*
X48249868Y-8372037D01*
X48238029Y-8350136D01*
X48222144Y-8330966D01*
X48202825Y-8315263D01*
X48180813Y-8303630D01*
X48156955Y-8296516D01*
X48132115Y-8294193D01*
X26059749Y-8407402D01*
X26034985Y-8409969D01*
X26011198Y-8417318D01*
X25989302Y-8429167D01*
X25970138Y-8445059D01*
X25954443Y-8464385D01*
X25942820Y-8486402D01*
X25935715Y-8510263D01*
X25933425Y-8531864D01*
X25507694Y-29845728D01*
X23949024Y-29845728D01*
X24009688Y-29754939D01*
X24087709Y-29566581D01*
X24127483Y-29366622D01*
X24127483Y-29162744D01*
X24087709Y-28962785D01*
X24009688Y-28774427D01*
X23896420Y-28604909D01*
X23752257Y-28460746D01*
X23582739Y-28347478D01*
X23394381Y-28269457D01*
X23194422Y-28229683D01*
X22990544Y-28229683D01*
X22790585Y-28269457D01*
X22602227Y-28347478D01*
X22432709Y-28460746D01*
X22288546Y-28604909D01*
X22175278Y-28774427D01*
X22097257Y-28962785D01*
X22057483Y-29162744D01*
X20220600Y-29162744D01*
X20220600Y-28930265D01*
X20165453Y-28653026D01*
X20057280Y-28391873D01*
X19900237Y-28156841D01*
X19700359Y-27956963D01*
X19467841Y-27801600D01*
X19700359Y-27646237D01*
X19900237Y-27446359D01*
X20057280Y-27211327D01*
X20165453Y-26950174D01*
X20220600Y-26672935D01*
X20220600Y-26390265D01*
X20165453Y-26113026D01*
X20057280Y-25851873D01*
X19900237Y-25616841D01*
X19700359Y-25416963D01*
X19467841Y-25261600D01*
X19700359Y-25106237D01*
X19900237Y-24906359D01*
X20057280Y-24671327D01*
X20165453Y-24410174D01*
X20220600Y-24132935D01*
X20220600Y-23850265D01*
X20165453Y-23573026D01*
X20057280Y-23311873D01*
X19900237Y-23076841D01*
X19700359Y-22876963D01*
X19467841Y-22721600D01*
X19700359Y-22566237D01*
X19900237Y-22366359D01*
X20057280Y-22131327D01*
X20165453Y-21870174D01*
X20220600Y-21592935D01*
X20220600Y-21348679D01*
X22676218Y-21348679D01*
X22676218Y-21552557D01*
X22715992Y-21752516D01*
X22794013Y-21940874D01*
X22907281Y-22110392D01*
X23051444Y-22254555D01*
X23220962Y-22367823D01*
X23409320Y-22445844D01*
X23609279Y-22485618D01*
X23813157Y-22485618D01*
X24013116Y-22445844D01*
X24201474Y-22367823D01*
X24370992Y-22254555D01*
X24515155Y-22110392D01*
X24628423Y-21940874D01*
X24706444Y-21752516D01*
X24746218Y-21552557D01*
X24746218Y-21348679D01*
X24706444Y-21148720D01*
X24628423Y-20960362D01*
X24515155Y-20790844D01*
X24370992Y-20646681D01*
X24201474Y-20533413D01*
X24013116Y-20455392D01*
X23813157Y-20415618D01*
X23609279Y-20415618D01*
X23409320Y-20455392D01*
X23220962Y-20533413D01*
X23051444Y-20646681D01*
X22907281Y-20790844D01*
X22794013Y-20960362D01*
X22715992Y-21148720D01*
X22676218Y-21348679D01*
X20220600Y-21348679D01*
X20220600Y-21310265D01*
X20165453Y-21033026D01*
X20057280Y-20771873D01*
X19900237Y-20536841D01*
X19700359Y-20336963D01*
X19467841Y-20181600D01*
X19700359Y-20026237D01*
X19900237Y-19826359D01*
X20057280Y-19591327D01*
X20165453Y-19330174D01*
X20220600Y-19052935D01*
X20220600Y-18770265D01*
X20165453Y-18493026D01*
X20057280Y-18231873D01*
X19900237Y-17996841D01*
X19700359Y-17796963D01*
X19467841Y-17641600D01*
X19700359Y-17486237D01*
X19900237Y-17286359D01*
X20057280Y-17051327D01*
X20165453Y-16790174D01*
X20220600Y-16512935D01*
X20220600Y-16230265D01*
X20165453Y-15953026D01*
X20057280Y-15691873D01*
X19900237Y-15456841D01*
X19700359Y-15256963D01*
X19467841Y-15101600D01*
X19700359Y-14946237D01*
X19900237Y-14746359D01*
X20057280Y-14511327D01*
X20165453Y-14250174D01*
X20220600Y-13972935D01*
X20220600Y-13690265D01*
X20165453Y-13413026D01*
X20057280Y-13151873D01*
X19900237Y-12916841D01*
X19700359Y-12716963D01*
X19467841Y-12561600D01*
X19700359Y-12406237D01*
X19889535Y-12217061D01*
X22002800Y-12217061D01*
X22002800Y-12420939D01*
X22042574Y-12620898D01*
X22120595Y-12809256D01*
X22233863Y-12978774D01*
X22378026Y-13122937D01*
X22547544Y-13236205D01*
X22735902Y-13314226D01*
X22935861Y-13354000D01*
X23139739Y-13354000D01*
X23339698Y-13314226D01*
X23528056Y-13236205D01*
X23697574Y-13122937D01*
X23841737Y-12978774D01*
X23955005Y-12809256D01*
X24033026Y-12620898D01*
X24072800Y-12420939D01*
X24072800Y-12217061D01*
X24033026Y-12017102D01*
X23955005Y-11828744D01*
X23841737Y-11659226D01*
X23697574Y-11515063D01*
X23528056Y-11401795D01*
X23339698Y-11323774D01*
X23139739Y-11284000D01*
X22935861Y-11284000D01*
X22735902Y-11323774D01*
X22547544Y-11401795D01*
X22378026Y-11515063D01*
X22233863Y-11659226D01*
X22120595Y-11828744D01*
X22042574Y-12017102D01*
X22002800Y-12217061D01*
X19889535Y-12217061D01*
X19900237Y-12206359D01*
X20057280Y-11971327D01*
X20165453Y-11710174D01*
X20220600Y-11432935D01*
X20220600Y-11150265D01*
X20165453Y-10873026D01*
X20057280Y-10611873D01*
X19900237Y-10376841D01*
X19700359Y-10176963D01*
X19467841Y-10021600D01*
X19700359Y-9866237D01*
X19900237Y-9666359D01*
X20057280Y-9431327D01*
X20165453Y-9170174D01*
X20209308Y-8949698D01*
X23850316Y-8949698D01*
X23850316Y-9153576D01*
X23890090Y-9353535D01*
X23968111Y-9541893D01*
X24081379Y-9711411D01*
X24225542Y-9855574D01*
X24395060Y-9968842D01*
X24583418Y-10046863D01*
X24783377Y-10086637D01*
X24987255Y-10086637D01*
X25187214Y-10046863D01*
X25375572Y-9968842D01*
X25545090Y-9855574D01*
X25689253Y-9711411D01*
X25802521Y-9541893D01*
X25880542Y-9353535D01*
X25920316Y-9153576D01*
X25920316Y-8949698D01*
X25880542Y-8749739D01*
X25802521Y-8561381D01*
X25689253Y-8391863D01*
X25545090Y-8247700D01*
X25375572Y-8134432D01*
X25187214Y-8056411D01*
X24987255Y-8016637D01*
X24783377Y-8016637D01*
X24583418Y-8056411D01*
X24395060Y-8134432D01*
X24225542Y-8247700D01*
X24081379Y-8391863D01*
X23968111Y-8561381D01*
X23890090Y-8749739D01*
X23850316Y-8949698D01*
X20209308Y-8949698D01*
X20220600Y-8892935D01*
X20220600Y-8610265D01*
X20165453Y-8333026D01*
X20057280Y-8071873D01*
X19900237Y-7836841D01*
X19700359Y-7636963D01*
X19467841Y-7481600D01*
X19700359Y-7326237D01*
X19900237Y-7126359D01*
X19917534Y-7100471D01*
X22002800Y-7100471D01*
X22002800Y-7304349D01*
X22042574Y-7504308D01*
X22120595Y-7692666D01*
X22233863Y-7862184D01*
X22378026Y-8006347D01*
X22547544Y-8119615D01*
X22735902Y-8197636D01*
X22935861Y-8237410D01*
X23139739Y-8237410D01*
X23339698Y-8197636D01*
X23528056Y-8119615D01*
X23697574Y-8006347D01*
X23841737Y-7862184D01*
X23955005Y-7692666D01*
X24033026Y-7504308D01*
X24072800Y-7304349D01*
X24072800Y-7162461D01*
X49384000Y-7162461D01*
X49384000Y-7366339D01*
X49423774Y-7566298D01*
X49501795Y-7754656D01*
X49615063Y-7924174D01*
X49759226Y-8068337D01*
X49928744Y-8181605D01*
X50117102Y-8259626D01*
X50317061Y-8299400D01*
X50520939Y-8299400D01*
X50720898Y-8259626D01*
X50909256Y-8181605D01*
X51078774Y-8068337D01*
X51222937Y-7924174D01*
X51336205Y-7754656D01*
X51414226Y-7566298D01*
X51454000Y-7366339D01*
X51454000Y-7162461D01*
X51414226Y-6962502D01*
X51336205Y-6774144D01*
X51222937Y-6604626D01*
X51078774Y-6460463D01*
X50909256Y-6347195D01*
X50720898Y-6269174D01*
X50520939Y-6229400D01*
X50317061Y-6229400D01*
X50117102Y-6269174D01*
X49928744Y-6347195D01*
X49759226Y-6460463D01*
X49615063Y-6604626D01*
X49501795Y-6774144D01*
X49423774Y-6962502D01*
X49384000Y-7162461D01*
X24072800Y-7162461D01*
X24072800Y-7100471D01*
X24033026Y-6900512D01*
X23955005Y-6712154D01*
X23841737Y-6542636D01*
X23697574Y-6398473D01*
X23528056Y-6285205D01*
X23339698Y-6207184D01*
X23139739Y-6167410D01*
X22935861Y-6167410D01*
X22735902Y-6207184D01*
X22547544Y-6285205D01*
X22378026Y-6398473D01*
X22233863Y-6542636D01*
X22120595Y-6712154D01*
X22042574Y-6900512D01*
X22002800Y-7100471D01*
X19917534Y-7100471D01*
X20057280Y-6891327D01*
X20165453Y-6630174D01*
X20220600Y-6352935D01*
X20220600Y-6070265D01*
X20165453Y-5793026D01*
X20057280Y-5531873D01*
X19900237Y-5296841D01*
X19700359Y-5096963D01*
X19465327Y-4939920D01*
X19458624Y-4937143D01*
X19633861Y-4972000D01*
X19837739Y-4972000D01*
X20037698Y-4932226D01*
X20226056Y-4854205D01*
X20395574Y-4740937D01*
X20539737Y-4596774D01*
X20624403Y-4470061D01*
X27082800Y-4470061D01*
X27082800Y-4673939D01*
X27122574Y-4873898D01*
X27200595Y-5062256D01*
X27284076Y-5187195D01*
X27200595Y-5312134D01*
X27122574Y-5500492D01*
X27082800Y-5700451D01*
X27082800Y-5904329D01*
X27122574Y-6104288D01*
X27200595Y-6292646D01*
X27313863Y-6462164D01*
X27458026Y-6606327D01*
X27627544Y-6719595D01*
X27815902Y-6797616D01*
X28015861Y-6837390D01*
X28219739Y-6837390D01*
X28419698Y-6797616D01*
X28608056Y-6719595D01*
X28777574Y-6606327D01*
X28921737Y-6462164D01*
X29035005Y-6292646D01*
X29113026Y-6104288D01*
X29152800Y-5904329D01*
X29152800Y-5740061D01*
X31527800Y-5740061D01*
X31527800Y-5943939D01*
X31567574Y-6143898D01*
X31645595Y-6332256D01*
X31758863Y-6501774D01*
X31903026Y-6645937D01*
X32072544Y-6759205D01*
X32260902Y-6837226D01*
X32460861Y-6877000D01*
X32664739Y-6877000D01*
X32864698Y-6837226D01*
X33053056Y-6759205D01*
X33222574Y-6645937D01*
X33365233Y-6503278D01*
X33444144Y-6556005D01*
X33632502Y-6634026D01*
X33832461Y-6673800D01*
X34036339Y-6673800D01*
X34236298Y-6634026D01*
X34424656Y-6556005D01*
X34594174Y-6442737D01*
X34738337Y-6298574D01*
X34851605Y-6129056D01*
X34929626Y-5940698D01*
X34969400Y-5740739D01*
X34969400Y-5740061D01*
X45624800Y-5740061D01*
X45624800Y-5943939D01*
X45664574Y-6143898D01*
X45742595Y-6332256D01*
X45855863Y-6501774D01*
X46000026Y-6645937D01*
X46169544Y-6759205D01*
X46357902Y-6837226D01*
X46557861Y-6877000D01*
X46761739Y-6877000D01*
X46961698Y-6837226D01*
X47150056Y-6759205D01*
X47319574Y-6645937D01*
X47463737Y-6501774D01*
X47577005Y-6332256D01*
X47655026Y-6143898D01*
X47694800Y-5943939D01*
X47694800Y-5740061D01*
X47655026Y-5540102D01*
X47577005Y-5351744D01*
X47463737Y-5182226D01*
X47319574Y-5038063D01*
X47150056Y-4924795D01*
X46961698Y-4846774D01*
X46761739Y-4807000D01*
X46557861Y-4807000D01*
X46357902Y-4846774D01*
X46169544Y-4924795D01*
X46000026Y-5038063D01*
X45855863Y-5182226D01*
X45742595Y-5351744D01*
X45664574Y-5540102D01*
X45624800Y-5740061D01*
X34969400Y-5740061D01*
X34969400Y-5536861D01*
X34929626Y-5336902D01*
X34851605Y-5148544D01*
X34738337Y-4979026D01*
X34594174Y-4834863D01*
X34424656Y-4721595D01*
X34236298Y-4643574D01*
X34036339Y-4603800D01*
X33832461Y-4603800D01*
X33632502Y-4643574D01*
X33444144Y-4721595D01*
X33274626Y-4834863D01*
X33131967Y-4977522D01*
X33053056Y-4924795D01*
X32864698Y-4846774D01*
X32664739Y-4807000D01*
X32460861Y-4807000D01*
X32260902Y-4846774D01*
X32072544Y-4924795D01*
X31903026Y-5038063D01*
X31758863Y-5182226D01*
X31645595Y-5351744D01*
X31567574Y-5540102D01*
X31527800Y-5740061D01*
X29152800Y-5740061D01*
X29152800Y-5700451D01*
X29113026Y-5500492D01*
X29035005Y-5312134D01*
X28951524Y-5187195D01*
X29035005Y-5062256D01*
X29113026Y-4873898D01*
X29152800Y-4673939D01*
X29152800Y-4470061D01*
X29113026Y-4270102D01*
X29035005Y-4081744D01*
X28921737Y-3912226D01*
X28777574Y-3768063D01*
X28608056Y-3654795D01*
X28419698Y-3576774D01*
X28219739Y-3537000D01*
X28015861Y-3537000D01*
X27815902Y-3576774D01*
X27627544Y-3654795D01*
X27458026Y-3768063D01*
X27313863Y-3912226D01*
X27200595Y-4081744D01*
X27122574Y-4270102D01*
X27082800Y-4470061D01*
X20624403Y-4470061D01*
X20653005Y-4427256D01*
X20731026Y-4238898D01*
X20770800Y-4038939D01*
X20770800Y-3835061D01*
X20731026Y-3635102D01*
X20653005Y-3446744D01*
X20539737Y-3277226D01*
X20395574Y-3133063D01*
X20226056Y-3019795D01*
X20037698Y-2941774D01*
X19837739Y-2902000D01*
X19633861Y-2902000D01*
X19433902Y-2941774D01*
X19245544Y-3019795D01*
X19076026Y-3133063D01*
X18931863Y-3277226D01*
X18818595Y-3446744D01*
X18740574Y-3635102D01*
X18700800Y-3835061D01*
X18700800Y-4038939D01*
X18740574Y-4238898D01*
X18818595Y-4427256D01*
X18931863Y-4596774D01*
X19076026Y-4740937D01*
X19224588Y-4840203D01*
X19204174Y-4831747D01*
X18926935Y-4776600D01*
X18644265Y-4776600D01*
X18367026Y-4831747D01*
X18105873Y-4939920D01*
X17870841Y-5096963D01*
X17670963Y-5296841D01*
X17513920Y-5531873D01*
X17405747Y-5793026D01*
X17350600Y-6070265D01*
X4983672Y-6070265D01*
X4983672Y-5411600D01*
X4971412Y-5287118D01*
X4935102Y-5167420D01*
X4876137Y-5057106D01*
X4796785Y-4960415D01*
X4700094Y-4881063D01*
X4589780Y-4822098D01*
X4470082Y-4785788D01*
X4345600Y-4773528D01*
X2745600Y-4773528D01*
X2621118Y-4785788D01*
X2501420Y-4822098D01*
X2391106Y-4881063D01*
X2294415Y-4960415D01*
X2215063Y-5057106D01*
X2156098Y-5167420D01*
X2119788Y-5287118D01*
X2107528Y-5411600D01*
X749302Y-5411600D01*
X749300Y-5410105D01*
X749296Y-5409203D01*
X712206Y-686457D01*
X36028463Y-867397D01*
G37*
X36028463Y-867397D02*
X36067549Y-1063898D01*
X36145570Y-1252256D01*
X36258838Y-1421774D01*
X36403001Y-1565937D01*
X36572519Y-1679205D01*
X36760877Y-1757226D01*
X36960836Y-1797000D01*
X37164714Y-1797000D01*
X37364673Y-1757226D01*
X37553031Y-1679205D01*
X37562782Y-1672690D01*
X37572532Y-1679205D01*
X37760890Y-1757226D01*
X37960849Y-1797000D01*
X38164727Y-1797000D01*
X38364686Y-1757226D01*
X38553044Y-1679205D01*
X38562779Y-1672700D01*
X38572543Y-1679224D01*
X38760901Y-1757245D01*
X38960860Y-1797019D01*
X39164738Y-1797019D01*
X39364697Y-1757245D01*
X39553055Y-1679224D01*
X39563045Y-1672549D01*
X39572554Y-1678902D01*
X39760912Y-1756923D01*
X39960871Y-1796697D01*
X40164749Y-1796697D01*
X40364708Y-1756923D01*
X40553066Y-1678902D01*
X40607347Y-1642632D01*
X40699466Y-1704184D01*
X40887824Y-1782205D01*
X41087783Y-1821979D01*
X41291661Y-1821979D01*
X41491620Y-1782205D01*
X41679978Y-1704184D01*
X41765358Y-1647135D01*
X41775344Y-1653807D01*
X41963702Y-1731828D01*
X42163661Y-1771602D01*
X42367539Y-1771602D01*
X42567498Y-1731828D01*
X42755856Y-1653807D01*
X42871950Y-1576235D01*
X42913639Y-1617924D01*
X43083157Y-1731192D01*
X43271515Y-1809213D01*
X43471474Y-1848987D01*
X43675352Y-1848987D01*
X43875311Y-1809213D01*
X44063669Y-1731192D01*
X44126674Y-1689094D01*
X44269672Y-1748326D01*
X44469631Y-1788100D01*
X44673509Y-1788100D01*
X44873468Y-1748326D01*
X45061826Y-1670305D01*
X45231344Y-1557037D01*
X45375507Y-1412874D01*
X45488775Y-1243356D01*
X45566796Y-1054998D01*
X45594363Y-916407D01*
X54995225Y-964572D01*
X55245052Y-8309495D01*
X55346613Y-12727393D01*
X55474000Y-27304186D01*
X55474001Y-39701470D01*
X55347562Y-56337200D01*
X25808383Y-56337200D01*
X24997567Y-56311862D01*
X24993467Y-56311800D01*
X787305Y-56337067D01*
X749302Y-5411600D01*
X2107528Y-5411600D01*
X2107528Y-7011600D01*
X2119788Y-7136082D01*
X2156098Y-7255780D01*
X2215063Y-7366094D01*
X2294415Y-7462785D01*
X2391106Y-7542137D01*
X2501420Y-7601102D01*
X2621118Y-7637412D01*
X2629561Y-7638243D01*
X2430963Y-7836841D01*
X2273920Y-8071873D01*
X2165747Y-8333026D01*
X2110600Y-8610265D01*
X2110600Y-8892935D01*
X2165747Y-9170174D01*
X2273920Y-9431327D01*
X2430963Y-9666359D01*
X2630841Y-9866237D01*
X2863359Y-10021600D01*
X2630841Y-10176963D01*
X2430963Y-10376841D01*
X2273920Y-10611873D01*
X2165747Y-10873026D01*
X2110600Y-11150265D01*
X2110600Y-11432935D01*
X2165747Y-11710174D01*
X2273920Y-11971327D01*
X2430963Y-12206359D01*
X2630841Y-12406237D01*
X2863359Y-12561600D01*
X2630841Y-12716963D01*
X2430963Y-12916841D01*
X2273920Y-13151873D01*
X2165747Y-13413026D01*
X2110600Y-13690265D01*
X2110600Y-13972935D01*
X2165747Y-14250174D01*
X2273920Y-14511327D01*
X2430963Y-14746359D01*
X2630841Y-14946237D01*
X2863359Y-15101600D01*
X2630841Y-15256963D01*
X2430963Y-15456841D01*
X2273920Y-15691873D01*
X2165747Y-15953026D01*
X2110600Y-16230265D01*
X2110600Y-16512935D01*
X2165747Y-16790174D01*
X2273920Y-17051327D01*
X2430963Y-17286359D01*
X2630841Y-17486237D01*
X2863359Y-17641600D01*
X2630841Y-17796963D01*
X2430963Y-17996841D01*
X2273920Y-18231873D01*
X2165747Y-18493026D01*
X2110600Y-18770265D01*
X2110600Y-19052935D01*
X2165747Y-19330174D01*
X2273920Y-19591327D01*
X2430963Y-19826359D01*
X2630841Y-20026237D01*
X2863359Y-20181600D01*
X2630841Y-20336963D01*
X2430963Y-20536841D01*
X2273920Y-20771873D01*
X2165747Y-21033026D01*
X2110600Y-21310265D01*
X2110600Y-21592935D01*
X2165747Y-21870174D01*
X2273920Y-22131327D01*
X2430963Y-22366359D01*
X2630841Y-22566237D01*
X2863359Y-22721600D01*
X2630841Y-22876963D01*
X2430963Y-23076841D01*
X2273920Y-23311873D01*
X2165747Y-23573026D01*
X2110600Y-23850265D01*
X2110600Y-24132935D01*
X2165747Y-24410174D01*
X2273920Y-24671327D01*
X2430963Y-24906359D01*
X2630841Y-25106237D01*
X2863359Y-25261600D01*
X2630841Y-25416963D01*
X2430963Y-25616841D01*
X2273920Y-25851873D01*
X2165747Y-26113026D01*
X2110600Y-26390265D01*
X2110600Y-26672935D01*
X2165747Y-26950174D01*
X2273920Y-27211327D01*
X2430963Y-27446359D01*
X2630841Y-27646237D01*
X2863359Y-27801600D01*
X2630841Y-27956963D01*
X2430963Y-28156841D01*
X2273920Y-28391873D01*
X2165747Y-28653026D01*
X2110600Y-28930265D01*
X2110600Y-29212935D01*
X2165747Y-29490174D01*
X2273920Y-29751327D01*
X2430963Y-29986359D01*
X2630841Y-30186237D01*
X2863359Y-30341600D01*
X2630841Y-30496963D01*
X2430963Y-30696841D01*
X2273920Y-30931873D01*
X2165747Y-31193026D01*
X2110600Y-31470265D01*
X2110600Y-31752935D01*
X2165747Y-32030174D01*
X2273920Y-32291327D01*
X2430963Y-32526359D01*
X2630841Y-32726237D01*
X2863359Y-32881600D01*
X2630841Y-33036963D01*
X2430963Y-33236841D01*
X2273920Y-33471873D01*
X2165747Y-33733026D01*
X2110600Y-34010265D01*
X2110600Y-34292935D01*
X2165747Y-34570174D01*
X2273920Y-34831327D01*
X2430963Y-35066359D01*
X2630841Y-35266237D01*
X2863359Y-35421600D01*
X2630841Y-35576963D01*
X2430963Y-35776841D01*
X2273920Y-36011873D01*
X2165747Y-36273026D01*
X2110600Y-36550265D01*
X2110600Y-36832935D01*
X2165747Y-37110174D01*
X2273920Y-37371327D01*
X2430963Y-37606359D01*
X2630841Y-37806237D01*
X2863359Y-37961600D01*
X2630841Y-38116963D01*
X2430963Y-38316841D01*
X2273920Y-38551873D01*
X2165747Y-38813026D01*
X2110600Y-39090265D01*
X2110600Y-39372935D01*
X2165747Y-39650174D01*
X2273920Y-39911327D01*
X2430963Y-40146359D01*
X2630841Y-40346237D01*
X2863359Y-40501600D01*
X2630841Y-40656963D01*
X2430963Y-40856841D01*
X2273920Y-41091873D01*
X2165747Y-41353026D01*
X2110600Y-41630265D01*
X2110600Y-41912935D01*
X2165747Y-42190174D01*
X2273920Y-42451327D01*
X2430963Y-42686359D01*
X2630841Y-42886237D01*
X2863359Y-43041600D01*
X2630841Y-43196963D01*
X2430963Y-43396841D01*
X2273920Y-43631873D01*
X2165747Y-43893026D01*
X2110600Y-44170265D01*
X2110600Y-44452935D01*
X2165747Y-44730174D01*
X2273920Y-44991327D01*
X2430963Y-45226359D01*
X2630841Y-45426237D01*
X2863359Y-45581600D01*
X2630841Y-45736963D01*
X2430963Y-45936841D01*
X2273920Y-46171873D01*
X2165747Y-46433026D01*
X2110600Y-46710265D01*
X2110600Y-46992935D01*
X2165747Y-47270174D01*
X2273920Y-47531327D01*
X2430963Y-47766359D01*
X2630841Y-47966237D01*
X2863359Y-48121600D01*
X2630841Y-48276963D01*
X2430963Y-48476841D01*
X2273920Y-48711873D01*
X2165747Y-48973026D01*
X2110600Y-49250265D01*
X2110600Y-49532935D01*
X2165747Y-49810174D01*
X2273920Y-50071327D01*
X2430963Y-50306359D01*
X2630841Y-50506237D01*
X2863359Y-50661600D01*
X2630841Y-50816963D01*
X2430963Y-51016841D01*
X2273920Y-51251873D01*
X2165747Y-51513026D01*
X2110600Y-51790265D01*
X2110600Y-52072935D01*
X2165747Y-52350174D01*
X2273920Y-52611327D01*
X2430963Y-52846359D01*
X2630841Y-53046237D01*
X2863359Y-53201600D01*
X2630841Y-53356963D01*
X2430963Y-53556841D01*
X2273920Y-53791873D01*
X2165747Y-54053026D01*
X2110600Y-54330265D01*
X2110600Y-54612935D01*
X2165747Y-54890174D01*
X2273920Y-55151327D01*
X2430963Y-55386359D01*
X2630841Y-55586237D01*
X2865873Y-55743280D01*
X3127026Y-55851453D01*
X3404265Y-55906600D01*
X3686935Y-55906600D01*
X3964174Y-55851453D01*
X4225327Y-55743280D01*
X4460359Y-55586237D01*
X4660237Y-55386359D01*
X4817280Y-55151327D01*
X4925453Y-54890174D01*
X4980600Y-54612935D01*
X4980600Y-54330265D01*
X4925453Y-54053026D01*
X4817280Y-53791873D01*
X4660237Y-53556841D01*
X4460359Y-53356963D01*
X4227841Y-53201600D01*
X4460359Y-53046237D01*
X4660237Y-52846359D01*
X4817280Y-52611327D01*
X4925453Y-52350174D01*
X4980600Y-52072935D01*
X4980600Y-51790265D01*
X4925453Y-51513026D01*
X4817280Y-51251873D01*
X4660237Y-51016841D01*
X4570057Y-50926661D01*
X6889800Y-50926661D01*
X6889800Y-51130539D01*
X6929574Y-51330498D01*
X7007595Y-51518856D01*
X7120863Y-51688374D01*
X7265026Y-51832537D01*
X7434544Y-51945805D01*
X7622902Y-52023826D01*
X7822861Y-52063600D01*
X8026739Y-52063600D01*
X8226698Y-52023826D01*
X8415056Y-51945805D01*
X8584574Y-51832537D01*
X8728737Y-51688374D01*
X8842005Y-51518856D01*
X8920026Y-51330498D01*
X8959800Y-51130539D01*
X8959800Y-50926661D01*
X8920026Y-50726702D01*
X8842005Y-50538344D01*
X8728737Y-50368826D01*
X8584574Y-50224663D01*
X8415056Y-50111395D01*
X8226698Y-50033374D01*
X8026739Y-49993600D01*
X7822861Y-49993600D01*
X7622902Y-50033374D01*
X7434544Y-50111395D01*
X7265026Y-50224663D01*
X7120863Y-50368826D01*
X7007595Y-50538344D01*
X6929574Y-50726702D01*
X6889800Y-50926661D01*
X4570057Y-50926661D01*
X4460359Y-50816963D01*
X4227841Y-50661600D01*
X4460359Y-50506237D01*
X4660237Y-50306359D01*
X4817280Y-50071327D01*
X4925453Y-49810174D01*
X4980600Y-49532935D01*
X4980600Y-49453461D01*
X11133000Y-49453461D01*
X11133000Y-49657339D01*
X11172774Y-49857298D01*
X11250795Y-50045656D01*
X11364063Y-50215174D01*
X11508226Y-50359337D01*
X11677744Y-50472605D01*
X11866102Y-50550626D01*
X12066061Y-50590400D01*
X12269939Y-50590400D01*
X12469898Y-50550626D01*
X12658256Y-50472605D01*
X12827774Y-50359337D01*
X12971937Y-50215174D01*
X13085205Y-50045656D01*
X13163226Y-49857298D01*
X13203000Y-49657339D01*
X13203000Y-49453461D01*
X13163226Y-49253502D01*
X13085205Y-49065144D01*
X12971937Y-48895626D01*
X12827774Y-48751463D01*
X12658256Y-48638195D01*
X12469898Y-48560174D01*
X12269939Y-48520400D01*
X12066061Y-48520400D01*
X11866102Y-48560174D01*
X11677744Y-48638195D01*
X11508226Y-48751463D01*
X11364063Y-48895626D01*
X11250795Y-49065144D01*
X11172774Y-49253502D01*
X11133000Y-49453461D01*
X4980600Y-49453461D01*
X4980600Y-49250265D01*
X4925453Y-48973026D01*
X4817280Y-48711873D01*
X4660237Y-48476841D01*
X4460359Y-48276963D01*
X4227841Y-48121600D01*
X4460359Y-47966237D01*
X4660237Y-47766359D01*
X4817280Y-47531327D01*
X4925453Y-47270174D01*
X4980600Y-46992935D01*
X4980600Y-46710265D01*
X4925453Y-46433026D01*
X4817280Y-46171873D01*
X4660237Y-45936841D01*
X4460359Y-45736963D01*
X4227841Y-45581600D01*
X4439370Y-45440261D01*
X4984800Y-45440261D01*
X4984800Y-45644139D01*
X5024574Y-45844098D01*
X5102595Y-46032456D01*
X5215863Y-46201974D01*
X5360026Y-46346137D01*
X5529544Y-46459405D01*
X5717902Y-46537426D01*
X5917861Y-46577200D01*
X6121739Y-46577200D01*
X6321698Y-46537426D01*
X6510056Y-46459405D01*
X6679574Y-46346137D01*
X6823737Y-46201974D01*
X6937005Y-46032456D01*
X7015026Y-45844098D01*
X7054800Y-45644139D01*
X7054800Y-45440261D01*
X7015026Y-45240302D01*
X6937005Y-45051944D01*
X6823737Y-44882426D01*
X6721172Y-44779861D01*
X10928400Y-44779861D01*
X10928400Y-44983739D01*
X10968174Y-45183698D01*
X11046195Y-45372056D01*
X11159463Y-45541574D01*
X11303626Y-45685737D01*
X11473144Y-45799005D01*
X11661502Y-45877026D01*
X11861461Y-45916800D01*
X12065339Y-45916800D01*
X12265298Y-45877026D01*
X12453656Y-45799005D01*
X12623174Y-45685737D01*
X12767337Y-45541574D01*
X12880605Y-45372056D01*
X12958626Y-45183698D01*
X12998400Y-44983739D01*
X12998400Y-44779861D01*
X12958626Y-44579902D01*
X12880605Y-44391544D01*
X12868523Y-44373461D01*
X14165390Y-44373461D01*
X14165390Y-44577339D01*
X14205164Y-44777298D01*
X14283185Y-44965656D01*
X14396453Y-45135174D01*
X14540616Y-45279337D01*
X14710134Y-45392605D01*
X14898492Y-45470626D01*
X15098451Y-45510400D01*
X15302329Y-45510400D01*
X15502288Y-45470626D01*
X15690646Y-45392605D01*
X15860164Y-45279337D01*
X16004327Y-45135174D01*
X16117595Y-44965656D01*
X16195616Y-44777298D01*
X16235390Y-44577339D01*
X16235390Y-44373461D01*
X16195616Y-44173502D01*
X16117595Y-43985144D01*
X16004327Y-43815626D01*
X15860164Y-43671463D01*
X15690646Y-43558195D01*
X15502288Y-43480174D01*
X15302329Y-43440400D01*
X15098451Y-43440400D01*
X14898492Y-43480174D01*
X14710134Y-43558195D01*
X14540616Y-43671463D01*
X14396453Y-43815626D01*
X14283185Y-43985144D01*
X14205164Y-44173502D01*
X14165390Y-44373461D01*
X12868523Y-44373461D01*
X12767337Y-44222026D01*
X12623174Y-44077863D01*
X12453656Y-43964595D01*
X12265298Y-43886574D01*
X12065339Y-43846800D01*
X11861461Y-43846800D01*
X11661502Y-43886574D01*
X11473144Y-43964595D01*
X11303626Y-44077863D01*
X11159463Y-44222026D01*
X11046195Y-44391544D01*
X10968174Y-44579902D01*
X10928400Y-44779861D01*
X6721172Y-44779861D01*
X6679574Y-44738263D01*
X6510056Y-44624995D01*
X6321698Y-44546974D01*
X6121739Y-44507200D01*
X5917861Y-44507200D01*
X5717902Y-44546974D01*
X5529544Y-44624995D01*
X5360026Y-44738263D01*
X5215863Y-44882426D01*
X5102595Y-45051944D01*
X5024574Y-45240302D01*
X4984800Y-45440261D01*
X4439370Y-45440261D01*
X4460359Y-45426237D01*
X4660237Y-45226359D01*
X4817280Y-44991327D01*
X4925453Y-44730174D01*
X4980600Y-44452935D01*
X4980600Y-44170265D01*
X4925453Y-43893026D01*
X4817280Y-43631873D01*
X4660237Y-43396841D01*
X4460359Y-43196963D01*
X4227841Y-43041600D01*
X4460359Y-42886237D01*
X4660237Y-42686359D01*
X4817280Y-42451327D01*
X4925453Y-42190174D01*
X4980600Y-41912935D01*
X4980600Y-41630265D01*
X4925453Y-41353026D01*
X4817280Y-41091873D01*
X4660237Y-40856841D01*
X4544657Y-40741261D01*
X13581200Y-40741261D01*
X13581200Y-40945139D01*
X13620974Y-41145098D01*
X13698995Y-41333456D01*
X13812263Y-41502974D01*
X13956426Y-41647137D01*
X14125944Y-41760405D01*
X14314302Y-41838426D01*
X14514261Y-41878200D01*
X14718139Y-41878200D01*
X14918098Y-41838426D01*
X15106456Y-41760405D01*
X15275974Y-41647137D01*
X15420137Y-41502974D01*
X15533405Y-41333456D01*
X15611426Y-41145098D01*
X15651200Y-40945139D01*
X15651200Y-40741261D01*
X15611426Y-40541302D01*
X15533405Y-40352944D01*
X15420137Y-40183426D01*
X15275974Y-40039263D01*
X15106456Y-39925995D01*
X14918098Y-39847974D01*
X14718139Y-39808200D01*
X14514261Y-39808200D01*
X14314302Y-39847974D01*
X14125944Y-39925995D01*
X13956426Y-40039263D01*
X13812263Y-40183426D01*
X13698995Y-40352944D01*
X13620974Y-40541302D01*
X13581200Y-40741261D01*
X4544657Y-40741261D01*
X4460359Y-40656963D01*
X4227841Y-40501600D01*
X4460359Y-40346237D01*
X4660237Y-40146359D01*
X4817280Y-39911327D01*
X4925453Y-39650174D01*
X4980600Y-39372935D01*
X4980600Y-39090265D01*
X4925453Y-38813026D01*
X4817280Y-38551873D01*
X4660237Y-38316841D01*
X4460359Y-38116963D01*
X4227841Y-37961600D01*
X4460359Y-37806237D01*
X4660237Y-37606359D01*
X4817280Y-37371327D01*
X4925453Y-37110174D01*
X4980600Y-36832935D01*
X4980600Y-36550265D01*
X4925453Y-36273026D01*
X4817280Y-36011873D01*
X4660237Y-35776841D01*
X4460359Y-35576963D01*
X4227841Y-35421600D01*
X4460359Y-35266237D01*
X4660237Y-35066359D01*
X4817280Y-34831327D01*
X4925453Y-34570174D01*
X4980600Y-34292935D01*
X4980600Y-34010265D01*
X4925453Y-33733026D01*
X4817280Y-33471873D01*
X4660237Y-33236841D01*
X4460359Y-33036963D01*
X4227841Y-32881600D01*
X4460359Y-32726237D01*
X4660237Y-32526359D01*
X4771888Y-32359261D01*
X7042200Y-32359261D01*
X7042200Y-32563139D01*
X7081974Y-32763098D01*
X7159995Y-32951456D01*
X7273263Y-33120974D01*
X7417426Y-33265137D01*
X7586944Y-33378405D01*
X7775302Y-33456426D01*
X7975261Y-33496200D01*
X8179139Y-33496200D01*
X8379098Y-33456426D01*
X8567456Y-33378405D01*
X8736974Y-33265137D01*
X8881137Y-33120974D01*
X8994405Y-32951456D01*
X9072426Y-32763098D01*
X9112200Y-32563139D01*
X9112200Y-32359261D01*
X9072426Y-32159302D01*
X8994405Y-31970944D01*
X8881137Y-31801426D01*
X8736974Y-31657263D01*
X8567456Y-31543995D01*
X8379098Y-31465974D01*
X8179139Y-31426200D01*
X7975261Y-31426200D01*
X7775302Y-31465974D01*
X7586944Y-31543995D01*
X7417426Y-31657263D01*
X7273263Y-31801426D01*
X7159995Y-31970944D01*
X7081974Y-32159302D01*
X7042200Y-32359261D01*
X4771888Y-32359261D01*
X4817280Y-32291327D01*
X4925453Y-32030174D01*
X4980600Y-31752935D01*
X4980600Y-31470265D01*
X4925453Y-31193026D01*
X4817280Y-30931873D01*
X4660237Y-30696841D01*
X4460359Y-30496963D01*
X4227841Y-30341600D01*
X4460359Y-30186237D01*
X4660237Y-29986359D01*
X4817280Y-29751327D01*
X4925453Y-29490174D01*
X4980600Y-29212935D01*
X4980600Y-28930265D01*
X4925453Y-28653026D01*
X4817280Y-28391873D01*
X4660237Y-28156841D01*
X4460359Y-27956963D01*
X4227841Y-27801600D01*
X4460359Y-27646237D01*
X4660237Y-27446359D01*
X4704001Y-27380861D01*
X10115600Y-27380861D01*
X10115600Y-27584739D01*
X10155374Y-27784698D01*
X10233395Y-27973056D01*
X10346663Y-28142574D01*
X10490826Y-28286737D01*
X10660344Y-28400005D01*
X10848702Y-28478026D01*
X11048661Y-28517800D01*
X11252539Y-28517800D01*
X11452498Y-28478026D01*
X11640856Y-28400005D01*
X11810374Y-28286737D01*
X11954537Y-28142574D01*
X12067805Y-27973056D01*
X12145826Y-27784698D01*
X12185600Y-27584739D01*
X12185600Y-27380861D01*
X12145826Y-27180902D01*
X12067805Y-26992544D01*
X11954537Y-26823026D01*
X11810374Y-26678863D01*
X11640856Y-26565595D01*
X11452498Y-26487574D01*
X11252539Y-26447800D01*
X11048661Y-26447800D01*
X10848702Y-26487574D01*
X10660344Y-26565595D01*
X10490826Y-26678863D01*
X10346663Y-26823026D01*
X10233395Y-26992544D01*
X10155374Y-27180902D01*
X10115600Y-27380861D01*
X4704001Y-27380861D01*
X4817280Y-27211327D01*
X4925453Y-26950174D01*
X4980600Y-26672935D01*
X4980600Y-26390265D01*
X4925453Y-26113026D01*
X4817280Y-25851873D01*
X4660237Y-25616841D01*
X4460359Y-25416963D01*
X4227841Y-25261600D01*
X4460359Y-25106237D01*
X4660237Y-24906359D01*
X4817280Y-24671327D01*
X4925453Y-24410174D01*
X4980600Y-24132935D01*
X4980600Y-23850265D01*
X4925453Y-23573026D01*
X4817280Y-23311873D01*
X4660237Y-23076841D01*
X4460359Y-22876963D01*
X4227841Y-22721600D01*
X4460359Y-22566237D01*
X4660237Y-22366359D01*
X4817280Y-22131327D01*
X4925453Y-21870174D01*
X4980600Y-21592935D01*
X4980600Y-21310265D01*
X4925453Y-21033026D01*
X4817280Y-20771873D01*
X4660237Y-20536841D01*
X4460359Y-20336963D01*
X4227841Y-20181600D01*
X4460359Y-20026237D01*
X4660237Y-19826359D01*
X4817280Y-19591327D01*
X4925453Y-19330174D01*
X4980600Y-19052935D01*
X4980600Y-18770265D01*
X4925453Y-18493026D01*
X4817280Y-18231873D01*
X4660237Y-17996841D01*
X4460359Y-17796963D01*
X4227841Y-17641600D01*
X4460359Y-17486237D01*
X4660237Y-17286359D01*
X4817280Y-17051327D01*
X4925453Y-16790174D01*
X4980600Y-16512935D01*
X4980600Y-16230265D01*
X4925453Y-15953026D01*
X4817280Y-15691873D01*
X4660237Y-15456841D01*
X4460359Y-15256963D01*
X4227841Y-15101600D01*
X4460359Y-14946237D01*
X4660237Y-14746359D01*
X4817280Y-14511327D01*
X4925453Y-14250174D01*
X4980600Y-13972935D01*
X4980600Y-13690265D01*
X4925453Y-13413026D01*
X4817280Y-13151873D01*
X4660237Y-12916841D01*
X4460359Y-12716963D01*
X4227841Y-12561600D01*
X4460359Y-12406237D01*
X4660237Y-12206359D01*
X4817280Y-11971327D01*
X4925453Y-11710174D01*
X4980600Y-11432935D01*
X4980600Y-11150265D01*
X4925453Y-10873026D01*
X4817280Y-10611873D01*
X4660237Y-10376841D01*
X4460359Y-10176963D01*
X4227841Y-10021600D01*
X4460359Y-9866237D01*
X4660237Y-9666359D01*
X4817280Y-9431327D01*
X4925453Y-9170174D01*
X4980600Y-8892935D01*
X4980600Y-8610265D01*
X4967857Y-8546200D01*
X9713328Y-8546200D01*
X9725588Y-8670682D01*
X9761898Y-8790380D01*
X9820863Y-8900694D01*
X9900215Y-8997385D01*
X9996906Y-9076737D01*
X10107220Y-9135702D01*
X10179780Y-9157713D01*
X10047925Y-9289568D01*
X9885410Y-9532789D01*
X9773468Y-9803042D01*
X9716400Y-10089940D01*
X9716400Y-10382460D01*
X9773468Y-10669358D01*
X9885410Y-10939611D01*
X10047925Y-11182832D01*
X10254768Y-11389675D01*
X10429160Y-11506200D01*
X10254768Y-11622725D01*
X10047925Y-11829568D01*
X9885410Y-12072789D01*
X9773468Y-12343042D01*
X9716400Y-12629940D01*
X9716400Y-12922460D01*
X9773468Y-13209358D01*
X9885410Y-13479611D01*
X10047925Y-13722832D01*
X10254768Y-13929675D01*
X10429160Y-14046200D01*
X10254768Y-14162725D01*
X10047925Y-14369568D01*
X9885410Y-14612789D01*
X9773468Y-14883042D01*
X9716400Y-15169940D01*
X9716400Y-15462460D01*
X9773468Y-15749358D01*
X9885410Y-16019611D01*
X10047925Y-16262832D01*
X10254768Y-16469675D01*
X10429160Y-16586200D01*
X10254768Y-16702725D01*
X10047925Y-16909568D01*
X9885410Y-17152789D01*
X9773468Y-17423042D01*
X9716400Y-17709940D01*
X9716400Y-18002460D01*
X9773468Y-18289358D01*
X9885410Y-18559611D01*
X10047925Y-18802832D01*
X10254768Y-19009675D01*
X10429160Y-19126200D01*
X10254768Y-19242725D01*
X10047925Y-19449568D01*
X9885410Y-19692789D01*
X9773468Y-19963042D01*
X9716400Y-20249940D01*
X9716400Y-20542460D01*
X9773468Y-20829358D01*
X9885410Y-21099611D01*
X10047925Y-21342832D01*
X10254768Y-21549675D01*
X10497989Y-21712190D01*
X10768242Y-21824132D01*
X11055140Y-21881200D01*
X11347660Y-21881200D01*
X11634558Y-21824132D01*
X11904811Y-21712190D01*
X12148032Y-21549675D01*
X12354875Y-21342832D01*
X12517390Y-21099611D01*
X12629332Y-20829358D01*
X12686400Y-20542460D01*
X12686400Y-20249940D01*
X12629332Y-19963042D01*
X12517390Y-19692789D01*
X12354875Y-19449568D01*
X12148032Y-19242725D01*
X11973640Y-19126200D01*
X12148032Y-19009675D01*
X12354875Y-18802832D01*
X12517390Y-18559611D01*
X12629332Y-18289358D01*
X12686400Y-18002460D01*
X12686400Y-17709940D01*
X12629332Y-17423042D01*
X12517390Y-17152789D01*
X12354875Y-16909568D01*
X12148032Y-16702725D01*
X11973640Y-16586200D01*
X12148032Y-16469675D01*
X12354875Y-16262832D01*
X12517390Y-16019611D01*
X12629332Y-15749358D01*
X12686400Y-15462460D01*
X12686400Y-15169940D01*
X12629332Y-14883042D01*
X12517390Y-14612789D01*
X12354875Y-14369568D01*
X12148032Y-14162725D01*
X11973640Y-14046200D01*
X12148032Y-13929675D01*
X12354875Y-13722832D01*
X12517390Y-13479611D01*
X12629332Y-13209358D01*
X12686400Y-12922460D01*
X12686400Y-12629940D01*
X12629332Y-12343042D01*
X12517390Y-12072789D01*
X12354875Y-11829568D01*
X12148032Y-11622725D01*
X11973640Y-11506200D01*
X12148032Y-11389675D01*
X12354875Y-11182832D01*
X12517390Y-10939611D01*
X12629332Y-10669358D01*
X12686400Y-10382460D01*
X12686400Y-10089940D01*
X12629332Y-9803042D01*
X12517390Y-9532789D01*
X12354875Y-9289568D01*
X12223020Y-9157713D01*
X12295580Y-9135702D01*
X12405894Y-9076737D01*
X12502585Y-8997385D01*
X12581937Y-8900694D01*
X12640902Y-8790380D01*
X12677212Y-8670682D01*
X12689472Y-8546200D01*
X12686400Y-7981950D01*
X12527650Y-7823200D01*
X11328400Y-7823200D01*
X11328400Y-7843200D01*
X11074400Y-7843200D01*
X11074400Y-7823200D01*
X9875150Y-7823200D01*
X9716400Y-7981950D01*
X9713328Y-8546200D01*
X4967857Y-8546200D01*
X4925453Y-8333026D01*
X4817280Y-8071873D01*
X4660237Y-7836841D01*
X4461639Y-7638243D01*
X4470082Y-7637412D01*
X4589780Y-7601102D01*
X4700094Y-7542137D01*
X4796785Y-7462785D01*
X4876137Y-7366094D01*
X4935102Y-7255780D01*
X4971412Y-7136082D01*
X4983672Y-7011600D01*
X4983672Y-6846200D01*
X9713328Y-6846200D01*
X9716400Y-7410450D01*
X9875150Y-7569200D01*
X11074400Y-7569200D01*
X11074400Y-6369950D01*
X11328400Y-6369950D01*
X11328400Y-7569200D01*
X12527650Y-7569200D01*
X12686400Y-7410450D01*
X12689472Y-6846200D01*
X12677212Y-6721718D01*
X12640902Y-6602020D01*
X12581937Y-6491706D01*
X12502585Y-6395015D01*
X12405894Y-6315663D01*
X12295580Y-6256698D01*
X12175882Y-6220388D01*
X12051400Y-6208128D01*
X11487150Y-6211200D01*
X11328400Y-6369950D01*
X11074400Y-6369950D01*
X10915650Y-6211200D01*
X10351400Y-6208128D01*
X10226918Y-6220388D01*
X10107220Y-6256698D01*
X9996906Y-6315663D01*
X9900215Y-6395015D01*
X9820863Y-6491706D01*
X9761898Y-6602020D01*
X9725588Y-6721718D01*
X9713328Y-6846200D01*
X4983672Y-6846200D01*
X4983672Y-6070265D01*
X17350600Y-6070265D01*
X17350600Y-6352935D01*
X17405747Y-6630174D01*
X17513920Y-6891327D01*
X17670963Y-7126359D01*
X17870841Y-7326237D01*
X18103359Y-7481600D01*
X17870841Y-7636963D01*
X17670963Y-7836841D01*
X17513920Y-8071873D01*
X17405747Y-8333026D01*
X17350600Y-8610265D01*
X17350600Y-8892935D01*
X17405747Y-9170174D01*
X17513920Y-9431327D01*
X17670963Y-9666359D01*
X17870841Y-9866237D01*
X18103359Y-10021600D01*
X17870841Y-10176963D01*
X17670963Y-10376841D01*
X17513920Y-10611873D01*
X17405747Y-10873026D01*
X17350600Y-11150265D01*
X17350600Y-11432935D01*
X17405747Y-11710174D01*
X17513920Y-11971327D01*
X17670963Y-12206359D01*
X17870841Y-12406237D01*
X18103359Y-12561600D01*
X17870841Y-12716963D01*
X17670963Y-12916841D01*
X17513920Y-13151873D01*
X17405747Y-13413026D01*
X17350600Y-13690265D01*
X17350600Y-13972935D01*
X17405747Y-14250174D01*
X17513920Y-14511327D01*
X17670963Y-14746359D01*
X17870841Y-14946237D01*
X18103359Y-15101600D01*
X17870841Y-15256963D01*
X17670963Y-15456841D01*
X17513920Y-15691873D01*
X17405747Y-15953026D01*
X17350600Y-16230265D01*
X17350600Y-16512935D01*
X17405747Y-16790174D01*
X17513920Y-17051327D01*
X17670963Y-17286359D01*
X17870841Y-17486237D01*
X18103359Y-17641600D01*
X17870841Y-17796963D01*
X17670963Y-17996841D01*
X17513920Y-18231873D01*
X17405747Y-18493026D01*
X17350600Y-18770265D01*
X17350600Y-19052935D01*
X17405747Y-19330174D01*
X17513920Y-19591327D01*
X17670963Y-19826359D01*
X17870841Y-20026237D01*
X18103359Y-20181600D01*
X17870841Y-20336963D01*
X17670963Y-20536841D01*
X17513920Y-20771873D01*
X17405747Y-21033026D01*
X17350600Y-21310265D01*
X17350600Y-21592935D01*
X17405747Y-21870174D01*
X17513920Y-22131327D01*
X17670963Y-22366359D01*
X17870841Y-22566237D01*
X18103359Y-22721600D01*
X17870841Y-22876963D01*
X17670963Y-23076841D01*
X17513920Y-23311873D01*
X17405747Y-23573026D01*
X17350600Y-23850265D01*
X17350600Y-24132935D01*
X17405747Y-24410174D01*
X17513920Y-24671327D01*
X17670963Y-24906359D01*
X17870841Y-25106237D01*
X18103359Y-25261600D01*
X17870841Y-25416963D01*
X17670963Y-25616841D01*
X17513920Y-25851873D01*
X17405747Y-26113026D01*
X17350600Y-26390265D01*
X17350600Y-26672935D01*
X17405747Y-26950174D01*
X17513920Y-27211327D01*
X17670963Y-27446359D01*
X17870841Y-27646237D01*
X18103359Y-27801600D01*
X17870841Y-27956963D01*
X17670963Y-28156841D01*
X17513920Y-28391873D01*
X17405747Y-28653026D01*
X17350600Y-28930265D01*
X17350600Y-29212935D01*
X17405747Y-29490174D01*
X17513920Y-29751327D01*
X17670963Y-29986359D01*
X17870841Y-30186237D01*
X18103359Y-30341600D01*
X17870841Y-30496963D01*
X17670963Y-30696841D01*
X17513920Y-30931873D01*
X17405747Y-31193026D01*
X17350600Y-31470265D01*
X17350600Y-31752935D01*
X17405747Y-32030174D01*
X17513920Y-32291327D01*
X17670963Y-32526359D01*
X17870841Y-32726237D01*
X18103359Y-32881600D01*
X17870841Y-33036963D01*
X17670963Y-33236841D01*
X17513920Y-33471873D01*
X17405747Y-33733026D01*
X17350600Y-34010265D01*
X17350600Y-34292935D01*
X17405747Y-34570174D01*
X17513920Y-34831327D01*
X17670963Y-35066359D01*
X17870841Y-35266237D01*
X18103359Y-35421600D01*
X17870841Y-35576963D01*
X17670963Y-35776841D01*
X17513920Y-36011873D01*
X17405747Y-36273026D01*
X17350600Y-36550265D01*
X17350600Y-36832935D01*
X17405747Y-37110174D01*
X17513920Y-37371327D01*
X17670963Y-37606359D01*
X17870841Y-37806237D01*
X18103359Y-37961600D01*
X17870841Y-38116963D01*
X17670963Y-38316841D01*
X17513920Y-38551873D01*
X17405747Y-38813026D01*
X17350600Y-39090265D01*
X17350600Y-39372935D01*
X17405747Y-39650174D01*
X17513920Y-39911327D01*
X17670963Y-40146359D01*
X17870841Y-40346237D01*
X18103359Y-40501600D01*
X17870841Y-40656963D01*
X17670963Y-40856841D01*
X17513920Y-41091873D01*
X17405747Y-41353026D01*
X17350600Y-41630265D01*
X17350600Y-41912935D01*
X17405747Y-42190174D01*
X17513920Y-42451327D01*
X17670963Y-42686359D01*
X17870841Y-42886237D01*
X18103359Y-43041600D01*
X17870841Y-43196963D01*
X17670963Y-43396841D01*
X17513920Y-43631873D01*
X17405747Y-43893026D01*
X17350600Y-44170265D01*
X17350600Y-44452935D01*
X17405747Y-44730174D01*
X17513920Y-44991327D01*
X17670963Y-45226359D01*
X17870841Y-45426237D01*
X18103359Y-45581600D01*
X17870841Y-45736963D01*
X17670963Y-45936841D01*
X17513920Y-46171873D01*
X17405747Y-46433026D01*
X17350600Y-46710265D01*
X17350600Y-46992935D01*
X17405747Y-47270174D01*
X17513920Y-47531327D01*
X17670963Y-47766359D01*
X17870841Y-47966237D01*
X18103359Y-48121600D01*
X17870841Y-48276963D01*
X17670963Y-48476841D01*
X17513920Y-48711873D01*
X17405747Y-48973026D01*
X17350600Y-49250265D01*
X17350600Y-49532935D01*
X17405747Y-49810174D01*
X17513920Y-50071327D01*
X17670963Y-50306359D01*
X17870841Y-50506237D01*
X18103359Y-50661600D01*
X17870841Y-50816963D01*
X17670963Y-51016841D01*
X17513920Y-51251873D01*
X17405747Y-51513026D01*
X17350600Y-51790265D01*
X17350600Y-52072935D01*
X17405747Y-52350174D01*
X17513920Y-52611327D01*
X17670963Y-52846359D01*
X17870841Y-53046237D01*
X18103359Y-53201600D01*
X17870841Y-53356963D01*
X17670963Y-53556841D01*
X17513920Y-53791873D01*
X17405747Y-54053026D01*
X17350600Y-54330265D01*
X17350600Y-54612935D01*
X17405747Y-54890174D01*
X17513920Y-55151327D01*
X17670963Y-55386359D01*
X17870841Y-55586237D01*
X18105873Y-55743280D01*
X18367026Y-55851453D01*
X18644265Y-55906600D01*
X18926935Y-55906600D01*
X19204174Y-55851453D01*
X19465327Y-55743280D01*
X19700359Y-55586237D01*
X19900237Y-55386359D01*
X20057280Y-55151327D01*
X20165453Y-54890174D01*
X20220600Y-54612935D01*
X20220600Y-54330265D01*
X20165453Y-54053026D01*
X20057280Y-53791873D01*
X19900237Y-53556841D01*
X19700359Y-53356963D01*
X19467841Y-53201600D01*
X19700359Y-53046237D01*
X19900237Y-52846359D01*
X20057280Y-52611327D01*
X20165453Y-52350174D01*
X20220600Y-52072935D01*
X20220600Y-51790265D01*
X20165453Y-51513026D01*
X20057280Y-51251873D01*
X19900237Y-51016841D01*
X19700359Y-50816963D01*
X19467841Y-50661600D01*
X19700359Y-50506237D01*
X19900237Y-50306359D01*
X20057280Y-50071327D01*
X20165453Y-49810174D01*
X20220600Y-49532935D01*
X20220600Y-49250265D01*
X20210495Y-49199461D01*
X37623800Y-49199461D01*
X37623800Y-49403339D01*
X37663574Y-49603298D01*
X37741595Y-49791656D01*
X37854863Y-49961174D01*
X37999026Y-50105337D01*
X38168544Y-50218605D01*
X38356902Y-50296626D01*
X38556861Y-50336400D01*
X38760739Y-50336400D01*
X38960698Y-50296626D01*
X39149056Y-50218605D01*
X39217600Y-50172805D01*
X39286144Y-50218605D01*
X39474502Y-50296626D01*
X39674461Y-50336400D01*
X39878339Y-50336400D01*
X40078298Y-50296626D01*
X40266656Y-50218605D01*
X40297186Y-50198205D01*
X40403744Y-50269405D01*
X40592102Y-50347426D01*
X40792061Y-50387200D01*
X40995939Y-50387200D01*
X41195898Y-50347426D01*
X41384256Y-50269405D01*
X41509993Y-50185390D01*
X41673744Y-50294805D01*
X41862102Y-50372826D01*
X42062061Y-50412600D01*
X42265939Y-50412600D01*
X42465898Y-50372826D01*
X42654256Y-50294805D01*
X42823774Y-50181537D01*
X42834380Y-50170931D01*
X42943744Y-50244005D01*
X43132102Y-50322026D01*
X43332061Y-50361800D01*
X43535939Y-50361800D01*
X43735898Y-50322026D01*
X43924256Y-50244005D01*
X44093774Y-50130737D01*
X44237937Y-49986574D01*
X44351205Y-49817056D01*
X44429226Y-49628698D01*
X44469000Y-49428739D01*
X44469000Y-49224861D01*
X44458896Y-49174061D01*
X48063200Y-49174061D01*
X48063200Y-49377939D01*
X48102974Y-49577898D01*
X48180995Y-49766256D01*
X48294263Y-49935774D01*
X48438426Y-50079937D01*
X48607944Y-50193205D01*
X48796302Y-50271226D01*
X48996261Y-50311000D01*
X49200139Y-50311000D01*
X49400098Y-50271226D01*
X49588456Y-50193205D01*
X49757974Y-50079937D01*
X49902137Y-49935774D01*
X50015405Y-49766256D01*
X50093426Y-49577898D01*
X50133200Y-49377939D01*
X50133200Y-49174061D01*
X50093426Y-48974102D01*
X50015405Y-48785744D01*
X49902137Y-48616226D01*
X49757974Y-48472063D01*
X49588456Y-48358795D01*
X49400098Y-48280774D01*
X49200139Y-48241000D01*
X48996261Y-48241000D01*
X48796302Y-48280774D01*
X48607944Y-48358795D01*
X48438426Y-48472063D01*
X48294263Y-48616226D01*
X48180995Y-48785744D01*
X48102974Y-48974102D01*
X48063200Y-49174061D01*
X44458896Y-49174061D01*
X44429226Y-49024902D01*
X44351205Y-48836544D01*
X44237937Y-48667026D01*
X44093774Y-48522863D01*
X43924256Y-48409595D01*
X43735898Y-48331574D01*
X43535939Y-48291800D01*
X43332061Y-48291800D01*
X43132102Y-48331574D01*
X42943744Y-48409595D01*
X42774226Y-48522863D01*
X42763620Y-48533469D01*
X42654256Y-48460395D01*
X42465898Y-48382374D01*
X42265939Y-48342600D01*
X42062061Y-48342600D01*
X41862102Y-48382374D01*
X41673744Y-48460395D01*
X41548007Y-48544410D01*
X41384256Y-48434995D01*
X41195898Y-48356974D01*
X40995939Y-48317200D01*
X40792061Y-48317200D01*
X40592102Y-48356974D01*
X40403744Y-48434995D01*
X40373214Y-48455395D01*
X40266656Y-48384195D01*
X40078298Y-48306174D01*
X39878339Y-48266400D01*
X39674461Y-48266400D01*
X39474502Y-48306174D01*
X39286144Y-48384195D01*
X39217600Y-48429995D01*
X39149056Y-48384195D01*
X38960698Y-48306174D01*
X38760739Y-48266400D01*
X38556861Y-48266400D01*
X38356902Y-48306174D01*
X38168544Y-48384195D01*
X37999026Y-48497463D01*
X37854863Y-48641626D01*
X37741595Y-48811144D01*
X37663574Y-48999502D01*
X37623800Y-49199461D01*
X20210495Y-49199461D01*
X20165453Y-48973026D01*
X20057280Y-48711873D01*
X19900237Y-48476841D01*
X19700359Y-48276963D01*
X19467841Y-48121600D01*
X19700359Y-47966237D01*
X19900237Y-47766359D01*
X20057280Y-47531327D01*
X20165453Y-47270174D01*
X20220600Y-46992935D01*
X20220600Y-46710265D01*
X20165453Y-46433026D01*
X20057280Y-46171873D01*
X19900237Y-45936841D01*
X19700359Y-45736963D01*
X19467841Y-45581600D01*
X19700359Y-45426237D01*
X19900237Y-45226359D01*
X19977944Y-45110061D01*
X31019800Y-45110061D01*
X31019800Y-45313939D01*
X31059574Y-45513898D01*
X31137595Y-45702256D01*
X31250863Y-45871774D01*
X31395026Y-46015937D01*
X31564544Y-46129205D01*
X31752902Y-46207226D01*
X31952861Y-46247000D01*
X32156739Y-46247000D01*
X32356698Y-46207226D01*
X32545056Y-46129205D01*
X32714574Y-46015937D01*
X32858737Y-45871774D01*
X32972005Y-45702256D01*
X33050026Y-45513898D01*
X33079530Y-45365570D01*
X42625992Y-45365570D01*
X42625992Y-45569448D01*
X42665766Y-45769407D01*
X42743787Y-45957765D01*
X42857055Y-46127283D01*
X43001218Y-46271446D01*
X43170736Y-46384714D01*
X43359094Y-46462735D01*
X43559053Y-46502509D01*
X43762931Y-46502509D01*
X43962890Y-46462735D01*
X44151248Y-46384714D01*
X44320766Y-46271446D01*
X44464929Y-46127283D01*
X44578197Y-45957765D01*
X44656218Y-45769407D01*
X44695992Y-45569448D01*
X44695992Y-45365570D01*
X44656218Y-45165611D01*
X44578197Y-44977253D01*
X44464929Y-44807735D01*
X44320766Y-44663572D01*
X44151248Y-44550304D01*
X43962890Y-44472283D01*
X43762931Y-44432509D01*
X43559053Y-44432509D01*
X43359094Y-44472283D01*
X43170736Y-44550304D01*
X43001218Y-44663572D01*
X42857055Y-44807735D01*
X42743787Y-44977253D01*
X42665766Y-45165611D01*
X42625992Y-45365570D01*
X33079530Y-45365570D01*
X33089800Y-45313939D01*
X33089800Y-45110061D01*
X33050026Y-44910102D01*
X32972005Y-44721744D01*
X32858737Y-44552226D01*
X32714574Y-44408063D01*
X32545056Y-44294795D01*
X32356698Y-44216774D01*
X32156739Y-44177000D01*
X31952861Y-44177000D01*
X31752902Y-44216774D01*
X31564544Y-44294795D01*
X31395026Y-44408063D01*
X31250863Y-44552226D01*
X31137595Y-44721744D01*
X31059574Y-44910102D01*
X31019800Y-45110061D01*
X19977944Y-45110061D01*
X20057280Y-44991327D01*
X20165453Y-44730174D01*
X20220600Y-44452935D01*
X20220600Y-44170265D01*
X20165453Y-43893026D01*
X20057280Y-43631873D01*
X19941811Y-43459061D01*
X25812800Y-43459061D01*
X25812800Y-43662939D01*
X25852574Y-43862898D01*
X25930595Y-44051256D01*
X26043863Y-44220774D01*
X26188026Y-44364937D01*
X26357544Y-44478205D01*
X26545902Y-44556226D01*
X26745861Y-44596000D01*
X26949739Y-44596000D01*
X27149698Y-44556226D01*
X27338056Y-44478205D01*
X27507574Y-44364937D01*
X27651737Y-44220774D01*
X27765005Y-44051256D01*
X27843026Y-43862898D01*
X27882800Y-43662939D01*
X27882800Y-43459061D01*
X27843026Y-43259102D01*
X27765005Y-43070744D01*
X27651737Y-42901226D01*
X27507574Y-42757063D01*
X27338056Y-42643795D01*
X27149698Y-42565774D01*
X26949739Y-42526000D01*
X26745861Y-42526000D01*
X26545902Y-42565774D01*
X26357544Y-42643795D01*
X26188026Y-42757063D01*
X26043863Y-42901226D01*
X25930595Y-43070744D01*
X25852574Y-43259102D01*
X25812800Y-43459061D01*
X19941811Y-43459061D01*
X19900237Y-43396841D01*
X19700359Y-43196963D01*
X19467841Y-43041600D01*
X19700359Y-42886237D01*
X19900237Y-42686359D01*
X20057280Y-42451327D01*
X20165453Y-42190174D01*
X20220600Y-41912935D01*
X20220600Y-41630265D01*
X20175128Y-41401661D01*
X28632200Y-41401661D01*
X28632200Y-41605539D01*
X28671974Y-41805498D01*
X28749995Y-41993856D01*
X28863263Y-42163374D01*
X29007426Y-42307537D01*
X29176944Y-42420805D01*
X29365302Y-42498826D01*
X29565261Y-42538600D01*
X29769139Y-42538600D01*
X29969098Y-42498826D01*
X30157456Y-42420805D01*
X30274623Y-42342517D01*
X30406702Y-42397226D01*
X30606661Y-42437000D01*
X30810539Y-42437000D01*
X31010498Y-42397226D01*
X31198856Y-42319205D01*
X31368374Y-42205937D01*
X31512537Y-42061774D01*
X31527004Y-42040122D01*
X31564544Y-42065205D01*
X31752902Y-42143226D01*
X31952861Y-42183000D01*
X32156739Y-42183000D01*
X32356698Y-42143226D01*
X32545056Y-42065205D01*
X32714574Y-41951937D01*
X32750580Y-41915931D01*
X32859944Y-41989005D01*
X33048302Y-42067026D01*
X33248261Y-42106800D01*
X33452139Y-42106800D01*
X33652098Y-42067026D01*
X33840456Y-41989005D01*
X34009974Y-41875737D01*
X34048700Y-41837011D01*
X34087426Y-41875737D01*
X34256944Y-41989005D01*
X34445302Y-42067026D01*
X34645261Y-42106800D01*
X34849139Y-42106800D01*
X35049098Y-42067026D01*
X35237456Y-41989005D01*
X35406974Y-41875737D01*
X35551137Y-41731574D01*
X35619680Y-41628991D01*
X35663226Y-41672537D01*
X35832744Y-41785805D01*
X36021102Y-41863826D01*
X36221061Y-41903600D01*
X36424939Y-41903600D01*
X36624898Y-41863826D01*
X36813256Y-41785805D01*
X36982774Y-41672537D01*
X37126937Y-41528374D01*
X37240205Y-41358856D01*
X37318226Y-41170498D01*
X37358000Y-40970539D01*
X37358000Y-40766661D01*
X37318226Y-40566702D01*
X37240205Y-40378344D01*
X37126937Y-40208826D01*
X36982774Y-40064663D01*
X36813256Y-39951395D01*
X36624898Y-39873374D01*
X36424939Y-39833600D01*
X36221061Y-39833600D01*
X36021102Y-39873374D01*
X35832744Y-39951395D01*
X35663226Y-40064663D01*
X35519063Y-40208826D01*
X35450520Y-40311409D01*
X35406974Y-40267863D01*
X35237456Y-40154595D01*
X35049098Y-40076574D01*
X34849139Y-40036800D01*
X34645261Y-40036800D01*
X34445302Y-40076574D01*
X34256944Y-40154595D01*
X34087426Y-40267863D01*
X34048700Y-40306589D01*
X34009974Y-40267863D01*
X33840456Y-40154595D01*
X33652098Y-40076574D01*
X33452139Y-40036800D01*
X33248261Y-40036800D01*
X33048302Y-40076574D01*
X32859944Y-40154595D01*
X32690426Y-40267863D01*
X32654420Y-40303869D01*
X32545056Y-40230795D01*
X32356698Y-40152774D01*
X32156739Y-40113000D01*
X31952861Y-40113000D01*
X31752902Y-40152774D01*
X31564544Y-40230795D01*
X31395026Y-40344063D01*
X31250863Y-40488226D01*
X31236396Y-40509878D01*
X31198856Y-40484795D01*
X31010498Y-40406774D01*
X30810539Y-40367000D01*
X30606661Y-40367000D01*
X30406702Y-40406774D01*
X30218344Y-40484795D01*
X30101177Y-40563083D01*
X29969098Y-40508374D01*
X29769139Y-40468600D01*
X29565261Y-40468600D01*
X29365302Y-40508374D01*
X29176944Y-40586395D01*
X29007426Y-40699663D01*
X28863263Y-40843826D01*
X28749995Y-41013344D01*
X28671974Y-41201702D01*
X28632200Y-41401661D01*
X20175128Y-41401661D01*
X20165453Y-41353026D01*
X20057280Y-41091873D01*
X19900237Y-40856841D01*
X19700359Y-40656963D01*
X19467841Y-40501600D01*
X19700359Y-40346237D01*
X19900237Y-40146359D01*
X20057280Y-39911327D01*
X20084456Y-39845716D01*
X23013106Y-39845716D01*
X23013106Y-40049594D01*
X23052880Y-40249553D01*
X23130901Y-40437911D01*
X23244169Y-40607429D01*
X23388332Y-40751592D01*
X23557850Y-40864860D01*
X23746208Y-40942881D01*
X23946167Y-40982655D01*
X24150045Y-40982655D01*
X24350004Y-40942881D01*
X24538362Y-40864860D01*
X24707880Y-40751592D01*
X24852043Y-40607429D01*
X24965311Y-40437911D01*
X25043332Y-40249553D01*
X25083106Y-40049594D01*
X25083106Y-39845716D01*
X25043332Y-39645757D01*
X24965311Y-39457399D01*
X24852043Y-39287881D01*
X24707880Y-39143718D01*
X24538362Y-39030450D01*
X24350004Y-38952429D01*
X24150045Y-38912655D01*
X23946167Y-38912655D01*
X23746208Y-38952429D01*
X23557850Y-39030450D01*
X23388332Y-39143718D01*
X23244169Y-39287881D01*
X23130901Y-39457399D01*
X23052880Y-39645757D01*
X23013106Y-39845716D01*
X20084456Y-39845716D01*
X20165453Y-39650174D01*
X20220600Y-39372935D01*
X20220600Y-39090265D01*
X20165453Y-38813026D01*
X20057280Y-38551873D01*
X19900237Y-38316841D01*
X19700359Y-38116963D01*
X19467841Y-37961600D01*
X19700359Y-37806237D01*
X19845120Y-37661476D01*
X30580829Y-37661476D01*
X30580829Y-37865354D01*
X30620603Y-38065313D01*
X30698624Y-38253671D01*
X30811892Y-38423189D01*
X30956055Y-38567352D01*
X31125573Y-38680620D01*
X31313931Y-38758641D01*
X31513890Y-38798415D01*
X31717768Y-38798415D01*
X31917727Y-38758641D01*
X32106085Y-38680620D01*
X32275603Y-38567352D01*
X32419766Y-38423189D01*
X32533034Y-38253671D01*
X32611055Y-38065313D01*
X32644724Y-37896048D01*
X32697456Y-37874205D01*
X32866974Y-37760937D01*
X33011137Y-37616774D01*
X33124405Y-37447256D01*
X33180322Y-37312261D01*
X36912600Y-37312261D01*
X36912600Y-37516139D01*
X36952374Y-37716098D01*
X37030395Y-37904456D01*
X37143663Y-38073974D01*
X37287826Y-38218137D01*
X37457344Y-38331405D01*
X37645702Y-38409426D01*
X37845661Y-38449200D01*
X38049539Y-38449200D01*
X38249498Y-38409426D01*
X38437856Y-38331405D01*
X38531994Y-38268505D01*
X38583226Y-38319737D01*
X38752744Y-38433005D01*
X38941102Y-38511026D01*
X39141061Y-38550800D01*
X39344939Y-38550800D01*
X39544898Y-38511026D01*
X39733256Y-38433005D01*
X39902774Y-38319737D01*
X40046937Y-38175574D01*
X40160205Y-38006056D01*
X40238226Y-37817698D01*
X40278000Y-37617739D01*
X40278000Y-37413861D01*
X40238226Y-37213902D01*
X40160205Y-37025544D01*
X40046937Y-36856026D01*
X39902774Y-36711863D01*
X39733256Y-36598595D01*
X39544898Y-36520574D01*
X39344939Y-36480800D01*
X39141061Y-36480800D01*
X38941102Y-36520574D01*
X38752744Y-36598595D01*
X38658606Y-36661495D01*
X38607374Y-36610263D01*
X38437856Y-36496995D01*
X38249498Y-36418974D01*
X38049539Y-36379200D01*
X37845661Y-36379200D01*
X37645702Y-36418974D01*
X37457344Y-36496995D01*
X37287826Y-36610263D01*
X37143663Y-36754426D01*
X37030395Y-36923944D01*
X36952374Y-37112302D01*
X36912600Y-37312261D01*
X33180322Y-37312261D01*
X33202426Y-37258898D01*
X33242200Y-37058939D01*
X33242200Y-36855061D01*
X33232462Y-36806102D01*
X33247974Y-36795737D01*
X33392137Y-36651574D01*
X33505405Y-36482056D01*
X33583426Y-36293698D01*
X33623200Y-36093739D01*
X33623200Y-35889861D01*
X33597459Y-35760452D01*
X33696937Y-35660974D01*
X33810205Y-35491456D01*
X33888226Y-35303098D01*
X33928000Y-35103139D01*
X33928000Y-34899261D01*
X33917578Y-34846865D01*
X33967456Y-34826205D01*
X34136974Y-34712937D01*
X34281137Y-34568774D01*
X34392158Y-34402618D01*
X35967562Y-34402618D01*
X35967562Y-34606496D01*
X36007336Y-34806455D01*
X36085357Y-34994813D01*
X36198625Y-35164331D01*
X36342788Y-35308494D01*
X36512306Y-35421762D01*
X36700664Y-35499783D01*
X36900623Y-35539557D01*
X37104501Y-35539557D01*
X37304460Y-35499783D01*
X37492818Y-35421762D01*
X37662336Y-35308494D01*
X37806499Y-35164331D01*
X37919767Y-34994813D01*
X37997788Y-34806455D01*
X38037562Y-34606496D01*
X38037562Y-34402618D01*
X37997788Y-34202659D01*
X37919767Y-34014301D01*
X37806499Y-33844783D01*
X37662336Y-33700620D01*
X37492818Y-33587352D01*
X37304460Y-33509331D01*
X37104501Y-33469557D01*
X36900623Y-33469557D01*
X36700664Y-33509331D01*
X36512306Y-33587352D01*
X36342788Y-33700620D01*
X36198625Y-33844783D01*
X36085357Y-34014301D01*
X36007336Y-34202659D01*
X35967562Y-34402618D01*
X34392158Y-34402618D01*
X34394405Y-34399256D01*
X34472426Y-34210898D01*
X34512200Y-34010939D01*
X34512200Y-33807061D01*
X34472426Y-33607102D01*
X34394405Y-33418744D01*
X34281137Y-33249226D01*
X34136974Y-33105063D01*
X33967456Y-32991795D01*
X33779098Y-32913774D01*
X33579139Y-32874000D01*
X33375261Y-32874000D01*
X33175302Y-32913774D01*
X32986944Y-32991795D01*
X32817426Y-33105063D01*
X32673263Y-33249226D01*
X32559995Y-33418744D01*
X32481974Y-33607102D01*
X32442200Y-33807061D01*
X32442200Y-34010939D01*
X32452622Y-34063335D01*
X32402744Y-34083995D01*
X32233226Y-34197263D01*
X32089063Y-34341426D01*
X31975795Y-34510944D01*
X31897774Y-34699302D01*
X31858000Y-34899261D01*
X31858000Y-35103139D01*
X31883741Y-35232548D01*
X31784263Y-35332026D01*
X31670995Y-35501544D01*
X31592974Y-35689902D01*
X31553200Y-35889861D01*
X31553200Y-36093739D01*
X31562938Y-36142698D01*
X31547426Y-36153063D01*
X31403263Y-36297226D01*
X31289995Y-36466744D01*
X31211974Y-36655102D01*
X31178305Y-36824367D01*
X31125573Y-36846210D01*
X30956055Y-36959478D01*
X30811892Y-37103641D01*
X30698624Y-37273159D01*
X30620603Y-37461517D01*
X30580829Y-37661476D01*
X19845120Y-37661476D01*
X19900237Y-37606359D01*
X20057280Y-37371327D01*
X20165453Y-37110174D01*
X20220600Y-36832935D01*
X20220600Y-36550265D01*
X20165453Y-36273026D01*
X20057280Y-36011873D01*
X19900237Y-35776841D01*
X19700359Y-35576963D01*
X19467841Y-35421600D01*
X19700359Y-35266237D01*
X19900237Y-35066359D01*
X20057280Y-34831327D01*
X20165453Y-34570174D01*
X20220600Y-34292935D01*
X20220600Y-34010265D01*
X20165453Y-33733026D01*
X20057280Y-33471873D01*
X20043642Y-33451461D01*
X21494800Y-33451461D01*
X21494800Y-33655339D01*
X21534574Y-33855298D01*
X21612595Y-34043656D01*
X21725863Y-34213174D01*
X21870026Y-34357337D01*
X22039544Y-34470605D01*
X22227902Y-34548626D01*
X22427861Y-34588400D01*
X22631739Y-34588400D01*
X22831698Y-34548626D01*
X23020056Y-34470605D01*
X23189574Y-34357337D01*
X23333737Y-34213174D01*
X23447005Y-34043656D01*
X23525026Y-33855298D01*
X23564800Y-33655339D01*
X23564800Y-33451461D01*
X23525026Y-33251502D01*
X23447005Y-33063144D01*
X23333737Y-32893626D01*
X23189574Y-32749463D01*
X23020056Y-32636195D01*
X22831698Y-32558174D01*
X22631739Y-32518400D01*
X22427861Y-32518400D01*
X22227902Y-32558174D01*
X22039544Y-32636195D01*
X21870026Y-32749463D01*
X21725863Y-32893626D01*
X21612595Y-33063144D01*
X21534574Y-33251502D01*
X21494800Y-33451461D01*
X20043642Y-33451461D01*
X19900237Y-33236841D01*
X19700359Y-33036963D01*
X19467841Y-32881600D01*
X19700359Y-32726237D01*
X19900237Y-32526359D01*
X20057280Y-32291327D01*
X20165453Y-32030174D01*
X20220600Y-31752935D01*
X20220600Y-31470265D01*
X20190285Y-31317861D01*
X27159000Y-31317861D01*
X27159000Y-31521739D01*
X27198774Y-31721698D01*
X27276795Y-31910056D01*
X27390063Y-32079574D01*
X27534226Y-32223737D01*
X27703744Y-32337005D01*
X27892102Y-32415026D01*
X28092061Y-32454800D01*
X28295939Y-32454800D01*
X28495898Y-32415026D01*
X28684256Y-32337005D01*
X28853774Y-32223737D01*
X28986460Y-32091051D01*
X33686636Y-32091051D01*
X33686636Y-32294929D01*
X33726410Y-32494888D01*
X33804431Y-32683246D01*
X33917699Y-32852764D01*
X34061862Y-32996927D01*
X34231380Y-33110195D01*
X34419738Y-33188216D01*
X34619697Y-33227990D01*
X34823575Y-33227990D01*
X35023534Y-33188216D01*
X35211892Y-33110195D01*
X35381410Y-32996927D01*
X35525573Y-32852764D01*
X35638841Y-32683246D01*
X35716862Y-32494888D01*
X35756636Y-32294929D01*
X35756636Y-32091051D01*
X35716862Y-31891092D01*
X35684592Y-31813186D01*
X35765996Y-31691356D01*
X35844017Y-31502998D01*
X35883791Y-31303039D01*
X35883791Y-31263002D01*
X42860000Y-31263002D01*
X42860000Y-31466880D01*
X42899774Y-31666839D01*
X42977795Y-31855197D01*
X43091063Y-32024715D01*
X43235226Y-32168878D01*
X43404744Y-32282146D01*
X43593102Y-32360167D01*
X43793061Y-32399941D01*
X43996939Y-32399941D01*
X44196898Y-32360167D01*
X44298692Y-32318002D01*
X44399421Y-32385307D01*
X44587779Y-32463328D01*
X44787738Y-32503102D01*
X44991616Y-32503102D01*
X45191575Y-32463328D01*
X45379933Y-32385307D01*
X45549451Y-32272039D01*
X45693614Y-32127876D01*
X45806882Y-31958358D01*
X45884903Y-31770000D01*
X45924677Y-31570041D01*
X45924677Y-31366163D01*
X45884903Y-31166204D01*
X45806882Y-30977846D01*
X45693614Y-30808328D01*
X45549451Y-30664165D01*
X45379933Y-30550897D01*
X45191575Y-30472876D01*
X44991616Y-30433102D01*
X44787738Y-30433102D01*
X44587779Y-30472876D01*
X44485985Y-30515041D01*
X44385256Y-30447736D01*
X44196898Y-30369715D01*
X43996939Y-30329941D01*
X43793061Y-30329941D01*
X43593102Y-30369715D01*
X43404744Y-30447736D01*
X43235226Y-30561004D01*
X43091063Y-30705167D01*
X42977795Y-30874685D01*
X42899774Y-31063043D01*
X42860000Y-31263002D01*
X35883791Y-31263002D01*
X35883791Y-31099161D01*
X35844017Y-30899202D01*
X35765996Y-30710844D01*
X35652728Y-30541326D01*
X35508565Y-30397163D01*
X35339047Y-30283895D01*
X35150689Y-30205874D01*
X34950730Y-30166100D01*
X34746852Y-30166100D01*
X34546893Y-30205874D01*
X34358535Y-30283895D01*
X34189017Y-30397163D01*
X34044854Y-30541326D01*
X33931586Y-30710844D01*
X33853565Y-30899202D01*
X33813791Y-31099161D01*
X33813791Y-31303039D01*
X33853565Y-31502998D01*
X33885835Y-31580904D01*
X33804431Y-31702734D01*
X33726410Y-31891092D01*
X33686636Y-32091051D01*
X28986460Y-32091051D01*
X28997937Y-32079574D01*
X29111205Y-31910056D01*
X29189226Y-31721698D01*
X29229000Y-31521739D01*
X29229000Y-31317861D01*
X29189226Y-31117902D01*
X29111205Y-30929544D01*
X28997937Y-30760026D01*
X28853774Y-30615863D01*
X28684256Y-30502595D01*
X28495898Y-30424574D01*
X28295939Y-30384800D01*
X28092061Y-30384800D01*
X27892102Y-30424574D01*
X27703744Y-30502595D01*
X27534226Y-30615863D01*
X27390063Y-30760026D01*
X27276795Y-30929544D01*
X27198774Y-31117902D01*
X27159000Y-31317861D01*
X20190285Y-31317861D01*
X20165453Y-31193026D01*
X20057280Y-30931873D01*
X19900237Y-30696841D01*
X19700359Y-30496963D01*
X19467841Y-30341600D01*
X19700359Y-30186237D01*
X19900237Y-29986359D01*
X20057280Y-29751327D01*
X20165453Y-29490174D01*
X20220600Y-29212935D01*
X20220600Y-29162744D01*
X22057483Y-29162744D01*
X22057483Y-29366622D01*
X22097257Y-29566581D01*
X22175278Y-29754939D01*
X22288546Y-29924457D01*
X22432709Y-30068620D01*
X22602227Y-30181888D01*
X22790585Y-30259909D01*
X22990544Y-30299683D01*
X23194422Y-30299683D01*
X23394381Y-30259909D01*
X23582739Y-30181888D01*
X23752257Y-30068620D01*
X23896420Y-29924457D01*
X23949024Y-29845728D01*
X25507694Y-29845728D01*
X25509639Y-29870548D01*
X25516389Y-29894512D01*
X25527684Y-29916699D01*
X25543091Y-29936255D01*
X25562017Y-29952431D01*
X25583735Y-29964603D01*
X25607410Y-29972304D01*
X25634070Y-29975263D01*
X47909630Y-30080336D01*
X47871344Y-30096195D01*
X47701826Y-30209463D01*
X47557663Y-30353626D01*
X47444395Y-30523144D01*
X47366374Y-30711502D01*
X47326600Y-30911461D01*
X47326600Y-31115339D01*
X47366374Y-31315298D01*
X47444395Y-31503656D01*
X47557663Y-31673174D01*
X47701826Y-31817337D01*
X47871344Y-31930605D01*
X48059702Y-32008626D01*
X48259661Y-32048400D01*
X48463539Y-32048400D01*
X48663498Y-32008626D01*
X48851856Y-31930605D01*
X49021374Y-31817337D01*
X49165537Y-31673174D01*
X49278805Y-31503656D01*
X49356826Y-31315298D01*
X49396600Y-31115339D01*
X49396600Y-30911461D01*
X49356826Y-30711502D01*
X49278805Y-30523144D01*
X49165537Y-30353626D01*
X49021374Y-30209463D01*
X48851856Y-30096195D01*
X48663498Y-30018174D01*
X48463539Y-29978400D01*
X48358961Y-29978400D01*
X48361339Y-29954267D01*
X48356349Y-28896431D01*
X48384195Y-28963656D01*
X48497463Y-29133174D01*
X48641626Y-29277337D01*
X48811144Y-29390605D01*
X48999502Y-29468626D01*
X49199461Y-29508400D01*
X49403339Y-29508400D01*
X49603298Y-29468626D01*
X49791656Y-29390605D01*
X49961174Y-29277337D01*
X50105337Y-29133174D01*
X50218605Y-28963656D01*
X50296626Y-28775298D01*
X50336400Y-28575339D01*
X50336400Y-28371461D01*
X50296626Y-28171502D01*
X50218605Y-27983144D01*
X50105337Y-27813626D01*
X49961174Y-27669463D01*
X49791656Y-27556195D01*
X49603298Y-27478174D01*
X49403339Y-27438400D01*
X49199461Y-27438400D01*
X48999502Y-27478174D01*
X48811144Y-27556195D01*
X48641626Y-27669463D01*
X48497463Y-27813626D01*
X48384195Y-27983144D01*
X48352403Y-28059895D01*
X48326288Y-22523406D01*
X49110360Y-22523406D01*
X49110360Y-22727284D01*
X49150134Y-22927243D01*
X49228155Y-23115601D01*
X49341423Y-23285119D01*
X49485586Y-23429282D01*
X49655104Y-23542550D01*
X49843462Y-23620571D01*
X50043421Y-23660345D01*
X50247299Y-23660345D01*
X50447258Y-23620571D01*
X50635616Y-23542550D01*
X50805134Y-23429282D01*
X50949297Y-23285119D01*
X51062565Y-23115601D01*
X51140586Y-22927243D01*
X51180360Y-22727284D01*
X51180360Y-22523406D01*
X51140586Y-22323447D01*
X51062565Y-22135089D01*
X50949297Y-21965571D01*
X50805134Y-21821408D01*
X50635616Y-21708140D01*
X50447258Y-21630119D01*
X50247299Y-21590345D01*
X50043421Y-21590345D01*
X49843462Y-21630119D01*
X49655104Y-21708140D01*
X49485586Y-21821408D01*
X49341423Y-21965571D01*
X49228155Y-22135089D01*
X49150134Y-22323447D01*
X49110360Y-22523406D01*
X48326288Y-22523406D01*
X48296923Y-16298082D01*
X48483958Y-16298082D01*
X48483958Y-16501960D01*
X48523732Y-16701919D01*
X48601753Y-16890277D01*
X48715021Y-17059795D01*
X48859184Y-17203958D01*
X48965181Y-17274783D01*
X48861928Y-17429312D01*
X48783907Y-17617670D01*
X48744133Y-17817629D01*
X48744133Y-18021507D01*
X48783907Y-18221466D01*
X48861928Y-18409824D01*
X48975196Y-18579342D01*
X49119359Y-18723505D01*
X49288877Y-18836773D01*
X49477235Y-18914794D01*
X49677194Y-18954568D01*
X49881072Y-18954568D01*
X49916595Y-18947502D01*
X50052406Y-19083313D01*
X50221924Y-19196581D01*
X50410282Y-19274602D01*
X50610241Y-19314376D01*
X50814119Y-19314376D01*
X51014078Y-19274602D01*
X51202436Y-19196581D01*
X51371954Y-19083313D01*
X51516117Y-18939150D01*
X51629385Y-18769632D01*
X51707406Y-18581274D01*
X51747180Y-18381315D01*
X51747180Y-18177437D01*
X51707406Y-17977478D01*
X51629385Y-17789120D01*
X51516117Y-17619602D01*
X51390984Y-17494469D01*
X51474404Y-17369621D01*
X51552425Y-17181263D01*
X51592199Y-16981304D01*
X51592199Y-16777426D01*
X51552425Y-16577467D01*
X51474404Y-16389109D01*
X51413164Y-16297457D01*
X51434365Y-16283291D01*
X51578528Y-16139128D01*
X51691796Y-15969610D01*
X51769817Y-15781252D01*
X51809591Y-15581293D01*
X51809591Y-15377415D01*
X51769817Y-15177456D01*
X51691796Y-14989098D01*
X51578528Y-14819580D01*
X51434365Y-14675417D01*
X51264847Y-14562149D01*
X51076489Y-14484128D01*
X50876530Y-14444354D01*
X50672652Y-14444354D01*
X50472693Y-14484128D01*
X50284335Y-14562149D01*
X50114817Y-14675417D01*
X49970654Y-14819580D01*
X49857386Y-14989098D01*
X49779365Y-15177456D01*
X49739591Y-15377415D01*
X49739591Y-15388631D01*
X49620897Y-15365021D01*
X49417019Y-15365021D01*
X49217060Y-15404795D01*
X49028702Y-15482816D01*
X48859184Y-15596084D01*
X48715021Y-15740247D01*
X48601753Y-15909765D01*
X48523732Y-16098123D01*
X48483958Y-16298082D01*
X48296923Y-16298082D01*
X48268088Y-10185061D01*
X48672800Y-10185061D01*
X48672800Y-10388939D01*
X48712574Y-10588898D01*
X48790595Y-10777256D01*
X48903863Y-10946774D01*
X49048026Y-11090937D01*
X49217544Y-11204205D01*
X49405902Y-11282226D01*
X49605861Y-11322000D01*
X49809739Y-11322000D01*
X50009698Y-11282226D01*
X50198056Y-11204205D01*
X50367574Y-11090937D01*
X50511737Y-10946774D01*
X50625005Y-10777256D01*
X50703026Y-10588898D01*
X50742800Y-10388939D01*
X50742800Y-10185061D01*
X50703026Y-9985102D01*
X50625005Y-9796744D01*
X50511737Y-9627226D01*
X50367574Y-9483063D01*
X50198056Y-9369795D01*
X50009698Y-9291774D01*
X49809739Y-9252000D01*
X49605861Y-9252000D01*
X49405902Y-9291774D01*
X49217544Y-9369795D01*
X49048026Y-9483063D01*
X48903863Y-9627226D01*
X48790595Y-9796744D01*
X48712574Y-9985102D01*
X48672800Y-10185061D01*
X48268088Y-10185061D01*
X48259765Y-8420592D01*
X48257207Y-8395827D01*
X48249868Y-8372037D01*
X48238029Y-8350136D01*
X48222144Y-8330966D01*
X48202825Y-8315263D01*
X48180813Y-8303630D01*
X48156955Y-8296516D01*
X48132115Y-8294193D01*
X26059749Y-8407402D01*
X26034985Y-8409969D01*
X26011198Y-8417318D01*
X25989302Y-8429167D01*
X25970138Y-8445059D01*
X25954443Y-8464385D01*
X25942820Y-8486402D01*
X25935715Y-8510263D01*
X25933425Y-8531864D01*
X25507694Y-29845728D01*
X23949024Y-29845728D01*
X24009688Y-29754939D01*
X24087709Y-29566581D01*
X24127483Y-29366622D01*
X24127483Y-29162744D01*
X24087709Y-28962785D01*
X24009688Y-28774427D01*
X23896420Y-28604909D01*
X23752257Y-28460746D01*
X23582739Y-28347478D01*
X23394381Y-28269457D01*
X23194422Y-28229683D01*
X22990544Y-28229683D01*
X22790585Y-28269457D01*
X22602227Y-28347478D01*
X22432709Y-28460746D01*
X22288546Y-28604909D01*
X22175278Y-28774427D01*
X22097257Y-28962785D01*
X22057483Y-29162744D01*
X20220600Y-29162744D01*
X20220600Y-28930265D01*
X20165453Y-28653026D01*
X20057280Y-28391873D01*
X19900237Y-28156841D01*
X19700359Y-27956963D01*
X19467841Y-27801600D01*
X19700359Y-27646237D01*
X19900237Y-27446359D01*
X20057280Y-27211327D01*
X20165453Y-26950174D01*
X20220600Y-26672935D01*
X20220600Y-26390265D01*
X20165453Y-26113026D01*
X20057280Y-25851873D01*
X19900237Y-25616841D01*
X19700359Y-25416963D01*
X19467841Y-25261600D01*
X19700359Y-25106237D01*
X19900237Y-24906359D01*
X20057280Y-24671327D01*
X20165453Y-24410174D01*
X20220600Y-24132935D01*
X20220600Y-23850265D01*
X20165453Y-23573026D01*
X20057280Y-23311873D01*
X19900237Y-23076841D01*
X19700359Y-22876963D01*
X19467841Y-22721600D01*
X19700359Y-22566237D01*
X19900237Y-22366359D01*
X20057280Y-22131327D01*
X20165453Y-21870174D01*
X20220600Y-21592935D01*
X20220600Y-21348679D01*
X22676218Y-21348679D01*
X22676218Y-21552557D01*
X22715992Y-21752516D01*
X22794013Y-21940874D01*
X22907281Y-22110392D01*
X23051444Y-22254555D01*
X23220962Y-22367823D01*
X23409320Y-22445844D01*
X23609279Y-22485618D01*
X23813157Y-22485618D01*
X24013116Y-22445844D01*
X24201474Y-22367823D01*
X24370992Y-22254555D01*
X24515155Y-22110392D01*
X24628423Y-21940874D01*
X24706444Y-21752516D01*
X24746218Y-21552557D01*
X24746218Y-21348679D01*
X24706444Y-21148720D01*
X24628423Y-20960362D01*
X24515155Y-20790844D01*
X24370992Y-20646681D01*
X24201474Y-20533413D01*
X24013116Y-20455392D01*
X23813157Y-20415618D01*
X23609279Y-20415618D01*
X23409320Y-20455392D01*
X23220962Y-20533413D01*
X23051444Y-20646681D01*
X22907281Y-20790844D01*
X22794013Y-20960362D01*
X22715992Y-21148720D01*
X22676218Y-21348679D01*
X20220600Y-21348679D01*
X20220600Y-21310265D01*
X20165453Y-21033026D01*
X20057280Y-20771873D01*
X19900237Y-20536841D01*
X19700359Y-20336963D01*
X19467841Y-20181600D01*
X19700359Y-20026237D01*
X19900237Y-19826359D01*
X20057280Y-19591327D01*
X20165453Y-19330174D01*
X20220600Y-19052935D01*
X20220600Y-18770265D01*
X20165453Y-18493026D01*
X20057280Y-18231873D01*
X19900237Y-17996841D01*
X19700359Y-17796963D01*
X19467841Y-17641600D01*
X19700359Y-17486237D01*
X19900237Y-17286359D01*
X20057280Y-17051327D01*
X20165453Y-16790174D01*
X20220600Y-16512935D01*
X20220600Y-16230265D01*
X20165453Y-15953026D01*
X20057280Y-15691873D01*
X19900237Y-15456841D01*
X19700359Y-15256963D01*
X19467841Y-15101600D01*
X19700359Y-14946237D01*
X19900237Y-14746359D01*
X20057280Y-14511327D01*
X20165453Y-14250174D01*
X20220600Y-13972935D01*
X20220600Y-13690265D01*
X20165453Y-13413026D01*
X20057280Y-13151873D01*
X19900237Y-12916841D01*
X19700359Y-12716963D01*
X19467841Y-12561600D01*
X19700359Y-12406237D01*
X19889535Y-12217061D01*
X22002800Y-12217061D01*
X22002800Y-12420939D01*
X22042574Y-12620898D01*
X22120595Y-12809256D01*
X22233863Y-12978774D01*
X22378026Y-13122937D01*
X22547544Y-13236205D01*
X22735902Y-13314226D01*
X22935861Y-13354000D01*
X23139739Y-13354000D01*
X23339698Y-13314226D01*
X23528056Y-13236205D01*
X23697574Y-13122937D01*
X23841737Y-12978774D01*
X23955005Y-12809256D01*
X24033026Y-12620898D01*
X24072800Y-12420939D01*
X24072800Y-12217061D01*
X24033026Y-12017102D01*
X23955005Y-11828744D01*
X23841737Y-11659226D01*
X23697574Y-11515063D01*
X23528056Y-11401795D01*
X23339698Y-11323774D01*
X23139739Y-11284000D01*
X22935861Y-11284000D01*
X22735902Y-11323774D01*
X22547544Y-11401795D01*
X22378026Y-11515063D01*
X22233863Y-11659226D01*
X22120595Y-11828744D01*
X22042574Y-12017102D01*
X22002800Y-12217061D01*
X19889535Y-12217061D01*
X19900237Y-12206359D01*
X20057280Y-11971327D01*
X20165453Y-11710174D01*
X20220600Y-11432935D01*
X20220600Y-11150265D01*
X20165453Y-10873026D01*
X20057280Y-10611873D01*
X19900237Y-10376841D01*
X19700359Y-10176963D01*
X19467841Y-10021600D01*
X19700359Y-9866237D01*
X19900237Y-9666359D01*
X20057280Y-9431327D01*
X20165453Y-9170174D01*
X20209308Y-8949698D01*
X23850316Y-8949698D01*
X23850316Y-9153576D01*
X23890090Y-9353535D01*
X23968111Y-9541893D01*
X24081379Y-9711411D01*
X24225542Y-9855574D01*
X24395060Y-9968842D01*
X24583418Y-10046863D01*
X24783377Y-10086637D01*
X24987255Y-10086637D01*
X25187214Y-10046863D01*
X25375572Y-9968842D01*
X25545090Y-9855574D01*
X25689253Y-9711411D01*
X25802521Y-9541893D01*
X25880542Y-9353535D01*
X25920316Y-9153576D01*
X25920316Y-8949698D01*
X25880542Y-8749739D01*
X25802521Y-8561381D01*
X25689253Y-8391863D01*
X25545090Y-8247700D01*
X25375572Y-8134432D01*
X25187214Y-8056411D01*
X24987255Y-8016637D01*
X24783377Y-8016637D01*
X24583418Y-8056411D01*
X24395060Y-8134432D01*
X24225542Y-8247700D01*
X24081379Y-8391863D01*
X23968111Y-8561381D01*
X23890090Y-8749739D01*
X23850316Y-8949698D01*
X20209308Y-8949698D01*
X20220600Y-8892935D01*
X20220600Y-8610265D01*
X20165453Y-8333026D01*
X20057280Y-8071873D01*
X19900237Y-7836841D01*
X19700359Y-7636963D01*
X19467841Y-7481600D01*
X19700359Y-7326237D01*
X19900237Y-7126359D01*
X19917534Y-7100471D01*
X22002800Y-7100471D01*
X22002800Y-7304349D01*
X22042574Y-7504308D01*
X22120595Y-7692666D01*
X22233863Y-7862184D01*
X22378026Y-8006347D01*
X22547544Y-8119615D01*
X22735902Y-8197636D01*
X22935861Y-8237410D01*
X23139739Y-8237410D01*
X23339698Y-8197636D01*
X23528056Y-8119615D01*
X23697574Y-8006347D01*
X23841737Y-7862184D01*
X23955005Y-7692666D01*
X24033026Y-7504308D01*
X24072800Y-7304349D01*
X24072800Y-7162461D01*
X49384000Y-7162461D01*
X49384000Y-7366339D01*
X49423774Y-7566298D01*
X49501795Y-7754656D01*
X49615063Y-7924174D01*
X49759226Y-8068337D01*
X49928744Y-8181605D01*
X50117102Y-8259626D01*
X50317061Y-8299400D01*
X50520939Y-8299400D01*
X50720898Y-8259626D01*
X50909256Y-8181605D01*
X51078774Y-8068337D01*
X51222937Y-7924174D01*
X51336205Y-7754656D01*
X51414226Y-7566298D01*
X51454000Y-7366339D01*
X51454000Y-7162461D01*
X51414226Y-6962502D01*
X51336205Y-6774144D01*
X51222937Y-6604626D01*
X51078774Y-6460463D01*
X50909256Y-6347195D01*
X50720898Y-6269174D01*
X50520939Y-6229400D01*
X50317061Y-6229400D01*
X50117102Y-6269174D01*
X49928744Y-6347195D01*
X49759226Y-6460463D01*
X49615063Y-6604626D01*
X49501795Y-6774144D01*
X49423774Y-6962502D01*
X49384000Y-7162461D01*
X24072800Y-7162461D01*
X24072800Y-7100471D01*
X24033026Y-6900512D01*
X23955005Y-6712154D01*
X23841737Y-6542636D01*
X23697574Y-6398473D01*
X23528056Y-6285205D01*
X23339698Y-6207184D01*
X23139739Y-6167410D01*
X22935861Y-6167410D01*
X22735902Y-6207184D01*
X22547544Y-6285205D01*
X22378026Y-6398473D01*
X22233863Y-6542636D01*
X22120595Y-6712154D01*
X22042574Y-6900512D01*
X22002800Y-7100471D01*
X19917534Y-7100471D01*
X20057280Y-6891327D01*
X20165453Y-6630174D01*
X20220600Y-6352935D01*
X20220600Y-6070265D01*
X20165453Y-5793026D01*
X20057280Y-5531873D01*
X19900237Y-5296841D01*
X19700359Y-5096963D01*
X19465327Y-4939920D01*
X19458624Y-4937143D01*
X19633861Y-4972000D01*
X19837739Y-4972000D01*
X20037698Y-4932226D01*
X20226056Y-4854205D01*
X20395574Y-4740937D01*
X20539737Y-4596774D01*
X20624403Y-4470061D01*
X27082800Y-4470061D01*
X27082800Y-4673939D01*
X27122574Y-4873898D01*
X27200595Y-5062256D01*
X27284076Y-5187195D01*
X27200595Y-5312134D01*
X27122574Y-5500492D01*
X27082800Y-5700451D01*
X27082800Y-5904329D01*
X27122574Y-6104288D01*
X27200595Y-6292646D01*
X27313863Y-6462164D01*
X27458026Y-6606327D01*
X27627544Y-6719595D01*
X27815902Y-6797616D01*
X28015861Y-6837390D01*
X28219739Y-6837390D01*
X28419698Y-6797616D01*
X28608056Y-6719595D01*
X28777574Y-6606327D01*
X28921737Y-6462164D01*
X29035005Y-6292646D01*
X29113026Y-6104288D01*
X29152800Y-5904329D01*
X29152800Y-5740061D01*
X31527800Y-5740061D01*
X31527800Y-5943939D01*
X31567574Y-6143898D01*
X31645595Y-6332256D01*
X31758863Y-6501774D01*
X31903026Y-6645937D01*
X32072544Y-6759205D01*
X32260902Y-6837226D01*
X32460861Y-6877000D01*
X32664739Y-6877000D01*
X32864698Y-6837226D01*
X33053056Y-6759205D01*
X33222574Y-6645937D01*
X33365233Y-6503278D01*
X33444144Y-6556005D01*
X33632502Y-6634026D01*
X33832461Y-6673800D01*
X34036339Y-6673800D01*
X34236298Y-6634026D01*
X34424656Y-6556005D01*
X34594174Y-6442737D01*
X34738337Y-6298574D01*
X34851605Y-6129056D01*
X34929626Y-5940698D01*
X34969400Y-5740739D01*
X34969400Y-5740061D01*
X45624800Y-5740061D01*
X45624800Y-5943939D01*
X45664574Y-6143898D01*
X45742595Y-6332256D01*
X45855863Y-6501774D01*
X46000026Y-6645937D01*
X46169544Y-6759205D01*
X46357902Y-6837226D01*
X46557861Y-6877000D01*
X46761739Y-6877000D01*
X46961698Y-6837226D01*
X47150056Y-6759205D01*
X47319574Y-6645937D01*
X47463737Y-6501774D01*
X47577005Y-6332256D01*
X47655026Y-6143898D01*
X47694800Y-5943939D01*
X47694800Y-5740061D01*
X47655026Y-5540102D01*
X47577005Y-5351744D01*
X47463737Y-5182226D01*
X47319574Y-5038063D01*
X47150056Y-4924795D01*
X46961698Y-4846774D01*
X46761739Y-4807000D01*
X46557861Y-4807000D01*
X46357902Y-4846774D01*
X46169544Y-4924795D01*
X46000026Y-5038063D01*
X45855863Y-5182226D01*
X45742595Y-5351744D01*
X45664574Y-5540102D01*
X45624800Y-5740061D01*
X34969400Y-5740061D01*
X34969400Y-5536861D01*
X34929626Y-5336902D01*
X34851605Y-5148544D01*
X34738337Y-4979026D01*
X34594174Y-4834863D01*
X34424656Y-4721595D01*
X34236298Y-4643574D01*
X34036339Y-4603800D01*
X33832461Y-4603800D01*
X33632502Y-4643574D01*
X33444144Y-4721595D01*
X33274626Y-4834863D01*
X33131967Y-4977522D01*
X33053056Y-4924795D01*
X32864698Y-4846774D01*
X32664739Y-4807000D01*
X32460861Y-4807000D01*
X32260902Y-4846774D01*
X32072544Y-4924795D01*
X31903026Y-5038063D01*
X31758863Y-5182226D01*
X31645595Y-5351744D01*
X31567574Y-5540102D01*
X31527800Y-5740061D01*
X29152800Y-5740061D01*
X29152800Y-5700451D01*
X29113026Y-5500492D01*
X29035005Y-5312134D01*
X28951524Y-5187195D01*
X29035005Y-5062256D01*
X29113026Y-4873898D01*
X29152800Y-4673939D01*
X29152800Y-4470061D01*
X29113026Y-4270102D01*
X29035005Y-4081744D01*
X28921737Y-3912226D01*
X28777574Y-3768063D01*
X28608056Y-3654795D01*
X28419698Y-3576774D01*
X28219739Y-3537000D01*
X28015861Y-3537000D01*
X27815902Y-3576774D01*
X27627544Y-3654795D01*
X27458026Y-3768063D01*
X27313863Y-3912226D01*
X27200595Y-4081744D01*
X27122574Y-4270102D01*
X27082800Y-4470061D01*
X20624403Y-4470061D01*
X20653005Y-4427256D01*
X20731026Y-4238898D01*
X20770800Y-4038939D01*
X20770800Y-3835061D01*
X20731026Y-3635102D01*
X20653005Y-3446744D01*
X20539737Y-3277226D01*
X20395574Y-3133063D01*
X20226056Y-3019795D01*
X20037698Y-2941774D01*
X19837739Y-2902000D01*
X19633861Y-2902000D01*
X19433902Y-2941774D01*
X19245544Y-3019795D01*
X19076026Y-3133063D01*
X18931863Y-3277226D01*
X18818595Y-3446744D01*
X18740574Y-3635102D01*
X18700800Y-3835061D01*
X18700800Y-4038939D01*
X18740574Y-4238898D01*
X18818595Y-4427256D01*
X18931863Y-4596774D01*
X19076026Y-4740937D01*
X19224588Y-4840203D01*
X19204174Y-4831747D01*
X18926935Y-4776600D01*
X18644265Y-4776600D01*
X18367026Y-4831747D01*
X18105873Y-4939920D01*
X17870841Y-5096963D01*
X17670963Y-5296841D01*
X17513920Y-5531873D01*
X17405747Y-5793026D01*
X17350600Y-6070265D01*
X4983672Y-6070265D01*
X4983672Y-5411600D01*
X4971412Y-5287118D01*
X4935102Y-5167420D01*
X4876137Y-5057106D01*
X4796785Y-4960415D01*
X4700094Y-4881063D01*
X4589780Y-4822098D01*
X4470082Y-4785788D01*
X4345600Y-4773528D01*
X2745600Y-4773528D01*
X2621118Y-4785788D01*
X2501420Y-4822098D01*
X2391106Y-4881063D01*
X2294415Y-4960415D01*
X2215063Y-5057106D01*
X2156098Y-5167420D01*
X2119788Y-5287118D01*
X2107528Y-5411600D01*
X749302Y-5411600D01*
X749300Y-5410105D01*
X749296Y-5409203D01*
X712206Y-686457D01*
X36028463Y-867397D01*
M02*
