G04 #@! TF.GenerationSoftware,KiCad,Pcbnew,(5.1.5)-3*
G04 #@! TF.CreationDate,2020-10-03T21:18:42-07:00*
G04 #@! TF.ProjectId,MCL86jr,4d434c38-366a-4722-9e6b-696361645f70,rev?*
G04 #@! TF.SameCoordinates,PX6b9fce8PY20f1980*
G04 #@! TF.FileFunction,Legend,Top*
G04 #@! TF.FilePolarity,Positive*
%FSLAX46Y46*%
G04 Gerber Fmt 4.6, Leading zero omitted, Abs format (unit mm)*
G04 Created by KiCad (PCBNEW (5.1.5)-3) date 2020-10-03 21:18:42*
%MOMM*%
%LPD*%
G04 APERTURE LIST*
%ADD10C,0.300000*%
%ADD11C,0.200000*%
%ADD12C,0.127000*%
%ADD13C,0.120000*%
%ADD14C,0.100000*%
%ADD15C,0.125000*%
G04 APERTURE END LIST*
D10*
X2592657Y-2913771D02*
X2592657Y-1413771D01*
X3092657Y-2485200D01*
X3592657Y-1413771D01*
X3592657Y-2913771D01*
X4306942Y-2913771D02*
X4306942Y-1913771D01*
X4306942Y-1413771D02*
X4235514Y-1485200D01*
X4306942Y-1556628D01*
X4378371Y-1485200D01*
X4306942Y-1413771D01*
X4306942Y-1556628D01*
X5664085Y-2842342D02*
X5521228Y-2913771D01*
X5235514Y-2913771D01*
X5092657Y-2842342D01*
X5021228Y-2770914D01*
X4949800Y-2628057D01*
X4949800Y-2199485D01*
X5021228Y-2056628D01*
X5092657Y-1985200D01*
X5235514Y-1913771D01*
X5521228Y-1913771D01*
X5664085Y-1985200D01*
X6306942Y-2913771D02*
X6306942Y-1913771D01*
X6306942Y-2199485D02*
X6378371Y-2056628D01*
X6449800Y-1985200D01*
X6592657Y-1913771D01*
X6735514Y-1913771D01*
X7449800Y-2913771D02*
X7306942Y-2842342D01*
X7235514Y-2770914D01*
X7164085Y-2628057D01*
X7164085Y-2199485D01*
X7235514Y-2056628D01*
X7306942Y-1985200D01*
X7449800Y-1913771D01*
X7664085Y-1913771D01*
X7806942Y-1985200D01*
X7878371Y-2056628D01*
X7949800Y-2199485D01*
X7949800Y-2628057D01*
X7878371Y-2770914D01*
X7806942Y-2842342D01*
X7664085Y-2913771D01*
X7449800Y-2913771D01*
X9449800Y-2770914D02*
X9378371Y-2842342D01*
X9164085Y-2913771D01*
X9021228Y-2913771D01*
X8806942Y-2842342D01*
X8664085Y-2699485D01*
X8592657Y-2556628D01*
X8521228Y-2270914D01*
X8521228Y-2056628D01*
X8592657Y-1770914D01*
X8664085Y-1628057D01*
X8806942Y-1485200D01*
X9021228Y-1413771D01*
X9164085Y-1413771D01*
X9378371Y-1485200D01*
X9449800Y-1556628D01*
X10306942Y-2913771D02*
X10164085Y-2842342D01*
X10092657Y-2770914D01*
X10021228Y-2628057D01*
X10021228Y-2199485D01*
X10092657Y-2056628D01*
X10164085Y-1985200D01*
X10306942Y-1913771D01*
X10521228Y-1913771D01*
X10664085Y-1985200D01*
X10735514Y-2056628D01*
X10806942Y-2199485D01*
X10806942Y-2628057D01*
X10735514Y-2770914D01*
X10664085Y-2842342D01*
X10521228Y-2913771D01*
X10306942Y-2913771D01*
X11449800Y-2913771D02*
X11449800Y-1913771D01*
X11449800Y-2199485D02*
X11521228Y-2056628D01*
X11592657Y-1985200D01*
X11735514Y-1913771D01*
X11878371Y-1913771D01*
X12949800Y-2842342D02*
X12806942Y-2913771D01*
X12521228Y-2913771D01*
X12378371Y-2842342D01*
X12306942Y-2699485D01*
X12306942Y-2128057D01*
X12378371Y-1985200D01*
X12521228Y-1913771D01*
X12806942Y-1913771D01*
X12949800Y-1985200D01*
X13021228Y-2128057D01*
X13021228Y-2270914D01*
X12306942Y-2413771D01*
X15521228Y-2913771D02*
X14806942Y-2913771D01*
X14806942Y-1413771D01*
X16664085Y-2913771D02*
X16664085Y-2128057D01*
X16592657Y-1985200D01*
X16449800Y-1913771D01*
X16164085Y-1913771D01*
X16021228Y-1985200D01*
X16664085Y-2842342D02*
X16521228Y-2913771D01*
X16164085Y-2913771D01*
X16021228Y-2842342D01*
X15949800Y-2699485D01*
X15949800Y-2556628D01*
X16021228Y-2413771D01*
X16164085Y-2342342D01*
X16521228Y-2342342D01*
X16664085Y-2270914D01*
X17378371Y-2913771D02*
X17378371Y-1413771D01*
X17378371Y-1985200D02*
X17521228Y-1913771D01*
X17806942Y-1913771D01*
X17949800Y-1985200D01*
X18021228Y-2056628D01*
X18092657Y-2199485D01*
X18092657Y-2628057D01*
X18021228Y-2770914D01*
X17949800Y-2842342D01*
X17806942Y-2913771D01*
X17521228Y-2913771D01*
X17378371Y-2842342D01*
X18664085Y-2842342D02*
X18806942Y-2913771D01*
X19092657Y-2913771D01*
X19235514Y-2842342D01*
X19306942Y-2699485D01*
X19306942Y-2628057D01*
X19235514Y-2485200D01*
X19092657Y-2413771D01*
X18878371Y-2413771D01*
X18735514Y-2342342D01*
X18664085Y-2199485D01*
X18664085Y-2128057D01*
X18735514Y-1985200D01*
X18878371Y-1913771D01*
X19092657Y-1913771D01*
X19235514Y-1985200D01*
X21092657Y-2342342D02*
X22235514Y-2342342D01*
X24092657Y-2913771D02*
X24092657Y-1413771D01*
X24592657Y-2485200D01*
X25092657Y-1413771D01*
X25092657Y-2913771D01*
X26664085Y-2770914D02*
X26592657Y-2842342D01*
X26378371Y-2913771D01*
X26235514Y-2913771D01*
X26021228Y-2842342D01*
X25878371Y-2699485D01*
X25806942Y-2556628D01*
X25735514Y-2270914D01*
X25735514Y-2056628D01*
X25806942Y-1770914D01*
X25878371Y-1628057D01*
X26021228Y-1485200D01*
X26235514Y-1413771D01*
X26378371Y-1413771D01*
X26592657Y-1485200D01*
X26664085Y-1556628D01*
X28021228Y-2913771D02*
X27306942Y-2913771D01*
X27306942Y-1413771D01*
X28735514Y-2056628D02*
X28592657Y-1985200D01*
X28521228Y-1913771D01*
X28449800Y-1770914D01*
X28449800Y-1699485D01*
X28521228Y-1556628D01*
X28592657Y-1485200D01*
X28735514Y-1413771D01*
X29021228Y-1413771D01*
X29164085Y-1485200D01*
X29235514Y-1556628D01*
X29306942Y-1699485D01*
X29306942Y-1770914D01*
X29235514Y-1913771D01*
X29164085Y-1985200D01*
X29021228Y-2056628D01*
X28735514Y-2056628D01*
X28592657Y-2128057D01*
X28521228Y-2199485D01*
X28449800Y-2342342D01*
X28449800Y-2628057D01*
X28521228Y-2770914D01*
X28592657Y-2842342D01*
X28735514Y-2913771D01*
X29021228Y-2913771D01*
X29164085Y-2842342D01*
X29235514Y-2770914D01*
X29306942Y-2628057D01*
X29306942Y-2342342D01*
X29235514Y-2199485D01*
X29164085Y-2128057D01*
X29021228Y-2056628D01*
X30592657Y-1413771D02*
X30306942Y-1413771D01*
X30164085Y-1485200D01*
X30092657Y-1556628D01*
X29949800Y-1770914D01*
X29878371Y-2056628D01*
X29878371Y-2628057D01*
X29949800Y-2770914D01*
X30021228Y-2842342D01*
X30164085Y-2913771D01*
X30449800Y-2913771D01*
X30592657Y-2842342D01*
X30664085Y-2770914D01*
X30735514Y-2628057D01*
X30735514Y-2270914D01*
X30664085Y-2128057D01*
X30592657Y-2056628D01*
X30449800Y-1985200D01*
X30164085Y-1985200D01*
X30021228Y-2056628D01*
X29949800Y-2128057D01*
X29878371Y-2270914D01*
X31378371Y-1913771D02*
X31378371Y-3199485D01*
X31306942Y-3342342D01*
X31164085Y-3413771D01*
X31092657Y-3413771D01*
X31378371Y-1413771D02*
X31306942Y-1485200D01*
X31378371Y-1556628D01*
X31449800Y-1485200D01*
X31378371Y-1413771D01*
X31378371Y-1556628D01*
X32092657Y-2913771D02*
X32092657Y-1913771D01*
X32092657Y-2199485D02*
X32164085Y-2056628D01*
X32235514Y-1985200D01*
X32378371Y-1913771D01*
X32521228Y-1913771D01*
D11*
X48371800Y-35448600D02*
G75*
G03X48371800Y-35448600I-150000J0D01*
G01*
D12*
X28449000Y-39914600D02*
X28449000Y-50204600D01*
X49529000Y-39914600D02*
X49529000Y-50204600D01*
D11*
X49224000Y-37999600D02*
G75*
G03X49224000Y-37999600I-100000J0D01*
G01*
D12*
X8772800Y-31669400D02*
X13172800Y-31669400D01*
X8772800Y-24769400D02*
X13172800Y-24769400D01*
D11*
X6882800Y-25294400D02*
G75*
G03X6882800Y-25294400I-100000J0D01*
G01*
D12*
X8620400Y-50617800D02*
X13020400Y-50617800D01*
X8620400Y-43717800D02*
X13020400Y-43717800D01*
D11*
X6730400Y-44242800D02*
G75*
G03X6730400Y-44242800I-100000J0D01*
G01*
D13*
X17625600Y-4881600D02*
X12165600Y-4881600D01*
X17625600Y-55801600D02*
X17625600Y-4881600D01*
X4705600Y-55801600D02*
X17625600Y-55801600D01*
X4705600Y-4881600D02*
X4705600Y-55801600D01*
X10165600Y-4881600D02*
X4705600Y-4881600D01*
X12165600Y-4881600D02*
G75*
G02X10165600Y-4881600I-1000000J0D01*
G01*
X27024800Y-9890000D02*
X25734800Y-9890000D01*
X27024800Y-8940000D02*
X27024800Y-9890000D01*
X27974800Y-8940000D02*
X27024800Y-8940000D01*
X47244800Y-8940000D02*
X47244800Y-9890000D01*
X46294800Y-8940000D02*
X47244800Y-8940000D01*
X27024800Y-29160000D02*
X27024800Y-28210000D01*
X27974800Y-29160000D02*
X27024800Y-29160000D01*
X47244800Y-29160000D02*
X47244800Y-28210000D01*
X46294800Y-29160000D02*
X47244800Y-29160000D01*
D14*
X37311800Y-3223600D02*
G75*
G03X37311800Y-3223600I-50000J0D01*
G01*
X38302400Y-3223600D02*
G75*
G03X38302400Y-3223600I-50000J0D01*
G01*
X39293000Y-3223600D02*
G75*
G03X39293000Y-3223600I-50000J0D01*
G01*
X40283600Y-3223600D02*
G75*
G03X40283600Y-3223600I-50000J0D01*
G01*
X41274200Y-3223600D02*
G75*
G03X41274200Y-3223600I-50000J0D01*
G01*
X42264800Y-3223600D02*
G75*
G03X42264800Y-3223600I-50000J0D01*
G01*
X43280800Y-3223600D02*
G75*
G03X43280800Y-3223600I-50000J0D01*
G01*
X44271400Y-3223600D02*
G75*
G03X44271400Y-3223600I-50000J0D01*
G01*
D13*
X9871400Y-6366200D02*
X11201400Y-6366200D01*
X9871400Y-7696200D02*
X9871400Y-6366200D01*
X9871400Y-8966200D02*
X12531400Y-8966200D01*
X12531400Y-8966200D02*
X12531400Y-21726200D01*
X9871400Y-8966200D02*
X9871400Y-21726200D01*
X9871400Y-21726200D02*
X12531400Y-21726200D01*
D15*
X37513390Y-4382247D02*
X37013390Y-4382247D01*
X37013390Y-4263200D01*
X37037200Y-4191771D01*
X37084819Y-4144152D01*
X37132438Y-4120342D01*
X37227676Y-4096533D01*
X37299104Y-4096533D01*
X37394342Y-4120342D01*
X37441961Y-4144152D01*
X37489580Y-4191771D01*
X37513390Y-4263200D01*
X37513390Y-4382247D01*
X37227676Y-3810819D02*
X37203866Y-3858438D01*
X37180057Y-3882247D01*
X37132438Y-3906057D01*
X37108628Y-3906057D01*
X37061009Y-3882247D01*
X37037200Y-3858438D01*
X37013390Y-3810819D01*
X37013390Y-3715580D01*
X37037200Y-3667961D01*
X37061009Y-3644152D01*
X37108628Y-3620342D01*
X37132438Y-3620342D01*
X37180057Y-3644152D01*
X37203866Y-3667961D01*
X37227676Y-3715580D01*
X37227676Y-3810819D01*
X37251485Y-3858438D01*
X37275295Y-3882247D01*
X37322914Y-3906057D01*
X37418152Y-3906057D01*
X37465771Y-3882247D01*
X37489580Y-3858438D01*
X37513390Y-3810819D01*
X37513390Y-3715580D01*
X37489580Y-3667961D01*
X37465771Y-3644152D01*
X37418152Y-3620342D01*
X37322914Y-3620342D01*
X37275295Y-3644152D01*
X37251485Y-3667961D01*
X37227676Y-3715580D01*
X38554790Y-4382247D02*
X38054790Y-4382247D01*
X38054790Y-4263200D01*
X38078600Y-4191771D01*
X38126219Y-4144152D01*
X38173838Y-4120342D01*
X38269076Y-4096533D01*
X38340504Y-4096533D01*
X38435742Y-4120342D01*
X38483361Y-4144152D01*
X38530980Y-4191771D01*
X38554790Y-4263200D01*
X38554790Y-4382247D01*
X38054790Y-3929866D02*
X38054790Y-3596533D01*
X38554790Y-3810819D01*
X39545390Y-4407647D02*
X39045390Y-4407647D01*
X39045390Y-4288600D01*
X39069200Y-4217171D01*
X39116819Y-4169552D01*
X39164438Y-4145742D01*
X39259676Y-4121933D01*
X39331104Y-4121933D01*
X39426342Y-4145742D01*
X39473961Y-4169552D01*
X39521580Y-4217171D01*
X39545390Y-4288600D01*
X39545390Y-4407647D01*
X39045390Y-3693361D02*
X39045390Y-3788600D01*
X39069200Y-3836219D01*
X39093009Y-3860028D01*
X39164438Y-3907647D01*
X39259676Y-3931457D01*
X39450152Y-3931457D01*
X39497771Y-3907647D01*
X39521580Y-3883838D01*
X39545390Y-3836219D01*
X39545390Y-3740980D01*
X39521580Y-3693361D01*
X39497771Y-3669552D01*
X39450152Y-3645742D01*
X39331104Y-3645742D01*
X39283485Y-3669552D01*
X39259676Y-3693361D01*
X39235866Y-3740980D01*
X39235866Y-3836219D01*
X39259676Y-3883838D01*
X39283485Y-3907647D01*
X39331104Y-3931457D01*
X40510590Y-4407647D02*
X40010590Y-4407647D01*
X40010590Y-4288600D01*
X40034400Y-4217171D01*
X40082019Y-4169552D01*
X40129638Y-4145742D01*
X40224876Y-4121933D01*
X40296304Y-4121933D01*
X40391542Y-4145742D01*
X40439161Y-4169552D01*
X40486780Y-4217171D01*
X40510590Y-4288600D01*
X40510590Y-4407647D01*
X40010590Y-3669552D02*
X40010590Y-3907647D01*
X40248685Y-3931457D01*
X40224876Y-3907647D01*
X40201066Y-3860028D01*
X40201066Y-3740980D01*
X40224876Y-3693361D01*
X40248685Y-3669552D01*
X40296304Y-3645742D01*
X40415352Y-3645742D01*
X40462971Y-3669552D01*
X40486780Y-3693361D01*
X40510590Y-3740980D01*
X40510590Y-3860028D01*
X40486780Y-3907647D01*
X40462971Y-3931457D01*
X41475790Y-4407647D02*
X40975790Y-4407647D01*
X40975790Y-4288600D01*
X40999600Y-4217171D01*
X41047219Y-4169552D01*
X41094838Y-4145742D01*
X41190076Y-4121933D01*
X41261504Y-4121933D01*
X41356742Y-4145742D01*
X41404361Y-4169552D01*
X41451980Y-4217171D01*
X41475790Y-4288600D01*
X41475790Y-4407647D01*
X41142457Y-3693361D02*
X41475790Y-3693361D01*
X40951980Y-3812409D02*
X41309123Y-3931457D01*
X41309123Y-3621933D01*
X42517190Y-4382247D02*
X42017190Y-4382247D01*
X42017190Y-4263200D01*
X42041000Y-4191771D01*
X42088619Y-4144152D01*
X42136238Y-4120342D01*
X42231476Y-4096533D01*
X42302904Y-4096533D01*
X42398142Y-4120342D01*
X42445761Y-4144152D01*
X42493380Y-4191771D01*
X42517190Y-4263200D01*
X42517190Y-4382247D01*
X42017190Y-3929866D02*
X42017190Y-3620342D01*
X42207666Y-3787009D01*
X42207666Y-3715580D01*
X42231476Y-3667961D01*
X42255285Y-3644152D01*
X42302904Y-3620342D01*
X42421952Y-3620342D01*
X42469571Y-3644152D01*
X42493380Y-3667961D01*
X42517190Y-3715580D01*
X42517190Y-3858438D01*
X42493380Y-3906057D01*
X42469571Y-3929866D01*
X43507790Y-4407647D02*
X43007790Y-4407647D01*
X43007790Y-4288600D01*
X43031600Y-4217171D01*
X43079219Y-4169552D01*
X43126838Y-4145742D01*
X43222076Y-4121933D01*
X43293504Y-4121933D01*
X43388742Y-4145742D01*
X43436361Y-4169552D01*
X43483980Y-4217171D01*
X43507790Y-4288600D01*
X43507790Y-4407647D01*
X43055409Y-3931457D02*
X43031600Y-3907647D01*
X43007790Y-3860028D01*
X43007790Y-3740980D01*
X43031600Y-3693361D01*
X43055409Y-3669552D01*
X43103028Y-3645742D01*
X43150647Y-3645742D01*
X43222076Y-3669552D01*
X43507790Y-3955266D01*
X43507790Y-3645742D01*
X44472990Y-4382247D02*
X43972990Y-4382247D01*
X43972990Y-4263200D01*
X43996800Y-4191771D01*
X44044419Y-4144152D01*
X44092038Y-4120342D01*
X44187276Y-4096533D01*
X44258704Y-4096533D01*
X44353942Y-4120342D01*
X44401561Y-4144152D01*
X44449180Y-4191771D01*
X44472990Y-4263200D01*
X44472990Y-4382247D01*
X44472990Y-3620342D02*
X44472990Y-3906057D01*
X44472990Y-3763200D02*
X43972990Y-3763200D01*
X44044419Y-3810819D01*
X44092038Y-3858438D01*
X44115847Y-3906057D01*
M02*
