G04 #@! TF.GenerationSoftware,KiCad,Pcbnew,(5.1.5)-3*
G04 #@! TF.CreationDate,2020-10-03T21:18:42-07:00*
G04 #@! TF.ProjectId,MCL86jr,4d434c38-366a-4722-9e6b-696361645f70,rev?*
G04 #@! TF.SameCoordinates,PX6b9fce8PY20f1980*
G04 #@! TF.FileFunction,Legend,Bot*
G04 #@! TF.FilePolarity,Positive*
%FSLAX46Y46*%
G04 Gerber Fmt 4.6, Leading zero omitted, Abs format (unit mm)*
G04 Created by KiCad (PCBNEW (5.1.5)-3) date 2020-10-03 21:18:42*
%MOMM*%
%LPD*%
G04 APERTURE LIST*
%ADD10C,0.100000*%
%ADD11C,0.127000*%
%ADD12C,0.200000*%
%ADD13C,0.120000*%
%ADD14C,0.015000*%
%ADD15C,0.150000*%
G04 APERTURE END LIST*
D10*
X25760400Y-10466200D02*
G75*
G03X25760400Y-10466200I-130000J0D01*
G01*
D11*
X23123800Y-34192800D02*
X27523800Y-34192800D01*
X23123800Y-41092800D02*
X27523800Y-41092800D01*
D12*
X21233800Y-40567800D02*
G75*
G03X21233800Y-40567800I-100000J0D01*
G01*
D10*
X20959800Y-6072000D02*
G75*
G03X20959800Y-6072000I-130000J0D01*
G01*
D13*
X47981800Y-43009400D02*
X47981800Y-44684400D01*
X48241800Y-43009400D02*
X47981800Y-43009400D01*
X48241800Y-40284400D02*
X48241800Y-43009400D01*
X48241800Y-37559400D02*
X47981800Y-37559400D01*
X48241800Y-40284400D02*
X48241800Y-37559400D01*
X42791800Y-43009400D02*
X43051800Y-43009400D01*
X42791800Y-40284400D02*
X42791800Y-43009400D01*
X42791800Y-37559400D02*
X43051800Y-37559400D01*
X42791800Y-40284400D02*
X42791800Y-37559400D01*
D14*
X27870964Y-10811069D02*
X27870964Y-11200257D01*
X27848071Y-11246044D01*
X27825178Y-11268938D01*
X27779391Y-11291831D01*
X27687817Y-11291831D01*
X27642030Y-11268938D01*
X27619137Y-11246044D01*
X27596243Y-11200257D01*
X27596243Y-10811069D01*
X27413096Y-10811069D02*
X27092588Y-10811069D01*
X27298629Y-11291831D01*
X25760704Y-41480180D02*
X25760704Y-42289704D01*
X25713085Y-42384942D01*
X25665466Y-42432561D01*
X25570228Y-42480180D01*
X25379752Y-42480180D01*
X25284514Y-42432561D01*
X25236895Y-42384942D01*
X25189276Y-42289704D01*
X25189276Y-41480180D01*
X24236895Y-41480180D02*
X24713085Y-41480180D01*
X24760704Y-41956371D01*
X24713085Y-41908752D01*
X24617847Y-41861133D01*
X24379752Y-41861133D01*
X24284514Y-41908752D01*
X24236895Y-41956371D01*
X24189276Y-42051609D01*
X24189276Y-42289704D01*
X24236895Y-42384942D01*
X24284514Y-42432561D01*
X24379752Y-42480180D01*
X24617847Y-42480180D01*
X24713085Y-42432561D01*
X24760704Y-42384942D01*
X23070364Y-6416869D02*
X23070364Y-6806057D01*
X23047471Y-6851844D01*
X23024578Y-6874738D01*
X22978791Y-6897631D01*
X22887217Y-6897631D01*
X22841430Y-6874738D01*
X22818537Y-6851844D01*
X22795643Y-6806057D01*
X22795643Y-6416869D01*
X22612496Y-6416869D02*
X22314881Y-6416869D01*
X22475135Y-6600017D01*
X22406455Y-6600017D01*
X22360668Y-6622910D01*
X22337775Y-6645803D01*
X22314881Y-6691590D01*
X22314881Y-6806057D01*
X22337775Y-6851844D01*
X22360668Y-6874738D01*
X22406455Y-6897631D01*
X22543816Y-6897631D01*
X22589602Y-6874738D01*
X22612496Y-6851844D01*
D15*
X35305942Y-19804142D02*
X35353561Y-19756523D01*
X35401180Y-19613666D01*
X35401180Y-19518428D01*
X35353561Y-19375571D01*
X35258323Y-19280333D01*
X35163085Y-19232714D01*
X34972609Y-19185095D01*
X34829752Y-19185095D01*
X34639276Y-19232714D01*
X34544038Y-19280333D01*
X34448800Y-19375571D01*
X34401180Y-19518428D01*
X34401180Y-19613666D01*
X34448800Y-19756523D01*
X34496419Y-19804142D01*
X34401180Y-20137476D02*
X34401180Y-20756523D01*
X34782133Y-20423190D01*
X34782133Y-20566047D01*
X34829752Y-20661285D01*
X34877371Y-20708904D01*
X34972609Y-20756523D01*
X35210704Y-20756523D01*
X35305942Y-20708904D01*
X35353561Y-20661285D01*
X35401180Y-20566047D01*
X35401180Y-20280333D01*
X35353561Y-20185095D01*
X35305942Y-20137476D01*
X35401180Y-21708904D02*
X35401180Y-21137476D01*
X35401180Y-21423190D02*
X34401180Y-21423190D01*
X34544038Y-21327952D01*
X34639276Y-21232714D01*
X34686895Y-21137476D01*
X31224457Y-46713742D02*
X31272076Y-46761361D01*
X31414933Y-46808980D01*
X31510171Y-46808980D01*
X31653028Y-46761361D01*
X31748266Y-46666123D01*
X31795885Y-46570885D01*
X31843504Y-46380409D01*
X31843504Y-46237552D01*
X31795885Y-46047076D01*
X31748266Y-45951838D01*
X31653028Y-45856600D01*
X31510171Y-45808980D01*
X31414933Y-45808980D01*
X31272076Y-45856600D01*
X31224457Y-45904219D01*
X30891123Y-45808980D02*
X30272076Y-45808980D01*
X30605409Y-46189933D01*
X30462552Y-46189933D01*
X30367314Y-46237552D01*
X30319695Y-46285171D01*
X30272076Y-46380409D01*
X30272076Y-46618504D01*
X30319695Y-46713742D01*
X30367314Y-46761361D01*
X30462552Y-46808980D01*
X30748266Y-46808980D01*
X30843504Y-46761361D01*
X30891123Y-46713742D01*
X29653028Y-45808980D02*
X29557790Y-45808980D01*
X29462552Y-45856600D01*
X29414933Y-45904219D01*
X29367314Y-45999457D01*
X29319695Y-46189933D01*
X29319695Y-46428028D01*
X29367314Y-46618504D01*
X29414933Y-46713742D01*
X29462552Y-46761361D01*
X29557790Y-46808980D01*
X29653028Y-46808980D01*
X29748266Y-46761361D01*
X29795885Y-46713742D01*
X29843504Y-46618504D01*
X29891123Y-46428028D01*
X29891123Y-46189933D01*
X29843504Y-45999457D01*
X29795885Y-45904219D01*
X29748266Y-45856600D01*
X29653028Y-45808980D01*
X49641857Y-8791542D02*
X49689476Y-8839161D01*
X49832333Y-8886780D01*
X49927571Y-8886780D01*
X50070428Y-8839161D01*
X50165666Y-8743923D01*
X50213285Y-8648685D01*
X50260904Y-8458209D01*
X50260904Y-8315352D01*
X50213285Y-8124876D01*
X50165666Y-8029638D01*
X50070428Y-7934400D01*
X49927571Y-7886780D01*
X49832333Y-7886780D01*
X49689476Y-7934400D01*
X49641857Y-7982019D01*
X49260904Y-7982019D02*
X49213285Y-7934400D01*
X49118047Y-7886780D01*
X48879952Y-7886780D01*
X48784714Y-7934400D01*
X48737095Y-7982019D01*
X48689476Y-8077257D01*
X48689476Y-8172495D01*
X48737095Y-8315352D01*
X49308523Y-8886780D01*
X48689476Y-8886780D01*
X48213285Y-8886780D02*
X48022809Y-8886780D01*
X47927571Y-8839161D01*
X47879952Y-8791542D01*
X47784714Y-8648685D01*
X47737095Y-8458209D01*
X47737095Y-8077257D01*
X47784714Y-7982019D01*
X47832333Y-7934400D01*
X47927571Y-7886780D01*
X48118047Y-7886780D01*
X48213285Y-7934400D01*
X48260904Y-7982019D01*
X48308523Y-8077257D01*
X48308523Y-8315352D01*
X48260904Y-8410590D01*
X48213285Y-8458209D01*
X48118047Y-8505828D01*
X47927571Y-8505828D01*
X47832333Y-8458209D01*
X47784714Y-8410590D01*
X47737095Y-8315352D01*
X31876942Y-21836142D02*
X31924561Y-21788523D01*
X31972180Y-21645666D01*
X31972180Y-21550428D01*
X31924561Y-21407571D01*
X31829323Y-21312333D01*
X31734085Y-21264714D01*
X31543609Y-21217095D01*
X31400752Y-21217095D01*
X31210276Y-21264714D01*
X31115038Y-21312333D01*
X31019800Y-21407571D01*
X30972180Y-21550428D01*
X30972180Y-21645666D01*
X31019800Y-21788523D01*
X31067419Y-21836142D01*
X31067419Y-22217095D02*
X31019800Y-22264714D01*
X30972180Y-22359952D01*
X30972180Y-22598047D01*
X31019800Y-22693285D01*
X31067419Y-22740904D01*
X31162657Y-22788523D01*
X31257895Y-22788523D01*
X31400752Y-22740904D01*
X31972180Y-22169476D01*
X31972180Y-22788523D01*
X31400752Y-23359952D02*
X31353133Y-23264714D01*
X31305514Y-23217095D01*
X31210276Y-23169476D01*
X31162657Y-23169476D01*
X31067419Y-23217095D01*
X31019800Y-23264714D01*
X30972180Y-23359952D01*
X30972180Y-23550428D01*
X31019800Y-23645666D01*
X31067419Y-23693285D01*
X31162657Y-23740904D01*
X31210276Y-23740904D01*
X31305514Y-23693285D01*
X31353133Y-23645666D01*
X31400752Y-23550428D01*
X31400752Y-23359952D01*
X31448371Y-23264714D01*
X31495990Y-23217095D01*
X31591228Y-23169476D01*
X31781704Y-23169476D01*
X31876942Y-23217095D01*
X31924561Y-23264714D01*
X31972180Y-23359952D01*
X31972180Y-23550428D01*
X31924561Y-23645666D01*
X31876942Y-23693285D01*
X31781704Y-23740904D01*
X31591228Y-23740904D01*
X31495990Y-23693285D01*
X31448371Y-23645666D01*
X31400752Y-23550428D01*
X15141542Y-40784542D02*
X15189161Y-40736923D01*
X15236780Y-40594066D01*
X15236780Y-40498828D01*
X15189161Y-40355971D01*
X15093923Y-40260733D01*
X14998685Y-40213114D01*
X14808209Y-40165495D01*
X14665352Y-40165495D01*
X14474876Y-40213114D01*
X14379638Y-40260733D01*
X14284400Y-40355971D01*
X14236780Y-40498828D01*
X14236780Y-40594066D01*
X14284400Y-40736923D01*
X14332019Y-40784542D01*
X14332019Y-41165495D02*
X14284400Y-41213114D01*
X14236780Y-41308352D01*
X14236780Y-41546447D01*
X14284400Y-41641685D01*
X14332019Y-41689304D01*
X14427257Y-41736923D01*
X14522495Y-41736923D01*
X14665352Y-41689304D01*
X15236780Y-41117876D01*
X15236780Y-41736923D01*
X14236780Y-42070257D02*
X14236780Y-42689304D01*
X14617733Y-42355971D01*
X14617733Y-42498828D01*
X14665352Y-42594066D01*
X14712971Y-42641685D01*
X14808209Y-42689304D01*
X15046304Y-42689304D01*
X15141542Y-42641685D01*
X15189161Y-42594066D01*
X15236780Y-42498828D01*
X15236780Y-42213114D01*
X15189161Y-42117876D01*
X15141542Y-42070257D01*
X45342142Y-32224742D02*
X45389761Y-32177123D01*
X45437380Y-32034266D01*
X45437380Y-31939028D01*
X45389761Y-31796171D01*
X45294523Y-31700933D01*
X45199285Y-31653314D01*
X45008809Y-31605695D01*
X44865952Y-31605695D01*
X44675476Y-31653314D01*
X44580238Y-31700933D01*
X44485000Y-31796171D01*
X44437380Y-31939028D01*
X44437380Y-32034266D01*
X44485000Y-32177123D01*
X44532619Y-32224742D01*
X44532619Y-32605695D02*
X44485000Y-32653314D01*
X44437380Y-32748552D01*
X44437380Y-32986647D01*
X44485000Y-33081885D01*
X44532619Y-33129504D01*
X44627857Y-33177123D01*
X44723095Y-33177123D01*
X44865952Y-33129504D01*
X45437380Y-32558076D01*
X45437380Y-33177123D01*
X44437380Y-33510457D02*
X44437380Y-34177123D01*
X45437380Y-33748552D01*
X45778657Y-7369142D02*
X45826276Y-7416761D01*
X45969133Y-7464380D01*
X46064371Y-7464380D01*
X46207228Y-7416761D01*
X46302466Y-7321523D01*
X46350085Y-7226285D01*
X46397704Y-7035809D01*
X46397704Y-6892952D01*
X46350085Y-6702476D01*
X46302466Y-6607238D01*
X46207228Y-6512000D01*
X46064371Y-6464380D01*
X45969133Y-6464380D01*
X45826276Y-6512000D01*
X45778657Y-6559619D01*
X45397704Y-6559619D02*
X45350085Y-6512000D01*
X45254847Y-6464380D01*
X45016752Y-6464380D01*
X44921514Y-6512000D01*
X44873895Y-6559619D01*
X44826276Y-6654857D01*
X44826276Y-6750095D01*
X44873895Y-6892952D01*
X45445323Y-7464380D01*
X44826276Y-7464380D01*
X43969133Y-6464380D02*
X44159609Y-6464380D01*
X44254847Y-6512000D01*
X44302466Y-6559619D01*
X44397704Y-6702476D01*
X44445323Y-6892952D01*
X44445323Y-7273904D01*
X44397704Y-7369142D01*
X44350085Y-7416761D01*
X44254847Y-7464380D01*
X44064371Y-7464380D01*
X43969133Y-7416761D01*
X43921514Y-7369142D01*
X43873895Y-7273904D01*
X43873895Y-7035809D01*
X43921514Y-6940571D01*
X43969133Y-6892952D01*
X44064371Y-6845333D01*
X44254847Y-6845333D01*
X44350085Y-6892952D01*
X44397704Y-6940571D01*
X44445323Y-7035809D01*
X31808657Y-7369142D02*
X31856276Y-7416761D01*
X31999133Y-7464380D01*
X32094371Y-7464380D01*
X32237228Y-7416761D01*
X32332466Y-7321523D01*
X32380085Y-7226285D01*
X32427704Y-7035809D01*
X32427704Y-6892952D01*
X32380085Y-6702476D01*
X32332466Y-6607238D01*
X32237228Y-6512000D01*
X32094371Y-6464380D01*
X31999133Y-6464380D01*
X31856276Y-6512000D01*
X31808657Y-6559619D01*
X31427704Y-6559619D02*
X31380085Y-6512000D01*
X31284847Y-6464380D01*
X31046752Y-6464380D01*
X30951514Y-6512000D01*
X30903895Y-6559619D01*
X30856276Y-6654857D01*
X30856276Y-6750095D01*
X30903895Y-6892952D01*
X31475323Y-7464380D01*
X30856276Y-7464380D01*
X29951514Y-6464380D02*
X30427704Y-6464380D01*
X30475323Y-6940571D01*
X30427704Y-6892952D01*
X30332466Y-6845333D01*
X30094371Y-6845333D01*
X29999133Y-6892952D01*
X29951514Y-6940571D01*
X29903895Y-7035809D01*
X29903895Y-7273904D01*
X29951514Y-7369142D01*
X29999133Y-7416761D01*
X30094371Y-7464380D01*
X30332466Y-7464380D01*
X30427704Y-7416761D01*
X30475323Y-7369142D01*
X44214980Y-32580342D02*
X43738790Y-32247009D01*
X44214980Y-32008914D02*
X43214980Y-32008914D01*
X43214980Y-32389866D01*
X43262600Y-32485104D01*
X43310219Y-32532723D01*
X43405457Y-32580342D01*
X43548314Y-32580342D01*
X43643552Y-32532723D01*
X43691171Y-32485104D01*
X43738790Y-32389866D01*
X43738790Y-32008914D01*
X44214980Y-33532723D02*
X44214980Y-32961295D01*
X44214980Y-33247009D02*
X43214980Y-33247009D01*
X43357838Y-33151771D01*
X43453076Y-33056533D01*
X43500695Y-32961295D01*
X43214980Y-34389866D02*
X43214980Y-34199390D01*
X43262600Y-34104152D01*
X43310219Y-34056533D01*
X43453076Y-33961295D01*
X43643552Y-33913676D01*
X44024504Y-33913676D01*
X44119742Y-33961295D01*
X44167361Y-34008914D01*
X44214980Y-34104152D01*
X44214980Y-34294628D01*
X44167361Y-34389866D01*
X44119742Y-34437485D01*
X44024504Y-34485104D01*
X43786409Y-34485104D01*
X43691171Y-34437485D01*
X43643552Y-34389866D01*
X43595933Y-34294628D01*
X43595933Y-34104152D01*
X43643552Y-34008914D01*
X43691171Y-33961295D01*
X43786409Y-33913676D01*
X23223457Y-47240780D02*
X23556790Y-46764590D01*
X23794885Y-47240780D02*
X23794885Y-46240780D01*
X23413933Y-46240780D01*
X23318695Y-46288400D01*
X23271076Y-46336019D01*
X23223457Y-46431257D01*
X23223457Y-46574114D01*
X23271076Y-46669352D01*
X23318695Y-46716971D01*
X23413933Y-46764590D01*
X23794885Y-46764590D01*
X22271076Y-47240780D02*
X22842504Y-47240780D01*
X22556790Y-47240780D02*
X22556790Y-46240780D01*
X22652028Y-46383638D01*
X22747266Y-46478876D01*
X22842504Y-46526495D01*
X21366314Y-46240780D02*
X21842504Y-46240780D01*
X21890123Y-46716971D01*
X21842504Y-46669352D01*
X21747266Y-46621733D01*
X21509171Y-46621733D01*
X21413933Y-46669352D01*
X21366314Y-46716971D01*
X21318695Y-46812209D01*
X21318695Y-47050304D01*
X21366314Y-47145542D01*
X21413933Y-47193161D01*
X21509171Y-47240780D01*
X21747266Y-47240780D01*
X21842504Y-47193161D01*
X21890123Y-47145542D01*
X29000380Y-25569942D02*
X28524190Y-25236609D01*
X29000380Y-24998514D02*
X28000380Y-24998514D01*
X28000380Y-25379466D01*
X28048000Y-25474704D01*
X28095619Y-25522323D01*
X28190857Y-25569942D01*
X28333714Y-25569942D01*
X28428952Y-25522323D01*
X28476571Y-25474704D01*
X28524190Y-25379466D01*
X28524190Y-24998514D01*
X29000380Y-26522323D02*
X29000380Y-25950895D01*
X29000380Y-26236609D02*
X28000380Y-26236609D01*
X28143238Y-26141371D01*
X28238476Y-26046133D01*
X28286095Y-25950895D01*
X28333714Y-27379466D02*
X29000380Y-27379466D01*
X27952761Y-27141371D02*
X28667047Y-26903276D01*
X28667047Y-27522323D01*
X27527180Y-26027142D02*
X27050990Y-25693809D01*
X27527180Y-25455714D02*
X26527180Y-25455714D01*
X26527180Y-25836666D01*
X26574800Y-25931904D01*
X26622419Y-25979523D01*
X26717657Y-26027142D01*
X26860514Y-26027142D01*
X26955752Y-25979523D01*
X27003371Y-25931904D01*
X27050990Y-25836666D01*
X27050990Y-25455714D01*
X27527180Y-26979523D02*
X27527180Y-26408095D01*
X27527180Y-26693809D02*
X26527180Y-26693809D01*
X26670038Y-26598571D01*
X26765276Y-26503333D01*
X26812895Y-26408095D01*
X26527180Y-27312857D02*
X26527180Y-27931904D01*
X26908133Y-27598571D01*
X26908133Y-27741428D01*
X26955752Y-27836666D01*
X27003371Y-27884285D01*
X27098609Y-27931904D01*
X27336704Y-27931904D01*
X27431942Y-27884285D01*
X27479561Y-27836666D01*
X27527180Y-27741428D01*
X27527180Y-27455714D01*
X27479561Y-27360476D01*
X27431942Y-27312857D01*
X44799180Y-26027142D02*
X44322990Y-25693809D01*
X44799180Y-25455714D02*
X43799180Y-25455714D01*
X43799180Y-25836666D01*
X43846800Y-25931904D01*
X43894419Y-25979523D01*
X43989657Y-26027142D01*
X44132514Y-26027142D01*
X44227752Y-25979523D01*
X44275371Y-25931904D01*
X44322990Y-25836666D01*
X44322990Y-25455714D01*
X44799180Y-26979523D02*
X44799180Y-26408095D01*
X44799180Y-26693809D02*
X43799180Y-26693809D01*
X43942038Y-26598571D01*
X44037276Y-26503333D01*
X44084895Y-26408095D01*
X43894419Y-27360476D02*
X43846800Y-27408095D01*
X43799180Y-27503333D01*
X43799180Y-27741428D01*
X43846800Y-27836666D01*
X43894419Y-27884285D01*
X43989657Y-27931904D01*
X44084895Y-27931904D01*
X44227752Y-27884285D01*
X44799180Y-27312857D01*
X44799180Y-27931904D01*
X39211180Y-26027142D02*
X38734990Y-25693809D01*
X39211180Y-25455714D02*
X38211180Y-25455714D01*
X38211180Y-25836666D01*
X38258800Y-25931904D01*
X38306419Y-25979523D01*
X38401657Y-26027142D01*
X38544514Y-26027142D01*
X38639752Y-25979523D01*
X38687371Y-25931904D01*
X38734990Y-25836666D01*
X38734990Y-25455714D01*
X39211180Y-26979523D02*
X39211180Y-26408095D01*
X39211180Y-26693809D02*
X38211180Y-26693809D01*
X38354038Y-26598571D01*
X38449276Y-26503333D01*
X38496895Y-26408095D01*
X39211180Y-27931904D02*
X39211180Y-27360476D01*
X39211180Y-27646190D02*
X38211180Y-27646190D01*
X38354038Y-27550952D01*
X38449276Y-27455714D01*
X38496895Y-27360476D01*
X43656180Y-26027142D02*
X43179990Y-25693809D01*
X43656180Y-25455714D02*
X42656180Y-25455714D01*
X42656180Y-25836666D01*
X42703800Y-25931904D01*
X42751419Y-25979523D01*
X42846657Y-26027142D01*
X42989514Y-26027142D01*
X43084752Y-25979523D01*
X43132371Y-25931904D01*
X43179990Y-25836666D01*
X43179990Y-25455714D01*
X43656180Y-26979523D02*
X43656180Y-26408095D01*
X43656180Y-26693809D02*
X42656180Y-26693809D01*
X42799038Y-26598571D01*
X42894276Y-26503333D01*
X42941895Y-26408095D01*
X42656180Y-27598571D02*
X42656180Y-27693809D01*
X42703800Y-27789047D01*
X42751419Y-27836666D01*
X42846657Y-27884285D01*
X43037133Y-27931904D01*
X43275228Y-27931904D01*
X43465704Y-27884285D01*
X43560942Y-27836666D01*
X43608561Y-27789047D01*
X43656180Y-27693809D01*
X43656180Y-27598571D01*
X43608561Y-27503333D01*
X43560942Y-27455714D01*
X43465704Y-27408095D01*
X43275228Y-27360476D01*
X43037133Y-27360476D01*
X42846657Y-27408095D01*
X42751419Y-27455714D01*
X42703800Y-27503333D01*
X42656180Y-27598571D01*
X29006742Y-12006342D02*
X29054361Y-11958723D01*
X29101980Y-11815866D01*
X29101980Y-11720628D01*
X29054361Y-11577771D01*
X28959123Y-11482533D01*
X28863885Y-11434914D01*
X28673409Y-11387295D01*
X28530552Y-11387295D01*
X28340076Y-11434914D01*
X28244838Y-11482533D01*
X28149600Y-11577771D01*
X28101980Y-11720628D01*
X28101980Y-11815866D01*
X28149600Y-11958723D01*
X28197219Y-12006342D01*
X29101980Y-12958723D02*
X29101980Y-12387295D01*
X29101980Y-12673009D02*
X28101980Y-12673009D01*
X28244838Y-12577771D01*
X28340076Y-12482533D01*
X28387695Y-12387295D01*
X29101980Y-13434914D02*
X29101980Y-13625390D01*
X29054361Y-13720628D01*
X29006742Y-13768247D01*
X28863885Y-13863485D01*
X28673409Y-13911104D01*
X28292457Y-13911104D01*
X28197219Y-13863485D01*
X28149600Y-13815866D01*
X28101980Y-13720628D01*
X28101980Y-13530152D01*
X28149600Y-13434914D01*
X28197219Y-13387295D01*
X28292457Y-13339676D01*
X28530552Y-13339676D01*
X28625790Y-13387295D01*
X28673409Y-13434914D01*
X28721028Y-13530152D01*
X28721028Y-13720628D01*
X28673409Y-13815866D01*
X28625790Y-13863485D01*
X28530552Y-13911104D01*
X27363657Y-7369142D02*
X27411276Y-7416761D01*
X27554133Y-7464380D01*
X27649371Y-7464380D01*
X27792228Y-7416761D01*
X27887466Y-7321523D01*
X27935085Y-7226285D01*
X27982704Y-7035809D01*
X27982704Y-6892952D01*
X27935085Y-6702476D01*
X27887466Y-6607238D01*
X27792228Y-6512000D01*
X27649371Y-6464380D01*
X27554133Y-6464380D01*
X27411276Y-6512000D01*
X27363657Y-6559619D01*
X26411276Y-7464380D02*
X26982704Y-7464380D01*
X26696990Y-7464380D02*
X26696990Y-6464380D01*
X26792228Y-6607238D01*
X26887466Y-6702476D01*
X26982704Y-6750095D01*
X25839847Y-6892952D02*
X25935085Y-6845333D01*
X25982704Y-6797714D01*
X26030323Y-6702476D01*
X26030323Y-6654857D01*
X25982704Y-6559619D01*
X25935085Y-6512000D01*
X25839847Y-6464380D01*
X25649371Y-6464380D01*
X25554133Y-6512000D01*
X25506514Y-6559619D01*
X25458895Y-6654857D01*
X25458895Y-6702476D01*
X25506514Y-6797714D01*
X25554133Y-6845333D01*
X25649371Y-6892952D01*
X25839847Y-6892952D01*
X25935085Y-6940571D01*
X25982704Y-6988190D01*
X26030323Y-7083428D01*
X26030323Y-7273904D01*
X25982704Y-7369142D01*
X25935085Y-7416761D01*
X25839847Y-7464380D01*
X25649371Y-7464380D01*
X25554133Y-7416761D01*
X25506514Y-7369142D01*
X25458895Y-7273904D01*
X25458895Y-7083428D01*
X25506514Y-6988190D01*
X25554133Y-6940571D01*
X25649371Y-6892952D01*
X27363657Y-6099142D02*
X27411276Y-6146761D01*
X27554133Y-6194380D01*
X27649371Y-6194380D01*
X27792228Y-6146761D01*
X27887466Y-6051523D01*
X27935085Y-5956285D01*
X27982704Y-5765809D01*
X27982704Y-5622952D01*
X27935085Y-5432476D01*
X27887466Y-5337238D01*
X27792228Y-5242000D01*
X27649371Y-5194380D01*
X27554133Y-5194380D01*
X27411276Y-5242000D01*
X27363657Y-5289619D01*
X26411276Y-6194380D02*
X26982704Y-6194380D01*
X26696990Y-6194380D02*
X26696990Y-5194380D01*
X26792228Y-5337238D01*
X26887466Y-5432476D01*
X26982704Y-5480095D01*
X26077942Y-5194380D02*
X25411276Y-5194380D01*
X25839847Y-6194380D01*
X22156657Y-8258142D02*
X22204276Y-8305761D01*
X22347133Y-8353380D01*
X22442371Y-8353380D01*
X22585228Y-8305761D01*
X22680466Y-8210523D01*
X22728085Y-8115285D01*
X22775704Y-7924809D01*
X22775704Y-7781952D01*
X22728085Y-7591476D01*
X22680466Y-7496238D01*
X22585228Y-7401000D01*
X22442371Y-7353380D01*
X22347133Y-7353380D01*
X22204276Y-7401000D01*
X22156657Y-7448619D01*
X21204276Y-8353380D02*
X21775704Y-8353380D01*
X21489990Y-8353380D02*
X21489990Y-7353380D01*
X21585228Y-7496238D01*
X21680466Y-7591476D01*
X21775704Y-7639095D01*
X20347133Y-7353380D02*
X20537609Y-7353380D01*
X20632847Y-7401000D01*
X20680466Y-7448619D01*
X20775704Y-7591476D01*
X20823323Y-7781952D01*
X20823323Y-8162904D01*
X20775704Y-8258142D01*
X20728085Y-8305761D01*
X20632847Y-8353380D01*
X20442371Y-8353380D01*
X20347133Y-8305761D01*
X20299514Y-8258142D01*
X20251895Y-8162904D01*
X20251895Y-7924809D01*
X20299514Y-7829571D01*
X20347133Y-7781952D01*
X20442371Y-7734333D01*
X20632847Y-7734333D01*
X20728085Y-7781952D01*
X20775704Y-7829571D01*
X20823323Y-7924809D01*
X27457342Y-41749742D02*
X27504961Y-41702123D01*
X27552580Y-41559266D01*
X27552580Y-41464028D01*
X27504961Y-41321171D01*
X27409723Y-41225933D01*
X27314485Y-41178314D01*
X27124009Y-41130695D01*
X26981152Y-41130695D01*
X26790676Y-41178314D01*
X26695438Y-41225933D01*
X26600200Y-41321171D01*
X26552580Y-41464028D01*
X26552580Y-41559266D01*
X26600200Y-41702123D01*
X26647819Y-41749742D01*
X26647819Y-42130695D02*
X26600200Y-42178314D01*
X26552580Y-42273552D01*
X26552580Y-42511647D01*
X26600200Y-42606885D01*
X26647819Y-42654504D01*
X26743057Y-42702123D01*
X26838295Y-42702123D01*
X26981152Y-42654504D01*
X27552580Y-42083076D01*
X27552580Y-42702123D01*
X26885914Y-43559266D02*
X27552580Y-43559266D01*
X26504961Y-43321171D02*
X27219247Y-43083076D01*
X27219247Y-43702123D01*
X10312342Y-25392142D02*
X10359961Y-25344523D01*
X10407580Y-25201666D01*
X10407580Y-25106428D01*
X10359961Y-24963571D01*
X10264723Y-24868333D01*
X10169485Y-24820714D01*
X9979009Y-24773095D01*
X9836152Y-24773095D01*
X9645676Y-24820714D01*
X9550438Y-24868333D01*
X9455200Y-24963571D01*
X9407580Y-25106428D01*
X9407580Y-25201666D01*
X9455200Y-25344523D01*
X9502819Y-25392142D01*
X9502819Y-25773095D02*
X9455200Y-25820714D01*
X9407580Y-25915952D01*
X9407580Y-26154047D01*
X9455200Y-26249285D01*
X9502819Y-26296904D01*
X9598057Y-26344523D01*
X9693295Y-26344523D01*
X9836152Y-26296904D01*
X10407580Y-25725476D01*
X10407580Y-26344523D01*
X9502819Y-26725476D02*
X9455200Y-26773095D01*
X9407580Y-26868333D01*
X9407580Y-27106428D01*
X9455200Y-27201666D01*
X9502819Y-27249285D01*
X9598057Y-27296904D01*
X9693295Y-27296904D01*
X9836152Y-27249285D01*
X10407580Y-26677857D01*
X10407580Y-27296904D01*
X25712657Y-45088142D02*
X25760276Y-45135761D01*
X25903133Y-45183380D01*
X25998371Y-45183380D01*
X26141228Y-45135761D01*
X26236466Y-45040523D01*
X26284085Y-44945285D01*
X26331704Y-44754809D01*
X26331704Y-44611952D01*
X26284085Y-44421476D01*
X26236466Y-44326238D01*
X26141228Y-44231000D01*
X25998371Y-44183380D01*
X25903133Y-44183380D01*
X25760276Y-44231000D01*
X25712657Y-44278619D01*
X25331704Y-44278619D02*
X25284085Y-44231000D01*
X25188847Y-44183380D01*
X24950752Y-44183380D01*
X24855514Y-44231000D01*
X24807895Y-44278619D01*
X24760276Y-44373857D01*
X24760276Y-44469095D01*
X24807895Y-44611952D01*
X25379323Y-45183380D01*
X24760276Y-45183380D01*
X23807895Y-45183380D02*
X24379323Y-45183380D01*
X24093609Y-45183380D02*
X24093609Y-44183380D01*
X24188847Y-44326238D01*
X24284085Y-44421476D01*
X24379323Y-44469095D01*
X51590542Y-48683942D02*
X51638161Y-48636323D01*
X51685780Y-48493466D01*
X51685780Y-48398228D01*
X51638161Y-48255371D01*
X51542923Y-48160133D01*
X51447685Y-48112514D01*
X51257209Y-48064895D01*
X51114352Y-48064895D01*
X50923876Y-48112514D01*
X50828638Y-48160133D01*
X50733400Y-48255371D01*
X50685780Y-48398228D01*
X50685780Y-48493466D01*
X50733400Y-48636323D01*
X50781019Y-48683942D01*
X50781019Y-49064895D02*
X50733400Y-49112514D01*
X50685780Y-49207752D01*
X50685780Y-49445847D01*
X50733400Y-49541085D01*
X50781019Y-49588704D01*
X50876257Y-49636323D01*
X50971495Y-49636323D01*
X51114352Y-49588704D01*
X51685780Y-49017276D01*
X51685780Y-49636323D01*
X50685780Y-50255371D02*
X50685780Y-50350609D01*
X50733400Y-50445847D01*
X50781019Y-50493466D01*
X50876257Y-50541085D01*
X51066733Y-50588704D01*
X51304828Y-50588704D01*
X51495304Y-50541085D01*
X51590542Y-50493466D01*
X51638161Y-50445847D01*
X51685780Y-50350609D01*
X51685780Y-50255371D01*
X51638161Y-50160133D01*
X51590542Y-50112514D01*
X51495304Y-50064895D01*
X51304828Y-50017276D01*
X51066733Y-50017276D01*
X50876257Y-50064895D01*
X50781019Y-50112514D01*
X50733400Y-50160133D01*
X50685780Y-50255371D01*
X37391942Y-25265142D02*
X37439561Y-25217523D01*
X37487180Y-25074666D01*
X37487180Y-24979428D01*
X37439561Y-24836571D01*
X37344323Y-24741333D01*
X37249085Y-24693714D01*
X37058609Y-24646095D01*
X36915752Y-24646095D01*
X36725276Y-24693714D01*
X36630038Y-24741333D01*
X36534800Y-24836571D01*
X36487180Y-24979428D01*
X36487180Y-25074666D01*
X36534800Y-25217523D01*
X36582419Y-25265142D01*
X37487180Y-26217523D02*
X37487180Y-25646095D01*
X37487180Y-25931809D02*
X36487180Y-25931809D01*
X36630038Y-25836571D01*
X36725276Y-25741333D01*
X36772895Y-25646095D01*
X36487180Y-27122285D02*
X36487180Y-26646095D01*
X36963371Y-26598476D01*
X36915752Y-26646095D01*
X36868133Y-26741333D01*
X36868133Y-26979428D01*
X36915752Y-27074666D01*
X36963371Y-27122285D01*
X37058609Y-27169904D01*
X37296704Y-27169904D01*
X37391942Y-27122285D01*
X37439561Y-27074666D01*
X37487180Y-26979428D01*
X37487180Y-26741333D01*
X37439561Y-26646095D01*
X37391942Y-26598476D01*
X49707742Y-26408142D02*
X49755361Y-26360523D01*
X49802980Y-26217666D01*
X49802980Y-26122428D01*
X49755361Y-25979571D01*
X49660123Y-25884333D01*
X49564885Y-25836714D01*
X49374409Y-25789095D01*
X49231552Y-25789095D01*
X49041076Y-25836714D01*
X48945838Y-25884333D01*
X48850600Y-25979571D01*
X48802980Y-26122428D01*
X48802980Y-26217666D01*
X48850600Y-26360523D01*
X48898219Y-26408142D01*
X49802980Y-27360523D02*
X49802980Y-26789095D01*
X49802980Y-27074809D02*
X48802980Y-27074809D01*
X48945838Y-26979571D01*
X49041076Y-26884333D01*
X49088695Y-26789095D01*
X49136314Y-28217666D02*
X49802980Y-28217666D01*
X48755361Y-27979571D02*
X49469647Y-27741476D01*
X49469647Y-28360523D01*
X45016657Y-18999142D02*
X45064276Y-19046761D01*
X45207133Y-19094380D01*
X45302371Y-19094380D01*
X45445228Y-19046761D01*
X45540466Y-18951523D01*
X45588085Y-18856285D01*
X45635704Y-18665809D01*
X45635704Y-18522952D01*
X45588085Y-18332476D01*
X45540466Y-18237238D01*
X45445228Y-18142000D01*
X45302371Y-18094380D01*
X45207133Y-18094380D01*
X45064276Y-18142000D01*
X45016657Y-18189619D01*
X44064276Y-19094380D02*
X44635704Y-19094380D01*
X44349990Y-19094380D02*
X44349990Y-18094380D01*
X44445228Y-18237238D01*
X44540466Y-18332476D01*
X44635704Y-18380095D01*
X43730942Y-18094380D02*
X43111895Y-18094380D01*
X43445228Y-18475333D01*
X43302371Y-18475333D01*
X43207133Y-18522952D01*
X43159514Y-18570571D01*
X43111895Y-18665809D01*
X43111895Y-18903904D01*
X43159514Y-18999142D01*
X43207133Y-19046761D01*
X43302371Y-19094380D01*
X43588085Y-19094380D01*
X43683323Y-19046761D01*
X43730942Y-18999142D01*
X35559942Y-11295142D02*
X35607561Y-11247523D01*
X35655180Y-11104666D01*
X35655180Y-11009428D01*
X35607561Y-10866571D01*
X35512323Y-10771333D01*
X35417085Y-10723714D01*
X35226609Y-10676095D01*
X35083752Y-10676095D01*
X34893276Y-10723714D01*
X34798038Y-10771333D01*
X34702800Y-10866571D01*
X34655180Y-11009428D01*
X34655180Y-11104666D01*
X34702800Y-11247523D01*
X34750419Y-11295142D01*
X35655180Y-12247523D02*
X35655180Y-11676095D01*
X35655180Y-11961809D02*
X34655180Y-11961809D01*
X34798038Y-11866571D01*
X34893276Y-11771333D01*
X34940895Y-11676095D01*
X34750419Y-12628476D02*
X34702800Y-12676095D01*
X34655180Y-12771333D01*
X34655180Y-13009428D01*
X34702800Y-13104666D01*
X34750419Y-13152285D01*
X34845657Y-13199904D01*
X34940895Y-13199904D01*
X35083752Y-13152285D01*
X35655180Y-12580857D01*
X35655180Y-13199904D01*
X30284657Y-20831142D02*
X30332276Y-20878761D01*
X30475133Y-20926380D01*
X30570371Y-20926380D01*
X30713228Y-20878761D01*
X30808466Y-20783523D01*
X30856085Y-20688285D01*
X30903704Y-20497809D01*
X30903704Y-20354952D01*
X30856085Y-20164476D01*
X30808466Y-20069238D01*
X30713228Y-19974000D01*
X30570371Y-19926380D01*
X30475133Y-19926380D01*
X30332276Y-19974000D01*
X30284657Y-20021619D01*
X29332276Y-20926380D02*
X29903704Y-20926380D01*
X29617990Y-20926380D02*
X29617990Y-19926380D01*
X29713228Y-20069238D01*
X29808466Y-20164476D01*
X29903704Y-20212095D01*
X28379895Y-20926380D02*
X28951323Y-20926380D01*
X28665609Y-20926380D02*
X28665609Y-19926380D01*
X28760847Y-20069238D01*
X28856085Y-20164476D01*
X28951323Y-20212095D01*
X40919342Y-43908742D02*
X40966961Y-43861123D01*
X41014580Y-43718266D01*
X41014580Y-43623028D01*
X40966961Y-43480171D01*
X40871723Y-43384933D01*
X40776485Y-43337314D01*
X40586009Y-43289695D01*
X40443152Y-43289695D01*
X40252676Y-43337314D01*
X40157438Y-43384933D01*
X40062200Y-43480171D01*
X40014580Y-43623028D01*
X40014580Y-43718266D01*
X40062200Y-43861123D01*
X40109819Y-43908742D01*
X41014580Y-44861123D02*
X41014580Y-44289695D01*
X41014580Y-44575409D02*
X40014580Y-44575409D01*
X40157438Y-44480171D01*
X40252676Y-44384933D01*
X40300295Y-44289695D01*
X40014580Y-45480171D02*
X40014580Y-45575409D01*
X40062200Y-45670647D01*
X40109819Y-45718266D01*
X40205057Y-45765885D01*
X40395533Y-45813504D01*
X40633628Y-45813504D01*
X40824104Y-45765885D01*
X40919342Y-45718266D01*
X40966961Y-45670647D01*
X41014580Y-45575409D01*
X41014580Y-45480171D01*
X40966961Y-45384933D01*
X40919342Y-45337314D01*
X40824104Y-45289695D01*
X40633628Y-45242076D01*
X40395533Y-45242076D01*
X40205057Y-45289695D01*
X40109819Y-45337314D01*
X40062200Y-45384933D01*
X40014580Y-45480171D01*
X49910942Y-20534333D02*
X49958561Y-20486714D01*
X50006180Y-20343857D01*
X50006180Y-20248619D01*
X49958561Y-20105761D01*
X49863323Y-20010523D01*
X49768085Y-19962904D01*
X49577609Y-19915285D01*
X49434752Y-19915285D01*
X49244276Y-19962904D01*
X49149038Y-20010523D01*
X49053800Y-20105761D01*
X49006180Y-20248619D01*
X49006180Y-20343857D01*
X49053800Y-20486714D01*
X49101419Y-20534333D01*
X50006180Y-21010523D02*
X50006180Y-21201000D01*
X49958561Y-21296238D01*
X49910942Y-21343857D01*
X49768085Y-21439095D01*
X49577609Y-21486714D01*
X49196657Y-21486714D01*
X49101419Y-21439095D01*
X49053800Y-21391476D01*
X49006180Y-21296238D01*
X49006180Y-21105761D01*
X49053800Y-21010523D01*
X49101419Y-20962904D01*
X49196657Y-20915285D01*
X49434752Y-20915285D01*
X49529990Y-20962904D01*
X49577609Y-21010523D01*
X49625228Y-21105761D01*
X49625228Y-21296238D01*
X49577609Y-21391476D01*
X49529990Y-21439095D01*
X49434752Y-21486714D01*
X35534542Y-32700933D02*
X35582161Y-32653314D01*
X35629780Y-32510457D01*
X35629780Y-32415219D01*
X35582161Y-32272361D01*
X35486923Y-32177123D01*
X35391685Y-32129504D01*
X35201209Y-32081885D01*
X35058352Y-32081885D01*
X34867876Y-32129504D01*
X34772638Y-32177123D01*
X34677400Y-32272361D01*
X34629780Y-32415219D01*
X34629780Y-32510457D01*
X34677400Y-32653314D01*
X34725019Y-32700933D01*
X35058352Y-33272361D02*
X35010733Y-33177123D01*
X34963114Y-33129504D01*
X34867876Y-33081885D01*
X34820257Y-33081885D01*
X34725019Y-33129504D01*
X34677400Y-33177123D01*
X34629780Y-33272361D01*
X34629780Y-33462838D01*
X34677400Y-33558076D01*
X34725019Y-33605695D01*
X34820257Y-33653314D01*
X34867876Y-33653314D01*
X34963114Y-33605695D01*
X35010733Y-33558076D01*
X35058352Y-33462838D01*
X35058352Y-33272361D01*
X35105971Y-33177123D01*
X35153590Y-33129504D01*
X35248828Y-33081885D01*
X35439304Y-33081885D01*
X35534542Y-33129504D01*
X35582161Y-33177123D01*
X35629780Y-33272361D01*
X35629780Y-33462838D01*
X35582161Y-33558076D01*
X35534542Y-33605695D01*
X35439304Y-33653314D01*
X35248828Y-33653314D01*
X35153590Y-33605695D01*
X35105971Y-33558076D01*
X35058352Y-33462838D01*
X35625066Y-4825942D02*
X35672685Y-4873561D01*
X35815542Y-4921180D01*
X35910780Y-4921180D01*
X36053638Y-4873561D01*
X36148876Y-4778323D01*
X36196495Y-4683085D01*
X36244114Y-4492609D01*
X36244114Y-4349752D01*
X36196495Y-4159276D01*
X36148876Y-4064038D01*
X36053638Y-3968800D01*
X35910780Y-3921180D01*
X35815542Y-3921180D01*
X35672685Y-3968800D01*
X35625066Y-4016419D01*
X35291733Y-3921180D02*
X34625066Y-3921180D01*
X35053638Y-4921180D01*
X22961542Y-19950133D02*
X23009161Y-19902514D01*
X23056780Y-19759657D01*
X23056780Y-19664419D01*
X23009161Y-19521561D01*
X22913923Y-19426323D01*
X22818685Y-19378704D01*
X22628209Y-19331085D01*
X22485352Y-19331085D01*
X22294876Y-19378704D01*
X22199638Y-19426323D01*
X22104400Y-19521561D01*
X22056780Y-19664419D01*
X22056780Y-19759657D01*
X22104400Y-19902514D01*
X22152019Y-19950133D01*
X22056780Y-20807276D02*
X22056780Y-20616800D01*
X22104400Y-20521561D01*
X22152019Y-20473942D01*
X22294876Y-20378704D01*
X22485352Y-20331085D01*
X22866304Y-20331085D01*
X22961542Y-20378704D01*
X23009161Y-20426323D01*
X23056780Y-20521561D01*
X23056780Y-20712038D01*
X23009161Y-20807276D01*
X22961542Y-20854895D01*
X22866304Y-20902514D01*
X22628209Y-20902514D01*
X22532971Y-20854895D01*
X22485352Y-20807276D01*
X22437733Y-20712038D01*
X22437733Y-20521561D01*
X22485352Y-20426323D01*
X22532971Y-20378704D01*
X22628209Y-20331085D01*
X26813666Y-32946942D02*
X26861285Y-32994561D01*
X27004142Y-33042180D01*
X27099380Y-33042180D01*
X27242238Y-32994561D01*
X27337476Y-32899323D01*
X27385095Y-32804085D01*
X27432714Y-32613609D01*
X27432714Y-32470752D01*
X27385095Y-32280276D01*
X27337476Y-32185038D01*
X27242238Y-32089800D01*
X27099380Y-32042180D01*
X27004142Y-32042180D01*
X26861285Y-32089800D01*
X26813666Y-32137419D01*
X25908904Y-32042180D02*
X26385095Y-32042180D01*
X26432714Y-32518371D01*
X26385095Y-32470752D01*
X26289857Y-32423133D01*
X26051761Y-32423133D01*
X25956523Y-32470752D01*
X25908904Y-32518371D01*
X25861285Y-32613609D01*
X25861285Y-32851704D01*
X25908904Y-32946942D01*
X25956523Y-32994561D01*
X26051761Y-33042180D01*
X26289857Y-33042180D01*
X26385095Y-32994561D01*
X26432714Y-32946942D01*
X52174742Y-11339533D02*
X52222361Y-11291914D01*
X52269980Y-11149057D01*
X52269980Y-11053819D01*
X52222361Y-10910961D01*
X52127123Y-10815723D01*
X52031885Y-10768104D01*
X51841409Y-10720485D01*
X51698552Y-10720485D01*
X51508076Y-10768104D01*
X51412838Y-10815723D01*
X51317600Y-10910961D01*
X51269980Y-11053819D01*
X51269980Y-11149057D01*
X51317600Y-11291914D01*
X51365219Y-11339533D01*
X51603314Y-12196676D02*
X52269980Y-12196676D01*
X51222361Y-11958580D02*
X51936647Y-11720485D01*
X51936647Y-12339533D01*
X24564942Y-13676333D02*
X24612561Y-13628714D01*
X24660180Y-13485857D01*
X24660180Y-13390619D01*
X24612561Y-13247761D01*
X24517323Y-13152523D01*
X24422085Y-13104904D01*
X24231609Y-13057285D01*
X24088752Y-13057285D01*
X23898276Y-13104904D01*
X23803038Y-13152523D01*
X23707800Y-13247761D01*
X23660180Y-13390619D01*
X23660180Y-13485857D01*
X23707800Y-13628714D01*
X23755419Y-13676333D01*
X23660180Y-14009666D02*
X23660180Y-14628714D01*
X24041133Y-14295380D01*
X24041133Y-14438238D01*
X24088752Y-14533476D01*
X24136371Y-14581095D01*
X24231609Y-14628714D01*
X24469704Y-14628714D01*
X24564942Y-14581095D01*
X24612561Y-14533476D01*
X24660180Y-14438238D01*
X24660180Y-14152523D01*
X24612561Y-14057285D01*
X24564942Y-14009666D01*
X49787142Y-32954933D02*
X49834761Y-32907314D01*
X49882380Y-32764457D01*
X49882380Y-32669219D01*
X49834761Y-32526361D01*
X49739523Y-32431123D01*
X49644285Y-32383504D01*
X49453809Y-32335885D01*
X49310952Y-32335885D01*
X49120476Y-32383504D01*
X49025238Y-32431123D01*
X48930000Y-32526361D01*
X48882380Y-32669219D01*
X48882380Y-32764457D01*
X48930000Y-32907314D01*
X48977619Y-32954933D01*
X48977619Y-33335885D02*
X48930000Y-33383504D01*
X48882380Y-33478742D01*
X48882380Y-33716838D01*
X48930000Y-33812076D01*
X48977619Y-33859695D01*
X49072857Y-33907314D01*
X49168095Y-33907314D01*
X49310952Y-33859695D01*
X49882380Y-33288266D01*
X49882380Y-33907314D01*
X24677666Y-28625742D02*
X24725285Y-28673361D01*
X24868142Y-28720980D01*
X24963380Y-28720980D01*
X25106238Y-28673361D01*
X25201476Y-28578123D01*
X25249095Y-28482885D01*
X25296714Y-28292409D01*
X25296714Y-28149552D01*
X25249095Y-27959076D01*
X25201476Y-27863838D01*
X25106238Y-27768600D01*
X24963380Y-27720980D01*
X24868142Y-27720980D01*
X24725285Y-27768600D01*
X24677666Y-27816219D01*
X23725285Y-28720980D02*
X24296714Y-28720980D01*
X24011000Y-28720980D02*
X24011000Y-27720980D01*
X24106238Y-27863838D01*
X24201476Y-27959076D01*
X24296714Y-28006695D01*
X36645780Y-1992333D02*
X36169590Y-1659000D01*
X36645780Y-1420904D02*
X35645780Y-1420904D01*
X35645780Y-1801857D01*
X35693400Y-1897095D01*
X35741019Y-1944714D01*
X35836257Y-1992333D01*
X35979114Y-1992333D01*
X36074352Y-1944714D01*
X36121971Y-1897095D01*
X36169590Y-1801857D01*
X36169590Y-1420904D01*
X36645780Y-2468523D02*
X36645780Y-2659000D01*
X36598161Y-2754238D01*
X36550542Y-2801857D01*
X36407685Y-2897095D01*
X36217209Y-2944714D01*
X35836257Y-2944714D01*
X35741019Y-2897095D01*
X35693400Y-2849476D01*
X35645780Y-2754238D01*
X35645780Y-2563761D01*
X35693400Y-2468523D01*
X35741019Y-2420904D01*
X35836257Y-2373285D01*
X36074352Y-2373285D01*
X36169590Y-2420904D01*
X36217209Y-2468523D01*
X36264828Y-2563761D01*
X36264828Y-2754238D01*
X36217209Y-2849476D01*
X36169590Y-2897095D01*
X36074352Y-2944714D01*
X37610980Y-1992333D02*
X37134790Y-1659000D01*
X37610980Y-1420904D02*
X36610980Y-1420904D01*
X36610980Y-1801857D01*
X36658600Y-1897095D01*
X36706219Y-1944714D01*
X36801457Y-1992333D01*
X36944314Y-1992333D01*
X37039552Y-1944714D01*
X37087171Y-1897095D01*
X37134790Y-1801857D01*
X37134790Y-1420904D01*
X37039552Y-2563761D02*
X36991933Y-2468523D01*
X36944314Y-2420904D01*
X36849076Y-2373285D01*
X36801457Y-2373285D01*
X36706219Y-2420904D01*
X36658600Y-2468523D01*
X36610980Y-2563761D01*
X36610980Y-2754238D01*
X36658600Y-2849476D01*
X36706219Y-2897095D01*
X36801457Y-2944714D01*
X36849076Y-2944714D01*
X36944314Y-2897095D01*
X36991933Y-2849476D01*
X37039552Y-2754238D01*
X37039552Y-2563761D01*
X37087171Y-2468523D01*
X37134790Y-2420904D01*
X37230028Y-2373285D01*
X37420504Y-2373285D01*
X37515742Y-2420904D01*
X37563361Y-2468523D01*
X37610980Y-2563761D01*
X37610980Y-2754238D01*
X37563361Y-2849476D01*
X37515742Y-2897095D01*
X37420504Y-2944714D01*
X37230028Y-2944714D01*
X37134790Y-2897095D01*
X37087171Y-2849476D01*
X37039552Y-2754238D01*
X38601580Y-1992333D02*
X38125390Y-1659000D01*
X38601580Y-1420904D02*
X37601580Y-1420904D01*
X37601580Y-1801857D01*
X37649200Y-1897095D01*
X37696819Y-1944714D01*
X37792057Y-1992333D01*
X37934914Y-1992333D01*
X38030152Y-1944714D01*
X38077771Y-1897095D01*
X38125390Y-1801857D01*
X38125390Y-1420904D01*
X37601580Y-2325666D02*
X37601580Y-2992333D01*
X38601580Y-2563761D01*
X39566780Y-1992333D02*
X39090590Y-1659000D01*
X39566780Y-1420904D02*
X38566780Y-1420904D01*
X38566780Y-1801857D01*
X38614400Y-1897095D01*
X38662019Y-1944714D01*
X38757257Y-1992333D01*
X38900114Y-1992333D01*
X38995352Y-1944714D01*
X39042971Y-1897095D01*
X39090590Y-1801857D01*
X39090590Y-1420904D01*
X38566780Y-2849476D02*
X38566780Y-2659000D01*
X38614400Y-2563761D01*
X38662019Y-2516142D01*
X38804876Y-2420904D01*
X38995352Y-2373285D01*
X39376304Y-2373285D01*
X39471542Y-2420904D01*
X39519161Y-2468523D01*
X39566780Y-2563761D01*
X39566780Y-2754238D01*
X39519161Y-2849476D01*
X39471542Y-2897095D01*
X39376304Y-2944714D01*
X39138209Y-2944714D01*
X39042971Y-2897095D01*
X38995352Y-2849476D01*
X38947733Y-2754238D01*
X38947733Y-2563761D01*
X38995352Y-2468523D01*
X39042971Y-2420904D01*
X39138209Y-2373285D01*
X40557380Y-1992333D02*
X40081190Y-1659000D01*
X40557380Y-1420904D02*
X39557380Y-1420904D01*
X39557380Y-1801857D01*
X39605000Y-1897095D01*
X39652619Y-1944714D01*
X39747857Y-1992333D01*
X39890714Y-1992333D01*
X39985952Y-1944714D01*
X40033571Y-1897095D01*
X40081190Y-1801857D01*
X40081190Y-1420904D01*
X39557380Y-2897095D02*
X39557380Y-2420904D01*
X40033571Y-2373285D01*
X39985952Y-2420904D01*
X39938333Y-2516142D01*
X39938333Y-2754238D01*
X39985952Y-2849476D01*
X40033571Y-2897095D01*
X40128809Y-2944714D01*
X40366904Y-2944714D01*
X40462142Y-2897095D01*
X40509761Y-2849476D01*
X40557380Y-2754238D01*
X40557380Y-2516142D01*
X40509761Y-2420904D01*
X40462142Y-2373285D01*
X41547980Y-1992333D02*
X41071790Y-1659000D01*
X41547980Y-1420904D02*
X40547980Y-1420904D01*
X40547980Y-1801857D01*
X40595600Y-1897095D01*
X40643219Y-1944714D01*
X40738457Y-1992333D01*
X40881314Y-1992333D01*
X40976552Y-1944714D01*
X41024171Y-1897095D01*
X41071790Y-1801857D01*
X41071790Y-1420904D01*
X40881314Y-2849476D02*
X41547980Y-2849476D01*
X40500361Y-2611380D02*
X41214647Y-2373285D01*
X41214647Y-2992333D01*
X42538580Y-1992333D02*
X42062390Y-1659000D01*
X42538580Y-1420904D02*
X41538580Y-1420904D01*
X41538580Y-1801857D01*
X41586200Y-1897095D01*
X41633819Y-1944714D01*
X41729057Y-1992333D01*
X41871914Y-1992333D01*
X41967152Y-1944714D01*
X42014771Y-1897095D01*
X42062390Y-1801857D01*
X42062390Y-1420904D01*
X41538580Y-2325666D02*
X41538580Y-2944714D01*
X41919533Y-2611380D01*
X41919533Y-2754238D01*
X41967152Y-2849476D01*
X42014771Y-2897095D01*
X42110009Y-2944714D01*
X42348104Y-2944714D01*
X42443342Y-2897095D01*
X42490961Y-2849476D01*
X42538580Y-2754238D01*
X42538580Y-2468523D01*
X42490961Y-2373285D01*
X42443342Y-2325666D01*
X43529180Y-1992333D02*
X43052990Y-1659000D01*
X43529180Y-1420904D02*
X42529180Y-1420904D01*
X42529180Y-1801857D01*
X42576800Y-1897095D01*
X42624419Y-1944714D01*
X42719657Y-1992333D01*
X42862514Y-1992333D01*
X42957752Y-1944714D01*
X43005371Y-1897095D01*
X43052990Y-1801857D01*
X43052990Y-1420904D01*
X42624419Y-2373285D02*
X42576800Y-2420904D01*
X42529180Y-2516142D01*
X42529180Y-2754238D01*
X42576800Y-2849476D01*
X42624419Y-2897095D01*
X42719657Y-2944714D01*
X42814895Y-2944714D01*
X42957752Y-2897095D01*
X43529180Y-2325666D01*
X43529180Y-2944714D01*
X48529180Y-39522495D02*
X49338704Y-39522495D01*
X49433942Y-39570114D01*
X49481561Y-39617733D01*
X49529180Y-39712971D01*
X49529180Y-39903447D01*
X49481561Y-39998685D01*
X49433942Y-40046304D01*
X49338704Y-40093923D01*
X48529180Y-40093923D01*
X48624419Y-40522495D02*
X48576800Y-40570114D01*
X48529180Y-40665352D01*
X48529180Y-40903447D01*
X48576800Y-40998685D01*
X48624419Y-41046304D01*
X48719657Y-41093923D01*
X48814895Y-41093923D01*
X48957752Y-41046304D01*
X49529180Y-40474876D01*
X49529180Y-41093923D01*
M02*
