M48
METRIC,TZ
T1C0.400
T2C0.800
T3C1.000
%
G90
G05
T1
X6020Y-45542
X7925Y-51029
X7950Y-43104
X8077Y-32461
X11151Y-27483
X11963Y-44882
X12168Y-49555
X12192Y-25527
X13640Y-42926
X14616Y-40843
X15200Y-44475
X19736Y-3937
X21514Y-46520
X22530Y-33553
X23013Y-15596
X23038Y-7202
X23038Y-12319
X23092Y-29265
X23419Y-43561
X23711Y-21451
X24048Y-39948
X24506Y-12195
X24739Y-18846
X24765Y-10566
X24841Y-7849
X24885Y-9052
X24997Y-25100
X25019Y-31420
X25197Y-4572
X25197Y-5461
X25273Y-28448
X26848Y-43561
X27026Y-41707
X27956Y-28104
X27991Y-11303
X28016Y-16281
X28118Y-19300
X28118Y-4572
X28118Y-5802
X28143Y-22301
X28194Y-25197
X28194Y-31420
X28499Y-23876
X29058Y-28092
X29083Y-45161
X29642Y-5842
X29667Y-41504
X29769Y-11176
X29769Y-14122
X29794Y-15697
X29972Y-17424
X30074Y-27762
X30150Y-9906
X30709Y-41402
X30901Y-31257
X31166Y-19304
X31267Y-14986
X31293Y-16724
X31616Y-37763
X32055Y-41148
X32055Y-45212
X32207Y-36957
X32360Y-9855
X32563Y-5842
X32588Y-35992
X32664Y-23952
X32715Y-21057
X32868Y-6960
X32893Y-35001
X33350Y-41072
X33477Y-33909
X33934Y-5639
X34344Y-28156
X34722Y-32193
X34747Y-41072
X34823Y-11176
X34849Y-31201
X35255Y-9677
X35865Y-6858
X35865Y-24130
X35966Y-27407
X36093Y-18999
X36093Y-21844
X36119Y-2667
X36323Y-40869
X36373Y-10414
X36373Y-13589
X36373Y-31369
X36855Y-5639
X37003Y-34505
X37063Y-762
X37270Y-28330
X37425Y-11227
X37901Y-6863
X37948Y-37414
X38063Y-762
X38125Y-10312
X38659Y-49301
X39063Y-762
X39185Y-6858
X39243Y-37516
X39395Y-10287
X39776Y-49301
X39929Y-24892
X39929Y-28194
X40063Y-762
X40710Y-10330
X40894Y-49352
X41190Y-787
X41213Y-32080
X41569Y-11060
X42164Y-49378
X42266Y-737
X42393Y-10211
X42850Y-19812
X42901Y-27076
X43434Y-49327
X43501Y-27991
X43573Y-814
X43612Y-5842
X43661Y-45468
X43866Y-9906
X43895Y-31365
X43949Y-34348
X44422Y-28381
X44572Y-753
X44886Y-45430
X44890Y-31468
X45263Y-2667
X45415Y-34798
X45420Y-28323
X46017Y-19850
X46177Y-16815
X46304Y-18796
X46406Y-25273
X46406Y-26289
X46660Y-5842
X47549Y-7264
X48362Y-31013
X48946Y-36678
X49098Y-49276
X49301Y-28473
X49321Y-21347
X49389Y-26111
X49448Y-19521
X49519Y-16400
X49530Y-50698
X49708Y-10287
X49708Y-12827
X49779Y-17920
X50145Y-22625
X50419Y-7264
X50557Y-16879
X50673Y-19279
X50712Y-18279
X50775Y-15479
T2
X3546Y-6212
X3546Y-8752
X3546Y-11292
X3546Y-13832
X3546Y-16372
X3546Y-18912
X3546Y-21452
X3546Y-23992
X3546Y-26532
X3546Y-29072
X3546Y-31612
X3546Y-34152
X3546Y-36692
X3546Y-39232
X3546Y-41772
X3546Y-44312
X3546Y-46852
X3546Y-49392
X3546Y-51932
X3546Y-54472
X18786Y-6212
X18786Y-8752
X18786Y-11292
X18786Y-13832
X18786Y-16372
X18786Y-18912
X18786Y-21452
X18786Y-23992
X18786Y-26532
X18786Y-29072
X18786Y-31612
X18786Y-34152
X18786Y-36692
X18786Y-39232
X18786Y-41772
X18786Y-44312
X18786Y-46852
X18786Y-49392
X18786Y-51932
X18786Y-54472
T3
X11201Y-7696
X11201Y-10236
X11201Y-12776
X11201Y-15316
X11201Y-17856
X11201Y-20396
T0
M30
