G04 #@! TF.GenerationSoftware,KiCad,Pcbnew,(5.1.5)-3*
G04 #@! TF.CreationDate,2020-10-03T21:18:42-07:00*
G04 #@! TF.ProjectId,MCL86jr,4d434c38-366a-4722-9e6b-696361645f70,rev?*
G04 #@! TF.SameCoordinates,PX6b9fce8PY20f1980*
G04 #@! TF.FileFunction,Soldermask,Top*
G04 #@! TF.FilePolarity,Negative*
%FSLAX46Y46*%
G04 Gerber Fmt 4.6, Leading zero omitted, Abs format (unit mm)*
G04 Created by KiCad (PCBNEW (5.1.5)-3) date 2020-10-03 21:18:42*
%MOMM*%
%LPD*%
G04 APERTURE LIST*
%ADD10C,0.100000*%
G04 APERTURE END LIST*
D10*
G36*
X19033828Y-53653303D02*
G01*
X19188700Y-53717453D01*
X19328081Y-53810585D01*
X19446615Y-53929119D01*
X19539747Y-54068500D01*
X19603897Y-54223372D01*
X19636600Y-54387784D01*
X19636600Y-54555416D01*
X19603897Y-54719828D01*
X19539747Y-54874700D01*
X19446615Y-55014081D01*
X19328081Y-55132615D01*
X19188700Y-55225747D01*
X19033828Y-55289897D01*
X18869416Y-55322600D01*
X18701784Y-55322600D01*
X18537372Y-55289897D01*
X18382500Y-55225747D01*
X18243119Y-55132615D01*
X18124585Y-55014081D01*
X18031453Y-54874700D01*
X17967303Y-54719828D01*
X17934600Y-54555416D01*
X17934600Y-54387784D01*
X17967303Y-54223372D01*
X18031453Y-54068500D01*
X18124585Y-53929119D01*
X18243119Y-53810585D01*
X18382500Y-53717453D01*
X18537372Y-53653303D01*
X18701784Y-53620600D01*
X18869416Y-53620600D01*
X19033828Y-53653303D01*
G37*
G36*
X3793828Y-53653303D02*
G01*
X3948700Y-53717453D01*
X4088081Y-53810585D01*
X4206615Y-53929119D01*
X4299747Y-54068500D01*
X4363897Y-54223372D01*
X4396600Y-54387784D01*
X4396600Y-54555416D01*
X4363897Y-54719828D01*
X4299747Y-54874700D01*
X4206615Y-55014081D01*
X4088081Y-55132615D01*
X3948700Y-55225747D01*
X3793828Y-55289897D01*
X3629416Y-55322600D01*
X3461784Y-55322600D01*
X3297372Y-55289897D01*
X3142500Y-55225747D01*
X3003119Y-55132615D01*
X2884585Y-55014081D01*
X2791453Y-54874700D01*
X2727303Y-54719828D01*
X2694600Y-54555416D01*
X2694600Y-54387784D01*
X2727303Y-54223372D01*
X2791453Y-54068500D01*
X2884585Y-53929119D01*
X3003119Y-53810585D01*
X3142500Y-53717453D01*
X3297372Y-53653303D01*
X3461784Y-53620600D01*
X3629416Y-53620600D01*
X3793828Y-53653303D01*
G37*
G36*
X3793828Y-51113303D02*
G01*
X3948700Y-51177453D01*
X4088081Y-51270585D01*
X4206615Y-51389119D01*
X4299747Y-51528500D01*
X4363897Y-51683372D01*
X4396600Y-51847784D01*
X4396600Y-52015416D01*
X4363897Y-52179828D01*
X4299747Y-52334700D01*
X4206615Y-52474081D01*
X4088081Y-52592615D01*
X3948700Y-52685747D01*
X3793828Y-52749897D01*
X3629416Y-52782600D01*
X3461784Y-52782600D01*
X3297372Y-52749897D01*
X3142500Y-52685747D01*
X3003119Y-52592615D01*
X2884585Y-52474081D01*
X2791453Y-52334700D01*
X2727303Y-52179828D01*
X2694600Y-52015416D01*
X2694600Y-51847784D01*
X2727303Y-51683372D01*
X2791453Y-51528500D01*
X2884585Y-51389119D01*
X3003119Y-51270585D01*
X3142500Y-51177453D01*
X3297372Y-51113303D01*
X3461784Y-51080600D01*
X3629416Y-51080600D01*
X3793828Y-51113303D01*
G37*
G36*
X19033828Y-51113303D02*
G01*
X19188700Y-51177453D01*
X19328081Y-51270585D01*
X19446615Y-51389119D01*
X19539747Y-51528500D01*
X19603897Y-51683372D01*
X19636600Y-51847784D01*
X19636600Y-52015416D01*
X19603897Y-52179828D01*
X19539747Y-52334700D01*
X19446615Y-52474081D01*
X19328081Y-52592615D01*
X19188700Y-52685747D01*
X19033828Y-52749897D01*
X18869416Y-52782600D01*
X18701784Y-52782600D01*
X18537372Y-52749897D01*
X18382500Y-52685747D01*
X18243119Y-52592615D01*
X18124585Y-52474081D01*
X18031453Y-52334700D01*
X17967303Y-52179828D01*
X17934600Y-52015416D01*
X17934600Y-51847784D01*
X17967303Y-51683372D01*
X18031453Y-51528500D01*
X18124585Y-51389119D01*
X18243119Y-51270585D01*
X18382500Y-51177453D01*
X18537372Y-51113303D01*
X18701784Y-51080600D01*
X18869416Y-51080600D01*
X19033828Y-51113303D01*
G37*
G36*
X38710000Y-51450600D02*
G01*
X37998000Y-51450600D01*
X37998000Y-49908600D01*
X38710000Y-49908600D01*
X38710000Y-51450600D01*
G37*
G36*
X29820000Y-51450600D02*
G01*
X29108000Y-51450600D01*
X29108000Y-49908600D01*
X29820000Y-49908600D01*
X29820000Y-51450600D01*
G37*
G36*
X31090000Y-51450600D02*
G01*
X30378000Y-51450600D01*
X30378000Y-49908600D01*
X31090000Y-49908600D01*
X31090000Y-51450600D01*
G37*
G36*
X32360000Y-51450600D02*
G01*
X31648000Y-51450600D01*
X31648000Y-49908600D01*
X32360000Y-49908600D01*
X32360000Y-51450600D01*
G37*
G36*
X33630000Y-51450600D02*
G01*
X32918000Y-51450600D01*
X32918000Y-49908600D01*
X33630000Y-49908600D01*
X33630000Y-51450600D01*
G37*
G36*
X34900000Y-51450600D02*
G01*
X34188000Y-51450600D01*
X34188000Y-49908600D01*
X34900000Y-49908600D01*
X34900000Y-51450600D01*
G37*
G36*
X36170000Y-51450600D02*
G01*
X35458000Y-51450600D01*
X35458000Y-49908600D01*
X36170000Y-49908600D01*
X36170000Y-51450600D01*
G37*
G36*
X37440000Y-51450600D02*
G01*
X36728000Y-51450600D01*
X36728000Y-49908600D01*
X37440000Y-49908600D01*
X37440000Y-51450600D01*
G37*
G36*
X41250000Y-51450600D02*
G01*
X40538000Y-51450600D01*
X40538000Y-49908600D01*
X41250000Y-49908600D01*
X41250000Y-51450600D01*
G37*
G36*
X42520000Y-51450600D02*
G01*
X41808000Y-51450600D01*
X41808000Y-49908600D01*
X42520000Y-49908600D01*
X42520000Y-51450600D01*
G37*
G36*
X43790000Y-51450600D02*
G01*
X43078000Y-51450600D01*
X43078000Y-49908600D01*
X43790000Y-49908600D01*
X43790000Y-51450600D01*
G37*
G36*
X45060000Y-51450600D02*
G01*
X44348000Y-51450600D01*
X44348000Y-49908600D01*
X45060000Y-49908600D01*
X45060000Y-51450600D01*
G37*
G36*
X46330000Y-51450600D02*
G01*
X45618000Y-51450600D01*
X45618000Y-49908600D01*
X46330000Y-49908600D01*
X46330000Y-51450600D01*
G37*
G36*
X47600000Y-51450600D02*
G01*
X46888000Y-51450600D01*
X46888000Y-49908600D01*
X47600000Y-49908600D01*
X47600000Y-51450600D01*
G37*
G36*
X48870000Y-51450600D02*
G01*
X48158000Y-51450600D01*
X48158000Y-49908600D01*
X48870000Y-49908600D01*
X48870000Y-51450600D01*
G37*
G36*
X39980000Y-51450600D02*
G01*
X39268000Y-51450600D01*
X39268000Y-49908600D01*
X39980000Y-49908600D01*
X39980000Y-51450600D01*
G37*
G36*
X14526400Y-50348800D02*
G01*
X12854400Y-50348800D01*
X12854400Y-43986800D01*
X14526400Y-43986800D01*
X14526400Y-50348800D01*
G37*
G36*
X8786400Y-50348800D02*
G01*
X7114400Y-50348800D01*
X7114400Y-43986800D01*
X8786400Y-43986800D01*
X8786400Y-50348800D01*
G37*
G36*
X3793828Y-48573303D02*
G01*
X3948700Y-48637453D01*
X4088081Y-48730585D01*
X4206615Y-48849119D01*
X4299747Y-48988500D01*
X4363897Y-49143372D01*
X4396600Y-49307784D01*
X4396600Y-49475416D01*
X4363897Y-49639828D01*
X4299747Y-49794700D01*
X4206615Y-49934081D01*
X4088081Y-50052615D01*
X3948700Y-50145747D01*
X3793828Y-50209897D01*
X3629416Y-50242600D01*
X3461784Y-50242600D01*
X3297372Y-50209897D01*
X3142500Y-50145747D01*
X3003119Y-50052615D01*
X2884585Y-49934081D01*
X2791453Y-49794700D01*
X2727303Y-49639828D01*
X2694600Y-49475416D01*
X2694600Y-49307784D01*
X2727303Y-49143372D01*
X2791453Y-48988500D01*
X2884585Y-48849119D01*
X3003119Y-48730585D01*
X3142500Y-48637453D01*
X3297372Y-48573303D01*
X3461784Y-48540600D01*
X3629416Y-48540600D01*
X3793828Y-48573303D01*
G37*
G36*
X19033828Y-48573303D02*
G01*
X19188700Y-48637453D01*
X19328081Y-48730585D01*
X19446615Y-48849119D01*
X19539747Y-48988500D01*
X19603897Y-49143372D01*
X19636600Y-49307784D01*
X19636600Y-49475416D01*
X19603897Y-49639828D01*
X19539747Y-49794700D01*
X19446615Y-49934081D01*
X19328081Y-50052615D01*
X19188700Y-50145747D01*
X19033828Y-50209897D01*
X18869416Y-50242600D01*
X18701784Y-50242600D01*
X18537372Y-50209897D01*
X18382500Y-50145747D01*
X18243119Y-50052615D01*
X18124585Y-49934081D01*
X18031453Y-49794700D01*
X17967303Y-49639828D01*
X17934600Y-49475416D01*
X17934600Y-49307784D01*
X17967303Y-49143372D01*
X18031453Y-48988500D01*
X18124585Y-48849119D01*
X18243119Y-48730585D01*
X18382500Y-48637453D01*
X18537372Y-48573303D01*
X18701784Y-48540600D01*
X18869416Y-48540600D01*
X19033828Y-48573303D01*
G37*
G36*
X3793828Y-46033303D02*
G01*
X3948700Y-46097453D01*
X4088081Y-46190585D01*
X4206615Y-46309119D01*
X4299747Y-46448500D01*
X4363897Y-46603372D01*
X4396600Y-46767784D01*
X4396600Y-46935416D01*
X4363897Y-47099828D01*
X4299747Y-47254700D01*
X4206615Y-47394081D01*
X4088081Y-47512615D01*
X3948700Y-47605747D01*
X3793828Y-47669897D01*
X3629416Y-47702600D01*
X3461784Y-47702600D01*
X3297372Y-47669897D01*
X3142500Y-47605747D01*
X3003119Y-47512615D01*
X2884585Y-47394081D01*
X2791453Y-47254700D01*
X2727303Y-47099828D01*
X2694600Y-46935416D01*
X2694600Y-46767784D01*
X2727303Y-46603372D01*
X2791453Y-46448500D01*
X2884585Y-46309119D01*
X3003119Y-46190585D01*
X3142500Y-46097453D01*
X3297372Y-46033303D01*
X3461784Y-46000600D01*
X3629416Y-46000600D01*
X3793828Y-46033303D01*
G37*
G36*
X19033828Y-46033303D02*
G01*
X19188700Y-46097453D01*
X19328081Y-46190585D01*
X19446615Y-46309119D01*
X19539747Y-46448500D01*
X19603897Y-46603372D01*
X19636600Y-46767784D01*
X19636600Y-46935416D01*
X19603897Y-47099828D01*
X19539747Y-47254700D01*
X19446615Y-47394081D01*
X19328081Y-47512615D01*
X19188700Y-47605747D01*
X19033828Y-47669897D01*
X18869416Y-47702600D01*
X18701784Y-47702600D01*
X18537372Y-47669897D01*
X18382500Y-47605747D01*
X18243119Y-47512615D01*
X18124585Y-47394081D01*
X18031453Y-47254700D01*
X17967303Y-47099828D01*
X17934600Y-46935416D01*
X17934600Y-46767784D01*
X17967303Y-46603372D01*
X18031453Y-46448500D01*
X18124585Y-46309119D01*
X18243119Y-46190585D01*
X18382500Y-46097453D01*
X18537372Y-46033303D01*
X18701784Y-46000600D01*
X18869416Y-46000600D01*
X19033828Y-46033303D01*
G37*
G36*
X19033828Y-43493303D02*
G01*
X19188700Y-43557453D01*
X19328081Y-43650585D01*
X19446615Y-43769119D01*
X19539747Y-43908500D01*
X19603897Y-44063372D01*
X19636600Y-44227784D01*
X19636600Y-44395416D01*
X19603897Y-44559828D01*
X19539747Y-44714700D01*
X19446615Y-44854081D01*
X19328081Y-44972615D01*
X19188700Y-45065747D01*
X19033828Y-45129897D01*
X18869416Y-45162600D01*
X18701784Y-45162600D01*
X18537372Y-45129897D01*
X18382500Y-45065747D01*
X18243119Y-44972615D01*
X18124585Y-44854081D01*
X18031453Y-44714700D01*
X17967303Y-44559828D01*
X17934600Y-44395416D01*
X17934600Y-44227784D01*
X17967303Y-44063372D01*
X18031453Y-43908500D01*
X18124585Y-43769119D01*
X18243119Y-43650585D01*
X18382500Y-43557453D01*
X18537372Y-43493303D01*
X18701784Y-43460600D01*
X18869416Y-43460600D01*
X19033828Y-43493303D01*
G37*
G36*
X3793828Y-43493303D02*
G01*
X3948700Y-43557453D01*
X4088081Y-43650585D01*
X4206615Y-43769119D01*
X4299747Y-43908500D01*
X4363897Y-44063372D01*
X4396600Y-44227784D01*
X4396600Y-44395416D01*
X4363897Y-44559828D01*
X4299747Y-44714700D01*
X4206615Y-44854081D01*
X4088081Y-44972615D01*
X3948700Y-45065747D01*
X3793828Y-45129897D01*
X3629416Y-45162600D01*
X3461784Y-45162600D01*
X3297372Y-45129897D01*
X3142500Y-45065747D01*
X3003119Y-44972615D01*
X2884585Y-44854081D01*
X2791453Y-44714700D01*
X2727303Y-44559828D01*
X2694600Y-44395416D01*
X2694600Y-44227784D01*
X2727303Y-44063372D01*
X2791453Y-43908500D01*
X2884585Y-43769119D01*
X3003119Y-43650585D01*
X3142500Y-43557453D01*
X3297372Y-43493303D01*
X3461784Y-43460600D01*
X3629416Y-43460600D01*
X3793828Y-43493303D01*
G37*
G36*
X19033828Y-40953303D02*
G01*
X19188700Y-41017453D01*
X19328081Y-41110585D01*
X19446615Y-41229119D01*
X19539747Y-41368500D01*
X19603897Y-41523372D01*
X19636600Y-41687784D01*
X19636600Y-41855416D01*
X19603897Y-42019828D01*
X19539747Y-42174700D01*
X19446615Y-42314081D01*
X19328081Y-42432615D01*
X19188700Y-42525747D01*
X19033828Y-42589897D01*
X18869416Y-42622600D01*
X18701784Y-42622600D01*
X18537372Y-42589897D01*
X18382500Y-42525747D01*
X18243119Y-42432615D01*
X18124585Y-42314081D01*
X18031453Y-42174700D01*
X17967303Y-42019828D01*
X17934600Y-41855416D01*
X17934600Y-41687784D01*
X17967303Y-41523372D01*
X18031453Y-41368500D01*
X18124585Y-41229119D01*
X18243119Y-41110585D01*
X18382500Y-41017453D01*
X18537372Y-40953303D01*
X18701784Y-40920600D01*
X18869416Y-40920600D01*
X19033828Y-40953303D01*
G37*
G36*
X3793828Y-40953303D02*
G01*
X3948700Y-41017453D01*
X4088081Y-41110585D01*
X4206615Y-41229119D01*
X4299747Y-41368500D01*
X4363897Y-41523372D01*
X4396600Y-41687784D01*
X4396600Y-41855416D01*
X4363897Y-42019828D01*
X4299747Y-42174700D01*
X4206615Y-42314081D01*
X4088081Y-42432615D01*
X3948700Y-42525747D01*
X3793828Y-42589897D01*
X3629416Y-42622600D01*
X3461784Y-42622600D01*
X3297372Y-42589897D01*
X3142500Y-42525747D01*
X3003119Y-42432615D01*
X2884585Y-42314081D01*
X2791453Y-42174700D01*
X2727303Y-42019828D01*
X2694600Y-41855416D01*
X2694600Y-41687784D01*
X2727303Y-41523372D01*
X2791453Y-41368500D01*
X2884585Y-41229119D01*
X3003119Y-41110585D01*
X3142500Y-41017453D01*
X3297372Y-40953303D01*
X3461784Y-40920600D01*
X3629416Y-40920600D01*
X3793828Y-40953303D01*
G37*
G36*
X34900000Y-40210600D02*
G01*
X34188000Y-40210600D01*
X34188000Y-38668600D01*
X34900000Y-38668600D01*
X34900000Y-40210600D01*
G37*
G36*
X48870000Y-40210600D02*
G01*
X48158000Y-40210600D01*
X48158000Y-38668600D01*
X48870000Y-38668600D01*
X48870000Y-40210600D01*
G37*
G36*
X47600000Y-40210600D02*
G01*
X46888000Y-40210600D01*
X46888000Y-38668600D01*
X47600000Y-38668600D01*
X47600000Y-40210600D01*
G37*
G36*
X46330000Y-40210600D02*
G01*
X45618000Y-40210600D01*
X45618000Y-38668600D01*
X46330000Y-38668600D01*
X46330000Y-40210600D01*
G37*
G36*
X45060000Y-40210600D02*
G01*
X44348000Y-40210600D01*
X44348000Y-38668600D01*
X45060000Y-38668600D01*
X45060000Y-40210600D01*
G37*
G36*
X43790000Y-40210600D02*
G01*
X43078000Y-40210600D01*
X43078000Y-38668600D01*
X43790000Y-38668600D01*
X43790000Y-40210600D01*
G37*
G36*
X42520000Y-40210600D02*
G01*
X41808000Y-40210600D01*
X41808000Y-38668600D01*
X42520000Y-38668600D01*
X42520000Y-40210600D01*
G37*
G36*
X41250000Y-40210600D02*
G01*
X40538000Y-40210600D01*
X40538000Y-38668600D01*
X41250000Y-38668600D01*
X41250000Y-40210600D01*
G37*
G36*
X38710000Y-40210600D02*
G01*
X37998000Y-40210600D01*
X37998000Y-38668600D01*
X38710000Y-38668600D01*
X38710000Y-40210600D01*
G37*
G36*
X37440000Y-40210600D02*
G01*
X36728000Y-40210600D01*
X36728000Y-38668600D01*
X37440000Y-38668600D01*
X37440000Y-40210600D01*
G37*
G36*
X36170000Y-40210600D02*
G01*
X35458000Y-40210600D01*
X35458000Y-38668600D01*
X36170000Y-38668600D01*
X36170000Y-40210600D01*
G37*
G36*
X33630000Y-40210600D02*
G01*
X32918000Y-40210600D01*
X32918000Y-38668600D01*
X33630000Y-38668600D01*
X33630000Y-40210600D01*
G37*
G36*
X32360000Y-40210600D02*
G01*
X31648000Y-40210600D01*
X31648000Y-38668600D01*
X32360000Y-38668600D01*
X32360000Y-40210600D01*
G37*
G36*
X31090000Y-40210600D02*
G01*
X30378000Y-40210600D01*
X30378000Y-38668600D01*
X31090000Y-38668600D01*
X31090000Y-40210600D01*
G37*
G36*
X29820000Y-40210600D02*
G01*
X29108000Y-40210600D01*
X29108000Y-38668600D01*
X29820000Y-38668600D01*
X29820000Y-40210600D01*
G37*
G36*
X39980000Y-40210600D02*
G01*
X39268000Y-40210600D01*
X39268000Y-38668600D01*
X39980000Y-38668600D01*
X39980000Y-40210600D01*
G37*
G36*
X19033828Y-38413303D02*
G01*
X19188700Y-38477453D01*
X19328081Y-38570585D01*
X19446615Y-38689119D01*
X19539747Y-38828500D01*
X19603897Y-38983372D01*
X19636600Y-39147784D01*
X19636600Y-39315416D01*
X19603897Y-39479828D01*
X19539747Y-39634700D01*
X19446615Y-39774081D01*
X19328081Y-39892615D01*
X19188700Y-39985747D01*
X19033828Y-40049897D01*
X18869416Y-40082600D01*
X18701784Y-40082600D01*
X18537372Y-40049897D01*
X18382500Y-39985747D01*
X18243119Y-39892615D01*
X18124585Y-39774081D01*
X18031453Y-39634700D01*
X17967303Y-39479828D01*
X17934600Y-39315416D01*
X17934600Y-39147784D01*
X17967303Y-38983372D01*
X18031453Y-38828500D01*
X18124585Y-38689119D01*
X18243119Y-38570585D01*
X18382500Y-38477453D01*
X18537372Y-38413303D01*
X18701784Y-38380600D01*
X18869416Y-38380600D01*
X19033828Y-38413303D01*
G37*
G36*
X3793828Y-38413303D02*
G01*
X3948700Y-38477453D01*
X4088081Y-38570585D01*
X4206615Y-38689119D01*
X4299747Y-38828500D01*
X4363897Y-38983372D01*
X4396600Y-39147784D01*
X4396600Y-39315416D01*
X4363897Y-39479828D01*
X4299747Y-39634700D01*
X4206615Y-39774081D01*
X4088081Y-39892615D01*
X3948700Y-39985747D01*
X3793828Y-40049897D01*
X3629416Y-40082600D01*
X3461784Y-40082600D01*
X3297372Y-40049897D01*
X3142500Y-39985747D01*
X3003119Y-39892615D01*
X2884585Y-39774081D01*
X2791453Y-39634700D01*
X2727303Y-39479828D01*
X2694600Y-39315416D01*
X2694600Y-39147784D01*
X2727303Y-38983372D01*
X2791453Y-38828500D01*
X2884585Y-38689119D01*
X3003119Y-38570585D01*
X3142500Y-38477453D01*
X3297372Y-38413303D01*
X3461784Y-38380600D01*
X3629416Y-38380600D01*
X3793828Y-38413303D01*
G37*
G36*
X3793828Y-35873303D02*
G01*
X3948700Y-35937453D01*
X4088081Y-36030585D01*
X4206615Y-36149119D01*
X4299747Y-36288500D01*
X4363897Y-36443372D01*
X4396600Y-36607784D01*
X4396600Y-36775416D01*
X4363897Y-36939828D01*
X4299747Y-37094700D01*
X4206615Y-37234081D01*
X4088081Y-37352615D01*
X3948700Y-37445747D01*
X3793828Y-37509897D01*
X3629416Y-37542600D01*
X3461784Y-37542600D01*
X3297372Y-37509897D01*
X3142500Y-37445747D01*
X3003119Y-37352615D01*
X2884585Y-37234081D01*
X2791453Y-37094700D01*
X2727303Y-36939828D01*
X2694600Y-36775416D01*
X2694600Y-36607784D01*
X2727303Y-36443372D01*
X2791453Y-36288500D01*
X2884585Y-36149119D01*
X3003119Y-36030585D01*
X3142500Y-35937453D01*
X3297372Y-35873303D01*
X3461784Y-35840600D01*
X3629416Y-35840600D01*
X3793828Y-35873303D01*
G37*
G36*
X19033828Y-35873303D02*
G01*
X19188700Y-35937453D01*
X19328081Y-36030585D01*
X19446615Y-36149119D01*
X19539747Y-36288500D01*
X19603897Y-36443372D01*
X19636600Y-36607784D01*
X19636600Y-36775416D01*
X19603897Y-36939828D01*
X19539747Y-37094700D01*
X19446615Y-37234081D01*
X19328081Y-37352615D01*
X19188700Y-37445747D01*
X19033828Y-37509897D01*
X18869416Y-37542600D01*
X18701784Y-37542600D01*
X18537372Y-37509897D01*
X18382500Y-37445747D01*
X18243119Y-37352615D01*
X18124585Y-37234081D01*
X18031453Y-37094700D01*
X17967303Y-36939828D01*
X17934600Y-36775416D01*
X17934600Y-36607784D01*
X17967303Y-36443372D01*
X18031453Y-36288500D01*
X18124585Y-36149119D01*
X18243119Y-36030585D01*
X18382500Y-35937453D01*
X18537372Y-35873303D01*
X18701784Y-35840600D01*
X18869416Y-35840600D01*
X19033828Y-35873303D01*
G37*
G36*
X3793828Y-33333303D02*
G01*
X3948700Y-33397453D01*
X4088081Y-33490585D01*
X4206615Y-33609119D01*
X4299747Y-33748500D01*
X4363897Y-33903372D01*
X4396600Y-34067784D01*
X4396600Y-34235416D01*
X4363897Y-34399828D01*
X4299747Y-34554700D01*
X4206615Y-34694081D01*
X4088081Y-34812615D01*
X3948700Y-34905747D01*
X3793828Y-34969897D01*
X3629416Y-35002600D01*
X3461784Y-35002600D01*
X3297372Y-34969897D01*
X3142500Y-34905747D01*
X3003119Y-34812615D01*
X2884585Y-34694081D01*
X2791453Y-34554700D01*
X2727303Y-34399828D01*
X2694600Y-34235416D01*
X2694600Y-34067784D01*
X2727303Y-33903372D01*
X2791453Y-33748500D01*
X2884585Y-33609119D01*
X3003119Y-33490585D01*
X3142500Y-33397453D01*
X3297372Y-33333303D01*
X3461784Y-33300600D01*
X3629416Y-33300600D01*
X3793828Y-33333303D01*
G37*
G36*
X19033828Y-33333303D02*
G01*
X19188700Y-33397453D01*
X19328081Y-33490585D01*
X19446615Y-33609119D01*
X19539747Y-33748500D01*
X19603897Y-33903372D01*
X19636600Y-34067784D01*
X19636600Y-34235416D01*
X19603897Y-34399828D01*
X19539747Y-34554700D01*
X19446615Y-34694081D01*
X19328081Y-34812615D01*
X19188700Y-34905747D01*
X19033828Y-34969897D01*
X18869416Y-35002600D01*
X18701784Y-35002600D01*
X18537372Y-34969897D01*
X18382500Y-34905747D01*
X18243119Y-34812615D01*
X18124585Y-34694081D01*
X18031453Y-34554700D01*
X17967303Y-34399828D01*
X17934600Y-34235416D01*
X17934600Y-34067784D01*
X17967303Y-33903372D01*
X18031453Y-33748500D01*
X18124585Y-33609119D01*
X18243119Y-33490585D01*
X18382500Y-33397453D01*
X18537372Y-33333303D01*
X18701784Y-33300600D01*
X18869416Y-33300600D01*
X19033828Y-33333303D01*
G37*
G36*
X47222800Y-34799600D02*
G01*
X46120800Y-34799600D01*
X46120800Y-33597600D01*
X47222800Y-33597600D01*
X47222800Y-34799600D01*
G37*
G36*
X48722800Y-34799600D02*
G01*
X47620800Y-34799600D01*
X47620800Y-33597600D01*
X48722800Y-33597600D01*
X48722800Y-34799600D01*
G37*
G36*
X47222800Y-32899600D02*
G01*
X46120800Y-32899600D01*
X46120800Y-31697600D01*
X47222800Y-31697600D01*
X47222800Y-32899600D01*
G37*
G36*
X48722800Y-32899600D02*
G01*
X47620800Y-32899600D01*
X47620800Y-31697600D01*
X48722800Y-31697600D01*
X48722800Y-32899600D01*
G37*
G36*
X19033828Y-30793303D02*
G01*
X19188700Y-30857453D01*
X19328081Y-30950585D01*
X19446615Y-31069119D01*
X19539747Y-31208500D01*
X19603897Y-31363372D01*
X19636600Y-31527784D01*
X19636600Y-31695416D01*
X19603897Y-31859828D01*
X19539747Y-32014700D01*
X19446615Y-32154081D01*
X19328081Y-32272615D01*
X19188700Y-32365747D01*
X19033828Y-32429897D01*
X18869416Y-32462600D01*
X18701784Y-32462600D01*
X18537372Y-32429897D01*
X18382500Y-32365747D01*
X18243119Y-32272615D01*
X18124585Y-32154081D01*
X18031453Y-32014700D01*
X17967303Y-31859828D01*
X17934600Y-31695416D01*
X17934600Y-31527784D01*
X17967303Y-31363372D01*
X18031453Y-31208500D01*
X18124585Y-31069119D01*
X18243119Y-30950585D01*
X18382500Y-30857453D01*
X18537372Y-30793303D01*
X18701784Y-30760600D01*
X18869416Y-30760600D01*
X19033828Y-30793303D01*
G37*
G36*
X3793828Y-30793303D02*
G01*
X3948700Y-30857453D01*
X4088081Y-30950585D01*
X4206615Y-31069119D01*
X4299747Y-31208500D01*
X4363897Y-31363372D01*
X4396600Y-31527784D01*
X4396600Y-31695416D01*
X4363897Y-31859828D01*
X4299747Y-32014700D01*
X4206615Y-32154081D01*
X4088081Y-32272615D01*
X3948700Y-32365747D01*
X3793828Y-32429897D01*
X3629416Y-32462600D01*
X3461784Y-32462600D01*
X3297372Y-32429897D01*
X3142500Y-32365747D01*
X3003119Y-32272615D01*
X2884585Y-32154081D01*
X2791453Y-32014700D01*
X2727303Y-31859828D01*
X2694600Y-31695416D01*
X2694600Y-31527784D01*
X2727303Y-31363372D01*
X2791453Y-31208500D01*
X2884585Y-31069119D01*
X3003119Y-30950585D01*
X3142500Y-30857453D01*
X3297372Y-30793303D01*
X3461784Y-30760600D01*
X3629416Y-30760600D01*
X3793828Y-30793303D01*
G37*
G36*
X14678800Y-31400400D02*
G01*
X13006800Y-31400400D01*
X13006800Y-25038400D01*
X14678800Y-25038400D01*
X14678800Y-31400400D01*
G37*
G36*
X8938800Y-31400400D02*
G01*
X7266800Y-31400400D01*
X7266800Y-25038400D01*
X8938800Y-25038400D01*
X8938800Y-31400400D01*
G37*
G36*
X47551338Y-30494716D02*
G01*
X47571957Y-30500971D01*
X47590953Y-30511124D01*
X47607608Y-30524792D01*
X47621276Y-30541447D01*
X47631429Y-30560443D01*
X47637684Y-30581062D01*
X47640400Y-30608640D01*
X47640400Y-31067360D01*
X47637684Y-31094938D01*
X47631429Y-31115557D01*
X47621276Y-31134553D01*
X47607608Y-31151208D01*
X47590953Y-31164876D01*
X47571957Y-31175029D01*
X47551338Y-31181284D01*
X47523760Y-31184000D01*
X47015040Y-31184000D01*
X46987462Y-31181284D01*
X46966843Y-31175029D01*
X46947847Y-31164876D01*
X46931192Y-31151208D01*
X46917524Y-31134553D01*
X46907371Y-31115557D01*
X46901116Y-31094938D01*
X46898400Y-31067360D01*
X46898400Y-30608640D01*
X46901116Y-30581062D01*
X46907371Y-30560443D01*
X46917524Y-30541447D01*
X46931192Y-30524792D01*
X46947847Y-30511124D01*
X46966843Y-30500971D01*
X46987462Y-30494716D01*
X47015040Y-30492000D01*
X47523760Y-30492000D01*
X47551338Y-30494716D01*
G37*
G36*
X28555095Y-28925323D02*
G01*
X28562109Y-28927451D01*
X28575877Y-28934810D01*
X28598516Y-28944187D01*
X28622549Y-28948967D01*
X28647053Y-28948967D01*
X28671086Y-28944186D01*
X28693723Y-28934810D01*
X28707491Y-28927451D01*
X28714505Y-28925323D01*
X28727940Y-28924000D01*
X29041660Y-28924000D01*
X29055095Y-28925323D01*
X29062109Y-28927451D01*
X29075877Y-28934810D01*
X29098516Y-28944187D01*
X29122549Y-28948967D01*
X29147053Y-28948967D01*
X29171086Y-28944186D01*
X29193723Y-28934810D01*
X29207491Y-28927451D01*
X29214505Y-28925323D01*
X29227940Y-28924000D01*
X29541660Y-28924000D01*
X29555095Y-28925323D01*
X29562109Y-28927451D01*
X29575877Y-28934810D01*
X29598516Y-28944187D01*
X29622549Y-28948967D01*
X29647053Y-28948967D01*
X29671086Y-28944186D01*
X29693723Y-28934810D01*
X29707491Y-28927451D01*
X29714505Y-28925323D01*
X29727940Y-28924000D01*
X30041660Y-28924000D01*
X30055095Y-28925323D01*
X30062109Y-28927451D01*
X30075877Y-28934810D01*
X30098516Y-28944187D01*
X30122549Y-28948967D01*
X30147053Y-28948967D01*
X30171086Y-28944186D01*
X30193723Y-28934810D01*
X30207491Y-28927451D01*
X30214505Y-28925323D01*
X30227940Y-28924000D01*
X30541660Y-28924000D01*
X30555095Y-28925323D01*
X30562109Y-28927451D01*
X30575877Y-28934810D01*
X30598516Y-28944187D01*
X30622549Y-28948967D01*
X30647053Y-28948967D01*
X30671086Y-28944186D01*
X30693723Y-28934810D01*
X30707491Y-28927451D01*
X30714505Y-28925323D01*
X30727940Y-28924000D01*
X31041660Y-28924000D01*
X31055095Y-28925323D01*
X31062109Y-28927451D01*
X31075877Y-28934810D01*
X31098516Y-28944187D01*
X31122549Y-28948967D01*
X31147053Y-28948967D01*
X31171086Y-28944186D01*
X31193723Y-28934810D01*
X31207491Y-28927451D01*
X31214505Y-28925323D01*
X31227940Y-28924000D01*
X31541660Y-28924000D01*
X31555095Y-28925323D01*
X31562109Y-28927451D01*
X31575877Y-28934810D01*
X31598516Y-28944187D01*
X31622549Y-28948967D01*
X31647053Y-28948967D01*
X31671086Y-28944186D01*
X31693723Y-28934810D01*
X31707491Y-28927451D01*
X31714505Y-28925323D01*
X31727940Y-28924000D01*
X32041660Y-28924000D01*
X32055095Y-28925323D01*
X32062109Y-28927451D01*
X32075877Y-28934810D01*
X32098516Y-28944187D01*
X32122549Y-28948967D01*
X32147053Y-28948967D01*
X32171086Y-28944186D01*
X32193723Y-28934810D01*
X32207491Y-28927451D01*
X32214505Y-28925323D01*
X32227940Y-28924000D01*
X32541660Y-28924000D01*
X32555095Y-28925323D01*
X32562109Y-28927451D01*
X32575877Y-28934810D01*
X32598516Y-28944187D01*
X32622549Y-28948967D01*
X32647053Y-28948967D01*
X32671086Y-28944186D01*
X32693723Y-28934810D01*
X32707491Y-28927451D01*
X32714505Y-28925323D01*
X32727940Y-28924000D01*
X33041660Y-28924000D01*
X33055095Y-28925323D01*
X33062109Y-28927451D01*
X33075877Y-28934810D01*
X33098516Y-28944187D01*
X33122549Y-28948967D01*
X33147053Y-28948967D01*
X33171086Y-28944186D01*
X33193723Y-28934810D01*
X33207491Y-28927451D01*
X33214505Y-28925323D01*
X33227940Y-28924000D01*
X33541660Y-28924000D01*
X33555095Y-28925323D01*
X33562109Y-28927451D01*
X33575877Y-28934810D01*
X33598516Y-28944187D01*
X33622549Y-28948967D01*
X33647053Y-28948967D01*
X33671086Y-28944186D01*
X33693723Y-28934810D01*
X33707491Y-28927451D01*
X33714505Y-28925323D01*
X33727940Y-28924000D01*
X34041660Y-28924000D01*
X34055095Y-28925323D01*
X34062109Y-28927451D01*
X34075877Y-28934810D01*
X34098516Y-28944187D01*
X34122549Y-28948967D01*
X34147053Y-28948967D01*
X34171086Y-28944186D01*
X34193723Y-28934810D01*
X34207491Y-28927451D01*
X34214505Y-28925323D01*
X34227940Y-28924000D01*
X34541660Y-28924000D01*
X34555095Y-28925323D01*
X34562109Y-28927451D01*
X34575877Y-28934810D01*
X34598516Y-28944187D01*
X34622549Y-28948967D01*
X34647053Y-28948967D01*
X34671086Y-28944186D01*
X34693723Y-28934810D01*
X34707491Y-28927451D01*
X34714505Y-28925323D01*
X34727940Y-28924000D01*
X35041660Y-28924000D01*
X35055095Y-28925323D01*
X35062109Y-28927451D01*
X35075877Y-28934810D01*
X35098516Y-28944187D01*
X35122549Y-28948967D01*
X35147053Y-28948967D01*
X35171086Y-28944186D01*
X35193723Y-28934810D01*
X35207491Y-28927451D01*
X35214505Y-28925323D01*
X35227940Y-28924000D01*
X35541660Y-28924000D01*
X35555095Y-28925323D01*
X35562109Y-28927451D01*
X35575877Y-28934810D01*
X35598516Y-28944187D01*
X35622549Y-28948967D01*
X35647053Y-28948967D01*
X35671086Y-28944186D01*
X35693723Y-28934810D01*
X35707491Y-28927451D01*
X35714505Y-28925323D01*
X35727940Y-28924000D01*
X36041660Y-28924000D01*
X36055095Y-28925323D01*
X36062109Y-28927451D01*
X36075877Y-28934810D01*
X36098516Y-28944187D01*
X36122549Y-28948967D01*
X36147053Y-28948967D01*
X36171086Y-28944186D01*
X36193723Y-28934810D01*
X36207491Y-28927451D01*
X36214505Y-28925323D01*
X36227940Y-28924000D01*
X36541660Y-28924000D01*
X36555095Y-28925323D01*
X36562109Y-28927451D01*
X36575877Y-28934810D01*
X36598516Y-28944187D01*
X36622549Y-28948967D01*
X36647053Y-28948967D01*
X36671086Y-28944186D01*
X36693723Y-28934810D01*
X36707491Y-28927451D01*
X36714505Y-28925323D01*
X36727940Y-28924000D01*
X37041660Y-28924000D01*
X37055095Y-28925323D01*
X37062109Y-28927451D01*
X37075877Y-28934810D01*
X37098516Y-28944187D01*
X37122549Y-28948967D01*
X37147053Y-28948967D01*
X37171086Y-28944186D01*
X37193723Y-28934810D01*
X37207491Y-28927451D01*
X37214505Y-28925323D01*
X37227940Y-28924000D01*
X37541660Y-28924000D01*
X37555095Y-28925323D01*
X37562109Y-28927451D01*
X37575877Y-28934810D01*
X37598516Y-28944187D01*
X37622549Y-28948967D01*
X37647053Y-28948967D01*
X37671086Y-28944186D01*
X37693723Y-28934810D01*
X37707491Y-28927451D01*
X37714505Y-28925323D01*
X37727940Y-28924000D01*
X38041660Y-28924000D01*
X38055095Y-28925323D01*
X38062109Y-28927451D01*
X38075877Y-28934810D01*
X38098516Y-28944187D01*
X38122549Y-28948967D01*
X38147053Y-28948967D01*
X38171086Y-28944186D01*
X38193723Y-28934810D01*
X38207491Y-28927451D01*
X38214505Y-28925323D01*
X38227940Y-28924000D01*
X38541660Y-28924000D01*
X38555095Y-28925323D01*
X38562109Y-28927451D01*
X38575877Y-28934810D01*
X38598516Y-28944187D01*
X38622549Y-28948967D01*
X38647053Y-28948967D01*
X38671086Y-28944186D01*
X38693723Y-28934810D01*
X38707491Y-28927451D01*
X38714505Y-28925323D01*
X38727940Y-28924000D01*
X39041660Y-28924000D01*
X39055095Y-28925323D01*
X39062109Y-28927451D01*
X39075877Y-28934810D01*
X39098516Y-28944187D01*
X39122549Y-28948967D01*
X39147053Y-28948967D01*
X39171086Y-28944186D01*
X39193723Y-28934810D01*
X39207491Y-28927451D01*
X39214505Y-28925323D01*
X39227940Y-28924000D01*
X39541660Y-28924000D01*
X39555095Y-28925323D01*
X39562109Y-28927451D01*
X39575877Y-28934810D01*
X39598516Y-28944187D01*
X39622549Y-28948967D01*
X39647053Y-28948967D01*
X39671086Y-28944186D01*
X39693723Y-28934810D01*
X39707491Y-28927451D01*
X39714505Y-28925323D01*
X39727940Y-28924000D01*
X40041660Y-28924000D01*
X40055095Y-28925323D01*
X40062109Y-28927451D01*
X40075877Y-28934810D01*
X40098516Y-28944187D01*
X40122549Y-28948967D01*
X40147053Y-28948967D01*
X40171086Y-28944186D01*
X40193723Y-28934810D01*
X40207491Y-28927451D01*
X40214505Y-28925323D01*
X40227940Y-28924000D01*
X40541660Y-28924000D01*
X40555095Y-28925323D01*
X40562109Y-28927451D01*
X40575877Y-28934810D01*
X40598516Y-28944187D01*
X40622549Y-28948967D01*
X40647053Y-28948967D01*
X40671086Y-28944186D01*
X40693723Y-28934810D01*
X40707491Y-28927451D01*
X40714505Y-28925323D01*
X40727940Y-28924000D01*
X41041660Y-28924000D01*
X41055095Y-28925323D01*
X41062109Y-28927451D01*
X41075877Y-28934810D01*
X41098516Y-28944187D01*
X41122549Y-28948967D01*
X41147053Y-28948967D01*
X41171086Y-28944186D01*
X41193723Y-28934810D01*
X41207491Y-28927451D01*
X41214505Y-28925323D01*
X41227940Y-28924000D01*
X41541660Y-28924000D01*
X41555095Y-28925323D01*
X41562109Y-28927451D01*
X41575877Y-28934810D01*
X41598516Y-28944187D01*
X41622549Y-28948967D01*
X41647053Y-28948967D01*
X41671086Y-28944186D01*
X41693723Y-28934810D01*
X41707491Y-28927451D01*
X41714505Y-28925323D01*
X41727940Y-28924000D01*
X42041660Y-28924000D01*
X42055095Y-28925323D01*
X42062109Y-28927451D01*
X42075877Y-28934810D01*
X42098516Y-28944187D01*
X42122549Y-28948967D01*
X42147053Y-28948967D01*
X42171086Y-28944186D01*
X42193723Y-28934810D01*
X42207491Y-28927451D01*
X42214505Y-28925323D01*
X42227940Y-28924000D01*
X42541660Y-28924000D01*
X42555095Y-28925323D01*
X42562109Y-28927451D01*
X42575877Y-28934810D01*
X42598516Y-28944187D01*
X42622549Y-28948967D01*
X42647053Y-28948967D01*
X42671086Y-28944186D01*
X42693723Y-28934810D01*
X42707491Y-28927451D01*
X42714505Y-28925323D01*
X42727940Y-28924000D01*
X43041660Y-28924000D01*
X43055095Y-28925323D01*
X43062109Y-28927451D01*
X43075877Y-28934810D01*
X43098516Y-28944187D01*
X43122549Y-28948967D01*
X43147053Y-28948967D01*
X43171086Y-28944186D01*
X43193723Y-28934810D01*
X43207491Y-28927451D01*
X43214505Y-28925323D01*
X43227940Y-28924000D01*
X43541660Y-28924000D01*
X43555095Y-28925323D01*
X43562109Y-28927451D01*
X43575877Y-28934810D01*
X43598516Y-28944187D01*
X43622549Y-28948967D01*
X43647053Y-28948967D01*
X43671086Y-28944186D01*
X43693723Y-28934810D01*
X43707491Y-28927451D01*
X43714505Y-28925323D01*
X43727940Y-28924000D01*
X44041660Y-28924000D01*
X44055095Y-28925323D01*
X44062109Y-28927451D01*
X44075877Y-28934810D01*
X44098516Y-28944187D01*
X44122549Y-28948967D01*
X44147053Y-28948967D01*
X44171086Y-28944186D01*
X44193723Y-28934810D01*
X44207491Y-28927451D01*
X44214505Y-28925323D01*
X44227940Y-28924000D01*
X44541660Y-28924000D01*
X44555095Y-28925323D01*
X44562109Y-28927451D01*
X44575877Y-28934810D01*
X44598516Y-28944187D01*
X44622549Y-28948967D01*
X44647053Y-28948967D01*
X44671086Y-28944186D01*
X44693723Y-28934810D01*
X44707491Y-28927451D01*
X44714505Y-28925323D01*
X44727940Y-28924000D01*
X45041660Y-28924000D01*
X45055095Y-28925323D01*
X45062109Y-28927451D01*
X45075877Y-28934810D01*
X45098516Y-28944187D01*
X45122549Y-28948967D01*
X45147053Y-28948967D01*
X45171086Y-28944186D01*
X45193723Y-28934810D01*
X45207491Y-28927451D01*
X45214505Y-28925323D01*
X45227940Y-28924000D01*
X45541660Y-28924000D01*
X45555095Y-28925323D01*
X45562109Y-28927451D01*
X45575877Y-28934810D01*
X45598516Y-28944187D01*
X45622549Y-28948967D01*
X45647053Y-28948967D01*
X45671086Y-28944186D01*
X45693723Y-28934810D01*
X45707491Y-28927451D01*
X45714505Y-28925323D01*
X45727940Y-28924000D01*
X46041660Y-28924000D01*
X46055095Y-28925323D01*
X46062110Y-28927451D01*
X46068576Y-28930908D01*
X46074242Y-28935558D01*
X46078892Y-28941224D01*
X46082349Y-28947690D01*
X46084477Y-28954705D01*
X46085800Y-28968140D01*
X46085800Y-30456860D01*
X46084477Y-30470295D01*
X46082349Y-30477310D01*
X46078892Y-30483776D01*
X46074242Y-30489442D01*
X46068576Y-30494092D01*
X46062110Y-30497549D01*
X46055095Y-30499677D01*
X46041660Y-30501000D01*
X45727940Y-30501000D01*
X45714505Y-30499677D01*
X45707491Y-30497549D01*
X45693723Y-30490190D01*
X45671084Y-30480813D01*
X45647051Y-30476033D01*
X45622547Y-30476033D01*
X45598514Y-30480814D01*
X45575877Y-30490190D01*
X45562109Y-30497549D01*
X45555095Y-30499677D01*
X45541660Y-30501000D01*
X45227940Y-30501000D01*
X45214505Y-30499677D01*
X45207491Y-30497549D01*
X45193723Y-30490190D01*
X45171084Y-30480813D01*
X45147051Y-30476033D01*
X45122547Y-30476033D01*
X45098514Y-30480814D01*
X45075877Y-30490190D01*
X45062109Y-30497549D01*
X45055095Y-30499677D01*
X45041660Y-30501000D01*
X44727940Y-30501000D01*
X44714505Y-30499677D01*
X44707491Y-30497549D01*
X44693723Y-30490190D01*
X44671084Y-30480813D01*
X44647051Y-30476033D01*
X44622547Y-30476033D01*
X44598514Y-30480814D01*
X44575877Y-30490190D01*
X44562109Y-30497549D01*
X44555095Y-30499677D01*
X44541660Y-30501000D01*
X44227940Y-30501000D01*
X44214505Y-30499677D01*
X44207491Y-30497549D01*
X44193723Y-30490190D01*
X44171084Y-30480813D01*
X44147051Y-30476033D01*
X44122547Y-30476033D01*
X44098514Y-30480814D01*
X44075877Y-30490190D01*
X44062109Y-30497549D01*
X44055095Y-30499677D01*
X44041660Y-30501000D01*
X43727940Y-30501000D01*
X43714505Y-30499677D01*
X43707491Y-30497549D01*
X43693723Y-30490190D01*
X43671084Y-30480813D01*
X43647051Y-30476033D01*
X43622547Y-30476033D01*
X43598514Y-30480814D01*
X43575877Y-30490190D01*
X43562109Y-30497549D01*
X43555095Y-30499677D01*
X43541660Y-30501000D01*
X43227940Y-30501000D01*
X43214505Y-30499677D01*
X43207491Y-30497549D01*
X43193723Y-30490190D01*
X43171084Y-30480813D01*
X43147051Y-30476033D01*
X43122547Y-30476033D01*
X43098514Y-30480814D01*
X43075877Y-30490190D01*
X43062109Y-30497549D01*
X43055095Y-30499677D01*
X43041660Y-30501000D01*
X42727940Y-30501000D01*
X42714505Y-30499677D01*
X42707491Y-30497549D01*
X42693723Y-30490190D01*
X42671084Y-30480813D01*
X42647051Y-30476033D01*
X42622547Y-30476033D01*
X42598514Y-30480814D01*
X42575877Y-30490190D01*
X42562109Y-30497549D01*
X42555095Y-30499677D01*
X42541660Y-30501000D01*
X42227940Y-30501000D01*
X42214505Y-30499677D01*
X42207491Y-30497549D01*
X42193723Y-30490190D01*
X42171084Y-30480813D01*
X42147051Y-30476033D01*
X42122547Y-30476033D01*
X42098514Y-30480814D01*
X42075877Y-30490190D01*
X42062109Y-30497549D01*
X42055095Y-30499677D01*
X42041660Y-30501000D01*
X41727940Y-30501000D01*
X41714505Y-30499677D01*
X41707491Y-30497549D01*
X41693723Y-30490190D01*
X41671084Y-30480813D01*
X41647051Y-30476033D01*
X41622547Y-30476033D01*
X41598514Y-30480814D01*
X41575877Y-30490190D01*
X41562109Y-30497549D01*
X41555095Y-30499677D01*
X41541660Y-30501000D01*
X41227940Y-30501000D01*
X41214505Y-30499677D01*
X41207491Y-30497549D01*
X41193723Y-30490190D01*
X41171084Y-30480813D01*
X41147051Y-30476033D01*
X41122547Y-30476033D01*
X41098514Y-30480814D01*
X41075877Y-30490190D01*
X41062109Y-30497549D01*
X41055095Y-30499677D01*
X41041660Y-30501000D01*
X40727940Y-30501000D01*
X40714505Y-30499677D01*
X40707491Y-30497549D01*
X40693723Y-30490190D01*
X40671084Y-30480813D01*
X40647051Y-30476033D01*
X40622547Y-30476033D01*
X40598514Y-30480814D01*
X40575877Y-30490190D01*
X40562109Y-30497549D01*
X40555095Y-30499677D01*
X40541660Y-30501000D01*
X40227940Y-30501000D01*
X40214505Y-30499677D01*
X40207491Y-30497549D01*
X40193723Y-30490190D01*
X40171084Y-30480813D01*
X40147051Y-30476033D01*
X40122547Y-30476033D01*
X40098514Y-30480814D01*
X40075877Y-30490190D01*
X40062109Y-30497549D01*
X40055095Y-30499677D01*
X40041660Y-30501000D01*
X39727940Y-30501000D01*
X39714505Y-30499677D01*
X39707491Y-30497549D01*
X39693723Y-30490190D01*
X39671084Y-30480813D01*
X39647051Y-30476033D01*
X39622547Y-30476033D01*
X39598514Y-30480814D01*
X39575877Y-30490190D01*
X39562109Y-30497549D01*
X39555095Y-30499677D01*
X39541660Y-30501000D01*
X39227940Y-30501000D01*
X39214505Y-30499677D01*
X39207491Y-30497549D01*
X39193723Y-30490190D01*
X39171084Y-30480813D01*
X39147051Y-30476033D01*
X39122547Y-30476033D01*
X39098514Y-30480814D01*
X39075877Y-30490190D01*
X39062109Y-30497549D01*
X39055095Y-30499677D01*
X39041660Y-30501000D01*
X38727940Y-30501000D01*
X38714505Y-30499677D01*
X38707491Y-30497549D01*
X38693723Y-30490190D01*
X38671084Y-30480813D01*
X38647051Y-30476033D01*
X38622547Y-30476033D01*
X38598514Y-30480814D01*
X38575877Y-30490190D01*
X38562109Y-30497549D01*
X38555095Y-30499677D01*
X38541660Y-30501000D01*
X38227940Y-30501000D01*
X38214505Y-30499677D01*
X38207491Y-30497549D01*
X38193723Y-30490190D01*
X38171084Y-30480813D01*
X38147051Y-30476033D01*
X38122547Y-30476033D01*
X38098514Y-30480814D01*
X38075877Y-30490190D01*
X38062109Y-30497549D01*
X38055095Y-30499677D01*
X38041660Y-30501000D01*
X37727940Y-30501000D01*
X37714505Y-30499677D01*
X37707491Y-30497549D01*
X37693723Y-30490190D01*
X37671084Y-30480813D01*
X37647051Y-30476033D01*
X37622547Y-30476033D01*
X37598514Y-30480814D01*
X37575877Y-30490190D01*
X37562109Y-30497549D01*
X37555095Y-30499677D01*
X37541660Y-30501000D01*
X37227940Y-30501000D01*
X37214505Y-30499677D01*
X37207491Y-30497549D01*
X37193723Y-30490190D01*
X37171084Y-30480813D01*
X37147051Y-30476033D01*
X37122547Y-30476033D01*
X37098514Y-30480814D01*
X37075877Y-30490190D01*
X37062109Y-30497549D01*
X37055095Y-30499677D01*
X37041660Y-30501000D01*
X36727940Y-30501000D01*
X36714505Y-30499677D01*
X36707491Y-30497549D01*
X36693723Y-30490190D01*
X36671084Y-30480813D01*
X36647051Y-30476033D01*
X36622547Y-30476033D01*
X36598514Y-30480814D01*
X36575877Y-30490190D01*
X36562109Y-30497549D01*
X36555095Y-30499677D01*
X36541660Y-30501000D01*
X36227940Y-30501000D01*
X36214505Y-30499677D01*
X36207491Y-30497549D01*
X36193723Y-30490190D01*
X36171084Y-30480813D01*
X36147051Y-30476033D01*
X36122547Y-30476033D01*
X36098514Y-30480814D01*
X36075877Y-30490190D01*
X36062109Y-30497549D01*
X36055095Y-30499677D01*
X36041660Y-30501000D01*
X35727940Y-30501000D01*
X35714505Y-30499677D01*
X35707491Y-30497549D01*
X35693723Y-30490190D01*
X35671084Y-30480813D01*
X35647051Y-30476033D01*
X35622547Y-30476033D01*
X35598514Y-30480814D01*
X35575877Y-30490190D01*
X35562109Y-30497549D01*
X35555095Y-30499677D01*
X35541660Y-30501000D01*
X35227940Y-30501000D01*
X35214505Y-30499677D01*
X35207491Y-30497549D01*
X35193723Y-30490190D01*
X35171084Y-30480813D01*
X35147051Y-30476033D01*
X35122547Y-30476033D01*
X35098514Y-30480814D01*
X35075877Y-30490190D01*
X35062109Y-30497549D01*
X35055095Y-30499677D01*
X35041660Y-30501000D01*
X34727940Y-30501000D01*
X34714505Y-30499677D01*
X34707491Y-30497549D01*
X34693723Y-30490190D01*
X34671084Y-30480813D01*
X34647051Y-30476033D01*
X34622547Y-30476033D01*
X34598514Y-30480814D01*
X34575877Y-30490190D01*
X34562109Y-30497549D01*
X34555095Y-30499677D01*
X34541660Y-30501000D01*
X34227940Y-30501000D01*
X34214505Y-30499677D01*
X34207491Y-30497549D01*
X34193723Y-30490190D01*
X34171084Y-30480813D01*
X34147051Y-30476033D01*
X34122547Y-30476033D01*
X34098514Y-30480814D01*
X34075877Y-30490190D01*
X34062109Y-30497549D01*
X34055095Y-30499677D01*
X34041660Y-30501000D01*
X33727940Y-30501000D01*
X33714505Y-30499677D01*
X33707491Y-30497549D01*
X33693723Y-30490190D01*
X33671084Y-30480813D01*
X33647051Y-30476033D01*
X33622547Y-30476033D01*
X33598514Y-30480814D01*
X33575877Y-30490190D01*
X33562109Y-30497549D01*
X33555095Y-30499677D01*
X33541660Y-30501000D01*
X33227940Y-30501000D01*
X33214505Y-30499677D01*
X33207491Y-30497549D01*
X33193723Y-30490190D01*
X33171084Y-30480813D01*
X33147051Y-30476033D01*
X33122547Y-30476033D01*
X33098514Y-30480814D01*
X33075877Y-30490190D01*
X33062109Y-30497549D01*
X33055095Y-30499677D01*
X33041660Y-30501000D01*
X32727940Y-30501000D01*
X32714505Y-30499677D01*
X32707491Y-30497549D01*
X32693723Y-30490190D01*
X32671084Y-30480813D01*
X32647051Y-30476033D01*
X32622547Y-30476033D01*
X32598514Y-30480814D01*
X32575877Y-30490190D01*
X32562109Y-30497549D01*
X32555095Y-30499677D01*
X32541660Y-30501000D01*
X32227940Y-30501000D01*
X32214505Y-30499677D01*
X32207491Y-30497549D01*
X32193723Y-30490190D01*
X32171084Y-30480813D01*
X32147051Y-30476033D01*
X32122547Y-30476033D01*
X32098514Y-30480814D01*
X32075877Y-30490190D01*
X32062109Y-30497549D01*
X32055095Y-30499677D01*
X32041660Y-30501000D01*
X31727940Y-30501000D01*
X31714505Y-30499677D01*
X31707491Y-30497549D01*
X31693723Y-30490190D01*
X31671084Y-30480813D01*
X31647051Y-30476033D01*
X31622547Y-30476033D01*
X31598514Y-30480814D01*
X31575877Y-30490190D01*
X31562109Y-30497549D01*
X31555095Y-30499677D01*
X31541660Y-30501000D01*
X31227940Y-30501000D01*
X31214505Y-30499677D01*
X31207491Y-30497549D01*
X31193723Y-30490190D01*
X31171084Y-30480813D01*
X31147051Y-30476033D01*
X31122547Y-30476033D01*
X31098514Y-30480814D01*
X31075877Y-30490190D01*
X31062109Y-30497549D01*
X31055095Y-30499677D01*
X31041660Y-30501000D01*
X30727940Y-30501000D01*
X30714505Y-30499677D01*
X30707491Y-30497549D01*
X30693723Y-30490190D01*
X30671084Y-30480813D01*
X30647051Y-30476033D01*
X30622547Y-30476033D01*
X30598514Y-30480814D01*
X30575877Y-30490190D01*
X30562109Y-30497549D01*
X30555095Y-30499677D01*
X30541660Y-30501000D01*
X30227940Y-30501000D01*
X30214505Y-30499677D01*
X30207491Y-30497549D01*
X30193723Y-30490190D01*
X30171084Y-30480813D01*
X30147051Y-30476033D01*
X30122547Y-30476033D01*
X30098514Y-30480814D01*
X30075877Y-30490190D01*
X30062109Y-30497549D01*
X30055095Y-30499677D01*
X30041660Y-30501000D01*
X29727940Y-30501000D01*
X29714505Y-30499677D01*
X29707491Y-30497549D01*
X29693723Y-30490190D01*
X29671084Y-30480813D01*
X29647051Y-30476033D01*
X29622547Y-30476033D01*
X29598514Y-30480814D01*
X29575877Y-30490190D01*
X29562109Y-30497549D01*
X29555095Y-30499677D01*
X29541660Y-30501000D01*
X29227940Y-30501000D01*
X29214505Y-30499677D01*
X29207491Y-30497549D01*
X29193723Y-30490190D01*
X29171084Y-30480813D01*
X29147051Y-30476033D01*
X29122547Y-30476033D01*
X29098514Y-30480814D01*
X29075877Y-30490190D01*
X29062109Y-30497549D01*
X29055095Y-30499677D01*
X29041660Y-30501000D01*
X28727940Y-30501000D01*
X28714505Y-30499677D01*
X28707491Y-30497549D01*
X28693723Y-30490190D01*
X28671084Y-30480813D01*
X28647051Y-30476033D01*
X28622547Y-30476033D01*
X28598514Y-30480814D01*
X28575877Y-30490190D01*
X28562109Y-30497549D01*
X28555095Y-30499677D01*
X28541660Y-30501000D01*
X28227940Y-30501000D01*
X28214505Y-30499677D01*
X28207490Y-30497549D01*
X28201024Y-30494092D01*
X28195358Y-30489442D01*
X28190708Y-30483776D01*
X28187251Y-30477310D01*
X28185123Y-30470295D01*
X28183800Y-30456860D01*
X28183800Y-28968140D01*
X28185123Y-28954705D01*
X28187251Y-28947690D01*
X28190708Y-28941224D01*
X28195358Y-28935558D01*
X28201024Y-28930908D01*
X28207490Y-28927451D01*
X28214505Y-28925323D01*
X28227940Y-28924000D01*
X28541660Y-28924000D01*
X28555095Y-28925323D01*
G37*
G36*
X47551338Y-29524716D02*
G01*
X47571957Y-29530971D01*
X47590953Y-29541124D01*
X47607608Y-29554792D01*
X47621276Y-29571447D01*
X47631429Y-29590443D01*
X47637684Y-29611062D01*
X47640400Y-29638640D01*
X47640400Y-30097360D01*
X47637684Y-30124938D01*
X47631429Y-30145557D01*
X47621276Y-30164553D01*
X47607608Y-30181208D01*
X47590953Y-30194876D01*
X47571957Y-30205029D01*
X47551338Y-30211284D01*
X47523760Y-30214000D01*
X47015040Y-30214000D01*
X46987462Y-30211284D01*
X46966843Y-30205029D01*
X46947847Y-30194876D01*
X46931192Y-30181208D01*
X46917524Y-30164553D01*
X46907371Y-30145557D01*
X46901116Y-30124938D01*
X46898400Y-30097360D01*
X46898400Y-29638640D01*
X46901116Y-29611062D01*
X46907371Y-29590443D01*
X46917524Y-29571447D01*
X46931192Y-29554792D01*
X46947847Y-29541124D01*
X46966843Y-29530971D01*
X46987462Y-29524716D01*
X47015040Y-29522000D01*
X47523760Y-29522000D01*
X47551338Y-29524716D01*
G37*
G36*
X19033828Y-28253303D02*
G01*
X19188700Y-28317453D01*
X19328081Y-28410585D01*
X19446615Y-28529119D01*
X19539747Y-28668500D01*
X19603897Y-28823372D01*
X19636600Y-28987784D01*
X19636600Y-29155416D01*
X19603897Y-29319828D01*
X19539747Y-29474700D01*
X19446615Y-29614081D01*
X19328081Y-29732615D01*
X19188700Y-29825747D01*
X19033828Y-29889897D01*
X18869416Y-29922600D01*
X18701784Y-29922600D01*
X18537372Y-29889897D01*
X18382500Y-29825747D01*
X18243119Y-29732615D01*
X18124585Y-29614081D01*
X18031453Y-29474700D01*
X17967303Y-29319828D01*
X17934600Y-29155416D01*
X17934600Y-28987784D01*
X17967303Y-28823372D01*
X18031453Y-28668500D01*
X18124585Y-28529119D01*
X18243119Y-28410585D01*
X18382500Y-28317453D01*
X18537372Y-28253303D01*
X18701784Y-28220600D01*
X18869416Y-28220600D01*
X19033828Y-28253303D01*
G37*
G36*
X3793828Y-28253303D02*
G01*
X3948700Y-28317453D01*
X4088081Y-28410585D01*
X4206615Y-28529119D01*
X4299747Y-28668500D01*
X4363897Y-28823372D01*
X4396600Y-28987784D01*
X4396600Y-29155416D01*
X4363897Y-29319828D01*
X4299747Y-29474700D01*
X4206615Y-29614081D01*
X4088081Y-29732615D01*
X3948700Y-29825747D01*
X3793828Y-29889897D01*
X3629416Y-29922600D01*
X3461784Y-29922600D01*
X3297372Y-29889897D01*
X3142500Y-29825747D01*
X3003119Y-29732615D01*
X2884585Y-29614081D01*
X2791453Y-29474700D01*
X2727303Y-29319828D01*
X2694600Y-29155416D01*
X2694600Y-28987784D01*
X2727303Y-28823372D01*
X2791453Y-28668500D01*
X2884585Y-28529119D01*
X3003119Y-28410585D01*
X3142500Y-28317453D01*
X3297372Y-28253303D01*
X3461784Y-28220600D01*
X3629416Y-28220600D01*
X3793828Y-28253303D01*
G37*
G36*
X48555095Y-10100323D02*
G01*
X48562110Y-10102451D01*
X48568576Y-10105908D01*
X48574242Y-10110558D01*
X48578892Y-10116224D01*
X48582349Y-10122690D01*
X48584477Y-10129705D01*
X48585800Y-10143140D01*
X48585800Y-10456860D01*
X48584477Y-10470295D01*
X48582349Y-10477309D01*
X48574990Y-10491077D01*
X48565613Y-10513716D01*
X48560833Y-10537749D01*
X48560833Y-10562253D01*
X48565614Y-10586286D01*
X48574990Y-10608923D01*
X48582349Y-10622691D01*
X48584477Y-10629705D01*
X48585800Y-10643140D01*
X48585800Y-10956860D01*
X48584477Y-10970295D01*
X48582349Y-10977309D01*
X48574990Y-10991077D01*
X48565613Y-11013716D01*
X48560833Y-11037749D01*
X48560833Y-11062253D01*
X48565614Y-11086286D01*
X48574990Y-11108923D01*
X48582349Y-11122691D01*
X48584477Y-11129705D01*
X48585800Y-11143140D01*
X48585800Y-11456860D01*
X48584477Y-11470295D01*
X48582349Y-11477309D01*
X48574990Y-11491077D01*
X48565613Y-11513716D01*
X48560833Y-11537749D01*
X48560833Y-11562253D01*
X48565614Y-11586286D01*
X48574990Y-11608923D01*
X48582349Y-11622691D01*
X48584477Y-11629705D01*
X48585800Y-11643140D01*
X48585800Y-11956860D01*
X48584477Y-11970295D01*
X48582349Y-11977309D01*
X48574990Y-11991077D01*
X48565613Y-12013716D01*
X48560833Y-12037749D01*
X48560833Y-12062253D01*
X48565614Y-12086286D01*
X48574990Y-12108923D01*
X48582349Y-12122691D01*
X48584477Y-12129705D01*
X48585800Y-12143140D01*
X48585800Y-12456860D01*
X48584477Y-12470295D01*
X48582349Y-12477309D01*
X48574990Y-12491077D01*
X48565613Y-12513716D01*
X48560833Y-12537749D01*
X48560833Y-12562253D01*
X48565614Y-12586286D01*
X48574990Y-12608923D01*
X48582349Y-12622691D01*
X48584477Y-12629705D01*
X48585800Y-12643140D01*
X48585800Y-12956860D01*
X48584477Y-12970295D01*
X48582349Y-12977309D01*
X48574990Y-12991077D01*
X48565613Y-13013716D01*
X48560833Y-13037749D01*
X48560833Y-13062253D01*
X48565614Y-13086286D01*
X48574990Y-13108923D01*
X48582349Y-13122691D01*
X48584477Y-13129705D01*
X48585800Y-13143140D01*
X48585800Y-13456860D01*
X48584477Y-13470295D01*
X48582349Y-13477309D01*
X48574990Y-13491077D01*
X48565613Y-13513716D01*
X48560833Y-13537749D01*
X48560833Y-13562253D01*
X48565614Y-13586286D01*
X48574990Y-13608923D01*
X48582349Y-13622691D01*
X48584477Y-13629705D01*
X48585800Y-13643140D01*
X48585800Y-13956860D01*
X48584477Y-13970295D01*
X48582349Y-13977309D01*
X48574990Y-13991077D01*
X48565613Y-14013716D01*
X48560833Y-14037749D01*
X48560833Y-14062253D01*
X48565614Y-14086286D01*
X48574990Y-14108923D01*
X48582349Y-14122691D01*
X48584477Y-14129705D01*
X48585800Y-14143140D01*
X48585800Y-14456860D01*
X48584477Y-14470295D01*
X48582349Y-14477309D01*
X48574990Y-14491077D01*
X48565613Y-14513716D01*
X48560833Y-14537749D01*
X48560833Y-14562253D01*
X48565614Y-14586286D01*
X48574990Y-14608923D01*
X48582349Y-14622691D01*
X48584477Y-14629705D01*
X48585800Y-14643140D01*
X48585800Y-14956860D01*
X48584477Y-14970295D01*
X48582349Y-14977309D01*
X48574990Y-14991077D01*
X48565613Y-15013716D01*
X48560833Y-15037749D01*
X48560833Y-15062253D01*
X48565614Y-15086286D01*
X48574990Y-15108923D01*
X48582349Y-15122691D01*
X48584477Y-15129705D01*
X48585800Y-15143140D01*
X48585800Y-15456860D01*
X48584477Y-15470295D01*
X48582349Y-15477309D01*
X48574990Y-15491077D01*
X48565613Y-15513716D01*
X48560833Y-15537749D01*
X48560833Y-15562253D01*
X48565614Y-15586286D01*
X48574990Y-15608923D01*
X48582349Y-15622691D01*
X48584477Y-15629705D01*
X48585800Y-15643140D01*
X48585800Y-15956860D01*
X48584477Y-15970295D01*
X48582349Y-15977309D01*
X48574990Y-15991077D01*
X48565613Y-16013716D01*
X48560833Y-16037749D01*
X48560833Y-16062253D01*
X48565614Y-16086286D01*
X48574990Y-16108923D01*
X48582349Y-16122691D01*
X48584477Y-16129705D01*
X48585800Y-16143140D01*
X48585800Y-16456860D01*
X48584477Y-16470295D01*
X48582349Y-16477309D01*
X48574990Y-16491077D01*
X48565613Y-16513716D01*
X48560833Y-16537749D01*
X48560833Y-16562253D01*
X48565614Y-16586286D01*
X48574990Y-16608923D01*
X48582349Y-16622691D01*
X48584477Y-16629705D01*
X48585800Y-16643140D01*
X48585800Y-16956860D01*
X48584477Y-16970295D01*
X48582349Y-16977309D01*
X48574990Y-16991077D01*
X48565613Y-17013716D01*
X48560833Y-17037749D01*
X48560833Y-17062253D01*
X48565614Y-17086286D01*
X48574990Y-17108923D01*
X48582349Y-17122691D01*
X48584477Y-17129705D01*
X48585800Y-17143140D01*
X48585800Y-17456860D01*
X48584477Y-17470295D01*
X48582349Y-17477309D01*
X48574990Y-17491077D01*
X48565613Y-17513716D01*
X48560833Y-17537749D01*
X48560833Y-17562253D01*
X48565614Y-17586286D01*
X48574990Y-17608923D01*
X48582349Y-17622691D01*
X48584477Y-17629705D01*
X48585800Y-17643140D01*
X48585800Y-17956860D01*
X48584477Y-17970295D01*
X48582349Y-17977309D01*
X48574990Y-17991077D01*
X48565613Y-18013716D01*
X48560833Y-18037749D01*
X48560833Y-18062253D01*
X48565614Y-18086286D01*
X48574990Y-18108923D01*
X48582349Y-18122691D01*
X48584477Y-18129705D01*
X48585800Y-18143140D01*
X48585800Y-18456860D01*
X48584477Y-18470295D01*
X48582349Y-18477309D01*
X48574990Y-18491077D01*
X48565613Y-18513716D01*
X48560833Y-18537749D01*
X48560833Y-18562253D01*
X48565614Y-18586286D01*
X48574990Y-18608923D01*
X48582349Y-18622691D01*
X48584477Y-18629705D01*
X48585800Y-18643140D01*
X48585800Y-18956860D01*
X48584477Y-18970295D01*
X48582349Y-18977309D01*
X48574990Y-18991077D01*
X48565613Y-19013716D01*
X48560833Y-19037749D01*
X48560833Y-19062253D01*
X48565614Y-19086286D01*
X48574990Y-19108923D01*
X48582349Y-19122691D01*
X48584477Y-19129705D01*
X48585800Y-19143140D01*
X48585800Y-19456860D01*
X48584477Y-19470295D01*
X48582349Y-19477309D01*
X48574990Y-19491077D01*
X48565613Y-19513716D01*
X48560833Y-19537749D01*
X48560833Y-19562253D01*
X48565614Y-19586286D01*
X48574990Y-19608923D01*
X48582349Y-19622691D01*
X48584477Y-19629705D01*
X48585800Y-19643140D01*
X48585800Y-19956860D01*
X48584477Y-19970295D01*
X48582349Y-19977309D01*
X48574990Y-19991077D01*
X48565613Y-20013716D01*
X48560833Y-20037749D01*
X48560833Y-20062253D01*
X48565614Y-20086286D01*
X48574990Y-20108923D01*
X48582349Y-20122691D01*
X48584477Y-20129705D01*
X48585800Y-20143140D01*
X48585800Y-20456860D01*
X48584477Y-20470295D01*
X48582349Y-20477309D01*
X48574990Y-20491077D01*
X48565613Y-20513716D01*
X48560833Y-20537749D01*
X48560833Y-20562253D01*
X48565614Y-20586286D01*
X48574990Y-20608923D01*
X48582349Y-20622691D01*
X48584477Y-20629705D01*
X48585800Y-20643140D01*
X48585800Y-20956860D01*
X48584477Y-20970295D01*
X48582349Y-20977309D01*
X48574990Y-20991077D01*
X48565613Y-21013716D01*
X48560833Y-21037749D01*
X48560833Y-21062253D01*
X48565614Y-21086286D01*
X48574990Y-21108923D01*
X48582349Y-21122691D01*
X48584477Y-21129705D01*
X48585800Y-21143140D01*
X48585800Y-21456860D01*
X48584477Y-21470295D01*
X48582349Y-21477309D01*
X48574990Y-21491077D01*
X48565613Y-21513716D01*
X48560833Y-21537749D01*
X48560833Y-21562253D01*
X48565614Y-21586286D01*
X48574990Y-21608923D01*
X48582349Y-21622691D01*
X48584477Y-21629705D01*
X48585800Y-21643140D01*
X48585800Y-21956860D01*
X48584477Y-21970295D01*
X48582349Y-21977309D01*
X48574990Y-21991077D01*
X48565613Y-22013716D01*
X48560833Y-22037749D01*
X48560833Y-22062253D01*
X48565614Y-22086286D01*
X48574990Y-22108923D01*
X48582349Y-22122691D01*
X48584477Y-22129705D01*
X48585800Y-22143140D01*
X48585800Y-22456860D01*
X48584477Y-22470295D01*
X48582349Y-22477309D01*
X48574990Y-22491077D01*
X48565613Y-22513716D01*
X48560833Y-22537749D01*
X48560833Y-22562253D01*
X48565614Y-22586286D01*
X48574990Y-22608923D01*
X48582349Y-22622691D01*
X48584477Y-22629705D01*
X48585800Y-22643140D01*
X48585800Y-22956860D01*
X48584477Y-22970295D01*
X48582349Y-22977309D01*
X48574990Y-22991077D01*
X48565613Y-23013716D01*
X48560833Y-23037749D01*
X48560833Y-23062253D01*
X48565614Y-23086286D01*
X48574990Y-23108923D01*
X48582349Y-23122691D01*
X48584477Y-23129705D01*
X48585800Y-23143140D01*
X48585800Y-23456860D01*
X48584477Y-23470295D01*
X48582349Y-23477309D01*
X48574990Y-23491077D01*
X48565613Y-23513716D01*
X48560833Y-23537749D01*
X48560833Y-23562253D01*
X48565614Y-23586286D01*
X48574990Y-23608923D01*
X48582349Y-23622691D01*
X48584477Y-23629705D01*
X48585800Y-23643140D01*
X48585800Y-23956860D01*
X48584477Y-23970295D01*
X48582349Y-23977309D01*
X48574990Y-23991077D01*
X48565613Y-24013716D01*
X48560833Y-24037749D01*
X48560833Y-24062253D01*
X48565614Y-24086286D01*
X48574990Y-24108923D01*
X48582349Y-24122691D01*
X48584477Y-24129705D01*
X48585800Y-24143140D01*
X48585800Y-24456860D01*
X48584477Y-24470295D01*
X48582349Y-24477309D01*
X48574990Y-24491077D01*
X48565613Y-24513716D01*
X48560833Y-24537749D01*
X48560833Y-24562253D01*
X48565614Y-24586286D01*
X48574990Y-24608923D01*
X48582349Y-24622691D01*
X48584477Y-24629705D01*
X48585800Y-24643140D01*
X48585800Y-24956860D01*
X48584477Y-24970295D01*
X48582349Y-24977309D01*
X48574990Y-24991077D01*
X48565613Y-25013716D01*
X48560833Y-25037749D01*
X48560833Y-25062253D01*
X48565614Y-25086286D01*
X48574990Y-25108923D01*
X48582349Y-25122691D01*
X48584477Y-25129705D01*
X48585800Y-25143140D01*
X48585800Y-25456860D01*
X48584477Y-25470295D01*
X48582349Y-25477309D01*
X48574990Y-25491077D01*
X48565613Y-25513716D01*
X48560833Y-25537749D01*
X48560833Y-25562253D01*
X48565614Y-25586286D01*
X48574990Y-25608923D01*
X48582349Y-25622691D01*
X48584477Y-25629705D01*
X48585800Y-25643140D01*
X48585800Y-25956860D01*
X48584477Y-25970295D01*
X48582349Y-25977309D01*
X48574990Y-25991077D01*
X48565613Y-26013716D01*
X48560833Y-26037749D01*
X48560833Y-26062253D01*
X48565614Y-26086286D01*
X48574990Y-26108923D01*
X48582349Y-26122691D01*
X48584477Y-26129705D01*
X48585800Y-26143140D01*
X48585800Y-26456860D01*
X48584477Y-26470295D01*
X48582349Y-26477309D01*
X48574990Y-26491077D01*
X48565613Y-26513716D01*
X48560833Y-26537749D01*
X48560833Y-26562253D01*
X48565614Y-26586286D01*
X48574990Y-26608923D01*
X48582349Y-26622691D01*
X48584477Y-26629705D01*
X48585800Y-26643140D01*
X48585800Y-26956860D01*
X48584477Y-26970295D01*
X48582349Y-26977309D01*
X48574990Y-26991077D01*
X48565613Y-27013716D01*
X48560833Y-27037749D01*
X48560833Y-27062253D01*
X48565614Y-27086286D01*
X48574990Y-27108923D01*
X48582349Y-27122691D01*
X48584477Y-27129705D01*
X48585800Y-27143140D01*
X48585800Y-27456860D01*
X48584477Y-27470295D01*
X48582349Y-27477309D01*
X48574990Y-27491077D01*
X48565613Y-27513716D01*
X48560833Y-27537749D01*
X48560833Y-27562253D01*
X48565614Y-27586286D01*
X48574990Y-27608923D01*
X48582349Y-27622691D01*
X48584477Y-27629705D01*
X48585800Y-27643140D01*
X48585800Y-27956860D01*
X48584477Y-27970295D01*
X48582349Y-27977310D01*
X48578892Y-27983776D01*
X48574242Y-27989442D01*
X48568576Y-27994092D01*
X48562110Y-27997549D01*
X48555095Y-27999677D01*
X48541660Y-28001000D01*
X47052940Y-28001000D01*
X47039505Y-27999677D01*
X47032490Y-27997549D01*
X47026024Y-27994092D01*
X47020358Y-27989442D01*
X47015708Y-27983776D01*
X47012251Y-27977310D01*
X47010123Y-27970295D01*
X47008800Y-27956860D01*
X47008800Y-27643140D01*
X47010123Y-27629705D01*
X47012251Y-27622691D01*
X47019610Y-27608923D01*
X47028987Y-27586284D01*
X47033767Y-27562251D01*
X47033767Y-27537747D01*
X47028986Y-27513714D01*
X47019610Y-27491077D01*
X47012251Y-27477309D01*
X47010123Y-27470295D01*
X47008800Y-27456860D01*
X47008800Y-27143140D01*
X47010123Y-27129705D01*
X47012251Y-27122691D01*
X47019610Y-27108923D01*
X47028987Y-27086284D01*
X47033767Y-27062251D01*
X47033767Y-27037747D01*
X47028986Y-27013714D01*
X47019610Y-26991077D01*
X47012251Y-26977309D01*
X47010123Y-26970295D01*
X47008800Y-26956860D01*
X47008800Y-26643140D01*
X47010123Y-26629705D01*
X47012251Y-26622691D01*
X47019610Y-26608923D01*
X47028987Y-26586284D01*
X47033767Y-26562251D01*
X47033767Y-26537747D01*
X47028986Y-26513714D01*
X47019610Y-26491077D01*
X47012251Y-26477309D01*
X47010123Y-26470295D01*
X47008800Y-26456860D01*
X47008800Y-26143140D01*
X47010123Y-26129705D01*
X47012251Y-26122691D01*
X47019610Y-26108923D01*
X47028987Y-26086284D01*
X47033767Y-26062251D01*
X47033767Y-26037747D01*
X47028986Y-26013714D01*
X47019610Y-25991077D01*
X47012251Y-25977309D01*
X47010123Y-25970295D01*
X47008800Y-25956860D01*
X47008800Y-25643140D01*
X47010123Y-25629705D01*
X47012251Y-25622691D01*
X47019610Y-25608923D01*
X47028987Y-25586284D01*
X47033767Y-25562251D01*
X47033767Y-25537747D01*
X47028986Y-25513714D01*
X47019610Y-25491077D01*
X47012251Y-25477309D01*
X47010123Y-25470295D01*
X47008800Y-25456860D01*
X47008800Y-25143140D01*
X47010123Y-25129705D01*
X47012251Y-25122691D01*
X47019610Y-25108923D01*
X47028987Y-25086284D01*
X47033767Y-25062251D01*
X47033767Y-25037747D01*
X47028986Y-25013714D01*
X47019610Y-24991077D01*
X47012251Y-24977309D01*
X47010123Y-24970295D01*
X47008800Y-24956860D01*
X47008800Y-24643140D01*
X47010123Y-24629705D01*
X47012251Y-24622691D01*
X47019610Y-24608923D01*
X47028987Y-24586284D01*
X47033767Y-24562251D01*
X47033767Y-24537747D01*
X47028986Y-24513714D01*
X47019610Y-24491077D01*
X47012251Y-24477309D01*
X47010123Y-24470295D01*
X47008800Y-24456860D01*
X47008800Y-24143140D01*
X47010123Y-24129705D01*
X47012251Y-24122691D01*
X47019610Y-24108923D01*
X47028987Y-24086284D01*
X47033767Y-24062251D01*
X47033767Y-24037747D01*
X47028986Y-24013714D01*
X47019610Y-23991077D01*
X47012251Y-23977309D01*
X47010123Y-23970295D01*
X47008800Y-23956860D01*
X47008800Y-23643140D01*
X47010123Y-23629705D01*
X47012251Y-23622691D01*
X47019610Y-23608923D01*
X47028987Y-23586284D01*
X47033767Y-23562251D01*
X47033767Y-23537747D01*
X47028986Y-23513714D01*
X47019610Y-23491077D01*
X47012251Y-23477309D01*
X47010123Y-23470295D01*
X47008800Y-23456860D01*
X47008800Y-23143140D01*
X47010123Y-23129705D01*
X47012251Y-23122691D01*
X47019610Y-23108923D01*
X47028987Y-23086284D01*
X47033767Y-23062251D01*
X47033767Y-23037747D01*
X47028986Y-23013714D01*
X47019610Y-22991077D01*
X47012251Y-22977309D01*
X47010123Y-22970295D01*
X47008800Y-22956860D01*
X47008800Y-22643140D01*
X47010123Y-22629705D01*
X47012251Y-22622691D01*
X47019610Y-22608923D01*
X47028987Y-22586284D01*
X47033767Y-22562251D01*
X47033767Y-22537747D01*
X47028986Y-22513714D01*
X47019610Y-22491077D01*
X47012251Y-22477309D01*
X47010123Y-22470295D01*
X47008800Y-22456860D01*
X47008800Y-22143140D01*
X47010123Y-22129705D01*
X47012251Y-22122691D01*
X47019610Y-22108923D01*
X47028987Y-22086284D01*
X47033767Y-22062251D01*
X47033767Y-22037747D01*
X47028986Y-22013714D01*
X47019610Y-21991077D01*
X47012251Y-21977309D01*
X47010123Y-21970295D01*
X47008800Y-21956860D01*
X47008800Y-21643140D01*
X47010123Y-21629705D01*
X47012251Y-21622691D01*
X47019610Y-21608923D01*
X47028987Y-21586284D01*
X47033767Y-21562251D01*
X47033767Y-21537747D01*
X47028986Y-21513714D01*
X47019610Y-21491077D01*
X47012251Y-21477309D01*
X47010123Y-21470295D01*
X47008800Y-21456860D01*
X47008800Y-21143140D01*
X47010123Y-21129705D01*
X47012251Y-21122691D01*
X47019610Y-21108923D01*
X47028987Y-21086284D01*
X47033767Y-21062251D01*
X47033767Y-21037747D01*
X47028986Y-21013714D01*
X47019610Y-20991077D01*
X47012251Y-20977309D01*
X47010123Y-20970295D01*
X47008800Y-20956860D01*
X47008800Y-20643140D01*
X47010123Y-20629705D01*
X47012251Y-20622691D01*
X47019610Y-20608923D01*
X47028987Y-20586284D01*
X47033767Y-20562251D01*
X47033767Y-20537747D01*
X47028986Y-20513714D01*
X47019610Y-20491077D01*
X47012251Y-20477309D01*
X47010123Y-20470295D01*
X47008800Y-20456860D01*
X47008800Y-20143140D01*
X47010123Y-20129705D01*
X47012251Y-20122691D01*
X47019610Y-20108923D01*
X47028987Y-20086284D01*
X47033767Y-20062251D01*
X47033767Y-20037747D01*
X47028986Y-20013714D01*
X47019610Y-19991077D01*
X47012251Y-19977309D01*
X47010123Y-19970295D01*
X47008800Y-19956860D01*
X47008800Y-19643140D01*
X47010123Y-19629705D01*
X47012251Y-19622691D01*
X47019610Y-19608923D01*
X47028987Y-19586284D01*
X47033767Y-19562251D01*
X47033767Y-19537747D01*
X47028986Y-19513714D01*
X47019610Y-19491077D01*
X47012251Y-19477309D01*
X47010123Y-19470295D01*
X47008800Y-19456860D01*
X47008800Y-19143140D01*
X47010123Y-19129705D01*
X47012251Y-19122691D01*
X47019610Y-19108923D01*
X47028987Y-19086284D01*
X47033767Y-19062251D01*
X47033767Y-19037747D01*
X47028986Y-19013714D01*
X47019610Y-18991077D01*
X47012251Y-18977309D01*
X47010123Y-18970295D01*
X47008800Y-18956860D01*
X47008800Y-18643140D01*
X47010123Y-18629705D01*
X47012251Y-18622691D01*
X47019610Y-18608923D01*
X47028987Y-18586284D01*
X47033767Y-18562251D01*
X47033767Y-18537747D01*
X47028986Y-18513714D01*
X47019610Y-18491077D01*
X47012251Y-18477309D01*
X47010123Y-18470295D01*
X47008800Y-18456860D01*
X47008800Y-18143140D01*
X47010123Y-18129705D01*
X47012251Y-18122691D01*
X47019610Y-18108923D01*
X47028987Y-18086284D01*
X47033767Y-18062251D01*
X47033767Y-18037747D01*
X47028986Y-18013714D01*
X47019610Y-17991077D01*
X47012251Y-17977309D01*
X47010123Y-17970295D01*
X47008800Y-17956860D01*
X47008800Y-17643140D01*
X47010123Y-17629705D01*
X47012251Y-17622691D01*
X47019610Y-17608923D01*
X47028987Y-17586284D01*
X47033767Y-17562251D01*
X47033767Y-17537747D01*
X47028986Y-17513714D01*
X47019610Y-17491077D01*
X47012251Y-17477309D01*
X47010123Y-17470295D01*
X47008800Y-17456860D01*
X47008800Y-17143140D01*
X47010123Y-17129705D01*
X47012251Y-17122691D01*
X47019610Y-17108923D01*
X47028987Y-17086284D01*
X47033767Y-17062251D01*
X47033767Y-17037747D01*
X47028986Y-17013714D01*
X47019610Y-16991077D01*
X47012251Y-16977309D01*
X47010123Y-16970295D01*
X47008800Y-16956860D01*
X47008800Y-16643140D01*
X47010123Y-16629705D01*
X47012251Y-16622691D01*
X47019610Y-16608923D01*
X47028987Y-16586284D01*
X47033767Y-16562251D01*
X47033767Y-16537747D01*
X47028986Y-16513714D01*
X47019610Y-16491077D01*
X47012251Y-16477309D01*
X47010123Y-16470295D01*
X47008800Y-16456860D01*
X47008800Y-16143140D01*
X47010123Y-16129705D01*
X47012251Y-16122691D01*
X47019610Y-16108923D01*
X47028987Y-16086284D01*
X47033767Y-16062251D01*
X47033767Y-16037747D01*
X47028986Y-16013714D01*
X47019610Y-15991077D01*
X47012251Y-15977309D01*
X47010123Y-15970295D01*
X47008800Y-15956860D01*
X47008800Y-15643140D01*
X47010123Y-15629705D01*
X47012251Y-15622691D01*
X47019610Y-15608923D01*
X47028987Y-15586284D01*
X47033767Y-15562251D01*
X47033767Y-15537747D01*
X47028986Y-15513714D01*
X47019610Y-15491077D01*
X47012251Y-15477309D01*
X47010123Y-15470295D01*
X47008800Y-15456860D01*
X47008800Y-15143140D01*
X47010123Y-15129705D01*
X47012251Y-15122691D01*
X47019610Y-15108923D01*
X47028987Y-15086284D01*
X47033767Y-15062251D01*
X47033767Y-15037747D01*
X47028986Y-15013714D01*
X47019610Y-14991077D01*
X47012251Y-14977309D01*
X47010123Y-14970295D01*
X47008800Y-14956860D01*
X47008800Y-14643140D01*
X47010123Y-14629705D01*
X47012251Y-14622691D01*
X47019610Y-14608923D01*
X47028987Y-14586284D01*
X47033767Y-14562251D01*
X47033767Y-14537747D01*
X47028986Y-14513714D01*
X47019610Y-14491077D01*
X47012251Y-14477309D01*
X47010123Y-14470295D01*
X47008800Y-14456860D01*
X47008800Y-14143140D01*
X47010123Y-14129705D01*
X47012251Y-14122691D01*
X47019610Y-14108923D01*
X47028987Y-14086284D01*
X47033767Y-14062251D01*
X47033767Y-14037747D01*
X47028986Y-14013714D01*
X47019610Y-13991077D01*
X47012251Y-13977309D01*
X47010123Y-13970295D01*
X47008800Y-13956860D01*
X47008800Y-13643140D01*
X47010123Y-13629705D01*
X47012251Y-13622691D01*
X47019610Y-13608923D01*
X47028987Y-13586284D01*
X47033767Y-13562251D01*
X47033767Y-13537747D01*
X47028986Y-13513714D01*
X47019610Y-13491077D01*
X47012251Y-13477309D01*
X47010123Y-13470295D01*
X47008800Y-13456860D01*
X47008800Y-13143140D01*
X47010123Y-13129705D01*
X47012251Y-13122691D01*
X47019610Y-13108923D01*
X47028987Y-13086284D01*
X47033767Y-13062251D01*
X47033767Y-13037747D01*
X47028986Y-13013714D01*
X47019610Y-12991077D01*
X47012251Y-12977309D01*
X47010123Y-12970295D01*
X47008800Y-12956860D01*
X47008800Y-12643140D01*
X47010123Y-12629705D01*
X47012251Y-12622691D01*
X47019610Y-12608923D01*
X47028987Y-12586284D01*
X47033767Y-12562251D01*
X47033767Y-12537747D01*
X47028986Y-12513714D01*
X47019610Y-12491077D01*
X47012251Y-12477309D01*
X47010123Y-12470295D01*
X47008800Y-12456860D01*
X47008800Y-12143140D01*
X47010123Y-12129705D01*
X47012251Y-12122691D01*
X47019610Y-12108923D01*
X47028987Y-12086284D01*
X47033767Y-12062251D01*
X47033767Y-12037747D01*
X47028986Y-12013714D01*
X47019610Y-11991077D01*
X47012251Y-11977309D01*
X47010123Y-11970295D01*
X47008800Y-11956860D01*
X47008800Y-11643140D01*
X47010123Y-11629705D01*
X47012251Y-11622691D01*
X47019610Y-11608923D01*
X47028987Y-11586284D01*
X47033767Y-11562251D01*
X47033767Y-11537747D01*
X47028986Y-11513714D01*
X47019610Y-11491077D01*
X47012251Y-11477309D01*
X47010123Y-11470295D01*
X47008800Y-11456860D01*
X47008800Y-11143140D01*
X47010123Y-11129705D01*
X47012251Y-11122691D01*
X47019610Y-11108923D01*
X47028987Y-11086284D01*
X47033767Y-11062251D01*
X47033767Y-11037747D01*
X47028986Y-11013714D01*
X47019610Y-10991077D01*
X47012251Y-10977309D01*
X47010123Y-10970295D01*
X47008800Y-10956860D01*
X47008800Y-10643140D01*
X47010123Y-10629705D01*
X47012251Y-10622691D01*
X47019610Y-10608923D01*
X47028987Y-10586284D01*
X47033767Y-10562251D01*
X47033767Y-10537747D01*
X47028986Y-10513714D01*
X47019610Y-10491077D01*
X47012251Y-10477309D01*
X47010123Y-10470295D01*
X47008800Y-10456860D01*
X47008800Y-10143140D01*
X47010123Y-10129705D01*
X47012251Y-10122690D01*
X47015708Y-10116224D01*
X47020358Y-10110558D01*
X47026024Y-10105908D01*
X47032490Y-10102451D01*
X47039505Y-10100323D01*
X47052940Y-10099000D01*
X48541660Y-10099000D01*
X48555095Y-10100323D01*
G37*
G36*
X27230095Y-10100323D02*
G01*
X27237110Y-10102451D01*
X27243576Y-10105908D01*
X27249242Y-10110558D01*
X27253892Y-10116224D01*
X27257349Y-10122690D01*
X27259477Y-10129705D01*
X27260800Y-10143140D01*
X27260800Y-10456860D01*
X27259477Y-10470295D01*
X27257349Y-10477309D01*
X27249990Y-10491077D01*
X27240613Y-10513716D01*
X27235833Y-10537749D01*
X27235833Y-10562253D01*
X27240614Y-10586286D01*
X27249990Y-10608923D01*
X27257349Y-10622691D01*
X27259477Y-10629705D01*
X27260800Y-10643140D01*
X27260800Y-10956860D01*
X27259477Y-10970295D01*
X27257349Y-10977309D01*
X27249990Y-10991077D01*
X27240613Y-11013716D01*
X27235833Y-11037749D01*
X27235833Y-11062253D01*
X27240614Y-11086286D01*
X27249990Y-11108923D01*
X27257349Y-11122691D01*
X27259477Y-11129705D01*
X27260800Y-11143140D01*
X27260800Y-11456860D01*
X27259477Y-11470295D01*
X27257349Y-11477309D01*
X27249990Y-11491077D01*
X27240613Y-11513716D01*
X27235833Y-11537749D01*
X27235833Y-11562253D01*
X27240614Y-11586286D01*
X27249990Y-11608923D01*
X27257349Y-11622691D01*
X27259477Y-11629705D01*
X27260800Y-11643140D01*
X27260800Y-11956860D01*
X27259477Y-11970295D01*
X27257349Y-11977309D01*
X27249990Y-11991077D01*
X27240613Y-12013716D01*
X27235833Y-12037749D01*
X27235833Y-12062253D01*
X27240614Y-12086286D01*
X27249990Y-12108923D01*
X27257349Y-12122691D01*
X27259477Y-12129705D01*
X27260800Y-12143140D01*
X27260800Y-12456860D01*
X27259477Y-12470295D01*
X27257349Y-12477309D01*
X27249990Y-12491077D01*
X27240613Y-12513716D01*
X27235833Y-12537749D01*
X27235833Y-12562253D01*
X27240614Y-12586286D01*
X27249990Y-12608923D01*
X27257349Y-12622691D01*
X27259477Y-12629705D01*
X27260800Y-12643140D01*
X27260800Y-12956860D01*
X27259477Y-12970295D01*
X27257349Y-12977309D01*
X27249990Y-12991077D01*
X27240613Y-13013716D01*
X27235833Y-13037749D01*
X27235833Y-13062253D01*
X27240614Y-13086286D01*
X27249990Y-13108923D01*
X27257349Y-13122691D01*
X27259477Y-13129705D01*
X27260800Y-13143140D01*
X27260800Y-13456860D01*
X27259477Y-13470295D01*
X27257349Y-13477309D01*
X27249990Y-13491077D01*
X27240613Y-13513716D01*
X27235833Y-13537749D01*
X27235833Y-13562253D01*
X27240614Y-13586286D01*
X27249990Y-13608923D01*
X27257349Y-13622691D01*
X27259477Y-13629705D01*
X27260800Y-13643140D01*
X27260800Y-13956860D01*
X27259477Y-13970295D01*
X27257349Y-13977309D01*
X27249990Y-13991077D01*
X27240613Y-14013716D01*
X27235833Y-14037749D01*
X27235833Y-14062253D01*
X27240614Y-14086286D01*
X27249990Y-14108923D01*
X27257349Y-14122691D01*
X27259477Y-14129705D01*
X27260800Y-14143140D01*
X27260800Y-14456860D01*
X27259477Y-14470295D01*
X27257349Y-14477309D01*
X27249990Y-14491077D01*
X27240613Y-14513716D01*
X27235833Y-14537749D01*
X27235833Y-14562253D01*
X27240614Y-14586286D01*
X27249990Y-14608923D01*
X27257349Y-14622691D01*
X27259477Y-14629705D01*
X27260800Y-14643140D01*
X27260800Y-14956860D01*
X27259477Y-14970295D01*
X27257349Y-14977309D01*
X27249990Y-14991077D01*
X27240613Y-15013716D01*
X27235833Y-15037749D01*
X27235833Y-15062253D01*
X27240614Y-15086286D01*
X27249990Y-15108923D01*
X27257349Y-15122691D01*
X27259477Y-15129705D01*
X27260800Y-15143140D01*
X27260800Y-15456860D01*
X27259477Y-15470295D01*
X27257349Y-15477309D01*
X27249990Y-15491077D01*
X27240613Y-15513716D01*
X27235833Y-15537749D01*
X27235833Y-15562253D01*
X27240614Y-15586286D01*
X27249990Y-15608923D01*
X27257349Y-15622691D01*
X27259477Y-15629705D01*
X27260800Y-15643140D01*
X27260800Y-15956860D01*
X27259477Y-15970295D01*
X27257349Y-15977309D01*
X27249990Y-15991077D01*
X27240613Y-16013716D01*
X27235833Y-16037749D01*
X27235833Y-16062253D01*
X27240614Y-16086286D01*
X27249990Y-16108923D01*
X27257349Y-16122691D01*
X27259477Y-16129705D01*
X27260800Y-16143140D01*
X27260800Y-16456860D01*
X27259477Y-16470295D01*
X27257349Y-16477309D01*
X27249990Y-16491077D01*
X27240613Y-16513716D01*
X27235833Y-16537749D01*
X27235833Y-16562253D01*
X27240614Y-16586286D01*
X27249990Y-16608923D01*
X27257349Y-16622691D01*
X27259477Y-16629705D01*
X27260800Y-16643140D01*
X27260800Y-16956860D01*
X27259477Y-16970295D01*
X27257349Y-16977309D01*
X27249990Y-16991077D01*
X27240613Y-17013716D01*
X27235833Y-17037749D01*
X27235833Y-17062253D01*
X27240614Y-17086286D01*
X27249990Y-17108923D01*
X27257349Y-17122691D01*
X27259477Y-17129705D01*
X27260800Y-17143140D01*
X27260800Y-17456860D01*
X27259477Y-17470295D01*
X27257349Y-17477309D01*
X27249990Y-17491077D01*
X27240613Y-17513716D01*
X27235833Y-17537749D01*
X27235833Y-17562253D01*
X27240614Y-17586286D01*
X27249990Y-17608923D01*
X27257349Y-17622691D01*
X27259477Y-17629705D01*
X27260800Y-17643140D01*
X27260800Y-17956860D01*
X27259477Y-17970295D01*
X27257349Y-17977309D01*
X27249990Y-17991077D01*
X27240613Y-18013716D01*
X27235833Y-18037749D01*
X27235833Y-18062253D01*
X27240614Y-18086286D01*
X27249990Y-18108923D01*
X27257349Y-18122691D01*
X27259477Y-18129705D01*
X27260800Y-18143140D01*
X27260800Y-18456860D01*
X27259477Y-18470295D01*
X27257349Y-18477309D01*
X27249990Y-18491077D01*
X27240613Y-18513716D01*
X27235833Y-18537749D01*
X27235833Y-18562253D01*
X27240614Y-18586286D01*
X27249990Y-18608923D01*
X27257349Y-18622691D01*
X27259477Y-18629705D01*
X27260800Y-18643140D01*
X27260800Y-18956860D01*
X27259477Y-18970295D01*
X27257349Y-18977309D01*
X27249990Y-18991077D01*
X27240613Y-19013716D01*
X27235833Y-19037749D01*
X27235833Y-19062253D01*
X27240614Y-19086286D01*
X27249990Y-19108923D01*
X27257349Y-19122691D01*
X27259477Y-19129705D01*
X27260800Y-19143140D01*
X27260800Y-19456860D01*
X27259477Y-19470295D01*
X27257349Y-19477309D01*
X27249990Y-19491077D01*
X27240613Y-19513716D01*
X27235833Y-19537749D01*
X27235833Y-19562253D01*
X27240614Y-19586286D01*
X27249990Y-19608923D01*
X27257349Y-19622691D01*
X27259477Y-19629705D01*
X27260800Y-19643140D01*
X27260800Y-19956860D01*
X27259477Y-19970295D01*
X27257349Y-19977309D01*
X27249990Y-19991077D01*
X27240613Y-20013716D01*
X27235833Y-20037749D01*
X27235833Y-20062253D01*
X27240614Y-20086286D01*
X27249990Y-20108923D01*
X27257349Y-20122691D01*
X27259477Y-20129705D01*
X27260800Y-20143140D01*
X27260800Y-20456860D01*
X27259477Y-20470295D01*
X27257349Y-20477309D01*
X27249990Y-20491077D01*
X27240613Y-20513716D01*
X27235833Y-20537749D01*
X27235833Y-20562253D01*
X27240614Y-20586286D01*
X27249990Y-20608923D01*
X27257349Y-20622691D01*
X27259477Y-20629705D01*
X27260800Y-20643140D01*
X27260800Y-20956860D01*
X27259477Y-20970295D01*
X27257349Y-20977309D01*
X27249990Y-20991077D01*
X27240613Y-21013716D01*
X27235833Y-21037749D01*
X27235833Y-21062253D01*
X27240614Y-21086286D01*
X27249990Y-21108923D01*
X27257349Y-21122691D01*
X27259477Y-21129705D01*
X27260800Y-21143140D01*
X27260800Y-21456860D01*
X27259477Y-21470295D01*
X27257349Y-21477309D01*
X27249990Y-21491077D01*
X27240613Y-21513716D01*
X27235833Y-21537749D01*
X27235833Y-21562253D01*
X27240614Y-21586286D01*
X27249990Y-21608923D01*
X27257349Y-21622691D01*
X27259477Y-21629705D01*
X27260800Y-21643140D01*
X27260800Y-21956860D01*
X27259477Y-21970295D01*
X27257349Y-21977309D01*
X27249990Y-21991077D01*
X27240613Y-22013716D01*
X27235833Y-22037749D01*
X27235833Y-22062253D01*
X27240614Y-22086286D01*
X27249990Y-22108923D01*
X27257349Y-22122691D01*
X27259477Y-22129705D01*
X27260800Y-22143140D01*
X27260800Y-22456860D01*
X27259477Y-22470295D01*
X27257349Y-22477309D01*
X27249990Y-22491077D01*
X27240613Y-22513716D01*
X27235833Y-22537749D01*
X27235833Y-22562253D01*
X27240614Y-22586286D01*
X27249990Y-22608923D01*
X27257349Y-22622691D01*
X27259477Y-22629705D01*
X27260800Y-22643140D01*
X27260800Y-22956860D01*
X27259477Y-22970295D01*
X27257349Y-22977309D01*
X27249990Y-22991077D01*
X27240613Y-23013716D01*
X27235833Y-23037749D01*
X27235833Y-23062253D01*
X27240614Y-23086286D01*
X27249990Y-23108923D01*
X27257349Y-23122691D01*
X27259477Y-23129705D01*
X27260800Y-23143140D01*
X27260800Y-23456860D01*
X27259477Y-23470295D01*
X27257349Y-23477309D01*
X27249990Y-23491077D01*
X27240613Y-23513716D01*
X27235833Y-23537749D01*
X27235833Y-23562253D01*
X27240614Y-23586286D01*
X27249990Y-23608923D01*
X27257349Y-23622691D01*
X27259477Y-23629705D01*
X27260800Y-23643140D01*
X27260800Y-23956860D01*
X27259477Y-23970295D01*
X27257349Y-23977309D01*
X27249990Y-23991077D01*
X27240613Y-24013716D01*
X27235833Y-24037749D01*
X27235833Y-24062253D01*
X27240614Y-24086286D01*
X27249990Y-24108923D01*
X27257349Y-24122691D01*
X27259477Y-24129705D01*
X27260800Y-24143140D01*
X27260800Y-24456860D01*
X27259477Y-24470295D01*
X27257349Y-24477309D01*
X27249990Y-24491077D01*
X27240613Y-24513716D01*
X27235833Y-24537749D01*
X27235833Y-24562253D01*
X27240614Y-24586286D01*
X27249990Y-24608923D01*
X27257349Y-24622691D01*
X27259477Y-24629705D01*
X27260800Y-24643140D01*
X27260800Y-24956860D01*
X27259477Y-24970295D01*
X27257349Y-24977309D01*
X27249990Y-24991077D01*
X27240613Y-25013716D01*
X27235833Y-25037749D01*
X27235833Y-25062253D01*
X27240614Y-25086286D01*
X27249990Y-25108923D01*
X27257349Y-25122691D01*
X27259477Y-25129705D01*
X27260800Y-25143140D01*
X27260800Y-25456860D01*
X27259477Y-25470295D01*
X27257349Y-25477309D01*
X27249990Y-25491077D01*
X27240613Y-25513716D01*
X27235833Y-25537749D01*
X27235833Y-25562253D01*
X27240614Y-25586286D01*
X27249990Y-25608923D01*
X27257349Y-25622691D01*
X27259477Y-25629705D01*
X27260800Y-25643140D01*
X27260800Y-25956860D01*
X27259477Y-25970295D01*
X27257349Y-25977309D01*
X27249990Y-25991077D01*
X27240613Y-26013716D01*
X27235833Y-26037749D01*
X27235833Y-26062253D01*
X27240614Y-26086286D01*
X27249990Y-26108923D01*
X27257349Y-26122691D01*
X27259477Y-26129705D01*
X27260800Y-26143140D01*
X27260800Y-26456860D01*
X27259477Y-26470295D01*
X27257349Y-26477309D01*
X27249990Y-26491077D01*
X27240613Y-26513716D01*
X27235833Y-26537749D01*
X27235833Y-26562253D01*
X27240614Y-26586286D01*
X27249990Y-26608923D01*
X27257349Y-26622691D01*
X27259477Y-26629705D01*
X27260800Y-26643140D01*
X27260800Y-26956860D01*
X27259477Y-26970295D01*
X27257349Y-26977309D01*
X27249990Y-26991077D01*
X27240613Y-27013716D01*
X27235833Y-27037749D01*
X27235833Y-27062253D01*
X27240614Y-27086286D01*
X27249990Y-27108923D01*
X27257349Y-27122691D01*
X27259477Y-27129705D01*
X27260800Y-27143140D01*
X27260800Y-27456860D01*
X27259477Y-27470295D01*
X27257349Y-27477309D01*
X27249990Y-27491077D01*
X27240613Y-27513716D01*
X27235833Y-27537749D01*
X27235833Y-27562253D01*
X27240614Y-27586286D01*
X27249990Y-27608923D01*
X27257349Y-27622691D01*
X27259477Y-27629705D01*
X27260800Y-27643140D01*
X27260800Y-27956860D01*
X27259477Y-27970295D01*
X27257349Y-27977310D01*
X27253892Y-27983776D01*
X27249242Y-27989442D01*
X27243576Y-27994092D01*
X27237110Y-27997549D01*
X27230095Y-27999677D01*
X27216660Y-28001000D01*
X25727940Y-28001000D01*
X25714505Y-27999677D01*
X25707490Y-27997549D01*
X25701024Y-27994092D01*
X25695358Y-27989442D01*
X25690708Y-27983776D01*
X25687251Y-27977310D01*
X25685123Y-27970295D01*
X25683800Y-27956860D01*
X25683800Y-27643140D01*
X25685123Y-27629705D01*
X25687251Y-27622691D01*
X25694610Y-27608923D01*
X25703987Y-27586284D01*
X25708767Y-27562251D01*
X25708767Y-27537747D01*
X25703986Y-27513714D01*
X25694610Y-27491077D01*
X25687251Y-27477309D01*
X25685123Y-27470295D01*
X25683800Y-27456860D01*
X25683800Y-27143140D01*
X25685123Y-27129705D01*
X25687251Y-27122691D01*
X25694610Y-27108923D01*
X25703987Y-27086284D01*
X25708767Y-27062251D01*
X25708767Y-27037747D01*
X25703986Y-27013714D01*
X25694610Y-26991077D01*
X25687251Y-26977309D01*
X25685123Y-26970295D01*
X25683800Y-26956860D01*
X25683800Y-26643140D01*
X25685123Y-26629705D01*
X25687251Y-26622691D01*
X25694610Y-26608923D01*
X25703987Y-26586284D01*
X25708767Y-26562251D01*
X25708767Y-26537747D01*
X25703986Y-26513714D01*
X25694610Y-26491077D01*
X25687251Y-26477309D01*
X25685123Y-26470295D01*
X25683800Y-26456860D01*
X25683800Y-26143140D01*
X25685123Y-26129705D01*
X25687251Y-26122691D01*
X25694610Y-26108923D01*
X25703987Y-26086284D01*
X25708767Y-26062251D01*
X25708767Y-26037747D01*
X25703986Y-26013714D01*
X25694610Y-25991077D01*
X25687251Y-25977309D01*
X25685123Y-25970295D01*
X25683800Y-25956860D01*
X25683800Y-25643140D01*
X25685123Y-25629705D01*
X25687251Y-25622691D01*
X25694610Y-25608923D01*
X25703987Y-25586284D01*
X25708767Y-25562251D01*
X25708767Y-25537747D01*
X25703986Y-25513714D01*
X25694610Y-25491077D01*
X25687251Y-25477309D01*
X25685123Y-25470295D01*
X25683800Y-25456860D01*
X25683800Y-25143140D01*
X25685123Y-25129705D01*
X25687251Y-25122691D01*
X25694610Y-25108923D01*
X25703987Y-25086284D01*
X25708767Y-25062251D01*
X25708767Y-25037747D01*
X25703986Y-25013714D01*
X25694610Y-24991077D01*
X25687251Y-24977309D01*
X25685123Y-24970295D01*
X25683800Y-24956860D01*
X25683800Y-24643140D01*
X25685123Y-24629705D01*
X25687251Y-24622691D01*
X25694610Y-24608923D01*
X25703987Y-24586284D01*
X25708767Y-24562251D01*
X25708767Y-24537747D01*
X25703986Y-24513714D01*
X25694610Y-24491077D01*
X25687251Y-24477309D01*
X25685123Y-24470295D01*
X25683800Y-24456860D01*
X25683800Y-24143140D01*
X25685123Y-24129705D01*
X25687251Y-24122691D01*
X25694610Y-24108923D01*
X25703987Y-24086284D01*
X25708767Y-24062251D01*
X25708767Y-24037747D01*
X25703986Y-24013714D01*
X25694610Y-23991077D01*
X25687251Y-23977309D01*
X25685123Y-23970295D01*
X25683800Y-23956860D01*
X25683800Y-23643140D01*
X25685123Y-23629705D01*
X25687251Y-23622691D01*
X25694610Y-23608923D01*
X25703987Y-23586284D01*
X25708767Y-23562251D01*
X25708767Y-23537747D01*
X25703986Y-23513714D01*
X25694610Y-23491077D01*
X25687251Y-23477309D01*
X25685123Y-23470295D01*
X25683800Y-23456860D01*
X25683800Y-23143140D01*
X25685123Y-23129705D01*
X25687251Y-23122691D01*
X25694610Y-23108923D01*
X25703987Y-23086284D01*
X25708767Y-23062251D01*
X25708767Y-23037747D01*
X25703986Y-23013714D01*
X25694610Y-22991077D01*
X25687251Y-22977309D01*
X25685123Y-22970295D01*
X25683800Y-22956860D01*
X25683800Y-22643140D01*
X25685123Y-22629705D01*
X25687251Y-22622691D01*
X25694610Y-22608923D01*
X25703987Y-22586284D01*
X25708767Y-22562251D01*
X25708767Y-22537747D01*
X25703986Y-22513714D01*
X25694610Y-22491077D01*
X25687251Y-22477309D01*
X25685123Y-22470295D01*
X25683800Y-22456860D01*
X25683800Y-22143140D01*
X25685123Y-22129705D01*
X25687251Y-22122691D01*
X25694610Y-22108923D01*
X25703987Y-22086284D01*
X25708767Y-22062251D01*
X25708767Y-22037747D01*
X25703986Y-22013714D01*
X25694610Y-21991077D01*
X25687251Y-21977309D01*
X25685123Y-21970295D01*
X25683800Y-21956860D01*
X25683800Y-21643140D01*
X25685123Y-21629705D01*
X25687251Y-21622691D01*
X25694610Y-21608923D01*
X25703987Y-21586284D01*
X25708767Y-21562251D01*
X25708767Y-21537747D01*
X25703986Y-21513714D01*
X25694610Y-21491077D01*
X25687251Y-21477309D01*
X25685123Y-21470295D01*
X25683800Y-21456860D01*
X25683800Y-21143140D01*
X25685123Y-21129705D01*
X25687251Y-21122691D01*
X25694610Y-21108923D01*
X25703987Y-21086284D01*
X25708767Y-21062251D01*
X25708767Y-21037747D01*
X25703986Y-21013714D01*
X25694610Y-20991077D01*
X25687251Y-20977309D01*
X25685123Y-20970295D01*
X25683800Y-20956860D01*
X25683800Y-20643140D01*
X25685123Y-20629705D01*
X25687251Y-20622691D01*
X25694610Y-20608923D01*
X25703987Y-20586284D01*
X25708767Y-20562251D01*
X25708767Y-20537747D01*
X25703986Y-20513714D01*
X25694610Y-20491077D01*
X25687251Y-20477309D01*
X25685123Y-20470295D01*
X25683800Y-20456860D01*
X25683800Y-20143140D01*
X25685123Y-20129705D01*
X25687251Y-20122691D01*
X25694610Y-20108923D01*
X25703987Y-20086284D01*
X25708767Y-20062251D01*
X25708767Y-20037747D01*
X25703986Y-20013714D01*
X25694610Y-19991077D01*
X25687251Y-19977309D01*
X25685123Y-19970295D01*
X25683800Y-19956860D01*
X25683800Y-19643140D01*
X25685123Y-19629705D01*
X25687251Y-19622691D01*
X25694610Y-19608923D01*
X25703987Y-19586284D01*
X25708767Y-19562251D01*
X25708767Y-19537747D01*
X25703986Y-19513714D01*
X25694610Y-19491077D01*
X25687251Y-19477309D01*
X25685123Y-19470295D01*
X25683800Y-19456860D01*
X25683800Y-19143140D01*
X25685123Y-19129705D01*
X25687251Y-19122691D01*
X25694610Y-19108923D01*
X25703987Y-19086284D01*
X25708767Y-19062251D01*
X25708767Y-19037747D01*
X25703986Y-19013714D01*
X25694610Y-18991077D01*
X25687251Y-18977309D01*
X25685123Y-18970295D01*
X25683800Y-18956860D01*
X25683800Y-18643140D01*
X25685123Y-18629705D01*
X25687251Y-18622691D01*
X25694610Y-18608923D01*
X25703987Y-18586284D01*
X25708767Y-18562251D01*
X25708767Y-18537747D01*
X25703986Y-18513714D01*
X25694610Y-18491077D01*
X25687251Y-18477309D01*
X25685123Y-18470295D01*
X25683800Y-18456860D01*
X25683800Y-18143140D01*
X25685123Y-18129705D01*
X25687251Y-18122691D01*
X25694610Y-18108923D01*
X25703987Y-18086284D01*
X25708767Y-18062251D01*
X25708767Y-18037747D01*
X25703986Y-18013714D01*
X25694610Y-17991077D01*
X25687251Y-17977309D01*
X25685123Y-17970295D01*
X25683800Y-17956860D01*
X25683800Y-17643140D01*
X25685123Y-17629705D01*
X25687251Y-17622691D01*
X25694610Y-17608923D01*
X25703987Y-17586284D01*
X25708767Y-17562251D01*
X25708767Y-17537747D01*
X25703986Y-17513714D01*
X25694610Y-17491077D01*
X25687251Y-17477309D01*
X25685123Y-17470295D01*
X25683800Y-17456860D01*
X25683800Y-17143140D01*
X25685123Y-17129705D01*
X25687251Y-17122691D01*
X25694610Y-17108923D01*
X25703987Y-17086284D01*
X25708767Y-17062251D01*
X25708767Y-17037747D01*
X25703986Y-17013714D01*
X25694610Y-16991077D01*
X25687251Y-16977309D01*
X25685123Y-16970295D01*
X25683800Y-16956860D01*
X25683800Y-16643140D01*
X25685123Y-16629705D01*
X25687251Y-16622691D01*
X25694610Y-16608923D01*
X25703987Y-16586284D01*
X25708767Y-16562251D01*
X25708767Y-16537747D01*
X25703986Y-16513714D01*
X25694610Y-16491077D01*
X25687251Y-16477309D01*
X25685123Y-16470295D01*
X25683800Y-16456860D01*
X25683800Y-16143140D01*
X25685123Y-16129705D01*
X25687251Y-16122691D01*
X25694610Y-16108923D01*
X25703987Y-16086284D01*
X25708767Y-16062251D01*
X25708767Y-16037747D01*
X25703986Y-16013714D01*
X25694610Y-15991077D01*
X25687251Y-15977309D01*
X25685123Y-15970295D01*
X25683800Y-15956860D01*
X25683800Y-15643140D01*
X25685123Y-15629705D01*
X25687251Y-15622691D01*
X25694610Y-15608923D01*
X25703987Y-15586284D01*
X25708767Y-15562251D01*
X25708767Y-15537747D01*
X25703986Y-15513714D01*
X25694610Y-15491077D01*
X25687251Y-15477309D01*
X25685123Y-15470295D01*
X25683800Y-15456860D01*
X25683800Y-15143140D01*
X25685123Y-15129705D01*
X25687251Y-15122691D01*
X25694610Y-15108923D01*
X25703987Y-15086284D01*
X25708767Y-15062251D01*
X25708767Y-15037747D01*
X25703986Y-15013714D01*
X25694610Y-14991077D01*
X25687251Y-14977309D01*
X25685123Y-14970295D01*
X25683800Y-14956860D01*
X25683800Y-14643140D01*
X25685123Y-14629705D01*
X25687251Y-14622691D01*
X25694610Y-14608923D01*
X25703987Y-14586284D01*
X25708767Y-14562251D01*
X25708767Y-14537747D01*
X25703986Y-14513714D01*
X25694610Y-14491077D01*
X25687251Y-14477309D01*
X25685123Y-14470295D01*
X25683800Y-14456860D01*
X25683800Y-14143140D01*
X25685123Y-14129705D01*
X25687251Y-14122691D01*
X25694610Y-14108923D01*
X25703987Y-14086284D01*
X25708767Y-14062251D01*
X25708767Y-14037747D01*
X25703986Y-14013714D01*
X25694610Y-13991077D01*
X25687251Y-13977309D01*
X25685123Y-13970295D01*
X25683800Y-13956860D01*
X25683800Y-13643140D01*
X25685123Y-13629705D01*
X25687251Y-13622691D01*
X25694610Y-13608923D01*
X25703987Y-13586284D01*
X25708767Y-13562251D01*
X25708767Y-13537747D01*
X25703986Y-13513714D01*
X25694610Y-13491077D01*
X25687251Y-13477309D01*
X25685123Y-13470295D01*
X25683800Y-13456860D01*
X25683800Y-13143140D01*
X25685123Y-13129705D01*
X25687251Y-13122691D01*
X25694610Y-13108923D01*
X25703987Y-13086284D01*
X25708767Y-13062251D01*
X25708767Y-13037747D01*
X25703986Y-13013714D01*
X25694610Y-12991077D01*
X25687251Y-12977309D01*
X25685123Y-12970295D01*
X25683800Y-12956860D01*
X25683800Y-12643140D01*
X25685123Y-12629705D01*
X25687251Y-12622691D01*
X25694610Y-12608923D01*
X25703987Y-12586284D01*
X25708767Y-12562251D01*
X25708767Y-12537747D01*
X25703986Y-12513714D01*
X25694610Y-12491077D01*
X25687251Y-12477309D01*
X25685123Y-12470295D01*
X25683800Y-12456860D01*
X25683800Y-12143140D01*
X25685123Y-12129705D01*
X25687251Y-12122691D01*
X25694610Y-12108923D01*
X25703987Y-12086284D01*
X25708767Y-12062251D01*
X25708767Y-12037747D01*
X25703986Y-12013714D01*
X25694610Y-11991077D01*
X25687251Y-11977309D01*
X25685123Y-11970295D01*
X25683800Y-11956860D01*
X25683800Y-11643140D01*
X25685123Y-11629705D01*
X25687251Y-11622691D01*
X25694610Y-11608923D01*
X25703987Y-11586284D01*
X25708767Y-11562251D01*
X25708767Y-11537747D01*
X25703986Y-11513714D01*
X25694610Y-11491077D01*
X25687251Y-11477309D01*
X25685123Y-11470295D01*
X25683800Y-11456860D01*
X25683800Y-11143140D01*
X25685123Y-11129705D01*
X25687251Y-11122691D01*
X25694610Y-11108923D01*
X25703987Y-11086284D01*
X25708767Y-11062251D01*
X25708767Y-11037747D01*
X25703986Y-11013714D01*
X25694610Y-10991077D01*
X25687251Y-10977309D01*
X25685123Y-10970295D01*
X25683800Y-10956860D01*
X25683800Y-10643140D01*
X25685123Y-10629705D01*
X25687251Y-10622691D01*
X25694610Y-10608923D01*
X25703987Y-10586284D01*
X25708767Y-10562251D01*
X25708767Y-10537747D01*
X25703986Y-10513714D01*
X25694610Y-10491077D01*
X25687251Y-10477309D01*
X25685123Y-10470295D01*
X25683800Y-10456860D01*
X25683800Y-10143140D01*
X25685123Y-10129705D01*
X25687251Y-10122690D01*
X25690708Y-10116224D01*
X25695358Y-10110558D01*
X25701024Y-10105908D01*
X25707490Y-10102451D01*
X25714505Y-10100323D01*
X25727940Y-10099000D01*
X27216660Y-10099000D01*
X27230095Y-10100323D01*
G37*
G36*
X3793828Y-25713303D02*
G01*
X3948700Y-25777453D01*
X4088081Y-25870585D01*
X4206615Y-25989119D01*
X4299747Y-26128500D01*
X4363897Y-26283372D01*
X4396600Y-26447784D01*
X4396600Y-26615416D01*
X4363897Y-26779828D01*
X4299747Y-26934700D01*
X4206615Y-27074081D01*
X4088081Y-27192615D01*
X3948700Y-27285747D01*
X3793828Y-27349897D01*
X3629416Y-27382600D01*
X3461784Y-27382600D01*
X3297372Y-27349897D01*
X3142500Y-27285747D01*
X3003119Y-27192615D01*
X2884585Y-27074081D01*
X2791453Y-26934700D01*
X2727303Y-26779828D01*
X2694600Y-26615416D01*
X2694600Y-26447784D01*
X2727303Y-26283372D01*
X2791453Y-26128500D01*
X2884585Y-25989119D01*
X3003119Y-25870585D01*
X3142500Y-25777453D01*
X3297372Y-25713303D01*
X3461784Y-25680600D01*
X3629416Y-25680600D01*
X3793828Y-25713303D01*
G37*
G36*
X19033828Y-25713303D02*
G01*
X19188700Y-25777453D01*
X19328081Y-25870585D01*
X19446615Y-25989119D01*
X19539747Y-26128500D01*
X19603897Y-26283372D01*
X19636600Y-26447784D01*
X19636600Y-26615416D01*
X19603897Y-26779828D01*
X19539747Y-26934700D01*
X19446615Y-27074081D01*
X19328081Y-27192615D01*
X19188700Y-27285747D01*
X19033828Y-27349897D01*
X18869416Y-27382600D01*
X18701784Y-27382600D01*
X18537372Y-27349897D01*
X18382500Y-27285747D01*
X18243119Y-27192615D01*
X18124585Y-27074081D01*
X18031453Y-26934700D01*
X17967303Y-26779828D01*
X17934600Y-26615416D01*
X17934600Y-26447784D01*
X17967303Y-26283372D01*
X18031453Y-26128500D01*
X18124585Y-25989119D01*
X18243119Y-25870585D01*
X18382500Y-25777453D01*
X18537372Y-25713303D01*
X18701784Y-25680600D01*
X18869416Y-25680600D01*
X19033828Y-25713303D01*
G37*
G36*
X3793828Y-23173303D02*
G01*
X3948700Y-23237453D01*
X4088081Y-23330585D01*
X4206615Y-23449119D01*
X4299747Y-23588500D01*
X4363897Y-23743372D01*
X4396600Y-23907784D01*
X4396600Y-24075416D01*
X4363897Y-24239828D01*
X4299747Y-24394700D01*
X4206615Y-24534081D01*
X4088081Y-24652615D01*
X3948700Y-24745747D01*
X3793828Y-24809897D01*
X3629416Y-24842600D01*
X3461784Y-24842600D01*
X3297372Y-24809897D01*
X3142500Y-24745747D01*
X3003119Y-24652615D01*
X2884585Y-24534081D01*
X2791453Y-24394700D01*
X2727303Y-24239828D01*
X2694600Y-24075416D01*
X2694600Y-23907784D01*
X2727303Y-23743372D01*
X2791453Y-23588500D01*
X2884585Y-23449119D01*
X3003119Y-23330585D01*
X3142500Y-23237453D01*
X3297372Y-23173303D01*
X3461784Y-23140600D01*
X3629416Y-23140600D01*
X3793828Y-23173303D01*
G37*
G36*
X19033828Y-23173303D02*
G01*
X19188700Y-23237453D01*
X19328081Y-23330585D01*
X19446615Y-23449119D01*
X19539747Y-23588500D01*
X19603897Y-23743372D01*
X19636600Y-23907784D01*
X19636600Y-24075416D01*
X19603897Y-24239828D01*
X19539747Y-24394700D01*
X19446615Y-24534081D01*
X19328081Y-24652615D01*
X19188700Y-24745747D01*
X19033828Y-24809897D01*
X18869416Y-24842600D01*
X18701784Y-24842600D01*
X18537372Y-24809897D01*
X18382500Y-24745747D01*
X18243119Y-24652615D01*
X18124585Y-24534081D01*
X18031453Y-24394700D01*
X17967303Y-24239828D01*
X17934600Y-24075416D01*
X17934600Y-23907784D01*
X17967303Y-23743372D01*
X18031453Y-23588500D01*
X18124585Y-23449119D01*
X18243119Y-23330585D01*
X18382500Y-23237453D01*
X18537372Y-23173303D01*
X18701784Y-23140600D01*
X18869416Y-23140600D01*
X19033828Y-23173303D01*
G37*
G36*
X19033828Y-20633303D02*
G01*
X19188700Y-20697453D01*
X19328081Y-20790585D01*
X19446615Y-20909119D01*
X19539747Y-21048500D01*
X19603897Y-21203372D01*
X19636600Y-21367784D01*
X19636600Y-21535416D01*
X19603897Y-21699828D01*
X19539747Y-21854700D01*
X19446615Y-21994081D01*
X19328081Y-22112615D01*
X19188700Y-22205747D01*
X19033828Y-22269897D01*
X18869416Y-22302600D01*
X18701784Y-22302600D01*
X18537372Y-22269897D01*
X18382500Y-22205747D01*
X18243119Y-22112615D01*
X18124585Y-21994081D01*
X18031453Y-21854700D01*
X17967303Y-21699828D01*
X17934600Y-21535416D01*
X17934600Y-21367784D01*
X17967303Y-21203372D01*
X18031453Y-21048500D01*
X18124585Y-20909119D01*
X18243119Y-20790585D01*
X18382500Y-20697453D01*
X18537372Y-20633303D01*
X18701784Y-20600600D01*
X18869416Y-20600600D01*
X19033828Y-20633303D01*
G37*
G36*
X3793828Y-20633303D02*
G01*
X3948700Y-20697453D01*
X4088081Y-20790585D01*
X4206615Y-20909119D01*
X4299747Y-21048500D01*
X4363897Y-21203372D01*
X4396600Y-21367784D01*
X4396600Y-21535416D01*
X4363897Y-21699828D01*
X4299747Y-21854700D01*
X4206615Y-21994081D01*
X4088081Y-22112615D01*
X3948700Y-22205747D01*
X3793828Y-22269897D01*
X3629416Y-22302600D01*
X3461784Y-22302600D01*
X3297372Y-22269897D01*
X3142500Y-22205747D01*
X3003119Y-22112615D01*
X2884585Y-21994081D01*
X2791453Y-21854700D01*
X2727303Y-21699828D01*
X2694600Y-21535416D01*
X2694600Y-21367784D01*
X2727303Y-21203372D01*
X2791453Y-21048500D01*
X2884585Y-20909119D01*
X3003119Y-20790585D01*
X3142500Y-20697453D01*
X3297372Y-20633303D01*
X3461784Y-20600600D01*
X3629416Y-20600600D01*
X3793828Y-20633303D01*
G37*
G36*
X11309592Y-19499069D02*
G01*
X11464212Y-19529824D01*
X11628184Y-19597744D01*
X11775754Y-19696347D01*
X11901253Y-19821846D01*
X11999856Y-19969416D01*
X12067776Y-20133388D01*
X12097473Y-20282688D01*
X12102400Y-20307458D01*
X12102400Y-20484942D01*
X12099590Y-20499069D01*
X12067776Y-20659012D01*
X11999856Y-20822984D01*
X11901253Y-20970554D01*
X11775754Y-21096053D01*
X11628184Y-21194656D01*
X11464212Y-21262576D01*
X11314912Y-21292273D01*
X11290142Y-21297200D01*
X11112658Y-21297200D01*
X11087888Y-21292273D01*
X10938588Y-21262576D01*
X10774616Y-21194656D01*
X10627046Y-21096053D01*
X10501547Y-20970554D01*
X10402944Y-20822984D01*
X10335024Y-20659012D01*
X10303210Y-20499069D01*
X10300400Y-20484942D01*
X10300400Y-20307458D01*
X10305327Y-20282688D01*
X10335024Y-20133388D01*
X10402944Y-19969416D01*
X10501547Y-19821846D01*
X10627046Y-19696347D01*
X10774616Y-19597744D01*
X10938588Y-19529824D01*
X11093208Y-19499069D01*
X11112658Y-19495200D01*
X11290142Y-19495200D01*
X11309592Y-19499069D01*
G37*
G36*
X3793828Y-18093303D02*
G01*
X3948700Y-18157453D01*
X4088081Y-18250585D01*
X4206615Y-18369119D01*
X4299747Y-18508500D01*
X4363897Y-18663372D01*
X4396600Y-18827784D01*
X4396600Y-18995416D01*
X4363897Y-19159828D01*
X4299747Y-19314700D01*
X4206615Y-19454081D01*
X4088081Y-19572615D01*
X3948700Y-19665747D01*
X3793828Y-19729897D01*
X3629416Y-19762600D01*
X3461784Y-19762600D01*
X3297372Y-19729897D01*
X3142500Y-19665747D01*
X3003119Y-19572615D01*
X2884585Y-19454081D01*
X2791453Y-19314700D01*
X2727303Y-19159828D01*
X2694600Y-18995416D01*
X2694600Y-18827784D01*
X2727303Y-18663372D01*
X2791453Y-18508500D01*
X2884585Y-18369119D01*
X3003119Y-18250585D01*
X3142500Y-18157453D01*
X3297372Y-18093303D01*
X3461784Y-18060600D01*
X3629416Y-18060600D01*
X3793828Y-18093303D01*
G37*
G36*
X19033828Y-18093303D02*
G01*
X19188700Y-18157453D01*
X19328081Y-18250585D01*
X19446615Y-18369119D01*
X19539747Y-18508500D01*
X19603897Y-18663372D01*
X19636600Y-18827784D01*
X19636600Y-18995416D01*
X19603897Y-19159828D01*
X19539747Y-19314700D01*
X19446615Y-19454081D01*
X19328081Y-19572615D01*
X19188700Y-19665747D01*
X19033828Y-19729897D01*
X18869416Y-19762600D01*
X18701784Y-19762600D01*
X18537372Y-19729897D01*
X18382500Y-19665747D01*
X18243119Y-19572615D01*
X18124585Y-19454081D01*
X18031453Y-19314700D01*
X17967303Y-19159828D01*
X17934600Y-18995416D01*
X17934600Y-18827784D01*
X17967303Y-18663372D01*
X18031453Y-18508500D01*
X18124585Y-18369119D01*
X18243119Y-18250585D01*
X18382500Y-18157453D01*
X18537372Y-18093303D01*
X18701784Y-18060600D01*
X18869416Y-18060600D01*
X19033828Y-18093303D01*
G37*
G36*
X11298487Y-16956860D02*
G01*
X11464212Y-16989824D01*
X11628184Y-17057744D01*
X11775754Y-17156347D01*
X11901253Y-17281846D01*
X11999856Y-17429416D01*
X12067776Y-17593388D01*
X12102400Y-17767459D01*
X12102400Y-17944941D01*
X12067776Y-18119012D01*
X11999856Y-18282984D01*
X11901253Y-18430554D01*
X11775754Y-18556053D01*
X11628184Y-18654656D01*
X11464212Y-18722576D01*
X11314912Y-18752273D01*
X11290142Y-18757200D01*
X11112658Y-18757200D01*
X11087888Y-18752273D01*
X10938588Y-18722576D01*
X10774616Y-18654656D01*
X10627046Y-18556053D01*
X10501547Y-18430554D01*
X10402944Y-18282984D01*
X10335024Y-18119012D01*
X10300400Y-17944941D01*
X10300400Y-17767459D01*
X10335024Y-17593388D01*
X10402944Y-17429416D01*
X10501547Y-17281846D01*
X10627046Y-17156347D01*
X10774616Y-17057744D01*
X10938588Y-16989824D01*
X11104313Y-16956860D01*
X11112658Y-16955200D01*
X11290142Y-16955200D01*
X11298487Y-16956860D01*
G37*
G36*
X3793828Y-15553303D02*
G01*
X3948700Y-15617453D01*
X4088081Y-15710585D01*
X4206615Y-15829119D01*
X4299747Y-15968500D01*
X4363897Y-16123372D01*
X4396600Y-16287784D01*
X4396600Y-16455416D01*
X4363897Y-16619828D01*
X4299747Y-16774700D01*
X4206615Y-16914081D01*
X4088081Y-17032615D01*
X3948700Y-17125747D01*
X3793828Y-17189897D01*
X3629416Y-17222600D01*
X3461784Y-17222600D01*
X3297372Y-17189897D01*
X3142500Y-17125747D01*
X3003119Y-17032615D01*
X2884585Y-16914081D01*
X2791453Y-16774700D01*
X2727303Y-16619828D01*
X2694600Y-16455416D01*
X2694600Y-16287784D01*
X2727303Y-16123372D01*
X2791453Y-15968500D01*
X2884585Y-15829119D01*
X3003119Y-15710585D01*
X3142500Y-15617453D01*
X3297372Y-15553303D01*
X3461784Y-15520600D01*
X3629416Y-15520600D01*
X3793828Y-15553303D01*
G37*
G36*
X19033828Y-15553303D02*
G01*
X19188700Y-15617453D01*
X19328081Y-15710585D01*
X19446615Y-15829119D01*
X19539747Y-15968500D01*
X19603897Y-16123372D01*
X19636600Y-16287784D01*
X19636600Y-16455416D01*
X19603897Y-16619828D01*
X19539747Y-16774700D01*
X19446615Y-16914081D01*
X19328081Y-17032615D01*
X19188700Y-17125747D01*
X19033828Y-17189897D01*
X18869416Y-17222600D01*
X18701784Y-17222600D01*
X18537372Y-17189897D01*
X18382500Y-17125747D01*
X18243119Y-17032615D01*
X18124585Y-16914081D01*
X18031453Y-16774700D01*
X17967303Y-16619828D01*
X17934600Y-16455416D01*
X17934600Y-16287784D01*
X17967303Y-16123372D01*
X18031453Y-15968500D01*
X18124585Y-15829119D01*
X18243119Y-15710585D01*
X18382500Y-15617453D01*
X18537372Y-15553303D01*
X18701784Y-15520600D01*
X18869416Y-15520600D01*
X19033828Y-15553303D01*
G37*
G36*
X11314811Y-14420107D02*
G01*
X11464212Y-14449824D01*
X11628184Y-14517744D01*
X11775754Y-14616347D01*
X11901253Y-14741846D01*
X11999856Y-14889416D01*
X12067776Y-15053388D01*
X12102400Y-15227459D01*
X12102400Y-15404941D01*
X12067776Y-15579012D01*
X11999856Y-15742984D01*
X11901253Y-15890554D01*
X11775754Y-16016053D01*
X11628184Y-16114656D01*
X11464212Y-16182576D01*
X11314912Y-16212273D01*
X11290142Y-16217200D01*
X11112658Y-16217200D01*
X11087888Y-16212273D01*
X10938588Y-16182576D01*
X10774616Y-16114656D01*
X10627046Y-16016053D01*
X10501547Y-15890554D01*
X10402944Y-15742984D01*
X10335024Y-15579012D01*
X10300400Y-15404941D01*
X10300400Y-15227459D01*
X10335024Y-15053388D01*
X10402944Y-14889416D01*
X10501547Y-14741846D01*
X10627046Y-14616347D01*
X10774616Y-14517744D01*
X10938588Y-14449824D01*
X11087989Y-14420107D01*
X11112658Y-14415200D01*
X11290142Y-14415200D01*
X11314811Y-14420107D01*
G37*
G36*
X3793828Y-13013303D02*
G01*
X3948700Y-13077453D01*
X4088081Y-13170585D01*
X4206615Y-13289119D01*
X4299747Y-13428500D01*
X4363897Y-13583372D01*
X4396600Y-13747784D01*
X4396600Y-13915416D01*
X4363897Y-14079828D01*
X4299747Y-14234700D01*
X4206615Y-14374081D01*
X4088081Y-14492615D01*
X3948700Y-14585747D01*
X3793828Y-14649897D01*
X3629416Y-14682600D01*
X3461784Y-14682600D01*
X3297372Y-14649897D01*
X3142500Y-14585747D01*
X3003119Y-14492615D01*
X2884585Y-14374081D01*
X2791453Y-14234700D01*
X2727303Y-14079828D01*
X2694600Y-13915416D01*
X2694600Y-13747784D01*
X2727303Y-13583372D01*
X2791453Y-13428500D01*
X2884585Y-13289119D01*
X3003119Y-13170585D01*
X3142500Y-13077453D01*
X3297372Y-13013303D01*
X3461784Y-12980600D01*
X3629416Y-12980600D01*
X3793828Y-13013303D01*
G37*
G36*
X19033828Y-13013303D02*
G01*
X19188700Y-13077453D01*
X19328081Y-13170585D01*
X19446615Y-13289119D01*
X19539747Y-13428500D01*
X19603897Y-13583372D01*
X19636600Y-13747784D01*
X19636600Y-13915416D01*
X19603897Y-14079828D01*
X19539747Y-14234700D01*
X19446615Y-14374081D01*
X19328081Y-14492615D01*
X19188700Y-14585747D01*
X19033828Y-14649897D01*
X18869416Y-14682600D01*
X18701784Y-14682600D01*
X18537372Y-14649897D01*
X18382500Y-14585747D01*
X18243119Y-14492615D01*
X18124585Y-14374081D01*
X18031453Y-14234700D01*
X17967303Y-14079828D01*
X17934600Y-13915416D01*
X17934600Y-13747784D01*
X17967303Y-13583372D01*
X18031453Y-13428500D01*
X18124585Y-13289119D01*
X18243119Y-13170585D01*
X18382500Y-13077453D01*
X18537372Y-13013303D01*
X18701784Y-12980600D01*
X18869416Y-12980600D01*
X19033828Y-13013303D01*
G37*
G36*
X11314912Y-11880127D02*
G01*
X11464212Y-11909824D01*
X11628184Y-11977744D01*
X11775754Y-12076347D01*
X11901253Y-12201846D01*
X11999856Y-12349416D01*
X12067776Y-12513388D01*
X12102400Y-12687459D01*
X12102400Y-12864941D01*
X12067776Y-13039012D01*
X11999856Y-13202984D01*
X11901253Y-13350554D01*
X11775754Y-13476053D01*
X11628184Y-13574656D01*
X11464212Y-13642576D01*
X11314912Y-13672273D01*
X11290142Y-13677200D01*
X11112658Y-13677200D01*
X11087888Y-13672273D01*
X10938588Y-13642576D01*
X10774616Y-13574656D01*
X10627046Y-13476053D01*
X10501547Y-13350554D01*
X10402944Y-13202984D01*
X10335024Y-13039012D01*
X10300400Y-12864941D01*
X10300400Y-12687459D01*
X10335024Y-12513388D01*
X10402944Y-12349416D01*
X10501547Y-12201846D01*
X10627046Y-12076347D01*
X10774616Y-11977744D01*
X10938588Y-11909824D01*
X11087888Y-11880127D01*
X11112658Y-11875200D01*
X11290142Y-11875200D01*
X11314912Y-11880127D01*
G37*
G36*
X19033828Y-10473303D02*
G01*
X19188700Y-10537453D01*
X19328081Y-10630585D01*
X19446615Y-10749119D01*
X19539747Y-10888500D01*
X19603897Y-11043372D01*
X19636600Y-11207784D01*
X19636600Y-11375416D01*
X19603897Y-11539828D01*
X19539747Y-11694700D01*
X19446615Y-11834081D01*
X19328081Y-11952615D01*
X19188700Y-12045747D01*
X19033828Y-12109897D01*
X18869416Y-12142600D01*
X18701784Y-12142600D01*
X18537372Y-12109897D01*
X18382500Y-12045747D01*
X18243119Y-11952615D01*
X18124585Y-11834081D01*
X18031453Y-11694700D01*
X17967303Y-11539828D01*
X17934600Y-11375416D01*
X17934600Y-11207784D01*
X17967303Y-11043372D01*
X18031453Y-10888500D01*
X18124585Y-10749119D01*
X18243119Y-10630585D01*
X18382500Y-10537453D01*
X18537372Y-10473303D01*
X18701784Y-10440600D01*
X18869416Y-10440600D01*
X19033828Y-10473303D01*
G37*
G36*
X3793828Y-10473303D02*
G01*
X3948700Y-10537453D01*
X4088081Y-10630585D01*
X4206615Y-10749119D01*
X4299747Y-10888500D01*
X4363897Y-11043372D01*
X4396600Y-11207784D01*
X4396600Y-11375416D01*
X4363897Y-11539828D01*
X4299747Y-11694700D01*
X4206615Y-11834081D01*
X4088081Y-11952615D01*
X3948700Y-12045747D01*
X3793828Y-12109897D01*
X3629416Y-12142600D01*
X3461784Y-12142600D01*
X3297372Y-12109897D01*
X3142500Y-12045747D01*
X3003119Y-11952615D01*
X2884585Y-11834081D01*
X2791453Y-11694700D01*
X2727303Y-11539828D01*
X2694600Y-11375416D01*
X2694600Y-11207784D01*
X2727303Y-11043372D01*
X2791453Y-10888500D01*
X2884585Y-10749119D01*
X3003119Y-10630585D01*
X3142500Y-10537453D01*
X3297372Y-10473303D01*
X3461784Y-10440600D01*
X3629416Y-10440600D01*
X3793828Y-10473303D01*
G37*
G36*
X11314912Y-9340127D02*
G01*
X11464212Y-9369824D01*
X11628184Y-9437744D01*
X11775754Y-9536347D01*
X11901253Y-9661846D01*
X11999856Y-9809416D01*
X12067776Y-9973388D01*
X12094135Y-10105908D01*
X12101646Y-10143665D01*
X12102400Y-10147459D01*
X12102400Y-10324941D01*
X12067776Y-10499012D01*
X11999856Y-10662984D01*
X11901253Y-10810554D01*
X11775754Y-10936053D01*
X11628184Y-11034656D01*
X11464212Y-11102576D01*
X11314912Y-11132273D01*
X11290142Y-11137200D01*
X11112658Y-11137200D01*
X11087888Y-11132273D01*
X10938588Y-11102576D01*
X10774616Y-11034656D01*
X10627046Y-10936053D01*
X10501547Y-10810554D01*
X10402944Y-10662984D01*
X10335024Y-10499012D01*
X10300400Y-10324941D01*
X10300400Y-10147459D01*
X10301155Y-10143665D01*
X10308665Y-10105908D01*
X10335024Y-9973388D01*
X10402944Y-9809416D01*
X10501547Y-9661846D01*
X10627046Y-9536347D01*
X10774616Y-9437744D01*
X10938588Y-9369824D01*
X11087888Y-9340127D01*
X11112658Y-9335200D01*
X11290142Y-9335200D01*
X11314912Y-9340127D01*
G37*
G36*
X19033828Y-7933303D02*
G01*
X19188700Y-7997453D01*
X19328081Y-8090585D01*
X19446615Y-8209119D01*
X19539747Y-8348500D01*
X19603897Y-8503372D01*
X19636600Y-8667784D01*
X19636600Y-8835416D01*
X19603897Y-8999828D01*
X19539747Y-9154700D01*
X19446615Y-9294081D01*
X19328081Y-9412615D01*
X19188700Y-9505747D01*
X19033828Y-9569897D01*
X18869416Y-9602600D01*
X18701784Y-9602600D01*
X18537372Y-9569897D01*
X18382500Y-9505747D01*
X18243119Y-9412615D01*
X18124585Y-9294081D01*
X18031453Y-9154700D01*
X17967303Y-8999828D01*
X17934600Y-8835416D01*
X17934600Y-8667784D01*
X17967303Y-8503372D01*
X18031453Y-8348500D01*
X18124585Y-8209119D01*
X18243119Y-8090585D01*
X18382500Y-7997453D01*
X18537372Y-7933303D01*
X18701784Y-7900600D01*
X18869416Y-7900600D01*
X19033828Y-7933303D01*
G37*
G36*
X3793828Y-7933303D02*
G01*
X3948700Y-7997453D01*
X4088081Y-8090585D01*
X4206615Y-8209119D01*
X4299747Y-8348500D01*
X4363897Y-8503372D01*
X4396600Y-8667784D01*
X4396600Y-8835416D01*
X4363897Y-8999828D01*
X4299747Y-9154700D01*
X4206615Y-9294081D01*
X4088081Y-9412615D01*
X3948700Y-9505747D01*
X3793828Y-9569897D01*
X3629416Y-9602600D01*
X3461784Y-9602600D01*
X3297372Y-9569897D01*
X3142500Y-9505747D01*
X3003119Y-9412615D01*
X2884585Y-9294081D01*
X2791453Y-9154700D01*
X2727303Y-8999828D01*
X2694600Y-8835416D01*
X2694600Y-8667784D01*
X2727303Y-8503372D01*
X2791453Y-8348500D01*
X2884585Y-8209119D01*
X3003119Y-8090585D01*
X3142500Y-7997453D01*
X3297372Y-7933303D01*
X3461784Y-7900600D01*
X3629416Y-7900600D01*
X3793828Y-7933303D01*
G37*
G36*
X28555095Y-7600323D02*
G01*
X28562109Y-7602451D01*
X28575877Y-7609810D01*
X28598516Y-7619187D01*
X28622549Y-7623967D01*
X28647053Y-7623967D01*
X28671086Y-7619186D01*
X28693723Y-7609810D01*
X28707491Y-7602451D01*
X28714505Y-7600323D01*
X28727940Y-7599000D01*
X29041660Y-7599000D01*
X29055095Y-7600323D01*
X29062109Y-7602451D01*
X29075877Y-7609810D01*
X29098516Y-7619187D01*
X29122549Y-7623967D01*
X29147053Y-7623967D01*
X29171086Y-7619186D01*
X29193723Y-7609810D01*
X29207491Y-7602451D01*
X29214505Y-7600323D01*
X29227940Y-7599000D01*
X29541660Y-7599000D01*
X29555095Y-7600323D01*
X29562109Y-7602451D01*
X29575877Y-7609810D01*
X29598516Y-7619187D01*
X29622549Y-7623967D01*
X29647053Y-7623967D01*
X29671086Y-7619186D01*
X29693723Y-7609810D01*
X29707491Y-7602451D01*
X29714505Y-7600323D01*
X29727940Y-7599000D01*
X30041660Y-7599000D01*
X30055095Y-7600323D01*
X30062109Y-7602451D01*
X30075877Y-7609810D01*
X30098516Y-7619187D01*
X30122549Y-7623967D01*
X30147053Y-7623967D01*
X30171086Y-7619186D01*
X30193723Y-7609810D01*
X30207491Y-7602451D01*
X30214505Y-7600323D01*
X30227940Y-7599000D01*
X30541660Y-7599000D01*
X30555095Y-7600323D01*
X30562109Y-7602451D01*
X30575877Y-7609810D01*
X30598516Y-7619187D01*
X30622549Y-7623967D01*
X30647053Y-7623967D01*
X30671086Y-7619186D01*
X30693723Y-7609810D01*
X30707491Y-7602451D01*
X30714505Y-7600323D01*
X30727940Y-7599000D01*
X31041660Y-7599000D01*
X31055095Y-7600323D01*
X31062109Y-7602451D01*
X31075877Y-7609810D01*
X31098516Y-7619187D01*
X31122549Y-7623967D01*
X31147053Y-7623967D01*
X31171086Y-7619186D01*
X31193723Y-7609810D01*
X31207491Y-7602451D01*
X31214505Y-7600323D01*
X31227940Y-7599000D01*
X31541660Y-7599000D01*
X31555095Y-7600323D01*
X31562109Y-7602451D01*
X31575877Y-7609810D01*
X31598516Y-7619187D01*
X31622549Y-7623967D01*
X31647053Y-7623967D01*
X31671086Y-7619186D01*
X31693723Y-7609810D01*
X31707491Y-7602451D01*
X31714505Y-7600323D01*
X31727940Y-7599000D01*
X32041660Y-7599000D01*
X32055095Y-7600323D01*
X32062109Y-7602451D01*
X32075877Y-7609810D01*
X32098516Y-7619187D01*
X32122549Y-7623967D01*
X32147053Y-7623967D01*
X32171086Y-7619186D01*
X32193723Y-7609810D01*
X32207491Y-7602451D01*
X32214505Y-7600323D01*
X32227940Y-7599000D01*
X32541660Y-7599000D01*
X32555095Y-7600323D01*
X32562109Y-7602451D01*
X32575877Y-7609810D01*
X32598516Y-7619187D01*
X32622549Y-7623967D01*
X32647053Y-7623967D01*
X32671086Y-7619186D01*
X32693723Y-7609810D01*
X32707491Y-7602451D01*
X32714505Y-7600323D01*
X32727940Y-7599000D01*
X33041660Y-7599000D01*
X33055095Y-7600323D01*
X33062109Y-7602451D01*
X33075877Y-7609810D01*
X33098516Y-7619187D01*
X33122549Y-7623967D01*
X33147053Y-7623967D01*
X33171086Y-7619186D01*
X33193723Y-7609810D01*
X33207491Y-7602451D01*
X33214505Y-7600323D01*
X33227940Y-7599000D01*
X33541660Y-7599000D01*
X33555095Y-7600323D01*
X33562109Y-7602451D01*
X33575877Y-7609810D01*
X33598516Y-7619187D01*
X33622549Y-7623967D01*
X33647053Y-7623967D01*
X33671086Y-7619186D01*
X33693723Y-7609810D01*
X33707491Y-7602451D01*
X33714505Y-7600323D01*
X33727940Y-7599000D01*
X34041660Y-7599000D01*
X34055095Y-7600323D01*
X34062109Y-7602451D01*
X34075877Y-7609810D01*
X34098516Y-7619187D01*
X34122549Y-7623967D01*
X34147053Y-7623967D01*
X34171086Y-7619186D01*
X34193723Y-7609810D01*
X34207491Y-7602451D01*
X34214505Y-7600323D01*
X34227940Y-7599000D01*
X34541660Y-7599000D01*
X34555095Y-7600323D01*
X34562109Y-7602451D01*
X34575877Y-7609810D01*
X34598516Y-7619187D01*
X34622549Y-7623967D01*
X34647053Y-7623967D01*
X34671086Y-7619186D01*
X34693723Y-7609810D01*
X34707491Y-7602451D01*
X34714505Y-7600323D01*
X34727940Y-7599000D01*
X35041660Y-7599000D01*
X35055095Y-7600323D01*
X35062109Y-7602451D01*
X35075877Y-7609810D01*
X35098516Y-7619187D01*
X35122549Y-7623967D01*
X35147053Y-7623967D01*
X35171086Y-7619186D01*
X35193723Y-7609810D01*
X35207491Y-7602451D01*
X35214505Y-7600323D01*
X35227940Y-7599000D01*
X35541660Y-7599000D01*
X35555095Y-7600323D01*
X35562109Y-7602451D01*
X35575877Y-7609810D01*
X35598516Y-7619187D01*
X35622549Y-7623967D01*
X35647053Y-7623967D01*
X35671086Y-7619186D01*
X35693723Y-7609810D01*
X35707491Y-7602451D01*
X35714505Y-7600323D01*
X35727940Y-7599000D01*
X36041660Y-7599000D01*
X36055095Y-7600323D01*
X36062109Y-7602451D01*
X36075877Y-7609810D01*
X36098516Y-7619187D01*
X36122549Y-7623967D01*
X36147053Y-7623967D01*
X36171086Y-7619186D01*
X36193723Y-7609810D01*
X36207491Y-7602451D01*
X36214505Y-7600323D01*
X36227940Y-7599000D01*
X36541660Y-7599000D01*
X36555095Y-7600323D01*
X36562109Y-7602451D01*
X36575877Y-7609810D01*
X36598516Y-7619187D01*
X36622549Y-7623967D01*
X36647053Y-7623967D01*
X36671086Y-7619186D01*
X36693723Y-7609810D01*
X36707491Y-7602451D01*
X36714505Y-7600323D01*
X36727940Y-7599000D01*
X37041660Y-7599000D01*
X37055095Y-7600323D01*
X37062109Y-7602451D01*
X37075877Y-7609810D01*
X37098516Y-7619187D01*
X37122549Y-7623967D01*
X37147053Y-7623967D01*
X37171086Y-7619186D01*
X37193723Y-7609810D01*
X37207491Y-7602451D01*
X37214505Y-7600323D01*
X37227940Y-7599000D01*
X37541660Y-7599000D01*
X37555095Y-7600323D01*
X37562109Y-7602451D01*
X37575877Y-7609810D01*
X37598516Y-7619187D01*
X37622549Y-7623967D01*
X37647053Y-7623967D01*
X37671086Y-7619186D01*
X37693723Y-7609810D01*
X37707491Y-7602451D01*
X37714505Y-7600323D01*
X37727940Y-7599000D01*
X38041660Y-7599000D01*
X38055095Y-7600323D01*
X38062109Y-7602451D01*
X38075877Y-7609810D01*
X38098516Y-7619187D01*
X38122549Y-7623967D01*
X38147053Y-7623967D01*
X38171086Y-7619186D01*
X38193723Y-7609810D01*
X38207491Y-7602451D01*
X38214505Y-7600323D01*
X38227940Y-7599000D01*
X38541660Y-7599000D01*
X38555095Y-7600323D01*
X38562109Y-7602451D01*
X38575877Y-7609810D01*
X38598516Y-7619187D01*
X38622549Y-7623967D01*
X38647053Y-7623967D01*
X38671086Y-7619186D01*
X38693723Y-7609810D01*
X38707491Y-7602451D01*
X38714505Y-7600323D01*
X38727940Y-7599000D01*
X39041660Y-7599000D01*
X39055095Y-7600323D01*
X39062109Y-7602451D01*
X39075877Y-7609810D01*
X39098516Y-7619187D01*
X39122549Y-7623967D01*
X39147053Y-7623967D01*
X39171086Y-7619186D01*
X39193723Y-7609810D01*
X39207491Y-7602451D01*
X39214505Y-7600323D01*
X39227940Y-7599000D01*
X39541660Y-7599000D01*
X39555095Y-7600323D01*
X39562109Y-7602451D01*
X39575877Y-7609810D01*
X39598516Y-7619187D01*
X39622549Y-7623967D01*
X39647053Y-7623967D01*
X39671086Y-7619186D01*
X39693723Y-7609810D01*
X39707491Y-7602451D01*
X39714505Y-7600323D01*
X39727940Y-7599000D01*
X40041660Y-7599000D01*
X40055095Y-7600323D01*
X40062109Y-7602451D01*
X40075877Y-7609810D01*
X40098516Y-7619187D01*
X40122549Y-7623967D01*
X40147053Y-7623967D01*
X40171086Y-7619186D01*
X40193723Y-7609810D01*
X40207491Y-7602451D01*
X40214505Y-7600323D01*
X40227940Y-7599000D01*
X40541660Y-7599000D01*
X40555095Y-7600323D01*
X40562109Y-7602451D01*
X40575877Y-7609810D01*
X40598516Y-7619187D01*
X40622549Y-7623967D01*
X40647053Y-7623967D01*
X40671086Y-7619186D01*
X40693723Y-7609810D01*
X40707491Y-7602451D01*
X40714505Y-7600323D01*
X40727940Y-7599000D01*
X41041660Y-7599000D01*
X41055095Y-7600323D01*
X41062109Y-7602451D01*
X41075877Y-7609810D01*
X41098516Y-7619187D01*
X41122549Y-7623967D01*
X41147053Y-7623967D01*
X41171086Y-7619186D01*
X41193723Y-7609810D01*
X41207491Y-7602451D01*
X41214505Y-7600323D01*
X41227940Y-7599000D01*
X41541660Y-7599000D01*
X41555095Y-7600323D01*
X41562109Y-7602451D01*
X41575877Y-7609810D01*
X41598516Y-7619187D01*
X41622549Y-7623967D01*
X41647053Y-7623967D01*
X41671086Y-7619186D01*
X41693723Y-7609810D01*
X41707491Y-7602451D01*
X41714505Y-7600323D01*
X41727940Y-7599000D01*
X42041660Y-7599000D01*
X42055095Y-7600323D01*
X42062109Y-7602451D01*
X42075877Y-7609810D01*
X42098516Y-7619187D01*
X42122549Y-7623967D01*
X42147053Y-7623967D01*
X42171086Y-7619186D01*
X42193723Y-7609810D01*
X42207491Y-7602451D01*
X42214505Y-7600323D01*
X42227940Y-7599000D01*
X42541660Y-7599000D01*
X42555095Y-7600323D01*
X42562109Y-7602451D01*
X42575877Y-7609810D01*
X42598516Y-7619187D01*
X42622549Y-7623967D01*
X42647053Y-7623967D01*
X42671086Y-7619186D01*
X42693723Y-7609810D01*
X42707491Y-7602451D01*
X42714505Y-7600323D01*
X42727940Y-7599000D01*
X43041660Y-7599000D01*
X43055095Y-7600323D01*
X43062109Y-7602451D01*
X43075877Y-7609810D01*
X43098516Y-7619187D01*
X43122549Y-7623967D01*
X43147053Y-7623967D01*
X43171086Y-7619186D01*
X43193723Y-7609810D01*
X43207491Y-7602451D01*
X43214505Y-7600323D01*
X43227940Y-7599000D01*
X43541660Y-7599000D01*
X43555095Y-7600323D01*
X43562109Y-7602451D01*
X43575877Y-7609810D01*
X43598516Y-7619187D01*
X43622549Y-7623967D01*
X43647053Y-7623967D01*
X43671086Y-7619186D01*
X43693723Y-7609810D01*
X43707491Y-7602451D01*
X43714505Y-7600323D01*
X43727940Y-7599000D01*
X44041660Y-7599000D01*
X44055095Y-7600323D01*
X44062109Y-7602451D01*
X44075877Y-7609810D01*
X44098516Y-7619187D01*
X44122549Y-7623967D01*
X44147053Y-7623967D01*
X44171086Y-7619186D01*
X44193723Y-7609810D01*
X44207491Y-7602451D01*
X44214505Y-7600323D01*
X44227940Y-7599000D01*
X44541660Y-7599000D01*
X44555095Y-7600323D01*
X44562109Y-7602451D01*
X44575877Y-7609810D01*
X44598516Y-7619187D01*
X44622549Y-7623967D01*
X44647053Y-7623967D01*
X44671086Y-7619186D01*
X44693723Y-7609810D01*
X44707491Y-7602451D01*
X44714505Y-7600323D01*
X44727940Y-7599000D01*
X45041660Y-7599000D01*
X45055095Y-7600323D01*
X45062109Y-7602451D01*
X45075877Y-7609810D01*
X45098516Y-7619187D01*
X45122549Y-7623967D01*
X45147053Y-7623967D01*
X45171086Y-7619186D01*
X45193723Y-7609810D01*
X45207491Y-7602451D01*
X45214505Y-7600323D01*
X45227940Y-7599000D01*
X45541660Y-7599000D01*
X45555095Y-7600323D01*
X45562109Y-7602451D01*
X45575877Y-7609810D01*
X45598516Y-7619187D01*
X45622549Y-7623967D01*
X45647053Y-7623967D01*
X45671086Y-7619186D01*
X45693723Y-7609810D01*
X45707491Y-7602451D01*
X45714505Y-7600323D01*
X45727940Y-7599000D01*
X46041660Y-7599000D01*
X46055095Y-7600323D01*
X46062110Y-7602451D01*
X46068576Y-7605908D01*
X46074242Y-7610558D01*
X46078892Y-7616224D01*
X46082349Y-7622690D01*
X46084477Y-7629705D01*
X46085800Y-7643140D01*
X46085800Y-9131860D01*
X46084477Y-9145295D01*
X46082349Y-9152310D01*
X46078892Y-9158776D01*
X46074242Y-9164442D01*
X46068576Y-9169092D01*
X46062110Y-9172549D01*
X46055095Y-9174677D01*
X46041660Y-9176000D01*
X45727940Y-9176000D01*
X45714505Y-9174677D01*
X45707491Y-9172549D01*
X45693723Y-9165190D01*
X45671084Y-9155813D01*
X45647051Y-9151033D01*
X45622547Y-9151033D01*
X45598514Y-9155814D01*
X45575877Y-9165190D01*
X45562109Y-9172549D01*
X45555095Y-9174677D01*
X45541660Y-9176000D01*
X45227940Y-9176000D01*
X45214505Y-9174677D01*
X45207491Y-9172549D01*
X45193723Y-9165190D01*
X45171084Y-9155813D01*
X45147051Y-9151033D01*
X45122547Y-9151033D01*
X45098514Y-9155814D01*
X45075877Y-9165190D01*
X45062109Y-9172549D01*
X45055095Y-9174677D01*
X45041660Y-9176000D01*
X44727940Y-9176000D01*
X44714505Y-9174677D01*
X44707491Y-9172549D01*
X44693723Y-9165190D01*
X44671084Y-9155813D01*
X44647051Y-9151033D01*
X44622547Y-9151033D01*
X44598514Y-9155814D01*
X44575877Y-9165190D01*
X44562109Y-9172549D01*
X44555095Y-9174677D01*
X44541660Y-9176000D01*
X44227940Y-9176000D01*
X44214505Y-9174677D01*
X44207491Y-9172549D01*
X44193723Y-9165190D01*
X44171084Y-9155813D01*
X44147051Y-9151033D01*
X44122547Y-9151033D01*
X44098514Y-9155814D01*
X44075877Y-9165190D01*
X44062109Y-9172549D01*
X44055095Y-9174677D01*
X44041660Y-9176000D01*
X43727940Y-9176000D01*
X43714505Y-9174677D01*
X43707491Y-9172549D01*
X43693723Y-9165190D01*
X43671084Y-9155813D01*
X43647051Y-9151033D01*
X43622547Y-9151033D01*
X43598514Y-9155814D01*
X43575877Y-9165190D01*
X43562109Y-9172549D01*
X43555095Y-9174677D01*
X43541660Y-9176000D01*
X43227940Y-9176000D01*
X43214505Y-9174677D01*
X43207491Y-9172549D01*
X43193723Y-9165190D01*
X43171084Y-9155813D01*
X43147051Y-9151033D01*
X43122547Y-9151033D01*
X43098514Y-9155814D01*
X43075877Y-9165190D01*
X43062109Y-9172549D01*
X43055095Y-9174677D01*
X43041660Y-9176000D01*
X42727940Y-9176000D01*
X42714505Y-9174677D01*
X42707491Y-9172549D01*
X42693723Y-9165190D01*
X42671084Y-9155813D01*
X42647051Y-9151033D01*
X42622547Y-9151033D01*
X42598514Y-9155814D01*
X42575877Y-9165190D01*
X42562109Y-9172549D01*
X42555095Y-9174677D01*
X42541660Y-9176000D01*
X42227940Y-9176000D01*
X42214505Y-9174677D01*
X42207491Y-9172549D01*
X42193723Y-9165190D01*
X42171084Y-9155813D01*
X42147051Y-9151033D01*
X42122547Y-9151033D01*
X42098514Y-9155814D01*
X42075877Y-9165190D01*
X42062109Y-9172549D01*
X42055095Y-9174677D01*
X42041660Y-9176000D01*
X41727940Y-9176000D01*
X41714505Y-9174677D01*
X41707491Y-9172549D01*
X41693723Y-9165190D01*
X41671084Y-9155813D01*
X41647051Y-9151033D01*
X41622547Y-9151033D01*
X41598514Y-9155814D01*
X41575877Y-9165190D01*
X41562109Y-9172549D01*
X41555095Y-9174677D01*
X41541660Y-9176000D01*
X41227940Y-9176000D01*
X41214505Y-9174677D01*
X41207491Y-9172549D01*
X41193723Y-9165190D01*
X41171084Y-9155813D01*
X41147051Y-9151033D01*
X41122547Y-9151033D01*
X41098514Y-9155814D01*
X41075877Y-9165190D01*
X41062109Y-9172549D01*
X41055095Y-9174677D01*
X41041660Y-9176000D01*
X40727940Y-9176000D01*
X40714505Y-9174677D01*
X40707491Y-9172549D01*
X40693723Y-9165190D01*
X40671084Y-9155813D01*
X40647051Y-9151033D01*
X40622547Y-9151033D01*
X40598514Y-9155814D01*
X40575877Y-9165190D01*
X40562109Y-9172549D01*
X40555095Y-9174677D01*
X40541660Y-9176000D01*
X40227940Y-9176000D01*
X40214505Y-9174677D01*
X40207491Y-9172549D01*
X40193723Y-9165190D01*
X40171084Y-9155813D01*
X40147051Y-9151033D01*
X40122547Y-9151033D01*
X40098514Y-9155814D01*
X40075877Y-9165190D01*
X40062109Y-9172549D01*
X40055095Y-9174677D01*
X40041660Y-9176000D01*
X39727940Y-9176000D01*
X39714505Y-9174677D01*
X39707491Y-9172549D01*
X39693723Y-9165190D01*
X39671084Y-9155813D01*
X39647051Y-9151033D01*
X39622547Y-9151033D01*
X39598514Y-9155814D01*
X39575877Y-9165190D01*
X39562109Y-9172549D01*
X39555095Y-9174677D01*
X39541660Y-9176000D01*
X39227940Y-9176000D01*
X39214505Y-9174677D01*
X39207491Y-9172549D01*
X39193723Y-9165190D01*
X39171084Y-9155813D01*
X39147051Y-9151033D01*
X39122547Y-9151033D01*
X39098514Y-9155814D01*
X39075877Y-9165190D01*
X39062109Y-9172549D01*
X39055095Y-9174677D01*
X39041660Y-9176000D01*
X38727940Y-9176000D01*
X38714505Y-9174677D01*
X38707491Y-9172549D01*
X38693723Y-9165190D01*
X38671084Y-9155813D01*
X38647051Y-9151033D01*
X38622547Y-9151033D01*
X38598514Y-9155814D01*
X38575877Y-9165190D01*
X38562109Y-9172549D01*
X38555095Y-9174677D01*
X38541660Y-9176000D01*
X38227940Y-9176000D01*
X38214505Y-9174677D01*
X38207491Y-9172549D01*
X38193723Y-9165190D01*
X38171084Y-9155813D01*
X38147051Y-9151033D01*
X38122547Y-9151033D01*
X38098514Y-9155814D01*
X38075877Y-9165190D01*
X38062109Y-9172549D01*
X38055095Y-9174677D01*
X38041660Y-9176000D01*
X37727940Y-9176000D01*
X37714505Y-9174677D01*
X37707491Y-9172549D01*
X37693723Y-9165190D01*
X37671084Y-9155813D01*
X37647051Y-9151033D01*
X37622547Y-9151033D01*
X37598514Y-9155814D01*
X37575877Y-9165190D01*
X37562109Y-9172549D01*
X37555095Y-9174677D01*
X37541660Y-9176000D01*
X37227940Y-9176000D01*
X37214505Y-9174677D01*
X37207491Y-9172549D01*
X37193723Y-9165190D01*
X37171084Y-9155813D01*
X37147051Y-9151033D01*
X37122547Y-9151033D01*
X37098514Y-9155814D01*
X37075877Y-9165190D01*
X37062109Y-9172549D01*
X37055095Y-9174677D01*
X37041660Y-9176000D01*
X36727940Y-9176000D01*
X36714505Y-9174677D01*
X36707491Y-9172549D01*
X36693723Y-9165190D01*
X36671084Y-9155813D01*
X36647051Y-9151033D01*
X36622547Y-9151033D01*
X36598514Y-9155814D01*
X36575877Y-9165190D01*
X36562109Y-9172549D01*
X36555095Y-9174677D01*
X36541660Y-9176000D01*
X36227940Y-9176000D01*
X36214505Y-9174677D01*
X36207491Y-9172549D01*
X36193723Y-9165190D01*
X36171084Y-9155813D01*
X36147051Y-9151033D01*
X36122547Y-9151033D01*
X36098514Y-9155814D01*
X36075877Y-9165190D01*
X36062109Y-9172549D01*
X36055095Y-9174677D01*
X36041660Y-9176000D01*
X35727940Y-9176000D01*
X35714505Y-9174677D01*
X35707491Y-9172549D01*
X35693723Y-9165190D01*
X35671084Y-9155813D01*
X35647051Y-9151033D01*
X35622547Y-9151033D01*
X35598514Y-9155814D01*
X35575877Y-9165190D01*
X35562109Y-9172549D01*
X35555095Y-9174677D01*
X35541660Y-9176000D01*
X35227940Y-9176000D01*
X35214505Y-9174677D01*
X35207491Y-9172549D01*
X35193723Y-9165190D01*
X35171084Y-9155813D01*
X35147051Y-9151033D01*
X35122547Y-9151033D01*
X35098514Y-9155814D01*
X35075877Y-9165190D01*
X35062109Y-9172549D01*
X35055095Y-9174677D01*
X35041660Y-9176000D01*
X34727940Y-9176000D01*
X34714505Y-9174677D01*
X34707491Y-9172549D01*
X34693723Y-9165190D01*
X34671084Y-9155813D01*
X34647051Y-9151033D01*
X34622547Y-9151033D01*
X34598514Y-9155814D01*
X34575877Y-9165190D01*
X34562109Y-9172549D01*
X34555095Y-9174677D01*
X34541660Y-9176000D01*
X34227940Y-9176000D01*
X34214505Y-9174677D01*
X34207491Y-9172549D01*
X34193723Y-9165190D01*
X34171084Y-9155813D01*
X34147051Y-9151033D01*
X34122547Y-9151033D01*
X34098514Y-9155814D01*
X34075877Y-9165190D01*
X34062109Y-9172549D01*
X34055095Y-9174677D01*
X34041660Y-9176000D01*
X33727940Y-9176000D01*
X33714505Y-9174677D01*
X33707491Y-9172549D01*
X33693723Y-9165190D01*
X33671084Y-9155813D01*
X33647051Y-9151033D01*
X33622547Y-9151033D01*
X33598514Y-9155814D01*
X33575877Y-9165190D01*
X33562109Y-9172549D01*
X33555095Y-9174677D01*
X33541660Y-9176000D01*
X33227940Y-9176000D01*
X33214505Y-9174677D01*
X33207491Y-9172549D01*
X33193723Y-9165190D01*
X33171084Y-9155813D01*
X33147051Y-9151033D01*
X33122547Y-9151033D01*
X33098514Y-9155814D01*
X33075877Y-9165190D01*
X33062109Y-9172549D01*
X33055095Y-9174677D01*
X33041660Y-9176000D01*
X32727940Y-9176000D01*
X32714505Y-9174677D01*
X32707491Y-9172549D01*
X32693723Y-9165190D01*
X32671084Y-9155813D01*
X32647051Y-9151033D01*
X32622547Y-9151033D01*
X32598514Y-9155814D01*
X32575877Y-9165190D01*
X32562109Y-9172549D01*
X32555095Y-9174677D01*
X32541660Y-9176000D01*
X32227940Y-9176000D01*
X32214505Y-9174677D01*
X32207491Y-9172549D01*
X32193723Y-9165190D01*
X32171084Y-9155813D01*
X32147051Y-9151033D01*
X32122547Y-9151033D01*
X32098514Y-9155814D01*
X32075877Y-9165190D01*
X32062109Y-9172549D01*
X32055095Y-9174677D01*
X32041660Y-9176000D01*
X31727940Y-9176000D01*
X31714505Y-9174677D01*
X31707491Y-9172549D01*
X31693723Y-9165190D01*
X31671084Y-9155813D01*
X31647051Y-9151033D01*
X31622547Y-9151033D01*
X31598514Y-9155814D01*
X31575877Y-9165190D01*
X31562109Y-9172549D01*
X31555095Y-9174677D01*
X31541660Y-9176000D01*
X31227940Y-9176000D01*
X31214505Y-9174677D01*
X31207491Y-9172549D01*
X31193723Y-9165190D01*
X31171084Y-9155813D01*
X31147051Y-9151033D01*
X31122547Y-9151033D01*
X31098514Y-9155814D01*
X31075877Y-9165190D01*
X31062109Y-9172549D01*
X31055095Y-9174677D01*
X31041660Y-9176000D01*
X30727940Y-9176000D01*
X30714505Y-9174677D01*
X30707491Y-9172549D01*
X30693723Y-9165190D01*
X30671084Y-9155813D01*
X30647051Y-9151033D01*
X30622547Y-9151033D01*
X30598514Y-9155814D01*
X30575877Y-9165190D01*
X30562109Y-9172549D01*
X30555095Y-9174677D01*
X30541660Y-9176000D01*
X30227940Y-9176000D01*
X30214505Y-9174677D01*
X30207491Y-9172549D01*
X30193723Y-9165190D01*
X30171084Y-9155813D01*
X30147051Y-9151033D01*
X30122547Y-9151033D01*
X30098514Y-9155814D01*
X30075877Y-9165190D01*
X30062109Y-9172549D01*
X30055095Y-9174677D01*
X30041660Y-9176000D01*
X29727940Y-9176000D01*
X29714505Y-9174677D01*
X29707491Y-9172549D01*
X29693723Y-9165190D01*
X29671084Y-9155813D01*
X29647051Y-9151033D01*
X29622547Y-9151033D01*
X29598514Y-9155814D01*
X29575877Y-9165190D01*
X29562109Y-9172549D01*
X29555095Y-9174677D01*
X29541660Y-9176000D01*
X29227940Y-9176000D01*
X29214505Y-9174677D01*
X29207491Y-9172549D01*
X29193723Y-9165190D01*
X29171084Y-9155813D01*
X29147051Y-9151033D01*
X29122547Y-9151033D01*
X29098514Y-9155814D01*
X29075877Y-9165190D01*
X29062109Y-9172549D01*
X29055095Y-9174677D01*
X29041660Y-9176000D01*
X28727940Y-9176000D01*
X28714505Y-9174677D01*
X28707491Y-9172549D01*
X28693723Y-9165190D01*
X28671084Y-9155813D01*
X28647051Y-9151033D01*
X28622547Y-9151033D01*
X28598514Y-9155814D01*
X28575877Y-9165190D01*
X28562109Y-9172549D01*
X28555095Y-9174677D01*
X28541660Y-9176000D01*
X28227940Y-9176000D01*
X28214505Y-9174677D01*
X28207490Y-9172549D01*
X28201024Y-9169092D01*
X28195358Y-9164442D01*
X28190708Y-9158776D01*
X28187251Y-9152310D01*
X28185123Y-9145295D01*
X28183800Y-9131860D01*
X28183800Y-7643140D01*
X28185123Y-7629705D01*
X28187251Y-7622690D01*
X28190708Y-7616224D01*
X28195358Y-7610558D01*
X28201024Y-7605908D01*
X28207490Y-7602451D01*
X28214505Y-7600323D01*
X28227940Y-7599000D01*
X28541660Y-7599000D01*
X28555095Y-7600323D01*
G37*
G36*
X12102400Y-8597200D02*
G01*
X10300400Y-8597200D01*
X10300400Y-6795200D01*
X12102400Y-6795200D01*
X12102400Y-8597200D01*
G37*
G36*
X19033828Y-5393303D02*
G01*
X19188700Y-5457453D01*
X19328081Y-5550585D01*
X19446615Y-5669119D01*
X19539747Y-5808500D01*
X19603897Y-5963372D01*
X19636600Y-6127784D01*
X19636600Y-6295416D01*
X19603897Y-6459828D01*
X19539747Y-6614700D01*
X19446615Y-6754081D01*
X19328081Y-6872615D01*
X19188700Y-6965747D01*
X19033828Y-7029897D01*
X18869416Y-7062600D01*
X18701784Y-7062600D01*
X18537372Y-7029897D01*
X18382500Y-6965747D01*
X18243119Y-6872615D01*
X18124585Y-6754081D01*
X18031453Y-6614700D01*
X17967303Y-6459828D01*
X17934600Y-6295416D01*
X17934600Y-6127784D01*
X17967303Y-5963372D01*
X18031453Y-5808500D01*
X18124585Y-5669119D01*
X18243119Y-5550585D01*
X18382500Y-5457453D01*
X18537372Y-5393303D01*
X18701784Y-5360600D01*
X18869416Y-5360600D01*
X19033828Y-5393303D01*
G37*
G36*
X4396600Y-7062600D02*
G01*
X2694600Y-7062600D01*
X2694600Y-5360600D01*
X4396600Y-5360600D01*
X4396600Y-7062600D01*
G37*
G36*
X37543738Y-2275316D02*
G01*
X37564357Y-2281571D01*
X37583353Y-2291724D01*
X37600008Y-2305392D01*
X37613676Y-2322047D01*
X37623829Y-2341043D01*
X37630084Y-2361662D01*
X37632703Y-2388255D01*
X37637483Y-2412288D01*
X37646861Y-2434927D01*
X37660474Y-2455301D01*
X37677801Y-2472628D01*
X37698176Y-2486242D01*
X37720814Y-2495619D01*
X37744848Y-2500400D01*
X37769352Y-2500400D01*
X37793385Y-2495620D01*
X37816024Y-2486242D01*
X37836398Y-2472629D01*
X37853725Y-2455302D01*
X37867339Y-2434927D01*
X37876716Y-2412289D01*
X37881497Y-2388255D01*
X37884116Y-2361662D01*
X37890371Y-2341043D01*
X37900524Y-2322047D01*
X37914192Y-2305392D01*
X37930847Y-2291724D01*
X37949843Y-2281571D01*
X37970462Y-2275316D01*
X37998040Y-2272600D01*
X38506760Y-2272600D01*
X38534338Y-2275316D01*
X38554957Y-2281571D01*
X38573953Y-2291724D01*
X38590608Y-2305392D01*
X38604276Y-2322047D01*
X38614429Y-2341043D01*
X38620684Y-2361662D01*
X38623303Y-2388255D01*
X38628083Y-2412288D01*
X38637461Y-2434927D01*
X38651074Y-2455301D01*
X38668401Y-2472628D01*
X38688776Y-2486242D01*
X38711414Y-2495619D01*
X38735448Y-2500400D01*
X38759952Y-2500400D01*
X38783985Y-2495620D01*
X38806624Y-2486242D01*
X38826998Y-2472629D01*
X38844325Y-2455302D01*
X38857939Y-2434927D01*
X38867316Y-2412289D01*
X38872097Y-2388255D01*
X38874716Y-2361662D01*
X38880971Y-2341043D01*
X38891124Y-2322047D01*
X38904792Y-2305392D01*
X38921447Y-2291724D01*
X38940443Y-2281571D01*
X38961062Y-2275316D01*
X38988640Y-2272600D01*
X39497360Y-2272600D01*
X39524938Y-2275316D01*
X39545557Y-2281571D01*
X39564553Y-2291724D01*
X39581208Y-2305392D01*
X39594876Y-2322047D01*
X39605029Y-2341043D01*
X39611284Y-2361662D01*
X39613903Y-2388255D01*
X39618683Y-2412288D01*
X39628061Y-2434927D01*
X39641674Y-2455301D01*
X39659001Y-2472628D01*
X39679376Y-2486242D01*
X39702014Y-2495619D01*
X39726048Y-2500400D01*
X39750552Y-2500400D01*
X39774585Y-2495620D01*
X39797224Y-2486242D01*
X39817598Y-2472629D01*
X39834925Y-2455302D01*
X39848539Y-2434927D01*
X39857916Y-2412289D01*
X39862697Y-2388255D01*
X39865316Y-2361662D01*
X39871571Y-2341043D01*
X39881724Y-2322047D01*
X39895392Y-2305392D01*
X39912047Y-2291724D01*
X39931043Y-2281571D01*
X39951662Y-2275316D01*
X39979240Y-2272600D01*
X40487960Y-2272600D01*
X40515538Y-2275316D01*
X40536157Y-2281571D01*
X40555153Y-2291724D01*
X40571808Y-2305392D01*
X40585476Y-2322047D01*
X40595629Y-2341043D01*
X40601884Y-2361662D01*
X40604503Y-2388255D01*
X40609283Y-2412288D01*
X40618661Y-2434927D01*
X40632274Y-2455301D01*
X40649601Y-2472628D01*
X40669976Y-2486242D01*
X40692614Y-2495619D01*
X40716648Y-2500400D01*
X40741152Y-2500400D01*
X40765185Y-2495620D01*
X40787824Y-2486242D01*
X40808198Y-2472629D01*
X40825525Y-2455302D01*
X40839139Y-2434927D01*
X40848516Y-2412289D01*
X40853297Y-2388255D01*
X40855916Y-2361662D01*
X40862171Y-2341043D01*
X40872324Y-2322047D01*
X40885992Y-2305392D01*
X40902647Y-2291724D01*
X40921643Y-2281571D01*
X40942262Y-2275316D01*
X40969840Y-2272600D01*
X41478560Y-2272600D01*
X41506138Y-2275316D01*
X41526757Y-2281571D01*
X41545753Y-2291724D01*
X41562408Y-2305392D01*
X41576076Y-2322047D01*
X41586229Y-2341043D01*
X41592484Y-2361662D01*
X41595103Y-2388255D01*
X41599883Y-2412288D01*
X41609261Y-2434927D01*
X41622874Y-2455301D01*
X41640201Y-2472628D01*
X41660576Y-2486242D01*
X41683214Y-2495619D01*
X41707248Y-2500400D01*
X41731752Y-2500400D01*
X41755785Y-2495620D01*
X41778424Y-2486242D01*
X41798798Y-2472629D01*
X41816125Y-2455302D01*
X41829739Y-2434927D01*
X41839116Y-2412289D01*
X41843897Y-2388255D01*
X41846516Y-2361662D01*
X41852771Y-2341043D01*
X41862924Y-2322047D01*
X41876592Y-2305392D01*
X41893247Y-2291724D01*
X41912243Y-2281571D01*
X41932862Y-2275316D01*
X41960440Y-2272600D01*
X42469160Y-2272600D01*
X42496738Y-2275316D01*
X42517357Y-2281571D01*
X42536353Y-2291724D01*
X42553008Y-2305392D01*
X42566676Y-2322047D01*
X42576829Y-2341043D01*
X42583084Y-2361662D01*
X42585800Y-2389240D01*
X42585800Y-2847960D01*
X42583084Y-2875538D01*
X42576829Y-2896157D01*
X42566676Y-2915153D01*
X42553008Y-2931808D01*
X42536353Y-2945476D01*
X42517357Y-2955629D01*
X42496738Y-2961884D01*
X42469160Y-2964600D01*
X41960440Y-2964600D01*
X41932862Y-2961884D01*
X41912243Y-2955629D01*
X41893247Y-2945476D01*
X41876592Y-2931808D01*
X41862924Y-2915153D01*
X41852771Y-2896157D01*
X41846516Y-2875538D01*
X41843897Y-2848945D01*
X41839117Y-2824912D01*
X41829739Y-2802273D01*
X41816126Y-2781899D01*
X41798799Y-2764572D01*
X41778424Y-2750958D01*
X41755786Y-2741581D01*
X41731752Y-2736800D01*
X41707248Y-2736800D01*
X41683215Y-2741580D01*
X41660576Y-2750958D01*
X41640202Y-2764571D01*
X41622875Y-2781898D01*
X41609261Y-2802273D01*
X41599884Y-2824911D01*
X41595103Y-2848945D01*
X41592484Y-2875538D01*
X41586229Y-2896157D01*
X41576076Y-2915153D01*
X41562408Y-2931808D01*
X41545753Y-2945476D01*
X41526757Y-2955629D01*
X41506138Y-2961884D01*
X41478560Y-2964600D01*
X40969840Y-2964600D01*
X40942262Y-2961884D01*
X40921643Y-2955629D01*
X40902647Y-2945476D01*
X40885992Y-2931808D01*
X40872324Y-2915153D01*
X40862171Y-2896157D01*
X40855916Y-2875538D01*
X40853297Y-2848945D01*
X40848517Y-2824912D01*
X40839139Y-2802273D01*
X40825526Y-2781899D01*
X40808199Y-2764572D01*
X40787824Y-2750958D01*
X40765186Y-2741581D01*
X40741152Y-2736800D01*
X40716648Y-2736800D01*
X40692615Y-2741580D01*
X40669976Y-2750958D01*
X40649602Y-2764571D01*
X40632275Y-2781898D01*
X40618661Y-2802273D01*
X40609284Y-2824911D01*
X40604503Y-2848945D01*
X40601884Y-2875538D01*
X40595629Y-2896157D01*
X40585476Y-2915153D01*
X40571808Y-2931808D01*
X40555153Y-2945476D01*
X40536157Y-2955629D01*
X40515538Y-2961884D01*
X40487960Y-2964600D01*
X39979240Y-2964600D01*
X39951662Y-2961884D01*
X39931043Y-2955629D01*
X39912047Y-2945476D01*
X39895392Y-2931808D01*
X39881724Y-2915153D01*
X39871571Y-2896157D01*
X39865316Y-2875538D01*
X39862697Y-2848945D01*
X39857917Y-2824912D01*
X39848539Y-2802273D01*
X39834926Y-2781899D01*
X39817599Y-2764572D01*
X39797224Y-2750958D01*
X39774586Y-2741581D01*
X39750552Y-2736800D01*
X39726048Y-2736800D01*
X39702015Y-2741580D01*
X39679376Y-2750958D01*
X39659002Y-2764571D01*
X39641675Y-2781898D01*
X39628061Y-2802273D01*
X39618684Y-2824911D01*
X39613903Y-2848945D01*
X39611284Y-2875538D01*
X39605029Y-2896157D01*
X39594876Y-2915153D01*
X39581208Y-2931808D01*
X39564553Y-2945476D01*
X39545557Y-2955629D01*
X39524938Y-2961884D01*
X39497360Y-2964600D01*
X38988640Y-2964600D01*
X38961062Y-2961884D01*
X38940443Y-2955629D01*
X38921447Y-2945476D01*
X38904792Y-2931808D01*
X38891124Y-2915153D01*
X38880971Y-2896157D01*
X38874716Y-2875538D01*
X38872097Y-2848945D01*
X38867317Y-2824912D01*
X38857939Y-2802273D01*
X38844326Y-2781899D01*
X38826999Y-2764572D01*
X38806624Y-2750958D01*
X38783986Y-2741581D01*
X38759952Y-2736800D01*
X38735448Y-2736800D01*
X38711415Y-2741580D01*
X38688776Y-2750958D01*
X38668402Y-2764571D01*
X38651075Y-2781898D01*
X38637461Y-2802273D01*
X38628084Y-2824911D01*
X38623303Y-2848945D01*
X38620684Y-2875538D01*
X38614429Y-2896157D01*
X38604276Y-2915153D01*
X38590608Y-2931808D01*
X38573953Y-2945476D01*
X38554957Y-2955629D01*
X38534338Y-2961884D01*
X38506760Y-2964600D01*
X37998040Y-2964600D01*
X37970462Y-2961884D01*
X37949843Y-2955629D01*
X37930847Y-2945476D01*
X37914192Y-2931808D01*
X37900524Y-2915153D01*
X37890371Y-2896157D01*
X37884116Y-2875538D01*
X37881497Y-2848945D01*
X37876717Y-2824912D01*
X37867339Y-2802273D01*
X37853726Y-2781899D01*
X37836399Y-2764572D01*
X37816024Y-2750958D01*
X37793386Y-2741581D01*
X37769352Y-2736800D01*
X37744848Y-2736800D01*
X37720815Y-2741580D01*
X37698176Y-2750958D01*
X37677802Y-2764571D01*
X37660475Y-2781898D01*
X37646861Y-2802273D01*
X37637484Y-2824911D01*
X37632703Y-2848945D01*
X37630084Y-2875538D01*
X37623829Y-2896157D01*
X37613676Y-2915153D01*
X37600008Y-2931808D01*
X37583353Y-2945476D01*
X37564357Y-2955629D01*
X37543738Y-2961884D01*
X37516160Y-2964600D01*
X37007440Y-2964600D01*
X36979862Y-2961884D01*
X36959243Y-2955629D01*
X36940247Y-2945476D01*
X36923592Y-2931808D01*
X36909924Y-2915153D01*
X36899771Y-2896157D01*
X36893516Y-2875538D01*
X36890800Y-2847960D01*
X36890800Y-2389240D01*
X36893516Y-2361662D01*
X36899771Y-2341043D01*
X36909924Y-2322047D01*
X36923592Y-2305392D01*
X36940247Y-2291724D01*
X36959243Y-2281571D01*
X36979862Y-2275316D01*
X37007440Y-2272600D01*
X37516160Y-2272600D01*
X37543738Y-2275316D01*
G37*
G36*
X43512738Y-2275316D02*
G01*
X43533357Y-2281571D01*
X43552353Y-2291724D01*
X43569008Y-2305392D01*
X43582676Y-2322047D01*
X43592829Y-2341043D01*
X43599084Y-2361662D01*
X43601703Y-2388255D01*
X43606483Y-2412288D01*
X43615861Y-2434927D01*
X43629474Y-2455301D01*
X43646801Y-2472628D01*
X43667176Y-2486242D01*
X43689814Y-2495619D01*
X43713848Y-2500400D01*
X43738352Y-2500400D01*
X43762385Y-2495620D01*
X43785024Y-2486242D01*
X43805398Y-2472629D01*
X43822725Y-2455302D01*
X43836339Y-2434927D01*
X43845716Y-2412289D01*
X43850497Y-2388255D01*
X43853116Y-2361662D01*
X43859371Y-2341043D01*
X43869524Y-2322047D01*
X43883192Y-2305392D01*
X43899847Y-2291724D01*
X43918843Y-2281571D01*
X43939462Y-2275316D01*
X43967040Y-2272600D01*
X44475760Y-2272600D01*
X44503338Y-2275316D01*
X44523957Y-2281571D01*
X44542953Y-2291724D01*
X44559608Y-2305392D01*
X44573276Y-2322047D01*
X44583429Y-2341043D01*
X44589684Y-2361662D01*
X44592400Y-2389240D01*
X44592400Y-2847960D01*
X44589684Y-2875538D01*
X44583429Y-2896157D01*
X44573276Y-2915153D01*
X44559608Y-2931808D01*
X44542953Y-2945476D01*
X44523957Y-2955629D01*
X44503338Y-2961884D01*
X44475760Y-2964600D01*
X43967040Y-2964600D01*
X43939462Y-2961884D01*
X43918843Y-2955629D01*
X43899847Y-2945476D01*
X43883192Y-2931808D01*
X43869524Y-2915153D01*
X43859371Y-2896157D01*
X43853116Y-2875538D01*
X43850497Y-2848945D01*
X43845717Y-2824912D01*
X43836339Y-2802273D01*
X43822726Y-2781899D01*
X43805399Y-2764572D01*
X43785024Y-2750958D01*
X43762386Y-2741581D01*
X43738352Y-2736800D01*
X43713848Y-2736800D01*
X43689815Y-2741580D01*
X43667176Y-2750958D01*
X43646802Y-2764571D01*
X43629475Y-2781898D01*
X43615861Y-2802273D01*
X43606484Y-2824911D01*
X43601703Y-2848945D01*
X43599084Y-2875538D01*
X43592829Y-2896157D01*
X43582676Y-2915153D01*
X43569008Y-2931808D01*
X43552353Y-2945476D01*
X43533357Y-2955629D01*
X43512738Y-2961884D01*
X43485160Y-2964600D01*
X42976440Y-2964600D01*
X42948862Y-2961884D01*
X42928243Y-2955629D01*
X42909247Y-2945476D01*
X42892592Y-2931808D01*
X42878924Y-2915153D01*
X42868771Y-2896157D01*
X42862516Y-2875538D01*
X42859800Y-2847960D01*
X42859800Y-2389240D01*
X42862516Y-2361662D01*
X42868771Y-2341043D01*
X42878924Y-2322047D01*
X42892592Y-2305392D01*
X42909247Y-2291724D01*
X42928243Y-2281571D01*
X42948862Y-2275316D01*
X42976440Y-2272600D01*
X43485160Y-2272600D01*
X43512738Y-2275316D01*
G37*
G36*
X43512738Y-1305316D02*
G01*
X43533357Y-1311571D01*
X43552353Y-1321724D01*
X43569008Y-1335392D01*
X43582676Y-1352047D01*
X43592829Y-1371043D01*
X43599084Y-1391662D01*
X43601703Y-1418255D01*
X43606483Y-1442288D01*
X43615861Y-1464927D01*
X43629474Y-1485301D01*
X43646801Y-1502628D01*
X43667176Y-1516242D01*
X43689814Y-1525619D01*
X43713848Y-1530400D01*
X43738352Y-1530400D01*
X43762385Y-1525620D01*
X43785024Y-1516242D01*
X43805398Y-1502629D01*
X43822725Y-1485302D01*
X43836339Y-1464927D01*
X43845716Y-1442289D01*
X43850497Y-1418255D01*
X43853116Y-1391662D01*
X43859371Y-1371043D01*
X43869524Y-1352047D01*
X43883192Y-1335392D01*
X43899847Y-1321724D01*
X43918843Y-1311571D01*
X43939462Y-1305316D01*
X43967040Y-1302600D01*
X44475760Y-1302600D01*
X44503338Y-1305316D01*
X44523957Y-1311571D01*
X44542953Y-1321724D01*
X44559608Y-1335392D01*
X44573276Y-1352047D01*
X44583429Y-1371043D01*
X44589684Y-1391662D01*
X44592400Y-1419240D01*
X44592400Y-1877960D01*
X44589684Y-1905538D01*
X44583429Y-1926157D01*
X44573276Y-1945153D01*
X44559608Y-1961808D01*
X44542953Y-1975476D01*
X44523957Y-1985629D01*
X44503338Y-1991884D01*
X44475760Y-1994600D01*
X43967040Y-1994600D01*
X43939462Y-1991884D01*
X43918843Y-1985629D01*
X43899847Y-1975476D01*
X43883192Y-1961808D01*
X43869524Y-1945153D01*
X43859371Y-1926157D01*
X43853116Y-1905538D01*
X43850497Y-1878945D01*
X43845717Y-1854912D01*
X43836339Y-1832273D01*
X43822726Y-1811899D01*
X43805399Y-1794572D01*
X43785024Y-1780958D01*
X43762386Y-1771581D01*
X43738352Y-1766800D01*
X43713848Y-1766800D01*
X43689815Y-1771580D01*
X43667176Y-1780958D01*
X43646802Y-1794571D01*
X43629475Y-1811898D01*
X43615861Y-1832273D01*
X43606484Y-1854911D01*
X43601703Y-1878945D01*
X43599084Y-1905538D01*
X43592829Y-1926157D01*
X43582676Y-1945153D01*
X43569008Y-1961808D01*
X43552353Y-1975476D01*
X43533357Y-1985629D01*
X43512738Y-1991884D01*
X43485160Y-1994600D01*
X42976440Y-1994600D01*
X42948862Y-1991884D01*
X42928243Y-1985629D01*
X42909247Y-1975476D01*
X42892592Y-1961808D01*
X42878924Y-1945153D01*
X42868771Y-1926157D01*
X42862516Y-1905538D01*
X42859800Y-1877960D01*
X42859800Y-1419240D01*
X42862516Y-1391662D01*
X42868771Y-1371043D01*
X42878924Y-1352047D01*
X42892592Y-1335392D01*
X42909247Y-1321724D01*
X42928243Y-1311571D01*
X42948862Y-1305316D01*
X42976440Y-1302600D01*
X43485160Y-1302600D01*
X43512738Y-1305316D01*
G37*
G36*
X37543738Y-1305316D02*
G01*
X37564357Y-1311571D01*
X37583353Y-1321724D01*
X37600008Y-1335392D01*
X37613676Y-1352047D01*
X37623829Y-1371043D01*
X37630084Y-1391662D01*
X37632703Y-1418255D01*
X37637483Y-1442288D01*
X37646861Y-1464927D01*
X37660474Y-1485301D01*
X37677801Y-1502628D01*
X37698176Y-1516242D01*
X37720814Y-1525619D01*
X37744848Y-1530400D01*
X37769352Y-1530400D01*
X37793385Y-1525620D01*
X37816024Y-1516242D01*
X37836398Y-1502629D01*
X37853725Y-1485302D01*
X37867339Y-1464927D01*
X37876716Y-1442289D01*
X37881497Y-1418255D01*
X37884116Y-1391662D01*
X37890371Y-1371043D01*
X37900524Y-1352047D01*
X37914192Y-1335392D01*
X37930847Y-1321724D01*
X37949843Y-1311571D01*
X37970462Y-1305316D01*
X37998040Y-1302600D01*
X38506760Y-1302600D01*
X38534338Y-1305316D01*
X38554957Y-1311571D01*
X38573953Y-1321724D01*
X38590608Y-1335392D01*
X38604276Y-1352047D01*
X38614429Y-1371043D01*
X38620684Y-1391662D01*
X38623303Y-1418255D01*
X38628083Y-1442288D01*
X38637461Y-1464927D01*
X38651074Y-1485301D01*
X38668401Y-1502628D01*
X38688776Y-1516242D01*
X38711414Y-1525619D01*
X38735448Y-1530400D01*
X38759952Y-1530400D01*
X38783985Y-1525620D01*
X38806624Y-1516242D01*
X38826998Y-1502629D01*
X38844325Y-1485302D01*
X38857939Y-1464927D01*
X38867316Y-1442289D01*
X38872097Y-1418255D01*
X38874716Y-1391662D01*
X38880971Y-1371043D01*
X38891124Y-1352047D01*
X38904792Y-1335392D01*
X38921447Y-1321724D01*
X38940443Y-1311571D01*
X38961062Y-1305316D01*
X38988640Y-1302600D01*
X39497360Y-1302600D01*
X39524938Y-1305316D01*
X39545557Y-1311571D01*
X39564553Y-1321724D01*
X39581208Y-1335392D01*
X39594876Y-1352047D01*
X39605029Y-1371043D01*
X39611284Y-1391662D01*
X39613903Y-1418255D01*
X39618683Y-1442288D01*
X39628061Y-1464927D01*
X39641674Y-1485301D01*
X39659001Y-1502628D01*
X39679376Y-1516242D01*
X39702014Y-1525619D01*
X39726048Y-1530400D01*
X39750552Y-1530400D01*
X39774585Y-1525620D01*
X39797224Y-1516242D01*
X39817598Y-1502629D01*
X39834925Y-1485302D01*
X39848539Y-1464927D01*
X39857916Y-1442289D01*
X39862697Y-1418255D01*
X39865316Y-1391662D01*
X39871571Y-1371043D01*
X39881724Y-1352047D01*
X39895392Y-1335392D01*
X39912047Y-1321724D01*
X39931043Y-1311571D01*
X39951662Y-1305316D01*
X39979240Y-1302600D01*
X40487960Y-1302600D01*
X40515538Y-1305316D01*
X40536157Y-1311571D01*
X40555153Y-1321724D01*
X40571808Y-1335392D01*
X40585476Y-1352047D01*
X40595629Y-1371043D01*
X40601884Y-1391662D01*
X40604503Y-1418255D01*
X40609283Y-1442288D01*
X40618661Y-1464927D01*
X40632274Y-1485301D01*
X40649601Y-1502628D01*
X40669976Y-1516242D01*
X40692614Y-1525619D01*
X40716648Y-1530400D01*
X40741152Y-1530400D01*
X40765185Y-1525620D01*
X40787824Y-1516242D01*
X40808198Y-1502629D01*
X40825525Y-1485302D01*
X40839139Y-1464927D01*
X40848516Y-1442289D01*
X40853297Y-1418255D01*
X40855916Y-1391662D01*
X40862171Y-1371043D01*
X40872324Y-1352047D01*
X40885992Y-1335392D01*
X40902647Y-1321724D01*
X40921643Y-1311571D01*
X40942262Y-1305316D01*
X40969840Y-1302600D01*
X41478560Y-1302600D01*
X41506138Y-1305316D01*
X41526757Y-1311571D01*
X41545753Y-1321724D01*
X41562408Y-1335392D01*
X41576076Y-1352047D01*
X41586229Y-1371043D01*
X41592484Y-1391662D01*
X41595103Y-1418255D01*
X41599883Y-1442288D01*
X41609261Y-1464927D01*
X41622874Y-1485301D01*
X41640201Y-1502628D01*
X41660576Y-1516242D01*
X41683214Y-1525619D01*
X41707248Y-1530400D01*
X41731752Y-1530400D01*
X41755785Y-1525620D01*
X41778424Y-1516242D01*
X41798798Y-1502629D01*
X41816125Y-1485302D01*
X41829739Y-1464927D01*
X41839116Y-1442289D01*
X41843897Y-1418255D01*
X41846516Y-1391662D01*
X41852771Y-1371043D01*
X41862924Y-1352047D01*
X41876592Y-1335392D01*
X41893247Y-1321724D01*
X41912243Y-1311571D01*
X41932862Y-1305316D01*
X41960440Y-1302600D01*
X42469160Y-1302600D01*
X42496738Y-1305316D01*
X42517357Y-1311571D01*
X42536353Y-1321724D01*
X42553008Y-1335392D01*
X42566676Y-1352047D01*
X42576829Y-1371043D01*
X42583084Y-1391662D01*
X42585800Y-1419240D01*
X42585800Y-1877960D01*
X42583084Y-1905538D01*
X42576829Y-1926157D01*
X42566676Y-1945153D01*
X42553008Y-1961808D01*
X42536353Y-1975476D01*
X42517357Y-1985629D01*
X42496738Y-1991884D01*
X42469160Y-1994600D01*
X41960440Y-1994600D01*
X41932862Y-1991884D01*
X41912243Y-1985629D01*
X41893247Y-1975476D01*
X41876592Y-1961808D01*
X41862924Y-1945153D01*
X41852771Y-1926157D01*
X41846516Y-1905538D01*
X41843897Y-1878945D01*
X41839117Y-1854912D01*
X41829739Y-1832273D01*
X41816126Y-1811899D01*
X41798799Y-1794572D01*
X41778424Y-1780958D01*
X41755786Y-1771581D01*
X41731752Y-1766800D01*
X41707248Y-1766800D01*
X41683215Y-1771580D01*
X41660576Y-1780958D01*
X41640202Y-1794571D01*
X41622875Y-1811898D01*
X41609261Y-1832273D01*
X41599884Y-1854911D01*
X41595103Y-1878945D01*
X41592484Y-1905538D01*
X41586229Y-1926157D01*
X41576076Y-1945153D01*
X41562408Y-1961808D01*
X41545753Y-1975476D01*
X41526757Y-1985629D01*
X41506138Y-1991884D01*
X41478560Y-1994600D01*
X40969840Y-1994600D01*
X40942262Y-1991884D01*
X40921643Y-1985629D01*
X40902647Y-1975476D01*
X40885992Y-1961808D01*
X40872324Y-1945153D01*
X40862171Y-1926157D01*
X40855916Y-1905538D01*
X40853297Y-1878945D01*
X40848517Y-1854912D01*
X40839139Y-1832273D01*
X40825526Y-1811899D01*
X40808199Y-1794572D01*
X40787824Y-1780958D01*
X40765186Y-1771581D01*
X40741152Y-1766800D01*
X40716648Y-1766800D01*
X40692615Y-1771580D01*
X40669976Y-1780958D01*
X40649602Y-1794571D01*
X40632275Y-1811898D01*
X40618661Y-1832273D01*
X40609284Y-1854911D01*
X40604503Y-1878945D01*
X40601884Y-1905538D01*
X40595629Y-1926157D01*
X40585476Y-1945153D01*
X40571808Y-1961808D01*
X40555153Y-1975476D01*
X40536157Y-1985629D01*
X40515538Y-1991884D01*
X40487960Y-1994600D01*
X39979240Y-1994600D01*
X39951662Y-1991884D01*
X39931043Y-1985629D01*
X39912047Y-1975476D01*
X39895392Y-1961808D01*
X39881724Y-1945153D01*
X39871571Y-1926157D01*
X39865316Y-1905538D01*
X39862697Y-1878945D01*
X39857917Y-1854912D01*
X39848539Y-1832273D01*
X39834926Y-1811899D01*
X39817599Y-1794572D01*
X39797224Y-1780958D01*
X39774586Y-1771581D01*
X39750552Y-1766800D01*
X39726048Y-1766800D01*
X39702015Y-1771580D01*
X39679376Y-1780958D01*
X39659002Y-1794571D01*
X39641675Y-1811898D01*
X39628061Y-1832273D01*
X39618684Y-1854911D01*
X39613903Y-1878945D01*
X39611284Y-1905538D01*
X39605029Y-1926157D01*
X39594876Y-1945153D01*
X39581208Y-1961808D01*
X39564553Y-1975476D01*
X39545557Y-1985629D01*
X39524938Y-1991884D01*
X39497360Y-1994600D01*
X38988640Y-1994600D01*
X38961062Y-1991884D01*
X38940443Y-1985629D01*
X38921447Y-1975476D01*
X38904792Y-1961808D01*
X38891124Y-1945153D01*
X38880971Y-1926157D01*
X38874716Y-1905538D01*
X38872097Y-1878945D01*
X38867317Y-1854912D01*
X38857939Y-1832273D01*
X38844326Y-1811899D01*
X38826999Y-1794572D01*
X38806624Y-1780958D01*
X38783986Y-1771581D01*
X38759952Y-1766800D01*
X38735448Y-1766800D01*
X38711415Y-1771580D01*
X38688776Y-1780958D01*
X38668402Y-1794571D01*
X38651075Y-1811898D01*
X38637461Y-1832273D01*
X38628084Y-1854911D01*
X38623303Y-1878945D01*
X38620684Y-1905538D01*
X38614429Y-1926157D01*
X38604276Y-1945153D01*
X38590608Y-1961808D01*
X38573953Y-1975476D01*
X38554957Y-1985629D01*
X38534338Y-1991884D01*
X38506760Y-1994600D01*
X37998040Y-1994600D01*
X37970462Y-1991884D01*
X37949843Y-1985629D01*
X37930847Y-1975476D01*
X37914192Y-1961808D01*
X37900524Y-1945153D01*
X37890371Y-1926157D01*
X37884116Y-1905538D01*
X37881497Y-1878945D01*
X37876717Y-1854912D01*
X37867339Y-1832273D01*
X37853726Y-1811899D01*
X37836399Y-1794572D01*
X37816024Y-1780958D01*
X37793386Y-1771581D01*
X37769352Y-1766800D01*
X37744848Y-1766800D01*
X37720815Y-1771580D01*
X37698176Y-1780958D01*
X37677802Y-1794571D01*
X37660475Y-1811898D01*
X37646861Y-1832273D01*
X37637484Y-1854911D01*
X37632703Y-1878945D01*
X37630084Y-1905538D01*
X37623829Y-1926157D01*
X37613676Y-1945153D01*
X37600008Y-1961808D01*
X37583353Y-1975476D01*
X37564357Y-1985629D01*
X37543738Y-1991884D01*
X37516160Y-1994600D01*
X37007440Y-1994600D01*
X36979862Y-1991884D01*
X36959243Y-1985629D01*
X36940247Y-1975476D01*
X36923592Y-1961808D01*
X36909924Y-1945153D01*
X36899771Y-1926157D01*
X36893516Y-1905538D01*
X36890800Y-1877960D01*
X36890800Y-1419240D01*
X36893516Y-1391662D01*
X36899771Y-1371043D01*
X36909924Y-1352047D01*
X36923592Y-1335392D01*
X36940247Y-1321724D01*
X36959243Y-1311571D01*
X36979862Y-1305316D01*
X37007440Y-1302600D01*
X37516160Y-1302600D01*
X37543738Y-1305316D01*
G37*
M02*
